<?xml version="1.0" encoding="UTF-8" standalone="no"?>
<!-- Created with Inkscape (http://www.inkscape.org/) -->

<svg
   width="100mm"
   height="100mm"
   viewBox="0 0 100 100"
   version="1.1"
   id="svg26768"
   xmlns="http://www.w3.org/2000/svg"
   xmlns:svg="http://www.w3.org/2000/svg">
  <defs
     id="defs26765" />
  <path
     d="M 2.6448084,47.125846 V 91.626152 H 4.2260361 5.8072669 V 61.469854 31.313548 h 6.3249171 6.324915 V 29.732326 28.151094 H 12.132184 5.8072669 v -7.228479 -7.228471 h 6.3249171 6.324915 V 12.112913 10.531681 H 12.132184 5.8072669 V 6.5786066 2.6255321 H 4.2260361 2.6448084 Z"
     id="path7980"
     style="stroke-width:0.0225891" />
  <path
     d="M 23.76551,6.1042398 C 22.47794,6.6915577 21.980983,7.482169 21.845445,9.1311619 l -0.112938,1.5134601 -0.722849,0.06778 -0.745431,0.06778 v 1.581222 1.558642 h 0.790611 0.790614 v 1.264987 c 0,1.558642 0.496956,2.462195 1.626408,3.049512 0.768029,0.384016 1.400515,0.429197 7.860969,0.429197 7.567317,0 7.657668,-0.02256 8.809703,-1.219807 0.429196,-0.474376 0.564728,-0.903565 0.632488,-2.055599 l 0.09034,-1.46829 h 0.768029 0.768021 v -1.694175 -1.694174 h -0.790611 c -0.768031,0 -0.79062,-0.02256 -0.79062,-0.9713232 C 40.797615,8.0243245 40.097341,6.7593375 38.967885,6.2397903 38.064324,5.833194 37.454424,5.7880138 31.21986,5.8106041 c -5.150285,0 -6.934819,0.067779 -7.454365,0.293654 z m 13.892232,6.1216142 v 3.275406 h -6.324918 -6.32492 V 12.225854 8.9504494 h 6.32492 6.324918 z"
     id="path8004"
     style="stroke-width:0.0225891" />
  <path
     d="m 28.170361,12.225854 v 0.790621 h 3.162463 3.162454 v -0.790621 -0.790611 h -3.162454 -3.162463 z"
     id="path8006"
     style="stroke-width:0.0225891" />
  <path
     d="m 23.991401,23.43 c -0.384012,0.09034 -0.993915,0.496955 -1.355342,0.880962 -0.542131,0.564726 -0.655076,0.926152 -0.768023,2.191139 -0.135532,1.536052 -0.135532,1.536052 -0.858383,1.603812 l -0.745432,0.06778 v 1.58123 1.558633 h 0.790612 0.790612 v 1.264987 c 0,1.536051 0.564729,2.597735 1.671589,3.117282 1.061679,0.496957 14.479532,0.542137 15.450866,0.04522 1.264978,-0.655079 1.716764,-1.400518 1.807115,-2.959159 l 0.09034,-1.468282 h 0.76803 0.768021 v -1.58122 -1.581234 h -0.790612 -0.790621 v -1.084265 c -0.02256,-1.649001 -0.700249,-2.913979 -1.852296,-3.433527 -0.903561,-0.406605 -1.490869,-0.451786 -7.635076,-0.429194 -3.659415,0 -6.979996,0.112953 -7.341424,0.225892 z m 13.666341,6.302326 v 3.162454 h -6.324918 -6.32492 v -3.162454 -3.162463 h 6.32492 6.324918 z"
     id="path8022"
     style="stroke-width:0.0225891" />
  <path
     d="m 28.170361,29.619375 v 0.79062 h 3.162463 3.162454 v -0.79062 -0.790611 h -3.162454 -3.162463 z"
     id="path8024"
     style="stroke-width:0.0225891" />
  <path
     d="m 25.007904,65.422921 v 26.203231 h 1.581234 1.581223 v -3.953074 -3.953066 h 6.324917 6.324918 v -1.58124 -1.581224 H 34.495278 28.170361 V 65.422921 50.2883 h 6.324917 6.324918 v -1.581222 -1.581232 h -6.324918 -6.324917 v -3.953073 -3.953076 h -1.581223 -1.581234 z"
     id="path8026"
     style="stroke-width:0.0225891" />
  <path
     d="m 45.609063,42.833938 c -1.084276,0.655078 -1.626404,1.694173 -1.626404,3.094692 v 1.197216 h -0.79062 -0.790612 v 1.581232 1.581222 h 0.790612 0.79062 v 1.174635 c 0,1.513462 0.542128,2.620318 1.581224,3.230217 0.745439,0.429194 1.152042,0.451776 8.064269,0.451776 6.979997,0 7.296242,-0.02256 7.88356,-0.474368 1.061684,-0.79061 1.445691,-1.49087 1.581232,-2.981741 L 63.251066,50.2883 h 0.745431 0.76803 v -1.581222 -1.581232 h -0.76803 c -0.745431,0 -0.745431,0 -0.880964,-1.242396 -0.15813,-1.581232 -0.745439,-2.597736 -1.739352,-3.094693 -0.70026,-0.361426 -1.581234,-0.406597 -7.90615,-0.406597 -6.708933,0 -7.160709,0.02256 -7.860968,0.451778 z m 14.185884,5.87314 v 3.162454 h -6.324916 -6.324917 v -3.162454 -3.162463 h 6.324917 6.324916 z"
     id="path8030"
     style="stroke-width:0.0225891" />
  <path
     d="m 50.307567,48.82002 v 0.790611 h 3.275405 3.275405 V 48.82002 48.0294 h -3.275405 -3.275405 z"
     id="path8032"
     style="stroke-width:0.0225891" />
  <path
     d="m 48.726344,63.051087 v 4.856626 h 7.318832 7.31883 l -1.197215,2.371843 c -0.655079,1.287569 -1.377929,3.072102 -1.603813,3.930484 l -0.406604,1.581223 -7.025178,0.06778 c -6.257147,0.06778 -7.092949,0.112954 -7.635076,0.474366 -0.948742,0.609909 -1.400519,1.490881 -1.513461,2.981752 -0.112939,1.332746 -0.112939,1.355338 -0.835791,1.423108 l -0.745441,0.06778 v 1.581231 1.558641 h 0.790612 0.79062 v 1.219813 c 0,1.445688 0.63249,2.529963 1.807115,3.117281 0.70026,0.361417 1.581232,0.406597 7.680257,0.406597 7.589904,0 7.90615,-0.04523 7.90615,-1.310158 0,-0.496967 0.158121,-0.338835 0.926151,0.971323 3.433519,5.873132 8.945234,9.329249 15.563806,9.758445 5.263233,0.316244 10.30057,-1.53605 14.163295,-5.218063 2.733269,-2.597726 4.562982,-5.692418 5.489119,-9.284068 0.587333,-2.258901 0.655092,-6.324917 0.13554,-8.493458 -1.716768,-7.43178 -7.115535,-12.966078 -14.321426,-14.68285 -5.331002,-1.287569 -11.384848,-0.02256 -15.744519,3.297993 l -1.355348,1.016505 -7.115528,-0.04523 -7.115528,-0.06778 -0.06778,-3.230225 -0.06778,-3.207635 h -1.558644 -1.581221 z m 34.199723,0.564718 c 7.002585,1.784534 11.881811,8.086861 11.881811,15.360511 0,6.053854 -3.185041,11.249318 -8.628994,14.118116 -3.185045,1.694183 -7.522125,2.16855 -11.113785,1.242398 -5.511707,-1.400519 -9.871387,-5.715019 -11.407437,-11.294497 -0.65508,-2.326662 -0.65508,-5.805369 0,-8.132032 1.53605,-5.534298 5.873141,-9.871388 11.317086,-11.294496 2.2589,-0.587309 5.647247,-0.587309 7.951319,0 z m -23.13112,18.0712 v 3.162444 H 53.470031 47.145114 V 81.687005 78.52454 h 6.324917 6.324916 z"
     id="path8034"
     style="stroke-width:0.0225891" />
  <path
     d="m 80.983421,68.065836 c -1.016504,1.129447 -7.1833,9.939157 -7.1833,10.300582 0,0.225883 0.813203,0.65508 2.484785,1.33275 1.46829,0.564725 2.484795,1.106853 2.484795,1.287566 0,0.158122 -0.609899,2.010427 -1.377931,4.111197 -1.287577,3.59165 -1.49087,4.653334 -0.81321,4.450033 0.429197,-0.135533 7.657675,-10.571648 7.544725,-10.88789 -0.06778,-0.158123 -1.197218,-0.722851 -2.507374,-1.26498 -1.310159,-0.519548 -2.394434,-1.016513 -2.394434,-1.061693 0,-0.06778 0.67767,-1.897466 1.49088,-4.043426 0.813201,-2.145951 1.445691,-4.088607 1.40051,-4.29191 -0.112939,-0.632489 -0.496956,-0.587309 -1.129446,0.06778 z"
     id="path8036"
     style="stroke-width:0.0225891" />
  <path
     d="m 50.307567,81.799937 v 0.790621 h 3.275405 3.275405 v -0.790621 -0.790612 h -3.275405 -3.275405 z"
     id="path8038"
     style="stroke-width:0.0225891" />
</svg>
