<?xml version="1.0" encoding="UTF-8" standalone="no"?>
<!-- Created with Inkscape (http://www.inkscape.org/) -->

<svg
   width="100mm"
   height="100mm"
   viewBox="0 0 100 100"
   version="1.1"
   id="svg26768"
   xmlns="http://www.w3.org/2000/svg"
   xmlns:svg="http://www.w3.org/2000/svg">
  <defs
     id="defs26765" />
  <path
     d="m 8.8617278,12.10534 c -2.470337,0.787944 -4.408275,2.470333 -5.494372,4.770309 l -0.681472,1.426821 v 32.369958 32.36994 l 0.660177,1.384241 c 1.107392,2.363859 2.640705,3.748099 5.047155,4.663827 l 1.23517,0.447217 H 37.164134 64.72118 l 0.958322,1.34165 c 1.299057,1.810161 3.854578,4.195314 5.600851,5.217522 2.938852,1.703682 5.728629,2.406452 9.41284,2.406452 2.938851,-0.0213 5.004564,-0.532401 7.922113,-1.98053 1.98053,-0.979617 2.47034,-1.34165 4.36569,-3.258291 2.74718,-2.768481 3.93976,-4.770306 4.94067,-8.433222 0.36204,-1.277761 0.38333,-3.492548 0.38333,-33.945856 V 18.30247 l -0.68147,-1.426821 c -0.87314,-1.874062 -2.40645,-3.407371 -4.2805,-4.2805 l -1.42683,-0.68147 -41.101314,-0.04263 C 18.019015,11.849733 9.5432008,11.892364 8.8617278,12.105301 Z m 82.7350282,3.002735 c 1.29905,0.447216 2.38515,1.405544 3.10922,2.704587 0.61758,1.107408 0.61758,1.17129 0.68147,5.004575 l 0.0852,3.897167 H 50.516738 5.5608468 v -3.599032 c 0,-4.557346 0.362033,-5.749914 2.257377,-7.176747 1.55461,-1.192581 -0.915728,-1.128698 42.5920342,-1.149988 35.117132,0 40.398548,0.0425 41.186498,0.319438 z M 14.505173,34.168012 v 4.47216 H 10.033011 5.5608458 v -4.47216 -4.472162 h 4.4721652 4.472162 z m 27.003348,0.04251 0.04259,4.429581 H 29.518859 17.48661 v -4.47216 -4.472174 l 11.989657,0.04263 11.968362,0.06394 z m 53.921515,-0.04251 v 4.47216 h -25.44874 -25.44874 v -4.47216 -4.472162 h 25.44874 25.44874 z m -80.967455,11.968359 -0.06389,4.536057 -4.4082762,0.06394 -4.429571,0.04263 v -4.578649 -4.578636 h 4.4721642 4.472163 z m 26.982053,0.06395 v 4.472174 H 29.518865 17.593095 l -0.06389,-4.536057 -0.04259,-4.514753 11.968362,0.04263 11.989657,0.06394 z m 53.985402,0 v 4.578649 h -25.44874 -25.44874 v -4.578645 -4.578636 h 25.44874 25.44874 z m -80.924863,12.03226 v 4.472161 H 10.033011 5.5608458 v -4.472168 -4.472162 h 4.4721652 4.472162 z m 27.045941,0 v 4.472161 H 29.518865 17.486616 v -4.472168 -4.472162 h 12.032249 12.032249 z m 53.878922,0 v 4.472161 h -25.44874 -25.44874 v -4.472168 -4.472162 h 25.44874 25.44874 z M 14.505173,70.158349 v 4.472163 H 10.033011 5.5608458 v -4.472163 -4.472163 h 4.4721652 4.472162 z m 27.045941,0 v 4.472163 H 29.518865 17.486616 v -4.472163 -4.472163 h 12.032249 12.032249 z m 26.960758,-2.747185 c -1.959234,1.831456 -3.53514,4.003651 -4.38698,5.984179 l -0.532401,1.235169 h -9.519318 -9.540617 v -4.472163 -4.472163 h 12.905386 12.884091 z m 14.694252,-1.490728 c 4.53605,0.830544 8.901732,4.195314 10.860962,8.411925 1.36295,2.917555 1.74628,6.857317 0.93703,9.966537 -1.76757,6.899908 -8.475814,11.840585 -15.354429,11.329479 -2.236081,-0.170367 -3.833282,-0.617583 -5.941588,-1.661088 -1.469424,-0.724064 -2.172194,-1.235169 -3.726803,-2.811074 -1.554609,-1.55461 -2.108305,-2.278674 -2.83237,-3.748099 -1.128689,-2.29997 -1.55461,-4.195316 -1.55461,-6.79343 0.02129,-9.327655 8.433224,-16.376636 17.611808,-14.69425 z m 12.223912,2.257376 -0.0213,2.512931 -0.44722,-0.638881 c -0.59628,-0.830544 -3.06662,-3.300882 -3.89717,-3.897171 l -0.63888,-0.447216 2.51293,-0.0213 h 2.49164 z M 14.505173,82.318368 v 4.514755 L 12.2265,86.726648 C 9.5857928,86.598874 8.6274728,86.279431 7.3923028,85.10815 6.0080618,83.7665 5.5608458,82.552628 5.5608458,79.997106 v -2.172193 h 4.4721652 4.472162 z m 27.003348,-0.08519 -0.06389,4.429571 -11.968362,0.0639 -11.989658,0.04259 v -4.472163 -4.472163 h 12.032252 12.032251 z m 21.040465,-1.703679 c 0,2.491634 0.191664,3.705508 0.851841,5.856405 0.106474,0.362033 -0.42592,0.383329 -9.370248,0.383329 h -9.498023 v -4.472162 -4.472163 h 9.008215 9.008215 z"
     id="path7992"
     style="stroke-width:0.0212961" />
  <path
     d="m 78.968215,74.971178 c -1.980529,2.747186 -3.556434,5.13234 -3.492547,5.260117 0.06389,0.149072 1.086097,0.617584 2.29997,1.086096 1.213873,0.447216 2.299969,0.894432 2.385154,0.979616 0.106474,0.08519 -0.447216,1.916643 -1.213872,4.067541 -1.362946,3.748098 -1.490722,4.472162 -0.702769,4.174018 0.340736,-0.127775 6.963798,-9.391544 7.11287,-9.945239 0.08519,-0.298145 -0.383329,-0.553697 -2.172193,-1.277762 -1.256467,-0.511104 -2.321267,-1.022209 -2.363859,-1.171281 -0.06389,-0.149071 0.532401,-1.937936 1.299057,-4.003651 0.766656,-2.065714 1.341649,-3.854579 1.277762,-3.982355 -0.404625,-0.63888 -1.043505,0.04259 -4.429573,4.8129 z"
     id="path7994"
     style="stroke-width:0.0212961" />
</svg>
