<?xml version="1.0" encoding="UTF-8" standalone="no"?>
<!-- Created with Inkscape (http://www.inkscape.org/) -->

<svg
   width="100mm"
   height="100mm"
   viewBox="0 0 100 100"
   version="1.1"
   id="svg26768"
   xmlns="http://www.w3.org/2000/svg"
   xmlns:svg="http://www.w3.org/2000/svg">
  <defs
     id="defs26765" />
  <path
     d="M 15.146998,2.6556948 C 13.920409,3.2797496 13.468509,4.3557071 13.468509,6.6152163 V 8.4443424 H 11.61786 c -2.1734281,0 -3.0987591,0.3443065 -3.7443321,1.3987437 -0.43038,0.6886129 -0.43038,0.8607659 -0.387339,44.1787909 l 0.06454,43.46866 0.537982,0.581014 c 1.183556,1.269626 -1.269627,1.183546 36.0875971,1.183546 22.810281,0 34.860994,-0.08604 35.786315,-0.236706 3.486105,-0.559502 6.929171,-2.237989 9.511458,-4.669651 4.282309,-4.045599 6.240559,-9.210192 5.724089,-14.998839 -0.4519,-4.863326 -3.27091,-9.791204 -7.230426,-12.717808 l -1.72153,-1.269637 -0.08604,-30.60021 C 86.095634,4.2050727 86.095634,4.1620347 85.643706,3.5594986 85.407,3.2367116 84.869019,2.7848097 84.460159,2.5911375 83.771545,2.2253124 81.684189,2.203793 49.835863,2.203793 16.524244,2.2253134 15.921711,2.2253134 15.147015,2.6556948 Z M 83.190505,34.719207 c 0,23.348259 -0.06454,29.266028 -0.258227,29.179948 -0.150633,-0.06454 -0.839248,-0.236706 -1.506342,-0.387341 L 80.177828,63.232068 80.134806,36.828081 C 80.070272,10.531699 80.070272,10.402584 79.618345,9.8215675 79.381639,9.4987804 78.908219,9.0253592 78.585431,8.7886489 78.004418,8.336747 77.918337,8.336747 47.232046,8.2721897 L 16.481204,8.2291581 V 6.8304145 5.43167 h 33.354659 33.354659 z m -6.025353,2.431662 V 62.84472 l -1.441781,0.150634 c -2.367102,0.236714 -6.735488,1.527862 -7.079796,2.087355 -0.430379,0.667095 -0.516461,-0.365818 -0.516461,-5.594972 0,-5.551941 -0.0215,-5.788656 -0.47342,-6.713977 -0.322788,-0.645565 -0.796207,-1.140506 -1.355709,-1.441781 L 65.437216,50.837038 H 43.853524 c -24.036876,0 -22.487493,-0.10759 -23.671047,1.463302 l -0.581013,0.753177 -0.04303,14.224141 -0.06454,14.224159 0.49494,0.860759 c 0.258226,0.473421 0.860761,1.075964 1.334179,1.33419 l 0.86077,0.49494 h 18.571016 c 17.516583,0 18.549495,0.02151 18.549495,0.365819 0,0.882289 1.506333,4.669662 2.453174,6.197515 1.032923,1.635456 3.012685,3.830415 4.432947,4.906358 l 0.753176,0.581023 H 38.710451 10.455825 V 53.849725 11.457022 H 43.810484 77.165152 Z M 34.557261,71.280225 v 9.898797 l -5.960801,-0.04301 -5.98232,-0.06454 -0.06454,-9.855756 -0.04301,-9.834255 h 6.025361 6.025363 z m 15.278585,0 v 9.898797 h -6.025362 -6.025353 v -9.898797 -9.898807 h 6.025353 6.025362 z m 15.063397,-6.757009 v 3.14179 l -1.269626,1.377229 c -2.625338,2.775962 -4.174712,6.434221 -4.648132,10.888679 l -0.129123,1.248108 H 55.839687 52.84853 v -9.898797 -9.898807 h 6.025353 6.02536 z m 15.816567,1.936722 c 7.682328,1.872163 12.73933,9.791206 11.21147,17.516574 -1.377224,6.886121 -7.187392,11.921601 -14.116555,12.201347 -2.948124,0.129122 -4.884846,-0.279746 -7.531703,-1.570894 -1.700007,-0.839248 -2.345581,-1.334189 -3.873445,-2.862042 -2.77596,-2.775971 -4.174712,-5.853209 -4.454459,-9.705133 -0.322786,-4.562059 1.958244,-9.769683 5.487382,-12.588695 3.873444,-3.077237 8.586137,-4.13168 13.27731,-2.991157 z"
     id="path7962"
     style="stroke-width:0.0215192" />
  <path
     d="m 49.943447,25.422942 c -1.118994,0.688616 -1.463301,1.226588 -1.592415,2.603817 l -0.129122,1.291148 -4.196232,4.949399 c -4.454458,5.250673 -4.217744,5.03548 -5.93928,5.013959 -0.129112,0 -2.001284,-1.334188 -4.131671,-2.948124 -3.400024,-2.539256 -3.916485,-3.012677 -3.916485,-3.529137 0,-0.731647 -0.667094,-1.850641 -1.420262,-2.324062 -0.344307,-0.236715 -0.989881,-0.387348 -1.592415,-0.387348 -1.721535,0 -3.012675,1.269628 -3.012675,2.991155 0,1.829131 1.312659,3.012686 3.249381,2.969646 l 1.226587,-0.02151 3.830415,2.926604 c 3.464574,2.646857 3.851924,3.034196 3.981035,3.701291 0.258227,1.613935 1.33419,2.582297 2.883564,2.582297 1.721528,0 3.012685,-1.291149 3.034205,-3.098759 v -1.054426 l 4.282304,-5.035481 c 3.593699,-4.217753 4.368386,-5.013961 4.841806,-5.013961 0.322787,0 0.9038,-0.107589 1.269628,-0.236704 0.645574,-0.236715 0.989882,-0.129122 4.346866,1.312659 2.991164,1.269629 3.636728,1.635455 3.636728,1.979763 0,0.236714 0.365829,0.817728 0.839259,1.269628 0.731646,0.753175 0.946841,0.839248 1.872162,0.839248 1.915202,0 3.098747,-1.183556 3.098747,-3.098757 0,-2.044316 -2.388622,-3.529138 -4.15319,-2.603818 C 61.649852,30.802746 61.4777,30.759705 58.034643,29.296403 54.505497,27.81158 54.440946,27.76854 54.032077,26.88626 53.23587,25.207764 51.363699,24.54067 49.943447,25.422958 Z"
     id="path7964"
     style="stroke-width:0.0215192" />
  <path
     d="m 78.736047,71.000478 c -1.786089,2.302542 -6.584855,9.188662 -6.606375,9.489937 -0.02151,0.236706 0.645575,0.624056 2.237989,1.291149 1.248108,0.49494 2.345591,1.011394 2.431662,1.097474 0.08604,0.08604 -0.451899,1.893681 -1.226586,4.002559 -1.334189,3.658248 -1.484823,4.411425 -0.882288,4.411425 0.322786,0 7.488662,-10.264634 7.338029,-10.52286 -0.06454,-0.107602 -1.140514,-0.602542 -2.388623,-1.097483 -1.248107,-0.494932 -2.259517,-1.011393 -2.259517,-1.140506 0,-0.129112 0.624063,-1.915202 1.42026,-3.981047 0.774697,-2.065825 1.355709,-3.894964 1.291158,-4.045589 -0.193674,-0.516461 -0.710136,-0.322796 -1.355709,0.494941 z"
     id="path7966"
     style="stroke-width:0.0215192" />
</svg>
