<?xml version="1.0" encoding="UTF-8" standalone="no"?>
<!-- Created with Inkscape (http://www.inkscape.org/) -->

<svg
   width="100mm"
   height="100mm"
   viewBox="0 0 100 100"
   version="1.1"
   id="svg26768"
   xmlns="http://www.w3.org/2000/svg"
   xmlns:svg="http://www.w3.org/2000/svg">
  <defs
     id="defs26765" />
  <path
     d="M 41.157925,1.3862888 C 24.703141,2.2617914 11.615646,4.9780522 8.5626432,8.120843 L 7.8218424,8.8841019 V 19.210421 29.559207 l 4.2427716,31.091222 4.242778,31.091221 0.965284,0.853059 c 2.244856,1.997913 8.305962,4.018295 15.803776,5.29786 6.420279,1.077521 9.001863,1.25712 18.183316,1.25712 9.18145,0 11.763024,-0.179697 18.183317,-1.25712 7.497814,-1.279565 13.558908,-3.299947 15.803775,-5.29786 l 0.965278,-0.853059 4.24278,-31.091221 4.242783,-31.091222 V 19.30022 9.0412334 L 93.979323,8.2330855 C 91.397753,5.269895 80.106133,2.7107657 64.953374,1.6107753 60.373888,1.2740448 45.849667,1.1393577 41.157925,1.3863368 Z m 16.162946,2.6938163 c 6.622311,0.2244383 12.189544,0.6285731 17.060897,1.2346776 7.58759,0.9652781 14.322168,2.6489287 16.903742,4.1978682 l 0.718347,0.4489732 v 9.3161509 9.338597 l -4.152981,30.552449 c -2.289731,16.791523 -4.197867,30.776961 -4.265224,31.046335 -0.08973,0.359172 -0.628548,0.763259 -1.975468,1.391808 C 77.367427,93.649788 70.318563,95.243639 61.473852,96.16403 57.231073,96.613004 44.323167,96.545648 39.923254,96.051813 31.168319,95.064065 23.378683,93.155952 19.899157,91.113128 L 18.933868,90.55191 14.713544,59.505576 10.493218,28.436797 10.515702,19.188 V 9.961649 L 11.256506,9.4902318 C 15.566628,6.8413017 29.462272,4.5740152 44.300762,4.1025976 47.151719,4.0128651 49.7782,3.9229013 50.137379,3.9006532 c 0.381625,-0.022003 3.614219,0.067236 7.183536,0.1796964 z"
     id="path54"
     style="stroke-width:0.0224485" />
</svg>
