<?xml version="1.0" encoding="UTF-8" standalone="no"?>
<!-- Created with Inkscape (http://www.inkscape.org/) -->

<svg
   width="100mm"
   height="100mm"
   viewBox="0 0 100 100"
   version="1.1"
   id="svg26768"
   sodipodi:docname="a cluster master.svg"
   inkscape:version="1.1.1 (3bf5ae0d25, 2021-09-20)"
   xmlns:inkscape="http://www.inkscape.org/namespaces/inkscape"
   xmlns:sodipodi="http://sodipodi.sourceforge.net/DTD/sodipodi-0.dtd"
   xmlns="http://www.w3.org/2000/svg"
   xmlns:svg="http://www.w3.org/2000/svg">
  <sodipodi:namedview
     id="namedview26770"
     pagecolor="#ffffff"
     bordercolor="#666666"
     borderopacity="1.0"
     inkscape:pageshadow="2"
     inkscape:pageopacity="0.0"
     inkscape:pagecheckerboard="0"
     inkscape:document-units="mm"
     showgrid="false"
     width="209mm"
     inkscape:zoom="0.7500982"
     inkscape:cx="13.998167"
     inkscape:cy="135.31562"
     inkscape:window-width="1920"
     inkscape:window-height="1027"
     inkscape:window-x="1912"
     inkscape:window-y="-8"
     inkscape:window-maximized="1"
     inkscape:current-layer="layer1" />
  <defs
     id="defs26765" />
  <g
     inkscape:label="Layer 1"
     inkscape:groupmode="layer"
     id="layer1">
    <path
       d="M 34.335407,1.5750736 C 33.046794,2.2303004 32.21684,3.3005042 31.889226,4.7420041 31.73634,5.3535489 31.648977,10.813772 31.648977,19.331723 v 13.585039 l -6.574111,10.265222 -6.59595,10.265221 h -5.503907 c -5.2854971,0 -5.5475879,0.02183 -6.4212228,0.502339 -0.5241826,0.262092 -1.2449312,0.917319 -1.6380673,1.441501 L 4.238651,56.330204 4.173119,75.899646 c -0.043688,13.716084 0,19.831536 0.1747272,20.42124 0.3057726,1.070204 1.4196584,2.31513 2.5117022,2.795636 0.8081143,0.371297 1.8346355,0.414976 15.7254466,0.414976 13.978174,0 14.895492,-0.04366 15.747287,-0.414976 1.048363,-0.480506 2.205931,-1.790955 2.489862,-2.861158 0.131047,-0.436818 0.218409,-5.067088 0.218409,-11.095176 V 74.851285 l 9.2387,0.04368 9.216859,0.06553 0.109204,10.833085 0.109205,10.811244 0.589704,0.895478 c 0.393135,0.589704 0.982841,1.09205 1.769113,1.463349 l 1.157566,0.567861 15.092061,-0.04366 15.092059,-0.06554 0.961002,-0.655219 c 0.502339,-0.371298 1.1794,-1.113891 1.485175,-1.638074 L 96.407228,96.14619 V 76.489362 56.832554 l -0.480495,-0.873635 c -0.589706,-1.092046 -1.266777,-1.747273 -2.293294,-2.18409 -0.655227,-0.262091 -1.834635,-0.327614 -6.246495,-0.327614 h -5.438386 l -5.176293,-8.102973 c -4.018725,-6.290179 -5.045246,-8.081131 -4.673952,-7.971927 2.577226,0.72075 6.726997,0.589703 9.697359,-0.327614 7.775364,-2.402508 12.973494,-9.369754 13.017182,-17.450888 0.06552,-8.561631 -5.2855,-15.550718 -13.737927,-17.9532169 -1.375977,-0.393136 -2.271453,-0.4804996 -4.652112,-0.5023407 -3.210612,0 -4.41186,0.218409 -6.945405,1.2449315 L 67.883025,3.0384135 67.184116,2.3831869 C 65.742618,0.98536949 66.332321,1.0290509 50.148216,1.0290509 H 35.449293 Z M 64.759778,4.4143903 C 65.152913,4.7201628 65.131073,4.7856847 64.14823,5.6374799 63.580369,6.11798 62.619369,7.1445028 62.029664,7.8652512 58.294872,12.582886 57.0281,18.479928 58.491439,24.245925 c 0.873636,3.341658 3.38534,7.3167 5.875201,9.216859 l 1.135727,0.851795 v 1.354135 c 0,1.223091 -0.06552,1.419658 -0.589704,1.812795 -0.567863,0.458659 -0.655227,0.458659 -14.82997,0.414977 -13.65056,-0.06553 -14.262105,-0.08736 -14.698923,-0.4805 C 34.92511,37.00101 34.92511,36.979168 34.92511,20.991631 V 4.9822536 l 0.567864,-0.4368184 c 0.567864,-0.4586586 0.74259,-0.4586586 14.698925,-0.4586586 12.230901,0 14.196582,0.043689 14.567879,0.3276137 z M 80.9002,4.8293673 c 2.446181,0.7862724 4.302656,1.9219988 6.224655,3.8439975 1.900158,1.9001592 3.035886,3.7566352 3.865839,6.2246562 0.502341,1.528864 0.589705,2.096727 0.589705,4.586589 0,2.489862 -0.08737,3.057726 -0.589705,4.586587 -0.829953,2.468022 -1.965681,4.3245 -3.865839,6.224656 -1.900157,1.900159 -3.756635,3.057727 -6.224655,3.865839 -1.528864,0.50234 -2.118566,0.567864 -4.586589,0.589704 -2.533544,0 -3.035884,-0.06552 -4.586587,-0.611544 C 62.728573,31.060285 58.491439,21.341086 62.466482,12.910499 64.519527,8.5641603 68.538252,5.4190718 73.36509,4.3925491 75.461815,3.9557318 78.73795,4.1522996 80.9002,4.8293673 Z M 50.21374,39.469031 c 8.670837,0 14.393149,-0.08737 14.720764,-0.218409 l 0.567863,-0.21841 v 2.074885 c 0,3.276136 1.70359,2.948523 -15.288627,2.948523 -16.992219,0 -15.28863,0.327613 -15.28863,-2.948523 v -2.074885 l 0.567864,0.21841 c 0.327614,0.131044 6.049929,0.218409 14.720766,0.218409 z m -17.865856,5.198134 c 0.305773,0.589704 0.917319,1.288612 1.463341,1.681748 l 0.939159,0.655227 h 15.441515 15.441513 l 0.917319,-0.589704 c 0.480498,-0.327614 1.157566,-1.048363 1.485179,-1.616226 0.502342,-0.851795 0.611547,-1.332296 0.720752,-3.297976 l 0.131044,-2.271454 4.586589,6.792519 c 2.533544,3.756636 4.608428,6.901724 4.652111,7.01093 0.04369,0.08736 -3.40718,0.196567 -7.666156,0.240248 l -7.731677,0.06552 -1.048363,0.655228 c -0.786271,0.4805 -1.244931,0.98284 -1.681748,1.834634 l -0.611545,1.15757 v 7.404062 7.404065 H 50.21374 41.040562 v -7.382224 c 0,-7.273019 0,-7.382222 -0.524181,-8.452427 -0.589704,-1.288611 -1.004681,-1.681749 -2.315135,-2.271453 -0.917318,-0.414978 -1.41966,-0.458658 -8.47427,-0.458658 -4.324496,0 -7.469587,-0.08737 -7.425903,-0.19657 0.04369,-0.109204 2.140407,-3.254293 4.652111,-6.989086 l 4.586588,-6.792519 0.131044,2.18409 c 0.109206,1.70359 0.262091,2.424339 0.677068,3.232452 z m 5.132611,12.121697 c 0.371295,0.371295 0.393138,1.354136 0.45866,16.293309 0.04367,15.834651 0.04367,15.900173 -0.414978,16.468037 L 37.08736,90.139913 H 22.628685 8.1918535 L 7.6895119,89.659413 7.1871712,89.200754 V 73.278739 57.356725 l 0.5460214,-0.546023 0.5460235,-0.52418 14.3931529,0.04369 c 13.497672,0.06552 14.436831,0.08737 14.808126,0.458659 z m 55.21379,0.04369 0.546022,0.52418 V 73.32243 c 0,15.659923 0,15.943854 -0.436818,16.380672 C 92.366671,90.13992 92.08274,90.13992 77.951678,90.13992 H 63.514846 l -0.524182,-0.546029 -0.546023,-0.52418 V 73.453467 c 0,-11.007812 0.06552,-15.769128 0.240251,-16.162264 0.131046,-0.283932 0.458659,-0.633385 0.720749,-0.742591 0.305772,-0.152885 5.351021,-0.24025 14.611559,-0.24025 l 14.152902,-0.02184 z m -54.711449,36.40877 c 0,1.94384 -0.262091,2.66459 -1.070203,3.014044 -0.393137,0.152884 -4.89236,0.218409 -14.720765,0.174726 L 8.0171264,96.364569 7.6021483,95.840386 C 7.2745348,95.425409 7.1871712,94.988592 7.1871712,93.437887 V 91.55957 H 22.585003 37.982836 Z m 55.257471,0.196567 c 0,1.550705 -0.08737,1.987522 -0.414978,2.402498 l -0.414977,0.524184 H 77.951678 63.493006 l -0.524182,-0.611546 c -0.458658,-0.546022 -0.524183,-0.829954 -0.524183,-2.402499 v -1.790954 h 15.397833 15.397833 z"
       id="path7981"
       style="stroke-width:0.0218409" />
    <path
       d="m 74.981317,13.150749 -1.004682,3.16693 h -3.101407 c -2.948521,0 -3.625589,0.131046 -3.625589,0.677069 0,0.109205 4.36818,4.040565 5.001564,4.499224 0.04369,0.04369 -0.327611,1.441499 -0.829953,3.123248 -0.524182,1.68175 -0.873636,3.210612 -0.808112,3.385339 0.218408,0.611545 0.895476,0.327615 3.297976,-1.419658 1.332294,-0.961 2.446179,-1.747272 2.511701,-1.747272 0.06553,0 1.201249,0.786272 2.511703,1.747272 2.402501,1.747273 3.38534,2.140408 3.38534,1.354135 0,-0.218409 -0.393137,-1.72543 -0.873636,-3.319816 -0.480498,-1.594385 -0.873636,-2.948521 -0.873636,-2.970362 0,-0.04369 1.135727,-1.026521 2.533545,-2.184089 1.921999,-1.638068 2.489862,-2.227772 2.44618,-2.577226 -0.06553,-0.436818 -0.196569,-0.458658 -3.276135,-0.524181 l -3.232453,-0.06553 -0.895476,-2.882997 c -1.004681,-3.145091 -1.135728,-3.4290229 -1.747272,-3.4290229 -0.327614,0 -0.589703,0.5897039 -1.419658,3.1669299 z"
       id="path7983"
       style="stroke-width:0.0218409" />
  </g>
</svg>
