<?xml version="1.0" encoding="UTF-8" standalone="no"?>
<!-- Created with Inkscape (http://www.inkscape.org/) -->

<svg
   width="100mm"
   height="100mm"
   viewBox="0 0 100 100"
   version="1.1"
   id="svg26768"
   sodipodi:docname="a cluster peers.svg"
   inkscape:version="1.1.1 (3bf5ae0d25, 2021-09-20)"
   xmlns:inkscape="http://www.inkscape.org/namespaces/inkscape"
   xmlns:sodipodi="http://sodipodi.sourceforge.net/DTD/sodipodi-0.dtd"
   xmlns="http://www.w3.org/2000/svg"
   xmlns:svg="http://www.w3.org/2000/svg">
  <sodipodi:namedview
     id="namedview26770"
     pagecolor="#ffffff"
     bordercolor="#666666"
     borderopacity="1.0"
     inkscape:pageshadow="2"
     inkscape:pageopacity="0.0"
     inkscape:pagecheckerboard="0"
     inkscape:document-units="mm"
     showgrid="false"
     width="209mm"
     inkscape:zoom="0.7500982"
     inkscape:cx="13.998167"
     inkscape:cy="135.31562"
     inkscape:window-width="1920"
     inkscape:window-height="1027"
     inkscape:window-x="1912"
     inkscape:window-y="-8"
     inkscape:window-maximized="1"
     inkscape:current-layer="layer1" />
  <defs
     id="defs26765" />
  <g
     inkscape:label="Layer 1"
     inkscape:groupmode="layer"
     id="layer1">
    <path
       d="M 35.65867,1.7030892 C 34.601895,2.0265971 33.545121,3.0186625 33.005957,4.161699 L 32.488359,5.2616044 V 19.064317 32.86703 l -6.146519,9.597194 c -3.385978,5.283846 -6.340621,9.856005 -6.577854,10.179501 l -0.452902,0.603872 h -5.391686 c -4.8740898,0 -5.4563844,0.04311 -6.1896503,0.409771 -0.9273811,0.474466 -1.5528076,1.121471 -2.1135491,2.178233 -0.388204,0.7117 -0.4097694,1.682212 -0.4744666,19.388502 -0.043108,12.832213 0.021549,19.000297 0.1725365,19.776694 0.3019301,1.401836 1.2077335,2.695844 2.2860735,3.23502 0.7979631,0.388193 1.4880981,0.409758 15.959381,0.409758 h 15.096721 l 0.905802,-0.582296 c 0.474468,-0.323507 1.164603,-1.056773 1.48811,-1.617515 l 0.60386,-1.035197 0.06466,-10.524574 0.06466,-10.502997 h 9.036465 9.036452 l 0.06466,10.502997 0.06466,10.524574 0.539164,0.9705 c 0.301942,0.517598 0.970511,1.250876 1.466544,1.617504 l 0.948934,0.647004 14.794779,0.06466 c 16.304453,0.06466 15.851552,0.08622 17.231835,-1.250876 1.444973,-1.401836 1.358705,-0.107768 1.358705,-21.502038 V 56.547253 L 95.829687,55.598319 C 95.549324,55.080721 94.902321,54.347442 94.406291,54.002382 L 93.478922,53.355377 87.763739,53.247489 82.026979,53.139602 75.470702,42.938535 68.935978,32.737469 V 18.934755 c 0,-15.0535763 0.02155,-14.643806 -1.250876,-16.0240762 C 67.361606,2.5656054 66.714602,2.1127039 66.240136,1.8970359 65.420595,1.5088432 64.557923,1.4872656 50.819919,1.5088432 c -8.001268,0 -14.837922,0.1077681 -15.161417,0.1940903 z M 65.356065,4.9596741 65.916796,5.39101 v 15.786843 15.76529 l -0.474468,0.496033 -0.452901,0.496033 H 50.798509 c -13.630176,0 -14.190905,-0.02155 -14.665373,-0.40977 L 35.615538,37.115681 V 21.220997 5.3263012 l 0.517598,-0.4097584 c 0.474468,-0.3882046 1.035197,-0.4097702 14.579111,-0.4097702 13.91054,0 14.083078,0 14.643818,0.4529015 z M 50.345619,39.401753 c 8.346318,0.02156 14.406574,-0.02155 14.83791,-0.150971 l 0.733267,-0.194102 v 1.962577 c 0,1.703766 -0.06466,2.027274 -0.474468,2.45861 l -0.452901,0.496032 H 50.798509 c -16.800486,0 -15.139839,0.323496 -15.269245,-2.933077 -0.06466,-1.962577 -0.04311,-2.070405 0.323508,-1.897868 0.237233,0.107769 6.750379,0.215668 14.492847,0.258799 z m 23.443039,6.642552 4.636843,6.879785 -7.591486,0.107887 c -5.068191,0.06466 -7.807154,0.194103 -8.173793,0.366627 -0.948934,0.409771 -1.962577,1.423413 -2.372335,2.329217 -0.366639,0.776396 -0.40977,1.552794 -0.40977,8.238489 v 7.397395 h -9.05803 -9.05803 v -6.966059 c 0,-7.958125 -0.08633,-8.583564 -1.444979,-9.877559 -1.466532,-1.423413 -1.186168,-1.380282 -9.575628,-1.48811 l -7.67776,-0.107887 4.65842,-6.901352 4.658409,-6.879784 0.129406,2.24293 c 0.06466,1.250877 0.215667,2.523319 0.345061,2.825249 0.40977,0.927368 1.401847,1.962577 2.329216,2.372336 0.819529,0.366638 1.768463,0.40977 15.484914,0.40977 15.959392,0 15.463347,0.04311 16.822052,-1.250865 1.186168,-1.099906 1.444978,-1.941012 1.444978,-4.485883 0,-1.272442 0.04311,-2.264508 0.107888,-2.199811 0.06466,0.06466 2.199811,3.191876 4.744683,6.987625 z m -35.82235,10.459865 0.56073,0.431336 v 15.937826 15.937815 l -0.474468,0.323497 c -0.431336,0.30193 -2.178233,0.345073 -14.665373,0.345073 -13.910552,0 -14.1909176,0 -14.6222534,-0.431336 C 8.3336078,88.617045 8.3336078,88.336681 8.3336078,72.787058 V 56.935506 L 8.8943493,56.50417 c 0.5607293,-0.452902 0.7332669,-0.452902 14.5359797,-0.452902 13.802713,0 13.975238,0 14.535979,0.452902 z M 92.81052,56.5474 c 0.366627,0.366628 0.388205,1.337127 0.452901,16.088774 0.04311,15.635885 0.04311,15.700593 -0.40977,16.261323 L 92.422315,89.4798 H 78.145136 63.889521 L 63.393488,89.005334 62.897456,88.552421 V 72.830214 57.108066 l 0.539164,-0.539164 0.539175,-0.517609 14.212484,0.04323 c 13.328234,0.06466 14.255602,0.08622 14.622241,0.452901 z M 38.527038,92.844213 c 0,3.084037 1.63908,2.782106 -15.096709,2.782106 -16.7357904,0 -15.0967212,0.301931 -15.0967212,-2.782106 V 90.881636 H 23.430329 38.527038 Z m 54.779515,-0.301942 c 0,1.919446 -0.258799,2.631146 -1.056762,2.97622 -0.388205,0.150959 -4.830957,0.215657 -14.535992,0.172525 l -13.996802,-0.06466 -0.40977,-0.517598 c -0.323509,-0.409771 -0.409771,-0.841106 -0.409771,-2.372347 v -1.854738 h 15.204548 15.204549 z"
       id="path7985"
       style="stroke-width:0.0215668" />
  </g>
</svg>
