<?xml version="1.0" encoding="UTF-8" standalone="no"?>
<!-- Created with Inkscape (http://www.inkscape.org/) -->

<svg
   width="100mm"
   height="100mm"
   viewBox="0 0 100 100"
   version="1.1"
   id="svg26768"
   sodipodi:docname="a configuration file.svg"
   inkscape:version="1.1.1 (3bf5ae0d25, 2021-09-20)"
   xmlns:inkscape="http://www.inkscape.org/namespaces/inkscape"
   xmlns:sodipodi="http://sodipodi.sourceforge.net/DTD/sodipodi-0.dtd"
   xmlns="http://www.w3.org/2000/svg"
   xmlns:svg="http://www.w3.org/2000/svg">
  <sodipodi:namedview
     id="namedview26770"
     pagecolor="#ffffff"
     bordercolor="#666666"
     borderopacity="1.0"
     inkscape:pageshadow="2"
     inkscape:pageopacity="0.0"
     inkscape:pagecheckerboard="0"
     inkscape:document-units="mm"
     showgrid="false"
     width="209mm"
     inkscape:zoom="0.7500982"
     inkscape:cx="13.998167"
     inkscape:cy="135.31562"
     inkscape:window-width="1920"
     inkscape:window-height="1009"
     inkscape:window-x="1912"
     inkscape:window-y="-8"
     inkscape:window-maximized="1"
     inkscape:current-layer="layer1" />
  <defs
     id="defs26765" />
  <g
     inkscape:label="Layer 1"
     inkscape:groupmode="layer"
     id="layer1">
    <path
       d="M 11.533043,1.9871986 C 11.166,2.3018041 10.720313,2.8261502 10.563013,3.1407557 10.353269,3.5340144 10.274614,17.114543 10.274614,50.41043 c 0,41.213493 0.0525,46.771553 0.393266,47.453195 0.865163,1.677907 -1.7041169,1.57304 39.011246,1.57304 h 37.071162 l 0.734086,-0.576776 c 1.389519,-1.101129 1.441952,-1.44195 1.441952,-12.269671 v -9.962554 h 1.573043 1.573025 V 60.163242 43.698819 l -1.546818,-1.520594 -1.573028,-1.546817 -0.07868,-7.367054 -0.07868,-7.393251 -0.838954,-1.677906 C 87.222151,22.698813 85.885078,21.256867 77.076085,12.50031 67.742751,3.1931911 66.93002,2.459108 65.51428,1.9347644 64.019907,1.3842017 63.862596,1.3842017 38.117272,1.3842017 H 12.240861 Z M 62.709092,14.519036 c 0,11.089889 0.0262,11.247201 1.704116,12.295885 0.812742,0.498133 1.284652,0.524344 10.985018,0.524344 H 85.51808 v 8.258427 8.258427 H 56.023692 26.529302 v 16.385777 16.385768 h 29.49439 29.494388 v 9.831467 9.831455 H 49.469381 13.420692 V 50.41043 4.5302699 h 24.644194 24.644206 z m 12.584269,0.629215 9.044947,9.044946 -9.176035,-0.05237 -9.176025,-0.07867 -0.07868,-8.992513 c -0.0262,-4.928841 0.0262,-8.9662949 0.131086,-8.9662949 0.131087,0 4.273408,4.0636709 9.254681,9.0449459 z m 13.501875,45.093645 v 13.108623 l -29.415733,0.07868 -29.441956,0.0525 V 60.241962 47.00225 l 29.441956,0.0525 29.415733,0.07868 z"
       id="path98"
       style="stroke-width:0.0262173" />
    <path
       d="m 43.54429,54.159496 c -1.546817,1.022475 -1.91386,2.202247 -1.91386,5.951313 0,3.880153 0.498131,5.400748 1.966293,6.161045 1.179774,0.62922 4.168542,0.445699 4.981284,-0.262166 0.786508,-0.707863 1.28464,-1.992515 1.28464,-3.277155 V 61.683837 H 48.709084 47.55552 l -0.183509,1.101129 c -0.2884,1.704116 -0.550565,2.044949 -1.57304,2.044949 -1.363296,0 -1.573038,-0.602998 -1.573038,-4.588019 0,-2.831467 0.07868,-3.565543 0.471907,-4.142329 0.865176,-1.337073 2.543083,-0.576776 2.543083,1.179784 0,0.707865 0.05237,0.734076 1.337084,0.734076 H 49.94129 L 49.75778,56.78122 C 49.679097,56.099567 49.416948,55.286836 49.180993,54.919792 48.263398,53.504064 45.14354,53.084587 43.54429,54.159496 Z"
       id="path100"
       style="stroke-width:0.0262173" />
    <path
       d="m 53.637922,53.818675 c -0.838952,0.340821 -1.887637,1.730338 -2.123592,2.831457 -0.367043,1.756561 -0.209744,6.895131 0.262165,7.970039 0.655443,1.546817 1.782772,2.097382 4.037452,1.992515 1.651696,-0.07868 1.992518,-0.183521 2.647948,-0.838952 1.12734,-1.074907 1.441951,-2.490636 1.337085,-6.239701 -0.131087,-3.696631 -0.498132,-4.719106 -2.071172,-5.505625 -0.97003,-0.498121 -3.119844,-0.602998 -4.089886,-0.209733 z m 2.883903,1.91386 c 0.970029,0.707865 1.153562,7.052431 0.262165,8.494382 -0.288388,0.445688 -0.62921,0.602998 -1.310863,0.602998 -1.415728,0 -1.756549,-1.074907 -1.625461,-5.138583 0.05237,-2.70038 0.1573,-3.277156 0.576777,-3.749065 0.576774,-0.629209 1.415728,-0.707863 2.097382,-0.209732 z"
       id="path102"
       style="stroke-width:0.0262173" />
    <path
       d="m 61.450663,60.163242 0.07868,6.37079 1.101118,0.07868 1.127342,0.07868 0.0525,-4.535572 0.07868,-4.535585 1.573039,4.45693 1.573028,4.456929 h 1.44195 1.441952 l 0.07868,-6.370789 0.0525,-6.344569 H 68.87034 67.690568 v 4.247186 c 0,2.333336 -0.104864,4.14233 -0.209745,3.985019 -0.131072,-0.131071 -0.865164,-2.044936 -1.62546,-4.247185 L 64.49205,53.81873 h -1.546816 -1.546818 z"
       id="path104"
       style="stroke-width:0.0262173" />
    <path
       d="m 71.885116,60.241896 v 6.423224 h 1.179774 1.153562 l 0.07868,-2.831469 0.07868,-2.805234 2.176036,-0.07868 2.149804,-0.07868 v -1.022464 -1.048687 h -2.228455 -2.228459 v -1.44195 -1.44194 h 2.359547 2.359549 V 54.867313 53.818627 H 75.42452 71.885186 Z"
       id="path106"
       style="stroke-width:0.0262173" />
    <path
       d="m 37.540544,65.223169 v 1.441951 h 1.179774 1.179772 v -1.441951 -1.441952 h -1.179772 -1.179774 z"
       id="path108"
       style="stroke-width:0.0262173" />
  </g>
</svg>
