<?xml version="1.0" encoding="UTF-8" standalone="no"?>
<!-- Created with Inkscape (http://www.inkscape.org/) -->

<svg
   width="100mm"
   height="100mm"
   viewBox="0 0 100 100"
   version="1.1"
   id="svg26768"
   sodipodi:docname="a container three up.svg"
   inkscape:version="1.1.1 (3bf5ae0d25, 2021-09-20)"
   xmlns:inkscape="http://www.inkscape.org/namespaces/inkscape"
   xmlns:sodipodi="http://sodipodi.sourceforge.net/DTD/sodipodi-0.dtd"
   xmlns="http://www.w3.org/2000/svg"
   xmlns:svg="http://www.w3.org/2000/svg">
  <sodipodi:namedview
     id="namedview26770"
     pagecolor="#ffffff"
     bordercolor="#666666"
     borderopacity="1.0"
     inkscape:pageshadow="2"
     inkscape:pageopacity="0.0"
     inkscape:pagecheckerboard="0"
     inkscape:document-units="mm"
     showgrid="false"
     width="209mm"
     inkscape:zoom="0.7500982"
     inkscape:cx="13.998167"
     inkscape:cy="135.31562"
     inkscape:window-width="1920"
     inkscape:window-height="1027"
     inkscape:window-x="1912"
     inkscape:window-y="-8"
     inkscape:window-maximized="1"
     inkscape:current-layer="layer1" />
  <defs
     id="defs26765" />
  <g
     inkscape:label="Layer 1"
     inkscape:groupmode="layer"
     id="layer1">
    <path
       d="M 29.619908,1.3089426 C 29.29341,1.4128303 28.863025,1.5760791 28.670098,1.6799667 28.002261,2.0509832 26.993084,3.0898448 26.607226,3.8467275 26.206524,4.5887683 26.206524,4.603603 26.161998,8.402852 l -0.04454,3.814091 -6.559643,0.04454 -6.559636,0.04454 -0.934966,0.504588 c -1.098223,0.593627 -1.706699,1.246622 -2.240965,2.389372 l -0.3858664,0.816244 -0.04454,39.476555 c -0.029666,35.514066 -0.014874,39.55076 0.2077677,40.263123 0.4452277,1.558285 1.5286077,2.745546 2.9830047,3.294661 0.801402,0.296813 1.038861,0.296813 38.749357,0.267137 l 37.947954,-0.04454 0.742042,-0.371015 c 1.024018,-0.489754 2.062872,-1.587969 2.478416,-2.626831 l 0.341339,-0.860762 0.04454,-38.957135 C 92.915928,31.806837 92.871388,17.158957 92.782383,16.565323 92.500404,14.784428 91.520912,13.43391 89.947784,12.69187 l -0.816243,-0.385859 -6.485434,-0.04454 -6.485433,-0.04454 -0.04454,-3.7398873 -0.04454,-3.7398806 -0.430385,-0.8607704 C 75.121774,2.8672125 74.290695,2.0509685 73.251834,1.5463874 L 72.509793,1.1753633 51.361637,1.1456941 C 34.650883,1.130822 30.094759,1.1605661 29.619848,1.308943 Z M 72.09431,3.1046869 c 1.038854,0.3116555 1.884781,1.2317871 2.122234,2.31516 0.118729,0.5936341 0.148413,6.3221921 0.118729,22.0979731 l -0.04454,21.296562 -0.356182,0.771717 c -0.430385,0.9795 -1.647329,2.122242 -2.611988,2.508101 -0.712357,0.267137 -1.35051,0.281979 -20.2577,0.281979 H 31.549216 L 30.554881,51.886432 C 29.486342,51.367001 28.863025,50.728848 28.313916,49.630626 L 27.987419,48.962789 27.942878,27.235841 27.913209,5.5237346 28.269391,4.7223327 C 28.655249,3.8764044 29.426974,3.2382514 30.317422,3.0304761 30.584558,2.971138 39.934273,2.9117538 51.079718,2.8969116 68.695762,2.8820396 71.441314,2.9117836 72.09431,3.1046869 Z m -45.961989,34.8759051 0.07421,24.487336 0.356182,0.712356 c 0.445219,0.920131 1.424712,1.899631 2.344845,2.344851 l 0.712356,0.356182 h 21.519179 21.519173 l 0.74204,-0.400701 c 0.920132,-0.474911 1.914467,-1.528607 2.344852,-2.463574 l 0.326497,-0.697522 0.04454,-24.457658 0.02967,-24.442816 h 6.055048 c 6.663531,0 7.04939,0.04454 8.073409,0.890448 0.296814,0.237459 0.712356,0.786567 0.920125,1.216952 l 0.385867,0.771717 v 39.476563 c 0,39.402347 0,39.491399 -0.311664,40.159229 -0.4007,0.890454 -0.949809,1.454405 -1.840256,1.869947 l -0.74203,0.356182 H 51.228148 c -28.509202,0 -37.591773,-0.04454 -38.037,-0.17809 -0.845929,-0.252295 -1.973829,-1.305991 -2.300326,-2.166761 -0.252294,-0.667838 -0.267137,-2.33001 -0.267137,-40.099875 V 16.313006 l 0.326498,-0.667837 c 0.46007,-0.934967 1.216945,-1.617647 2.151919,-1.944145 0.727198,-0.252294 1.291148,-0.267136 6.871299,-0.237452 l 6.084733,0.02967 z m 2.300325,12.970867 c 0.222611,0.326497 0.742041,0.831085 1.157578,1.113056 1.558292,1.038862 0.267135,0.994343 21.860518,0.949816 l 19.426622,-0.04454 0.934974,-0.430386 c 0.667838,-0.311655 1.172419,-0.69752 1.75121,-1.335674 l 0.816244,-0.90529 -0.04454,5.802762 -0.04454,5.802753 -0.445227,0.727198 c -0.341339,0.549109 -0.652995,0.831087 -1.261471,1.142742 l -0.801406,0.400699 -20.866183,-0.02967 -20.866177,-0.04454 -0.623312,-0.415543 C 29.085597,63.462231 28.625528,63.00217 28.402918,62.66083 l -0.415544,-0.623318 -0.04454,-5.832437 c -0.02967,-3.205616 -0.01487,-5.832439 0.01487,-5.832439 0.02967,0 0.252287,0.267137 0.474904,0.578792 z"
       id="path9147"
       style="stroke-width:0.0148408" />
    <path
       d="m 32.558394,57.036191 c -0.267137,0.163248 -0.578793,0.51943 -0.727206,0.771724 -0.400702,0.78656 -0.04454,1.973828 0.697521,2.359687 0.311656,0.178091 0.311656,0.163249 -0.01487,-0.267136 -0.400708,-0.549108 -0.296821,-1.216946 0.252287,-1.662165 0.534273,-0.415544 1.024018,-0.371024 1.543449,0.133564 0.519423,0.519431 0.549108,1.009177 0.103881,1.573127 l -0.311655,0.415543 0.326497,-0.178091 c 0.979493,-0.534265 1.172426,-2.048031 0.34134,-2.864276 -0.578792,-0.593633 -1.528601,-0.712362 -2.21128,-0.281977 z"
       id="path9149"
       style="stroke-width:0.0148408" />
  </g>
</svg>
