<?xml version="1.0" encoding="UTF-8" standalone="no"?>
<!-- Created with Inkscape (http://www.inkscape.org/) -->

<svg
   width="100mm"
   height="100mm"
   viewBox="0 0 100 100"
   version="1.1"
   id="svg26768"
   xmlns="http://www.w3.org/2000/svg"
   xmlns:svg="http://www.w3.org/2000/svg">
  <defs
     id="defs26765" />
  <path
     d="m 26.725241,38.248547 c -2.056933,0.704692 -3.332994,1.923611 -4.323368,4.07578 l -0.438051,0.95228 v 24.568919 24.56891 l 0.533279,1.142736 c 0.704689,1.504618 2.171207,2.971134 3.637723,3.656776 l 1.161786,0.533277 h 23.140491 23.140495 l 1.237969,-0.590419 c 0.685642,-0.32377 1.618882,-0.97132 2.075976,-1.428425 0.457094,-0.457095 1.104645,-1.390334 1.428425,-2.075976 l 0.590409,-1.237969 0.0571,-24.226089 c 0.0381,-24.226099 0.0381,-24.245139 -0.36186,-25.425977 -0.514237,-1.542699 -1.447476,-2.780668 -2.685446,-3.637725 -1.999793,-1.352243 -0.590418,-1.276061 -25.559291,-1.276061 -22.207254,0.0191 -22.511982,0.0191 -23.635678,0.399963 z m 46.852355,2.818759 c 0.971321,0.438054 2.114067,1.695064 2.361665,2.628304 0.285679,1.028462 0.285679,47.2904 0,48.337914 -0.266649,0.990381 -1.714115,2.399756 -2.761628,2.723526 -1.142736,0.32378 -44.338324,0.342831 -45.481066,0 -1.028466,-0.304719 -2.437844,-1.714104 -2.742574,-2.742577 -0.304732,-1.047503 -0.323777,-47.214218 -0.01905,-48.318863 0.247593,-0.93324 1.390334,-2.19025 2.361664,-2.628304 0.723738,-0.34282 1.904567,-0.361871 23.140495,-0.361871 21.235924,0 22.416752,0.0191 23.140494,0.361871 z"
     id="path6750"
     style="stroke-width:0.0190457" />
  <path
     d="m 28.420305,53.732678 c -0.933238,0.399963 -1.104648,1.25702 -0.438051,2.095027 0.380916,0.476135 0.457097,0.495185 2.45689,0.495185 1.885521,0 2.114073,-0.0381 2.475941,-0.419003 0.704687,-0.761824 0.419005,-1.866479 -0.59042,-2.228341 -0.838008,-0.285689 -3.180622,-0.247598 -3.90436,0.0571 z"
     id="path6752"
     style="stroke-width:0.0190457" />
  <path
     d="m 36.990857,53.732678 c -0.933238,0.399963 -1.104648,1.25702 -0.438051,2.095027 l 0.380916,0.495185 h 10.646529 10.646538 l 0.399952,-0.419003 c 0.704693,-0.761824 0.419004,-1.866479 -0.590418,-2.228341 -0.952281,-0.32378 -20.264594,-0.266648 -21.045466,0.0571 z"
     id="path6754"
     style="stroke-width:0.0190457" />
  <path
     d="m 62.702511,53.732678 c -0.93324,0.399963 -1.104645,1.25702 -0.438054,2.095027 l 0.380922,0.495185 h 4.913786 c 4.875684,0 4.913776,0 5.313738,-0.438054 0.742784,-0.780864 0.476146,-1.847428 -0.552327,-2.20929 -0.914189,-0.32378 -8.856241,-0.266648 -9.618065,0.0571 z"
     id="path6756"
     style="stroke-width:0.0190457" />
  <path
     d="m 28.420305,62.30323 c -0.933238,0.399963 -1.104648,1.25702 -0.438051,2.095027 l 0.380916,0.495185 h 19.19804 19.198029 l 0.399963,-0.438054 c 0.742784,-0.780864 0.476145,-1.847428 -0.552327,-2.20929 -0.971331,-0.342831 -37.405698,-0.285689 -38.18657,0.0571 z"
     id="path6758"
     style="stroke-width:0.0190457" />
  <path
     d="m 71.254022,62.322281 c -0.914199,0.380912 -1.085604,1.237969 -0.419003,2.075976 0.514236,0.64755 1.466516,0.685641 2.037884,0.0571 1.085605,-1.142736 -0.133324,-2.761618 -1.618881,-2.133108 z"
     id="path6760"
     style="stroke-width:0.0190457" />
  <path
     d="m 28.420305,70.873782 c -0.933238,0.399963 -1.104648,1.25702 -0.438051,2.095027 l 0.380916,0.495185 h 3.504402 c 3.371081,0 3.52345,-0.019 3.904361,-0.419003 0.70469,-0.761834 0.419004,-1.866479 -0.590416,-2.228351 -0.895143,-0.304729 -6.018433,-0.266628 -6.761212,0.0571 z"
     id="path6762"
     style="stroke-width:0.0190457" />
  <path
     d="m 39.847709,70.873782 c -0.933237,0.399963 -1.104648,1.25702 -0.438051,2.095027 l 0.38091,0.495185 h 3.504409 c 3.371085,0 3.52345,-0.019 3.904362,-0.419003 0.704692,-0.761834 0.419003,-1.866479 -0.590419,-2.228351 -0.895148,-0.304729 -6.018431,-0.266628 -6.761211,0.0571 z"
     id="path6764"
     style="stroke-width:0.0190457" />
  <path
     d="m 51.275118,70.873782 c -0.93325,0.399963 -1.104655,1.25702 -0.438054,2.095027 l 0.380912,0.495185 h 10.627477 10.627488 l 0.399962,-0.438043 c 0.742784,-0.780875 0.476146,-1.847439 -0.552327,-2.209311 -0.95228,-0.32377 -20.264593,-0.266628 -21.045458,0.0571 z"
     id="path6766"
     style="stroke-width:0.0190457" />
  <path
     d="m 28.420305,79.444334 c -0.933238,0.399963 -1.104648,1.25701 -0.438051,2.095027 l 0.380916,0.495185 h 6.342208 6.342208 l 0.399958,-0.438043 c 0.742779,-0.780875 0.476144,-1.847439 -0.552321,-2.209301 -0.933243,-0.32378 -11.713092,-0.266638 -12.474918,0.0571 z"
     id="path6768"
     style="stroke-width:0.0190457" />
  <path
     d="m 45.561409,79.444334 c -0.933238,0.399963 -1.104648,1.25701 -0.438051,2.095027 l 0.380916,0.495185 h 13.484339 13.484328 l 0.399962,-0.438043 c 0.742784,-0.780875 0.476146,-1.847439 -0.552327,-2.209301 -0.971321,-0.34282 -25.978295,-0.285689 -26.759167,0.0571 z"
     id="path6770"
     style="stroke-width:0.0190457" />
  <path
     d="m 5.5654979,56.589529 c -0.9332376,0.399963 -1.1046491,1.25702 -0.4380509,2.095026 l 0.3809131,0.495186 h 3.5044042 c 3.3710847,0 3.5234507,-0.0191 3.9043637,-0.419003 0.70469,-0.761824 0.419004,-1.86648 -0.590416,-2.228341 -0.895147,-0.30474 -6.0184335,-0.266649 -6.7612141,0.0571 z"
     id="path6776"
     style="stroke-width:0.0190457" />
  <path
     d="m 16.973855,56.608579 c -0.914192,0.380913 -1.085603,1.23797 -0.419004,2.075976 0.514233,0.647551 1.504608,0.685642 2.075978,0.0762 1.047512,-1.142746 -0.190456,-2.761628 -1.656974,-2.152158 z"
     id="path6778"
     style="stroke-width:0.0190457" />
  <path
     d="m 82.700465,56.589529 c -0.933229,0.399963 -1.104645,1.25702 -0.438044,2.095026 0.380913,0.476135 0.457095,0.495186 2.437848,0.495186 1.88552,0 2.075976,-0.0381 2.456888,-0.438054 0.742783,-0.780865 0.476145,-1.847429 -0.552328,-2.20929 -0.838006,-0.285689 -3.180621,-0.247598 -3.904364,0.0571 z"
     id="path6780"
     style="stroke-width:0.0190457" />
  <path
     d="m 91.251977,56.608579 c -0.914189,0.380913 -1.085605,1.23797 -0.419004,2.075976 0.514227,0.647551 1.466517,0.685642 2.037885,0.0571 1.085605,-1.142736 -0.133324,-2.761617 -1.618881,-2.133107 z"
     id="path6782"
     style="stroke-width:0.0190457" />
  <path
     d="m 5.5464523,65.179131 c -0.914192,0.380913 -1.0856035,1.23797 -0.4190053,2.075976 0.5142333,0.647551 1.5046077,0.685642 2.0759789,0.0762 1.0475122,-1.142746 -0.1904571,-2.761628 -1.6569736,-2.152158 z"
     id="path6784"
     style="stroke-width:0.0190457" />
  <path
     d="m 11.2792,65.160081 c -0.933238,0.399963 -1.104649,1.25702 -0.43805,2.095026 l 0.380913,0.495186 h 3.504403 c 3.371084,0 3.52345,-0.0191 3.904363,-0.419003 0.70469,-0.761824 0.419005,-1.86648 -0.590416,-2.228341 -0.895146,-0.30474 -6.018432,-0.266638 -6.761213,0.0571 z"
     id="path6786"
     style="stroke-width:0.0190457" />
  <path
     d="m 82.700465,65.160081 c -0.933229,0.399963 -1.104645,1.25702 -0.438044,2.095026 l 0.380913,0.495186 h 3.48536 c 3.390128,0 3.485361,-0.0191 3.885313,-0.438054 0.742784,-0.780865 0.476135,-1.847429 -0.552327,-2.20929 -0.895138,-0.30474 -6.018431,-0.266638 -6.761215,0.0571 z"
     id="path6788"
     style="stroke-width:0.0190457" />
  <path
     d="m 94.108827,65.179131 c -0.914189,0.380913 -1.085604,1.23797 -0.419003,2.075976 0.514226,0.647551 1.466517,0.685642 2.037885,0.0571 1.085604,-1.142736 -0.133314,-2.761617 -1.618882,-2.133107 z"
     id="path6790"
     style="stroke-width:0.0190457" />
  <path
     d="m 5.5654979,73.730633 c -0.9332376,0.399963 -1.1046491,1.25702 -0.4380509,2.095026 0.3809131,0.476145 0.4570965,0.495186 2.456892,0.495186 1.8855218,0 2.1140701,-0.0381 2.475938,-0.419003 0.70469,-0.761824 0.419004,-1.86648 -0.5904162,-2.228341 -0.8380096,-0.285689 -3.1806279,-0.247598 -3.9043629,0.0571 z"
     id="path6792"
     style="stroke-width:0.0190457" />
  <path
     d="m 14.13605,73.730633 c -0.933237,0.399963 -1.104649,1.25702 -0.43805,2.095026 0.380913,0.476145 0.457097,0.495186 2.456891,0.495186 1.885522,0 2.11407,-0.0381 2.475938,-0.419003 0.70469,-0.761824 0.419005,-1.86648 -0.590416,-2.228341 -0.838009,-0.285689 -3.180627,-0.247598 -3.904363,0.0571 z"
     id="path6794"
     style="stroke-width:0.0190457" />
  <path
     d="m 82.909972,73.65445 c -0.914199,0.361872 -1.199878,1.580791 -0.552328,2.304534 0.438054,0.476135 1.485568,0.476135 1.980753,-0.0191 1.009422,-1.009422 -0.114273,-2.81876 -1.428425,-2.285483 z"
     id="path6796"
     style="stroke-width:0.0190457" />
  <path
     d="m 88.623673,73.63541 c -0.914189,0.380912 -1.199878,1.599831 -0.552317,2.323574 0.304719,0.32377 0.6285,0.361861 3.828171,0.361861 3.237763,0 3.504401,-0.0191 3.866273,-0.380912 0.514236,-0.514236 0.495186,-1.542699 -0.0191,-2.018844 -0.361861,-0.32377 -0.761824,-0.361862 -3.580583,-0.399953 -1.733155,-0.0191 -3.332986,0.019 -3.542493,0.114274 z"
     id="path6798"
     style="stroke-width:0.0190457" />
</svg>
