<?xml version="1.0" encoding="UTF-8" standalone="no"?>
<!-- Created with Inkscape (http://www.inkscape.org/) -->

<svg
   width="100mm"
   height="100mm"
   viewBox="0 0 100 100"
   version="1.1"
   id="svg26768"
   xmlns="http://www.w3.org/2000/svg"
   xmlns:svg="http://www.w3.org/2000/svg">
  <defs
     id="defs26765" />
  <path
     d="m 17.598286,26.96853 c -3.741878,0.991823 -6.852596,4.057458 -7.9796678,7.912042 -0.225415,0.788954 -0.360663,2.096358 -0.360663,3.629178 0,4.057462 -0.540995,5.793152 -2.389393,7.866954 -1.217237,1.352495 -3.223425,2.411938 -4.9365745,2.614812 l -1.2397788,0.157791 v 1.329942 c 0,1.442649 -0.112708,1.352495 1.8033149,1.668065 2.7500554,0.42829 5.3874034,2.862758 6.3792264,5.860776 0.112708,0.360666 0.293039,2.862758 0.360663,5.522653 0.135249,4.395574 0.202873,4.959113 0.676243,6.018567 0.9918238,2.231594 3.2234258,3.809505 6.3341448,4.48574 2.20906,0.473374 65.437795,0.450832 67.69193,-0.02258 3.291059,-0.698789 5.657914,-2.592259 6.469399,-5.252154 0.383207,-1.217234 0.450832,-2.096356 0.450832,-5.432486 0,-4.440669 0.225416,-5.680444 1.397566,-7.506301 1.172148,-1.870939 3.313588,-3.358672 5.274698,-3.674254 2.00619,-0.315582 1.89348,-0.225416 1.89348,-1.668066 v -1.3074 l -1.12707,-0.135249 c -2.75006,-0.338124 -5.477568,-2.389396 -6.694814,-5.04928 -0.540998,-1.14962 -0.608611,-1.668077 -0.74386,-4.914041 -0.180333,-3.967292 -0.495915,-5.297238 -1.825857,-7.348507 -1.510286,-2.36685 -4.395585,-4.327955 -7.145635,-4.914033 -0.834038,-0.180332 -10.346527,-0.247955 -32.008848,-0.225414 -28.244418,0 -30.926849,0.04508 -32.279336,0.383205 z m 63.183647,2.524641 c 3.358672,0.540994 5.950943,2.772596 6.965302,5.973483 0.135261,0.360659 0.293041,2.299224 0.405749,4.282871 0.135249,2.862758 0.270499,3.877129 0.653705,4.891489 0.676248,1.758232 2.209064,3.786962 3.719338,4.914041 l 1.262319,0.946735 -0.85657,0.631153 c -1.916023,1.397578 -3.651713,3.764421 -4.395586,5.973496 -0.112766,0.360653 -0.29304,2.907841 -0.360665,5.635349 -0.157791,5.364861 -0.225416,5.657902 -1.532816,6.965302 -0.811485,0.811497 -2.16398,1.420108 -3.967295,1.71316 -0.946735,0.157779 -11.54122,0.225404 -33.519111,0.180333 -35.547851,-0.06761 -33.203542,0.02258 -35.322436,-1.510286 -1.577901,-1.149609 -1.735692,-1.73569 -1.87094,-7.235801 -0.135248,-4.17017 -0.202873,-5.026738 -0.63116,-6.153806 -0.834034,-2.299229 -2.4344748,-4.32796 -4.5533698,-5.860776 -0.360663,-0.247958 -0.47337,-0.450832 -0.29304,-0.518457 0.834034,-0.360665 2.637349,-2.096355 3.426299,-3.268506 1.5553598,-2.321771 1.8709388,-3.448838 2.0512708,-7.528841 0.180331,-3.89967 0.405746,-4.846411 1.55536,-6.514474 1.26232,-1.825857 3.31359,-3.133262 5.477569,-3.493924 1.645525,-0.270497 60.118011,-0.293039 61.786077,-0.02254 z"
     id="path128"
     style="stroke-width:0.0225415" />
  <path
     d="m 23.233645,50.456707 v 1.352483 h 26.82431 26.824307 V 50.456707 49.104224 H 50.057955 23.233645 Z"
     id="path130"
     style="stroke-width:0.0225415" />
</svg>
