<?xml version="1.0" encoding="UTF-8" standalone="no"?>
<!-- Created with Inkscape (http://www.inkscape.org/) -->

<svg
   width="100mm"
   height="100mm"
   viewBox="0 0 100 100"
   version="1.1"
   id="svg26768"
   xmlns="http://www.w3.org/2000/svg"
   xmlns:svg="http://www.w3.org/2000/svg">
  <defs
     id="defs26765" />
  <path
     d="M 2.206058,2.0522008 1.7236213,2.3811298 V 49.616054 c 0,42.629849 0.043846,47.256843 0.3508626,47.563852 0.4605074,0.460515 1.4692387,0.438584 1.9078178,-0.04389 0.3508626,-0.372791 0.372791,-3.048118 0.4166497,-32.849542 l 0.065775,-32.43289 6.5786806,-0.109655 6.57868,-0.109655 0.285075,-0.635939 c 0.285078,-0.548227 0.26315,-0.6798 -0.109641,-1.206096 l -0.43858,-0.570177 -6.512892,-0.06576 -6.4909643,-0.04389 V 20.88906 12.66571 l 6.4909643,-0.04389 6.512892,-0.06576 0.438579,-0.570158 c 0.372792,-0.526295 0.394721,-0.657869 0.109641,-1.206084 L 17.622091,10.143874 11.043411,10.034219 4.4647303,9.9245652 4.3550875,6.130864 C 4.2454458,2.6880242 4.2015861,2.2933026 3.8287951,2.0082238 3.2805702,1.6135022 2.8200638,1.6135022 2.2060529,2.0521087 Z"
     id="path56"
     style="stroke-width:0.021929" />
  <path
     d="M 24.573569,5.1661009 C 23.784127,5.889763 23.674483,6.2844848 23.608698,8.3896556 l -0.0658,1.5350246 -1.359592,0.06578 -1.381521,0.06576 v 1.293807 1.31574 h 1.425382 1.425377 v 1.863953 c 0,1.820104 0.02195,1.885897 0.745587,2.697259 l 0.745581,0.811374 7.762846,0.06576 7.762844,0.06576 0.745581,-0.504365 c 1.052591,-0.72365 1.31574,-1.33767 1.31574,-3.311266 v -1.688525 h 1.425382 1.425371 v -1.315733 -1.293808 l -1.359587,-0.06578 -1.381521,-0.06577 -0.109654,-1.8639535 C 42.511419,4.4643464 42.774605,4.5520584 33.016198,4.5520584 h -7.784777 z m 15.547614,4.1445719 c 0.04378,1.1841652 0.04378,3.0261992 -0.02188,4.1226412 l -0.109655,1.973608 h -6.79797 -6.797968 l -0.109642,-1.973608 c -0.0658,-1.096442 -0.08771,-2.938476 -0.02195,-4.1226412 l 0.08771,-2.1271016 h 6.841827 6.863751 z"
     id="path68"
     style="stroke-width:0.021929" />
  <path
     d="m 29.134789,11.350062 c 0,0.416653 0.1535,0.438583 4.056853,0.438583 3.903347,0 4.056852,-0.02188 4.056852,-0.438583 0,-0.416641 -0.153505,-0.438572 -4.056852,-0.438572 -3.903353,0 -4.056853,0.02189 -4.056853,0.438572 z"
     id="path70"
     style="stroke-width:0.021929" />
  <path
     d="m 25.275296,23.849559 c -0.241221,0.08766 -0.723656,0.482433 -1.030663,0.877156 -0.54822,0.635939 -0.59208,0.855224 -0.59208,2.543754 v 1.842035 h -1.425377 -1.425383 v 1.315738 1.293796 l 1.381523,0.06576 1.35959,0.06576 0.109642,1.863966 c 0.219291,3.596345 -0.02194,3.508632 9.53909,3.508632 8.332995,0 8.552281,-0.02188 9.210161,-1.315739 0.219275,-0.416653 0.32893,-1.249946 0.32893,-2.41218 v -1.754308 h 1.425382 1.425372 V 30.428208 29.112469 H 44.156111 42.73073 v -1.710461 c 0,-1.929747 -0.263148,-2.565685 -1.293808,-3.267404 -0.745581,-0.504365 -0.789444,-0.504365 -8.223354,-0.482445 -4.122642,0 -7.67513,0.08777 -7.938276,0.197365 z m 14.823956,4.495431 c 0.06576,1.074511 0.06576,2.938477 0.022,4.100711 l -0.06576,2.149033 h -6.863767 -6.86376 l -0.08771,-2.039391 c -0.04383,-1.096441 -0.04383,-2.982337 0.02195,-4.166502 l 0.06578,-2.127102 6.841828,0.04389 6.819897,0.06576 z"
     id="path116"
     style="stroke-width:0.021929" />
  <path
     d="m 29.134789,30.428242 c 0,0.41664 0.1535,0.438572 4.056853,0.438572 3.903347,0 4.056852,-0.02188 4.056852,-0.438572 0,-0.416653 -0.153505,-0.438584 -4.056852,-0.438584 -3.903353,0 -4.056853,0.02188 -4.056853,0.438584 z"
     id="path118"
     style="stroke-width:0.021929" />
  <path
     d="m 27.029609,40.252399 c -0.74558,0.482434 -0.74558,0.877156 -0.74558,28.704972 0,30.832078 -0.109642,28.661119 1.491168,28.529545 1.206086,-0.109655 1.359592,-0.570157 1.359592,-4.627005 V 89.41707 h 6.359393 c 6.074313,0 6.381312,-0.02188 6.797965,-0.438584 0.548225,-0.548214 0.570156,-1.359589 0.04377,-1.820103 -0.35086,-0.328929 -1.162234,-0.37278 -6.797969,-0.37278 H 29.1347 V 70.229247 53.672913 h 6.425177 c 5.964665,0 6.469029,-0.022 6.79797,-0.394721 0.504365,-0.548227 0.460503,-1.271877 -0.06577,-1.798185 -0.416653,-0.416641 -0.723663,-0.438572 -6.797973,-0.438572 h -6.359393 v -4.912084 c 0,-4.627006 -0.02195,-4.934004 -0.460505,-5.482231 -0.438582,-0.548226 -1.162238,-0.723649 -1.644675,-0.394721 z"
     id="path122"
     style="stroke-width:0.021929" />
  <path
     d="m 49.572549,45.997777 c -0.964868,0.592077 -1.359589,1.622748 -1.359589,3.508633 v 1.535025 h -1.315739 -1.315738 v 1.315739 1.315739 h 1.315738 1.315739 v 1.535013 c 0,1.776243 0.35086,2.806914 1.206096,3.464772 0.592076,0.482446 0.745582,0.482446 8.464568,0.482446 h 7.828629 l 0.679789,-0.570159 c 0.789443,-0.657868 1.118373,-1.688529 1.118373,-3.552482 v -1.35959 h 1.315737 1.315739 v -1.315739 -1.315739 h -1.293807 -1.271878 l -0.109655,-1.820102 c -0.06576,-1.271878 -0.219286,-1.973598 -0.504364,-2.434113 -0.767512,-1.184165 -1.162235,-1.228015 -9.254012,-1.228015 -7.039186,0 -7.455838,0.02188 -8.135639,0.438572 z m 15.174824,4.100711 c 0.06576,1.074521 0.131575,2.083251 0.131575,2.258686 0,0.175425 -0.06576,1.184153 -0.131575,2.236745 L 64.6158,56.523665 h -6.754106 -6.732189 l -0.153493,-1.929746 c -0.08778,-1.052592 -0.131587,-2.06132 -0.131587,-2.236745 0,-0.175435 0.04389,-1.184165 0.131587,-2.258686 l 0.153493,-1.907816 h 6.732189 6.754106 z"
     id="path124"
     style="stroke-width:0.021929" />
  <path
     d="m 53.69519,52.357174 c 0,0.416642 0.131573,0.438572 4.188434,0.438572 3.859492,0 4.166491,-0.02199 4.100699,-0.394721 -0.06576,-0.328929 -0.460504,-0.372791 -4.188423,-0.438572 -3.991067,-0.04377 -4.10071,-0.04377 -4.10071,0.394721 z"
     id="path126"
     style="stroke-width:0.021929" />
  <path
     d="m 51.546158,62.356767 c -0.482434,0.32893 -0.482434,0.37279 -0.482434,6.447109 0,5.262933 0.04389,6.162019 0.35086,6.447099 0.285078,0.307009 1.425382,0.350871 9.166298,0.350871 8.289133,0 8.85929,-0.02188 9.188219,-0.394722 0.504365,-0.548226 0.460503,-1.271877 -0.06576,-1.798173 C 69.286699,72.992299 68.97969,72.970367 61.47999,72.970367 H 53.695223 V 67.92671 c 0,-4.758569 -0.02188,-5.065579 -0.438572,-5.48223 -0.526295,-0.526297 -1.052592,-0.548227 -1.710461,-0.08778 z"
     id="path132"
     style="stroke-width:0.021929" />
  <path
     d="m 76.983712,67.92671 c -0.964869,0.592076 -1.35959,1.622748 -1.35959,3.508634 v 1.535023 h -1.315727 -1.315739 v 1.31574 1.315739 h 1.315739 1.315727 v 1.535013 c 0,1.776253 0.350872,2.806913 1.206095,3.464772 0.592078,0.482445 0.745583,0.482445 8.464569,0.482445 h 7.828628 l 0.679799,-0.570157 c 0.78943,-0.65787 1.118376,-1.68853 1.118376,-3.552484 v -1.359589 h 1.315741 1.315721 v -1.315739 -1.31574 h -1.293803 -1.271874 l -0.109662,-1.820103 c -0.06581,-1.271878 -0.219284,-1.973597 -0.504362,-2.434111 -0.767513,-1.184165 -1.162233,-1.228016 -9.254011,-1.228016 -7.039187,0 -7.455827,0.022 -8.135639,0.438573 z m 15.174834,4.100709 c 0.06581,1.074523 0.131581,2.083252 0.131581,2.258688 0,0.175423 -0.06581,1.184153 -0.131581,2.236744 l -0.13158,1.929747 H 85.272855 78.540679 L 78.387174,76.522851 C 78.299404,75.47026 78.2556,74.46153 78.2556,74.286107 c 0,-0.175436 0.04389,-1.184165 0.131574,-2.258688 l 0.153505,-1.907815 h 6.732176 6.754111 z"
     id="path134"
     style="stroke-width:0.021929" />
  <path
     d="m 81.106363,74.286107 c 0,0.416652 0.131563,0.438572 4.188423,0.438572 3.859496,0 4.166493,-0.02188 4.100708,-0.394711 -0.06581,-0.328939 -0.460516,-0.372801 -4.188421,-0.438583 -3.991066,-0.04389 -4.10071,-0.04389 -4.10071,0.394722 z"
     id="path136"
     style="stroke-width:0.021929" />
  <path
     d="m 49.440976,81.763865 c -0.921007,0.723662 -1.228016,1.535036 -1.228016,3.377059 v 1.644679 h -1.315739 -1.315738 v 1.315728 1.315739 h 1.315738 1.315739 v 1.578887 c 0,1.951665 0.438572,2.982326 1.535025,3.508621 0.6798,0.350861 1.556955,0.394723 8.069846,0.394723 6.227812,0 7.433908,-0.04377 8.047915,-0.35086 1.140304,-0.526296 1.491175,-1.271877 1.600818,-3.333198 l 0.109655,-1.798173 h 1.271877 1.293809 v -1.315739 -1.315728 h -1.31574 -1.315738 v -1.381531 c 0,-1.842034 -0.328929,-2.872683 -1.118373,-3.530564 l -0.679788,-0.570146 h -7.828629 c -7.631275,0 -7.872492,0.02188 -8.442649,0.460503 z m 15.306397,4.07879 c 0.06576,1.074511 0.131575,2.08324 0.131575,2.258676 0,0.175425 -0.06576,1.184165 -0.131575,2.236756 L 64.6158,92.267833 h -6.754106 -6.732189 l -0.153493,-1.929746 c -0.08778,-1.052591 -0.131587,-2.061331 -0.131587,-2.236756 0,-0.175436 0.04389,-1.184165 0.131587,-2.258676 l 0.153493,-1.907827 h 6.732189 6.754106 z"
     id="path138"
     style="stroke-width:0.021929" />
  <path
     d="m 53.69519,88.101331 c 0,0.438583 0.109655,0.438583 4.10071,0.394722 3.727919,-0.06577 4.122641,-0.109655 4.188423,-0.460504 0.06576,-0.350871 -0.241207,-0.37279 -4.100699,-0.37279 -4.056861,0 -4.188434,0.02199 -4.188434,0.438572 z"
     id="path140"
     style="stroke-width:0.021929" />
</svg>
