<?xml version="1.0" encoding="UTF-8" standalone="no"?>
<!-- Created with Inkscape (http://www.inkscape.org/) -->

<svg
   width="100mm"
   height="100mm"
   viewBox="0 0 100 100"
   version="1.1"
   id="svg26768"
   xmlns="http://www.w3.org/2000/svg"
   xmlns:svg="http://www.w3.org/2000/svg">
  <defs
     id="defs26765" />
  <path
     d="M 43.895397,1.514241 C 29.671126,2.2891923 17.796723,4.93906 14.146908,8.1388967 12.396997,9.6888265 12.521989,6.2140054 12.521989,49.911781 c 0,39.098029 0,39.572996 0.49998,40.397962 1.874904,3.049844 10.774451,5.774701 23.498809,7.199626 4.924746,0.549969 19.798991,0.749964 25.398711,0.374988 13.999289,-0.974959 24.673751,-3.674815 27.698591,-7.024645 l 0.89996,-0.999947 V 49.736788 9.5888222 L 89.46809,8.5388864 C 86.368257,5.4640415 77.01873,3.014155 64.14438,1.8642151 61.094523,1.5892306 47.070246,1.3392472 43.895397,1.514241 Z M 62.394469,4.8890716 C 72.668953,5.539031 82.868421,7.7139193 86.243252,9.963811 l 1.149948,0.774965 0.075,7.94959 0.0501,7.924602 -0.799968,0.499967 C 84.418442,28.512872 78.79372,30.137791 72.869025,31.087736 61.769588,32.862649 45.770391,33.087632 34.020993,31.612718 26.771339,30.68776 20.346664,29.112842 17.021822,27.412921 L 15.6469,26.712959 15.57188,19.238335 c -0.02496,-4.124781 0,-7.749609 0.07502,-8.049594 0.274984,-1.174928 4.574772,-3.0248434 9.674513,-4.1747833 10.17448,-2.274879 22.998828,-3.0248429 37.073119,-2.1248861 z m -44.37275,26.2986544 1.624919,0.624973 0.07502,3.649815 0.07502,3.649816 -1.32492,-0.524969 C 17.746774,38.312377 16.821831,37.887399 16.396853,37.637403 L 15.64689,37.212425 15.57187,33.762606 c -0.05006,-3.224839 -0.02496,-3.449834 0.374988,-3.324829 0.249984,0.07502 1.174941,0.424977 2.074898,0.749949 z M 87.5182,33.812594 c 0,3.124847 -0.05,3.449833 -0.474982,3.724819 -0.449978,0.274984 -3.499823,1.574917 -3.699818,1.574917 -0.05006,0 -0.07502,-1.624921 -0.07502,-3.574813 v -3.599826 l 1.949907,-0.749965 c 1.049948,-0.424976 1.999893,-0.774951 2.124899,-0.799951 0.09997,0 0.174994,1.524929 0.174994,3.424819 z M 25.646322,33.312627 c 1.924905,0.424977 4.199798,0.849955 5.074753,0.949945 l 1.549917,0.174994 v 3.699817 3.699817 l -0.674974,-0.09998 c -5.599708,-1.024949 -7.724594,-1.449925 -9.074529,-1.8249 l -1.624919,-0.47498 -0.07502,-3.574825 -0.07502,-3.549811 0.699963,0.124934 c 0.374988,0.07502 2.274891,0.47498 4.199783,0.874955 z m 56.572139,2.599865 -0.07502,3.574826 -2.124888,0.57497 c -2.79986,0.749963 -8.824545,1.7999 -9.074541,1.574918 -0.09998,-0.09998 -0.149994,-1.749912 -0.124934,-3.649815 l 0.07502,-3.449821 3.374831,-0.574984 c 1.849915,-0.299971 4.224785,-0.774951 5.249747,-1.049935 3.024843,-0.799966 2.774845,-1.099952 2.699857,2.999841 z m -44.32276,-0.799951 c 1.799913,0.124933 4.074791,0.324972 5.074752,0.399976 l 1.799899,0.149992 v 3.599813 3.599827 h -0.924943 c -1.324935,0 -9.59951,-0.724977 -10.124492,-0.899957 -0.399976,-0.124934 -0.449978,-0.524982 -0.449978,-3.749819 v -3.649816 l 0.699961,0.149994 c 0.37499,0.07502 2.149901,0.249996 3.924801,0.39999 z m 31.8234,3.174834 -0.07502,3.699804 -2.749858,0.274999 c -1.499928,0.174979 -4.074793,0.374975 -5.67471,0.474965 l -2.949854,0.174994 v -3.624815 -3.624813 l 2.199889,-0.174994 c 1.69991,-0.124933 6.824652,-0.59997 8.999539,-0.849954 0.249998,-0.02496 0.299987,0.799952 0.249998,3.649814 z m -12.449374,0.924959 v 3.574811 l -1.299933,0.174994 c -1.724923,0.199981 -6.699672,0.199981 -8.674566,0 l -1.524927,-0.174994 v -3.574811 -3.599827 h 5.749712 5.749714 z m -39.448002,0.19998 1.949906,0.799967 v 4.174783 4.199797 L 18.721682,48.211873 C 18.12171,48.011877 17.196753,47.586901 16.646784,47.286914 l -0.999948,-0.57497 -0.07502,-4.049791 c -0.02496,-2.22489 0.02496,-4.049791 0.125068,-4.049791 0.07502,0 1.049935,0.349974 2.124886,0.799952 z M 87.5182,42.762145 v 4.124793 l -1.549933,0.699963 c -0.874956,0.399976 -1.824901,0.799966 -2.124887,0.874954 l -0.574982,0.174994 v -4.224785 -4.224785 l 1.949905,-0.749963 c 1.049949,-0.424978 1.999894,-0.774964 2.1249,-0.799966 0.09998,0 0.174997,1.849915 0.174997,4.124795 z M 22.621479,40.987232 c 1.074951,0.324986 5.849705,1.274946 8.724568,1.749911 l 0.924945,0.149992 v 4.249787 4.274787 l -0.674974,-0.149993 c -0.399976,-0.07502 -1.7749,-0.324987 -3.074833,-0.524981 -2.349881,-0.399976 -7.124649,-1.499915 -7.524625,-1.774899 -0.124934,-0.07502 -0.224983,-1.974908 -0.224983,-4.249786 0,-3.124846 0.07502,-4.099793 0.324987,-4.099793 0.149993,0 0.849954,0.174994 1.524915,0.374975 z m 59.64697,3.84981 v 4.199784 L 79.593595,49.6868 c -2.0999,0.499967 -8.199587,1.674907 -8.724555,1.674907 -0.05005,0 -0.09998,-1.899905 -0.09998,-4.249773 v -4.224799 l 0.824968,-0.124933 c 4.424766,-0.749965 5.624707,-0.974947 7.674604,-1.499927 1.299933,-0.324973 2.524876,-0.599959 2.69987,-0.624959 0.224982,-0.02496 0.299973,0.974945 0.299973,4.199783 z M 40.59557,43.6371 l 4.174782,0.324986 v 4.224785 4.249787 l -3.049843,-0.174994 c -1.699909,-0.09998 -4.249786,-0.324988 -5.699712,-0.47498 l -2.624866,-0.299971 -0.07502,-4.224799 -0.05006,-4.224785 1.54993,0.149992 c 0.874955,0.09998 3.449819,0.299986 5.774701,0.449979 z m 29.173519,3.674816 v 4.224785 l -3.049844,0.274985 c -1.69991,0.174994 -4.274787,0.374988 -5.749701,0.474978 l -2.69987,0.149994 v -4.249787 -4.249785 l 3.074846,-0.199983 c 1.674908,-0.09998 3.774806,-0.249996 4.674762,-0.374988 0.899957,-0.09998 2.099886,-0.199995 2.69987,-0.224982 l 1.049937,-0.02496 z m -12.499362,0.824967 c 0,4.099779 0,4.174783 -0.549982,4.324775 -0.749951,0.199982 -9.174519,0.199982 -10.17448,0 l -0.774964,-0.174994 v -4.049791 c 0,-2.22489 0.05005,-4.099793 0.09998,-4.149795 0.05005,-0.05006 2.649866,-0.09998 5.749712,-0.09998 h 5.64971 z m -39.448002,0.774951 1.949906,0.799966 v 4.074778 4.074806 L 18.471698,57.336402 C 17.746721,57.061418 16.821777,56.636442 16.3968,56.386457 l -0.749964,-0.424976 -0.07502,-3.924799 c -0.02496,-2.149902 0.02496,-3.9248 0.125068,-3.9248 0.07502,0 1.049935,0.349973 2.124886,0.799952 z M 87.5182,52.061682 c 0,4.474769 0.19998,4.049791 -2.524879,5.17473 -0.849955,0.349988 -1.599919,0.624972 -1.649921,0.624972 -0.05006,0 -0.07502,-1.824913 -0.07502,-4.074806 v -4.04979 l 1.949907,-0.799953 c 1.049948,-0.424978 1.999893,-0.774964 2.124899,-0.799952 0.09997,-0.02496 0.174994,1.749897 0.174994,3.924799 z M 22.621479,50.486751 c 1.074951,0.324986 5.849705,1.274933 8.724568,1.749911 l 0.924945,0.149993 v 4.124794 4.099794 l -0.54997,-0.124934 C 31.396036,60.436249 30.021101,60.186323 28.646177,59.961341 27.271242,59.736345 24.971361,59.261366 23.521436,58.88639 L 20.89657,58.236417 20.82155,54.161625 c -0.07502,-4.52477 -0.19998,-4.274788 1.799914,-3.674816 z m 59.596982,3.674817 -0.07502,4.074791 -2.124888,0.57497 c -2.42487,0.649974 -8.774557,1.799914 -9.049541,1.62492 -0.124933,-0.04991 -0.199994,-1.899904 -0.199994,-4.074792 v -3.949801 l 1.824913,-0.299986 c 2.324882,-0.374974 7.324632,-1.399923 8.299579,-1.724909 1.449925,-0.449979 1.399923,-0.599971 1.324933,3.774807 z m -41.622891,-0.999947 4.174782,0.299984 v 4.074793 4.074792 h -0.924943 c -1.324935,0 -9.59951,-0.724963 -10.124492,-0.899957 -0.399976,-0.124934 -0.449978,-0.549969 -0.449978,-4.149782 v -4.024803 l 1.574917,0.149993 c 0.849969,0.09998 3.424833,0.299986 5.749714,0.47498 z m 29.123531,3.499821 -0.07502,4.074793 -2.749858,0.274984 c -1.499928,0.174994 -4.074793,0.374988 -5.699712,0.47498 l -2.949852,0.174994 0.07502,-4.074793 0.07502,-4.099793 4.124795,-0.299986 c 2.249891,-0.174994 4.399779,-0.349988 4.749765,-0.39999 0.349975,-0.04991 1.049937,-0.124934 1.574918,-0.149979 l 0.924944,-0.02496 z m -12.449374,0.849954 v 4.024805 l -1.299933,0.17498 c -1.724923,0.199995 -6.699672,0.199995 -8.674566,0 l -1.524927,-0.17498 v -3.924814 c 0,-2.149886 0.05005,-3.974788 0.09998,-4.02479 0.05005,-0.04991 2.649866,-0.09998 5.749712,-0.09998 h 5.64971 z m -39.448002,0.649961 1.949906,0.799966 v 4.099793 4.074792 l -0.549983,-0.149993 c -0.324972,-0.09998 -1.274932,-0.499966 -2.124886,-0.874956 l -1.574917,-0.724963 v -3.999789 c 0,-2.22489 0.07502,-4.024803 0.174993,-4.024803 0.09998,0 1.049936,0.349988 2.124887,0.799953 z m 69.646465,3.249852 -0.075,4.049791 -1.399932,0.674961 c -0.749965,0.374974 -1.699923,0.774964 -2.049898,0.849954 l -0.674974,0.174994 v -4.099793 -4.124781 l 1.949907,-0.749978 c 1.049949,-0.424976 1.999894,-0.774951 2.1249,-0.799951 0.09998,0 0.149987,1.799898 0.124937,4.024803 z M 22.621479,59.736288 c 1.074951,0.324986 5.849705,1.274931 8.724568,1.749911 l 0.924945,0.149992 v 4.124795 4.149782 L 30.971059,69.735787 C 29.121144,69.48579 23.921412,68.435841 22.221503,67.935874 l -1.449926,-0.39999 v -4.074793 c 0,-3.124833 0.07502,-4.099779 0.324987,-4.099779 0.149993,0 0.849954,0.17498 1.524915,0.374976 z m 59.64697,3.749805 v 4.099793 l -0.924943,0.249998 c -2.949854,0.774951 -4.224785,1.049935 -6.799663,1.524915 -1.574917,0.274984 -3.074846,0.49998 -3.324829,0.49998 -0.424978,0 -0.449978,-0.299999 -0.449978,-4.124795 v -4.099793 l 0.824966,-0.124933 c 3.574813,-0.599972 6.824652,-1.224945 8.299579,-1.62492 0.974945,-0.274985 1.899903,-0.499968 2.074897,-0.499968 0.224982,-0.02496 0.299971,0.949947 0.299971,4.09978 z m -41.672879,-1.099937 4.174782,0.324972 v 4.149795 4.174784 l -1.424923,-0.09998 C 40.620571,70.760746 35.395839,70.335755 34.34589,70.185762 L 33.270939,70.03577 v -4.124781 -4.124795 l 1.574917,0.149994 c 0.849969,0.09998 3.424833,0.299984 5.749714,0.449978 z m 29.173519,3.574811 v 4.099793 l -1.049937,0.149992 c -1.399937,0.174994 -6.624669,0.599972 -8.699566,0.699963 l -1.62492,0.07502 -0.07502,-4.149795 -0.05005,-4.149783 3.049843,-0.199995 c 1.699909,-0.09998 3.799808,-0.249984 4.699765,-0.374988 0.899957,-0.09998 2.099884,-0.199982 2.699856,-0.224982 l 1.049949,-0.02496 z m -12.499362,0.949958 v 4.199784 h -5.749714 -5.749712 v -4.074792 c 0,-2.249878 0.05005,-4.149781 0.09998,-4.199783 0.05005,-0.05006 2.649866,-0.09998 5.749712,-0.09998 h 5.64971 z m -40.547941,0.174981 c 0.499967,0.249997 1.399924,0.599984 1.999896,0.774964 l 1.049949,0.324987 v 3.599828 c 0,1.949891 -0.05006,3.574811 -0.124934,3.574811 -0.349988,0 -2.824862,-1.099939 -3.424833,-1.524929 L 15.521899,73.3356 v -3.37483 c 0,-1.849916 0.05006,-3.349831 0.124934,-3.349831 0.07502,0 0.54997,0.199996 1.07495,0.474967 z M 87.5182,70.110762 v 3.524824 l -1.799917,0.849953 c -0.999947,0.474967 -1.949905,0.874957 -2.124886,0.874957 -0.274997,0 -0.324999,-0.749965 -0.274997,-3.499823 l 0.07502,-3.524823 1.999894,-0.849954 c 1.09995,-0.449979 2.024896,-0.849955 2.074896,-0.849955 0.025,-0.02496 0.0501,1.549916 0.0501,3.474821 z M 24.2714,69.510791 c 1.449925,0.324987 3.824795,0.799967 5.324723,1.024949 l 2.674869,0.424977 v 3.674816 3.649815 L 30.146091,77.960362 C 27.671217,77.560385 23.996416,76.760419 22.096512,76.21045 l -1.324935,-0.374976 v -3.649815 c 0,-3.349828 0.02496,-3.624826 0.449979,-3.449832 0.224982,0.09998 1.599919,0.449978 3.049844,0.774964 z m 57.697078,6.374672 c -0.49998,0.324987 -5.374726,1.449926 -8.274576,1.949907 -2.024909,0.349988 -2.749872,0.374974 -2.824862,0.174994 -0.07502,-0.174994 -0.07502,-1.799914 -0.05005,-3.649815 l 0.07502,-3.349844 3.299841,-0.57497 c 1.7999,-0.299971 4.349776,-0.824953 5.624709,-1.149926 l 2.32488,-0.57497 0.07502,3.499822 c 0.04991,2.549864 -0.02496,3.524809 -0.249984,3.674802 z M 38.895661,71.610691 c 2.074884,0.149992 4.224785,0.324972 4.824756,0.399974 l 1.049935,0.124934 v 3.649815 3.624813 l -2.29988,-0.149988 C 39.145644,79.010257 34.770866,78.61028 33.9709,78.460286 l -0.699961,-0.149992 v -3.624813 -3.64983 l 0.949959,0.150008 c 0.499966,0.09998 2.624866,0.27497 4.674763,0.424976 z m 30.873428,3.124832 c 0,3.549825 0,3.624814 -0.549969,3.749806 -0.649974,0.125068 -4.899746,0.524982 -8.499572,0.774964 l -2.449874,0.149994 v -3.624815 -3.624813 l 0.774966,-0.149994 c 0.424977,-0.07502 1.524914,-0.149992 2.449873,-0.174992 0.899956,-0.02496 2.949852,-0.174994 4.524769,-0.349988 1.574918,-0.149979 3.074846,-0.324973 3.324829,-0.349974 0.37499,-0.02496 0.424978,0.299986 0.424978,3.599812 z m -12.499362,0.974961 v 3.574811 l -2.87485,0.149992 c -1.574931,0.07502 -4.174797,0.07502 -5.749714,0 l -2.874862,-0.149992 v -3.574811 -3.599827 h 5.749712 5.749714 z m -34.348262,3.899797 c 18.249074,4.549772 48.022565,3.799809 62.34684,-1.574917 L 87.5182,77.185409 v 5.824704 5.824703 l -0.92496,0.649961 c -2.124888,1.424937 -7.174639,2.949852 -13.42432,3.999802 -18.324078,3.099832 -45.697683,1.449926 -55.272206,-3.299842 -2.499861,-1.249931 -2.374869,-0.899956 -2.374869,-7.199625 0,-3.049858 0.05006,-5.599721 0.124934,-5.674724 0.07502,-0.07502 1.07495,0.249997 2.22489,0.699976 1.124939,0.474965 3.399818,1.174941 5.049739,1.599917 z"
     id="path90"
     style="stroke-width:0.0249987" />
  <path
     d="m 18.396694,15.113554 c -0.249983,0.424978 0.05006,0.624958 1.874903,1.199929 13.649315,4.374777 40.122978,5.024751 57.172096,1.424938 5.349738,-1.124952 7.899602,-2.124901 7.224641,-2.79986 -0.07502,-0.07502 -1.124939,0.149992 -2.324881,0.499967 -15.7492,4.774767 -45.497689,4.849756 -60.946917,0.149992 -2.549864,-0.749964 -2.799846,-0.799953 -2.999842,-0.474966 z"
     id="path92"
     style="stroke-width:0.0249987" />
</svg>
