<?xml version="1.0" encoding="UTF-8" standalone="no"?>
<!-- Created with Inkscape (http://www.inkscape.org/) -->

<svg
   width="100mm"
   height="100mm"
   viewBox="0 0 100 100"
   version="1.1"
   id="svg26768"
   xmlns="http://www.w3.org/2000/svg"
   xmlns:svg="http://www.w3.org/2000/svg">
  <defs
     id="defs26765" />
  <path
     d="M 46.008085,1.150199 C 33.879877,2.0760117 25.038335,4.0202209 21.126767,6.6125152 19.414001,7.7466323 18.974243,8.5567243 18.812225,10.824981 l -0.115744,1.828489 -1.851626,0.624924 c -3.101486,1.041546 -5.323445,2.36083 -6.179835,3.633829 -0.393472,0.624924 -0.416609,2.19881 -0.416609,37.44927 0,35.829109 0.02317,36.824357 0.439758,37.518717 1.782203,2.939469 9.744218,5.369744 22.011295,6.735325 4.55964,0.509193 21.548377,0.578627 26.270035,0.115744 11.711576,-1.157267 20.136521,-3.518107 22.682506,-6.341843 0.786955,-0.856378 0.810092,-0.925813 0.810092,-2.846885 0,-1.388731 0.09257,-2.013655 0.3009,-2.059941 3.58753,-1.018397 7.013053,-2.846885 7.962015,-4.281902 l 0.532341,-0.786944 V 45.820862 c 0,-41.8237551 0.254603,-37.4724188 -2.245096,-39.1620376 C 85.74875,4.4368645 78.735685,2.6546738 69.037753,1.566831 65.866842,1.2196571 49.202131,0.91875745 46.008073,1.1502223 Z m 17.47478,2.8700219 c 11.341264,0.7175083 21.733544,2.9394682 24.372124,5.2771607 0.370323,0.3240367 0.393471,2.3608294 0.393471,36.5234574 v 36.176283 l -1.018396,0.601777 c -0.948961,0.55549 -3.101486,1.481314 -4.235616,1.828499 l -0.532341,0.162007 V 51.121136 c 0,-36.801196 0.115744,-34.162627 -1.435017,-35.343043 -7.47596,-5.693768 -35.366191,-7.985163 -55.618421,-4.582789 -1.5276,0.277739 -2.962617,0.532341 -3.194071,0.601776 -0.370333,0.115744 -0.416619,0 -0.347184,-1.11098 0.0694,-1.2035512 0.09257,-1.2267001 1.296146,-1.9673572 C 26.681657,6.6356524 36.310153,4.6451573 45.892353,4.0433696 50.428856,3.7656305 59.085243,3.7656305 63.482865,4.0201976 Z M 51.400966,12.584023 c 6.24926,0.254602 10.739466,0.671222 15.206534,1.41188 5.369733,0.902664 10.392291,2.430264 12.151345,3.703262 l 0.925813,0.671212 V 54.454076 90.51464 l -0.925813,0.624924 C 76.629456,92.528283 71.46804,94.079032 65.797408,94.981708 53.877528,96.87962 37.166531,96.787036 25.52439,94.750243 19.414001,93.662412 13.442481,91.509887 13.141592,90.283186 c -0.0694,-0.27775 -0.09257,-16.595264 -0.0694,-36.268868 l 0.0694,-35.736513 0.925825,-0.624937 c 3.842132,-2.545985 14.604746,-4.605927 26.385768,-5.045696 2.545997,-0.09257 4.744807,-0.208304 4.860541,-0.208304 0.138869,-0.02317 2.870021,0.0694 6.08724,0.185155 z"
     id="path72"
     style="stroke-width:0.0231454" />
  <path
     d="m 15.618154,22.467122 c 0.0694,0.462907 1.365582,0.948962 4.814243,1.80534 13.123455,3.30979 35.759663,3.494958 49.994098,0.439769 4.99941,-1.064693 7.244506,-1.94422 6.642731,-2.569146 -0.0694,-0.0694 -1.481303,0.254602 -3.101487,0.717509 -14.951932,4.212467 -42.124655,4.119882 -55.965607,-0.208317 -2.198811,-0.694359 -2.476561,-0.694359 -2.383978,-0.185155 z"
     id="path74"
     style="stroke-width:0.0231454" />
</svg>
