<?xml version="1.0" encoding="UTF-8" standalone="no"?>
<!-- Created with Inkscape (http://www.inkscape.org/) -->

<svg
   width="100mm"
   height="100mm"
   viewBox="0 0 100 100"
   version="1.1"
   id="svg26768"
   xmlns="http://www.w3.org/2000/svg"
   xmlns:svg="http://www.w3.org/2000/svg">
  <defs
     id="defs26765" />
  <path
     d="M 43.313619,0.69882836 C 28.835376,1.4890201 16.702212,4.1909379 12.980699,7.4536437 11.19641,9.0340132 11.323859,5.516419 11.323859,49.91972 c 0,45.958184 -0.280389,41.191576 2.472516,43.052347 3.594062,2.447016 11.368471,4.435223 21.997736,5.607755 5.021495,0.560774 20.187951,0.764692 25.897685,0.382353 16.211534,-1.147047 27.325105,-4.333285 29.05841,-8.360669 0.305887,-0.688225 0.356855,-7.315591 0.356855,-40.528851 0,-26.407476 -0.10191,-40.019046 -0.254889,-40.6563022 C 89.807079,5.6438563 79.53467,2.4576323 63.960391,1.0556833 60.850621,0.77529631 46.57631,0.52040777 43.313619,0.69882836 Z M 62.176088,4.1399547 c 11.419457,0.7392084 22.354607,3.1862377 25.056524,5.6587521 l 0.560774,0.5097912 v 39.713174 39.713174 l -0.943128,0.662739 c -1.299982,0.86666 -4.358769,2.039192 -7.44304,2.803886 C 65.362325,96.744564 42.013622,97.07592 26.23541,93.940665 21.162945,92.946568 16.498296,91.315215 15.096355,90.066216 14.663027,89.70936 14.637538,87.466251 14.637538,49.843251 V 10.002625 l 1.121553,-0.66274 C 23.100169,5.032099 42.319508,2.8909552 62.176088,4.1399547 Z"
     id="path86"
     style="stroke-width:0.0254898" />
  <path
     d="m 17.288479,14.5908 c -0.229408,0.407838 0.101951,0.611756 1.937227,1.223514 13.025312,4.205819 38.10732,5.072479 55.822756,1.91174 4.154851,-0.739208 9.686137,-2.268609 9.992024,-2.727416 0.433322,-0.713725 -0.35687,-0.739208 -2.523498,-0.101911 -16.033114,4.843075 -46.569942,4.945029 -62.067764,0.178435 -2.727412,-0.841161 -2.905845,-0.86666 -3.160745,-0.484307 z"
     id="path88"
     style="stroke-width:0.0254898" />
</svg>
