<?xml version="1.0" encoding="UTF-8" standalone="no"?>
<!-- Created with Inkscape (http://www.inkscape.org/) -->

<svg
   width="100mm"
   height="100mm"
   viewBox="0 0 100 100"
   version="1.1"
   id="svg26768"
   xmlns="http://www.w3.org/2000/svg"
   xmlns:svg="http://www.w3.org/2000/svg">
  <defs
     id="defs26765" />
  <path
     d="M 46.284582,1.5234338 C 34.201435,2.447581 25.306575,4.3882719 21.448287,6.952769 19.600006,8.2003672 19.299659,8.7317486 19.137934,11.065204 l -0.11552,1.940692 -1.848281,0.623792 c -3.14208,1.062762 -5.360018,2.356566 -6.122436,3.581054 -0.46207,0.739313 -0.46207,1.155175 -0.46207,37.473923 v 36.734609 l 0.531382,0.785517 c 1.594143,2.379661 7.485543,4.505188 16.10316,5.845196 6.67692,1.016558 9.241408,1.178284 19.406966,1.178284 10.165557,0 12.730039,-0.161726 19.40696,-1.178284 6.630728,-1.016557 11.967638,-2.610702 14.485915,-4.343462 1.709665,-1.132065 2.010021,-1.732759 2.148635,-3.973807 l 0.11555,-1.9638 1.732774,-0.577586 c 3.673452,-1.22449 6.006928,-2.703114 6.607602,-4.158642 0.277245,-0.646888 0.32345,-6.792425 0.32345,-37.104266 0,-41.5170424 0.254158,-37.1966754 -2.241029,-38.90634 C 85.999593,4.8272429 79.02232,3.0482776 69.272631,1.9393094 66.846764,1.6620638 63.358134,1.5465435 56.681216,1.5003384 51.598441,1.4771992 46.931524,1.4771992 46.284624,1.5234777 Z m 17.443166,2.8648381 c 10.327275,0.6469016 19.730416,2.5182918 23.334565,4.6669133 l 1.270694,0.7624219 V 46.06704 82.316487 l -1.178283,0.646903 c -0.646888,0.369655 -1.894485,0.924132 -2.772414,1.224474 L 82.788152,84.742355 82.672603,51.219129 C 82.557054,19.890745 82.534059,17.626603 82.164317,17.072112 78.929823,12.335898 58.159753,9.0320897 38.660372,10.164168 c -5.77588,0.346546 -14.02384,1.363103 -16.126262,1.986895 -0.369657,0.115549 -0.415863,0 -0.346553,-1.108968 0.06931,-1.2244879 0.06931,-1.2244879 1.340005,-1.9869098 3.488632,-2.0793064 13.030394,-4.0431071 22.64146,-4.6438036 4.528296,-0.2772457 13.145906,-0.2772457 17.558683,-0.023138 z m -12.06005,8.5483091 c 12.937977,0.508285 23.195951,2.402771 27.192867,5.059679 l 0.924134,0.623792 0.06927,7.323821 0.04613,7.30071 -0.508286,0.346561 c -1.917595,1.247585 -7.138985,2.818633 -12.42969,3.69656 -6.515194,1.10897 -10.696944,1.386215 -20.331108,1.386215 -9.634176,0 -13.815916,-0.277245 -20.33111,-1.386215 -5.290708,-0.877927 -10.512105,-2.448975 -12.4297,-3.69656 l -0.508277,-0.346561 0.0462,-7.30071 0.06931,-7.323821 0.924142,-0.623792 c 3.85829,-2.541388 14.53212,-4.597599 26.338019,-5.036569 2.541391,-0.09241 4.736227,-0.207931 4.851746,-0.207931 0.138614,-0.02314 2.86484,0.06927 6.076225,0.184821 z m -36.180122,24.535959 1.802076,0.739312 v 3.303796 c 0,3.742779 0.254139,3.488643 -2.35656,2.31036 l -1.57104,-0.693106 v -3.18829 c 0,-1.778978 0.06931,-3.211398 0.161725,-3.211398 0.09241,0 0.970347,0.32345 1.963799,0.739326 z m 64.412642,2.472072 v 3.18829 l -1.547939,0.693106 c -2.633797,1.178283 -2.379662,1.432419 -2.379662,-2.31036 v -3.303796 l 1.686571,-0.716217 c 0.901022,-0.392752 1.802059,-0.716201 1.963785,-0.739312 0.20793,-0.02314 0.277245,0.762422 0.277245,3.188289 z m -54.293294,0.11555 3.118978,0.531381 0.06931,3.37311 0.06931,3.373123 -0.87793,-0.138688 c -1.571035,-0.20793 -7.554851,-1.432419 -8.617613,-1.755869 l -1.039659,-0.300342 -0.06931,-3.350015 -0.06931,-3.350014 2.148628,0.531381 c 1.178281,0.300356 3.557944,0.785519 5.267606,1.085874 z m 49.349136,4.897939 c -0.138541,0.392766 -4.343463,1.363118 -9.911414,2.287251 l -0.646902,0.115549 0.06927,-3.396219 0.06927,-3.373111 3.118974,-0.53138 c 1.709665,-0.300357 4.066216,-0.762423 5.198295,-1.062763 l 2.07932,-0.531382 0.06927,3.118974 c 0.02314,1.709665 0.02314,3.211384 -0.04613,3.37311 z M 33.924195,41.099814 c 1.709656,0.161726 3.881394,0.323452 4.805536,0.392766 l 1.663454,0.138689 v 3.350015 3.350014 l -2.587596,-0.161725 c -1.432423,-0.09241 -3.812084,-0.277246 -5.267608,-0.438972 l -2.656904,-0.254135 -0.06931,-3.442424 -0.06931,-3.41933 0.531381,0.11555 c 0.300345,0.06927 1.940695,0.23104 3.650359,0.369654 z m 29.526307,2.957249 -0.06927,3.41933 -2.656908,0.254135 c -1.45553,0.161725 -3.83519,0.346561 -5.244501,0.438971 l -2.610702,0.161726 V 44.98121 41.631197 l 1.686556,-0.138688 c 1.409309,-0.115549 7.762792,-0.693107 8.663814,-0.808628 0.231041,-0.02314 0.27726,0.716203 0.231041,3.37311 z m -11.505558,0.854833 v 3.303809 l -1.409309,0.161725 c -0.785517,0.06927 -2.541387,0.138688 -3.904498,0.138688 -1.363109,0 -3.118977,-0.06927 -3.9045,-0.138688 l -1.409313,-0.161725 v -3.303809 -3.326905 h 5.313813 5.313807 z m -36.203229,0.277245 1.547937,0.646901 v 3.881397 c 0,2.125511 -0.02311,3.881381 -0.06931,3.881381 -0.0462,0 -0.739311,-0.254136 -1.524832,-0.577587 -2.518284,-1.039653 -2.333456,-0.623792 -2.333456,-4.944144 0,-3.488644 0.02311,-3.765876 0.415863,-3.65037 0.207932,0.06927 1.085867,0.415877 1.9638,0.762422 z m 64.158503,2.957248 v 3.765877 l -1.848279,0.854832 c -0.993463,0.462065 -1.894485,0.831722 -1.963802,0.831722 -0.06927,0 -0.115549,-1.75587 -0.115549,-3.90449 v -3.904492 l 1.108969,-0.392767 c 0.600696,-0.184821 1.340009,-0.50827 1.663459,-0.693106 1.132064,-0.646902 1.155174,-0.623792 1.155174,3.442424 z M 20.246905,46.64467 c 1.547936,0.392751 5.013464,1.085858 7.739682,1.524829 l 0.854831,0.138688 v 3.927601 3.927601 L 28.102106,56.04784 C 25.121748,55.562665 22.8345,55.123706 20.708974,54.592326 l -2.495181,-0.600697 v -3.904491 c 0,-2.125525 0.06931,-3.881397 0.138614,-3.881397 0.06931,0 0.924141,0.207931 1.894491,0.438972 z m 54.75536,3.419314 -0.06927,3.881397 -1.9638,0.531382 c -1.45553,0.369655 -7.970723,1.663459 -8.478995,1.663459 -0.04613,0 -0.06927,-1.75587 -0.06927,-3.927602 v -3.904505 l 0.877926,-0.138688 c 2.264157,-0.369657 6.977276,-1.3169 8.016929,-1.594145 0.646901,-0.184835 1.293803,-0.34656 1.455529,-0.34656 0.231026,-0.02314 0.277245,0.831736 0.231026,3.83519 z m -38.467372,-1.062763 3.858292,0.300343 v 3.904505 3.927602 l -2.472083,-0.138688 c -1.386209,-0.09241 -3.76587,-0.27726 -5.313812,-0.438972 l -2.841729,-0.25415 v -3.9276 -3.927588 l 1.45552,0.138689 c 0.785518,0.09241 3.165181,0.277246 5.313812,0.415859 z m 26.961829,3.32692 c 0,2.864825 -0.06927,3.858271 -0.27726,3.927587 -0.392752,0.138689 -8.132434,0.808626 -9.356922,0.808626 h -0.993448 v -3.881396 -3.90449 l 4.204833,-0.277247 c 2.333469,-0.161723 4.274161,-0.323449 4.320366,-0.392751 0.04613,-0.04628 0.554491,-0.09241 1.108968,-0.09241 h 0.993463 z m -11.551778,0.831723 v 3.83519 l -0.716201,0.161711 c -0.392767,0.06927 -2.472088,0.138689 -4.597606,0.138689 -2.125528,0 -4.204845,-0.06927 -4.597603,-0.138689 l -0.71621,-0.161711 v -3.83519 -3.835191 h 5.313813 5.313807 z m -36.203229,0.808627 1.547937,0.646887 v 3.765876 c 0,4.274162 0.277242,3.95071 -2.35656,2.772428 l -1.57104,-0.693108 v -3.69656 c 0,-3.396219 0.02311,-3.673465 0.415863,-3.557945 0.207932,0.06927 1.085867,0.415861 1.9638,0.762422 z m 64.158503,2.841728 v 3.650355 l -1.547939,0.693108 c -2.656907,1.178282 -2.379662,1.501734 -2.379662,-2.818634 v -3.765874 l 1.108968,-0.392752 c 0.600697,-0.184836 1.340009,-0.508287 1.66346,-0.693121 1.132063,-0.646889 1.155173,-0.600683 1.155173,3.326918 z M 20.246905,55.424006 c 1.547936,0.392765 5.013464,1.085857 7.739682,1.524829 l 0.854831,0.138688 v 3.788971 3.788985 l -0.854831,-0.138688 c -1.571041,-0.20793 -7.554855,-1.432418 -8.617618,-1.75587 L 18.329311,62.47058 18.26,58.727814 c -0.02311,-2.056211 0,-3.742779 0.09241,-3.742779 0.06931,0 0.924141,0.207931 1.89449,0.438971 z m 54.75536,3.303808 -0.06927,3.742766 -1.039667,0.300341 c -1.062763,0.323452 -7.046575,1.54794 -8.594514,1.75587 l -0.877928,0.138688 V 60.876494 57.11062 l 1.686555,-0.277247 c 2.033115,-0.346545 6.723124,-1.316899 7.670381,-1.59413 1.339994,-0.41586 1.293788,-0.554491 1.224474,3.48863 z m -38.582888,-0.924146 3.973808,0.277244 v 3.788986 3.788971 l -2.587596,-0.161725 c -1.432423,-0.09241 -3.812084,-0.277246 -5.267608,-0.438971 l -2.656904,-0.254137 -0.06931,-3.78897 -0.06931,-3.788986 1.340005,0.138688 c 0.739312,0.09241 3.14208,0.277246 5.336917,0.438971 z m 27.031125,3.234493 -0.06927,3.765875 -2.656908,0.254137 c -1.45553,0.161725 -3.83519,0.34656 -5.244501,0.438971 l -2.610702,0.161725 v -3.788971 -3.812095 l 2.95725,-0.161726 c 1.617254,-0.115549 3.604149,-0.254135 4.435872,-0.369642 0.831737,-0.09241 1.8945,-0.184834 2.379676,-0.207944 l 0.854832,-0.02314 z m -11.551763,0.831737 0.04628,3.67345 -1.409309,0.161726 c -1.825184,0.184836 -5.960719,0.184836 -7.808999,0 l -1.409314,-0.161726 v -3.62726 c 0,-1.986895 0.04617,-3.67345 0.09241,-3.719654 0.04617,-0.04613 2.425873,-0.06927 5.267602,-0.04613 l 5.152092,0.04613 z m -36.157024,0.646887 1.547937,0.646902 v 3.765876 c 0,2.518292 -0.09241,3.765875 -0.25414,3.765875 -0.138614,0 -1.016553,-0.34656 -1.963798,-0.785517 l -1.709662,-0.808628 v -3.742766 c 0,-3.442439 0.02311,-3.719669 0.415863,-3.60415 0.207932,0.06927 1.085867,0.415862 1.9638,0.762408 z m 64.158503,2.887948 v 3.69656 l -1.709665,0.808628 c -0.947242,0.438957 -1.82517,0.785517 -1.9638,0.785517 -0.161725,0 -0.254136,-1.270692 -0.254136,-3.788985 v -3.788971 l 1.108968,-0.392752 c 0.600697,-0.184835 1.340009,-0.508285 1.66346,-0.69312 1.132063,-0.646902 1.155173,-0.600683 1.155173,3.373123 z M 20.246905,63.972314 c 1.547936,0.392751 5.013464,1.085859 7.739682,1.52483 l 0.854831,0.138688 v 3.788971 c 0,3.81208 0,3.81208 -0.508275,3.81208 -0.854833,-0.02314 -6.145542,-1.062763 -8.201756,-1.61724 l -1.917594,-0.508286 v -3.788985 c 0,-2.079306 0.06931,-3.788971 0.138614,-3.788971 0.06931,0 0.924141,0.207931 1.894491,0.438971 z m 54.801578,3.350001 V 71.1113 l -1.8945,0.508286 c -2.079306,0.554477 -7.370024,1.594145 -8.201747,1.61724 -0.531382,0 -0.531382,0 -0.531382,-3.81208 v -3.788972 l 0.877928,-0.138689 c 2.264156,-0.369655 6.977275,-1.316897 8.016927,-1.594143 0.646902,-0.18482 1.293804,-0.346546 1.45553,-0.346546 0.20793,-0.02314 0.277244,0.877927 0.277244,3.76586 z m -38.51359,-0.993449 3.858292,0.300355 v 3.835177 3.858301 l -1.316906,-0.09241 C 36.558,74.06858 31.72936,73.675815 30.759008,73.537199 l -0.993447,-0.13869 v -3.812081 -3.812081 l 1.45552,0.138689 c 0.785518,0.09241 3.165181,0.277245 5.313812,0.41586 z m 26.961829,3.30381 v 3.765876 l -1.085872,0.161725 c -1.039668,0.115548 -4.71312,0.438971 -8.086244,0.693107 l -1.455514,0.09241 V 70.487506 66.60611 l 4.204833,-0.277246 c 2.333469,-0.161711 4.274161,-0.32345 4.320366,-0.392751 0.04613,-0.04628 0.554491,-0.09241 1.108968,-0.09241 h 0.993463 z m -11.551778,0.877942 v 3.881381 h -5.313807 -5.313813 v -3.881381 -3.8583 h 5.313813 5.313807 z m -36.619092,0.53138 1.848282,0.785519 0.06931,3.257589 c 0.04621,2.356567 -0.02311,3.234494 -0.207932,3.234494 -0.161722,0 -1.039658,-0.369656 -1.963798,-0.808612 l -1.709659,-0.831737 v -3.211385 c 0,-1.778979 0.02311,-3.234493 0.06931,-3.234493 0.02311,0 0.877934,0.369654 1.894491,0.808625 z m 64.574366,2.425868 v 3.211385 l -1.709665,0.831737 c -0.924131,0.438956 -1.802074,0.808612 -1.9638,0.808612 -0.184821,0 -0.254136,-0.877927 -0.20793,-3.234494 l 0.06927,-3.257589 1.73276,-0.762422 c 0.947243,-0.438971 1.802075,-0.785517 1.917595,-0.808628 0.09241,-0.02314 0.161726,1.43242 0.161726,3.211399 z M 21.33277,72.913374 c 1.270694,0.300357 3.488633,0.739313 4.921052,0.947258 l 2.587596,0.415862 v 3.373109 3.37311 L 26.854514,80.699262 C 24.47485,80.329605 21.124838,79.613404 19.43828,79.128228 l -1.224487,-0.369657 v -3.350014 c 0,-3.118974 0.02311,-3.37311 0.415865,-3.211385 0.20793,0.06927 1.432417,0.392752 2.703112,0.716202 z m 53.715713,2.495183 v 3.350014 l -1.316912,0.369657 c -1.802062,0.53138 -4.897939,1.201377 -7.323807,1.571034 l -1.98691,0.323451 v -3.37311 -3.373109 l 2.726223,-0.438971 c 1.47861,-0.23104 3.788971,-0.693108 5.12898,-1.039668 1.339994,-0.369657 2.495182,-0.669997 2.610688,-0.693106 0.09241,0 0.161738,1.478623 0.161738,3.303808 z M 34.732817,74.85408 c 2.033115,0.138688 4.135531,0.300341 4.690018,0.369656 l 0.97035,0.115549 v 3.373125 3.350014 l -2.241047,-0.138688 c -3.21139,-0.23104 -7.000371,-0.577588 -7.739677,-0.739311 l -0.6469,-0.138689 v -3.350014 -3.37311 l 0.6469,0.138688 c 0.346547,0.06927 2.287247,0.23104 4.320356,0.392766 z m 28.763905,2.864839 v 3.326904 l -0.623806,0.138688 c -0.762409,0.161726 -4.551394,0.508273 -7.739684,0.739313 l -2.26414,0.138689 v -3.350018 -3.350013 l 0.716202,-0.138688 c 0.392766,-0.06927 1.363118,-0.138689 2.148635,-0.161726 0.762408,-0.02314 2.656908,-0.161725 4.181738,-0.323451 1.524829,-0.138688 2.957249,-0.300354 3.188289,-0.300354 0.346546,-0.04628 0.392766,0.25415 0.392766,3.280713 z m -11.551778,0.924132 v 3.30381 l -2.656906,0.138688 c -1.455516,0.06927 -3.858287,0.06927 -5.31381,0 l -2.656904,-0.138688 v -3.30381 -3.326904 h 5.313813 5.313807 z m -34.447359,2.818634 c 7.162093,2.333456 16.542129,3.442424 29.133552,3.442424 8.178646,0 12.013836,-0.231025 18.020758,-1.062763 5.706566,-0.785518 11.205202,-2.148636 14.39349,-3.534836 l 0.854833,-0.369656 -0.04613,5.475541 -0.06927,5.498636 -2.102416,1.062763 c -3.58104,1.802075 -9.957618,3.211383 -18.344203,4.066216 -3.095877,0.300356 -6.099332,0.392766 -12.706939,0.392766 -6.607612,0 -9.61107,-0.09241 -12.706942,-0.392766 C 25.537736,95.185177 19.16116,93.775869 15.580115,91.973794 l -2.102422,-1.062763 -0.06931,-5.498636 -0.04621,-5.475541 0.854831,0.369656 c 0.485174,0.207931 1.963799,0.739313 3.280702,1.155175 z"
     id="path76"
     style="stroke-width:0.0231036" />
  <path
     d="m 15.90344,22.778694 c 0,0.462066 1.016556,0.854817 4.32036,1.70965 15.57178,3.950712 40.800834,3.62726 55.332957,-0.716202 1.432419,-0.415862 2.102431,-0.924148 1.732759,-1.293803 -0.09241,-0.06927 -1.270693,0.184834 -2.633796,0.600695 -14.647644,4.251053 -40.985667,4.297259 -55.587096,0.115549 -3.14208,-0.901037 -3.165184,-0.901037 -3.165184,-0.415861 z"
     id="path78"
     style="stroke-width:0.0231036" />
</svg>
