<?xml version="1.0" encoding="UTF-8" standalone="no"?>
<!-- Created with Inkscape (http://www.inkscape.org/) -->

<svg
   width="100mm"
   height="100mm"
   viewBox="0 0 100 100"
   version="1.1"
   id="svg26768"
   sodipodi:docname="a deployer.svg"
   inkscape:version="1.1.1 (3bf5ae0d25, 2021-09-20)"
   xmlns:inkscape="http://www.inkscape.org/namespaces/inkscape"
   xmlns:sodipodi="http://sodipodi.sourceforge.net/DTD/sodipodi-0.dtd"
   xmlns="http://www.w3.org/2000/svg"
   xmlns:svg="http://www.w3.org/2000/svg">
  <sodipodi:namedview
     id="namedview26770"
     pagecolor="#ffffff"
     bordercolor="#666666"
     borderopacity="1.0"
     inkscape:pageshadow="2"
     inkscape:pageopacity="0.0"
     inkscape:pagecheckerboard="0"
     inkscape:document-units="mm"
     showgrid="false"
     width="209mm"
     inkscape:zoom="0.7500982"
     inkscape:cx="13.998167"
     inkscape:cy="135.31562"
     inkscape:window-width="1920"
     inkscape:window-height="1027"
     inkscape:window-x="1912"
     inkscape:window-y="-8"
     inkscape:window-maximized="1"
     inkscape:current-layer="layer1" />
  <defs
     id="defs26765" />
  <g
     inkscape:label="Layer 1"
     inkscape:groupmode="layer"
     id="layer1">
    <path
       d="m 68.723502,2.206764 c -1.858605,0.8469591 -1.835077,0.6352197 -1.882132,12.35148 l -0.02353,10.328199 -5.858132,5.858128 -5.834605,5.83461 H 28.728221 2.3078104 v 1.646857 1.646869 H 29.528126 56.74844 l 6.422772,-6.587466 6.446297,-6.563921 9.928239,-0.07062 c 11.033994,-0.07062 10.704619,-0.02359 11.716265,-1.670401 0.423479,-0.729326 0.447007,-1.176332 0.399952,-11.033978 L 91.591387,3.6889 91.003219,3.0536805 c -1.17633,-1.270438 -1.317492,-1.2939649 -11.692737,-1.2939649 -8.916594,0 -9.669445,0.047062 -10.586984,0.4470057 z m 19.691791,12.022114 v 9.175384 H 79.357542 70.299786 V 14.228878 5.053487 h 9.057756 9.057751 z"
       id="path7997"
       style="stroke-width:0.0235266" />
    <path
       d="m 75.475647,38.625995 c -0.447008,0.23527 -1.0587,0.776373 -1.341019,1.223379 -0.517586,0.752858 -0.541113,1.035174 -0.541113,4.634749 v 3.858375 H 37.950665 2.3078146 v 1.646855 1.646871 h 35.6428504 35.64285 v 4.634747 c 0,4.211258 0.04705,4.728845 0.470532,5.411121 0.894012,1.505711 0.799906,1.482179 12.092689,1.482179 h 10.234086 l 0.84696,-0.729324 c 0.494059,-0.423476 0.917539,-1.082221 1.058696,-1.64687 0.164693,-0.588165 0.235271,-4.305368 0.188219,-10.539924 -0.0706,-9.316556 -0.09417,-9.645921 -0.564647,-10.281136 C 97.661263,39.614107 97.143678,39.09652 96.790776,38.837734 96.155561,38.367196 95.826185,38.343678 86.227316,38.2731 77.12251,38.22606 76.228497,38.24951 75.475647,38.625995 Z m 19.527104,12.069167 v 9.175382 h -9.057754 -9.057753 v -9.175382 -9.175399 h 9.057753 9.057754 z"
       id="path8035"
       style="stroke-width:0.0235266" />
    <path
       d="m 2.3078146,61.517401 v 1.64687 H 22.728932 43.126526 l 6.069872,6.069867 6.046342,6.046347 0.07058,10.234089 0.04705,10.234089 0.56464,0.799904 c 1.011643,1.4116 1.129278,1.435118 11.833895,1.435118 10.822251,0 10.798723,0 11.880949,-1.623338 l 0.541115,-0.799904 v -9.90471 c 0,-10.916351 0,-10.916351 -1.48218,-11.998586 -0.658746,-0.470524 -0.988117,-0.494055 -10.845778,-0.564636 L 57.689508,73.02189 51.125576,66.457957 44.538119,59.870504 H 23.434725 2.3078093 Z M 76.887244,85.396947 v 9.057743 h -9.175387 -9.175388 v -8.893068 c 0,-4.893533 0.07058,-8.987163 0.164687,-9.057743 0.07058,-0.09407 4.211267,-0.16469 9.175386,-0.16469 h 9.010702 z"
       id="path8047"
       style="stroke-width:0.0235266" />
  </g>
</svg>
