<?xml version="1.0" encoding="UTF-8" standalone="no"?>
<!-- Created with Inkscape (http://www.inkscape.org/) -->

<svg
   width="100mm"
   height="100mm"
   viewBox="0 0 100 100"
   version="1.1"
   id="svg26768"
   sodipodi:docname="a deployment server.svg"
   inkscape:version="1.1.1 (3bf5ae0d25, 2021-09-20)"
   xmlns:inkscape="http://www.inkscape.org/namespaces/inkscape"
   xmlns:sodipodi="http://sodipodi.sourceforge.net/DTD/sodipodi-0.dtd"
   xmlns="http://www.w3.org/2000/svg"
   xmlns:svg="http://www.w3.org/2000/svg">
  <sodipodi:namedview
     id="namedview26770"
     pagecolor="#ffffff"
     bordercolor="#666666"
     borderopacity="1.0"
     inkscape:pageshadow="2"
     inkscape:pageopacity="0.0"
     inkscape:pagecheckerboard="0"
     inkscape:document-units="mm"
     showgrid="false"
     width="209mm"
     inkscape:zoom="0.7500982"
     inkscape:cx="13.998167"
     inkscape:cy="135.31562"
     inkscape:window-width="1920"
     inkscape:window-height="1027"
     inkscape:window-x="1912"
     inkscape:window-y="-8"
     inkscape:window-maximized="1"
     inkscape:current-layer="layer1" />
  <defs
     id="defs26765" />
  <g
     inkscape:label="Layer 1"
     inkscape:groupmode="layer"
     id="layer1">
    <path
       d="M 19.444498,2.1602367 C 17.589896,2.6018093 15.669057,4.1473116 14.697599,6.0019135 L 14.101477,7.1058434 V 50.159117 93.212388 l 0.529887,1.103935 c 0.706515,1.390954 2.053309,2.73774 3.44426,3.444259 l 1.103931,0.529883 h 32.013971 32.013975 l 0.949376,-0.507799 c 1.479266,-0.794831 2.848142,-2.163714 3.510499,-3.554655 l 0.618201,-1.236403 V 50.26951 7.5474158 L 87.556981,6.0681487 C 86.740073,4.3901752 85.746536,3.4187169 83.98025,2.6018093 L 82.765924,2.0277653 51.524706,1.983609 c -17.817432,0 -31.594477,0.066239 -32.080208,0.1766277 z m 62.504523,2.6494318 c 1.302632,0.2649442 2.671509,1.3467957 3.267633,2.5611176 0.397414,0.8169088 0.419489,2.0091527 0.485728,32.0802089 0.04412,21.040908 -0.02209,31.726952 -0.176628,32.742567 -0.287027,1.920838 -0.794829,2.892298 -2.141625,4.150776 -2.141623,2.009154 0.640279,1.854603 -32.411388,1.854603 H 21.828987 l -1.258479,-0.618202 c -1.545503,-0.772749 -2.892298,-2.229938 -3.48842,-3.841675 -0.44157,-1.192245 -0.44157,-1.435111 -0.397415,-33.625711 l 0.06624,-32.4113878 0.662359,-0.949379 C 18.119786,5.7369708 19.113322,5.0525334 20.239331,4.7875905 21.387418,4.5005686 80.69054,4.5226478 81.949023,4.8096692 Z M 18.980848,77.691134 c 0.485729,0.331178 1.258482,0.77275 1.74421,0.993538 0.838985,0.375335 2.472802,0.397413 30.358075,0.397413 H 80.55807 l 1.479265,-0.728593 c 1.015612,-0.48573 1.832521,-1.126009 2.605272,-1.987074 l 1.126009,-1.25848 -0.06623,8.610654 -0.06624,8.610653 -0.618196,1.037696 c -0.640284,1.126004 -1.390951,1.722128 -2.561124,2.119544 -0.551962,0.198707 -8.831437,0.264946 -31.417846,0.264946 -33.581554,0 -31.484088,0.08835 -32.941274,-1.280556 C 16.662597,93.124076 16.64052,92.991608 16.64052,83.630278 v -8.478185 l 0.750673,0.971459 c 0.397413,0.551966 1.126009,1.258483 1.589658,1.567582 z"
       id="path65"
       style="stroke-width:0.0220785" />
    <path
       d="m 62.188671,13.376166 c -1.302638,0.816908 -1.390952,1.236403 -1.390952,6.579425 v 4.813133 l -3.819599,3.8196 -3.797519,3.797518 H 39.16069 25.162855 l 1.302637,1.324716 1.30264,1.324718 h 13.379631 13.357555 l 4.194933,-4.194935 4.194936,-4.194933 h 5.033921 5.055999 l 0.750673,-0.750673 0.750672,-0.750674 v -5.210549 -5.21055 l -0.750672,-0.838988 -0.750673,-0.816907 -5.055999,-0.06623 c -4.702742,-0.04415 -5.07808,-0.02208 -5.740437,0.375336 z m 9.648348,6.424876 v 4.194932 h -4.194934 -4.194934 v -4.040383 c 0,-2.22994 0.06623,-4.128699 0.15455,-4.194935 0.06623,-0.08832 1.964997,-0.154551 4.194934,-0.154551 h 4.040384 z"
       id="path67"
       style="stroke-width:0.0220785" />
    <path
       d="m 62.188671,35.45477 c -1.037695,0.662358 -1.390952,1.501344 -1.390952,3.44426 v 1.655896 H 42.869894 24.94207 l 1.302637,1.324715 1.302638,1.324717 h 16.625187 16.625187 v 1.677973 c 0,1.942916 0.375338,2.914376 1.302637,3.466342 0.551966,0.331179 1.324716,0.375336 5.762514,0.375336 h 5.122237 l 0.750673,-0.750672 0.750672,-0.750674 v -5.21055 -5.210549 l -0.750672,-0.838988 -0.750673,-0.816909 -5.055999,-0.06624 c -4.702742,-0.04416 -5.07808,-0.02208 -5.740437,0.375338 z m 9.648348,6.424871 v 4.194935 h -4.194934 -4.194934 v -4.040385 c 0,-2.229937 0.06623,-4.128698 0.15455,-4.194933 0.06623,-0.08832 1.964997,-0.154551 4.194934,-0.154551 h 4.040384 z"
       id="path69"
       style="stroke-width:0.0220785" />
    <path
       d="m 26.465492,50.26951 1.30264,1.324716 h 10.067841 10.045764 l 3.709205,3.709206 3.687125,3.687125 v 4.835215 c 0,7.263861 -0.287019,6.976836 7.065155,6.976836 h 5.122236 l 0.750672,-0.750671 0.750671,-0.750672 v -5.122237 c 0,-7.352172 0.287023,-7.065152 -6.998915,-7.065152 h -4.813137 l -4.084541,-4.08454 -4.084542,-4.084542 H 37.063221 25.162855 Z m 39.851876,13.688734 v 4.194934 h -4.194933 -4.194934 v -4.040383 c 0,-2.229941 0.06623,-4.128701 0.154549,-4.194936 0.06623,-0.08832 1.964998,-0.15455 4.194935,-0.15455 h 4.040383 z"
       id="path71"
       style="stroke-width:0.0220785" />
    <path
       d="m 23.551119,85.153699 c -0.81691,0.48573 -1.390954,1.479263 -1.390954,2.362416 0,0.772749 0.684439,1.942911 1.346795,2.29617 l 0.48573,0.264947 -0.46365,-0.618206 c -0.618202,-0.794831 -0.618202,-1.479267 0.04415,-2.229942 0.397416,-0.463642 0.706516,-0.618195 1.346796,-0.618195 0.640279,0 0.949379,0.154553 1.346795,0.618195 0.662358,0.750675 0.662358,1.435111 0.04415,2.229942 l -0.463653,0.618206 0.48573,-0.264947 c 0.662357,-0.375332 1.346795,-1.545506 1.346795,-2.340337 0,-1.390941 -1.390953,-2.759818 -2.803984,-2.759818 -0.331178,0 -0.927301,0.198707 -1.324716,0.441569 z"
       id="path73"
       style="stroke-width:0.0220785" />
  </g>
</svg>
