<?xml version="1.0" encoding="UTF-8" standalone="no"?>
<!-- Created with Inkscape (http://www.inkscape.org/) -->

<svg
   width="100mm"
   height="100mm"
   viewBox="0 0 100 100"
   version="1.1"
   id="svg26768"
   xmlns="http://www.w3.org/2000/svg"
   xmlns:svg="http://www.w3.org/2000/svg">
  <defs
     id="defs26765" />
  <g
     id="layer1">
    <path
       d="m 36.154681,12.198224 c -2.043455,0.301874 -3.924364,1.788024 -4.829986,3.808259 -0.534086,1.161055 -0.580527,3.529604 -0.09288,4.690659 L 31.60335,21.556323 20.759102,32.40057 9.9380784,43.221595 9.1021176,42.919721 c -3.9708062,-1.416486 -8.40603319,1.904129 -8.40603319,6.292914 0,2.55432 2.02023399,5.294408 4.41200709,6.014262 1.4861493,0.4412 2.1363389,0.464422 3.7153733,0.09288 l 1.1842752,-0.27865 10.751362,10.751364 10.751363,10.751361 -0.348317,1.253939 c -1.137833,4.086911 2.9723,8.382813 7.314643,7.639738 1.27716,-0.20899 3.065184,-1.253939 3.8547,-2.252445 0.371538,-0.464422 0.882401,-1.416487 1.114612,-2.089898 l 0.417981,-1.230718 7.08243,-0.06966 c 6.292915,-0.04644 7.105652,-0.02322 7.105652,0.301874 0,1.091389 1.509372,2.972298 2.995521,3.715373 1.277159,0.650191 3.668931,0.41798 4.946091,-0.464422 1.834466,-1.30038 2.763309,-4.110133 2.043456,-6.060704 -0.255432,-0.626968 0,-0.905622 11.30867,-12.21429 8.173821,-8.197044 11.656983,-11.51766 11.912416,-11.424775 0.185767,0.09289 0.859179,0.301874 1.462928,0.464421 4.017247,1.091392 7.732622,-3.250951 5.991041,-6.989547 -0.534086,-1.137832 -1.71836,-2.298887 -2.856194,-2.763307 -1.137833,-0.487644 -3.204509,-0.464422 -4.249459,0.02322 L 90.770679,44.777406 79.090472,33.097199 67.387045,21.393772 67.735362,20.581035 c 0.232212,-0.557307 0.325096,-1.370045 0.255433,-2.414995 -0.116111,-2.020234 -0.905621,-3.227731 -2.740088,-4.203016 -1.06817,-0.557306 -1.486149,-0.650191 -2.600762,-0.580527 -1.997014,0.139326 -3.367057,1.091391 -4.249459,2.925858 l -0.696632,1.416486 -7.012769,0.02322 h -7.012767 l -0.255432,-0.905626 c -0.83596,-3.158067 -3.947584,-5.131859 -7.2682,-4.644218 z m 22.036811,8.452476 0.325094,0.928844 -3.947584,3.947583 -3.947584,3.947585 -3.83148,-3.831479 -3.831479,-3.831478 0.371537,-1.114613 0.371537,-1.09139 7.082432,0.04643 7.082432,0.06966 z m 2.740087,2.55432 c 1.462928,0.743075 2.693647,0.743075 4.295901,-0.02322 l 1.277159,-0.580527 11.680207,11.680206 c 10.240499,10.240499 11.633765,11.703427 11.331891,12.028522 -0.162548,0.18577 -0.417981,0.62697 -0.557308,0.998508 l -0.255431,0.626969 h -7.384304 -7.384307 l -0.534085,-1.253936 c -0.696633,-1.69514 -2.345329,-3.227731 -3.994027,-3.715373 -1.486148,-0.4412 -2.066676,-0.464422 -3.576046,-0.04645 l -1.161055,0.325095 -6.432241,-6.432241 -6.455461,-6.40902 3.87792,-3.877921 c 2.13634,-2.159561 3.947585,-3.901144 4.017249,-3.901144 0.06966,0 0.626969,0.255434 1.253938,0.580528 z m -25.984395,1.370043 c 1.161055,0.534086 3.785038,0.441201 5.062197,-0.18577 l 0.905622,-0.441198 3.808258,3.808258 3.808258,3.808257 -6.594788,6.594788 -6.571567,6.571568 -0.719853,-0.371538 c -0.952065,-0.487641 -3.111626,-0.487641 -4.156576,0.02322 -1.09139,0.510864 -2.322107,1.788024 -2.623981,2.76331 l -0.278655,0.789517 H 20.52689 c -5.271187,0 -7.059211,-0.06966 -7.059211,-0.278652 0,-0.139328 -0.232211,-0.743076 -0.487642,-1.300382 L 12.469173,45.334716 23.127652,34.676238 c 5.851713,-5.851713 10.70492,-10.635257 10.774584,-10.588815 0.06966,0.04643 0.534085,0.255432 1.044948,0.487644 z m 26.797134,21.897484 c -0.62697,1.27716 -0.650191,3.483164 -0.02322,5.085419 l 0.441199,1.207496 -6.292914,6.292914 -6.292916,6.292914 -6.432238,-6.455461 -6.455463,-6.432242 0.580528,-1.137832 c 0.766295,-1.509371 0.766295,-2.949078 0,-4.458448 l -0.580528,-1.137834 6.455463,-6.455462 6.432238,-6.432242 6.316137,6.316137 6.339357,6.339356 z m -34.134997,3.924364 c 0.789517,2.856193 3.692153,4.388785 6.525125,3.459942 l 1.230718,-0.394759 6.525125,6.525125 6.525125,6.525125 -3.62249,3.622491 -3.645709,3.64571 -1.068172,-0.534085 c -1.973791,-0.952064 -3.970804,-0.859181 -6.664451,0.325095 -0.278653,0.116116 -2.99552,-2.507878 -10.612035,-10.286942 L 12.538837,52.858345 13.0497,51.209649 13.583784,49.560952 h 6.896663 6.896663 z M 88.866545,50.6059 c 0.18577,0.510864 0.348317,1.091392 0.371538,1.300382 0.02322,0.185768 -5.038975,5.526617 -11.285448,11.819533 C 67.921127,73.919871 66.597524,75.173809 66.225987,74.918379 64.577289,73.71088 62.371286,73.571555 60.536821,74.523619 l -1.184274,0.603748 -3.715375,-3.715373 -3.738594,-3.738595 6.385797,-6.385798 c 4.528112,-4.528113 6.478683,-6.339357 6.734115,-6.246474 0.859182,0.394759 3.459942,0.371538 4.66744,-0.02322 1.788023,-0.603746 3.320614,-2.206003 3.8547,-4.040467 l 0.417978,-1.416487 7.268201,0.04645 7.29142,0.06966 z m -30.675053,26.727472 -0.255433,0.789516 h -7.08243 -7.082433 l -0.278652,-0.882401 -0.278653,-0.859181 3.761816,-3.785037 3.761816,-3.761817 3.8547,3.8547 3.8547,3.831481 z"
       id="path20194"
       style="stroke-width:0.0232211" />
  </g>
</svg>
