<?xml version="1.0" encoding="UTF-8" standalone="no"?>
<!-- Created with Inkscape (http://www.inkscape.org/) -->

<svg
   width="100mm"
   height="100mm"
   viewBox="0 0 100 100"
   version="1.1"
   id="svg26768"
   xmlns="http://www.w3.org/2000/svg"
   xmlns:svg="http://www.w3.org/2000/svg">
  <defs
     id="defs26765" />
  <path
     d="m 3.311943,26.544149 c -0.4226255,0.222432 -0.9787095,0.73402 -1.2233864,1.15665 -0.4448685,0.734033 -0.4448685,1.134414 -0.4448685,33.987897 0,18.284074 0.066728,33.520788 0.1779475,33.854441 0.2446766,0.934218 1.4013336,2.113114 2.4467726,2.513495 0.8452483,0.311419 4.6933548,0.333654 39.4375348,0.289171 l 38.481063,-0.0667 0.911973,-0.600576 c 0.533836,-0.355888 1.089933,-0.9787 1.379091,-1.557031 0.444863,-0.956465 0.46711,-1.267884 0.46711,-10.476635 V 76.14692 h -1.334598 -1.334599 v 9.186518 c 0,7.940894 -0.04447,9.25326 -0.355902,9.675887 L 81.586429,95.49868 H 43.37229 C 6.626207,95.49868 5.1359009,95.476443 4.8022491,95.0983 4.4463557,94.720153 4.4241125,92.584793 4.4241125,69.095765 c 0,-24.48996 0.022247,-25.602128 0.4003811,-25.935781 0.3781366,-0.355901 3.3809949,-0.378135 38.4810674,-0.378135 37.791512,0 38.080685,0 38.525546,0.444863 0.289159,0.289158 0.444876,0.734034 0.444876,1.334599 v 0.889738 h 1.334599 1.334598 v -5.338411 c 0,-6.116939 -0.11117,-6.606282 -1.823954,-7.718463 l -0.93422,-0.622812 -29.138843,-0.111169 -29.161089,-0.11117 -0.111209,-1.712747 c -0.133462,-1.935164 -0.533843,-2.713693 -1.801715,-3.336505 -0.68955,-0.355886 -1.601525,-0.40038 -9.319983,-0.40038 -7.9186459,0.02224 -8.6304342,0.04446 -9.3422227,0.444874 z m 17.483302,2.402287 c 0.155707,0.08893 0.289164,0.934218 0.355897,1.890683 0.06673,1.73498 0.08897,1.757227 1.000953,2.624718 l 0.934217,0.86749 h 29.049867 29.049869 l 0.533837,0.556084 c 0.511603,0.511603 0.556098,0.689553 0.556098,2.891643 v 2.335558 H 43.350042 4.4241125 v -5.51636 c 0,-3.047346 0.066728,-5.605335 0.155703,-5.672063 0.2001905,-0.200197 15.9040205,-0.200197 16.2154295,0.02224 z"
     id="path618"
     style="stroke-width:0.0222434" />
  <path
     d="m 44.795864,52.568907 1.312366,1.334612 h 26.425138 26.42515 v -1.334612 -1.3346 H 71.221015 43.483499 Z"
     id="path682"
     style="stroke-width:0.0222434" />
  <path
     d="m 44.573433,60.798959 1.312352,1.334613 h 26.536372 26.536361 v -1.334613 -1.3346 H 71.109792 43.261068 Z"
     id="path720"
     style="stroke-width:0.0222434" />
  <path
     d="m 44.795864,69.251455 1.312366,1.334599 h 26.425138 26.42515 V 69.251455 67.916844 H 71.221015 43.483499 Z"
     id="path742"
     style="stroke-width:0.0222434" />
</svg>
