<?xml version="1.0" encoding="UTF-8" standalone="no"?>
<!-- Created with Inkscape (http://www.inkscape.org/) -->

<svg
   width="100mm"
   height="100mm"
   viewBox="0 0 100 100"
   version="1.1"
   id="svg26768"
   xmlns="http://www.w3.org/2000/svg"
   xmlns:svg="http://www.w3.org/2000/svg">
  <defs
     id="defs26765" />
  <path
     d="m 8.7811555,20.153245 c -1.298932,0.649472 -1.79163,1.634878 -1.79163,3.538487 V 25.349 h -1.500502 c -1.8140386,0 -2.8666277,0.44791 -3.583282,1.545289 l -0.5150956,0.761447 v 33.59324 33.615635 l 0.4703109,0.985403 c 0.291139,0.582282 0.8510195,1.209357 1.3885129,1.567685 l 0.9182238,0.604678 38.8337805,0.06718 c 37.669219,0.04479 38.85618,0.04479 39.774396,-0.380723 1.567685,-0.671865 2.597878,-2.463504 2.597878,-4.456702 0,-0.716657 0.0224,-0.716657 1.074984,-0.716657 2.060384,-0.0224 3.740046,-1.276543 4.277539,-3.247347 0.156768,-0.559887 0.24635,-3.336928 0.24635,-7.233744 v -6.315529 h -1.455707 -1.455708 v 6.561879 c 0,7.457699 0.0224,7.323327 -1.746847,7.323327 H 85.373748 V 82.681458 75.738855 H 83.91804 82.462333 v 9.361316 c 0,8.801428 -0.0224,9.406107 -0.403119,9.742039 -0.380723,0.358331 -3.404115,0.380727 -38.85618,0.380727 H 4.7723695 l -0.335935,-0.492702 c -0.313537,-0.447909 -0.358321,-3.292137 -0.358321,-26.090749 0,-25.306908 0,-25.598049 0.447902,-26.045959 0.447913,-0.44791 0.739051,-0.44791 38.8113915,-0.44791 36.907772,0 38.40827,0.0224 38.744202,0.40312 0.223957,0.24635 0.380724,0.806238 0.380724,1.343729 v 0.940611 h 1.478103 1.478101 l -0.08958,-5.442106 c -0.06718,-5.822827 -0.134373,-6.136364 -1.34373,-7.256139 -1.321334,-1.254148 0.291143,-1.186961 -31.152131,-1.186961 H 23.853329 L 23.74135,29.312999 C 23.606978,27.342196 23.114276,26.379191 21.949711,25.774512 21.188264,25.393788 20.583587,25.348997 15.387829,25.348997 H 9.6769822 v -1.343728 c 0,-1.209352 0.04484,-1.343728 0.5150958,-1.455706 0.268741,-0.06715 4.031184,-0.08957 8.33112,-0.06715 l 7.838426,0.06715 0.111982,1.70206 c 0.134373,1.903612 0.515096,2.665059 1.634871,3.336924 0.694262,0.425514 1.366126,0.447908 29.674028,0.447908 29.22612,0 29.606843,0 30.099544,0.761448 0.08958,0.134373 0.179163,3.807234 0.179163,8.129564 v 7.90561 h 1.478104 1.455707 l -0.06718,-8.241542 C 90.860652,27.700524 90.860652,27.722918 89.584105,26.535958 88.262771,25.28181 89.875247,25.348997 58.431974,25.348997 H 29.452206 L 29.340228,23.71413 c -0.134373,-1.970802 -0.627074,-2.933811 -1.791639,-3.538487 -0.783843,-0.403117 -1.410916,-0.425515 -9.4061,-0.425515 -7.726445,0 -8.6446568,0.04473 -9.3613215,0.403117 z m 12.0935715,9.697249 c 0.134372,1.903618 0.515096,2.665064 1.63487,3.336929 0.694261,0.425515 1.366126,0.44791 29.67403,0.44791 29.226117,0 29.606841,0 30.099542,0.761448 0.08958,0.134373 0.179164,1.321333 0.179164,2.642667 v 2.418713 H 43.27022 4.0781135 v -5.576477 c 0,-4.255144 0.06715,-5.62127 0.291139,-5.688456 0.134376,-0.06718 3.896807,-0.111978 8.3311195,-0.08958 l 8.062377,0.04479 z"
     id="path616"
     style="stroke-width:0.0223955" />
  <path
     d="m 44.725927,51.999638 1.321334,1.34373 h 26.605846 26.605845 v -1.34373 -1.34373 H 71.331773 43.404593 Z"
     id="path684"
     style="stroke-width:0.0223955" />
  <path
     d="m 44.725927,60.28597 1.321334,1.34373 H 72.653107 99.258952 V 60.28597 58.942241 H 71.331773 43.404593 Z"
     id="path722"
     style="stroke-width:0.0223955" />
  <path
     d="m 44.725927,68.796257 1.321334,1.34373 h 26.605846 26.605845 v -1.34373 -1.343729 H 71.331773 43.404593 Z"
     id="path744"
     style="stroke-width:0.0223955" />
</svg>
