<?xml version="1.0" encoding="UTF-8" standalone="no"?>
<!-- Created with Inkscape (http://www.inkscape.org/) -->

<svg
   width="100mm"
   height="100mm"
   viewBox="0 0 100 100"
   version="1.1"
   id="svg26768"
   sodipodi:docname="a directory.svg"
   inkscape:version="1.1.1 (3bf5ae0d25, 2021-09-20)"
   xmlns:inkscape="http://www.inkscape.org/namespaces/inkscape"
   xmlns:sodipodi="http://sodipodi.sourceforge.net/DTD/sodipodi-0.dtd"
   xmlns="http://www.w3.org/2000/svg"
   xmlns:svg="http://www.w3.org/2000/svg">
  <sodipodi:namedview
     id="namedview26770"
     pagecolor="#ffffff"
     bordercolor="#666666"
     borderopacity="1.0"
     inkscape:pageshadow="2"
     inkscape:pageopacity="0.0"
     inkscape:pagecheckerboard="0"
     inkscape:document-units="mm"
     showgrid="false"
     width="209mm"
     inkscape:zoom="0.7500982"
     inkscape:cx="13.998167"
     inkscape:cy="135.31562"
     inkscape:window-width="1920"
     inkscape:window-height="1027"
     inkscape:window-x="1912"
     inkscape:window-y="-8"
     inkscape:window-maximized="1"
     inkscape:current-layer="layer1" />
  <defs
     id="defs26765" />
  <g
     inkscape:label="Layer 1"
     inkscape:groupmode="layer"
     id="layer1">
    <path
       d="m 2.2977444,15.346563 c -0.495853,0.443659 -1.043901,1.226584 -1.174388,1.748535 -0.20877996,0.678534 -0.26097596,13.074853 -0.20877996,39.877 l 0.0783,38.885301 0.73073096,1.0961 c 0.391464,0.600238 1.174388,1.330972 1.748535,1.618036 1.017802,0.52196 1.278777,0.52196 46.6623536,0.469755 l 45.644559,-0.07826 0.9656,-0.756831 c 0.54804,-0.41755 1.22659,-1.226573 1.48756,-1.826821 0.46976,-1.017811 0.49585,-2.45317 0.49585,-36.301642 0,-33.848479 -0.0261,-35.28384 -0.49585,-36.301644 -0.26098,-0.600237 -0.93952,-1.40926 -1.48757,-1.826819 l -0.9656,-0.756822 -34.344336,-0.130487 c -18.894598,-0.07829 -34.370427,-0.156586 -34.39652,-0.20878 -0.05222,-0.02609 -0.07831,-0.809023 -0.07831,-1.748533 0,-1.957314 -0.39146,-2.870728 -1.565847,-3.888532 L 24.558921,14.537585 H 13.911137 3.2372554 Z m 21.3738616,2.896825 c 0.07831,0.339268 0.182689,1.330974 0.234879,2.218288 0.05222,1.278779 0.208777,1.774631 0.730733,2.322679 1.357065,1.487559 -0.495855,1.409265 36.06676,1.409265 h 33.770187 l 0.49585,0.548049 c 0.41757,0.443658 0.52195,1.043899 0.57414,3.340482 l 0.10436,2.766337 H 49.951807 4.2550584 v -6.602672 -6.576573 h 9.6560786 9.65608 z m 71.324509,16.206555 c 0.44366,0.443658 0.46976,2.009509 0.46976,30.429704 0,29.124821 -0.0261,30.012136 -0.49586,30.534094 l -0.49585,0.548044 H 49.795219 c -42.9826036,0 -44.7050406,-0.02611 -45.0965036,-0.469754 -0.41756,-0.443657 -0.443657,-2.87073 -0.391462,-30.742871 l 0.0783,-30.220924 0.652437,-0.339267 c 0.521951,-0.260975 9.6038856,-0.31317 45.0704056,-0.260975 42.251879,0.05218 44.444069,0.0783 44.887729,0.521949 z"
       id="path127"
       style="stroke-width:0.0260974" />
  </g>
</svg>
