<?xml version="1.0" encoding="UTF-8" standalone="no"?>
<!-- Created with Inkscape (http://www.inkscape.org/) -->

<svg
   width="100mm"
   height="100mm"
   viewBox="0 0 100 100"
   version="1.1"
   id="svg26768"
   sodipodi:docname="a directories.svg"
   inkscape:version="1.1.1 (3bf5ae0d25, 2021-09-20)"
   xmlns:inkscape="http://www.inkscape.org/namespaces/inkscape"
   xmlns:sodipodi="http://sodipodi.sourceforge.net/DTD/sodipodi-0.dtd"
   xmlns="http://www.w3.org/2000/svg"
   xmlns:svg="http://www.w3.org/2000/svg">
  <sodipodi:namedview
     id="namedview26770"
     pagecolor="#ffffff"
     bordercolor="#666666"
     borderopacity="1.0"
     inkscape:pageshadow="2"
     inkscape:pageopacity="0.0"
     inkscape:pagecheckerboard="0"
     inkscape:document-units="mm"
     showgrid="false"
     width="209mm"
     inkscape:zoom="0.7500982"
     inkscape:cx="13.998167"
     inkscape:cy="135.31562"
     inkscape:window-width="1920"
     inkscape:window-height="1027"
     inkscape:window-x="1912"
     inkscape:window-y="-8"
     inkscape:window-maximized="1"
     inkscape:current-layer="layer1" />
  <defs
     id="defs26765" />
  <g
     inkscape:label="Layer 1"
     inkscape:groupmode="layer"
     id="layer1">
    <path
       d="m 9.1999596,15.167028 c -1.0977325,0.596594 -1.5272797,1.503416 -1.6465994,3.579563 l -0.1193178,1.9091 -1.9091007,0.119319 c -2.1716004,0.143182 -2.7443297,0.38182 -3.436379,1.52728 l -0.5011392,0.787503 v 35.843351 c 0,29.901276 0.047731,35.962664 0.3340926,36.606984 0.3818203,0.930691 1.4556885,1.956829 2.3625117,2.290922 0.4772749,0.190909 13.4114282,0.262505 42.0956522,0.262505 h 41.427473 l 0.978415,-0.572732 c 1.264777,-0.739776 2.052283,-2.147738 2.219326,-3.985247 l 0.143184,-1.407963 h 1.312501 c 1.694333,0 3.05456,-0.76364 3.865932,-2.195459 l 0.596594,-1.026146 v -32.454694 -32.4547 l -0.596594,-1.02614 C 95.992416,22.350017 95.324237,21.681832 94.751498,21.34774 L 93.773087,20.77501 H 62.893399 c -16.99099,0 -30.999012,-0.09545 -31.142197,-0.19091 -0.143178,-0.09545 -0.310229,-0.930687 -0.381817,-1.885238 -0.143185,-1.932963 -0.525001,-2.720466 -1.694325,-3.412515 -0.715917,-0.453411 -1.264784,-0.477275 -10.309146,-0.477275 -7.779579,0.02386 -9.6648141,0.0716 -10.1659544,0.357956 z m 19.1387274,4.319339 c 0.143185,1.980692 0.692052,3.078424 1.885233,3.698882 0.787507,0.429546 2.052283,0.45341 31.738789,0.45341 27.586499,0 30.975148,0.04772 31.452427,0.38182 l 0.525002,0.357956 v 32.072879 32.072877 l -0.525002,0.357952 c -0.28637,0.214773 -0.930691,0.381823 -1.431828,0.381823 H 91.076483 L 91.028793,59.60133 90.957197,29.962553 90.312876,28.888684 C 89.954924,28.244362 89.310603,27.600042 88.737871,27.26595 l -0.954549,-0.525003 h -30.85583 c -16.99099,0 -30.999012,-0.09546 -31.142191,-0.19091 -0.143184,-0.09546 -0.310228,-0.930686 -0.381823,-1.885237 -0.143179,-1.861372 -0.501137,-2.67274 -1.55114,-3.340924 -0.572731,-0.38182 -1.455691,-0.453412 -6.992079,-0.548866 l -6.323929,-0.119319 -0.0716,-1.169324 c -0.04773,-0.644321 -0.02387,-1.312506 0.04773,-1.479553 0.119318,-0.286365 1.598871,-0.334091 8.901182,-0.286365 l 8.781857,0.0716 z m -5.96594,5.965937 c 0.143185,1.980692 0.692051,3.078424 1.88524,3.698881 0.787505,0.429548 2.052282,0.453412 31.738787,0.453412 27.586493,0 30.97515,0.04773 31.452421,0.381819 0.477279,0.334093 0.525001,0.548867 0.525001,3.030696 v 2.67274 H 46.212636 4.4510732 v -5.870481 c 0,-3.221607 0.071596,-5.942074 0.1670464,-6.013666 0.095461,-0.09545 4.0807017,-0.143183 8.8773154,-0.119319 l 8.734134,0.0716 z m 65.100313,13.554609 0.501136,0.453413 v 27.514901 27.514898 l -0.525001,0.357959 c -0.477271,0.334093 -4.796611,0.381816 -41.284288,0.381816 -40.4490555,0 -40.759284,0 -41.2365579,-0.47727 -0.4772759,-0.477279 -0.4772759,-0.787507 -0.4772759,-27.705808 0,-18.804637 0.071596,-27.347859 0.2625018,-27.681952 0.1431821,-0.262502 0.4772749,-0.572729 0.7636401,-0.692049 0.3102285,-0.119319 17.9693999,-0.19091 40.9979199,-0.167046 39.446778,0.04773 40.496789,0.04773 40.997925,0.501138 z"
       id="path121"
       style="stroke-width:0.0238637" />
  </g>
</svg>
