<?xml version="1.0" encoding="UTF-8" standalone="no"?>
<!-- Created with Inkscape (http://www.inkscape.org/) -->

<svg
   width="100mm"
   height="100mm"
   viewBox="0 0 100 100"
   version="1.1"
   id="svg26768"
   sodipodi:docname="a distributed management console.svg"
   inkscape:version="1.1.1 (3bf5ae0d25, 2021-09-20)"
   xmlns:inkscape="http://www.inkscape.org/namespaces/inkscape"
   xmlns:sodipodi="http://sodipodi.sourceforge.net/DTD/sodipodi-0.dtd"
   xmlns="http://www.w3.org/2000/svg"
   xmlns:svg="http://www.w3.org/2000/svg">
  <sodipodi:namedview
     id="namedview26770"
     pagecolor="#ffffff"
     bordercolor="#666666"
     borderopacity="1.0"
     inkscape:pageshadow="2"
     inkscape:pageopacity="0.0"
     inkscape:pagecheckerboard="0"
     inkscape:document-units="mm"
     showgrid="false"
     width="209mm"
     inkscape:zoom="0.7500982"
     inkscape:cx="13.998167"
     inkscape:cy="135.31562"
     inkscape:window-width="1920"
     inkscape:window-height="1009"
     inkscape:window-x="1912"
     inkscape:window-y="-8"
     inkscape:window-maximized="1"
     inkscape:current-layer="layer1" />
  <defs
     id="defs26765" />
  <g
     inkscape:label="Layer 1"
     inkscape:groupmode="layer"
     id="layer1">
    <path
       d="m 84.261494,25.067837 c -1.21167,1.020351 -1.296694,1.381726 -1.296694,5.548156 v 3.783803 l -3.358661,3.358651 -3.337398,3.337398 H 63.259271 50.271062 l -0.08499,-4.230204 C 50.122322,32.231549 50.07982,32.061491 48.655547,31.019883 48.08159,30.57348 47.954056,30.57348 26.10154,30.57348 c -21.8950167,0 -21.9800525,0 -22.5752577,0.446403 -1.4029839,1.020352 -1.3392085,0.340116 -1.3392085,16.665726 0,16.772009 -0.1062522,15.815435 1.700592,16.729499 0.9140517,0.488918 1.0628618,0.488918 8.6517222,0.488918 h 7.716395 v 1.488008 1.48802 h -3.379908 -3.401174 l -0.446406,0.573944 c -0.531431,0.680229 -0.425145,1.466757 0.255097,2.019437 0.403882,0.361384 1.339209,0.382633 12.860672,0.382633 h 12.414265 l 0.51017,-0.531432 c 0.637717,-0.637716 0.658978,-1.147897 0.08499,-1.891902 l -0.425156,-0.55268 H 35.43346 32.159835 v -1.48802 -1.488008 h 7.822682 c 8.736759,0 8.864294,-0.02125 9.714584,-1.488006 0.361383,-0.637719 0.425158,-1.190411 0.510182,-4.102664 l 0.06375,-3.337397 h 10.139728 10.11848 l 3.358648,3.358657 3.337397,3.3374 v 3.826303 c 0,3.422436 0.04249,3.890093 0.425146,4.506547 0.807778,1.360473 1.147898,1.445509 5.420622,1.445509 4.272713,0 4.846668,-0.148818 5.633184,-1.445509 0.382633,-0.616454 0.425145,-1.084111 0.425145,-4.59157 0,-5.888279 -0.106252,-5.973303 -6.207139,-5.973303 h -3.890085 l -3.720031,-3.720028 -3.72003,-3.720029 H 60.920949 50.228525 v -1.488012 -1.488012 h 17.962412 17.962424 v 1.254183 c 0,1.062864 0.085,1.381725 0.552692,1.934414 0.99909,1.190409 1.402986,1.275437 5.420612,1.275437 3.29489,0 3.720031,-0.0425 4.44278,-0.446403 1.381728,-0.78652 1.488013,-1.147894 1.488013,-5.548157 0,-3.528713 -0.04245,-3.953857 -0.42514,-4.591578 -0.765275,-1.25418 -1.743108,-1.530525 -5.633187,-1.530525 -2.912253,0 -3.528721,0.06376 -4.315238,0.425146 -1.084125,0.488918 -1.721842,1.679329 -1.743104,3.23111 v 1.02035 H 68.084653 50.228525 v -1.594297 -1.594298 h 13.774723 13.753487 l 3.698771,-3.698771 3.720029,-3.720028 4.081402,-0.06376 c 4.017627,-0.06376 4.102655,-0.06376 4.676605,-0.595203 0.999091,-0.935323 1.14789,-1.594298 1.14789,-5.314327 0,-3.720027 -0.148799,-4.379004 -1.14789,-5.314325 -0.57395,-0.531434 -0.637732,-0.531434 -4.782892,-0.595207 l -4.20895,-0.06378 z m 7.843945,5.399356 v 2.976024 H 89.023126 85.940812 V 30.467193 27.49117 h 3.082314 3.082313 z M 47.039951,47.685609 V 61.928 L 26.165273,61.88551 5.2693461,61.82176 5.205597,47.621882 5.1631081,33.44326 h 20.9384489 20.93844 z m 48.041503,0.637719 v 2.976022 h -3.0823 -3.082314 v -2.976022 -2.976022 h 3.082314 3.0823 z m -9.140642,18.068706 v 2.976028 H 82.9648 79.988772 V 66.392034 63.41602 h 2.976028 2.976012 z m -56.756999,0 v 1.509268 l -3.01854,-0.06375 -3.039788,-0.06375 -0.06375,-1.445495 -0.06375,-1.424246 h 3.103563 3.082314 z"
       id="path7406"
       style="stroke-width:0.0212575" />
    <path
       d="m 24.93235,38.970113 c 0,0.807778 -0.085,1.275438 -0.233823,1.275438 -0.127558,0 -0.807789,0.25509 -1.509281,0.573949 l -1.254173,0.552689 -0.82904,-0.807777 -0.850289,-0.829034 -0.85029,0.829034 -0.85029,0.829035 0.85029,0.871549 c 0.829028,0.829035 0.829028,0.871551 0.510182,1.360468 -0.191324,0.276344 -0.46767,0.892806 -0.616469,1.381726 l -0.255084,0.871547 -1.31796,0.06376 -1.296697,0.06376 v 1.254182 1.275437 h 1.254185 c 1.254187,0 1.254187,0 1.424234,0.680236 0.06375,0.38263 0.340121,1.105379 0.573955,1.615553 l 0.446394,0.892808 -0.829027,0.85029 -0.82904,0.850294 0.82904,0.850293 0.829027,0.850291 0.871554,-0.850291 0.871552,-0.871551 1.169149,0.552691 c 0.637716,0.276344 1.317959,0.531432 1.53053,0.531432 0.297596,0 0.361371,0.212573 0.361371,1.275439 v 1.275438 h 1.062863 1.062875 v -1.275443 c 0,-1.062865 0.06375,-1.27544 0.38262,-1.27544 0.191323,0 0.871551,-0.255086 1.50927,-0.53143 l 1.16916,-0.552692 0.871541,0.871551 0.871551,0.850291 0.82904,-0.850291 0.829028,-0.850292 -0.871539,-0.914066 -0.871552,-0.892806 0.403883,-0.637719 c 0.233834,-0.361375 0.51018,-0.999092 0.658978,-1.445497 l 0.233836,-0.786521 h 1.36046 1.339207 V 47.36674 45.985017 H 34.498135 33.243953 L 33.01013,45.177238 c -0.106252,-0.425146 -0.382633,-1.084121 -0.616469,-1.424239 l -0.403882,-0.637719 0.871541,-0.892806 0.87155,-0.914063 -0.829026,-0.850294 -0.82904,-0.850293 -0.871541,0.850293 -0.871552,0.871551 -1.169161,-0.552691 c -0.637717,-0.276345 -1.317947,-0.531435 -1.509257,-0.531435 -0.318871,0 -0.382633,-0.21257 -0.382633,-1.275437 V 37.694668 H 26.1015 24.93235 Z m 2.784705,3.932602 c 3.252374,1.147896 4.20895,5.399356 1.764366,7.843946 -1.891916,1.891901 -4.804154,1.870642 -6.674808,-0.06376 -1.976926,-2.019443 -1.976926,-4.634092 0,-6.611021 1.424245,-1.42424 3.061053,-1.806872 4.910442,-1.169153 z"
       id="path7408"
       style="stroke-width:0.0212575" />
  </g>
</svg>
