<?xml version="1.0" encoding="UTF-8" standalone="no"?>
<!-- Created with Inkscape (http://www.inkscape.org/) -->

<svg
   width="100mm"
   height="100mm"
   viewBox="0 0 100 100"
   version="1.1"
   id="svg26768"
   xmlns="http://www.w3.org/2000/svg"
   xmlns:svg="http://www.w3.org/2000/svg">
  <defs
     id="defs26765" />
  <g
     id="layer1">
    <path
       d="m 2.9014104,20.67366 c -0.67751,0.443879 -0.79431,1.284913 -0.79431,6.237668 v 5.046204 l 0.58405,0.560688 c 0.56069,0.584052 0.63077,0.584052 4.43879,0.584052 3.6912006,0 3.8547406,-0.02336 3.8547406,-0.467241 0,-0.443879 -0.16354,-0.467241 -3.6912106,-0.467241 -2.56982,0 -3.78465,-0.09345 -3.97155,-0.280345 -0.3037,-0.303707 -0.42051,-9.368183 -0.14017,-10.092407 0.11681,-0.327068 0.70087,-0.373792 3.97155,-0.373792 3.6678406,0 3.8313806,-0.02336 3.8313806,-0.467241 0,-0.443879 -0.16354,-0.467241 -3.9014706,-0.467241 -2.17267,0 -4.04163,0.09345 -4.1818,0.186896 z"
       id="path12820"
       style="stroke-width:0.0233621" />
    <path
       d="m 87.845829,20.954005 c 0,0.443879 0.163534,0.467241 3.854739,0.467241 h 3.854739 l -0.04673,5.303186 -0.07009,5.326548 -3.784652,0.07009 c -3.621118,0.04673 -3.808015,0.09345 -3.808015,0.513965 0,0.443879 0.163534,0.467241 3.808015,0.467241 3.060428,0 3.901462,-0.07009 4.321979,-0.373793 0.513965,-0.35043 0.513965,-0.443879 0.513965,-5.910599 0,-5.092927 -0.04672,-5.58353 -0.420516,-5.933961 -0.373793,-0.327069 -1.027931,-0.397155 -4.32198,-0.397155 -3.737929,0 -3.901463,0.02336 -3.901463,0.467241 z"
       id="path12822"
       style="stroke-width:0.0233621" />
    <path
       d="m 7.0131304,26.794518 v 1.401723 H 23.132951 39.252761 V 26.794518 25.392794 H 23.132951 7.0131304 Z"
       id="path12848"
       style="stroke-width:0.0233621" />
    <path
       d="m 47.896721,26.794518 v 1.401723 h 7.359046 7.359046 v -1.401723 -1.401724 h -7.359046 -7.359046 z"
       id="path12850"
       style="stroke-width:0.0233621" />
    <path
       d="m 71.258772,26.794518 v 1.401723 H 81.538075 91.817379 V 26.794518 25.392794 H 81.538075 71.258772 Z"
       id="path12852"
       style="stroke-width:0.0233621" />
    <path
       d="m 7.0131304,38.475544 v 1.401723 h 5.8405106 5.84051 v -1.401723 -1.401723 h -5.84051 -5.8405106 z"
       id="path12884"
       style="stroke-width:0.0233621" />
    <path
       d="m 27.571741,38.475544 v 1.401723 h 8.76076 8.76077 v -1.401723 -1.401723 h -8.76077 -8.76076 z"
       id="path12886"
       style="stroke-width:0.0233621" />
    <path
       d="m 53.737233,38.475544 v 1.401723 h 7.359047 7.359046 V 38.475544 37.073821 H 61.09628 53.737233 Z"
       id="path12888"
       style="stroke-width:0.0233621" />
    <path
       d="m 77.099285,38.475544 v 1.401723 h 7.359047 7.359047 v -1.401723 -1.401723 h -7.359047 -7.359047 z"
       id="path12890"
       style="stroke-width:0.0233621" />
    <path
       d="m 7.0131304,50.15657 v 1.401723 H 9.9333808 12.853641 V 50.15657 48.754847 H 9.9333808 7.0131304 Z"
       id="path12920"
       style="stroke-width:0.0233621" />
    <path
       d="m 21.731221,50.15657 v 1.401723 h 4.32198 4.32198 V 50.15657 48.754847 h -4.32198 -4.32198 z"
       id="path12922"
       style="stroke-width:0.0233621" />
    <path
       d="m 39.252761,50.15657 v 1.401723 H 56.7743 74.295839 V 50.15657 48.754847 H 56.7743 39.252761 Z"
       id="path12924"
       style="stroke-width:0.0233621" />
    <path
       d="m 82.939798,50.15657 v 1.401723 h 4.43879 4.438791 V 50.15657 48.754847 h -4.438791 -4.43879 z"
       id="path12926"
       style="stroke-width:0.0233621" />
    <path
       d="m 7.0131304,61.837596 v 1.401723 H 17.292431 27.571741 V 61.837596 60.435873 H 17.292431 7.0131304 Z"
       id="path12942"
       style="stroke-width:0.0233621" />
    <path
       d="m 36.215691,61.837596 v 1.401723 h 7.35905 7.359046 v -1.401723 -1.401723 h -7.359046 -7.35905 z"
       id="path12944"
       style="stroke-width:0.0233621" />
    <path
       d="m 59.577746,61.837596 v 1.401723 H 75.697562 91.817379 V 61.837596 60.435873 H 75.697562 59.577746 Z"
       id="path12946"
       style="stroke-width:0.0233621" />
    <path
       d="m 2.9014104,67.397764 c -0.67751,0.44388 -0.79431,1.284913 -0.79431,6.237668 v 5.046204 l 0.58405,0.560689 c 0.56069,0.584051 0.63077,0.584051 4.43879,0.584051 3.6912006,0 3.8547406,-0.02336 3.8547406,-0.467241 0,-0.443879 -0.16354,-0.467241 -3.6912106,-0.467241 -2.56982,0 -3.78465,-0.09345 -3.97155,-0.280345 -0.3037,-0.303706 -0.42051,-9.368182 -0.14017,-10.092406 0.11681,-0.327069 0.70087,-0.373793 3.97155,-0.373793 3.6678406,0 3.8313806,-0.02336 3.8313806,-0.467241 0,-0.443879 -0.16354,-0.467241 -3.9014706,-0.467241 -2.17267,0 -4.04163,0.09345 -4.1818,0.186896 z"
       id="path12960"
       style="stroke-width:0.0233621" />
    <path
       d="m 87.845829,67.678109 c 0,0.443879 0.163534,0.467241 3.854739,0.467241 h 3.854739 l -0.04673,5.303186 -0.07009,5.326548 -3.784652,0.07009 c -3.621118,0.04673 -3.808015,0.09345 -3.808015,0.513965 0,0.443879 0.163534,0.467241 3.808015,0.467241 3.060428,0 3.901462,-0.07009 4.321979,-0.373793 0.513965,-0.35043 0.513965,-0.443879 0.513965,-5.910599 0,-5.092927 -0.04672,-5.58353 -0.420516,-5.933961 -0.373793,-0.327069 -1.027931,-0.397155 -4.32198,-0.397155 -3.737929,0 -3.901463,0.02336 -3.901463,0.467241 z"
       id="path12962"
       style="stroke-width:0.0233621" />
    <path
       d="m 7.0131304,73.518622 v 1.401723 H 34.813971 62.614813 V 73.518622 72.116899 H 34.813971 7.0131304 Z"
       id="path12970"
       style="stroke-width:0.0233621" />
    <path
       d="m 71.258772,73.518622 v 1.401723 H 81.538075 91.817379 V 73.518622 72.116899 H 81.538075 71.258772 Z"
       id="path12972"
       style="stroke-width:0.0233621" />
  </g>
</svg>
