<?xml version="1.0" encoding="UTF-8" standalone="no"?>
<!-- Created with Inkscape (http://www.inkscape.org/) -->

<svg
   width="100mm"
   height="100mm"
   viewBox="0 0 100 100"
   version="1.1"
   id="svg26768"
   xmlns="http://www.w3.org/2000/svg"
   xmlns:svg="http://www.w3.org/2000/svg">
  <defs
     id="defs26765" />
  <g
     id="layer1">
    <path
       d="m 6.1188696,14.403645 c -0.421854,0.222027 -0.976918,0.73269 -1.221149,1.154543 -0.421855,0.688282 -0.444052,1.132338 -0.444052,6.727422 0,5.572882 0.02219,6.039138 0.444052,6.727424 0.754892,1.265555 1.842823,1.598596 5.062221,1.598596 H 12.779683 V 29.279466 27.947304 H 10.29298 c -1.3765664,0 -2.6421294,-0.08881 -2.7975444,-0.177623 -0.199819,-0.155419 -0.266429,-1.420974 -0.222026,-5.617288 l 0.06656,-5.417461 2.7309344,-0.06661 2.708729,-0.06661 v -1.30996 -1.332164 H 9.8488786 c -2.442301,0.0222 -3.086179,0.08881 -3.73006,0.444054 z"
       id="path12794"
       style="stroke-width:0.0222027" />
    <path
       d="m 87.602846,15.291755 v 1.309959 l 2.730933,0.06661 2.70873,0.06661 0.0667,5.417464 c 0.0444,4.196314 -0.0222,5.461869 -0.22203,5.617288 -0.15542,0.08882 -1.42098,0.177621 -2.775345,0.177621 h -2.508897 v 1.332163 1.332164 h 2.886349 c 3.508033,0 4.329523,-0.288637 5.084413,-1.842827 0.44407,-0.888108 0.46626,-1.332163 0.46626,-6.505396 0,-5.306449 -0.0222,-5.595085 -0.48845,-6.527599 -0.79931,-1.531987 -1.48759,-1.776217 -4.995612,-1.776217 h -2.952959 z"
       id="path12796"
       style="stroke-width:0.0222027" />
    <path
       d="m 9.8933326,22.28561 v 2.775339 H 25.213205 40.533088 V 22.28561 19.51027 H 25.213205 9.8933326 Z"
       id="path12798"
       style="stroke-width:0.0222027" />
    <path
       d="m 48.748089,22.28561 v 2.775339 h 6.993849 6.993861 V 22.28561 19.51027 h -6.993861 -6.993849 z"
       id="path12800"
       style="stroke-width:0.0222027" />
    <path
       d="m 70.9508,22.28561 v 2.775339 h 9.769197 9.7692 V 22.28561 19.51027 h -9.7692 -9.769197 z"
       id="path12802"
       style="stroke-width:0.0222027" />
    <path
       d="m 9.8933326,36.16231 v 2.664326 h 5.5506754 5.550685 V 36.16231 33.497983 H 15.444008 9.8933326 Z"
       id="path12840"
       style="stroke-width:0.0222027" />
    <path
       d="m 29.431728,36.16231 v 2.664326 h 8.326013 8.326023 V 36.16231 33.497983 h -8.326023 -8.326013 z"
       id="path12842"
       style="stroke-width:0.0222027" />
    <path
       d="m 54.298763,36.16231 v 2.664326 h 6.993861 6.993851 V 36.16231 33.497983 h -6.993851 -6.993861 z"
       id="path12844"
       style="stroke-width:0.0222027" />
    <path
       d="m 76.501485,36.16231 v 2.664326 h 6.99385 6.993862 V 36.16231 33.497983 h -6.993862 -6.99385 z"
       id="path12846"
       style="stroke-width:0.0222027" />
    <path
       d="m 9.8933326,50.039007 v 2.77534 h 2.7753374 2.775338 v -2.77534 -2.77534 H 12.66867 9.8933326 Z"
       id="path12898"
       style="stroke-width:0.0222027" />
    <path
       d="m 23.881043,50.039007 v 2.77534 h 4.107499 4.107511 v -2.77534 -2.77534 h -4.107511 -4.107499 z"
       id="path12900"
       style="stroke-width:0.0222027" />
    <path
       d="m 40.533088,50.039007 v 2.77534 h 16.652026 16.652045 v -2.77534 -2.77534 H 57.185114 40.533088 Z"
       id="path12902"
       style="stroke-width:0.0222027" />
    <path
       d="m 82.05216,50.039007 v 2.77534 h 4.218523 4.218514 v -2.77534 -2.77534 H 86.270683 82.05216 Z"
       id="path12904"
       style="stroke-width:0.0222027" />
    <path
       d="m 9.8933326,63.915706 v 2.664325 h 9.7691984 9.769197 V 63.915706 61.251378 H 19.662531 9.8933326 Z"
       id="path12928"
       style="stroke-width:0.0222027" />
    <path
       d="m 37.646728,63.915706 v 2.664325 h 6.993851 6.99386 v -2.664325 -2.664328 h -6.99386 -6.993851 z"
       id="path12930"
       style="stroke-width:0.0222027" />
    <path
       d="m 59.84945,63.915706 v 2.664325 H 75.169323 90.489197 V 63.915706 61.251378 H 75.169323 59.84945 Z"
       id="path12932"
       style="stroke-width:0.0222027" />
    <path
       d="m 6.1854786,69.821627 c -0.399647,0.199825 -0.95471,0.73269 -1.221148,1.176743 -0.488465,0.777097 -0.510662,0.954717 -0.510662,6.794033 0,5.572882 0.02219,6.039138 0.444052,6.727424 0.754892,1.265554 1.842823,1.598595 5.084417,1.598595 H 12.80189 l -0.06656,-1.398771 -0.06656,-1.376569 -2.7309344,-0.06661 -2.708728,-0.06661 0.04437,-5.484072 0.06656,-5.48407 2.7309354,-0.06661 2.708729,-0.06661 V 70.79854 69.466379 H 9.8489456 c -2.242469,0 -3.130583,0.08881 -3.663449,0.355242 z"
       id="path12950"
       style="stroke-width:0.0222027" />
    <path
       d="m 87.602846,70.798547 v 1.30996 l 2.730933,0.06661 2.70873,0.06661 0.0667,5.48407 0.0444,5.484071 -2.708732,0.06661 -2.730935,0.06661 -0.06656,1.37657 -0.06666,1.39877 h 2.841948 c 3.530229,0 4.418339,-0.33304 5.151039,-1.820623 0.44405,-0.932514 0.46626,-1.30996 0.46626,-6.527598 0,-5.306448 -0.0222,-5.595085 -0.48847,-6.5276 -0.79929,-1.531986 -1.48758,-1.776216 -4.99561,-1.776216 h -2.95296 z"
       id="path12952"
       style="stroke-width:0.0222027" />
    <path
       d="m 9.8933326,77.792403 v 2.77534 H 36.314567 62.735799 v -2.77534 -2.77534 H 36.314567 9.8933326 Z"
       id="path12964"
       style="stroke-width:0.0222027" />
    <path
       d="m 70.9508,77.792403 v 2.77534 h 9.769197 9.7692 v -2.77534 -2.77534 h -9.7692 -9.769197 z"
       id="path12966"
       style="stroke-width:0.0222027" />
  </g>
</svg>
