<?xml version="1.0" encoding="UTF-8" standalone="no"?>
<!-- Created with Inkscape (http://www.inkscape.org/) -->

<svg
   width="100mm"
   height="100mm"
   viewBox="0 0 100 100"
   version="1.1"
   id="svg26768"
   xmlns="http://www.w3.org/2000/svg"
   xmlns:svg="http://www.w3.org/2000/svg">
  <defs
     id="defs26765" />
  <path
     d="m 74.999509,21.551719 c -0.297857,0.19147 -0.76592,0.702074 -0.999944,1.14886 -0.425509,0.744629 -0.446773,1.085041 -0.446773,7.254863 v 6.467679 l -10.573805,4.850754 c -5.829422,2.680688 -10.74401,4.914589 -10.914216,4.957143 -0.19147,0.0426 -0.489328,-0.234025 -0.787184,-0.723364 C 50.426583,43.997118 47.958643,41.146225 46.341722,39.784618 41.363315,35.508286 36.150875,33.44459 29.725746,33.189287 12.365129,32.444645 -1.0595613,48.081966 2.1742796,65.208559 c 1.510543,7.871841 6.978284,15.126703 14.1905994,18.807336 4.2125,2.148791 8.254801,3.021085 13.254489,2.850879 4.914589,-0.170206 8.914332,-1.361622 13.105567,-3.89338 3.148736,-1.914766 6.637885,-5.29754 8.339904,-8.105865 0.382954,-0.616991 0.723352,-1.127596 0.787184,-1.127596 0.06384,0 4.95713,2.233902 10.850384,4.97842 l 10.744011,4.978407 0.10632,6.680426 c 0.106321,6.084724 0.148928,6.701716 0.510605,7.254876 0.829738,1.233956 0.702087,1.212679 11.552472,1.212679 9.361117,0 9.999367,-0.02124 10.616347,-0.404231 1.3829,-0.851004 1.36162,-0.553146 1.36162,-14.488447 0,-12.403476 0,-12.616237 -0.44679,-13.403421 -0.87228,-1.531813 -0.46805,-1.489259 -11.573733,-1.489259 -11.105685,0 -10.701455,-0.0426 -11.573749,1.489259 -0.40423,0.744629 -0.446772,1.127596 -0.446772,5.297541 0,2.467926 -0.0426,4.489079 -0.08509,4.489079 -0.12769,0 -19.977471,-9.148365 -20.083845,-9.254737 -0.06385,-0.0426 0.234038,-1.127584 0.659534,-2.382831 1.063761,-3.212569 1.425439,-5.403915 1.425439,-8.573927 0,-3.255111 -0.404231,-5.744328 -1.382886,-8.616485 -0.40423,-1.170137 -0.765906,-2.212623 -0.787184,-2.29772 -0.0426,-0.127691 19.892363,-9.510055 20.211498,-9.510055 0.02124,0 0.0426,2.042433 0.0426,4.531636 0,5.063516 0.127692,5.595397 1.510537,6.425136 0.702087,0.404218 1.106318,0.425496 10.509985,0.425496 9.403666,0 9.807896,-0.02124 10.509976,-0.425496 0.38295,-0.234038 0.89356,-0.765919 1.10632,-1.17015 0.38295,-0.702074 0.40423,-1.446717 0.40423,-13.360865 0,-12.446031 0,-12.658778 -0.44679,-13.445962 -0.87227,-1.531814 -0.46804,-1.489272 -11.616281,-1.489272 -8.893063,0.02124 -10.020646,0.04261 -10.531263,0.361689 z m 19.615793,11.552459 v 8.935618 h -9.041988 -9.041991 v -8.935618 -8.935605 h 9.041991 9.041988 z m -60.123899,3.80827 c 3.829549,1.021222 7.48889,3.042363 10.297228,5.659229 1.616922,1.510536 4.446524,4.935866 4.233776,5.127337 -0.0426,0.04247 -1.936043,0.936111 -4.2125,1.978599 l -4.127403,1.893502 -0.10632,-2.25518 c -0.08509,-1.744574 -0.212748,-2.404106 -0.510605,-2.87217 -0.829739,-1.233956 -0.723365,-1.212678 -11.403543,-1.212678 -10.82911,0 -10.65891,-0.02124 -11.488644,1.34033 -0.404229,0.659532 -0.425504,1.17015 -0.425504,13.55235 0,12.38221 0.02127,12.892801 0.425504,13.552334 0.829734,1.361621 0.659534,1.340356 11.488644,1.340356 10.829106,0 10.658913,0.02124 11.488639,-1.340356 0.340412,-0.553146 0.425509,-1.06375 0.425509,-2.723229 0,-1.127582 0.04248,-2.084972 0.12769,-2.148804 0.106321,-0.106321 8.020769,3.446593 8.318627,3.723172 0.255302,0.255303 -1.914768,2.935991 -3.935921,4.85077 -3.042363,2.893434 -6.510233,4.850755 -10.573808,5.957074 -2.55303,0.680811 -7.786748,0.808448 -10.531254,0.234025 C 17.215983,82.143656 11.812065,78.37794 8.2165466,72.591073 c -4.680558,-7.595275 -4.680558,-17.33934 0,-24.934614 C 11.74824,41.954687 17.109606,38.167695 23.768763,36.6997 c 2.55303,-0.553159 8.276079,-0.446785 10.722733,0.212748 z m 60.123899,8.850521 v 2.233888 h -9.041988 -9.041991 v -2.233888 -2.233914 h 9.041991 9.041988 z M 37.5976,57.038849 v 9.041992 H 28.661982 19.72637 v -9.041992 -9.041992 h 8.935612 8.935618 z m 14.126759,-3.25511 c 0.787197,2.765782 1.085041,5.829422 0.787197,8.382458 -0.446785,3.765714 -1.659477,7.637816 -2.340275,7.425055 -0.191484,-0.06384 -2.404107,-1.042485 -4.914588,-2.191347 l -4.574189,-2.106248 -0.06384,-5.191169 -0.04248,-5.212431 4.935865,-2.255179 4.957129,-2.255179 0.36169,0.787184 c 0.19147,0.42551 0.595701,1.595646 0.893558,2.616856 z M 37.5976,69.804013 v 2.233902 H 28.661982 19.72637 v -2.233902 -2.233902 h 8.935612 8.935618 z m 57.017702,11.27588 v 9.041991 h -9.041988 -9.041991 v -9.041991 -9.041978 h 9.041991 9.041988 z m 0,12.765164 v 2.233901 h -9.041988 -9.041991 v -2.233901 -2.233901 h 9.041991 9.041988 z"
     id="path7350"
     style="stroke-width:0.0212753" />
</svg>
