<?xml version="1.0" encoding="UTF-8" standalone="no"?>
<!-- Created with Inkscape (http://www.inkscape.org/) -->

<svg
   width="100mm"
   height="100mm"
   viewBox="0 0 100 100"
   version="1.1"
   id="svg26768"
   xmlns="http://www.w3.org/2000/svg"
   xmlns:svg="http://www.w3.org/2000/svg">
  <defs
     id="defs26765" />
  <path
     d="m 72.838342,57.240443 v 41.646835 h 1.476091 1.476089 V 78.854623 58.821976 h 8.603499 l 8.582412,0.02105 -3.226313,3.18413 -3.247395,3.184139 1.033259,1.033264 1.012176,1.012176 4.955449,-4.955451 4.955443,-4.955441 -4.85001,-4.850013 c -2.656962,-2.65696 -4.955448,-4.850014 -5.060882,-4.850014 -0.126525,0 -0.653701,0.442831 -1.159785,0.970013 l -0.948918,0.948912 3.099787,3.057615 3.12088,3.036528 H 84.225321 75.790522 V 35.626235 15.593573 h -1.476089 -1.476091 z"
     id="path8002"
     style="stroke-width:0.021087" />
  <path
     d="m 8.9447267,19.220568 c -2.2774058,0.864573 -3.9221894,2.382843 -5.0187171,4.596973 l -0.5693444,1.15979 v 32.263112 32.263118 l 0.6958728,1.412828 c 0.8223974,1.665874 2.4250039,3.226312 4.2174044,4.111966 l 1.2019526,0.590435 28.741587,0.06326 28.720499,0.04216 V 94.248129 92.772037 H 56.60135 46.268716 V 88.343766 83.915495 H 56.60135 66.933981 V 82.439404 80.963317 H 56.60135 46.268716 V 76.535045 72.106774 H 56.60135 66.933981 V 70.630681 69.154592 H 56.60135 46.268716 V 64.726323 60.298045 H 56.60135 66.933981 V 58.821964 57.345869 H 56.60135 46.268716 V 52.812159 48.27845 H 56.60135 66.933981 V 46.802368 45.326273 H 56.60135 46.268716 v -4.42827 -4.42827 H 56.60135 66.933981 V 34.99365 33.517569 H 36.568695 6.2034154 v -3.753488 c 0,-3.45827 0.042213,-3.81675 0.5060826,-4.78675 0.5060816,-1.096528 1.5182683,-2.129791 2.7202218,-2.783487 0.6326092,-0.35848 2.3828332,-0.379568 29.1000682,-0.44283 l 28.404193,-0.04222 v -1.476085 -1.476094 l -28.404193,0.02105 c -28.319846,0 -28.425284,0 -29.5850613,0.442819 z m 7.5913153,21.677447 v 4.428271 H 11.369725 6.2034154 v -4.428271 -4.42827 h 5.1663096 5.166317 z m 26.569624,0 v 4.428271 H 31.296945 19.488221 v -4.428271 -4.42827 h 11.808724 11.808721 z m -26.67506,11.914157 v 4.428271 l -5.103054,0.06328 -5.1241366,0.04222 V 52.81223 48.278533 l 5.1241366,0.0421 5.103054,0.06328 z m 26.67506,0 v 4.533709 H 31.296945 19.488221 v -4.533709 -4.53371 H 31.296945 43.105666 Z M 16.536042,64.72633 v 4.428271 H 11.369725 6.2034154 V 64.72633 60.298057 h 5.1663096 5.166317 z m 26.569624,0 v 4.428271 H 31.296945 19.488221 V 64.72633 60.298057 H 31.296945 43.105666 Z M 16.536042,76.535052 v 4.428272 H 11.369725 6.2034154 v -4.428272 -4.428271 h 5.1663096 5.166317 z m 26.569624,0 v 4.428272 H 31.296945 19.488221 V 76.535052 72.106781 H 31.296945 43.105666 Z M 16.536042,88.343775 v 4.428269 H 13.66821 c -3.395003,0 -4.196315,-0.189781 -5.5037065,-1.349566 C 6.6462333,90.093996 6.2034154,88.913125 6.2034154,86.171814 v -2.256311 h 5.1663096 5.166317 z m 26.569624,0.105445 v 4.533707 H 31.296945 19.488221 V 88.44922 83.915515 h 11.808724 11.808721 z"
     id="path8018"
     style="stroke-width:0.021087" />
</svg>
