<?xml version="1.0" encoding="UTF-8" standalone="no"?>
<!-- Created with Inkscape (http://www.inkscape.org/) -->

<svg
   width="100mm"
   height="100mm"
   viewBox="0 0 100 100"
   version="1.1"
   id="svg26768"
   xmlns="http://www.w3.org/2000/svg"
   xmlns:svg="http://www.w3.org/2000/svg">
  <defs
     id="defs26765" />
  <g
     id="layer1">
    <path
       d="m 47.449427,10.317549 c -1.763163,0.641151 -2.450108,1.80896 -2.450108,4.190377 v 1.213605 h 1.488388 1.488381 v -1.373893 -1.373893 h 9.960733 9.960727 v 1.373893 1.373893 h 1.511281 1.511287 l -0.09159,-1.694468 c -0.09159,-1.831859 -0.412168,-2.518806 -1.648673,-3.434735 -0.618253,-0.457964 -0.915935,-0.480863 -10.73927,-0.526658 -8.19757,-0.04581 -10.281309,0 -10.991155,0.251879 z"
       id="path13648"
       style="stroke-width:0.0228983" />
    <path
       d="m 10.812263,15.881819 c -0.0916,0.0687 -0.160288,1.373894 -0.160288,2.862279 v 2.70199 h 15.799777 15.822675 l -0.0687,-2.816482 -0.06869,-2.793583 -15.593696,-0.0687 c -8.563933,-0.0229 -15.662384,0.0229 -15.731079,0.114491 z"
       id="path13666"
       style="stroke-width:0.0228983" />
    <path
       d="m 50.884164,15.881819 c -0.09159,0.0687 -0.160285,1.373894 -0.160285,2.862279 v 2.70199 h 7.212942 7.235835 l -0.0687,-2.816482 -0.06869,-2.793583 -7.006857,-0.0687 c -3.846906,-0.0229 -7.052658,0.0229 -7.14425,0.11449 z"
       id="path13668"
       style="stroke-width:0.0228983" />
    <path
       d="m 73.782393,15.881819 c -0.09159,0.0687 -0.160285,1.373894 -0.160285,2.862279 v 2.70199 h 10.07522 10.098118 l -0.0687,-2.816482 -0.06869,-2.793583 -9.869134,-0.0687 c -5.426878,-0.0229 -9.937833,0.0229 -10.006527,0.114491 z"
       id="path13670"
       style="stroke-width:0.0228983" />
    <path
       d="m 45.159604,21.583478 c -0.09159,0.09159 -0.160285,0.732744 -0.160285,1.442588 0.02291,1.648673 0.641152,3.068364 1.648673,3.686616 0.732743,0.435067 1.122012,0.457964 11.311722,0.457964 H 68.5158 l 0.778544,-0.526659 c 1.167805,-0.755641 1.602873,-1.80896 1.534181,-3.595022 l -0.0687,-1.488386 H 69.385937 68.01204 l -0.114491,1.373894 -0.114492,1.373895 H 57.936822 48.09058 l -0.114492,-1.373895 -0.114493,-1.373894 -1.259396,-0.06869 c -0.709852,-0.04581 -1.350997,0 -1.442595,0.09159 z"
       id="path13688"
       style="stroke-width:0.0228983" />
    <path
       d="m 6.8279695,24.789231 c -1.167809,0.572455 -1.7173669,1.694468 -1.8547556,3.663716 l -0.1144916,1.69447 h 1.511284 1.5112835 l 0.06869,-1.442589 0.06869,-1.41969 h 9.8462382 9.846238 l 0.0687,1.41969 0.06869,1.442589 h 1.465488 1.488385 v -1.442589 c 0,-1.831859 -0.686948,-3.274448 -1.831859,-3.869801 -0.732743,-0.38927 -1.55708,-0.412169 -11.105641,-0.412169 -8.9761062,0 -10.395796,0.06869 -11.0369475,0.366373 z"
       id="path13690"
       style="stroke-width:0.0228983" />
    <path
       d="m 10.651975,33.009694 v 2.862279 h 7.212942 7.212942 v -2.862279 -2.862277 h -7.212942 -7.212942 z"
       id="path13712"
       style="stroke-width:0.0228983" />
    <path
       d="m 33.550204,33.009694 v 2.862279 h 4.350664 4.350666 v -2.862279 -2.862277 h -4.350666 -4.350664 z"
       id="path13714"
       style="stroke-width:0.0228983" />
    <path
       d="m 50.723879,33.009694 v 2.862279 H 60.799098 70.874317 V 33.009694 30.147417 H 60.799098 50.723879 Z"
       id="path13716"
       style="stroke-width:0.0228983" />
    <path
       d="m 79.346663,33.009694 v 2.862279 h 7.212942 7.212941 v -2.862279 -2.862277 h -7.212941 -7.212942 z"
       id="path13718"
       style="stroke-width:0.0228983" />
    <path
       d="m 4.9732139,37.61224 c 0.1144906,1.831857 0.4350663,2.495906 1.6486715,3.388937 0.6182523,0.457964 0.9388284,0.480863 10.9224556,0.549557 9.70885,0.04581 10.35,0.04581 11.288829,-0.366371 1.305198,-0.595355 1.969247,-1.900554 1.969247,-3.8927 v -1.41969 h -1.488385 -1.488386 v 1.373894 1.373894 H 17.864917 7.9041878 V 37.245867 35.871973 H 6.3929033 4.8587223 Z"
       id="path13724"
       style="stroke-width:0.0228983" />
    <path
       d="m 10.812263,44.504606 c -0.0916,0.06869 -0.160288,1.373893 -0.160288,2.862278 v 2.701992 h 2.862279 2.862278 v -2.862279 -2.862279 h -2.701991 c -1.488385,0 -2.793583,0.0687 -2.862278,0.160288 z"
       id="path13730"
       style="stroke-width:0.0228983" />
    <path
       d="m 25.077859,47.206597 v 2.862279 h 4.236173 4.236172 v -2.862279 -2.862279 h -4.236172 -4.236173 z"
       id="path13732"
       style="stroke-width:0.0228983" />
    <path
       d="m 42.251534,47.206597 v 2.862279 H 59.425202 76.62177 l -0.06869,-2.816484 -0.0687,-2.793583 -17.104975,-0.06869 -17.127877,-0.04581 z"
       id="path13734"
       style="stroke-width:0.0228983" />
    <path
       d="m 85.231508,44.481707 c -0.09159,0.09159 -0.160285,1.396792 -0.160285,2.885177 v 2.701992 h 4.350658 4.373565 l -0.0687,-2.816484 -0.06869,-2.793583 -4.144581,-0.06869 c -2.266925,-0.0229 -4.190374,0.0229 -4.281966,0.09159 z"
       id="path13736"
       style="stroke-width:0.0228983" />
    <path
       d="m 35.45076,53.412017 c -1.167812,0.572456 -1.717371,1.694468 -1.85476,3.663714 l -0.114491,1.694473 h 1.511283 1.511281 l 0.06869,-1.442589 0.06869,-1.419689 h 9.846241 9.846236 l 0.06869,1.419689 0.06869,1.442589 h 1.465487 1.488381 v -1.442589 c 0,-1.831859 -0.686945,-3.274447 -1.831856,-3.869801 -0.732745,-0.38927 -1.557081,-0.412168 -11.10564,-0.412168 -8.976106,0 -10.395801,0.06869 -11.036947,0.366371 z"
       id="path13738"
       style="stroke-width:0.0228983" />
    <path
       d="m 10.651975,61.63248 v 2.862277 H 20.727196 30.802417 V 61.63248 58.770204 H 20.727196 10.651975 Z"
       id="path13740"
       style="stroke-width:0.0228983" />
    <path
       d="m 39.274765,61.63248 v 2.862277 h 7.212942 7.212941 V 61.63248 58.770204 h -7.212941 -7.212942 z"
       id="path13742"
       style="stroke-width:0.0228983" />
    <path
       d="m 62.172994,61.63248 v 2.862277 h 15.799772 15.79978 V 61.63248 58.770204 H 77.972766 62.172994 Z"
       id="path13744"
       style="stroke-width:0.0228983" />
    <path
       d="m 33.596,66.235029 c 0.114489,1.831856 0.435065,2.495902 1.648676,3.388936 0.618252,0.457962 0.938828,0.480861 10.922455,0.549554 9.708849,0.04583 10.349995,0.04583 11.288823,-0.366368 1.305203,-0.595354 1.969248,-1.900556 1.969248,-3.892697 v -1.419697 h -1.488381 -1.488387 v 1.373897 1.373895 h -9.960727 -9.960734 v -1.373895 -1.373897 h -1.511281 -1.534183 z"
       id="path13746"
       style="stroke-width:0.0228983" />
    <path
       d="m 10.812263,73.127395 c -0.0916,0.06869 -0.160288,1.373888 -0.160288,2.862276 v 2.701993 h 27.248893 27.271788 l -0.0687,-2.816484 -0.06869,-2.793585 -27.04281,-0.06869 c -14.860952,-0.02291 -27.111504,0.02291 -27.180198,0.114493 z"
       id="path13748"
       style="stroke-width:0.0228983" />
    <path
       d="m 73.782393,73.127395 c -0.09159,0.06869 -0.160285,1.373888 -0.160285,2.862276 v 2.701993 h 10.07522 10.098118 l -0.0687,-2.816484 -0.06869,-2.793585 -9.869134,-0.06869 c -5.426879,-0.02291 -9.937834,0.02291 -10.006528,0.114493 z"
       id="path13750"
       style="stroke-width:0.0228983" />
  </g>
</svg>
