<?xml version="1.0" encoding="UTF-8" standalone="no"?>
<!-- Created with Inkscape (http://www.inkscape.org/) -->

<svg
   width="100mm"
   height="100mm"
   viewBox="0 0 100 100"
   version="1.1"
   id="svg26768"
   xmlns="http://www.w3.org/2000/svg"
   xmlns:svg="http://www.w3.org/2000/svg">
  <defs
     id="defs26765" />
  <path
     d="M 14.22926,30.130179 C 8.9403904,31.660016 4.1978923,33.015005 3.6952302,33.146137 L 2.7554733,33.386549 V 59.721618 86.034836 L 3.8045056,86.3408 c 0.5682252,0.174848 11.2989474,3.23452 23.8436204,6.818707 l 22.794589,6.534592 23.209832,-6.643874 C 86.393911,89.422338 97.168345,86.3408 97.561733,86.231534 l 0.699354,-0.196698 V 59.743469 33.452102 L 87.552222,30.392428 76.8215,27.310905 63.643033,31.069937 50.464571,34.828956 37.592074,31.179204 c -7.080965,-2.032498 -13.069189,-3.715317 -13.309592,-3.759033 -0.240404,-0.0437 -4.764353,1.158307 -10.053222,2.710008 z m 14.817575,1.420555 c 2.775563,0.786777 5.135886,1.507987 5.223305,1.595403 0.08742,0.06556 -3.93387,1.289439 -8.916772,2.710008 l -9.069754,2.578862 -5.004757,-1.486121 C 8.5032942,36.140259 6.2522459,35.419049 6.2522459,35.353483 c 0,-0.06555 3.9557251,-1.267587 8.8074971,-2.666292 4.829918,-1.398706 8.807497,-2.535162 8.851207,-2.557012 0.02185,-0.02185 2.338466,0.63378 5.135885,1.420555 z m 56.931839,1.202022 c 4.698787,1.355004 8.567088,2.51331 8.567088,2.578863 0,0.0874 -2.22919,0.80864 -4.961043,1.617267 l -4.982905,1.486121 -9.004188,-2.557012 c -4.961048,-1.420569 -9.026045,-2.644428 -9.026045,-2.709994 0,-0.196696 10.118787,-3.037822 10.490319,-2.950406 0.174837,0.0437 4.196125,1.180157 8.916774,2.535161 z m -42.791763,2.819275 c 3.780887,1.07089 7.080966,1.966933 7.321369,1.966933 0.240402,0 3.474918,-0.896043 7.212094,-1.966933 l 6.774997,-1.945082 8.851207,2.53516 c 4.873626,1.376855 8.982338,2.600728 9.135321,2.666294 0.174836,0.0874 -6.927986,2.338462 -15.888464,5.026606 L 50.442715,48.706782 34.22643,43.833159 c -8.916771,-2.666294 -16.085156,-4.91734 -15.910318,-4.961055 0.240404,-0.109253 17.571285,-5.179589 17.877253,-5.245155 0.06557,0 3.21266,0.852341 6.993546,1.945082 z m -32.498134,2.098065 c 2.666289,0.808627 4.917336,1.529837 5.026611,1.595403 0.08742,0.0874 0.131129,3.693467 0.109274,8.042578 l -0.06557,7.867732 -5.135886,-1.464271 -5.1358846,-1.464271 -0.065566,-8.020728 c -0.02185,-5.463702 0.02185,-7.998864 0.1748385,-7.998864 0.1311316,0 2.4258853,0.655645 5.092177,1.442421 z m 84.949727,6.534593 v 7.955162 l -1.136448,0.349666 c -6.490885,1.879517 -9.353868,2.644442 -9.463143,2.557025 -0.06557,-0.06555 -0.109281,-3.627902 -0.109281,-7.933311 V 39.3092 l 1.813953,-0.546363 c 0.983466,-0.305965 3.212658,-1.005325 4.961042,-1.529837 1.748392,-0.524526 3.343789,-0.983474 3.56234,-0.983474 0.34968,-0.02185 0.37153,0.502662 0.37153,7.955163 z m -62.02401,0.34968 16.347416,4.895474 v 7.736615 7.714749 L 49.37183,64.748225 C 48.716184,64.595243 20.720144,56.61823 18.228693,55.875169 L 16.742565,55.438073 V 47.46106 c 0,-6.294195 0.06557,-7.977014 0.284113,-7.889597 0.131131,0.0437 7.605481,2.294762 16.587816,4.982906 z m 50.28797,10.905554 c -0.174842,0.152982 -31.536524,9.13532 -32.585555,9.353868 l -0.480807,0.0874 0.0437,-7.71475 0.06557,-7.714763 16.500398,-4.93919 16.500394,-4.93919 0.06557,7.867746 c 0.02186,4.327247 -0.02186,7.933297 -0.109267,7.998863 z m -66.285705,1.180157 11.692334,3.321938 0.06557,7.692898 c 0.04371,6.075646 0,7.692899 -0.218548,7.692899 -0.152983,-0.02185 -5.551127,-1.529837 -11.976448,-3.365638 L 5.4873289,68.63839 5.4217631,60.945491 c -0.043716,-6.075646 0,-7.671049 0.218548,-7.671049 0.1529837,0.02185 5.5511269,1.529837 11.9764479,3.365638 z m 78.021745,4.283546 v 7.627347 l -1.136448,0.349666 c -0.633793,0.174847 -6.097498,1.748398 -12.151289,3.474919 l -10.971123,3.125253 0.04371,-7.758464 0.06557,-7.758479 11.583059,-3.321923 c 6.381609,-1.835816 11.801607,-3.343788 12.08572,-3.365652 l 0.480805,-0.02185 z m -54.549656,2.425894 9.375723,2.644428 9.747253,-2.77556 c 5.354434,-1.529837 9.878384,-2.841126 10.031368,-2.88484 0.196694,-0.0874 0.262259,1.529836 0.262259,7.649197 v 7.780316 l -1.136452,0.327828 c -0.633789,0.174834 -5.15774,1.464271 -10.031368,2.862976 l -8.894916,2.535162 -9.681691,-2.77556 c -5.332577,-1.507986 -9.878382,-2.86299 -10.075076,-2.972257 -0.371533,-0.174847 -0.393387,-0.764925 -0.393387,-7.692899 0,-4.108713 0.06557,-7.539917 0.13113,-7.627333 0.06557,-0.06555 0.393389,-0.02185 0.699356,0.06556 0.327822,0.109253 4.808063,1.398719 9.965804,2.86299 z m -26.356927,8.829354 1.136451,0.34968 v 7.212088 c 0,6.796856 -0.02185,7.233952 -0.371532,7.146536 -0.218549,-0.06556 -2.57887,-0.743076 -5.245159,-1.486136 L 5.3780534,84.002337 v -7.255803 -7.233952 l 4.1087073,1.158307 c 2.2510483,0.655643 4.6113693,1.333139 5.2451603,1.507985 z m 80.862877,4.633226 -0.06557,7.168372 -4.698787,1.355004 c -2.57887,0.743061 -4.961042,1.42057 -5.288867,1.486136 l -0.611937,0.152982 v -7.233952 -7.212088 l 0.830487,-0.218548 c 0.437093,-0.131103 2.622576,-0.764926 4.851767,-1.42057 2.229198,-0.655643 4.261694,-1.180157 4.545807,-1.202021 l 0.480805,-0.02185 z m -56.298048,2.382165 10.66516,3.037822 v 7.255817 7.255803 L 49.044006,96.459593 C 48.51949,96.32849 41.045138,94.186682 32.434335,91.717086 l -15.69177,-4.458378 v -7.233952 -7.233953 l 5.966369,1.682819 c 3.25637,0.917908 10.730722,3.059688 16.587816,4.720643 z m 44.758696,0.80864 v 7.277654 l -16.325559,4.655075 c -9.004192,2.578876 -16.478543,4.720657 -16.631528,4.764357 -0.218548,0.0874 -0.262257,-1.376854 -0.218548,-7.168385 l 0.06557,-7.277654 16.500398,-4.742506 c 9.069756,-2.600714 16.522252,-4.742493 16.565959,-4.764344 0.02186,-0.02185 0.04372,3.256357 0.04372,7.255803 z"
     id="path1472"
     style="stroke-width:0.0218548" />
</svg>
