<?xml version="1.0" encoding="UTF-8" standalone="no"?>
<!-- Created with Inkscape (http://www.inkscape.org/) -->

<svg
   width="100mm"
   height="100mm"
   viewBox="0 0 100 100"
   version="1.1"
   id="svg26768"
   xmlns="http://www.w3.org/2000/svg"
   xmlns:svg="http://www.w3.org/2000/svg">
  <defs
     id="defs26765" />
  <g
     id="layer1">
    <path
       d="m 45.941167,19.718522 c -0.397527,0.397519 -0.496902,0.819885 -0.496902,1.987601 0,1.316786 0.04967,1.490702 0.496902,1.490702 0.397516,0 0.472045,-0.19876 0.546585,-1.441011 l 0.07451,-1.416167 h 10.80758 10.807592 l 0.07451,1.416167 c 0.07451,1.242251 0.14907,1.441011 0.546585,1.441011 0.447221,0 0.496915,-0.173916 0.496915,-1.490702 0,-2.658417 0.795042,-2.484502 -11.92562,-2.484502 -10.608829,0 -10.956662,0.02485 -11.428706,0.496901 z"
       id="path12854"
       style="stroke-width:0.024845" />
    <path
       d="m 6.1891209,24.935976 v 1.490703 H 23.207967 40.226815 V 24.935976 23.445275 H 23.207967 6.1891209 Z"
       id="path12860"
       style="stroke-width:0.024845" />
    <path
       d="m 49.667909,24.935976 v 1.490703 h 7.701964 7.701964 v -1.490703 -1.490701 h -7.701964 -7.701964 z"
       id="path12862"
       style="stroke-width:0.024845" />
    <path
       d="m 74.512943,24.935976 v 1.490703 h 10.807592 10.80758 V 24.935976 23.445275 H 85.320535 74.512943 Z"
       id="path12864"
       style="stroke-width:0.024845" />
    <path
       d="m 45.444265,27.892535 c 0,1.068336 0.124222,1.614926 0.472055,2.037292 l 0.472056,0.59628 h 10.981497 10.981496 l 0.472056,-0.59628 c 0.347833,-0.422366 0.472068,-0.968956 0.472068,-2.037292 0,-1.291942 -0.04967,-1.465856 -0.496915,-1.465856 -0.447209,0 -0.496891,0.173914 -0.496891,1.366475 0,1.068336 -0.09934,1.391321 -0.472056,1.614927 -0.322986,0.149071 -4.049739,0.24845 -10.459758,0.24845 -6.410019,0 -10.136772,-0.09938 -10.459759,-0.24845 -0.372668,-0.223606 -0.472056,-0.546591 -0.472056,-1.614927 0,-1.192561 -0.04967,-1.366475 -0.496891,-1.366475 -0.447209,0 -0.496902,0.173914 -0.496902,1.465856 z"
       id="path12882"
       style="stroke-width:0.024845" />
    <path
       d="m 2.4623676,32.141033 c -0.3975152,0.397521 -0.4969028,0.819887 -0.4969028,1.987603 0,1.316786 0.04967,1.490701 0.4969028,1.490701 0.3975152,0 0.4720559,-0.19876 0.5465965,-1.441011 l 0.074506,-1.416166 h 10.8075909 10.80758 l 0.0745,1.416166 c 0.07451,1.242251 0.14907,1.441011 0.546585,1.441011 0.447209,0 0.496903,-0.173915 0.496903,-1.490701 0,-2.658418 0.795042,-2.484502 -11.925608,-2.484502 -10.6088274,0 -10.9566605,0.02485 -11.4287164,0.496899 z"
       id="path12892"
       style="stroke-width:0.024845" />
    <path
       d="m 6.1891209,37.358489 v 1.490702 h 7.7019631 7.701952 V 37.358489 35.867788 H 13.891084 6.1891209 Z"
       id="path12906"
       style="stroke-width:0.024845" />
    <path
       d="m 31.034142,37.358489 v 1.490702 h 4.596336 4.596337 v -1.490702 -1.490701 h -4.596337 -4.596336 z"
       id="path12908"
       style="stroke-width:0.024845" />
    <path
       d="m 49.667909,37.358489 v 1.490702 H 60.475501 71.283092 V 37.358489 35.867788 H 60.475501 49.667909 Z"
       id="path12910"
       style="stroke-width:0.024845" />
    <path
       d="m 80.724198,37.358489 v 1.490702 h 7.701964 7.701953 v -1.490702 -1.490701 h -7.701953 -7.701964 z"
       id="path12912"
       style="stroke-width:0.024845" />
    <path
       d="m 1.9654648,40.315047 c 0,1.068336 0.1242228,1.614928 0.4720559,2.037293 l 0.4720559,0.59628 H 13.891084 24.872581 l 0.472055,-0.59628 c 0.347834,-0.422365 0.472056,-0.968957 0.472056,-2.037293 0,-1.291941 -0.04967,-1.465856 -0.496902,-1.465856 -0.447209,0 -0.496903,0.173915 -0.496903,1.366477 0,1.068335 -0.09934,1.39132 -0.472045,1.614926 -0.322986,0.14907 -4.049739,0.24845 -10.459758,0.24845 -6.4100182,0 -10.1367715,-0.09938 -10.4597578,-0.24845 -0.37268,-0.223606 -0.4720558,-0.546591 -0.4720558,-1.614926 0,-1.192562 -0.04967,-1.366477 -0.4969028,-1.366477 -0.447209,0 -0.4969028,0.173915 -0.4969028,1.465856 z"
       id="path12914"
       style="stroke-width:0.024845" />
    <path
       d="m 6.1891209,49.781002 v 1.490702 H 9.2947482 12.400376 V 49.781002 48.290301 H 9.2947482 6.1891209 Z"
       id="path12934"
       style="stroke-width:0.024845" />
    <path
       d="m 21.593036,49.781002 v 1.490702 h 4.720559 4.720547 v -1.490702 -1.490701 h -4.720547 -4.720559 z"
       id="path12936"
       style="stroke-width:0.024845" />
    <path
       d="m 40.226815,49.781002 v 1.490702 H 58.86057 77.494348 V 49.781002 48.290301 H 58.86057 40.226815 Z"
       id="path12938"
       style="stroke-width:0.024845" />
    <path
       d="m 86.935454,49.781002 v 1.490702 h 4.596324 4.596337 v -1.490702 -1.490701 h -4.596337 -4.596324 z"
       id="path12940"
       style="stroke-width:0.024845" />
    <path
       d="m 33.518656,56.986061 c -0.397527,0.397518 -0.496903,0.819881 -0.496903,1.987601 0,1.316785 0.04967,1.490703 0.496903,1.490703 0.397515,0 0.472044,-0.198758 0.546585,-1.441011 l 0.07451,-1.41617 H 44.947338 55.75493 l 0.07451,1.41617 c 0.07451,1.242253 0.149069,1.441011 0.546585,1.441011 0.447209,0 0.496902,-0.173918 0.496902,-1.490703 0,-2.658418 0.795043,-2.484502 -11.925608,-2.484502 -10.608828,0 -10.956661,0.02485 -11.428705,0.496901 z"
       id="path12948"
       style="stroke-width:0.024845" />
    <path
       d="m 6.1891209,62.079288 v 1.61493 h 10.8075911 10.80758 v -1.61493 -1.614923 H 16.996712 6.1891209 Z"
       id="path12954"
       style="stroke-width:0.024845" />
    <path
       d="m 37.245398,62.079288 v 1.61493 h 7.701964 7.701964 v -1.61493 -1.614923 h -7.701964 -7.701964 z"
       id="path12956"
       style="stroke-width:0.024845" />
    <path
       d="m 62.090432,62.079288 v 1.61493 h 17.018835 17.018848 v -1.61493 -1.614923 H 79.109267 62.090432 Z"
       id="path12958"
       style="stroke-width:0.024845" />
    <path
       d="m 33.021753,65.160075 c 0,1.068334 0.124223,1.614923 0.472056,2.037293 l 0.472056,0.596277 h 10.981497 10.981496 l 0.472056,-0.596277 c 0.347833,-0.42237 0.472056,-0.968959 0.472056,-2.037293 0,-1.291945 -0.04967,-1.465857 -0.496903,-1.465857 -0.397515,0 -0.472044,0.198759 -0.546585,1.416165 l -0.07451,1.441009 H 44.947385 34.139793 l -0.07451,-1.441009 c -0.07451,-1.217406 -0.14907,-1.416165 -0.546585,-1.416165 -0.447209,0 -0.496903,0.173912 -0.496903,1.465857 z"
       id="path12968"
       style="stroke-width:0.024845" />
    <path
       d="m 6.1891209,74.501802 v 1.614929 H 35.630478 65.071837 V 74.501802 72.886879 H 35.630478 6.1891209 Z"
       id="path12974"
       style="stroke-width:0.024845" />
    <path
       d="m 74.512943,74.501802 v 1.614929 h 10.807592 10.80758 V 74.501802 72.886879 H 85.320535 74.512943 Z"
       id="path12976"
       style="stroke-width:0.024845" />
  </g>
</svg>
