<?xml version="1.0" encoding="UTF-8" standalone="no"?>
<!-- Created with Inkscape (http://www.inkscape.org/) -->

<svg
   width="100mm"
   height="100mm"
   viewBox="0 0 100 100"
   version="1.1"
   id="svg26768"
   xmlns="http://www.w3.org/2000/svg"
   xmlns:svg="http://www.w3.org/2000/svg">
  <defs
     id="defs26765" />
  <path
     d="m 5.5498715,3.849677 c -0.347149,0.074402 -0.867871,0.2975521 -1.190223,0.4959259 -1.38859,0.9174504 -1.314201,-1.9341143 -1.314201,45.9970771 0,43.294282 0.0248,44.236539 0.471129,44.930836 0.272758,0.396741 0.743888,0.867868 1.066239,1.041442 0.446333,0.27276 7.6124545,0.322351 35.7066265,0.347147 H 75.40096 l 0.768683,-0.644703 c 0.421537,-0.347145 0.867871,-1.041442 1.016649,-1.537368 0.173579,-0.619907 0.247963,-5.529567 0.19837,-14.803372 l -0.07439,-13.885914 h -1.487777 -1.487776 l -0.07439,13.935506 -0.04959,13.9603 H 40.115868 6.0209985 V 50.293092 6.8996156 H 29.329492 52.637986 V 16.966899 27.034184 l 0.71909,0.719094 0.719092,0.719094 h 10.067286 10.067284 v 1.61175 1.61175 h 1.636555 1.636552 l -0.09918,-2.30605 C 77.1863,25.372827 77.459055,25.719986 66.573495,14.784822 58.142762,6.3292885 56.82856,5.1142862 55.514357,4.49437 L 54.001784,3.8000703 30.073386,3.7753288 C 16.906568,3.7505873 5.8722285,3.8000703 5.5498765,3.8497301 Z m 58.9903215,13.092427 8.554714,8.554712 h -8.753083 -8.728287 v -8.554712 c 0,-4.711294 0.07439,-8.5547108 0.19837,-8.5547108 0.09918,0 4.016996,3.8434168 8.728286,8.5547108 z"
     id="path1470"
     style="stroke-width:0.0247963" />
  <path
     d="m 38.628093,39.382723 1.46298,1.487777 H 69.549041 99.00701 V 39.382723 37.894945 H 68.086061 37.165113 Z"
     id="path1518"
     style="stroke-width:0.0247963" />
  <path
     d="m 37.264299,47.243135 c 0,0.09915 0.644701,0.81829 1.413387,1.611768 l 1.413387,1.438189 H 69.549041 99.00701 v -1.611768 -1.61175 H 68.135654 c -16.985444,0 -30.871355,0.0744 -30.871355,0.173543 z"
     id="path1546"
     style="stroke-width:0.0247963" />
  <path
     d="m 38.628093,57.979924 1.46298,1.487777 H 69.549041 99.00701 V 57.979924 56.492147 H 68.086061 37.165113 Z"
     id="path1552"
     style="stroke-width:0.0247963" />
</svg>
