<?xml version="1.0" encoding="UTF-8" standalone="no"?>
<!-- Created with Inkscape (http://www.inkscape.org/) -->

<svg
   width="100mm"
   height="100mm"
   viewBox="0 0 100 100"
   version="1.1"
   id="svg26768"
   sodipodi:docname="a forwarders.svg"
   inkscape:version="1.1.1 (3bf5ae0d25, 2021-09-20)"
   xmlns:inkscape="http://www.inkscape.org/namespaces/inkscape"
   xmlns:sodipodi="http://sodipodi.sourceforge.net/DTD/sodipodi-0.dtd"
   xmlns="http://www.w3.org/2000/svg"
   xmlns:svg="http://www.w3.org/2000/svg">
  <sodipodi:namedview
     id="namedview26770"
     pagecolor="#ffffff"
     bordercolor="#666666"
     borderopacity="1.0"
     inkscape:pageshadow="2"
     inkscape:pageopacity="0.0"
     inkscape:pagecheckerboard="0"
     inkscape:document-units="mm"
     showgrid="false"
     width="209mm"
     inkscape:zoom="0.7500982"
     inkscape:cx="13.998167"
     inkscape:cy="135.31562"
     inkscape:window-width="1920"
     inkscape:window-height="1027"
     inkscape:window-x="1912"
     inkscape:window-y="-8"
     inkscape:window-maximized="1"
     inkscape:current-layer="layer1" />
  <defs
     id="defs26765" />
  <g
     inkscape:label="Layer 1"
     inkscape:groupmode="layer"
     id="layer1">
    <path
       d="m 26.053355,2.0914778 c -2.627391,0.9165315 -4.358617,3.1162079 -4.623394,5.8861701 l -0.122208,1.2424104 -1.527552,0.2240415 c -2.688495,0.4277146 -4.664129,1.9552672 -5.539926,4.2567792 -0.407348,1.099839 -0.407348,1.262778 -0.366613,40.551438 l 0.06109,39.451601 0.549918,1.038737 c 0.712857,1.36461 2.342249,2.810689 3.686495,3.279141 0.998001,0.346246 2.545921,0.366619 30.082608,0.366619 h 29.023505 l 1.140571,-0.52955 c 2.281147,-1.079472 3.747598,-3.177318 3.992006,-5.743606 l 0.122209,-1.323873 1.344247,-0.08142 c 2.342249,-0.183304 4.48082,-1.629395 5.539926,-3.788328 l 0.488824,-0.95732 V 46.24794 6.5315648 L 89.35515,5.5131969 C 88.703392,4.2504198 87.257305,2.8858053 85.974161,2.2951516 L 85.016897,1.8470697 55.993392,1.8063343 C 30.004626,1.7655989 26.86805,1.7859719 26.053355,2.0914778 Z M 85.261304,4.739236 c 1.01837,0.5499195 1.771963,1.4868187 2.077476,2.6070238 0.183306,0.5906537 0.224037,8.6561342 0.183306,30.4492212 l -0.0611,29.634525 -0.448082,0.957267 c -0.733225,1.588654 -2.362614,2.993999 -4.073474,3.523559 l -0.468453,0.122209 -0.04074,-28.779102 -0.0611,-28.7791 -0.448083,-0.957266 C 81.269298,12.07149 79.823215,10.645774 78.336395,9.9736514 L 77.07362,9.3829967 50.453464,9.321899 23.812941,9.2608012 V 8.8127194 c 0,-0.2647759 0.142572,-0.9368992 0.305512,-1.5071853 0.346246,-1.1609406 1.710859,-2.6070238 2.688494,-2.8310653 0.305509,-0.061098 0.672123,-0.1425706 0.773959,-0.183306 0.122209,-0.040735 12.953649,-0.061098 28.514321,-0.040735 l 28.310647,0.040735 z m -7.230417,7.90254 c 0.468451,0.346246 1.079472,0.998001 1.32388,1.425717 l 0.468449,0.814695 v 30.062239 30.062241 l -0.631388,1.242415 c -0.733225,1.486814 -1.873798,2.525552 -3.380983,3.095837 -1.079471,0.407343 -1.547921,0.407343 -27.740361,0.407343 -29.940037,0 -27.679258,0.122209 -29.553057,-1.568287 -0.570285,-0.509175 -1.283144,-1.405344 -1.588654,-1.975629 l -0.54992,-1.038736 -0.06109,-29.736366 c -0.04074,-21.059862 0,-29.960404 0.162937,-30.510322 0.285144,-0.998002 1.32388,-2.158942 2.342249,-2.607024 0.77396,-0.366613 2.097839,-0.386981 29.573423,-0.325879 l 28.738363,0.04074 z m 9.307893,72.670779 c -0.448087,1.649757 -2.321883,2.994003 -4.195681,2.994003 h -0.672124 v -7.698862 -7.6785 l 0.977633,-0.346246 c 1.384984,-0.509187 2.749596,-1.466453 3.421722,-2.444081 l 0.59065,-0.83506 0.0611,7.576656 c 0.02038,5.112212 -0.02038,7.882178 -0.183306,8.43209 z M 17.906407,78.81537 c 0.468449,0.427716 1.283144,0.977628 1.812695,1.222041 l 0.936899,0.427716 27.068238,0.06109 c 29.838199,0.0611 27.923666,0.122209 29.940037,-1.201667 0.509183,-0.346245 1.201675,-0.998002 1.547919,-1.466454 l 0.611021,-0.835069 v 7.90255 c 0,6.863802 -0.04074,7.963636 -0.325877,8.533921 -0.46845,0.916531 -1.079471,1.547924 -1.955268,1.996003 -0.733225,0.366619 -1.649756,0.386981 -29.45122,0.386981 H 19.393225 L 18.497061,95.374038 C 18.008244,95.109263 17.33612,94.498242 16.989876,94.029791 l -0.611023,-0.875795 -0.06109,-8.167314 c -0.04074,-8.065481 -0.04074,-8.187687 0.325877,-7.576667 0.203673,0.325882 0.77396,0.957266 1.262778,1.405355 z"
       id="path2435"
       style="stroke-width:0.0203674" />
    <path
       d="m 52.06249,25.004771 c 0.224041,0.264777 4.48082,4.969639 9.45046,10.46883 4.969638,5.478822 9.206052,10.183685 9.409725,10.407727 0.38698,0.427714 0.346245,0.488817 -8.839439,10.591033 -5.051108,5.58066 -9.491195,10.448461 -9.83744,10.815075 l -0.63139,0.672123 1.771962,-0.0611 1.751594,-0.06109 9.796707,-10.774341 9.796705,-10.794706 -0.46845,-0.509185 C 73.998148,45.473988 69.619163,40.646922 64.547687,35.045894 59.455845,29.444866 55.199064,24.801106 55.07686,24.719636 54.975032,24.638163 54.139961,24.556697 53.264164,24.556697 h -1.609023 z"
       id="path2437"
       style="stroke-width:0.0203674" />
    <path
       d="m 30.330504,30.972411 1.303512,1.323879 H 41.776967 51.919918 V 30.972411 29.648533 H 40.473456 29.026992 Z"
       id="path2439"
       style="stroke-width:0.0203674" />
    <path
       d="m 22.692738,38.610176 1.201676,1.222042 H 40.453087 57.01176 V 38.610176 37.388133 H 39.251413 21.491065 Z"
       id="path2441"
       style="stroke-width:0.0203674" />
    <path
       d="m 30.330504,46.24794 1.303512,1.32388 H 48.090851 64.547687 V 46.24794 44.924061 H 46.78734 29.026992 Z"
       id="path2443"
       style="stroke-width:0.0203674" />
    <path
       d="m 25.136824,53.885705 1.201675,1.222042 H 42.897171 59.455845 V 53.885705 52.663663 H 41.695497 23.935149 Z"
       id="path2445"
       style="stroke-width:0.0203674" />
    <path
       d="m 31.75622,60.342162 c 0,0.08147 0.529551,0.672123 1.16094,1.323878 l 1.16094,1.181308 h 8.92091 8.920908 V 61.523468 60.19959 H 41.838069 c -5.539925,0 -10.081849,0.06109 -10.081849,0.142572 z"
       id="path2447"
       style="stroke-width:0.0203674" />
    <path
       d="m 23.263025,85.801378 c -0.631389,0.122209 -1.649757,1.120209 -1.812695,1.771964 -0.203674,0.875796 0.08147,1.833061 0.77396,2.484816 0.570286,0.52955 0.590654,0.52955 0.30551,0.08142 -0.794328,-1.181315 -0.04074,-2.647758 1.384982,-2.647758 1.303511,0 2.036736,1.242403 1.425716,2.464443 l -0.346246,0.692492 0.631389,-0.61102 c 1.486818,-1.446081 0.733225,-3.890161 -1.303512,-4.216045 -0.346245,-0.0611 -0.814695,-0.0611 -1.059104,-0.02033 z"
       id="path2449"
       style="stroke-width:0.0203674" />
  </g>
</svg>
