<?xml version="1.0" encoding="UTF-8" standalone="no"?>
<!-- Created with Inkscape (http://www.inkscape.org/) -->

<svg
   width="100mm"
   height="100mm"
   viewBox="0 0 100 100"
   version="1.1"
   id="svg26768"
   sodipodi:docname="a forwarder.svg"
   inkscape:version="1.1.1 (3bf5ae0d25, 2021-09-20)"
   xmlns:inkscape="http://www.inkscape.org/namespaces/inkscape"
   xmlns:sodipodi="http://sodipodi.sourceforge.net/DTD/sodipodi-0.dtd"
   xmlns="http://www.w3.org/2000/svg"
   xmlns:svg="http://www.w3.org/2000/svg">
  <sodipodi:namedview
     id="namedview26770"
     pagecolor="#ffffff"
     bordercolor="#666666"
     borderopacity="1.0"
     inkscape:pageshadow="2"
     inkscape:pageopacity="0.0"
     inkscape:pagecheckerboard="0"
     inkscape:document-units="mm"
     showgrid="false"
     width="209mm"
     inkscape:zoom="0.7500982"
     inkscape:cx="13.998167"
     inkscape:cy="135.31562"
     inkscape:window-width="1920"
     inkscape:window-height="1027"
     inkscape:window-x="1912"
     inkscape:window-y="-8"
     inkscape:window-maximized="1"
     inkscape:current-layer="layer1" />
  <defs
     id="defs26765" />
  <g
     inkscape:label="Layer 1"
     inkscape:groupmode="layer"
     id="layer1">
    <path
       d="M 18.197837,1.1332384 C 16.080462,1.8089928 14.188349,3.5884896 13.399964,5.7058514 12.94947,6.9222116 12.94947,7.1024217 12.994518,50.440905 l 0.0676,43.518681 0.608187,1.126261 c 0.743333,1.44162 2.004743,2.70303 3.446351,3.446353 l 1.126262,0.608186 H 50.904457 83.565994 L 84.692256,98.5322 c 1.486665,-0.765854 3.085952,-2.500302 3.626557,-3.896859 C 88.72426,93.53161 88.74679,92.337768 88.74679,49.922818 V 6.3365562 L 88.251231,5.2778752 C 87.575477,3.7912183 86.178919,2.3721294 84.6472,1.5837454 L 83.340741,0.93050963 51.242327,0.88544803 C 25.270775,0.86291713 18.963714,0.90797883 18.197861,1.1332261 Z M 82.394653,3.723638 c 1.216372,0.2928277 2.455253,1.2163601 3.108487,2.3426214 l 0.540606,0.9460511 V 40.124356 73.236401 l -0.585668,1.26141 c -0.743322,1.599299 -1.959682,2.81566 -3.558969,3.558994 l -1.261422,0.585642 H 50.904424 21.171162 l -1.509188,-0.743333 c -1.621816,-0.788373 -2.545349,-1.734435 -3.378782,-3.423821 l -0.518076,-1.013632 -0.0676,-32.999428 -0.04506,-32.9768847 0.585655,-1.2163601 c 0.630709,-1.2839405 1.75697,-2.207473 3.06343,-2.5228316 1.036162,-0.2477659 62.034406,-0.2702969 63.093086,-0.022531 z M 16.666118,76.750334 c 0.878483,1.103743 2.522832,2.162422 3.964439,2.54535 1.32899,0.360408 3.82929,0.382927 30.836992,0.315346 l 29.395398,-0.0676 1.419088,-0.653234 c 0.968582,-0.450495 1.802016,-1.058682 2.657968,-2.004745 l 1.238891,-1.32899 -0.0676,8.739782 c -0.0676,8.582113 -0.0676,8.784829 -0.563125,9.708362 -0.563136,1.05868 -1.599298,1.892127 -2.748077,2.297571 -1.058682,0.337878 -62.575012,0.360408 -63.85894,0 -1.126262,-0.315346 -2.65798,-1.847064 -3.018376,-3.040893 -0.38294,-1.328991 -0.38294,-17.930069 0.02253,-17.411994 0.157679,0.18021 0.473039,0.585668 0.720816,0.901014 z"
       id="path1459"
       style="stroke-width:0.0225252" />
    <path
       d="m 55.116642,17.891983 c 0.04506,0.09013 4.842923,5.428578 10.654415,11.825737 5.834033,6.419678 10.609376,11.735626 10.654413,11.848256 0.02253,0.09013 -4.775329,5.496145 -10.676932,11.983404 l -10.722007,11.803205 1.847076,0.0676 1.824534,0.0676 1.036164,-1.148779 c 0.563125,-0.630704 5.428565,-5.969183 10.789574,-11.893305 5.383528,-5.901603 9.753412,-10.812105 9.708362,-10.879674 -0.02253,-0.09013 -4.88797,-5.496145 -10.812093,-12.005934 L 58.630574,17.711828 h -1.802016 c -0.991112,0 -1.756966,0.09013 -1.711916,0.180197 z"
       id="path1461"
       style="stroke-width:0.0225252" />
    <path
       d="m 31.082254,24.694601 1.328991,1.351508 H 43.741413 55.071592 V 24.694601 23.343092 H 42.412434 29.753264 Z"
       id="path1463"
       style="stroke-width:0.0225252" />
    <path
       d="m 21.50904,31.835082 c 0,0.09013 0.585655,0.743334 1.283941,1.464139 l 1.283928,1.306471 H 42.389904 60.702887 V 33.141554 31.677415 H 41.105963 c -10.767042,0 -19.596923,0.0676 -19.596923,0.157667 z"
       id="path1465"
       style="stroke-width:0.0225252" />
    <path
       d="m 31.082254,41.588495 1.328991,1.35152 H 50.836857 69.26247 v -1.35152 -1.35151 H 49.507867 29.753264 Z"
       id="path1467"
       style="stroke-width:0.0225252" />
    <path
       d="m 24.437317,48.728988 c 0,0.09013 0.585655,0.743322 1.283941,1.464139 l 1.283928,1.306459 H 45.3407 63.653695 l -0.0676,-1.419089 -0.0676,-1.396558 -19.529356,-0.0676 c -10.767042,-0.02253 -19.551873,0.02253 -19.551873,0.112658 z"
       id="path1469"
       style="stroke-width:0.0225252" />
    <path
       d="m 34.010531,58.4824 1.328979,1.351509 h 9.86604 9.866042 V 58.4824 57.130892 H 43.876561 32.681542 Z"
       id="path1471"
       style="stroke-width:0.0225252" />
    <path
       d="m 22.68035,85.737893 c -1.756965,1.081199 -1.734434,3.85181 0.02253,4.752811 0.495555,0.270309 0.495555,0.270309 0.0676,-0.225247 -0.585655,-0.653236 -0.585655,-1.914645 0,-2.500302 0.22526,-0.247777 0.743335,-0.495556 1.148793,-0.585655 0.608174,-0.112657 0.833434,-0.02253 1.419089,0.540607 0.675754,0.698284 0.923533,1.892114 0.450494,2.184942 -0.112658,0.0676 -0.225247,0.247778 -0.225247,0.405457 0,0.135149 0.270309,-0.02253 0.630704,-0.360408 0.518087,-0.518076 0.608187,-0.810904 0.608187,-1.847065 0,-1.081212 -0.09013,-1.306459 -0.698285,-1.937165 -0.946063,-0.923532 -2.342622,-1.103729 -3.423833,-0.427975 z"
       id="path1473"
       style="stroke-width:0.0225252" />
  </g>
</svg>
