<?xml version="1.0" encoding="UTF-8" standalone="no"?>
<!-- Created with Inkscape (http://www.inkscape.org/) -->

<svg
   width="100mm"
   height="100mm"
   viewBox="0 0 100 100"
   version="1.1"
   id="svg26768"
   sodipodi:docname="a heavy forwarders.svg"
   inkscape:version="1.1.1 (3bf5ae0d25, 2021-09-20)"
   xmlns:inkscape="http://www.inkscape.org/namespaces/inkscape"
   xmlns:sodipodi="http://sodipodi.sourceforge.net/DTD/sodipodi-0.dtd"
   xmlns="http://www.w3.org/2000/svg"
   xmlns:svg="http://www.w3.org/2000/svg">
  <sodipodi:namedview
     id="namedview26770"
     pagecolor="#ffffff"
     bordercolor="#666666"
     borderopacity="1.0"
     inkscape:pageshadow="2"
     inkscape:pageopacity="0.0"
     inkscape:pagecheckerboard="0"
     inkscape:document-units="mm"
     showgrid="false"
     width="209mm"
     inkscape:zoom="0.7500982"
     inkscape:cx="13.998167"
     inkscape:cy="135.31562"
     inkscape:window-width="1920"
     inkscape:window-height="1027"
     inkscape:window-x="1912"
     inkscape:window-y="-8"
     inkscape:window-maximized="1"
     inkscape:current-layer="layer1" />
  <defs
     id="defs26765" />
  <g
     inkscape:label="Layer 1"
     inkscape:groupmode="layer"
     id="layer1">
    <path
       d="M 25.249016,2.0745667 C 23.871101,2.3379884 22.716095,3.0066848 21.682658,4.1009059 20.50738,5.3572413 19.980537,6.5325197 19.818422,8.1941185 L 19.696841,9.4909656 18.460778,9.5922733 C 16.08996,9.7949105 14.043359,11.152553 12.908603,13.300485 l -0.547115,1.013163 V 53.827279 93.34091 l 0.547115,1.053698 c 0.70922,1.337382 1.722395,2.350546 3.059776,3.059765 l 1.053699,0.547116 29.017183,0.06081 c 28.895604,0.04051 29.017185,0.04051 30.131678,-0.36474 2.370818,-0.891595 4.113475,-3.22189 4.3161,-5.754811 l 0.121581,-1.276597 1.19554,-0.141842 c 3.302936,-0.344478 5.714289,-2.593716 6.241132,-5.815595 0.263421,-1.742657 0.283683,-74.8935271 0,-76.8590706 C 87.680552,5.3775029 86.322909,3.5740625 84.012875,2.47983 L 82.87812,1.9529864 54.50936,1.9124864 c -15.602813,0 -28.774023,0.060807 -29.260344,0.1621032 z m 58.277538,3.0192417 c 0.810528,0.4660591 1.155018,0.8105379 1.56028,1.6818716 l 0.526844,1.0739596 -0.04049,29.7669254 -0.06081,29.78721 -0.547105,1.013165 c -0.851073,1.621075 -2.97873,3.343458 -4.133736,3.343458 -0.222899,0 -0.283694,-4.640317 -0.324217,-28.632181 L 80.44651,14.516296 79.98045,13.563917 c -0.72948,-1.4387 -1.945282,-2.715297 -3.242141,-3.343459 L 75.58329,9.65308 48.99772,9.592273 22.391867,9.5517727 V 8.5183359 c 0,-1.6615988 1.033436,-3.1610946 2.63425,-3.8095181 C 25.3503,4.5872381 35.785953,4.5061917 54.002743,4.5061917 l 28.47008,-0.020306 z M 75.5833,12.429161 c 0.790278,0.425536 1.661599,1.296859 2.087125,2.087135 0.324217,0.567379 0.34449,3.039504 0.34449,30.3951 v 29.787199 l -0.445798,0.952379 c -0.607912,1.337381 -2.107396,2.857139 -3.363732,3.424516 l -1.053686,0.486321 H 46.383742 19.615797 l -1.398178,-0.70922 c -0.992913,-0.506582 -1.600814,-0.992914 -2.147919,-1.722395 -1.458973,-1.92502 -1.377915,0.202637 -1.377915,-32.2188 0,-21.317102 0.06081,-29.402197 0.222898,-29.908779 0.48632,-1.398178 1.499495,-2.370819 3.019241,-2.836877 0.283695,-0.081 13.232006,-0.141841 28.774035,-0.121581 25.896623,0.04051 28.328226,0.06081 28.875341,0.385002 z m 9.929071,72.239026 c -0.263433,1.80344 -2.066874,3.302925 -4.012156,3.302925 h -0.952379 l 0.04051,-7.619025 0.06081,-7.619048 0.891584,-0.303944 c 0.506593,-0.162115 1.236073,-0.506593 1.621075,-0.770016 0.790278,-0.486319 2.228977,-1.965554 2.289762,-2.391079 0.121581,-0.567377 0.162103,14.630172 0.06081,15.400187 z m -69.30083,-6.139814 c 0.324218,0.324218 1.19554,0.871323 1.92502,1.215802 l 1.317121,0.628162 h 26.950322 26.95032 l 1.357655,-0.668685 c 0.932118,-0.445797 1.68186,-1.033436 2.391079,-1.823702 l 1.033425,-1.155017 -0.06081,7.922992 -0.06081,7.922982 -0.607911,0.972641 c -0.445798,0.729492 -0.911857,1.155027 -1.702123,1.560291 L 74.63087,95.671216 H 46.56606 c -21.641308,0 -28.267441,-0.06081 -28.915864,-0.24316 -1.07396,-0.324217 -2.451877,-1.702133 -2.735559,-2.715308 -0.141842,-0.506581 -0.222899,-3.606881 -0.222899,-8.38904 l 0.0203,-7.598775 0.445797,0.6079 c 0.243161,0.324218 0.70922,0.871324 1.053699,1.19554 z"
       id="path3351"
       style="stroke-width:0.0202634" />
    <path
       d="m 50.476943,25.195108 c 0.243172,0.263423 4.559271,5.005058 9.584591,10.577494 5.045592,5.552175 9.219851,10.212753 9.280647,10.354595 0.06081,0.222899 -10.415391,11.97567 -18.763919,21.033406 l -0.526844,0.567379 1.762917,-0.06081 1.742657,-0.06081 9.645375,-10.597754 c 5.309003,-5.835857 9.645375,-10.678813 9.645375,-10.759871 0,-0.08111 -4.356634,-4.924 -9.665648,-10.759869 L 53.516457,24.85059 51.794074,24.78978 50.07168,24.72897 Z"
       id="path3353"
       style="stroke-width:0.0202634" />
    <path
       d="m 21.074757,31.030965 1.19554,1.215802 h 5.126639 5.126637 v -1.215802 -1.2158 h -6.322177 -6.322178 z"
       id="path3355"
       style="stroke-width:0.0202634" />
    <path
       d="m 34.955188,31.030965 v 1.215802 h 1.58054 1.560281 l 7.598775,7.598776 7.598774,7.598774 h 4.802432 4.822683 V 46.228515 45.012714 H 58.703891 54.50936 L 46.910585,37.413939 39.31181,29.815165 h -2.168181 -2.188441 z"
       id="path3357"
       style="stroke-width:0.0202634" />
    <path
       d="m 45.086883,30.524384 -0.688958,0.70922 0.891595,0.911845 0.891585,0.911856 0.425536,-0.405263 c 0.344478,-0.324218 0.709218,-0.405275 1.985815,-0.405275 h 1.56028 v -1.215802 -1.2158 h -2.188452 -2.188443 z"
       id="path3359"
       style="stroke-width:0.0202634" />
    <path
       d="m 38.602591,37.008665 c -0.182365,0.222899 -0.688946,0.303955 -1.945282,0.303955 h -1.702121 v 1.317121 1.317119 h 2.188441 2.188454 l 0.648423,-0.668696 c 0.364742,-0.36474 0.648436,-0.749742 0.648436,-0.871322 0,-0.202637 -1.458974,-1.702122 -1.661599,-1.702122 -0.06081,0 -0.222899,0.141842 -0.364752,0.303945 z"
       id="path3361"
       style="stroke-width:0.0202634" />
    <path
       d="m 19.960264,37.474724 c 0,0.081 0.526854,0.668696 1.175277,1.31712 l 1.17528,1.155016 5.045591,-0.04051 5.065843,-0.06081 v -1.2158 -1.215802 l -6.220859,-0.06081 c -3.444778,-0.0203 -6.241132,0.0203 -6.241132,0.121581 z"
       id="path3363"
       style="stroke-width:0.0202634" />
    <path
       d="m 50.882218,37.474724 c -0.06081,0.101302 0.425524,0.688958 1.073959,1.337381 l 1.155017,1.155017 2.330284,-0.06081 2.310034,-0.06081 V 38.629701 37.4139 l -3.383994,-0.06081 c -1.843963,-0.0203 -3.424516,0.0203 -3.4853,0.121581 z"
       id="path3365"
       style="stroke-width:0.0202634" />
    <path
       d="m 44.377664,43.999539 -0.992902,1.013175 h -4.214794 -4.21478 v 1.215801 1.215802 h 4.721363 4.721374 l 1.357654,-1.377905 1.357643,-1.377915 -0.871322,-0.851061 -0.871334,-0.851062 z"
       id="path3367"
       style="stroke-width:0.0202634" />
    <path
       d="m 21.074757,46.228515 1.19554,1.215802 h 5.126639 5.126637 v -1.215802 -1.215801 h -6.322177 -6.322178 z"
       id="path3369"
       style="stroke-width:0.0202634" />
    <path
       d="m 19.960264,52.672273 c 0,0.081 0.526854,0.668697 1.175277,1.31712 l 1.17528,1.155017 5.045591,-0.04051 5.065843,-0.06081 v -1.215794 -1.2158 l -6.220859,-0.06081 c -3.444778,-0.0203 -6.241132,0.0203 -6.241132,0.121582 z"
       id="path3371"
       style="stroke-width:0.0202634" />
    <path
       d="m 34.955188,53.827291 v 1.317119 h 1.681859 1.661599 l 3.748723,3.748734 3.748734,3.748723 h 2.168181 2.188452 v -1.215802 -1.215801 h -1.56028 -1.560291 L 43.161863,56.360212 39.291549,52.51017 h -2.16818 -2.168181 z"
       id="path3373"
       style="stroke-width:0.0202634" />
    <path
       d="m 45.188202,53.320708 -0.790277,0.810538 0.830799,0.851061 c 0.810538,0.810538 0.871324,0.8308 1.236075,0.506582 0.324217,-0.303955 1.053699,-0.344479 5.835858,-0.385002 l 5.450855,-0.06081 v -1.215802 -1.215801 l -5.876393,-0.06081 -5.896641,-0.0405 z"
       id="path3375"
       style="stroke-width:0.0202634" />
    <path
       d="m 38.602591,59.906307 c -0.182365,0.222899 -0.688946,0.303957 -1.945282,0.303957 h -1.702121 v 1.215801 1.215802 h 2.188441 2.188454 l 0.688947,-0.709209 0.688958,-0.70923 -0.790266,-0.810538 c -0.891595,-0.911845 -0.952379,-0.932118 -1.317131,-0.506583 z"
       id="path3377"
       style="stroke-width:0.0202634" />
    <path
       d="m 21.074757,61.426065 1.19554,1.215802 h 5.126639 5.126637 v -1.215802 -1.215801 h -6.322177 -6.322178 z"
       id="path3379"
       style="stroke-width:0.0202634" />
    <path
       d="m 21.176077,85.782669 c -0.851073,0.466059 -1.458974,1.560281 -1.357655,2.451876 0.121581,0.891595 0.567377,1.661598 1.19554,1.985816 l 0.425536,0.243161 -0.425536,-0.567379 c -0.243161,-0.303956 -0.445786,-0.790276 -0.445786,-1.053698 0,-0.668696 1.033425,-1.68186 1.722383,-1.68186 0.688958,0 1.722395,1.013164 1.722395,1.68186 0,0.263422 -0.202637,0.749742 -0.445798,1.053698 l -0.425536,0.567379 0.445798,-0.243161 c 1.337381,-0.72948 1.600802,-2.796355 0.466058,-3.910849 -0.688957,-0.709207 -2.0466,-0.952367 -2.877399,-0.526843 z"
       id="path3381"
       style="stroke-width:0.0202634" />
  </g>
</svg>
