<?xml version="1.0" encoding="UTF-8" standalone="no"?>
<!-- Created with Inkscape (http://www.inkscape.org/) -->

<svg
   width="100mm"
   height="100mm"
   viewBox="0 0 100 100"
   version="1.1"
   id="svg26768"
   sodipodi:docname="a heavy forwarder.svg"
   inkscape:version="1.1.1 (3bf5ae0d25, 2021-09-20)"
   xmlns:inkscape="http://www.inkscape.org/namespaces/inkscape"
   xmlns:sodipodi="http://sodipodi.sourceforge.net/DTD/sodipodi-0.dtd"
   xmlns="http://www.w3.org/2000/svg"
   xmlns:svg="http://www.w3.org/2000/svg">
  <sodipodi:namedview
     id="namedview26770"
     pagecolor="#ffffff"
     bordercolor="#666666"
     borderopacity="1.0"
     inkscape:pageshadow="2"
     inkscape:pageopacity="0.0"
     inkscape:pagecheckerboard="0"
     inkscape:document-units="mm"
     showgrid="false"
     width="209mm"
     inkscape:zoom="0.7500982"
     inkscape:cx="13.998167"
     inkscape:cy="135.31562"
     inkscape:window-width="1920"
     inkscape:window-height="1027"
     inkscape:window-x="1912"
     inkscape:window-y="-8"
     inkscape:window-maximized="1"
     inkscape:current-layer="layer1" />
  <defs
     id="defs26765" />
  <g
     inkscape:label="Layer 1"
     inkscape:groupmode="layer"
     id="layer1">
    <path
       d="m 19.411743,1.0489572 c -0.651376,0.1123069 -1.617208,0.4043024 -2.133816,0.6738363 -1.370135,0.6962993 -2.964881,2.4707344 -3.526411,3.9307143 -0.449225,1.2353673 -0.449225,1.30275 -0.404304,44.7427472 l 0.06738,43.50738 0.516608,0.965835 c 0.831067,1.572293 2.156278,2.852583 3.7061,3.548869 l 1.392599,0.651384 h 32.119547 32.119543 l 1.257828,-0.583989 c 1.617208,-0.763681 3.009805,-2.156282 3.773485,-3.77349 l 0.583997,-1.257828 V 49.991954 6.5294955 l -0.628918,-1.28029 C 87.491699,3.6993815 85.604958,1.9024848 84.122516,1.3409525 83.0893,0.93665161 81.651782,0.91419021 51.823283,0.89172881 34.415838,0.86926731 20.085579,0.93664851 19.411743,1.0489572 Z m 64.688311,3.4590275 c 0.516609,0.381841 1.212907,1.1455231 1.527363,1.6845926 l 0.56153,1.0107546 V 40.109016 73.014704 l -0.583989,1.235366 c -0.763681,1.662132 -1.707054,2.695348 -3.167033,3.503952 l -1.190444,0.651376 -29.648811,0.06738 c -33.489679,0.06738 -31.063868,0.179693 -33.152761,-1.70705 -0.628912,-0.561531 -1.392596,-1.527363 -1.729512,-2.156278 l -0.606453,-1.145521 -0.06738,-32.793381 c -0.04493,-23.247362 0,-33.0404533 0.17969,-33.646907 C 16.536708,5.9230407 17.682229,4.6427522 18.805291,4.1486056 19.658817,3.7443031 21.118797,3.7218417 51.418982,3.789226 L 83.111761,3.834162 Z M 17.974225,77.664177 c 0.38184,0.314456 1.167984,0.808604 1.774436,1.100601 l 1.078139,0.539067 29.850962,0.06738 c 32.928148,0.06738 30.79433,0.134778 33.017991,-1.325208 0.56153,-0.381841 1.370135,-1.145523 1.774438,-1.707052 l 0.718756,-1.010756 0.06738,8.041117 c 0.02246,4.98639 -0.04492,8.490343 -0.179689,9.209099 -0.291995,1.347673 -1.257829,2.605499 -2.493197,3.234418 -0.831062,0.449228 -1.459977,0.449228 -32.501383,0.449228 H 19.434211 L 18.445916,95.745468 C 17.794541,95.386087 17.23301,94.847013 16.783785,94.128262 l -0.673835,-1.078143 -0.06738,-8.894643 -0.06738,-8.872182 0.651376,0.898447 c 0.35938,0.494148 0.965832,1.145524 1.347674,1.482442 z"
       id="path2451"
       style="stroke-width:0.0224612" />
    <path
       d="m 55.349694,17.849948 c 0.04494,0.112302 4.874083,5.48054 10.736464,11.926909 5.862378,6.468832 10.646617,11.79214 10.646617,11.837062 -0.02248,0.06738 -4.829163,5.390692 -10.669079,11.814602 -5.862378,6.423908 -10.669078,11.769679 -10.714002,11.881986 -0.04494,0.08984 0.718759,0.179689 1.729515,0.179689 h 1.796897 L 69.612568,53.675595 c 5.9073,-6.491294 10.736464,-11.926909 10.736464,-12.084135 0,-0.134778 -4.851623,-5.592844 -10.758925,-12.1066 L 58.808721,17.647799 h -1.774436 c -0.965832,0 -1.729513,0.08984 -1.684591,0.202149 z"
       id="path2453"
       style="stroke-width:0.0224612" />
    <path
       d="m 21.837554,23.420332 c 0,0.08984 0.583991,0.741221 1.28029,1.45998 l 1.280289,1.30275 h 5.570382 5.570384 v -1.45998 -1.45998 h -6.850673 c -3.773484,0 -6.850672,0.06738 -6.850672,0.15723 z"
       id="path2455"
       style="stroke-width:0.0224612" />
    <path
       d="m 38.458857,24.723082 v 1.45998 h 1.864281 1.841819 l 8.422958,8.422957 8.422958,8.422958 h 5.098696 5.121159 v -1.45998 -1.459981 H 64.558795 59.909321 L 51.486365,31.68606 43.063407,23.263102 h -2.291045 -2.313505 z"
       id="path2457"
       style="stroke-width:0.0224612" />
    <path
       d="M 49.801773,24.161553 48.925785,25.06 l 0.92091,0.943372 c 0.89845,0.898448 0.965831,0.92091 1.370134,0.561531 0.314457,-0.291997 0.853527,-0.381841 2.246122,-0.381841 h 1.841821 v -1.45998 -1.45998 h -2.313506 -2.313504 z"
       id="path2459"
       style="stroke-width:0.0224612" />
    <path
       d="m 42.501875,31.461448 c -0.202149,0.247075 -0.763681,0.336919 -2.156275,0.336919 h -1.886743 v 1.347673 1.347673 h 2.425812 2.425812 l 0.76368,-0.786143 0.763682,-0.786142 -0.875988,-0.898449 c -0.988294,-1.010755 -1.055677,-1.033217 -1.45998,-0.561531 z"
       id="path2461"
       style="stroke-width:0.0224612" />
    <path
       d="m 23.072922,33.14604 1.325211,1.347673 h 5.570382 5.570384 V 33.14604 31.798367 h -6.895595 -6.895593 z"
       id="path2463"
       style="stroke-width:0.0224612" />
    <path
       d="m 55.978608,31.978057 c 0,0.08984 0.539069,0.696298 1.190445,1.347672 l 1.190443,1.167984 h 2.627965 2.627962 V 33.14604 31.798367 h -3.818407 c -2.088893,0 -3.818408,0.08984 -3.818408,0.17969 z"
       id="path2465"
       style="stroke-width:0.0224612" />
    <path
       d="m 48.791017,39.098261 -0.988293,1.010755 h -4.671932 -4.671935 v 1.459981 1.45998 h 5.211001 5.211004 l 1.527363,-1.504902 1.527363,-1.504902 -0.94337,-0.965833 c -0.51661,-0.53907 -1.010756,-0.965832 -1.078139,-0.965832 -0.06738,0 -0.583992,0.449224 -1.123062,1.010753 z"
       id="path2467"
       style="stroke-width:0.0224612" />
    <path
       d="m 21.837554,40.266246 c 0,0.08984 0.583991,0.741222 1.28029,1.45998 l 1.280289,1.302751 h 5.570382 5.570384 v -1.45998 -1.459981 h -6.850673 c -3.773484,0 -6.850672,0.06738 -6.850672,0.15723 z"
       id="path2469"
       style="stroke-width:0.0224612" />
    <path
       d="m 23.072922,49.991954 1.325211,1.347674 h 5.570382 5.570384 v -1.347674 -1.347673 h -6.895595 -6.895593 z"
       id="path2471"
       style="stroke-width:0.0224612" />
    <path
       d="m 38.458857,49.991954 v 1.347674 h 1.751976 1.729513 l 4.267632,4.267631 4.26763,4.267632 h 2.403353 2.425811 v -1.45998 -1.459979 H 53.440491 51.59867 l -4.155326,-4.155324 -4.155326,-4.155327 h -2.403349 -2.425812 z"
       id="path2473"
       style="stroke-width:0.0224612" />
    <path
       d="m 49.689467,49.430424 -0.763682,0.786141 0.988294,1.010757 0.988294,1.010754 0.471686,-0.449224 c 0.449224,-0.426764 0.808604,-0.449224 6.356524,-0.449224 h 5.88484 v -1.347674 -1.347673 h -6.581138 -6.581136 z"
       id="path2475"
       style="stroke-width:0.0224612" />
    <path
       d="m 42.501875,56.618014 c -0.202149,0.247073 -0.763681,0.336918 -2.156275,0.336918 h -1.886743 v 1.459979 1.45998 h 2.425812 2.425812 l 0.718759,-0.741219 c 0.404301,-0.404305 0.718758,-0.831065 0.718758,-0.965834 0,-0.224611 -1.617206,-1.886742 -1.84182,-1.886742 -0.06738,0 -0.247073,0.157228 -0.404303,0.336918 z"
       id="path2477"
       style="stroke-width:0.0224612" />
    <path
       d="m 21.837554,57.11216 c 0,0.08984 0.583991,0.741222 1.28029,1.45998 l 1.280289,1.302751 h 5.570382 5.570384 v -1.45998 -1.459979 h -6.850673 c -3.773484,0 -6.850672,0.06738 -6.850672,0.157228 z"
       id="path2479"
       style="stroke-width:0.0224612" />
    <path
       d="m 23.701835,85.188684 c -0.291995,0.04494 -0.808603,0.404304 -1.167983,0.763684 -1.190444,1.167983 -1.190444,2.807652 0,3.930712 l 0.673837,0.628914 -0.381842,-0.718757 c -0.898447,-1.81936 1.1006,-3.571336 2.762732,-2.403353 0.696298,0.494149 0.898447,1.751976 0.404301,2.538117 -0.381842,0.606455 -0.381842,0.606455 0.314456,-0.06738 2.043973,-1.999047 0.224613,-5.233463 -2.605501,-4.671937 z"
       id="path2481"
       style="stroke-width:0.0224612" />
  </g>
</svg>
