<?xml version="1.0" encoding="UTF-8" standalone="no"?>
<!-- Created with Inkscape (http://www.inkscape.org/) -->

<svg
   width="100mm"
   height="100mm"
   viewBox="0 0 100 100"
   version="1.1"
   id="svg26768"
   xmlns="http://www.w3.org/2000/svg"
   xmlns:svg="http://www.w3.org/2000/svg">
  <defs
     id="defs26765" />
  <path
     d="m 34.08959,2.9316409 c -0.515685,0.1983407 -0.991702,0.7140261 -0.991702,1.0908732 0,0.3371792 -0.456182,0.3570126 -11.56325,0.3570126 -13.011132,0 -12.4756177,-0.059499 -13.368154,1.5073881 -0.3768393,0.6545237 -0.4561771,1.0710376 -0.4561771,2.8362681 0,2.6180941 0.3768507,3.5502951 1.6660564,4.1651511 0.8131987,0.39668 1.1305387,0.416515 12.2772787,0.416515 h 11.444246 v 1.785063 c 0,2.53876 0.03966,2.578428 3.371788,2.578428 h 2.578428 v -1.051206 c 0,-0.793361 0.158672,-1.388383 0.614854,-2.280915 1.011537,-2.062741 2.538759,-3.03461 4.998182,-3.173448 1.42805,-0.07934 1.626392,-0.03966 2.816434,0.535519 1.963571,0.971869 2.935438,2.340418 3.312287,4.70067 l 0.218173,1.26938 h 2.518923 c 3.193284,0 3.232951,-0.03966 3.332122,-2.598262 l 0.07934,-1.765229 h 11.424412 11.444247 l 0.773528,-0.456183 c 1.28921,-0.733862 1.52722,-1.428051 1.467716,-4.2048191 -0.0595,-2.082575 -0.119004,-2.459422 -0.49585,-2.9949409 C 80.620271,4.3398587 80.937616,4.3795267 68.342994,4.3795267 H 56.918582 L 56.66074,3.8440079 C 56.164889,2.7928025 56.224391,2.7928025 44.899149,2.812637 c -5.771708,0 -10.650883,0.059499 -10.809556,0.1190041 z M 33.097888,8.8421878 V 10.329741 H 21.891651 10.685418 V 8.8421878 7.354634 h 11.206233 11.206237 z m 46.014992,0 V 10.329741 H 68.005814 56.898747 V 8.8421878 7.354634 H 68.005814 79.11288 Z"
     id="path6594"
     style="stroke-width:0.019834" />
  <path
     d="m 43.689269,14.296551 c -0.218174,0.07934 -0.674356,0.476016 -1.031369,0.872698 l -0.634689,0.73386 v 2.360251 2.360253 l -10.353374,0.0595 -10.373207,0.0595 -0.952035,0.555354 c -0.515686,0.29751 -1.190043,0.9322 -1.487555,1.368549 l -0.535518,0.83303 -0.0595,31.258462 -0.03966,31.278294 0.456182,0.872697 c 0.257842,0.476017 0.852863,1.130541 1.309046,1.467721 l 0.852866,0.595021 16.720103,0.0595 16.700268,0.03967 0.714025,1.071037 c 2.479256,3.728802 6.783246,6.624573 11.265741,7.556775 1.785065,0.376846 5.315525,0.376846 7.100589,0 7.913781,-1.666066 13.78466,-8.44931 14.240843,-16.462266 0.495851,-8.62781 -5.414695,-16.462259 -13.863999,-18.386162 l -1.943738,-0.436348 v -3.728802 -3.7288 H 82.187164 92.60004 V 53.468788 51.981235 H 82.187158 71.774283 v -2.280916 -2.280915 h 10.412875 10.432711 l -0.0595,-1.447887 -0.0595,-1.42805 -10.353375,-0.0595 -10.373206,-0.03966 V 42.262556 40.080811 H 82.187164 92.600039 V 38.593258 37.105704 H 82.206994 71.794117 l -0.0595,-6.604739 c -0.0595,-5.970047 -0.09917,-6.644406 -0.436348,-7.279095 -0.515685,-0.971869 -1.090873,-1.56689 -2.003238,-2.042908 -0.773528,-0.436349 -0.991704,-0.436349 -11.027732,-0.49585 l -10.254204,-0.0595 -0.0595,-2.221413 c -0.09915,-2.538757 -0.456166,-3.411454 -1.646209,-3.986642 -0.714027,-0.337179 -1.943738,-0.396681 -2.618095,-0.119004 z m 24.653723,9.778186 c 0.317344,0.317344 0.357015,0.912366 0.416515,6.684075 l 0.0595,6.346895 H 56.204555 c -6.922084,0 -12.594621,0.03966 -12.594621,0.09917 0,0.0595 0.515685,0.733859 1.150374,1.487553 l 1.130541,1.388384 h 11.46408 11.444247 v 2.181744 2.181746 H 56.204555 c -6.922084,0 -12.594621,0.07934 -12.594621,0.158673 0,0.07934 0.495852,0.753693 1.110706,1.487554 l 1.110708,1.32888 h 11.483914 11.483914 v 2.280917 2.280915 H 56.204555 c -6.922084,0 -12.594621,0.03966 -12.594621,0.09917 0,0.0595 0.515685,0.733861 1.150374,1.487554 l 1.130541,1.388385 h 11.46408 11.444247 v 3.748635 3.728801 l -1.170208,0.138837 c -3.173449,0.357014 -6.624575,1.923903 -9.500511,4.264322 -1.13054,0.932199 -3.034609,3.292451 -3.847805,4.780006 l -0.654524,1.190033 H 38.413414 c -10.293872,0 -15.391222,-0.0595 -15.76807,-0.218173 -0.29751,-0.119005 -0.753693,-0.396683 -0.991702,-0.614856 L 21.197458,71.557444 V 48.034262 c 0,-12.9318 0.07934,-23.622352 0.158673,-23.741356 0.436349,-0.654524 0.753694,-0.674358 23.781025,-0.614855 21.638946,0.03966 22.868658,0.0595 23.205836,0.396681 z m 5.216355,41.810174 c 4.204819,1.110708 7.596442,3.907307 9.520344,7.814616 1.170208,2.340418 1.487553,3.748636 1.467718,6.545235 0,2.776767 -0.317344,4.165151 -1.487551,6.565071 -1.884235,3.827971 -5.494032,6.763409 -9.659182,7.834448 -2.042908,0.515686 -5.196521,0.515686 -7.259263,-0.01984 -5.13702,-1.309044 -9.361672,-5.494029 -10.769888,-10.710385 -0.535518,-2.003238 -0.495852,-5.811376 0.119004,-7.735278 1.507388,-4.839506 4.938679,-8.449304 9.540177,-10.016193 2.796602,-0.952036 5.632869,-1.051205 8.528641,-0.277676 z m -51.509024,8.012956 c 0.614856,0.257842 2.856104,0.297511 15.827571,0.297511 14.30035,0 15.093711,0.01984 14.954873,0.337179 -0.971867,2.558592 -1.17021,6.922083 -0.416515,9.817854 L 52.8526,86.095806 H 37.382043 c -14.102009,0 -15.490392,-0.01983 -15.827572,-0.337177 -0.337178,-0.297512 -0.357013,-0.753694 -0.357013,-6.247727 0,-3.252784 0.03966,-5.910545 0.07934,-5.910545 0.03968,0 0.396682,0.138839 0.773527,0.29751 z"
     id="path6700"
     style="stroke-width:0.019834" />
  <path
     d="m 76.137773,75.028408 c -1.190042,0.614856 -1.586723,1.36855 -1.76523,3.43129 -0.218174,2.201579 0.03967,4.879176 0.515684,5.712207 0.198343,0.357013 0.753695,0.83303 1.249546,1.090872 0.733861,0.376846 1.110708,0.456183 2.062742,0.376846 1.864401,-0.158671 2.776766,-1.150374 3.03461,-3.292452 l 0.119003,-1.011537 h -1.090872 -1.090873 l -0.09917,0.991705 c -0.158672,1.527221 -1.071039,2.221412 -2.023073,1.527221 -0.49585,-0.357013 -0.793362,-2.816436 -0.614855,-4.99818 0.119004,-1.447886 0.218175,-1.824733 0.614855,-2.20158 0.257843,-0.257842 0.555354,-0.476018 0.674357,-0.476018 0.456184,0 1.190044,0.971869 1.190044,1.586725 0,0.59502 0,0.59502 1.090872,0.59502 h 1.090874 v -0.753693 c 0,-0.892531 -0.515685,-1.96357 -1.209877,-2.479255 -0.317346,-0.218177 -0.971869,-0.416516 -1.685895,-0.476018 -0.952034,-0.07934 -1.32888,0 -2.062742,0.376847 z"
     id="path6702"
     style="stroke-width:0.019834" />
  <path
     d="m 58.683811,80.244762 v 5.256023 h 1.090872 1.090873 v -2.380084 -2.380087 h 1.190044 1.190042 v 2.380087 2.380084 h 1.090873 1.090873 V 80.244762 74.98874 h -1.090873 -1.090873 v 1.983405 1.983404 H 62.0556 60.865556 V 76.972145 74.98874 h -1.090873 -1.090872 z"
     id="path6704"
     style="stroke-width:0.019834" />
  <path
     d="m 66.815771,80.244762 v 5.256023 h 3.074277 3.074278 v -0.892532 -0.892532 h -1.983405 -1.983403 v -1.388382 -1.388385 h 1.785063 1.785064 v -0.892532 -0.892533 h -1.785064 -1.785063 v -1.289213 -1.289212 h 1.884233 1.884234 V 75.782102 74.98874 h -2.975106 -2.975108 z"
     id="path6706"
     style="stroke-width:0.019834" />
  <path
     d="m 25.461778,78.42003 c -0.337178,0.277677 -0.555351,0.714024 -0.634688,1.249545 -0.07934,0.674357 -0.01984,0.892533 0.416515,1.388384 l 0.515685,0.575187 -0.218174,-0.555353 c -0.476017,-1.071039 0.595022,-2.142078 1.705729,-1.725562 0.654521,0.238008 0.952033,1.011536 0.674356,1.725562 -0.19834,0.535518 -0.19834,0.535518 0.198341,0.178507 0.218175,-0.198341 0.456183,-0.654524 0.535519,-1.011538 0.317345,-1.765229 -1.844567,-2.994941 -3.193283,-1.824732 z"
     id="path6708"
     style="stroke-width:0.019834" />
</svg>
