<?xml version="1.0" encoding="UTF-8" standalone="no"?>
<!-- Created with Inkscape (http://www.inkscape.org/) -->

<svg
   width="100mm"
   height="100mm"
   viewBox="0 0 100 100"
   version="1.1"
   id="svg26768"
   sodipodi:docname="a index.svg"
   inkscape:version="1.1.1 (3bf5ae0d25, 2021-09-20)"
   xmlns:inkscape="http://www.inkscape.org/namespaces/inkscape"
   xmlns:sodipodi="http://sodipodi.sourceforge.net/DTD/sodipodi-0.dtd"
   xmlns="http://www.w3.org/2000/svg"
   xmlns:svg="http://www.w3.org/2000/svg">
  <sodipodi:namedview
     id="namedview26770"
     pagecolor="#ffffff"
     bordercolor="#666666"
     borderopacity="1.0"
     inkscape:pageshadow="2"
     inkscape:pageopacity="0.0"
     inkscape:pagecheckerboard="0"
     inkscape:document-units="mm"
     showgrid="false"
     width="209mm"
     inkscape:zoom="0.7500982"
     inkscape:cx="13.998167"
     inkscape:cy="135.31562"
     inkscape:window-width="1920"
     inkscape:window-height="1027"
     inkscape:window-x="1912"
     inkscape:window-y="-8"
     inkscape:window-maximized="1"
     inkscape:current-layer="layer1" />
  <defs
     id="defs26765" />
  <g
     inkscape:label="Layer 1"
     inkscape:groupmode="layer"
     id="layer1">
    <path
       d="M 31.880644,6.9160088 C 14.285436,12.815127 14.183288,12.8662 13.21287,14.628276 12.804273,15.34332 12.778736,18.280111 12.778736,49.997449 v 34.603054 l 0.587358,0.944879 c 0.331985,0.536284 0.893806,1.200254 1.225791,1.455628 0.357522,0.280909 8.24855,3.03894 17.569668,6.128953 16.318341,5.439448 16.98231,5.643745 18.923147,5.643745 1.940835,0 2.604805,-0.204297 18.642235,-5.516058 9.11682,-3.038941 17.033386,-5.796968 17.544131,-6.128954 0.536285,-0.331985 1.200254,-1.072567 1.481166,-1.634388 0.510745,-0.995955 0.510745,-1.404552 0.510745,-35.522397 0,-38.025053 0.102153,-35.445785 -1.557775,-36.850337 C 87.219991,12.712977 81.601785,10.721068 70.058921,6.8649343 53.153222,1.2211889 53.127685,1.2211889 50.957012,1.2467268 c -2.119596,0 -2.477118,0.127686 -19.076368,5.669282 z M 68.807592,9.7761874 C 77.8478,12.789589 85.457917,15.44547 85.713291,15.675305 86.172963,16.083902 86.1985,16.594648 86.1985,23.234348 V 30.33372 H 51.0847 15.970899 v -7.099372 c 0,-3.958282 0.102153,-7.252594 0.255374,-7.456894 0.127681,-0.204298 7.635656,-2.860179 16.778012,-5.9246546 13.177251,-4.3924178 16.829086,-5.5415967 17.952727,-5.5415967 1.174718,-0.025538 4.034895,0.8427317 17.85058,5.4649847 z M 86.1985,40.420957 v 9.065746 H 51.0847 15.970899 V 40.420957 31.355212 H 51.0847 86.1985 Z m 0,19.152982 v 9.065745 H 51.0847 15.970899 V 59.573939 50.508195 H 51.0847 86.1985 Z m 0,17.186609 c 0,6.460939 -0.05107,7.150446 -0.434134,7.507969 -0.766119,0.689507 -33.530488,11.440714 -34.807354,11.440714 -1.430089,0 -33.96462,-10.776743 -34.577516,-11.46625 -0.357522,-0.383059 -0.408597,-1.353478 -0.408597,-7.50797 V 69.661178 H 51.0847 86.1985 Z"
       id="path3449"
       style="stroke-width:0.0255372" />
    <path
       d="m 22.355227,21.267976 v 1.659925 h 4.724402 4.724402 V 21.267976 19.60805 h -4.724402 -4.724402 z"
       id="path3451"
       style="stroke-width:0.0255372" />
    <path
       d="m 35.123882,21.267976 v 1.659925 H 47.892536 60.661191 V 21.267976 19.60805 H 47.892536 35.123882 Z"
       id="path3453"
       style="stroke-width:0.0255372" />
    <path
       d="m 63.827817,19.965574 c -0.07661,0.178761 -0.102153,0.893806 -0.05108,1.583313 l 0.07661,1.251328 7.993178,0.07661 7.967641,0.05108 v -1.659921 -1.659926 h -7.916568 c -6.512014,0 -7.967641,0.05107 -8.069791,0.357522 z"
       id="path3455"
       style="stroke-width:0.0255372" />
    <path
       d="m 22.355227,40.420957 v 1.659925 H 46.232611 70.109995 V 40.420957 38.761032 H 46.232611 22.355227 Z"
       id="path3457"
       style="stroke-width:0.0255372" />
    <path
       d="m 73.429846,40.420957 v 1.659925 h 3.192163 3.192165 v -1.659925 -1.659925 h -3.192165 -3.192163 z"
       id="path3459"
       style="stroke-width:0.0255372" />
    <path
       d="m 22.355227,59.573939 v 1.659926 h 6.384328 6.384327 v -1.659926 -1.659925 h -6.384327 -6.384328 z"
       id="path3461"
       style="stroke-width:0.0255372" />
    <path
       d="m 38.290508,58.271536 c -0.07661,0.178761 -0.102153,0.893806 -0.05107,1.583314 l 0.07661,1.251329 4.801014,0.07661 4.775477,0.05108 v -1.659928 -1.659926 h -4.724402 c -3.779523,0 -4.775478,0.07661 -4.877626,0.357522 z"
       id="path3463"
       style="stroke-width:0.0255372" />
    <path
       d="m 51.059162,58.271536 c -0.07661,0.178761 -0.102152,0.893806 -0.05108,1.583314 l 0.07661,1.251329 14.377505,0.07661 14.351969,0.05108 V 59.573942 57.914017 H 65.513278 c -11.925923,0 -14.351967,0.05107 -14.454116,0.357522 z"
       id="path3465"
       style="stroke-width:0.0255372" />
    <path
       d="m 22.355227,78.726921 v 1.659925 h 9.57649 9.576493 v -1.659925 -1.659926 h -9.576493 -9.57649 z"
       id="path3467"
       style="stroke-width:0.0255372" />
    <path
       d="m 44.674836,77.424519 c -0.07661,0.178761 -0.102153,0.893806 -0.05107,1.583313 l 0.07661,1.251328 17.569668,0.07661 17.544133,0.05107 V 78.726923 77.066998 H 62.321119 c -14.632877,0 -17.518593,0.05107 -17.646279,0.357521 z"
       id="path3469"
       style="stroke-width:0.0255372" />
  </g>
</svg>
