<?xml version="1.0" encoding="UTF-8" standalone="no"?>
<!-- Created with Inkscape (http://www.inkscape.org/) -->

<svg
   width="100mm"
   height="100mm"
   viewBox="0 0 100 100"
   version="1.1"
   id="svg26768"
   sodipodi:docname="a indexers.svg"
   inkscape:version="1.1.1 (3bf5ae0d25, 2021-09-20)"
   xmlns:inkscape="http://www.inkscape.org/namespaces/inkscape"
   xmlns:sodipodi="http://sodipodi.sourceforge.net/DTD/sodipodi-0.dtd"
   xmlns="http://www.w3.org/2000/svg"
   xmlns:svg="http://www.w3.org/2000/svg">
  <sodipodi:namedview
     id="namedview26770"
     pagecolor="#ffffff"
     bordercolor="#666666"
     borderopacity="1.0"
     inkscape:pageshadow="2"
     inkscape:pageopacity="0.0"
     inkscape:pagecheckerboard="0"
     inkscape:document-units="mm"
     showgrid="false"
     width="209mm"
     inkscape:zoom="0.7500982"
     inkscape:cx="13.998167"
     inkscape:cy="135.31562"
     inkscape:window-width="1920"
     inkscape:window-height="1027"
     inkscape:window-x="1912"
     inkscape:window-y="-8"
     inkscape:window-maximized="1"
     inkscape:current-layer="layer1" />
  <defs
     id="defs26765" />
  <g
     inkscape:label="Layer 1"
     inkscape:groupmode="layer"
     id="layer1">
    <path
       d="M 25.929086,1.524312 C 24.444682,1.8541797 23.599397,2.3077472 22.547944,3.3798164 21.352176,4.5549685 20.733675,5.915671 20.609974,7.6268581 L 20.506891,9.0081775 19.125572,9.1112611 C 18.094735,9.1937282 17.435001,9.3792782 16.466016,9.8946963 14.981612,10.698748 14.11571,11.605883 13.373509,13.19337 l -0.536034,1.13392 v 39.790249 39.790249 l 0.680352,1.381321 c 0.80405,1.649336 2.102904,2.865721 3.69039,3.463606 1.113302,0.412335 1.340087,0.412335 30.636431,0.371101 l 29.523128,-0.06185 1.030835,-0.494801 c 1.216386,-0.618501 2.597706,-1.937971 3.174973,-3.092506 0.247402,-0.453568 0.536036,-1.525637 0.680352,-2.370922 l 0.226784,-1.50502 1.237003,-0.144317 c 2.453388,-0.2474 4.350125,-1.50502 5.525278,-3.669774 l 0.700968,-1.298852 0.06185,-39.687167 C 90.047055,11.337866 90.026437,7.0289739 89.737802,6.1630719 89.036833,4.0807841 87.573047,2.5345312 85.470143,1.6892461 84.645475,1.3593784 82.418869,1.3387616 55.823315,1.2975285 33.701584,1.2769105 26.794987,1.3181465 25.929086,1.524312 Z m 59.087489,2.7832561 c 1.13392,0.5154175 2.082288,1.7111866 2.350305,2.9894229 0.164934,0.7422015 0.206167,9.875404 0.164934,30.636431 -0.06185,33.110435 0.06185,30.492114 -1.546253,32.347618 -0.762819,0.907134 -2.577089,2.082287 -3.19559,2.082287 -0.350485,0 -0.371102,-1.484403 -0.371102,-28.224276 0,-18.225171 -0.08246,-28.595375 -0.206166,-29.316961 C 81.759134,12.471785 80.41905,10.698748 78.316145,9.7091459 L 77.161609,9.1731116 50.112486,9.1112611 23.042746,9.0700309 V 8.3896794 c 0,-1.7524202 1.030835,-3.3811405 2.577089,-4.0821083 0.783435,-0.3711007 2.205988,-0.3917175 29.688062,-0.3917175 27.647008,0 28.904626,0.020618 29.708678,0.3917175 z m -8.473467,7.4632489 c 0.4948,0.1237 1.278235,0.536034 1.731803,0.927752 1.587487,1.38132 1.484404,-1.154536 1.422553,32.759952 l -0.06185,30.306563 -0.618501,1.113302 c -0.762819,1.401936 -2.102904,2.577089 -3.463607,3.051274 -1.010219,0.350483 -2.57709,0.3711 -28.183043,0.3711 H 20.259491 l -0.948369,-0.432951 c -1.422553,-0.659734 -2.63894,-1.876121 -3.31929,-3.278057 L 15.414563,75.35275 V 45.08742 c 0,-29.378811 0.02062,-30.285946 0.391718,-31.028148 0.556651,-1.072069 1.463786,-1.876121 2.515238,-2.205988 0.742202,-0.226784 5.896379,-0.288634 29.110794,-0.288634 19.936359,-0.02062 28.471676,0.04124 29.110795,0.206167 z M 87.36688,85.516788 c -0.412335,1.917354 -2.123521,3.339907 -4.020258,3.339907 h -0.927753 l 0.04124,-7.751883 0.06185,-7.731266 1.175153,-0.474185 c 1.422554,-0.577268 2.659556,-1.546253 3.298674,-2.556472 l 0.474184,-0.762818 0.06185,7.422016 c 0.04123,5.00986 -0.02062,7.772499 -0.164933,8.514701 z M 17.764868,79.92966 c 0.536035,0.3711 1.31947,0.783435 1.731804,0.927751 0.597884,0.206168 6.659197,0.268017 27.543924,0.329868 29.564362,0.06185 28.183042,0.103084 30.285946,-1.237003 0.556651,-0.350484 1.31947,-1.051452 1.711187,-1.56687 l 0.700969,-0.927752 v 7.916817 c 0,7.215848 -0.04124,7.999283 -0.391718,8.741484 -0.474184,1.051453 -1.62872,2.082288 -2.638939,2.350305 -1.092686,0.309251 -57.170136,0.309251 -58.262821,0 -0.968986,-0.268017 -2.370922,-1.484402 -2.762639,-2.391538 -0.206167,-0.515418 -0.268018,-2.412155 -0.268018,-8.617784 v -7.978667 l 0.680352,0.907135 c 0.371101,0.494801 1.113302,1.195769 1.669953,1.546254 z"
       id="path3383"
       style="stroke-width:0.0206167" />
    <path
       d="m 46.030377,22.367807 c -0.103083,0.04123 -4.288276,1.340085 -9.256902,2.886338 -4.989244,1.546254 -9.27752,2.968807 -9.545537,3.133741 -0.268017,0.18555 -0.721585,0.721584 -0.989602,1.195768 l -0.515418,0.865902 v 15.9161 c 0,15.441916 0.02062,15.936717 0.412334,16.720151 0.226784,0.432951 0.680352,0.989603 1.030836,1.237003 0.329867,0.247401 4.76246,1.731804 9.813554,3.319291 7.999283,2.494622 9.380603,2.865722 10.576372,2.865722 1.216385,0 2.597706,-0.3711 10.638223,-2.886339 5.07171,-1.608104 9.483685,-3.092506 9.813553,-3.298674 0.309251,-0.226784 0.762818,-0.824668 0.989602,-1.319469 0.432951,-0.886519 0.432951,-0.989603 0.391717,-16.864469 l -0.06185,-15.957333 -0.515418,-0.762818 c -0.288634,-0.412335 -0.886518,-0.948369 -1.340086,-1.175153 -0.453567,-0.2474 -4.844926,-1.69057 -9.751703,-3.19559 -7.586949,-2.370921 -9.112586,-2.783255 -10.205272,-2.762639 -0.700968,0 -1.360702,0.04123 -1.484403,0.08246 z M 57.1634,27.542601 c 6.246863,1.93797 9.174436,2.948189 9.442454,3.216206 0.30925,0.371101 0.350483,0.948369 0.350483,5.236643 v 4.824311 H 47.576631 28.196924 V 35.99545 c 0,-4.288274 0.04123,-4.865542 0.3711,-5.236643 0.391718,-0.453567 17.792221,-5.999463 18.905523,-6.020079 0.350484,0 4.70061,1.257619 9.689853,2.803873 z m 9.792937,18.843672 v 4.741843 H 47.576631 28.196924 V 46.386273 41.64443 h 19.379707 19.379706 z m 0,10.390822 c 0,4.288275 -0.04123,4.865543 -0.350483,5.236643 -0.432951,0.515418 -17.895304,6.02008 -19.04984,6.02008 -0.927752,0 -18.513805,-5.484045 -18.98799,-5.916996 -0.329867,-0.30925 -0.3711,-0.824668 -0.3711,-5.25726 v -4.906777 h 19.379707 19.379706 z"
       id="path3385"
       style="stroke-width:0.0206167" />
    <path
       d="m 33.351101,36.077919 v 1.237002 h 2.577089 2.577089 V 36.077919 34.840916 H 35.92819 33.351101 Z"
       id="path3387"
       style="stroke-width:0.0206167" />
    <path
       d="m 41.18545,36.077919 v 1.237002 h 3.814092 3.814091 V 36.077919 34.840916 H 44.999542 41.18545 Z"
       id="path3389"
       style="stroke-width:0.0206167" />
    <path
       d="m 51.493805,36.077919 v 1.237002 h 5.154178 5.154177 v -1.237002 -1.237003 h -5.154177 -5.154178 z"
       id="path3391"
       style="stroke-width:0.0206167" />
    <path
       d="m 33.351101,46.386273 v 1.237003 h 9.071352 9.071352 v -1.237003 -1.237002 h -9.071352 -9.071352 z"
       id="path3393"
       style="stroke-width:0.0206167" />
    <path
       d="m 53.96781,46.386273 v 1.237003 h 3.917175 3.917175 V 46.386273 45.149271 H 57.884985 53.96781 Z"
       id="path3395"
       style="stroke-width:0.0206167" />
    <path
       d="m 33.351101,56.694628 v 1.237002 h 3.917175 3.917174 v -1.237002 -1.237002 h -3.917174 -3.917175 z"
       id="path3397"
       style="stroke-width:0.0206167" />
    <path
       d="m 43.659455,56.694628 v 1.237002 h 1.340087 1.340086 v -1.237002 -1.237002 h -1.340086 -1.340087 z"
       id="path3399"
       style="stroke-width:0.0206167" />
    <path
       d="m 48.813633,56.694628 v 1.237002 h 6.494264 6.494263 v -1.237002 -1.237002 h -6.494263 -6.494264 z"
       id="path3401"
       style="stroke-width:0.0206167" />
    <path
       d="m 21.785126,86.733174 c -1.340085,0.824668 -1.628719,2.680172 -0.597883,3.814091 0.329866,0.371101 0.6185,0.577268 0.6185,0.432951 0,-0.123701 -0.08246,-0.309251 -0.206167,-0.371101 -0.371101,-0.226783 -0.226783,-1.525637 0.206167,-1.958587 0.948369,-0.948369 2.309072,-0.680352 2.803873,0.536034 0.226784,0.556651 0.226784,0.762818 -0.103083,1.38132 l -0.371101,0.742201 0.474184,-0.329867 c 0.268017,-0.164933 0.618501,-0.680352 0.804052,-1.175152 0.288634,-0.721586 0.288634,-0.968986 0.06185,-1.669954 -0.4948,-1.50502 -2.391537,-2.226604 -3.690391,-1.401936 z"
       id="path3403"
       style="stroke-width:0.0206167" />
  </g>
</svg>
