<?xml version="1.0" encoding="UTF-8" standalone="no"?>
<!-- Created with Inkscape (http://www.inkscape.org/) -->

<svg
   width="100mm"
   height="100mm"
   viewBox="0 0 100 100"
   version="1.1"
   id="svg26768"
   sodipodi:docname="a indicies.svg"
   inkscape:version="1.1.1 (3bf5ae0d25, 2021-09-20)"
   xmlns:inkscape="http://www.inkscape.org/namespaces/inkscape"
   xmlns:sodipodi="http://sodipodi.sourceforge.net/DTD/sodipodi-0.dtd"
   xmlns="http://www.w3.org/2000/svg"
   xmlns:svg="http://www.w3.org/2000/svg">
  <sodipodi:namedview
     id="namedview26770"
     pagecolor="#ffffff"
     bordercolor="#666666"
     borderopacity="1.0"
     inkscape:pageshadow="2"
     inkscape:pageopacity="0.0"
     inkscape:pagecheckerboard="0"
     inkscape:document-units="mm"
     showgrid="false"
     width="209mm"
     inkscape:zoom="0.7500982"
     inkscape:cx="13.998167"
     inkscape:cy="135.31562"
     inkscape:window-width="1920"
     inkscape:window-height="1027"
     inkscape:window-x="1912"
     inkscape:window-y="-8"
     inkscape:window-maximized="1"
     inkscape:current-layer="layer1" />
  <defs
     id="defs26765" />
  <g
     inkscape:label="Layer 1"
     inkscape:groupmode="layer"
     id="layer1">
    <path
       d="m 53.137714,1.3607112 c -0.255586,0.069647 -7.2493,2.3699544 -15.567392,5.1349092 -9.038374,2.9973024 -15.381513,5.2278556 -15.822968,5.5531496 -1.138509,0.836455 -1.556738,1.974966 -1.696151,4.716681 l -0.139414,2.393194 -1.812325,0.650575 c -1.905259,0.673816 -2.741715,1.277923 -3.369062,2.439674 -0.371749,0.650575 -0.394989,3.322584 -0.394989,32.180348 v 31.483294 l 0.534402,0.859695 c 0.302054,0.487936 0.813228,1.092044 1.115283,1.324391 0.325281,0.255587 7.504874,2.764956 15.985608,5.576377 14.84711,4.94904 15.451219,5.134909 17.217077,5.134909 1.765845,0 2.369954,-0.185869 16.961477,-5.018736 8.294865,-2.764954 15.497686,-5.274321 15.962381,-5.576376 1.34763,-0.859696 1.672912,-1.696152 1.812325,-4.623747 l 0.1162,-2.555834 1.858793,-0.650589 c 1.998205,-0.697042 2.997302,-1.463791 3.508476,-2.648769 0.487935,-1.161749 0.487935,-63.222186 0,-64.174828 C 88.524498,11.862889 88.31539,11.793182 72.260062,6.4259138 58.621181,1.8718734 56.901789,1.3607112 55.345051,1.3142321 54.392422,1.2678009 53.393325,1.2910164 53.137738,1.3606633 Z M 71.377116,9.167629 c 10.107188,3.345835 14.893577,5.018748 15.172391,5.344042 0.371762,0.441455 0.395001,2.25378 0.395001,31.181239 0,24.210778 -0.06964,30.809491 -0.278815,31.111545 -0.278827,0.348522 -1.998205,1.092044 -2.532607,1.092044 -0.116199,0 -0.20912,-11.942743 -0.20912,-27.440429 0,-30.228621 0.09299,-28.323351 -1.417336,-29.578046 -0.441457,-0.37175 -5.553138,-2.184075 -16.055316,-5.692551 -14.940044,-4.972268 -15.451218,-5.134909 -17.263531,-5.134909 -1.789098,0 -2.3235,0.162641 -14.010655,4.042867 l -12.128623,4.042878 v -1.672912 c 0,-1.324391 0.09299,-1.765858 0.418229,-2.044673 0.37176,-0.325293 29.183045,-10.0142433 30.484196,-10.2465909 1.347631,-0.255587 3.392303,0.3252818 17.426186,4.9954959 z m -6.064312,8.666625 c 8.225157,2.741715 15.149164,5.158149 15.381513,5.367269 0.418227,0.37176 0.441467,0.836456 0.441467,6.877527 v 6.459312 H 49.187783 17.239781 V 30.07905 c 0,-3.601409 0.09298,-6.598712 0.232348,-6.784592 0.116199,-0.185882 6.947234,-2.602302 15.265337,-5.390497 11.98921,-3.996399 15.311806,-5.041976 16.334142,-5.041976 1.068804,-0.02321 3.671106,0.76675 16.241196,4.972269 z m 15.82298,27.881896 v 8.248396 H 49.187783 17.239781 V 45.71615 37.467753 h 31.948002 31.948001 z m 0,17.426184 V 71.39072 H 49.187783 17.239781 v -8.248386 -8.248397 h 31.948002 31.948001 z m 0,15.637088 c 0,5.878431 -0.04656,6.505778 -0.395001,6.83106 -0.720282,0.627349 -30.484197,10.409244 -31.669175,10.409244 -1.301163,0 -30.879197,-9.805124 -31.460077,-10.432471 -0.325282,-0.348522 -0.37175,-1.231457 -0.37175,-6.83106 v -6.436074 h 31.948002 31.948001 z"
       id="path3427"
       style="stroke-width:0.0232348" />
    <path
       d="m 23.048505,28.289965 v 1.510272 h 4.298454 4.298465 v -1.510272 -1.510271 h -4.298465 -4.298454 z"
       id="path3429"
       style="stroke-width:0.0232348" />
    <path
       d="m 34.665954,28.289965 v 1.510272 h 11.61746 11.617461 V 28.289965 26.779694 H 46.283414 34.665954 Z"
       id="path3431"
       style="stroke-width:0.0232348" />
    <path
       d="m 60.781991,27.104988 c -0.06964,0.162641 -0.09299,0.813216 -0.04643,1.440564 l 0.06977,1.13851 7.272528,0.06977 7.249287,0.04643 V 28.28999 26.779719 h -7.202829 c -5.924909,0 -7.249287,0.04643 -7.342234,0.325293 z"
       id="path3433"
       style="stroke-width:0.0232348" />
    <path
       d="m 23.048505,45.71615 v 1.510271 H 44.773143 66.497782 V 45.71615 44.205879 H 44.773143 23.048505 Z"
       id="path3435"
       style="stroke-width:0.0232348" />
    <path
       d="m 69.518323,45.71615 v 1.510271 h 2.904369 2.904355 V 45.71615 44.205879 h -2.904355 -2.904369 z"
       id="path3437"
       style="stroke-width:0.0232348" />
    <path
       d="m 23.048505,63.142334 v 1.510271 h 5.808725 5.808724 V 63.142334 61.632051 H 28.85723 23.048505 Z"
       id="path3439"
       style="stroke-width:0.0232348" />
    <path
       d="m 37.547082,61.957346 c -0.06964,0.162652 -0.09299,0.813228 -0.04643,1.440576 l 0.06964,1.138498 4.368172,0.06977 4.344932,0.04655 v -1.51027 -1.510271 h -4.298465 c -3.43877,0 -4.344932,0.06964 -4.437867,0.325281 z"
       id="path3441"
       style="stroke-width:0.0232348" />
    <path
       d="m 49.164543,61.957346 c -0.06977,0.162652 -0.09299,0.813228 -0.04656,1.440576 l 0.06964,1.138498 13.081264,0.06977 13.058013,0.04655 V 63.14247 61.632199 H 62.315359 c -10.850712,0 -13.058026,0.04643 -13.150959,0.325281 z"
       id="path3443"
       style="stroke-width:0.0232348" />
    <path
       d="m 23.048505,80.568519 v 1.510259 h 8.713092 8.713092 v -1.510259 -1.510282 h -8.713092 -8.713092 z"
       id="path3445"
       style="stroke-width:0.0232348" />
    <path
       d="m 43.355818,79.38353 c -0.06977,0.162641 -0.09299,0.813216 -0.04655,1.440565 l 0.06964,1.138509 15.98562,0.06964 15.962381,0.04643 V 80.568423 79.058152 H 59.411002 c -13.3136,0 -15.939153,0.04643 -16.055315,0.325282 z"
       id="path3447"
       style="stroke-width:0.0232348" />
  </g>
</svg>
