<?xml version="1.0" encoding="UTF-8" standalone="no"?>
<!-- Created with Inkscape (http://www.inkscape.org/) -->

<svg
   width="100mm"
   height="100mm"
   viewBox="0 0 100 100"
   version="1.1"
   id="svg26768"
   sodipodi:docname="a indexer.svg"
   inkscape:version="1.1.1 (3bf5ae0d25, 2021-09-20)"
   xmlns:inkscape="http://www.inkscape.org/namespaces/inkscape"
   xmlns:sodipodi="http://sodipodi.sourceforge.net/DTD/sodipodi-0.dtd"
   xmlns="http://www.w3.org/2000/svg"
   xmlns:svg="http://www.w3.org/2000/svg">
  <sodipodi:namedview
     id="namedview26770"
     pagecolor="#ffffff"
     bordercolor="#666666"
     borderopacity="1.0"
     inkscape:pageshadow="2"
     inkscape:pageopacity="0.0"
     inkscape:pagecheckerboard="0"
     inkscape:document-units="mm"
     showgrid="false"
     width="209mm"
     inkscape:zoom="0.7500982"
     inkscape:cx="13.998167"
     inkscape:cy="241.96832"
     inkscape:window-width="1920"
     inkscape:window-height="1027"
     inkscape:window-x="1912"
     inkscape:window-y="-8"
     inkscape:window-maximized="1"
     inkscape:current-layer="layer1" />
  <defs
     id="defs26765" />
  <g
     inkscape:label="Layer 1"
     inkscape:groupmode="layer"
     id="layer1">
    <path
       d="M 19.624814,0.93444592 C 19.13024,1.0917505 18.4783,1.3390928 18.186049,1.4964609 17.174415,2.0584759 15.645722,3.6321242 15.061221,4.7786401 l -0.60697,1.1240458 V 49.740079 93.577473 l 0.60697,1.12403 c 0.741869,1.438766 2.000782,2.697695 3.439547,3.439548 l 1.124046,0.606986 32.192384,0.0674 c 32.057498,0.04504 32.192381,0.04504 33.428823,-0.404649 1.641089,-0.62947 3.327151,-2.158148 4.113976,-3.776768 l 0.629457,-1.281397 V 49.740032 6.1274474 L 89.49488,5.0708427 C 88.820451,3.5871213 87.33673,2.0809139 85.853008,1.3615311 L 84.594079,0.732075 52.55905,0.68704006 C 27.245777,0.66452265 20.344197,0.70955748 19.624814,0.93433483 Z M 84.88633,3.9918157 c 1.258912,0.7193831 2.22559,2.1806348 2.405428,3.6643563 0.06738,0.6519418 0.112423,15.579149 0.06738,33.204017 l -0.06738,32.03503 -0.53953,1.168987 c -0.651941,1.483735 -2.495354,3.214752 -3.956607,3.799254 -1.079074,0.404646 -2.045751,0.427116 -30.686174,0.427116 H 22.547303 L 21.041095,77.548722 C 19.422492,76.761898 18.4783,75.79522 17.646504,74.131646 L 17.15193,73.120012 17.08453,40.410586 c -0.04503,-24.099331 0,-32.9567373 0.179854,-33.6086793 0.472092,-1.6410896 1.618608,-2.7426498 3.372109,-3.282179 0.314721,-0.089912 14.679912,-0.1573046 31.922603,-0.1349459 l 31.360602,0.044876 z M 18.725578,77.144076 c 0.359692,0.337205 1.326369,0.944175 2.135679,1.34884 l 1.461235,0.696896 h 29.899351 29.899368 l 1.506206,-0.741868 c 1.034104,-0.494575 1.865884,-1.146516 2.652708,-2.023251 l 1.146531,-1.281413 -0.06739,8.789965 -0.0674,8.789962 -0.674411,1.079075 c -0.494573,0.809295 -1.011634,1.281399 -1.888383,1.731016 l -1.191473,0.629457 h -31.1358 c -24.009404,0 -31.360603,-0.0674 -32.079987,-0.269764 -1.19147,-0.359693 -2.720163,-1.888387 -3.034899,-3.012415 -0.157304,-0.562016 -0.247278,-4.001579 -0.247278,-9.307024 l 0.02251,-8.430272 0.494574,0.674427 c 0.269765,0.359692 0.786825,0.966662 1.168985,1.326369 z"
       id="path3405"
       style="stroke-width:0.0224807" />
    <path
       d="m 42.105527,17.705051 c -4.698475,1.483736 -9.217097,2.900016 -10.048878,3.147311 -1.775972,0.53953 -2.787604,1.326353 -3.349637,2.585283 -0.38216,0.854265 -0.427131,1.888368 -0.427131,17.827207 0,14.769822 0.04503,17.017897 0.337222,17.759766 0.404647,0.966662 1.124029,1.753487 1.910853,2.18062 0.314736,0.157304 4.990725,1.663574 10.386099,3.349635 8.385302,2.607751 10.026391,3.057369 11.285318,3.057369 1.258914,0 2.900002,-0.449618 11.5326,-3.147295 5.530254,-1.708531 10.318656,-3.327151 10.633377,-3.551959 0.921706,-0.696899 1.528693,-1.79846 1.686061,-3.034884 0.0674,-0.651944 0.112422,-8.565157 0.0674,-17.57993 L 76.051411,23.887246 75.53435,23.055467 C 75.242099,22.583379 74.725041,22.021349 74.387836,21.774069 74.050629,21.526775 69.37464,19.953126 64.001737,18.267081 55.616436,15.614359 53.997831,15.16474 52.446652,15.097298 c -1.775971,-0.08992 -1.910853,-0.0674 -10.341125,2.607753 z m 20.794665,3.147311 c 5.260474,1.641091 9.734141,3.124812 9.95895,3.327135 0.337222,0.314736 0.382177,0.876751 0.382177,5.710109 v 5.350416 H 52.221843 31.202384 V 29.86712 c 0,-4.271327 0.0674,-5.440329 0.31472,-5.687623 0.247295,-0.247278 8.58764,-2.967442 18.344267,-5.957388 0.966678,-0.292249 2.068237,-0.472088 2.585281,-0.427132 0.494574,0.04487 5.19305,1.416296 10.45354,3.057385 z m 10.341127,20.457445 v 5.170564 H 52.221843 31.202384 v -5.170564 -5.170563 h 21.019459 21.019476 z m 0,11.442687 c 0,4.586062 -0.04487,5.440329 -0.359691,5.73258 -0.179839,0.202323 -0.382178,0.359689 -0.427134,0.359689 -0.04504,0 -4.451178,1.371326 -9.824067,3.057387 -8.00314,2.495355 -9.913993,3.034884 -10.745789,2.944973 -1.079074,-0.08992 -19.940401,-5.912431 -20.390003,-6.272124 -0.22481,-0.179852 -0.292251,-1.596133 -0.292251,-5.710107 v -5.485285 h 21.019459 21.019476 z"
       id="path3407"
       style="stroke-width:0.0224807" />
    <path
       d="m 36.822565,30.069444 v 1.348855 h 2.810075 2.810093 v -1.348855 -1.34884 H 39.63264 36.822565 Z"
       id="path3409"
       style="stroke-width:0.0224807" />
    <path
       d="m 45.140426,30.069444 v 1.348855 h 4.271342 4.271327 v -1.348855 -1.34884 h -4.271327 -4.271342 z"
       id="path3411"
       style="stroke-width:0.0224807" />
    <path
       d="m 56.380791,30.069444 v 1.348855 h 5.620165 5.620181 v -1.348855 -1.34884 h -5.620181 -5.620165 z"
       id="path3413"
       style="stroke-width:0.0224807" />
    <path
       d="m 36.822565,41.309807 v 1.348838 h 9.779096 9.77913 v -1.348838 -1.348839 h -9.77913 -9.779096 z"
       id="path3415"
       style="stroke-width:0.0224807" />
    <path
       d="m 59.303277,41.309807 v 1.348838 h 4.158932 4.158928 v -1.348838 -1.348839 h -4.158928 -4.158932 z"
       id="path3417"
       style="stroke-width:0.0224807" />
    <path
       d="m 36.822565,52.550171 v 1.348839 h 4.158931 4.15893 v -1.348839 -1.34884 h -4.15893 -4.158931 z"
       id="path3419"
       style="stroke-width:0.0224807" />
    <path
       d="m 48.062914,52.550171 v 1.348839 h 1.348854 1.34884 v -1.348839 -1.34884 h -1.34884 -1.348854 z"
       id="path3421"
       style="stroke-width:0.0224807" />
    <path
       d="m 53.683095,52.550171 v 1.348839 h 6.969022 6.96902 v -1.348839 -1.34884 h -6.96902 -6.969022 z"
       id="path3423"
       style="stroke-width:0.0224807" />
    <path
       d="m 24.233363,85.192172 c -0.944193,0.517043 -1.61862,1.731001 -1.506207,2.720163 0.134946,0.989148 0.629456,1.843414 1.326353,2.203106 l 0.472104,0.269764 -0.472104,-0.629456 c -0.269764,-0.337206 -0.494574,-0.876752 -0.494574,-1.169002 0,-0.741853 1.146515,-1.865897 1.910871,-1.865897 0.764339,0 1.910853,1.124044 1.910853,1.865897 0,0.29225 -0.224809,0.831796 -0.494574,1.169002 l -0.472104,0.629456 0.49459,-0.269764 c 1.483722,-0.809294 1.775972,-3.102342 0.517044,-4.338785 -0.764338,-0.786823 -2.270545,-1.056588 -3.192252,-0.584484 z"
       id="path3425"
       style="stroke-width:0.0224807" />
  </g>
</svg>
