<?xml version="1.0" encoding="UTF-8" standalone="no"?>
<!-- Created with Inkscape (http://www.inkscape.org/) -->

<svg
   width="100mm"
   height="100mm"
   viewBox="0 0 100 100"
   version="1.1"
   id="svg26768"
   xmlns="http://www.w3.org/2000/svg"
   xmlns:svg="http://www.w3.org/2000/svg">
  <defs
     id="defs26765" />
  <path
     d="m 57.128693,1.3449082 c -0.281644,0.051142 -6.605655,2.5347282 -14.081811,5.504715 -14.005,5.5815068 -14.721886,5.9143548 -15.643603,7.6809758 -0.281641,0.537669 -0.35845,1.920253 -0.35845,6.093588 v 5.376687 h 1.536195 1.536193 v -4.967031 c 0,-4.35257 0.0513,-5.018251 0.46086,-5.479112 0.614492,-0.742488 26.397,-11.0094135 28.112417,-11.2142336 1.203366,-0.153583 2.509125,0.2304226 17.947916,5.3766868 9.934077,3.3028348 16.821357,5.7351358 17.077386,6.0167808 0.358451,0.384037 0.409657,1.356964 0.409657,7.52736 v 7.092119 H 76.459178 c -17.48704,0 -17.666273,0 -17.666273,-0.512067 0,-0.512066 -0.179217,-0.512066 -28.726878,-0.512066 H 1.3391241 l 1.5105949,1.536198 1.5105939,1.536198 H 31.576608 c 27.03708,0 27.216297,0 27.216297,-0.512064 0,-0.512066 0.179233,-0.512066 17.666273,-0.512066 h 17.666275 v 9.08916 9.089162 H 76.459178 c -17.48704,0 -17.666273,0 -17.666273,-0.512048 0,-0.512083 -0.179217,-0.512083 -28.726878,-0.512083 H 1.3391241 l 1.5105949,1.536198 1.5105939,1.536199 H 31.576608 c 27.03708,0 27.216297,0 27.216297,-0.512068 0,-0.512064 0.179233,-0.512064 17.666273,-0.512064 h 17.666275 v 9.089178 9.089162 H 76.459178 c -17.48704,0 -17.666273,0 -17.666273,-0.512067 0,-0.512066 -0.179217,-0.512066 -28.726878,-0.512066 H 1.3391241 l 1.5105949,1.536198 1.5105939,1.536198 H 31.576608 c 27.03708,0 27.216297,0 27.216297,-0.512065 0,-0.512067 0.179233,-0.512067 17.666273,-0.512067 h 17.666275 v 7.09212 c 0,6.170395 -0.05129,7.143306 -0.409657,7.52736 -0.256029,0.281643 -7.143309,2.713945 -17.077386,6.016781 C 61.327632,95.513807 59.89386,95.949067 58.690494,95.821053 56.975077,95.616234 31.192569,85.323707 30.578077,84.581217 30.168438,84.12034 30.117217,83.454659 30.117217,79.102105 v -4.967047 h -1.536193 -1.536195 v 5.45351 c 0,5.427893 0,5.45351 0.665686,6.452024 0.358446,0.563271 0.921718,1.228953 1.254561,1.459392 0.307237,0.230421 6.656855,2.86756 14.107408,5.863149 12.980871,5.197469 13.62095,5.427893 15.61801,5.555919 l 2.073866,0.102453 17.0774,-5.683933 c 11.700698,-3.891692 17.282226,-5.863149 17.794284,-6.298408 1.66421,-1.408185 1.561808,1.177746 1.561808,-36.971156 0,-38.148903 0.102474,-35.56297 -1.561808,-36.971139 C 95.123986,12.6616 89.568062,10.690143 77.918568,6.8240524 62.428571,1.6521862 60.815566,1.1657226 59.304969,1.1913251 58.383265,1.2168959 57.410336,1.268196 57.128693,1.3449082 Z"
     id="path4072"
     style="stroke-width:0.0256033" />
  <path
     d="m 59.048944,21.264266 v 1.664211 h 4.736608 4.736609 v -1.664211 -1.664211 h -4.736609 -4.736608 z"
     id="path4124"
     style="stroke-width:0.0256033" />
  <path
     d="m 71.850583,21.264266 v 1.664211 h 7.937016 7.937033 v -1.664211 -1.664211 h -7.937033 -7.937016 z"
     id="path4126"
     style="stroke-width:0.0256033" />
  <path
     d="m 27.044829,40.466737 v 4.736609 h 1.536195 1.536193 v -4.736609 -4.736608 h -1.536193 -1.536195 z"
     id="path4142"
     style="stroke-width:0.0256033" />
  <path
     d="m 59.048944,40.466737 v 1.664212 h 3.072398 3.072397 v -1.664212 -1.66421 h -3.072397 -3.072398 z"
     id="path4146"
     style="stroke-width:0.0256033" />
  <path
     d="m 68.522161,40.466737 v 1.664212 h 4.736608 4.736607 v -1.664212 -1.66421 h -4.736607 -4.736608 z"
     id="path4148"
     style="stroke-width:0.0256033" />
  <path
     d="m 81.323797,40.466737 v 1.664212 h 4.736624 4.736613 v -1.664212 -1.66421 h -4.736613 -4.736624 z"
     id="path4150"
     style="stroke-width:0.0256033" />
  <path
     d="m 27.044829,59.669211 v 4.736608 h 1.536195 1.536193 v -4.736608 -4.736608 h -1.536193 -1.536195 z"
     id="path4156"
     style="stroke-width:0.0256033" />
  <path
     d="m 59.048944,59.669211 v 1.664211 h 6.272806 6.272808 V 59.669211 58.004999 H 65.32175 59.048944 Z"
     id="path4158"
     style="stroke-width:0.0256033" />
  <path
     d="m 74.92298,59.669211 v 1.664211 h 6.400817 6.400835 V 59.669211 58.004999 H 81.323797 74.92298 Z"
     id="path4160"
     style="stroke-width:0.0256033" />
  <path
     d="m 59.048944,78.871682 v 1.664211 h 3.072398 3.072397 v -1.664211 -1.664227 h -3.072397 -3.072398 z"
     id="path4162"
     style="stroke-width:0.0256033" />
  <path
     d="m 68.522161,78.871682 v 1.664211 h 6.400819 6.400817 V 78.871682 77.207455 H 74.92298 68.522161 Z"
     id="path4164"
     style="stroke-width:0.0256033" />
  <path
     d="m 84.652236,78.871682 v 1.664211 h 3.072396 3.072402 v -1.664211 -1.664227 h -3.072402 -3.072396 z"
     id="path4166"
     style="stroke-width:0.0256033" />
</svg>
