<?xml version="1.0" encoding="UTF-8" standalone="no"?>
<!-- Created with Inkscape (http://www.inkscape.org/) -->

<svg
   width="100mm"
   height="100mm"
   viewBox="0 0 100 100"
   version="1.1"
   id="svg26768"
   xmlns="http://www.w3.org/2000/svg"
   xmlns:svg="http://www.w3.org/2000/svg">
  <defs
     id="defs26765" />
  <g
     id="layer1">
    <path
       d="M 48.415218,6.2504946 C 47.324552,6.5180142 9.8305902,21.457981 8.2666213,22.239964 7.3817462,22.713269 6.5174566,23.680456 6.0029935,24.812273 5.6325804,25.594255 5.6119959,26.870119 5.6119959,50.226678 v 24.591271 l 0.4938879,1.028923 c 0.9671883,2.057845 0.1646293,1.687434 21.9572172,10.433283 l 20.043435,8.046181 2.36652,0.02058 2.366529,0.02058 19.961111,-7.984444 c 12.491126,-5.00057 20.228629,-8.21081 20.681365,-8.560645 0.390986,-0.308677 1.008343,-1.028921 1.337591,-1.563964 l 0.617357,-0.987765 V 50.350154 c 0,-24.364907 0,-24.941105 -0.411565,-25.743662 C 94.037676,22.610377 94.860815,23.001367 72.965325,14.23494 53.456931,6.4357004 52.757271,6.1887589 51.172726,6.085867 50.205535,6.0241275 49.094301,6.106442 48.415218,6.2504946 Z m 5.967751,3.2719762 c 1.255286,0.4938832 2.26363,0.9260322 2.26363,0.9877662 0,0.06174 -8.972213,3.786438 -19.919958,8.293122 l -19.919957,8.169653 -3.333709,-1.35818 c -1.852057,-0.761402 -3.313135,-1.399336 -3.292558,-1.419915 0.04116,-0.04115 8.76643,-3.539496 19.405502,-7.799238 L 48.929673,8.6581749 h 1.605122 c 1.399339,0 1.893218,0.1234661 3.848174,0.8642959 z m 9.466092,3.7864382 c 1.872641,0.740825 3.457186,1.419913 3.560077,1.502226 0.144053,0.14405 -39.284288,16.483355 -39.819339,16.483355 -0.26752,0 -6.934941,-2.634044 -7.202461,-2.860408 -0.144043,-0.123466 39.243145,-16.442195 39.757599,-16.462773 0.185208,-0.02058 1.852067,0.596775 3.704124,1.3376 z m 11.132948,4.44495 c 1.769752,0.720246 3.251407,1.378757 3.29256,1.461069 0.04116,0.102886 -8.931052,3.889331 -19.919959,8.416594 l -20.022847,8.231387 -3.621816,-1.502228 c -2.634042,-1.090659 -3.56007,-1.563963 -3.354288,-1.687434 0.967192,-0.617355 39.654709,-16.380461 40.004544,-16.298148 0.226368,0.04116 1.852065,0.67909 3.621806,1.37876 z m 11.750307,4.712467 c 2.345944,0.926032 4.259747,1.728591 4.218586,1.74917 -0.185207,0.185206 -40.128011,16.54509 -40.395531,16.54509 -0.32926,0 -8.313705,-3.230821 -8.56064,-3.457185 -0.164629,-0.164626 39.983968,-16.730294 40.272056,-16.6274 0.123479,0.04115 2.119585,0.843716 4.465529,1.790325 z M 28.927401,34.731094 49.238355,43.085952 V 54.568734 66.0721 l -0.967189,-0.390992 c -0.555628,-0.205784 -2.531161,-1.008345 -4.424368,-1.769748 -1.893228,-0.761404 -3.601241,-1.337601 -3.786446,-1.296442 -0.185206,0.04116 -0.535032,0.329254 -0.781985,0.63793 -0.390988,0.535041 -0.390988,0.617356 -0.123466,1.131817 0.267521,0.452726 1.172972,0.884875 5.206352,2.489994 l 4.877103,1.954954 v 5.00057 c 0,2.757513 -0.08234,5.000565 -0.185205,5.000565 -0.08234,0 -0.843723,-0.288096 -1.66686,-0.617354 -1.872643,-0.761401 -2.551736,-0.781981 -3.004461,-0.102886 -0.26752,0.432148 -0.288097,0.617355 -0.102887,1.111236 0.20579,0.473305 0.617355,0.720248 2.551734,1.48165 l 2.304783,0.926032 0.0617,5.103459 0.04116,5.103461 -0.452726,-0.08231 C 48.106517,91.609984 10.15982,76.402495 9.4395752,75.990926 8.2048627,75.27068 8.0813961,74.694483 8.0813961,69.735071 c 0,-2.469416 0.020619,-4.486106 0.061701,-4.486106 0.020619,0 2.5928879,1.028925 5.7002409,2.263632 3.107342,1.255287 5.844283,2.243055 6.050066,2.222474 0.205779,-0.04117 0.576191,-0.308677 0.80256,-0.596774 0.349836,-0.493885 0.370412,-0.617356 0.123466,-1.111237 -0.246933,-0.493885 -1.111233,-0.884876 -6.50279,-3.045614 L 8.081363,62.49145 v -4.979988 -4.979988 l 1.0700822,0.04115 c 0.9877768,0.02058 1.0906568,-0.02058 1.3581868,-0.576197 0.267519,-0.514461 0.246934,-0.637932 -0.102897,-1.090657 C 10.200952,50.617667 9.6247482,50.226676 9.1102952,50.020891 L 8.1842657,49.650483 8.1225651,44.588182 c -0.020619,-2.778094 -0.020619,-5.062303 0.020619,-5.062303 0.041165,0 0.8642991,0.329255 1.8520651,0.720246 0.9877688,0.390991 1.9343718,0.720245 2.0989998,0.720245 0.473303,0 1.131821,-0.761401 1.131821,-1.296443 0,-0.720245 -0.473313,-1.049502 -2.922148,-2.01669 L 8.0814573,36.788938 v -5.226931 c 0,-4.033379 0.061701,-5.206352 0.2675196,-5.206352 0.1234666,0 9.3837771,3.765859 20.5784671,8.375436 z m 64.101924,3.271976 -0.0617,11.647412 -1.275862,0.514462 -1.296449,0.514462 v 1.317021 c 0,0.720247 0.08234,1.317022 0.185207,1.317022 0.102886,0 0.617354,-0.185206 1.152395,-0.411568 0.535042,-0.226364 1.049505,-0.411571 1.152396,-0.411571 0.102886,0 0.185205,2.099005 0.185205,4.979989 v 5.000568 l -3.827598,1.522806 c -2.099001,0.82314 -3.86875,1.6257 -3.909903,1.769749 -0.0617,0.144051 -0.08234,0.761404 -0.04116,1.399337 l 0.06171,1.131815 3.807013,-1.522805 c 2.078434,-0.843719 3.827599,-1.522808 3.848175,-1.522808 0.04116,0 0.06171,1.996111 0.06171,4.444948 0,4.218586 -0.02054,4.486107 -0.452725,5.268089 -0.267521,0.452725 -0.720247,0.94661 -1.008343,1.090657 -0.761432,0.411569 -38.605237,15.516167 -39.202008,15.660216 l -0.493886,0.123465 0.04116,-5.103461 0.0617,-5.103459 5.103461,-2.037268 5.082876,-2.037268 v -1.317024 c 0,-0.720245 -0.0617,-1.317021 -0.16463,-1.317021 -0.08234,0 -2.345943,0.884876 -5.041723,1.954954 -2.675201,1.070081 -4.918256,1.954954 -4.979984,1.954954 -0.0617,0 -0.102896,-2.243051 -0.102896,-5.000566 v -5.000569 l 6.379324,-2.551728 6.379324,-2.551731 v -1.378758 -1.378755 l -6.317585,2.531147 -6.338162,2.531152 -0.0617,-4.959409 c -0.02062,-2.716358 0.02062,-5.021145 0.102886,-5.103461 0.102886,-0.08231 1.255286,-0.576196 2.592888,-1.111236 l 2.407673,-0.967188 V 52.57262 c 0,-0.720247 -0.08234,-1.317022 -0.16462,-1.317022 -0.08234,0 -1.193548,0.411569 -2.469421,0.92603 -1.255285,0.514463 -2.345943,0.926032 -2.407672,0.926032 -0.0617,0 -0.102897,-2.263632 -0.102897,-5.021146 V 43.085946 L 72.142155,34.731089 C 83.25453,30.14209 92.514837,26.37623 92.720619,26.37623 c 0.32926,-0.02058 0.349834,0.617354 0.308673,11.626835 z"
       id="path16220"
       style="stroke-width:0.0205785" />
    <path
       d="m 18.658749,42.098185 c -0.26752,0.432148 -0.288095,0.617354 -0.102886,1.09066 0.226358,0.535038 1.2347,0.987765 11.997239,5.288663 6.482216,2.592889 11.976675,4.73305 12.223609,4.794786 1.008352,0.185206 1.728598,-1.378759 0.967189,-2.078426 -0.535045,-0.473305 -23.52119,-9.610145 -24.179698,-9.610145 -0.370412,0 -0.679093,0.164628 -0.905453,0.514462 z"
       id="path16222"
       style="stroke-width:0.0205785" />
    <path
       d="m 16.353958,53.642705 c -0.473302,0.329255 -0.596768,1.172972 -0.267521,1.687434 0.22637,0.370413 5.494452,2.510573 6.194118,2.510573 0.967193,0 1.502233,-0.967187 1.028921,-1.852062 -0.185205,-0.329256 -5.617916,-2.675201 -6.235271,-2.675201 -0.144052,0 -0.473303,0.144051 -0.720247,0.329256 z"
       id="path16224"
       style="stroke-width:0.0205785" />
    <path
       d="m 29.09203,58.993106 c -0.535041,0.658512 -0.535041,0.946611 -0.0617,1.481648 0.411563,0.514462 2.757506,1.481651 3.539491,1.481651 1.008342,0 1.56396,-1.111238 0.987768,-1.913797 -0.288096,-0.370413 -3.086778,-1.584543 -3.683546,-1.584543 -0.185205,0 -0.555616,0.246943 -0.781985,0.535041 z"
       id="path16226"
       style="stroke-width:0.0205785" />
    <path
       d="m 26.540305,70.763991 c -0.493888,0.555617 -0.432149,1.419914 0.123465,1.769747 0.617355,0.411569 10.762541,4.444949 11.153528,4.444949 0.473311,0 1.131819,-0.761402 1.131819,-1.296444 0,-0.26752 -0.16463,-0.637932 -0.349835,-0.823138 -0.493879,-0.432148 -10.639073,-4.465527 -11.256418,-4.465527 -0.246944,0 -0.617356,0.164627 -0.80256,0.370413 z"
       id="path16228"
       style="stroke-width:0.0205785" />
    <path
       d="m 80.126634,41.8924 c -5.473873,2.201895 -10.042296,4.074538 -10.145186,4.17743 -0.102896,0.102886 -0.164629,0.740824 -0.123479,1.44049 l 0.0617,1.23471 10.186346,-4.074537 10.186337,-4.074536 0.0617,-1.358179 c 0.04116,-0.740823 -0.02063,-1.358178 -0.102886,-1.337602 -0.08234,0 -4.650747,1.790328 -10.124609,3.992224 z"
       id="path16230"
       style="stroke-width:0.0205785" />
    <path
       d="m 63.231714,48.642137 -3.601231,1.48165 -0.0617,1.399337 -0.0617,1.378757 0.987766,-0.390991 c 0.535042,-0.205786 2.304782,-0.926031 3.930492,-1.563964 l 2.922136,-1.172974 v -1.31702 c 0,-0.926032 -0.08234,-1.317022 -0.246935,-1.296445 -0.144054,0 -1.893227,0.679089 -3.868752,1.48165 z"
       id="path16232"
       style="stroke-width:0.0205785" />
    <path
       d="m 85.044879,52.798988 -2.160727,0.884873 -0.0617,1.358179 c -0.04108,0.740825 0.02062,1.35818 0.102897,1.35818 0.08234,-0.02058 1.234709,-0.452727 2.531147,-0.987768 l 2.366521,-0.967187 0.06171,-1.296443 c 0.08234,-1.563963 0.123466,-1.563963 -2.839834,-0.349834 z"
       id="path16234"
       style="stroke-width:0.0205785" />
    <path
       d="m 73.726734,57.32625 -6.276444,2.531152 -0.0617,1.378757 c -0.06171,1.255287 -0.02063,1.378759 0.308672,1.255287 0.205782,-0.08231 3.086766,-1.21413 6.399911,-2.531152 l 6.008912,-2.407679 v -1.399338 c 0,-0.761402 -0.02062,-1.399335 -0.04117,-1.378757 -0.04116,0 -2.880996,1.152394 -6.338172,2.55173 z"
       id="path16236"
       style="stroke-width:0.0205785" />
    <path
       d="m 78.665556,68.191682 -3.60123,1.481649 -0.0617,1.399336 -0.06171,1.378758 0.987767,-0.390992 c 0.53504,-0.205784 2.304792,-0.926031 3.930481,-1.563964 l 2.922144,-1.172973 v -1.317021 c 0,-0.926029 -0.08234,-1.317022 -0.246934,-1.296442 -0.144052,0 -1.893226,0.67909 -3.868759,1.481649 z"
       id="path16238"
       style="stroke-width:0.0205785" />
    <path
       d="m 68.376327,72.307374 -3.60123,1.48165 -0.06171,1.399337 -0.0617,1.378758 0.987766,-0.390992 c 0.53504,-0.205785 2.304792,-0.92603 3.93049,-1.563963 l 2.922146,-1.172973 v -1.317023 c 0,-0.92603 -0.08234,-1.317021 -0.246945,-1.296441 -0.144053,0 -1.893218,0.679089 -3.86875,1.481647 z"
       id="path16240"
       style="stroke-width:0.0205785" />
  </g>
</svg>
