<?xml version="1.0" encoding="UTF-8" standalone="no"?>
<!-- Created with Inkscape (http://www.inkscape.org/) -->

<svg
   width="100mm"
   height="100mm"
   viewBox="0 0 100 100"
   version="1.1"
   id="svg26768"
   sodipodi:docname="a KV Store.svg"
   inkscape:version="1.1.1 (3bf5ae0d25, 2021-09-20)"
   xmlns:inkscape="http://www.inkscape.org/namespaces/inkscape"
   xmlns:sodipodi="http://sodipodi.sourceforge.net/DTD/sodipodi-0.dtd"
   xmlns="http://www.w3.org/2000/svg"
   xmlns:svg="http://www.w3.org/2000/svg">
  <sodipodi:namedview
     id="namedview26770"
     pagecolor="#ffffff"
     bordercolor="#666666"
     borderopacity="1.0"
     inkscape:pageshadow="2"
     inkscape:pageopacity="0.0"
     inkscape:pagecheckerboard="0"
     inkscape:document-units="mm"
     showgrid="false"
     width="209mm"
     inkscape:zoom="0.7500982"
     inkscape:cx="13.998167"
     inkscape:cy="135.31562"
     inkscape:window-width="1920"
     inkscape:window-height="1009"
     inkscape:window-x="1912"
     inkscape:window-y="-8"
     inkscape:window-maximized="1"
     inkscape:current-layer="layer1" />
  <defs
     id="defs26765" />
  <g
     inkscape:label="Layer 1"
     inkscape:groupmode="layer"
     id="layer1">
    <path
       d="M 45.478743,1.2632964 C 28.803009,1.7640698 16.383842,4.5433579 12.127272,8.7748897 c -0.70108,0.7010809 -1.276969,1.5523953 -1.427201,2.1282843 -0.37558,1.377125 -0.37558,77.6949 0,79.097064 0.600926,2.228439 3.931067,4.481916 8.988873,6.084389 13.996599,4.456873 42.265223,4.957653 59.09119,1.026584 5.208036,-1.201854 9.339414,-3.029675 11.267387,-4.957649 0.976508,-0.976508 1.251933,-1.452242 1.477281,-2.553942 0.200308,-0.976507 0.275425,-12.193819 0.225347,-39.911593 L 91.675034,11.128521 90.99899,9.9517044 C 87.568697,4.117702 68.990025,0.58725375 45.478743,1.2632964 Z m 20.531684,4.0812981 c 12.794745,1.4522411 21.683462,4.181454 21.983926,6.7604335 0.125192,0.926431 -0.250386,1.302009 -2.178361,2.253477 -6.159505,3.079753 -16.951158,4.807421 -31.698919,5.082844 -14.54745,0.275425 -26.14034,-0.976507 -34.327976,-3.705718 -5.032766,-1.677589 -6.535085,-3.054714 -5.057804,-4.657186 1.151777,-1.2769716 5.583615,-2.954561 10.591345,-4.056261 4.20649,-0.9264293 8.663369,-1.5023189 16.400308,-2.1282849 3.179909,-0.2503868 20.882227,0.07512 24.287481,0.4506954 z M 20.690489,17.838877 c 8.087481,2.428749 19.555177,3.580525 33.30139,3.355178 15.974654,-0.275426 26.540959,-2.103245 33.877282,-5.884082 0.100159,-0.05008 0.175269,16.575581 0.175269,36.931995 v 37.032149 l -0.676042,0.651005 c -2.729212,2.553941 -12.519322,4.957651 -24.362598,6.009273 -4.682225,0.400619 -19.304791,0.400619 -24.037094,0 C 27.500999,94.932849 18.386933,92.754488 15.006718,90.200547 L 14.180442,89.59962 V 52.442277 15.284935 l 1.827821,0.851314 c 1.001546,0.450696 3.104791,1.226894 4.682226,1.702628 z"
       id="path8008"
       style="stroke-width:0.0250387" />
    <path
       d="m 28.452468,53.944596 v 12.143741 h 2.75425 2.75425 v -3.705719 -3.705719 l 1.452241,-1.427202 1.452241,-1.427202 3.730757,5.258113 3.755796,5.233076 3.33014,0.02503 h 3.305099 l -2.078205,-2.829366 c -1.151778,-1.527357 -3.430294,-4.60711 -5.057807,-6.810512 -1.627511,-2.203399 -3.054713,-4.131375 -3.179906,-4.306646 -0.150232,-0.200307 1.251933,-1.82782 4.657186,-5.283152 2.704174,-2.75425 4.907573,-5.082844 4.907573,-5.15796 0,-0.07511 -1.4272,-0.150233 -3.179907,-0.150233 H 43.85123 l -4.882534,5.283155 -4.882535,5.258114 -0.07511,-5.283153 -0.05007,-5.258116 h -2.75425 -2.754249 z"
       id="path8010"
       style="stroke-width:0.0250387" />
    <path
       d="m 51.112437,42.101319 c 0.07511,0.175271 2.328594,5.733848 4.982689,12.34405 l 4.857496,12.018548 h 2.453786 2.453787 l 4.957651,-12.268934 c 2.729212,-6.735395 4.957652,-12.293973 4.957652,-12.344049 0,-0.02503 -1.327049,-0.02503 -2.92952,0 l -2.904485,0.07511 -3.104791,8.137559 c -1.677588,4.481916 -3.129829,8.312827 -3.229984,8.513137 -0.125191,0.325502 -0.150232,0.325502 -0.350541,0 -0.100159,-0.20031 -1.577435,-4.056259 -3.255022,-8.588253 L 56.94644,41.80085 h -2.9796 c -2.278515,0 -2.92952,0.07511 -2.854403,0.300464 z"
       id="path8012"
       style="stroke-width:0.0250387" />
  </g>
</svg>
