<?xml version="1.0" encoding="UTF-8" standalone="no"?>
<!-- Created with Inkscape (http://www.inkscape.org/) -->

<svg
   width="100mm"
   height="100mm"
   viewBox="0 0 100 100"
   version="1.1"
   id="svg26768"
   sodipodi:docname="a laptop.svg"
   inkscape:version="1.1.1 (3bf5ae0d25, 2021-09-20)"
   xmlns:inkscape="http://www.inkscape.org/namespaces/inkscape"
   xmlns:sodipodi="http://sodipodi.sourceforge.net/DTD/sodipodi-0.dtd"
   xmlns="http://www.w3.org/2000/svg"
   xmlns:svg="http://www.w3.org/2000/svg">
  <sodipodi:namedview
     id="namedview26770"
     pagecolor="#ffffff"
     bordercolor="#666666"
     borderopacity="1.0"
     inkscape:pageshadow="2"
     inkscape:pageopacity="0.0"
     inkscape:pagecheckerboard="0"
     inkscape:document-units="mm"
     showgrid="false"
     width="209mm"
     inkscape:zoom="0.7500982"
     inkscape:cx="13.998167"
     inkscape:cy="241.96832"
     inkscape:window-width="1920"
     inkscape:window-height="1027"
     inkscape:window-x="1912"
     inkscape:window-y="-8"
     inkscape:window-maximized="1"
     inkscape:current-layer="layer1" />
  <defs
     id="defs26765" />
  <g
     inkscape:label="Layer 1"
     inkscape:groupmode="layer"
     id="layer1">
    <path
       d="m 8.7266679,25.702252 c -0.51427,0.278563 -1.2213923,0.921401 -1.5856677,1.414243 L 6.4981628,28.037897 6.4338789,57.37274 6.3910169,86.707582 H 4.9982016 3.6053853 v 3.364185 c 0,1.864233 0.1071391,3.749888 0.2357074,4.199873 0.278563,1.049968 1.3499597,2.249935 2.4427847,2.742777 0.8142618,0.385704 2.7427765,0.407133 44.2058346,0.407133 38.634558,0 43.434419,-0.04288 44.141537,-0.321421 1.007122,-0.428555 1.692811,-1.071398 2.249945,-2.142794 0.428546,-0.771406 0.471409,-1.199962 0.471409,-4.499865 v -3.642748 l -1.328532,-0.06428 -1.349964,-0.06428 V 57.715586 c 0,-27.770603 -0.02144,-29.013424 -0.407126,-29.827685 C 93.752712,26.75222 93.088447,26.109383 92.017049,25.61654 91.159927,25.230837 89.681398,25.209409 50.403998,25.209409 H 9.6694969 Z m 82.7332561,1.607094 c 0.428561,0.21428 0.899975,0.685695 1.11425,1.114253 0.36428,0.707122 0.385709,2.549925 0.385709,29.506267 V 86.707582 H 50.532569 8.1052579 V 57.887009 c 0,-31.841911 -0.10714,-29.656261 1.349961,-30.534806 0.6642651,-0.428559 1.3928151,-0.428559 40.9702101,-0.428559 37.927444,0 40.327371,0.02143 41.034495,0.385702 z M 41.147131,89.750347 c 0.0857,0.899974 0.23571,1.221395 0.792835,1.714233 l 0.664266,0.599983 h 7.885483 c 6.94265,0 7.928331,-0.04283 8.378322,-0.342844 0.599978,-0.428562 1.092821,-1.542811 1.092821,-2.442786 v -0.642837 h 17.785188 17.785186 v 2.67849 2.678491 l -0.728553,0.814265 -0.728547,0.792835 -43.220143,0.06428 C 10.740894,95.707286 7.5909869,95.685901 6.8838655,95.343039 5.7053293,94.785915 5.3196267,93.735946 5.3196267,90.928887 V 88.636096 H 23.190524 41.039991 Z M 58.88946,89.536065 c 0,1.735663 0.299991,1.671382 -8.356891,1.671382 -5.956965,0 -7.714057,-0.06428 -8.014049,-0.278563 -0.235703,-0.171422 -0.428555,-0.664265 -0.492843,-1.285678 l -0.128563,-1.00711 h 8.506884 8.485462 z"
       id="path4103"
       style="stroke-width:0.0214279" />
    <path
       d="m 12.94797,30.973524 c -0.342845,0.235707 -0.749976,0.642837 -0.899972,0.9214 -0.235706,0.385703 -0.278563,5.2927 -0.299991,24.020716 0,25.842089 -0.06428,24.406419 1.285676,25.113542 0.557127,0.278562 4.971282,0.321415 37.627455,0.321415 H 87.645755 L 88.481442,80.51491 89.31713,79.679222 89.274302,55.851356 89.21002,32.023492 88.417191,31.294942 87.602926,30.566393 H 50.596849 c -36.234633,0 -37.048896,0.02143 -37.648879,0.407131 z m 74.676356,0.728549 c 0.835687,0.642839 0.835687,0.471414 0.835687,24.256423 0,24.513554 0.02144,24.020712 -0.964257,24.406415 -0.192851,0.06428 -16.885213,0.128569 -37.091758,0.128569 H 13.655092 L 13.140823,79.957786 12.605125,79.443513 V 55.958496 32.473479 l 0.535698,-0.514271 0.514269,-0.535698 h 36.813194 c 28.60629,0.02143 36.898899,0.06428 37.15604,0.278563 z"
       id="path4105"
       style="stroke-width:0.0214279" />
    <path
       d="m 81.388792,91.636008 c 0,0.407127 0.15,0.428555 3.96417,0.428555 3.814175,0 3.964168,-0.02144 3.964168,-0.428555 0,-0.407131 -0.149993,-0.428561 -3.964168,-0.428561 -3.81417,0 -3.96417,0.02144 -3.96417,0.428561 z"
       id="path4107"
       style="stroke-width:0.0214279" />
  </g>
</svg>
