<?xml version="1.0" encoding="UTF-8" standalone="no"?>
<!-- Created with Inkscape (http://www.inkscape.org/) -->

<svg
   width="100mm"
   height="100mm"
   viewBox="0 0 100 100"
   version="1.1"
   id="svg26768"
   sodipodi:docname="a license server.svg"
   inkscape:version="1.1.1 (3bf5ae0d25, 2021-09-20)"
   xmlns:inkscape="http://www.inkscape.org/namespaces/inkscape"
   xmlns:sodipodi="http://sodipodi.sourceforge.net/DTD/sodipodi-0.dtd"
   xmlns="http://www.w3.org/2000/svg"
   xmlns:svg="http://www.w3.org/2000/svg">
  <sodipodi:namedview
     id="namedview26770"
     pagecolor="#ffffff"
     bordercolor="#666666"
     borderopacity="1.0"
     inkscape:pageshadow="2"
     inkscape:pageopacity="0.0"
     inkscape:pagecheckerboard="0"
     inkscape:document-units="mm"
     showgrid="false"
     width="209mm"
     inkscape:zoom="0.7500982"
     inkscape:cx="13.998167"
     inkscape:cy="241.96832"
     inkscape:window-width="1920"
     inkscape:window-height="1027"
     inkscape:window-x="1912"
     inkscape:window-y="-8"
     inkscape:window-maximized="1"
     inkscape:current-layer="layer1" />
  <defs
     id="defs26765" />
  <g
     inkscape:label="Layer 1"
     inkscape:groupmode="layer"
     id="layer1">
    <path
       d="M 18.925736,0.98653243 C 16.578017,1.7691099 14.543338,4.0720968 14.02907,6.5092567 13.872561,7.2918215 13.82784,20.908565 13.850201,50.132023 l 0.06708,42.482467 0.581339,1.252112 c 0.804924,1.699291 2.012318,2.973765 3.510392,3.711622 l 1.274474,0.626057 h 32.309026 32.309037 l 1.185032,-0.626057 c 1.498063,-0.782565 2.727817,-2.012331 3.420953,-3.420951 l 0.536612,-1.095607 V 49.461258 5.8608396 L 88.52989,4.8099541 C 87.836753,3.4013198 86.38341,1.992698 84.907697,1.2995609 L 83.677943,0.71822423 51.816096,0.67350403 c -28.239653,-0.044721 -31.973634,0 -32.89036,0.3130284 z m 64.05907,2.54894767 c 1.252113,0.3130285 2.548947,1.3862743 3.063203,2.5265877 0.40247,0.8720052 0.42483,2.2806394 0.42483,33.4940682 0,32.085435 0,32.599692 -0.447177,33.784725 -0.648418,1.699302 -1.766382,2.906697 -3.532753,3.778702 l -1.498063,0.737856 H 51.48072 21.966581 l -1.274474,-0.626057 c -1.609863,-0.782565 -3.152645,-2.459507 -3.689261,-4.024648 -0.38011,-1.095607 -0.402469,-2.794897 -0.402469,-33.58351 0,-25.578905 0.06708,-32.5996907 0.290668,-33.2257476 0.357749,-1.0285256 1.766383,-2.3924398 2.861976,-2.772536 0.737858,-0.2683082 6.014621,-0.3130284 31.571178,-0.3353884 21.420108,0 30.989843,0.06708 31.660607,0.2459481 z M 17.181713,75.420272 c 0.491909,0.939086 2.146492,2.25828 3.532754,2.817257 l 1.252114,0.514256 29.04459,0.06708 c 32.309023,0.06708 30.65444,0.13416 32.95744,-1.453341 0.626056,-0.424829 1.475702,-1.207395 1.833451,-1.699304 l 0.670777,-0.916724 v 8.608288 c 0,7.825711 -0.04472,8.675357 -0.42483,9.480293 -0.514256,1.140314 -1.788729,2.25828 -2.906683,2.57131 -0.603698,0.156507 -10.687701,0.201227 -32.040727,0.178866 -34.366062,-0.06708 -31.638247,0.04472 -33.136308,-1.453341 -1.341555,-1.319194 -1.363914,-1.386274 -1.430995,-10.754768 -0.04472,-4.919028 0,-8.541208 0.13416,-8.541208 0.111802,0 0.33539,0.268307 0.514257,0.581336 z"
       id="path4011"
       style="stroke-width:0.0223593" />
    <path
       d="m 32.140012,12.076689 c -0.29067,0.15652 -0.782577,0.626056 -1.050886,1.028525 l -0.514257,0.760205 v 25.735437 c 0,28.75391 -0.111802,26.786298 1.565143,27.680663 0.737857,0.380109 1.766382,0.40247 19.295975,0.40247 20.078553,0 19.474856,0.04472 20.458662,-1.229753 l 0.491909,-0.626058 V 39.690285 c 0,-23.901976 -0.02235,-26.182602 -0.357748,-26.696872 -0.827297,-1.252113 -0.04472,-1.207392 -20.481023,-1.207392 -14.622909,0 -18.982946,0.06708 -19.407775,0.290668 z m 29.290538,6.640677 v 1.341553 H 48.797613 36.164673 v -1.341553 -1.341555 h 12.63294 12.632937 z m 8.2729,26.495642 V 64.777292 H 51.48072 33.257977 V 45.369517 c 0,-10.687688 0.06708,-19.497205 0.156508,-19.564285 0.06708,-0.08944 8.272901,-0.15652 18.222743,-0.15652 H 69.70345 Z"
       id="path4013"
       style="stroke-width:0.0223593" />
    <path
       d="m 36.164673,32.691857 v 1.453356 h 8.384688 8.3847 v -1.453356 -1.453341 h -8.3847 -8.384688 z"
       id="path4015"
       style="stroke-width:0.0223593" />
    <path
       d="m 60.133716,32.021081 c -0.223589,0.49191 -0.335388,0.536629 -0.715498,0.335388 -0.558975,-0.290668 -0.894365,-0.111803 -0.894365,0.49191 0,0.380109 -0.111802,0.447176 -0.626055,0.335376 -0.603698,-0.111802 -0.626058,-0.08944 -0.536619,0.514268 0.06708,0.536616 0,0.670777 -0.469547,0.782578 -0.514257,0.134148 -0.558978,0.201228 -0.335389,0.693137 0.2236,0.469536 0.178881,0.603696 -0.268309,0.916726 l -0.514257,0.357735 0.536618,0.40247 c 0.491909,0.380108 0.514268,0.402467 0.13416,0.827297 -0.491909,0.558977 -0.491909,0.648404 0.178868,0.804924 0.491909,0.134149 0.51427,0.201229 0.335389,0.715497 -0.313029,0.782566 -0.313029,0.760205 0.447188,0.760205 0.626058,0 0.648417,0.04472 0.514257,0.670778 -0.111802,0.670776 -0.111802,0.670776 0.491909,0.447189 0.648405,-0.245949 0.983793,-0.04472 1.006152,0.603696 0,0.156521 0.04472,0.290669 0.111802,0.290669 0.06708,0 0.31303,-0.134148 0.581337,-0.290669 0.38011,-0.223587 0.491909,-0.201228 0.849658,0.245948 l 0.380096,0.536616 0.357748,-0.536616 c 0.313029,-0.469535 0.40247,-0.491896 0.849658,-0.223587 0.424816,0.268308 0.536616,0.268308 0.693125,0 0.111802,-0.156522 0.20124,-0.424829 0.20124,-0.581337 0,-0.335389 0.04472,-0.335389 0.760205,-0.04472 0.536629,0.201227 0.58135,0.178866 0.58135,-0.44719 0,-0.558977 0.08944,-0.670778 0.558976,-0.670778 0.603698,0 0.693137,-0.223587 0.335389,-0.894365 -0.201228,-0.357747 -0.134161,-0.469537 0.335376,-0.581335 0.67079,-0.156522 0.693136,-0.245948 0.178881,-0.804926 -0.38011,-0.424829 -0.357749,-0.447188 0.13416,-0.827297 l 0.536616,-0.40247 -0.536616,-0.380095 c -0.44719,-0.31303 -0.491909,-0.424829 -0.245948,-0.804938 0.357735,-0.581337 0.357735,-0.603696 -0.31303,-0.760218 -0.514268,-0.134148 -0.581348,-0.245948 -0.447188,-0.804924 0.111802,-0.626057 0.08944,-0.648417 -0.536616,-0.514269 -0.603697,0.111803 -0.670777,0.06708 -0.670777,-0.469537 0,-0.626058 -0.223601,-0.715497 -0.872018,-0.357748 -0.335389,0.156521 -0.469536,0.08944 -0.670766,-0.380109 l -0.26832,-0.581337 -0.491896,0.46955 -0.514269,0.491896 -0.447177,-0.469537 -0.447188,-0.447188 z"
       id="path4017"
       style="stroke-width:0.0223593" />
    <path
       d="m 36.164673,41.076559 v 1.341552 h 8.384688 8.3847 v -1.341552 -1.341555 h -8.3847 -8.384688 z"
       id="path4019"
       style="stroke-width:0.0223593" />
    <path
       d="m 36.164673,49.461258 v 1.453343 H 50.139165 64.113658 V 49.461258 48.007904 H 50.139165 36.164673 Z"
       id="path4021"
       style="stroke-width:0.0223593" />
    <path
       d="m 36.164673,57.845947 v 1.341554 H 47.344269 58.523853 V 57.845947 56.504393 H 47.344269 36.164673 Z"
       id="path4023"
       style="stroke-width:0.0223593" />
    <path
       d="m 23.598803,84.811126 c -0.804926,0.424829 -1.296835,1.408634 -1.296835,2.526587 0,0.715497 0.156522,1.073246 0.693138,1.632223 0.46955,0.514257 0.603697,0.581338 0.447188,0.245948 -0.424828,-0.827284 -0.290667,-1.83345 0.31303,-2.414787 1.520422,-1.542783 3.75634,0.402468 2.772535,2.414787 -0.15652,0.33539 -0.02235,0.268309 0.447189,-0.245948 1.207394,-1.252115 0.849646,-3.398593 -0.670776,-4.20353 -0.804939,-0.402457 -1.922892,-0.380097 -2.705469,0.04472 z"
       id="path4025"
       style="stroke-width:0.0223593" />
  </g>
</svg>
