<?xml version="1.0" encoding="UTF-8" standalone="no"?>
<!-- Created with Inkscape (http://www.inkscape.org/) -->

<svg
   width="100mm"
   height="100mm"
   viewBox="0 0 100 100"
   version="1.1"
   id="svg26768"
   xmlns="http://www.w3.org/2000/svg"
   xmlns:svg="http://www.w3.org/2000/svg">
  <defs
     id="defs26765" />
  <path
     d="m 7.7803944,13.593106 c -2.581376,1.075565 -3.89357,2.280212 -5.012166,4.646465 l -0.666854,1.41975 v 32.804904 32.804904 l 0.623835,1.290688 c 0.344184,0.709874 1.18313,1.82847 1.828469,2.495325 0.666855,0.645339 1.78545,1.484286 2.495325,1.82847 l 1.290688,0.623834 36.6769576,0.06453 36.676959,0.04309 -1.505801,-1.505801 -1.484286,-1.505791 H 61.537411 44.3713 v -4.409847 -4.409836 h 3.033118 c 1.656379,0 2.990086,-0.06455 2.947056,-0.172093 -0.02155,-0.08608 -0.430226,-0.795917 -0.881957,-1.613357 L 48.630559,76.557073 H 46.500935 44.3713 V 72.03968 67.522277 h 1.075575 1.075575 v -0.838936 c 0,-0.451742 0.06455,-1.140101 0.129062,-1.505801 L 46.80209,64.510684 H 45.575947 44.3713 v -4.517385 -4.517402 h 2.323233 l 2.301726,-0.02154 0.903473,-1.441265 0.903484,-1.441266 -3.226717,-0.06455 -3.205199,-0.06455 v -4.603429 -4.62495 h 25.706144 25.706133 v 4.62495 4.62496 l -4.84007,0.04299 -4.840064,0.06455 0.968009,1.441265 0.968019,1.46278 h 3.872056 3.87205 v 4.517394 4.517394 h -2.73194 -2.75347 l 0.10756,1.441264 0.10756,1.462771 2.64592,0.06455 2.62438,0.06455 v 4.495888 4.517393 h -3.69997 -3.721474 l -0.623823,1.183131 c -0.602319,1.161616 -0.602319,1.204636 -0.236629,1.613357 0.365691,0.408711 0.68837,0.430227 4.452856,0.430227 h 4.04415 v 1.677883 c 0,0.924997 -0.15058,2.237191 -0.32267,2.947067 l -0.34419,1.269182 1.09709,1.075565 c 1.22615,1.226152 1.18313,1.247668 1.97904,-0.73139 l 0.49477,-1.183122 0.0645,-31.514225 c 0.043,-22.952676 0,-31.858401 -0.17211,-32.804904 -0.55928,-2.86104 -2.49531,-5.399386 -5.11971,-6.625538 l -1.44122,-0.688368 -41.62458,-0.04299 -41.6245856,-0.06454 z m 84.0665926,2.796479 c 1.39825,0.516277 2.55986,1.570337 3.2052,2.861025 0.60233,1.226152 0.62384,1.376729 0.68837,5.076692 l 0.0861,3.829032 H 50.41605 5.0054594 v -3.829032 c 0,-3.355778 0.06455,-3.915076 0.451741,-4.775538 0.709877,-1.570327 2.043584,-2.753458 3.635427,-3.24822 0.301164,-0.08608 18.8870246,-0.150577 41.3019166,-0.150577 30.675269,0 40.936203,0.04299 41.452483,0.236618 z M 14.040216,35.685331 v 4.517392 H 9.5228134 5.0054194 v -4.517392 -4.517404 h 4.517394 4.5174026 z m 27.104379,0 v 4.517392 H 29.098207 17.051808 v -4.517392 -4.517404 h 12.046399 12.046388 z m 54.638982,0 v 4.517392 H 70.077444 44.3713 V 35.685331 31.167927 H 70.077444 95.783577 Z M 13.93265,47.839275 v 4.517394 l -4.4528576,0.06453 -4.474373,0.04299 v -4.62495 -4.62496 l 4.474373,0.04299 4.4528576,0.06453 z m 27.211945,0 v 4.62495 H 29.098207 17.051808 v -4.62495 -4.624949 H 29.098207 41.144595 Z M 14.040216,59.99322 v 4.517394 H 9.5228134 5.0054194 V 59.99322 55.475826 h 4.517394 4.5174026 z m 27.104379,0 v 4.517394 H 29.098207 17.051808 V 59.99322 55.475826 H 29.098207 41.144595 Z M 14.040216,72.039619 v 4.517394 H 9.5228134 5.0054194 v -4.517394 -4.517404 h 4.517394 4.5174026 z m 27.104379,0 v 4.517394 H 29.098207 17.051808 V 72.039619 67.522215 H 29.098207 41.144595 Z M 14.040216,84.322636 v 4.560413 L 11.738488,88.775488 C 9.0495674,88.667927 7.8879504,88.259213 6.6833134,87.011555 5.3711094,85.677847 5.1344914,84.924951 5.0484404,82.192998 l -0.08608,-2.409273 h 4.538909 4.5389076 z m 27.104379,-0.02155 V 88.81848 H 29.098207 17.051808 v -4.517389 -4.517392 h 12.046399 12.046388 z"
     id="path7344"
     style="stroke-width:0.0215114" />
  <path
     d="m 66.52806,47.430555 c -0.301154,0.04299 -1.118595,0.193607 -1.82847,0.322679 -5.248785,0.946493 -10.433032,5.141226 -12.8208,10.411516 -2.000562,4.409836 -2.000562,10.411524 -0.02155,14.799856 2.344747,5.141228 6.690048,8.798168 12.196964,10.282455 1.333709,0.36569 2.344748,0.473246 4.409837,0.473246 3.334273,0 5.227288,-0.473246 8.346437,-2.022068 2.602882,-1.312204 2.88253,-1.247658 2.688933,0.537783 -0.08608,0.795926 -0.02154,1.312202 0.215103,1.763933 0.193608,0.344187 3.506363,3.786015 7.399934,7.658067 5.980159,5.958659 7.184809,7.05574 7.916199,7.249347 1.20463,0.322669 2.28022,-0.02155 3.09763,-0.946503 0.79593,-0.903482 0.98954,-1.548822 0.77442,-2.645901 -0.12906,-0.688361 -1.09707,-1.763935 -7.27085,-7.937717 -3.915082,-3.93658 -7.442961,-7.313872 -7.851672,-7.507479 -0.537778,-0.236629 -1.032538,-0.301155 -1.720909,-0.215114 -1.677893,0.236628 -1.720914,-0.129073 -0.193607,-1.871492 3.441837,-3.958104 4.861588,-8.023757 4.624959,-13.337076 C 86.14644,56.809536 80.876141,50.248549 73.304135,48.054389 71.454148,47.516606 67.861744,47.193937 66.528025,47.430555 Z m 6.453421,3.742992 c 5.141236,1.742419 8.862703,5.700525 10.217917,10.863257 0.451752,1.677893 0.451752,5.184247 0.02155,7.012719 -1.161618,4.947629 -4.947621,9.185383 -9.744662,10.84176 -9.744671,3.398799 -20.070155,-3.872054 -20.070155,-14.133002 0,-7.077255 4.560423,-12.971377 11.401049,-14.799847 2.19417,-0.580813 6.109245,-0.473256 8.174344,0.215113 z"
     id="path7416"
     style="stroke-width:0.0215114" />
</svg>
