<?xml version="1.0" encoding="UTF-8" standalone="no"?>
<!-- Created with Inkscape (http://www.inkscape.org/) -->

<svg
   width="100mm"
   height="100mm"
   viewBox="0 0 100 100"
   version="1.1"
   id="svg26768"
   sodipodi:docname="a load balancer.svg"
   inkscape:version="1.1.1 (3bf5ae0d25, 2021-09-20)"
   xmlns:inkscape="http://www.inkscape.org/namespaces/inkscape"
   xmlns:sodipodi="http://sodipodi.sourceforge.net/DTD/sodipodi-0.dtd"
   xmlns="http://www.w3.org/2000/svg"
   xmlns:svg="http://www.w3.org/2000/svg">
  <sodipodi:namedview
     id="namedview26770"
     pagecolor="#ffffff"
     bordercolor="#666666"
     borderopacity="1.0"
     inkscape:pageshadow="2"
     inkscape:pageopacity="0.0"
     inkscape:pagecheckerboard="0"
     inkscape:document-units="mm"
     showgrid="false"
     width="209mm"
     inkscape:zoom="0.7500982"
     inkscape:cx="13.998167"
     inkscape:cy="241.96832"
     inkscape:window-width="1920"
     inkscape:window-height="1027"
     inkscape:window-x="1912"
     inkscape:window-y="-8"
     inkscape:window-maximized="1"
     inkscape:current-layer="layer1" />
  <defs
     id="defs26765" />
  <g
     inkscape:label="Layer 1"
     inkscape:groupmode="layer"
     id="layer1">
    <path
       d="M 5.8378692,2.5597412 C 4.134058,3.3281248 2.430249,5.2657907 2.162979,6.6689275 2.0627947,7.2702713 2.0293889,27.114638 2.0627947,50.767512 2.162979,93.596595 2.162979,93.763644 2.8645938,94.665653 c 0.3674809,0.501116 1.2360928,1.403125 1.9376543,1.937667 l 1.2695187,1.035647 43.3302022,0.100184 43.296781,0.0668 1.503362,-0.734977 c 0.868597,-0.467704 1.904256,-1.369727 2.505616,-2.20494 l 1.00222,-1.469948 V 49.865489 6.3348467 L 96.707717,4.8983014 C 96.173168,4.1299165 95.037303,3.1276768 94.235518,2.6933728 L 92.765572,1.9249879 H 49.969883 c -40.6575572,0 -42.862484,0.033411 -44.1319871,0.6347533 z m 86.9276698,4.1760015 0.935408,0.801793 V 49.865489 92.193456 l -0.935408,0.8018 -0.93543,0.801786 H 49.736011 7.6419013 L 6.8401022,92.961844 6.0049029,92.160043 V 50.032536 C 6.0049029,20.867328 6.1050871,7.7045754 6.372396,7.2368632 6.5728433,6.8693741 7.0405473,6.43507 7.441454,6.2680303 7.8423486,6.1009906 26.751288,5.9673578 50.003268,5.9673578 l 41.826841,-0.033411 z"
       id="path4135"
       style="stroke-width:0.0334081" />
    <path
       d="m 43.755971,20.633482 v 6.34752 h 6.180472 6.180486 v -6.34752 -6.347533 h -6.180486 -6.180472 z"
       id="path4137"
       style="stroke-width:0.0334081" />
    <path
       d="m 14.356916,33.161489 v 6.180485 h 6.180474 6.180485 V 33.161489 26.981002 H 20.53739 14.356916 Z"
       id="path4139"
       style="stroke-width:0.0334081" />
    <path
       d="m 72.820942,33.161489 v 6.180485 h 6.180487 6.180485 v -6.180485 -6.180487 h -6.180485 -6.180487 z"
       id="path4141"
       style="stroke-width:0.0334081" />
    <path
       d="m 46.595648,36.335249 -3.006726,3.006725 h 2.104717 2.071291 V 49.865489 60.422428 L 45.693639,60.322244 43.588922,60.222037 43.421889,57.215311 C 43.18803,53.473622 42.553278,52.204116 39.245882,48.729673 l -2.472184,-2.572419 1.236092,-1.236092 1.236092,-1.236092 h -4.109183 -4.075768 v 4.075768 4.075785 l 1.336315,-1.302916 1.336315,-1.302916 2.338562,2.305162 c 2.83969,2.839679 3.340807,3.808512 3.340807,6.64819 v 2.204927 h -2.004479 -2.00448 v 12.528007 12.528018 h 14.532472 14.5325 V 72.917077 60.422481 l -2.07129,-0.100184 -2.104718,-0.100184 -0.100184,-1.40314 c -0.200446,-2.639233 0.467717,-4.042371 3.207173,-6.848636 l 2.539008,-2.605834 1.269504,1.236105 1.269503,1.236092 v -4.075806 -4.07577 H 64.40215 60.32638 l 1.302916,1.336314 1.26949,1.302917 -2.672629,2.806265 c -3.207173,3.340809 -4.109197,5.311877 -4.109197,8.953354 v 2.338562 L 54.045672,60.322351 51.940968,60.222145 V 49.865652 39.509173 l 1.971067,-0.100184 1.97108,-0.100184 -2.973313,-3.006728 c -1.636997,-1.636984 -3.040138,-2.973312 -3.140361,-2.973312 -0.100185,0 -1.536762,1.336328 -3.173762,3.006726 z"
       id="path4143"
       style="stroke-width:0.0334081" />
  </g>
</svg>
