<?xml version="1.0" encoding="UTF-8" standalone="no"?>
<!-- Created with Inkscape (http://www.inkscape.org/) -->

<svg
   width="100mm"
   height="100mm"
   viewBox="0 0 100 100"
   version="1.1"
   id="svg26768"
   sodipodi:docname="a Lookup.svg"
   inkscape:version="1.1.1 (3bf5ae0d25, 2021-09-20)"
   xmlns:inkscape="http://www.inkscape.org/namespaces/inkscape"
   xmlns:sodipodi="http://sodipodi.sourceforge.net/DTD/sodipodi-0.dtd"
   xmlns="http://www.w3.org/2000/svg"
   xmlns:svg="http://www.w3.org/2000/svg">
  <sodipodi:namedview
     id="namedview26770"
     pagecolor="#ffffff"
     bordercolor="#666666"
     borderopacity="1.0"
     inkscape:pageshadow="2"
     inkscape:pageopacity="0.0"
     inkscape:pagecheckerboard="0"
     inkscape:document-units="mm"
     showgrid="false"
     width="209mm"
     inkscape:zoom="0.7500982"
     inkscape:cx="13.998167"
     inkscape:cy="135.31562"
     inkscape:window-width="1920"
     inkscape:window-height="1009"
     inkscape:window-x="1912"
     inkscape:window-y="-8"
     inkscape:window-maximized="1"
     inkscape:current-layer="layer1" />
  <defs
     id="defs26765" />
  <g
     inkscape:label="Layer 1"
     inkscape:groupmode="layer"
     id="layer1">
    <path
       d="M 1.8363101,2.5434668 1.2530768,2.9921131 V 39.847816 76.703532 l 0.5159398,0.471077 0.5159283,0.493497 H 50.199616 c 46.837939,0 47.91467,0 48.430609,-0.426203 l 0.538372,-0.426204 0.06728,-36.429511 c 0.02246,-20.009312 0,-36.6313923 -0.06728,-36.9230089 C 99.101314,3.1939936 98.854549,2.7677901 98.607795,2.5210357 98.15916,2.0724009 97.665651,2.0724009 50.289352,2.0724009 H 2.4419745 Z m 28.4885909,3.118047 c 0.33648,0.4934971 0.650527,0.8524072 0.740253,0.8075449 0.06728,-0.044816 0.717831,-0.2018805 1.41322,-0.3589101 1.166455,-0.2243232 1.278623,-0.2916167 1.076731,-0.672958 -0.134587,-0.2243232 -0.224324,-0.471066 -0.224324,-0.538371 0,-0.067281 14.177002,-0.1345869 31.516915,-0.1345869 h 31.516902 v 6.6174243 6.617434 h -20.839289 -20.8393 l 0.51594,1.525377 c 0.291617,0.829977 0.628096,2.28806 0.785114,3.252634 l 0.291617,1.727258 h 17.227756 17.250175 v 0.897281 0.897281 H 73.506436 56.27868 l -0.134587,1.615089 c -0.134598,1.458083 -0.426204,2.826431 -0.919712,4.374239 l -0.15703,0.515939 h 20.637408 20.659839 v 6.617424 6.617435 H 64.488785 c -17.519372,0 -31.80853,-0.08974 -31.741237,-0.179461 0.06728,-0.112097 -0.538359,-0.336479 -1.345905,-0.515928 -1.41322,-0.33649 -1.435651,-0.33649 -1.929149,0.179449 l -0.471077,0.51594 H 16.461947 3.9449202 V 39.421613 32.804189 H 10.6745 c 6.348249,0 6.729591,-0.02246 6.550141,-0.403772 -0.291616,-0.515939 -0.852418,-3.207784 -1.054311,-4.822873 L 16.035744,26.298922 H 12.78311 9.5529072 v -0.897281 -0.87485 l 3.2974958,-0.06728 3.319927,-0.06728 0.15703,-1.345927 c 0.157018,-1.144025 0.762683,-3.499377 1.211329,-4.710706 0.112214,-0.291617 -0.650527,-0.33648 -6.729591,-0.33648 H 3.9449202 V 11.38168 4.7642558 H 16.843289 29.741668 Z m 1.278623,44.5274492 2.400227,3.252634 -2.400227,3.252622 -2.400226,3.252635 H 16.574114 3.9449202 V 53.441597 46.936318 H 16.596546 29.22574 Z m 64.761074,3.252634 v 6.505257 H 64.511216 32.657824 l 2.355364,-3.207761 c 1.301053,-1.749699 2.310491,-3.297496 2.265616,-3.454526 -0.06728,-0.134598 -1.121593,-1.615101 -2.355341,-3.297496 L 32.657824,46.936318 H 64.511216 96.364598 Z M 31.53623,64.096769 c 1.301055,1.794562 2.377784,3.319927 2.400216,3.432094 0.04493,0.08975 -0.897282,1.772131 -2.041305,3.746143 l -2.086179,3.589101 -12.94323,0.06728 -12.9208118,0.04481 v -7.066062 -7.06607 H 16.574114 29.180866 Z m 64.828368,3.813435 v 7.06607 H 64.735539 c -17.384773,0 -31.629069,-0.04481 -31.629069,-0.112213 0,-0.06728 0.964574,-1.794551 2.131041,-3.813425 l 2.153461,-3.70128 -2.175904,-2.961017 c -1.188886,-1.637533 -2.265628,-3.118035 -2.400215,-3.275065 -0.157029,-0.201881 6.19122,-0.269185 31.673932,-0.269185 h 31.875813 z"
       id="path4102"
       style="stroke-width:0.0224319" />
    <path
       d="M 32.769991,7.9944354 C 26.152555,9.295489 20.881048,14.095931 18.750007,20.803091 c -0.628096,1.974011 -0.852407,6.079052 -0.471066,8.299818 1.07673,6.079064 5.742585,11.66462 11.530021,13.750799 2.512382,0.919701 4.890178,1.256191 7.402549,1.099162 7.828764,-0.53836 14.199433,-5.585556 16.44263,-13.055399 0.807557,-2.691843 0.874851,-6.909052 0.134598,-9.578452 C 52.801734,17.707475 50.625831,14.25295 47.821831,11.897596 46.094574,10.439524 42.886802,8.8019803 40.73333,8.2411897 38.736887,7.7476811 34.744002,7.6130941 32.769991,7.9944354 Z m 4.015316,9.4438536 c 3.162909,4.306933 5.697723,7.963352 5.652849,8.097938 -0.06728,0.179462 -11.193542,15.478056 -11.956225,16.442631 -0.224323,0.291617 -5.002333,-2.175903 -5.002333,-2.602108 0,-0.06728 2.243197,-3.162908 4.979903,-6.864178 2.736693,-3.723711 4.97989,-6.931482 4.97989,-7.110931 0,-0.179461 -2.153472,-3.252634 -4.755579,-6.819317 -3.791005,-5.13692 -4.710705,-6.527698 -4.508825,-6.774452 0.358922,-0.426215 4.262071,-2.3553649 4.598562,-2.2880598 0.157017,0.044816 2.87128,3.5891128 6.011758,7.9184768 z m -13.324584,7.851184 v 2.803999 h -2.243197 -2.243197 v -2.108598 c 0,-1.144035 0.06728,-2.422658 0.134588,-2.803999 l 0.157029,-0.69539 h 2.086168 2.108609 z m 29.924233,-0.964575 c 0.08974,0.964575 0.112213,2.198335 0.04493,2.759138 l -0.15703,1.009436 h -2.243195 -2.220766 v -2.803999 -2.826418 l 2.198335,0.06728 2.175904,0.06728 z"
       id="path4104"
       style="stroke-width:0.0224319" />
    <path
       d="m 9.5529072,11.381657 v 1.009448 h 5.8996028 5.899604 l 0.987006,-1.009448 0.987005,-1.009438 H 16.439516 9.5529072 Z"
       id="path4106"
       style="stroke-width:0.0224319" />
    <path
       d="m 49.257484,10.484387 c 0,0.04482 0.426203,0.493496 0.964562,0.987006 l 0.942156,0.897281 19.807419,0.02247 h 19.78499 V 11.381703 10.372254 H 70.007036 c -11.417866,0 -20.749552,0.04493 -20.749552,0.112214 z"
       id="path4108"
       style="stroke-width:0.0224319" />
    <path
       d="m 9.5529072,39.421613 v 1.009437 h 6.2809438 c 3.454526,0 6.280957,-0.08974 6.280957,-0.179449 0,-0.08974 -0.381341,-0.560803 -0.852419,-1.009437 L 20.409971,38.412176 H 14.981444 9.5529072 Z"
       id="path4110"
       style="stroke-width:0.0224319" />
    <path
       d="m 50.98474,39.421613 -0.852418,1.009437 h 20.32336 20.300929 V 39.421613 38.412176 H 71.285669 51.814717 Z"
       id="path4112"
       style="stroke-width:0.0224319" />
    <path
       d="m 9.5529072,53.441597 v 0.897269 h 8.4119858 8.411986 V 53.441597 52.544304 H 17.964893 9.5529072 Z"
       id="path4114"
       style="stroke-width:0.0224319" />
    <path
       d="m 43.20085,53.441597 v 0.897269 H 66.978725 90.756611 V 53.441597 52.544304 H 66.978725 43.20085 Z"
       id="path4116"
       style="stroke-width:0.0224319" />
    <path
       d="m 9.5529072,67.461569 v 1.009438 h 8.4119858 8.411986 V 67.461569 66.452133 H 17.964893 9.5529072 Z"
       id="path4118"
       style="stroke-width:0.0224319" />
    <path
       d="m 43.20085,67.461569 v 1.009438 H 66.978725 90.756611 V 67.461569 66.452133 H 66.978725 43.20085 Z"
       id="path4120"
       style="stroke-width:0.0224319" />
  </g>
</svg>
