<?xml version="1.0" encoding="UTF-8" standalone="no"?>
<!-- Created with Inkscape (http://www.inkscape.org/) -->

<svg
   width="100mm"
   height="100mm"
   viewBox="0 0 100 100"
   version="1.1"
   id="svg26768"
   sodipodi:docname="a master cluster node.svg"
   inkscape:version="1.1.1 (3bf5ae0d25, 2021-09-20)"
   xmlns:inkscape="http://www.inkscape.org/namespaces/inkscape"
   xmlns:sodipodi="http://sodipodi.sourceforge.net/DTD/sodipodi-0.dtd"
   xmlns="http://www.w3.org/2000/svg"
   xmlns:svg="http://www.w3.org/2000/svg">
  <sodipodi:namedview
     id="namedview26770"
     pagecolor="#ffffff"
     bordercolor="#666666"
     borderopacity="1.0"
     inkscape:pageshadow="2"
     inkscape:pageopacity="0.0"
     inkscape:pagecheckerboard="0"
     inkscape:document-units="mm"
     showgrid="false"
     width="209mm"
     inkscape:zoom="0.7500982"
     inkscape:cx="13.998167"
     inkscape:cy="348.62102"
     inkscape:window-width="1920"
     inkscape:window-height="1027"
     inkscape:window-x="1912"
     inkscape:window-y="-8"
     inkscape:window-maximized="1"
     inkscape:current-layer="layer1" />
  <defs
     id="defs26765" />
  <g
     inkscape:label="Layer 1"
     inkscape:groupmode="layer"
     id="layer1">
    <path
       d="m 18.955206,1.3482669 c -2.11948,0.6693094 -3.948927,2.4095146 -4.729788,4.4620644 l -0.468517,1.2716882 0.04462,43.1035435 0.06694,43.103539 0.602379,1.115517 c 0.803172,1.561719 2.498756,3.05651 4.038168,3.658889 l 1.293999,0.468521 h 31.546799 c 31.279073,0 31.569106,0 32.773864,-0.468521 1.628649,-0.602379 3.301927,-2.141786 4.08278,-3.725824 l 0.624691,-1.271686 V 49.783977 6.5019511 L 88.340302,5.4533658 C 87.670995,3.9808848 86.19851,2.4860928 84.726031,1.7721631 L 83.476649,1.147474 51.684445,1.1028506 C 25.960649,1.0805388 19.713755,1.1251623 18.955203,1.3482643 Z m 64.90073,3.1011344 c 0.691619,0.4015858 1.271686,0.9816541 1.673273,1.6732745 l 0.624689,1.0485849 v 32.7961733 32.79617 l -0.580073,1.227069 c -0.736237,1.561719 -1.985616,2.811101 -3.547337,3.547343 L 80.79942,78.118083 H 51.349794 21.900169 l -1.249378,-0.580067 c -1.584033,-0.736242 -2.78879,-1.941 -3.525031,-3.525031 L 16.545691,72.763604 16.47876,40.190538 16.434138,7.5951569 17.036515,6.3903995 C 17.393481,5.72109 17.928929,5.0071598 18.241273,4.7617459 19.736065,3.6908508 18.464376,3.7354711 51.684451,3.780092 l 31.122897,0.044624 z m -63.58442,73.9140917 1.405551,0.647002 h 29.672727 29.67273 l 1.494791,-0.736242 c 1.026276,-0.513139 1.851752,-1.137822 2.632619,-2.007928 l 1.137822,-1.271688 -0.06692,8.723335 -0.06692,8.723335 -0.669313,1.093204 c -0.446203,0.691627 -1.048582,1.294005 -1.673273,1.650967 l -1.003964,0.557755 -31.011345,0.06694 c -23.961288,0.04459 -31.234454,0 -32.015314,-0.223104 -1.249378,-0.334657 -2.69955,-1.740208 -3.078825,-2.989582 -0.178483,-0.669314 -0.267725,-3.301927 -0.267725,-9.214167 v -8.29944 l 1.227068,1.31631 c 0.825483,0.914724 1.650964,1.517103 2.610309,1.963304 z"
       id="path4027"
       style="stroke-width:0.0223104" />
    <path
       d="m 33.613085,18.21487 c -0.423892,0.423897 -0.446204,0.736241 -0.446204,8.433302 v 8.009406 l -0.825482,0.535448 c -0.468515,0.290033 -1.070894,0.937033 -1.338622,1.42786 -1.048582,1.829446 -0.446203,4.305891 1.338622,5.443719 l 0.825482,0.535448 v 10.798196 c 0,10.485852 0.02232,10.79819 0.446204,11.222087 0.513138,0.513139 1.294004,0.580067 1.918688,0.133859 0.401585,-0.312345 0.423897,-0.758554 0.53545,-11.266711 l 0.111552,-10.932058 0.780861,-0.513139 c 0.959346,-0.624687 1.784823,-2.208721 1.784823,-3.391167 0,-1.249378 -0.780859,-2.721859 -1.807135,-3.413479 l -0.870101,-0.580069 v -7.786303 c 0,-7.719371 -0.06692,-8.477922 -0.758548,-8.924128 -0.446209,-0.31234 -1.249381,-0.178478 -1.69559,0.267729 z m 2.855724,17.781327 c 1.896376,1.38324 1.762518,4.194341 -0.223106,5.421409 -1.472477,0.892412 -3.480407,0.356964 -4.417443,-1.160137 -0.892411,-1.472481 -0.379274,-3.4581 1.160141,-4.439754 0.914724,-0.557759 2.587995,-0.468518 3.480408,0.178482 z"
       id="path4029"
       style="stroke-width:0.0223104" />
    <path
       d="m 50.34583,18.21487 c -0.446209,0.446207 -0.446209,0.736241 -0.446209,14.010883 v 13.586986 l -0.825477,0.535447 c -0.468521,0.290035 -1.0709,0.937035 -1.338622,1.427863 -1.048587,1.829447 -0.44621,4.30589 1.338622,5.443719 l 0.825477,0.535444 v 5.220614 c 0,4.908275 0.02232,5.220613 0.446209,5.64451 0.513137,0.513139 1.293997,0.580067 1.918688,0.133859 0.401585,-0.290033 0.423897,-0.71393 0.535449,-5.689133 l 0.111552,-5.354474 0.780866,-0.513137 c 0.959342,-0.624691 1.784824,-2.208722 1.784824,-3.391168 0,-1.249381 -0.780858,-2.721861 -1.807136,-3.413482 l -0.8701,-0.580068 V 32.448851 c 0,-13.363884 -0.04464,-14.033194 -0.758555,-14.50171 -0.446201,-0.312346 -1.249374,-0.178483 -1.695583,0.267723 z m 2.855724,28.936488 c 1.896376,1.383238 1.762512,4.194339 -0.223106,5.421408 -1.472485,0.892412 -3.480414,0.356969 -4.417443,-1.160134 -0.892412,-1.472485 -0.379274,-3.458103 1.160134,-4.439757 0.914724,-0.557758 2.587995,-0.468516 3.480415,0.178483 z"
       id="path4031"
       style="stroke-width:0.0223104" />
    <path
       d="m 67.078567,18.21487 c -0.401585,0.401586 -0.446201,0.736241 -0.446201,4.350513 0,2.364895 -0.08925,3.904306 -0.223106,3.904306 -0.401585,0 -1.851752,1.450172 -2.141793,2.164101 -0.691619,1.650964 -0.24541,3.502721 1.115517,4.707479 0.446209,0.379275 0.914724,0.71393 1.026276,0.71393 0.13386,0 0.223106,5.53296 0.223106,15.059464 0,14.769438 0,15.059471 0.446201,15.505673 0.513139,0.513139 1.294005,0.580067 1.918689,0.133859 0.401586,-0.312345 0.423898,-0.758554 0.490832,-15.46105 l 0.04459,-15.126401 0.647003,-0.356965 c 0.334649,-0.200792 0.914724,-0.736241 1.271685,-1.204757 0.557756,-0.75855 0.647003,-1.048585 0.647003,-2.342583 0,-1.294 -0.08924,-1.584034 -0.647003,-2.342584 C 71.094405,27.451337 70.51433,26.91589 70.179681,26.715098 L 69.532674,26.358132 V 22.72155 c 0,-3.525031 -0.133859,-4.372824 -0.758548,-4.774409 -0.446209,-0.312346 -1.24938,-0.178483 -1.695589,0.267723 z m 2.721861,9.325715 c 0.758554,0.446206 1.517103,1.807136 1.517103,2.72186 0,1.517102 -1.115518,2.833411 -2.744165,3.234996 -0.847796,0.223103 -2.498763,-0.446207 -3.056518,-1.227068 -2.09717,-2.944962 1.137828,-6.559235 4.28358,-4.729788 z"
       id="path4033"
       style="stroke-width:0.0223104" />
    <path
       d="m 23.662682,84.92273 c -0.669307,0.267721 -1.383238,1.249381 -1.561721,2.119481 -0.156171,0.914723 0.401587,2.164104 1.204758,2.699548 l 0.602378,0.379275 -0.423897,-0.490827 c -0.669308,-0.736237 -0.580067,-1.963306 0.178482,-2.610307 0.669312,-0.580067 1.249379,-0.669309 1.985623,-0.267722 1.137822,0.602379 1.360926,1.717895 0.557756,2.744171 l -0.468516,0.624685 0.490826,-0.267722 c 0.736244,-0.401587 1.360927,-1.584033 1.360927,-2.565685 0,-0.691619 -0.15617,-1.003964 -0.8701,-1.717895 -0.713931,-0.71393 -1.003964,-0.870107 -1.717895,-0.847796 -0.490827,0 -1.093206,0.08925 -1.338621,0.200794 z"
       id="path4035"
       style="stroke-width:0.0223104" />
  </g>
</svg>
