<?xml version="1.0" encoding="UTF-8" standalone="no"?>
<!-- Created with Inkscape (http://www.inkscape.org/) -->

<svg
   width="100mm"
   height="100mm"
   viewBox="0 0 100 100"
   version="1.1"
   id="svg26768"
   xmlns="http://www.w3.org/2000/svg"
   xmlns:svg="http://www.w3.org/2000/svg">
  <defs
     id="defs26765" />
  <g
     id="layer1">
    <path
       d="m 12.924672,1.2575702 c -1.15684,0.2142311 -2.506505,1.24254 -3.084919,2.3351155 L 9.347024,4.5353023 V 49.009612 c 0,42.803312 0.02137,44.517157 0.407031,45.352659 0.471312,1.028306 1.756698,2.16373 2.806422,2.44223 0.407043,0.128531 3.363429,0.21423 6.534045,0.21423 5.634274,0 5.805655,-0.02142 6.876811,-0.514153 1.15684,-0.535578 2.013764,-1.478193 2.420807,-2.677886 0.171383,-0.535576 0.23565,-12.446807 0.23565,-44.881348 V 4.7923783 L 28.113643,3.6783795 C 27.513785,2.4144178 26.48548,1.621763 24.985875,1.2789933 23.893289,1.0219174 14.18864,1.0004943 12.924672,1.2575623 Z m 12.254003,3.5562324 0.449893,0.5784225 -0.04286,43.8744629 c -0.06423,41.796427 -0.08572,43.89589 -0.449893,44.260081 -0.342764,0.34277 -0.89976,0.385615 -6.169837,0.385615 H 13.160322 L 12.753279,93.39823 c -0.299917,-0.364191 -0.407045,-0.8355 -0.407045,-1.756692 v -1.26396 h 2.999234 c 2.592203,0 3.042084,-0.04285 3.1492,-0.34277 0.06423,-0.192807 0.04286,-0.514153 -0.08572,-0.706961 -0.171396,-0.278501 -0.728391,-0.34277 -3.149199,-0.40704 l -2.91355,-0.06427 v -2.65646 -2.677885 h 1.263967 c 1.306817,0 1.906662,-0.34277 1.649583,-0.964041 -0.08572,-0.235652 -0.471311,-0.321344 -1.521035,-0.321344 h -1.392515 v -2.785002 -2.784999 h 2.999234 c 2.592203,0 3.042084,-0.04285 3.149198,-0.34277 0.06423,-0.192807 0.04286,-0.514154 -0.08572,-0.706961 -0.171395,-0.2785 -0.72839,-0.342768 -3.149198,-0.407038 l -2.913549,-0.06427 v -2.656463 -2.656461 l 1.456781,-0.06427 c 1.263955,-0.06427 1.435351,-0.107121 1.435351,-0.492732 0,-0.385615 -0.171396,-0.42846 -1.435351,-0.49273 l -1.456781,-0.06427 v -2.763556 -2.763577 l 2.913549,-0.06427 c 2.420808,-0.06427 2.977803,-0.128531 3.149198,-0.407038 0.128587,-0.192807 0.149952,-0.514155 0.08572,-0.706963 -0.107092,-0.299922 -0.556995,-0.342768 -3.149198,-0.342768 h -2.999234 v -2.677885 -2.677885 h 1.392515 c 1.049724,0 1.435338,-0.0857 1.521035,-0.321347 0.257079,-0.621268 -0.342766,-0.964038 -1.649583,-0.964038 H 12.346199 V 52.35163 49.695169 l 2.91355,-0.06427 c 2.420808,-0.06427 2.977803,-0.12853 3.149199,-0.407039 0.128586,-0.192808 0.14995,-0.514153 0.08572,-0.706961 -0.107093,-0.299923 -0.556997,-0.34277 -3.1492,-0.34277 h -2.999236 v -2.677898 -2.677883 h 1.263969 c 1.306817,0 1.90666,-0.34277 1.649581,-0.96404 -0.08572,-0.235653 -0.471311,-0.321346 -1.521036,-0.321346 h -1.392514 v -2.67789 -2.677885 h 2.977817 c 2.827839,0 2.999234,-0.02142 3.127767,-0.428462 0.299929,-0.921192 -0.171381,-1.071154 -3.234883,-1.071154 h -2.870701 v -2.677884 -2.677884 h 1.392514 c 1.049725,0 1.435338,-0.0857 1.521036,-0.321348 0.257079,-0.621268 -0.342764,-0.964038 -1.649581,-0.964038 H 12.346232 V 25.358532 22.70207 l 2.91355,-0.06427 c 2.420808,-0.06427 2.977803,-0.12853 3.149199,-0.407038 0.128586,-0.192808 0.149951,-0.514155 0.08572,-0.706962 -0.107093,-0.299923 -0.556996,-0.342768 -3.149199,-0.342768 h -2.99923 v -2.785004 -2.763577 l 1.456781,-0.06427 c 1.263955,-0.06427 1.435351,-0.10712 1.435351,-0.49273 0,-0.385615 -0.171396,-0.428462 -1.435351,-0.492731 L 12.346272,14.51845 V 11.754896 8.9698963 h 2.999234 c 2.592203,0 3.042082,-0.042848 3.149199,-0.3427696 C 18.558935,8.43432 18.537565,8.1129735 18.408985,7.9201656 18.237585,7.6416653 17.68059,7.577396 15.259782,7.5131267 l -2.91355,-0.064267 v -1.156846 c 0,-0.8997689 0.107092,-1.2853848 0.428476,-1.6067314 0.407031,-0.4070376 0.706959,-0.4284607 6.191268,-0.4284607 h 5.784225 z"
       id="path20598"
       style="stroke-width:0.0214231" />
    <path
       d="m 36.811404,1.7074554 c -1.113991,0.5570007 -1.906648,1.5424621 -2.313692,2.8921162 -0.44988,1.5210377 -0.44988,87.3418914 0,88.8629294 0.407044,1.32823 1.22112,2.377961 2.335123,2.977807 l 0.899759,0.471309 h 26.350394 26.350383 l 0.87835,-0.471309 c 2.14231,-1.156845 3.14919,-3.513384 2.39938,-5.655692 C 93.411181,89.884846 43.602531,4.0211479 42.788442,2.9714172 41.503056,1.3004164 38.782332,0.74341711 36.811404,1.7074554 Z m 3.513395,3.2563077 c 0.535577,0.5355775 50.151422,85.8208529 50.472772,86.7206219 0.25707,0.749808 -0.25708,1.842384 -1.02831,2.142307 -0.36419,0.128531 -9.918887,0.171386 -25.900504,0.149962 l -25.343505,-0.06427 -0.556996,-0.514154 c -0.47131,-0.449884 -0.557007,-0.706962 -0.557007,-1.756693 v -1.242537 l 3.0635,-0.06427 c 3.020666,-0.06427 3.042084,-0.06427 3.106351,-0.578422 0.04286,-0.278502 -0.04286,-0.599847 -0.214231,-0.68554 -0.149965,-0.10712 -1.563884,-0.192808 -3.106351,-0.192808 H 37.411249 V 86.200074 83.52219 h 1.24255 c 1.392488,0 1.82095,-0.192809 1.713836,-0.771231 -0.06423,-0.34277 -0.299917,-0.407039 -1.521036,-0.471309 l -1.43535,-0.06427 V 79.451798 76.68822 l 3.0635,-0.06427 c 3.020666,-0.06427 3.042084,-0.06427 3.106351,-0.578422 0.04286,-0.278501 -0.04286,-0.599845 -0.214231,-0.685539 -0.149965,-0.10712 -1.563884,-0.192807 -3.106351,-0.192807 h -2.849269 v -2.677863 -2.656462 l 1.456769,-0.06427 c 1.306817,-0.06427 1.43535,-0.10712 1.499617,-0.556999 0.06423,-0.449886 0,-0.471309 -1.435338,-0.471309 h -1.521048 v -2.784995 -2.763577 l 3.0635,-0.06427 3.042084,-0.06427 v -0.642693 -0.642692 l -3.042084,-0.06427 -3.0635,-0.06427 v -2.656463 -2.656461 l 1.456769,-0.06427 c 1.371083,-0.06427 1.43535,-0.0857 1.43535,-0.599846 0,-0.514154 -0.06423,-0.535577 -1.43535,-0.599846 l -1.456769,-0.06429 v -2.656462 -2.677884 h 2.849269 c 1.542467,0 2.956386,-0.0857 3.106351,-0.192808 0.171381,-0.0857 0.257079,-0.40704 0.214231,-0.68554 -0.06423,-0.514153 -0.08572,-0.514153 -3.106351,-0.578422 l -3.0635,-0.06427 v -2.656464 -2.677884 h 1.24255 c 1.392488,0 1.82095,-0.192808 1.713836,-0.771232 -0.06423,-0.34277 -0.299917,-0.407038 -1.521036,-0.471307 l -1.43535,-0.06427 v -2.656418 -2.656461 l 3.0635,-0.06427 3.042084,-0.06427 V 35.427413 34.78472 l -3.042084,-0.06427 -3.0635,-0.06427 v -2.65646 -2.656463 l 1.43535,-0.06427 c 1.221119,-0.06427 1.456769,-0.128531 1.521036,-0.471307 0.107092,-0.578423 -0.321348,-0.771231 -1.713836,-0.771231 h -1.24255 v -2.677895 -2.677886 h 2.849269 c 1.542467,0 2.956386,-0.0857 3.106351,-0.192808 0.171381,-0.08568 0.257079,-0.407038 0.214231,-0.685537 -0.06423,-0.514154 -0.08572,-0.514154 -3.106351,-0.578424 l -3.0635,-0.06427 v -2.763543 -2.763577 l 1.43535,-0.06427 c 1.221119,-0.06427 1.456769,-0.12853 1.521036,-0.471307 C 40.474727,14.518508 40.046287,14.3257 38.653799,14.3257 h -1.24255 V 9.7625914 c 0,-4.0918073 0.04286,-4.6273849 0.385626,-4.9058853 0.814075,-0.7069609 1.778115,-0.6855378 2.527924,0.1071162 z"
       id="path20600"
       style="stroke-width:0.0214231" />
    <path
       d="m 47.951408,38.790803 c -0.192806,0.192808 -0.257075,5.162962 -0.257075,22.815579 0,22.065772 0,22.558502 0.407038,22.772733 0.278499,0.128531 4.841615,0.214231 13.346578,0.214231 13.967846,0 13.860731,0 13.625078,-1.092576 -0.06427,-0.278501 -5.934193,-10.49731 -13.068079,-22.687041 -9.297617,-15.895925 -13.0895,-22.194311 -13.368,-22.237157 -0.235654,-0.02142 -0.535577,0.06427 -0.68554,0.214231 z m 13.303734,24.036694 c 6.234115,10.71154 11.375654,19.602119 11.439923,19.773503 0.0857,0.235654 -1.885232,0.278499 -11.589886,0.278499 H 49.408178 V 62.677536 c 0.02142,-15.124693 0.06427,-20.073425 0.257077,-19.752079 0.12853,0.235654 5.334348,9.190501 11.589887,19.90204 z"
       id="path20602"
       style="stroke-width:0.0214231" />
  </g>
</svg>
