<?xml version="1.0" encoding="UTF-8" standalone="no"?>
<!-- Created with Inkscape (http://www.inkscape.org/) -->

<svg
   width="100mm"
   height="100mm"
   viewBox="0 0 100 100"
   version="1.1"
   id="svg26768"
   xmlns="http://www.w3.org/2000/svg"
   xmlns:svg="http://www.w3.org/2000/svg">
  <defs
     id="defs26765" />
  <g
     id="layer1">
    <path
       d="M 48.230261,1.9922137 C 47.066011,2.171329 18.273215,12.671968 16.683563,13.500376 c -1.119469,0.559736 -2.597171,2.216554 -3.313638,3.649477 l -0.626901,1.276197 v 31.457142 31.457141 l 0.694068,1.455313 c 0.76125,1.589648 2.171786,3.156909 3.447972,3.806201 0.447785,0.223897 7.455678,2.865848 15.58304,5.843642 l 14.754634,5.44063 h 3.022573 l 3.022571,0.02238 14.553126,-5.328683 c 8.015414,-2.955404 14.978526,-5.530188 15.493482,-5.754082 1.16425,-0.514957 2.79868,-1.992658 3.515141,-3.201688 1.320975,-2.28372 1.276197,-0.559736 1.209029,-34.099093 L 87.971493,18.873834 87.456537,17.597635 C 86.896801,16.209491 85.37432,14.351169 84.18768,13.634709 82.956262,12.873467 53.760452,2.238491 52.21558,1.969819 50.625931,1.7235337 49.976638,1.7235337 48.230263,1.9922027 Z m 19.456411,8.7766533 c 8.17214,3.022573 15.13525,5.686914 15.448702,5.933197 0.313452,0.223894 0.89558,0.917967 1.25381,1.500091 l 0.671683,1.074693 0.06716,30.248113 c 0.04478,23.262612 0,30.472006 -0.223895,31.233247 -0.179116,0.671683 -0.604515,1.365754 -1.276197,2.037438 -1.029914,1.029912 -1.097082,1.052302 -15.918881,6.448155 -8.194528,2.977793 -15.471092,5.530188 -16.165165,5.642135 -0.828408,0.156732 -1.701596,0.156732 -2.574784,0.02238 C 47.334683,94.639652 18.721,84.139012 17.601531,83.400161 17.131348,83.086709 16.482062,82.347858 16.101446,81.653786 l -0.671701,-1.20903 V 49.995138 19.545522 l 0.604518,-1.141862 c 0.783634,-1.50009 1.589652,-2.149385 3.582321,-2.865846 0.895568,-0.33584 7.679562,-2.798677 15.068074,-5.507798 l 13.433655,-4.9032841 2.35089,0.067167 2.350889,0.067167 z"
       id="path20128"
       style="stroke-width:0.0223894" />
    <path
       d="m 54.611247,14.037724 c -0.246283,0.111956 -0.649292,0.425399 -0.895576,0.694071 -0.425399,0.470179 -0.447789,0.895578 -0.559736,11.060376 L 53.043978,36.33759 48.207863,28.053501 C 41.782096,17.060295 42.185112,17.687199 41.334311,17.284189 40.416343,16.85879 39.296874,17.149855 38.602806,18.02304 c -0.4254,0.559737 -0.4478,0.895578 -0.4478,10.993209 0,6.448154 -0.08957,10.343914 -0.2015,10.209577 -0.111999,-0.111943 -2.530004,-4.186822 -5.373458,-9.045327 -2.843455,-4.858507 -5.418243,-9.067718 -5.731692,-9.35878 -0.873185,-0.738851 -2.194171,-0.671683 -3.044971,0.156734 l -0.649286,0.649294 v 21.158006 c 0,20.956501 0,21.158005 0.447785,21.71774 0.268683,0.335842 0.8508,0.694073 1.298585,0.82841 1.231419,0.33584 23.665624,0.291062 24.650759,-0.06717 1.007524,-0.358232 1.679206,-1.298587 1.656818,-2.283722 l -0.02238,-0.783629 h 6.761607 c 5.888419,0 6.828774,-0.04478 7.276562,-0.358231 0.626905,-0.447789 1.209029,-1.768764 1.029914,-2.35089 -0.134334,-0.403009 0.04478,-0.425399 6.672048,-0.425399 6.425766,0 6.851165,-0.02238 7.366122,-0.447789 0.694073,-0.537346 1.16425,-1.612038 0.985135,-2.28372 C 81.20989,56.040292 75.769258,46.547178 69.186766,35.218128 60.365333,20.015709 57.0517,14.507911 56.581521,14.239237 55.909838,13.813838 55.327714,13.74667 54.611252,14.037734 Z m 1.768765,2.418057 c 0.649295,1.007524 22.523761,38.823262 23.061108,39.853175 0.358231,0.716461 0.358231,0.738851 -0.156732,1.074692 -0.470178,0.291065 -1.500091,0.335843 -7.231784,0.291065 l -6.694438,-0.06716 -1.052303,-1.768765 c -0.604516,-0.985134 -1.074693,-1.858324 -1.074693,-1.97027 0,-0.08955 2.104606,-0.179116 4.67939,-0.179116 4.097265,0 4.70178,-0.04478 4.813727,-0.358229 0.201505,-0.514959 -12.179848,-21.896859 -12.717194,-21.986415 -0.873188,-0.179116 -0.917966,0.201505 -1.029913,7.813908 l -0.111957,7.388511 -2.059828,-3.582309 -2.082216,-3.582307 V 27.650502 c 0,-6.448154 0.06717,-11.799227 0.156732,-11.866396 0.358231,-0.38062 1.007523,-0.08955 1.500091,0.671683 z m -3.627087,22.792435 c 6.492934,11.194711 11.821617,20.59827 11.821617,20.844554 0,0.268673 -0.156718,0.559736 -0.358231,0.626904 -0.201505,0.06717 -3.403191,0.134334 -7.119838,0.134334 h -6.761605 l -1.052304,-1.858323 c -0.582124,-1.029913 -1.052303,-1.947879 -1.052303,-2.015048 0,-0.08955 2.059828,-0.156717 4.567444,-0.156717 3.761422,0 4.61222,-0.06716 4.836116,-0.335842 0.223894,-0.268672 -0.806019,-2.171774 -5.955588,-11.127544 -5.664525,-9.806568 -6.313809,-10.814091 -6.873559,-10.88126 -0.335835,-0.04478 -0.626901,-0.04478 -0.649286,0 -0.02243,0.04478 -0.111999,3.47036 -0.179116,7.612405 l -0.111999,7.545236 -2.05982,-3.55992 -2.082219,-3.559919 V 30.785019 c 0,-6.448155 0.06713,-11.799226 0.156701,-11.888786 0.671684,-0.649291 1.141867,0.08957 12.873926,20.351988 z M 26.355795,22.72482 c 2.776288,4.455495 23.083496,39.942734 23.105885,40.368133 v 0.559735 H 37.147495 24.833309 l -0.06713,-20.59827 c -0.02243,-11.329048 0,-20.732609 0.06713,-20.889334 0.201501,-0.559736 1.007535,-0.268674 1.522486,0.559736 z m 37.032108,16.904016 c 1.365754,2.373279 3.537529,6.157091 4.836116,8.418423 l 2.373278,4.074874 -4.276379,-0.04478 -4.27638,-0.06716 -0.738851,-1.343366 -0.761241,-1.343366 v -7.007886 c 0,-3.828593 0.06716,-6.985501 0.179115,-6.985501 0.08957,0 1.276197,1.94788 2.664342,4.298771 z M 48.29743,42.606629 c 1.276197,2.216553 3.447971,5.977976 4.813725,8.351254 l 2.507618,4.29877 -4.298771,-0.04478 -4.276379,-0.06716 -0.738851,-1.343365 -0.761247,-1.343365 v -7.164616 c 0,-4.343548 0.08956,-7.052669 0.201511,-6.940722 0.111957,0.134334 1.253807,2.037438 2.552394,4.253991 z"
       id="path20130"
       style="stroke-width:0.0223894" />
    <path
       d="m 29.244033,37.837682 c -0.380618,0.38062 -0.403018,21.44907 0,21.852079 0.201499,0.201505 1.992652,0.268672 6.694442,0.268672 5.306292,0 6.470544,-0.04478 6.672044,-0.313451 0.223885,-0.268673 -0.895583,-2.373281 -5.977976,-11.149934 -6.291426,-10.88126 -6.649659,-11.396217 -7.38851,-10.657366 z m 6.313809,11.888784 c 2.552404,4.410715 4.70179,8.17214 4.768957,8.351254 0.08957,0.268675 -0.6493,0.313454 -4.836123,0.313454 h -4.948058 v -8.552761 c 0,-4.925674 0.08957,-8.463202 0.2015,-8.351256 0.111999,0.134334 2.28372,3.828593 4.813724,8.239309 z"
       id="path20132"
       style="stroke-width:0.0223894" />
    <path
       d="m 53.715671,65.443843 c -0.470179,0.447788 -0.559736,0.761241 -0.559736,1.903101 v 1.343365 h -6.940722 -6.963114 l -0.537336,0.559736 c -0.470183,0.447787 -0.55975,0.761239 -0.55975,1.903101 v 1.343365 h -6.918328 c -6.649659,0 -6.918326,0.02239 -7.50046,0.470178 l -0.582119,0.447789 V 77.1759 c 0,3.627087 0.02243,3.761424 0.514952,4.231601 l 0.514967,0.492568 h 13.053036 13.030638 l 0.537346,-0.559736 c 0.470178,-0.447789 0.559736,-0.76124 0.559736,-1.903101 v -1.343366 h 6.940723 6.96311 l 0.537346,-0.559735 c 0.470179,-0.447788 0.559736,-0.76124 0.559736,-1.9031 v -1.343367 h 6.940722 6.96311 l 0.537346,-0.559734 c 0.537346,-0.514958 0.559736,-0.626904 0.559736,-3.918149 0,-3.403194 -0.134334,-4.052486 -0.873188,-4.634612 -0.268672,-0.201504 -3.47036,-0.268674 -13.299316,-0.291062 H 54.253017 Z m 26.038901,4.186822 -0.06717,2.977793 h -1.567259 -1.567259 l -0.06716,-0.850798 c -0.08956,-1.097081 -0.582127,-0.985135 -0.671682,0.134334 l -0.06716,0.828408 h -1.76877 -1.768765 l -0.06717,-0.850798 c -0.04477,-0.559736 -0.179115,-0.828408 -0.40301,-0.828408 -0.223894,0 -0.358231,0.268672 -0.403009,0.828408 l -0.06717,0.850798 h -1.76875 -1.768765 l -0.06717,-0.850798 c -0.04478,-0.559736 -0.179115,-0.828408 -0.40301,-0.828408 -0.223894,0 -0.358231,0.268672 -0.403009,0.828408 -0.111957,1.343366 -0.492568,0.985135 -0.492568,-0.470177 0,-0.985135 -0.111956,-1.455312 -0.470177,-1.903101 L 65.44775,68.914203 h -5.373463 -5.351073 v -1.119472 -1.11947 h 12.53807 12.560467 z m -15.000915,3.806203 -0.06717,2.977792 -1.612039,0.06716 -1.612039,0.06716 -0.06716,-0.806019 c -0.08955,-1.029915 -0.492567,-1.029915 -0.582124,0 l -0.06716,0.783629 h -1.768764 -1.768765 l -0.06716,-0.850798 c -0.04478,-0.559735 -0.179115,-0.828409 -0.40301,-0.828409 -0.223894,0 -0.358231,0.268674 -0.403009,0.828409 l -0.06717,0.850798 h -1.768764 -1.768765 l -0.06716,-0.850798 c -0.04478,-0.559735 -0.179115,-0.828409 -0.403009,-0.828409 -0.223895,0 -0.358232,0.268674 -0.40301,0.828409 -0.111957,1.343366 -0.492568,0.985135 -0.492568,-0.470178 0,-0.985134 -0.111956,-1.455313 -0.470177,-1.9031 l -0.447789,-0.582126 h -5.373467 -5.351074 v -1.11947 -1.119472 h 12.538077 12.560466 z m -14.956135,3.873369 v 3.022573 h -1.679208 -1.679206 v -0.783631 c 0,-0.537346 -0.111956,-0.78363 -0.335842,-0.78363 -0.223893,0 -0.33584,0.246284 -0.33584,0.78363 v 0.783631 h -1.76877 -1.791153 l -0.06713,-0.738852 c -0.04471,-0.447788 -0.179116,-0.716462 -0.403,-0.716462 -0.223901,0 -0.358235,0.268674 -0.403018,0.716462 l -0.06713,0.738852 h -1.791152 -1.76877 v -0.783631 c 0,-0.537346 -0.111999,-0.78363 -0.335834,-0.78363 -0.223901,0 -0.335851,0.246284 -0.335851,0.78363 v 0.783631 h -1.903102 -1.903087 v -0.783631 c 0,-0.537346 -0.111999,-0.78363 -0.335851,-0.78363 -0.223899,0 -0.335833,0.246284 -0.335833,0.78363 v 0.783631 h -1.76877 -1.791153 l -0.06713,-0.716463 c -0.08957,-1.029913 -0.626901,-1.097082 -0.626901,-0.08955 v 0.806019 h -1.791159 -1.791168 v -3.022581 -3.022571 h 12.538085 12.538077 z"
       id="path20134"
       style="stroke-width:0.0223894" />
  </g>
</svg>
