<?xml version="1.0" encoding="UTF-8" standalone="no"?>
<!-- Created with Inkscape (http://www.inkscape.org/) -->

<svg
   width="100mm"
   height="100mm"
   viewBox="0 0 100 100"
   version="1.1"
   id="svg26768"
   xmlns="http://www.w3.org/2000/svg"
   xmlns:svg="http://www.w3.org/2000/svg">
  <defs
     id="defs26765" />
  <path
     d="m 31.564355,2.1314557 c -0.400412,0.1555706 -0.934266,1.2679019 -0.934266,1.935227 v 0.578345 L 17.261433,4.6894383 3.8927519,4.7561867 3.3588973,5.3790218 c -0.511623,0.6005767 -0.5338546,0.7785371 -0.5338546,3.4923015 0,2.7137647 0.021028,2.8917247 0.5338546,3.4923017 l 0.5338546,0.622835 13.3464231,0.06675 13.324193,0.04441 0.133496,0.956498 c 0.222319,1.557073 0.578345,1.712776 4.181885,1.712776 h 3.091917 v -0.556086 c 0,-0.867517 0.556086,-1.979718 1.223412,-2.513598 0.578344,-0.444875 0.867517,-0.489366 3.82599,-0.489366 3.559049,0 4.248607,0.200246 4.849183,1.334651 0.177907,0.355895 0.333663,1.000988 0.333663,1.445863 V 15.7669 h 3.180897 c 3.047454,0 3.203155,-0.02103 3.670288,-0.511598 0.311405,-0.333662 0.489364,-0.800794 0.489364,-1.334651 v -0.823026 l 13.479895,-0.04441 13.479884,-0.06674 0.422637,-0.533856 c 0.378149,-0.444874 0.422637,-0.889749 0.422637,-3.4700696 0,-1.6237964 -0.06672,-3.1364072 -0.13347,-3.3365995 C 82.836898,4.6672071 82.547727,4.6449489 68.667437,4.6449489 H 55.543463 V 3.7774315 c 0,-0.6895571 -0.133495,-0.9787296 -0.578343,-1.3346504 -0.578345,-0.4671065 -0.778539,-0.4671065 -11.856072,-0.4448745 -6.183861,0 -11.388964,0.066748 -11.544668,0.1334965 z M 30.630089,8.8714025 V 10.206053 H 18.17344 5.7167678 V 8.8714025 7.5367524 H 18.17344 30.630089 Z m 50.049116,0 V 10.206053 H 68.111324 55.543439 V 8.8714025 7.5367524 h 12.567885 12.567881 z"
     id="path4030"
     style="stroke-width:0.0222441" />
  <path
     d="m 39.661184,13.564885 -0.578345,0.444901 v 3.64803 3.648004 l -11.077534,0.06674 -11.055303,0.06675 -1.490351,0.734048 c -1.779525,0.867517 -3.091917,2.268889 -3.736985,3.981691 -0.444901,1.201181 -0.444901,1.423631 -0.40041,34.500519 l 0.06675,33.299335 0.600576,1.112204 c 0.734073,1.42362 1.979717,2.669284 3.403347,3.403339 l 1.112201,0.600591 26.292462,0.06672 c 26.092271,0.04449 26.292462,0.04449 27.515875,-0.400393 1.623827,-0.622832 3.29213,-2.135427 4.070672,-3.736999 l 0.622833,-1.26791 0.06675,-13.969262 0.06672,-13.947019 h -1.356894 -1.334643 v 2.95846 c 0,3.47007 -0.266927,5.249595 -1.00098,6.517504 -0.689567,1.178937 -2.113195,2.469091 -3.425587,3.069681 l -1.023224,0.46712 H 43.175744 19.352362 L 17.81752,78.050397 c -1.089942,-0.556101 -1.757266,-1.089958 -2.357869,-1.890743 -1.579333,-2.068697 -1.512585,-0.800788 -1.512585,-25.736355 0,-19.774966 0.04442,-22.533221 0.355894,-23.267267 0.422644,-1.045479 1.29016,-1.957487 2.35787,-2.513572 0.800795,-0.400412 1.668313,-0.422644 26.425934,-0.422644 27.760577,0 26.448164,-0.06675 27.760577,1.178923 1.26791,1.178947 1.468108,1.979716 1.557083,6.094878 l 0.08899,3.848224 h 1.334642 1.334642 l -0.08898,-4.181885 c -0.06675,-3.959434 -0.08898,-4.226376 -0.64508,-5.383065 -1.04547,-2.157677 -2.691527,-3.514559 -4.98268,-4.115137 -1.089941,-0.266938 -3.069659,-0.33366 -11.722601,-0.33366 H 47.313138 v -3.559049 c 0,-3.492329 -0.02103,-3.581308 -0.556113,-4.115164 -0.511596,-0.533855 -0.645067,-0.556087 -3.51456,-0.556087 -2.691532,0 -3.047426,0.04441 -3.581281,0.467106 z m 4.938163,5.02717 0.06675,2.736022 h -1.468122 -1.445862 v -2.780512 -2.802743 l 1.401373,0.06675 1.379139,0.06675 z M 15.615379,77.694484 c 0.355895,0.333663 1.312392,0.934251 2.113161,1.334643 l 1.445862,0.689567 h 24.023573 24.023573 l 1.490354,-0.734054 c 1.023219,-0.489368 1.846272,-1.134446 2.624801,-2.001965 l 1.134448,-1.267909 -0.06672,8.675179 -0.06672,8.675176 -0.622833,1.045472 c -0.400392,0.689565 -0.978737,1.26791 -1.668297,1.668303 l -1.045477,0.622832 -25.358197,0.06672 c -19.530284,0.04449 -25.580674,0 -26.359212,-0.22245 -1.24567,-0.33366 -2.758254,-1.801767 -3.091916,-2.980702 -0.155834,-0.556102 -0.244657,-3.95944 -0.244657,-9.209038 l 0.02103,-8.341516 0.489366,0.667323 c 0.26694,0.355905 0.778537,0.956493 1.15669,1.312397 z"
     id="path4068"
     style="stroke-width:0.0222441" />
  <path
     d="m 21.065166,85.680099 c -0.934266,0.467125 -1.601591,1.690548 -1.490353,2.669286 0.133496,0.978736 0.622835,1.824012 1.312392,2.179917 l 0.467134,0.266926 -0.467134,-0.622831 c -0.266941,-0.333661 -0.489364,-0.867518 -0.489364,-1.156691 0,-0.734055 1.134431,-1.846256 1.890737,-1.846256 0.756305,0 1.890736,1.112201 1.890736,1.846256 0,0.289173 -0.222318,0.82303 -0.489364,1.156691 l -0.467107,0.622831 0.489366,-0.266926 c 0.867516,-0.467126 1.401371,-1.579327 1.290133,-2.691531 -0.200244,-1.890745 -2.246632,-3.025189 -3.937176,-2.157672 z"
     id="path4070"
     style="stroke-width:0.0222441" />
  <path
     d="m 43.197975,42.237475 1.312419,1.334651 h 26.425917 26.425924 v -1.334651 -1.33465 H 69.623909 41.885583 Z"
     id="path4140"
     style="stroke-width:0.0222441" />
  <path
     d="m 41.974563,49.288826 c 0,0.08909 0.578346,0.734074 1.267902,1.445863 l 1.267929,1.29016 H 70.936311 97.362235 V 50.578987 49.133125 H 69.668399 c -15.237161,0 -27.693836,0.06675 -27.693836,0.155571 z"
     id="path4152"
     style="stroke-width:0.0222441" />
  <path
     d="m 43.197975,58.920511 1.312419,1.334641 H 70.936311 97.362235 V 58.920511 57.585866 H 69.623909 41.885583 Z"
     id="path4154"
     style="stroke-width:0.0222441" />
</svg>
