<?xml version="1.0" encoding="UTF-8" standalone="no"?>
<!-- Created with Inkscape (http://www.inkscape.org/) -->

<svg
   width="100mm"
   height="100mm"
   viewBox="0 0 100 100"
   version="1.1"
   id="svg26768"
   xmlns="http://www.w3.org/2000/svg"
   xmlns:svg="http://www.w3.org/2000/svg">
  <defs
     id="defs26765" />
  <path
     d="m 32.567642,2.0506844 c -0.239231,0.087038 -0.717685,0.4784544 -1.022158,0.8699235 L 30.95829,3.6165404 V 19.035856 34.455174 h 1.304881 1.304878 V 19.557809 4.6604445 h 2.718497 2.718495 V 20.971427 37.282411 H 21.454425 3.903807 l 1.283131,1.30488 1.283131,1.304881 h 16.267486 16.267486 v 4.132107 4.132119 H 21.454425 3.903807 l 1.283131,1.30488 1.283131,1.30488 h 16.267486 16.267486 v 4.132117 4.132109 H 21.454425 3.903807 l 1.283131,1.30488 1.283131,1.304879 H 22.737555 39.005041 V 77.951128 94.262112 H 36.286546 33.568049 V 79.364747 64.467381 H 32.263171 30.95829 v 15.310578 15.288824 l 0.500203,0.739431 c 0.739435,1.109155 1.674595,1.326633 5.306508,1.239639 3.436181,-0.0652 3.936386,-0.260977 4.675812,-1.718095 0.369721,-0.695931 0.391465,-3.349189 0.391465,-45.97522 0,-43.474209 -0.02177,-45.2792869 -0.391465,-45.9969735 -0.695935,-1.3048801 -1.435363,-1.5223583 -5.154267,-1.5006042 -1.783335,0 -3.45793,0.087038 -3.718904,0.1957241 z"
     id="path4622"
     style="stroke-width:0.021748" />
  <path
     d="m 44.44204,16.83931 v 1.30488 h 8.155481 8.155498 V 16.83931 15.534429 H 52.597521 44.44204 Z"
     id="path4660"
     style="stroke-width:0.021748" />
  <path
     d="m 63.580256,16.83931 v 1.30488 H 77.172743 90.765222 V 16.83931 15.534429 H 77.172743 63.580256 Z"
     id="path4662"
     style="stroke-width:0.021748" />
  <path
     d="m 44.44204,27.713295 v 1.30488 h 4.132113 4.132119 v -1.30488 -1.304869 H 48.574153 44.44204 Z"
     id="path4680"
     style="stroke-width:0.021748" />
  <path
     d="m 55.316031,27.713295 v 1.30488 h 8.155486 8.155488 v -1.30488 -1.304869 h -8.155488 -8.155486 z"
     id="path4682"
     style="stroke-width:0.021748" />
  <path
     d="m 74.454243,27.713295 v 1.30488 h 9.460377 9.460372 v -1.30488 -1.304869 H 83.91462 74.454243 Z"
     id="path4684"
     style="stroke-width:0.021748" />
  <path
     d="m 44.44204,38.587291 v 1.304881 h 6.850613 6.850606 v -1.304881 -1.30488 H 51.292653 44.44204 Z"
     id="path4708"
     style="stroke-width:0.021748" />
  <path
     d="m 60.753019,38.587291 v 1.304881 h 2.718498 2.7185 v -1.304881 -1.30488 h -2.7185 -2.718498 z"
     id="path4710"
     style="stroke-width:0.021748" />
  <path
     d="m 69.017255,38.587291 v 1.304881 h 8.155488 8.155486 v -1.304881 -1.30488 h -8.155486 -8.155488 z"
     id="path4712"
     style="stroke-width:0.021748" />
  <path
     d="m 87.93799,38.587291 v 1.304881 h 4.132122 4.13211 v -1.304881 -1.30488 h -4.13211 -4.132122 z"
     id="path4714"
     style="stroke-width:0.021748" />
  <path
     d="m 30.95829,44.024279 v 1.30488 h 1.304881 1.304878 v -1.30488 -1.304881 H 32.263171 30.95829 Z"
     id="path4716"
     style="stroke-width:0.021748" />
  <path
     d="m 44.44204,49.461278 v 1.30488 h 2.718494 2.718499 v -1.30488 -1.30488 H 47.160534 44.44204 Z"
     id="path4730"
     style="stroke-width:0.021748" />
  <path
     d="m 52.706272,49.461278 v 1.30488 h 12.178864 12.178867 v -1.30488 -1.30488 H 64.885136 52.706272 Z"
     id="path4732"
     style="stroke-width:0.021748" />
  <path
     d="m 79.891242,49.461278 v 1.30488 h 9.460365 9.460375 v -1.30488 -1.30488 h -9.460375 -9.460365 z"
     id="path4734"
     style="stroke-width:0.021748" />
  <path
     d="m 30.95829,54.898275 v 1.304871 h 1.304881 1.304878 V 54.898275 53.593397 H 32.263171 30.95829 Z"
     id="path4736"
     style="stroke-width:0.021748" />
  <path
     d="m 44.44204,60.335264 v 1.304879 h 17.724597 17.724605 v -1.304879 -1.30488 H 62.166637 44.44204 Z"
     id="path4738"
     style="stroke-width:0.021748" />
  <path
     d="m 82.501,60.335264 v 1.304879 h 6.850607 6.850615 v -1.304879 -1.30488 H 89.351607 82.501 Z"
     id="path4740"
     style="stroke-width:0.021748" />
  <path
     d="m 44.44204,71.209249 v 1.30488 h 9.569112 9.569104 v -1.30488 -1.30488 H 54.011152 44.44204 Z"
     id="path4752"
     style="stroke-width:0.021748" />
  <path
     d="m 66.190017,71.209249 v 1.30488 h 2.7185 2.718488 v -1.30488 -1.30488 h -2.718488 -2.7185 z"
     id="path4754"
     style="stroke-width:0.021748" />
  <path
     d="m 74.454243,71.209249 v 1.30488 h 9.460377 9.460372 v -1.30488 -1.30488 H 83.91462 74.454243 Z"
     id="path4756"
     style="stroke-width:0.021748" />
  <path
     d="m 44.44204,82.083245 v 1.304881 h 10.873991 10.873986 v -1.304881 -1.30488 H 55.316031 44.44204 Z"
     id="path4760"
     style="stroke-width:0.021748" />
  <path
     d="m 69.017255,82.083245 v 1.304881 h 5.436988 5.436999 v -1.304881 -1.30488 h -5.436999 -5.436988 z"
     id="path4762"
     style="stroke-width:0.021748" />
  <path
     d="m 82.501,82.083245 v 1.304881 h 4.132109 4.132113 v -1.304881 -1.30488 H 86.633109 82.501 Z"
     id="path4764"
     style="stroke-width:0.021748" />
</svg>
