<?xml version="1.0" encoding="UTF-8" standalone="no"?>
<!-- Created with Inkscape (http://www.inkscape.org/) -->

<svg
   width="100mm"
   height="100mm"
   viewBox="0 0 100 100"
   version="1.1"
   id="svg26768"
   sodipodi:docname="a person.svg"
   inkscape:version="1.1.1 (3bf5ae0d25, 2021-09-20)"
   xmlns:inkscape="http://www.inkscape.org/namespaces/inkscape"
   xmlns:sodipodi="http://sodipodi.sourceforge.net/DTD/sodipodi-0.dtd"
   xmlns="http://www.w3.org/2000/svg"
   xmlns:svg="http://www.w3.org/2000/svg">
  <sodipodi:namedview
     id="namedview26770"
     pagecolor="#ffffff"
     bordercolor="#666666"
     borderopacity="1.0"
     inkscape:pageshadow="2"
     inkscape:pageopacity="0.0"
     inkscape:pagecheckerboard="0"
     inkscape:document-units="mm"
     showgrid="false"
     width="209mm"
     inkscape:zoom="0.7500982"
     inkscape:cx="13.998167"
     inkscape:cy="241.96832"
     inkscape:window-width="1920"
     inkscape:window-height="1027"
     inkscape:window-x="1912"
     inkscape:window-y="-8"
     inkscape:window-maximized="1"
     inkscape:current-layer="layer1" />
  <defs
     id="defs26765" />
  <g
     inkscape:label="Layer 1"
     inkscape:groupmode="layer"
     id="layer1">
    <path
       d="m 45.522905,2.4770145 c -1.659241,0.4203414 -4.579509,2.3229392 -10.619149,6.9688175 -0.376095,0.2876015 -1.393763,1.637118 -2.278693,3.030883 -1.37164,2.145951 -1.592872,2.632664 -1.592872,3.517593 0,0.553079 -0.154863,2.079582 -0.331848,3.429101 -0.575205,4.380399 -0.33185,8.340455 0.774312,12.455375 l 0.442465,1.614997 -0.663697,0.553081 c -0.862806,0.730068 -0.862806,1.659243 -0.0885,5.154711 0.75219,3.318485 1.283148,4.71225 2.168078,5.663546 0.597326,0.619452 0.907052,0.774314 1.614994,0.774314 0.840682,0 0.862806,0.02213 1.261025,1.150408 1.614996,4.579507 2.654786,6.902447 3.937934,8.694428 2.234446,3.141499 4.999849,5.464439 7.920117,6.659092 1.924721,0.796436 5.066218,0.973422 6.990939,0.420342 2.212323,-0.641574 3.827317,-1.637118 5.862654,-3.650333 3.406979,-3.362732 5.021974,-6.37149 6.592722,-12.344761 0.243356,-0.884929 0.309726,-0.929176 1.061915,-0.929176 1.614997,0 2.699035,-1.880474 3.760949,-6.526352 0.774313,-3.4291 0.75219,-4.225537 -0.11062,-4.99985 l -0.685821,-0.61945 0.530958,-2.101708 c 0.81856,-3.207867 1.061916,-5.641421 0.929175,-8.915659 l -0.11062,-2.898144 0.530956,-0.13274 c 0.331848,-0.08848 0.575204,-0.353971 0.663698,-0.707942 0.221232,-0.907052 -0.33185,-3.539717 -0.929176,-4.336151 -0.730058,-1.01767 -1.128276,-1.614997 -2.256561,-3.340609 -0.553075,-0.840683 -1.482251,-1.9025987 -2.07958,-2.3893097 -1.017665,-0.7964348 -2.809649,-1.5265019 -3.78307,-1.5265019 -0.243357,0 -1.150408,-0.7521906 -2.12383,-1.7477353 C 61.495872,3.9150246 61.031286,3.6052989 60.035738,3.2955742 59.372043,3.096465 58.376497,2.941603 57.823416,2.941603 c -0.55308,0 -2.300815,-0.1548627 -3.893687,-0.3318487 C 50.92097,2.2779054 46.651187,2.211536 45.522902,2.4770145 Z m 7.964363,2.7875269 c 1.460131,0.1769859 3.229991,0.3318488 3.937934,0.3318488 1.769858,0 2.544171,0.3982173 3.893687,1.9468441 1.482256,1.7034882 1.946845,1.9910897 3.517594,2.2786923 1.747735,0.3097254 2.765404,1.0840374 4.026428,3.0530054 0.575203,0.929176 1.327393,1.99109 1.637119,2.367185 0.641573,0.796437 0.707942,0.973423 0.287602,0.973423 -0.176986,0 -0.486712,0.199109 -0.707945,0.442464 -0.353972,0.398219 -0.376093,0.553082 -0.08849,2.25657 0.176986,1.017667 0.309725,3.296362 0.287603,5.154712 0,3.49547 -0.221234,4.955604 -1.327395,8.561688 -0.575202,1.836229 -0.575202,1.946846 -0.221232,2.499926 0.199111,0.309725 0.619451,0.663696 0.929176,0.774312 0.287603,0.110622 0.530958,0.26548 0.530958,0.331849 0,0.486712 -1.017668,4.645878 -1.37164,5.597177 l -0.442464,1.150406 -0.553081,-0.442464 c -1.349512,-1.061914 -1.791979,-0.530956 -3.053002,3.871566 -0.55308,1.946844 -1.415886,4.358275 -1.880475,5.353821 -0.995544,2.035337 -2.94239,4.60163 -4.557384,5.995396 -2.654788,2.300815 -5.818409,3.030881 -8.782921,2.057458 -3.451232,-1.150406 -7.212181,-4.911356 -8.893544,-8.893536 -0.331849,-0.774313 -1.15041,-2.898142 -1.791983,-4.712248 -1.504379,-4.203413 -1.946845,-4.690124 -3.252116,-3.672457 l -0.553078,0.442464 -0.33185,-0.84068 c -0.287603,-0.730069 -0.973422,-3.384855 -1.371641,-5.287452 -0.132739,-0.641574 -0.06636,-0.752189 0.420341,-0.9513 0.309727,-0.110621 0.730067,-0.464587 0.929177,-0.774312 0.353973,-0.530958 0.331849,-0.663697 -0.309727,-2.942389 -0.376094,-1.305271 -0.818558,-2.964513 -0.97342,-3.694579 -0.398218,-1.902598 -0.331849,-7.964363 0.110621,-10.043946 0.199109,-0.907052 0.309727,-1.858351 0.243355,-2.12383 -0.176984,-0.730066 2.212324,-4.446769 3.429103,-5.287451 0.530957,-0.376096 2.345061,-1.7256127 4.04855,-2.9866364 1.703489,-1.2610247 3.539716,-2.4778025 4.114921,-2.6990338 1.327392,-0.5088348 4.46889,-0.5530811 8.119224,-0.088497 z"
       id="path4657"
       style="stroke-width:0.0221233" />
    <path
       d="m 35.855053,60.882336 c -1.238899,1.061917 -2.433553,1.725613 -11.349215,6.282999 -4.734371,2.433555 -9.18114,4.756494 -9.844837,5.198957 -0.663697,0.420342 -1.880473,1.43801 -2.67691,2.25657 -1.769859,1.791981 -3.1193749,4.358276 -3.6503325,6.858201 -0.3982169,1.880475 -0.48671,7.278542 -0.1327375,8.207717 0.6194486,1.614997 10.309422,5.154711 18.627755,6.813957 6.681217,1.32739 12.167776,1.924717 20.087893,2.212317 18.207415,0.663702 35.662644,-2.057458 46.503023,-7.234292 2.876019,-1.349517 2.765409,-1.150408 2.765409,-5.774162 -0.02213,-3.69458 -0.04427,-3.982182 -0.641578,-5.663547 -0.995544,-2.853897 -2.145951,-4.468892 -4.513139,-6.393613 -1.681365,-1.349517 -3.274237,-2.256569 -10.884626,-6.216626 -7.079433,-3.672456 -9.955454,-5.287453 -11.349217,-6.327244 -1.283148,-0.973423 -1.725612,-1.061915 -2.367187,-0.420342 -0.530956,0.530959 -0.575202,1.261025 -0.110621,1.924721 0.48671,0.685819 3.473348,2.499925 8.738675,5.265328 14.070373,7.411281 13.650032,7.167926 15.530506,9.136894 2.234447,2.32294 2.920265,4.336152 2.920265,8.517442 0.02213,2.278693 -0.04427,2.853898 -0.309724,3.030882 -0.176985,0.110622 -1.526504,0.707943 -2.986636,1.305272 -6.703338,2.765399 -15.220781,4.667998 -25.552328,5.707793 -2.964513,0.287601 -5.884779,0.376094 -12.499624,0.376094 -9.0484,0 -12.720856,-0.221235 -19.357825,-1.216779 -7.920115,-1.194656 -16.747283,-3.650332 -21.26042,-5.97327 l -0.862801,-0.420342 v -2.278692 c 0.02212,-4.513139 1.150408,-7.544019 3.760949,-9.955453 1.614994,-1.504378 3.871564,-2.787527 12.565993,-7.101556 9.159017,-4.579509 11.327093,-6.017517 11.327093,-7.54402 0,-0.464589 -0.796436,-1.216779 -1.327394,-1.216779 -0.221231,0 -0.75219,0.287603 -1.150409,0.641573 z"
       id="path4749"
       style="stroke-width:0.0221233" />
  </g>
</svg>
