<?xml version="1.0" encoding="UTF-8" standalone="no"?>
<!-- Created with Inkscape (http://www.inkscape.org/) -->

<svg
   width="100mm"
   height="100mm"
   viewBox="0 0 100 100"
   version="1.1"
   id="svg26768"
   xmlns="http://www.w3.org/2000/svg"
   xmlns:svg="http://www.w3.org/2000/svg">
  <defs
     id="defs26765" />
  <path
     d="M 43.130017,2.1132308 C 28.208263,4.5404318 15.658544,13.228688 8.1562965,26.385213 c -2.372036,4.137262 -4.468253,10.039768 -5.461197,15.390644 -0.579218,3.199483 -0.661964,12.273902 -0.137912,15.36306 2.013471,11.418864 7.143686,20.934588 15.4182265,28.464414 6.619632,6.068003 15.335479,10.260433 24.492634,11.805012 3.144327,0.524045 4.275182,0.6068 9.101994,0.46889 8.13664,-0.220652 13.32202,-1.489423 20.410543,-5.019884 C 84.806118,86.458368 94.18393,74.487873 97.32826,60.39357 99.8382,49.167773 98.37636,37.96956 93.05307,27.626384 92.14288,25.888739 90.57071,23.268471 89.55018,21.834218 87.316059,18.662306 82.158265,13.394184 79.179432,11.21522 73.028689,6.7193818 66.133235,3.6853945 58.879217,2.333883 55.624563,1.7270827 46.301916,1.5891717 43.130014,2.1132308 Z M 58.68615,5.8367733 c 13.901234,2.7305943 25.513167,11.6119317 31.77424,24.2168127 1.71006,3.447734 2.67543,6.205912 3.6408,10.260434 0.82745,3.55806 1.18601,11.363708 0.66195,15.252734 -0.49647,3.640801 -1.76523,8.329705 -3.14432,11.584359 C 85.799066,80.886854 73.800971,90.678386 58.879217,93.850284 54.935021,94.705321 46.605323,94.76049 42.468052,93.988208 26.222375,90.981791 12.983111,79.50777 7.8528945,64.061957 7.2736775,62.296726 6.5841335,59.924694 6.3634795,58.766263 2.7226805,40.893248 10.52833,22.275537 25.781066,12.373665 31.738735,8.5122114 37.779147,6.3056764 45.088322,5.2851431 48.094736,4.8714238 55.321169,5.1472183 58.68615,5.8367872 Z"
     id="path4672"
     style="stroke-width:0.0275819" />
  <path
     d="m 46.191594,15.73863 c -2.565104,0.827453 -4.275175,2.372044 -5.406029,4.826817 -0.634382,1.434253 -0.717124,1.847987 -0.606799,3.861454 0.08274,1.599748 0.303395,2.592696 0.744709,3.475306 0.386145,0.772295 2.62027,3.227067 5.76459,6.398981 l 5.130214,5.157794 -12.963444,0.08272 c -12.825535,0.08272 -12.93586,0.08272 -14.314952,0.71714 -4.026942,1.847971 -6.067993,6.592048 -4.688904,10.839636 0.441308,1.406667 1.351508,2.372031 15.418222,16.466334 11.143052,11.198213 15.280321,15.169992 16.300841,15.694052 1.847986,0.965363 4.716492,1.158431 6.729959,0.496474 1.903155,-0.634386 4.164861,-2.730609 4.992313,-4.606165 0.937778,-2.178964 0.910193,-4.799233 -0.08272,-6.978196 -0.661957,-1.406668 -1.820387,-2.70301 -7.529826,-8.412448 -3.695958,-3.723543 -6.729959,-6.86787 -6.729959,-6.978197 0,-0.110399 5.819765,-0.19308 12.908288,-0.19308 h 12.935857 l 1.682491,-0.855024 c 3.668387,-1.8204 5.516358,-6.2335 4.330342,-10.343189 C 80.365476,43.761725 80.25515,43.6514 66.933128,30.329394 57.086442,20.455107 53.197403,16.703981 52.259625,16.290261 50.908112,15.62829 47.432809,15.324897 46.191621,15.738617 Z m 4.550995,3.585645 c 1.54458,0.717127 26.147554,25.430413 26.754341,26.83708 0.772295,1.903157 0.386147,3.83387 -1.075676,5.433618 -1.59975,1.710075 -1.213601,1.68249 -16.907652,1.68249 H 45.19865 l -1.627328,-1.654905 c -2.013465,-2.041052 -3.116736,-2.206549 -3.971779,-0.634385 -0.248235,0.496474 -0.248235,0.772297 0.08275,1.379097 0.220652,0.441303 3.558049,3.916609 7.447083,7.778063 l 7.033357,7.033352 -1.351511,0.441318 c -2.758179,0.937778 -4.57858,2.785764 -5.516358,5.516357 l -0.46889,1.351513 -11.72226,-11.777429 c -9.32265,-9.350239 -11.805012,-11.998092 -12.08083,-12.85313 -0.772291,-2.372032 0.386144,-5.185366 2.620272,-6.343811 1.075689,-0.579215 1.516997,-0.579215 19.445166,-0.717127 l 18.341896,-0.137924 0.358564,-0.744712 c 0.275823,-0.606786 0.275823,-0.882607 0.02753,-1.379082 -0.52406,-0.992949 -0.744711,-1.048104 -3.971794,-1.048104 h -3.033987 l -6.26107,-6.288655 c -3.420137,-3.447721 -6.426555,-6.647218 -6.674792,-7.143677 -0.606799,-1.213601 -0.551638,-2.978846 0.137912,-4.4131 1.186014,-2.482355 4.19242,-3.502889 6.72996,-2.31686 z m 6.8403,51.715864 c 1.847971,0.772296 2.951246,2.565111 2.951246,4.744076 0,3.806283 -3.889039,6.178314 -7.39193,4.495839 -2.951246,-1.434266 -3.695956,-5.406048 -1.489421,-8.026314 0.386148,-0.46889 1.103287,-1.020535 1.572177,-1.213601 1.103274,-0.46889 3.227068,-0.496475 4.357928,0 z"
     id="path4674"
     style="stroke-width:0.0275819" />
</svg>
