<?xml version="1.0" encoding="UTF-8" standalone="no"?>
<!-- Created with Inkscape (http://www.inkscape.org/) -->

<svg
   width="100mm"
   height="100mm"
   viewBox="0 0 100 100"
   version="1.1"
   id="svg26768"
   xmlns="http://www.w3.org/2000/svg"
   xmlns:svg="http://www.w3.org/2000/svg">
  <defs
     id="defs26765" />
  <path
     d="m 28.622078,1.2885663 c -2.408382,0.8466921 -4.13941,3.2174424 -4.13941,5.6822743 V 7.873982 l -1.241814,0.1128973 c -2.389567,0.2257853 -4.327563,1.5804968 -5.324781,3.6878297 l -0.489201,1.053661 -0.05645,27.037832 c -0.0376,24.159076 -0.07526,27.056651 -0.338677,27.056651 -0.526833,0 -1.392345,0.564468 -1.674577,1.128926 -0.244602,0.470398 -0.282232,2.427199 -0.282232,14.751337 0,9.577074 0.05645,14.375023 0.20697,14.732512 0.244602,0.639723 1.034851,1.505242 1.712208,1.862731 0.432759,0.225785 3.217449,0.263418 17.366676,0.263418 16.538803,0 16.877486,0 17.592464,-0.376306 0.413939,-0.206979 0.978407,-0.733814 1.260641,-1.166569 0.526836,-0.771426 0.526836,-0.827876 0.583285,-4.327552 l 0.07526,-3.53731 h 10.969417 c 10.80009,0 11.007059,0 12.079536,-0.413938 2.12615,-0.790253 3.574942,-2.803515 3.894809,-5.437672 l 0.131704,-1.053671 1.223008,-0.112884 c 0.846692,-0.09408 1.56168,-0.301051 2.351934,-0.714989 1.279446,-0.696171 2.013251,-1.448793 2.765872,-2.859953 l 0.50802,-0.978406 V 42.080504 5.5784966 L 87.382807,4.6941718 C 86.837155,3.5087966 85.576526,2.1728909 84.409956,1.5708005 L 83.469183,1.062781 56.468982,1.0251483 C 32.291102,0.98751572 29.37471,1.0063321 28.622089,1.2885663 Z m 54.207371,2.1449651 c 0.959589,0.3386832 1.825098,1.0348552 2.295485,1.9191799 l 0.413938,0.790243 v 27.6587507 27.65874 l -0.526826,1.072478 c -0.639723,1.298273 -2.0697,2.634168 -3.236269,3.02929 l -0.827875,0.301049 -0.05645,-26.473364 -0.05645,-26.473365 -0.545642,-1.166558 C 79.668445,10.376436 78.351366,9.0593572 77.034286,8.4384503 L 76.131146,8.024502 51.445237,7.9680529 26.740531,7.9304203 V 7.3095029 c 0,-1.5993133 0.940773,-3.085739 2.351935,-3.7254621 0.714987,-0.3386726 2.01325,-0.3574889 26.924935,-0.3574889 19.07889,0 26.341661,0.056449 26.812048,0.2069689 z m -6.359631,7.3756696 c 0.489204,0.282223 1.128927,0.884324 1.411161,1.298263 l 0.50802,0.790252 V 40.83869 68.798481 l -0.50802,0.95959 c -0.602101,1.128926 -1.749833,2.22022 -2.954024,2.784688 -0.846703,0.395123 -1.072488,0.395123 -12.756893,0.451571 l -11.910191,0.05645 v -2.201419 c 0,-2.446005 -0.225785,-3.17982 -1.110121,-3.706645 -0.508018,-0.301051 -1.7122,-0.319867 -14.958296,-0.319867 H 19.778799 V 40.010804 c 0,-24.347215 0.03764,-26.887302 0.301051,-27.432954 0.620908,-1.204191 1.580507,-1.937996 2.897587,-2.22022 0.357489,-0.07526 12.342943,-0.112897 26.623884,-0.09408 l 25.965357,0.01882 z m 9.125503,59.908461 c -0.05645,7.996565 -0.01882,7.657892 -1.26063,8.956165 -0.65855,0.696172 -1.994445,1.26063 -2.972852,1.26063 h -0.432754 l 0.03764,-7.16869 0.05645,-7.1687 0.846692,-0.282234 c 1.166559,-0.395121 2.37075,-1.279446 2.97284,-2.144954 0.282234,-0.395133 0.583285,-0.714999 0.65854,-0.733816 0.07526,0 0.131714,3.273903 0.09408,7.281599 z m -7.300404,14.412644 c -0.263407,0.921968 -1.222997,1.994445 -2.163771,2.408383 -0.696182,0.319867 -1.561691,0.357499 -13.302545,0.357499 h -12.56873 v -7.055813 -7.055802 h 11.627957 c 12.832158,0 12.681627,0.01882 14.450287,-1.185375 0.508019,-0.319856 1.166559,-0.940774 1.486416,-1.354712 l 0.564468,-0.75262 0.05645,6.961731 c 0.03764,4.628602 -0.01882,7.206322 -0.150531,7.676709 z M 40.852135,72.561576 v 1.222997 H 30.315472 19.778799 v -1.222997 -1.223008 h 10.536673 10.536663 z m 7.149874,15.334612 v 9.407737 H 33.043712 c -14.713701,0 -14.958301,0 -15.334612,-0.376316 -0.35749,-0.3575 -0.376307,-0.620907 -0.376307,-9.407737 v -9.03142 h 15.334614 15.334602 z"
     id="path4556"
     style="stroke-width:0.0188155" />
  <path
     d="m 47.907937,20.04759 c -0.09408,0.03764 -3.951247,1.241824 -8.561044,2.6718 -7.356852,2.295486 -8.448146,2.690608 -9.050236,3.217444 -0.376316,0.338683 -0.790254,0.865518 -0.903152,1.147741 -0.15052,0.357501 -0.206969,4.572165 -0.169336,15.202909 l 0.05645,14.694878 0.526835,0.677356 c 0.282225,0.376316 0.771427,0.827886 1.053662,0.978406 0.301049,0.15052 4.233481,1.41116 8.768012,2.841138 7.46974,2.314301 8.354065,2.558903 9.577073,2.540086 1.166558,-0.01882 2.370751,-0.338672 9.689971,-2.634157 4.609786,-1.448794 8.579849,-2.784699 8.843267,-2.972852 0.263417,-0.206969 0.677356,-0.733804 0.921957,-1.185375 l 0.413939,-0.827887 V 42.024066 c 0,-13.7353 -0.01882,-14.375023 -0.357489,-15.052378 -0.71499,-1.392343 -0.827887,-1.429976 -9.652339,-4.214664 -6.416078,-2.013262 -8.636298,-2.634168 -9.652337,-2.690618 -0.714988,-0.05645 -1.392345,-0.05645 -1.505232,-0.01882 z m 10.348511,4.929653 c 5.211876,1.618129 8.165912,2.615352 8.316432,2.841137 0.188163,0.225786 0.244601,1.46761 0.244601,4.703869 V 36.90626 H 49.130945 31.444399 v -4.384011 c 0,-3.292709 0.05645,-4.478083 0.244601,-4.722684 0.169337,-0.225786 2.991657,-1.185376 8.259994,-2.841138 4.421634,-1.373528 8.222361,-2.540086 8.466952,-2.596536 0.809071,-0.15052 1.749843,0.09408 9.840502,2.615352 z m 8.523401,17.046823 0.03764,4.28992 H 49.130945 31.444399 v -4.327552 -4.327563 l 17.648913,0.03764 17.630097,0.05644 z m 0,9.482991 c 0.03764,3.932441 0.01882,4.384001 -0.282224,4.760317 -0.432766,0.526836 -16.087234,5.456489 -17.347875,5.475305 -1.072476,0 -17.122076,-4.967286 -17.46075,-5.418857 -0.188152,-0.225784 -0.244601,-1.486425 -0.244601,-4.779133 v -4.478082 l 17.648913,0.03764 17.630097,0.05645 z"
     id="path4558"
     style="stroke-width:0.0188155" />
  <path
     d="m 36.148267,32.578697 v 1.128926 h 2.351934 2.351934 V 32.578697 31.44977 h -2.351934 -2.351934 z"
     id="path4560"
     style="stroke-width:0.0188155" />
  <path
     d="m 43.29814,32.578697 v 1.128926 h 3.480861 3.48087 V 32.578697 31.44977 h -3.48087 -3.480861 z"
     id="path4562"
     style="stroke-width:0.0188155" />
  <path
     d="m 52.705877,32.578697 v 1.128926 h 4.703867 4.722686 l -0.05645,-1.091293 -0.05645,-1.072488 -4.647419,-0.05645 -4.666235,-0.03764 z"
     id="path4564"
     style="stroke-width:0.0188155" />
  <path
     d="m 36.148267,41.986434 v 1.128926 h 8.278799 8.297627 l -0.05645,-1.091294 -0.05645,-1.072488 -8.222351,-0.05645 -8.241177,-0.03764 z"
     id="path4566"
     style="stroke-width:0.0188155" />
  <path
     d="m 54.963739,41.986434 v 1.128926 h 3.574943 3.593748 l -0.05645,-1.091294 -0.05645,-1.072488 -3.518482,-0.05645 -3.537309,-0.03764 z"
     id="path4568"
     style="stroke-width:0.0188155" />
  <path
     d="m 36.148267,51.394169 v 1.128926 h 3.574942 3.593748 l -0.05645,-1.091293 -0.05645,-1.072487 -3.518481,-0.05645 -3.53731,-0.03764 z"
     id="path4570"
     style="stroke-width:0.0188155" />
  <path
     d="m 45.556004,51.394169 v 1.128926 h 1.222997 1.241823 l -0.05645,-1.091293 -0.05645,-1.072487 -1.166559,-0.05645 -1.185376,-0.05645 z"
     id="path4572"
     style="stroke-width:0.0188155" />
  <path
     d="m 50.259871,51.394169 v 1.128926 h 5.926865 5.945694 l -0.05645,-1.091293 -0.05645,-1.072487 -5.870416,-0.05645 -5.889244,-0.03764 z"
     id="path4574"
     style="stroke-width:0.0188155" />
  <path
     d="m 19.778799,84.321246 v 1.128926 h 7.055814 7.074607 l -0.05644,-1.091293 -0.05645,-1.072488 -6.999353,-0.05645 -7.018171,-0.03764 z"
     id="path4576"
     style="stroke-width:0.0188155" />
  <path
     d="m 39.911361,83.662707 c 0,0.395122 -0.45157,0.545641 -0.921968,0.282223 -0.357488,-0.188152 -0.395121,-0.15052 -0.395121,0.376316 0,0.564458 -0.03764,0.583275 -0.583274,0.470376 -0.564468,-0.131703 -0.583285,-0.112884 -0.451571,0.451582 0.112884,0.508019 0.07526,0.583274 -0.263417,0.583274 -0.489203,0 -0.677355,0.319866 -0.376306,0.696172 0.206959,0.244602 0.188143,0.338682 -0.206979,0.658539 l -0.470386,0.376316 0.432764,0.301051 0.432744,0.282224 -0.413939,0.432763 -0.413937,0.432756 0.489203,0.188152 c 0.432754,0.169335 0.489204,0.282234 0.395132,0.771426 -0.112896,0.50802 -0.07526,0.564469 0.376306,0.564469 0.395121,0 0.489203,0.09408 0.489203,0.489203 0,0.432754 0.05644,0.470387 0.564457,0.357499 0.470387,-0.112896 0.564469,-0.07526 0.564469,0.244602 0,0.526836 0.206968,0.639723 0.677356,0.319857 0.395131,-0.263419 0.45157,-0.244602 0.733804,0.150519 l 0.30105,0.413949 0.319857,-0.432754 c 0.30105,-0.395133 0.3575,-0.395133 0.752621,-0.131714 0.395132,0.282234 0.432754,0.282234 0.602091,-0.188154 0.15053,-0.395121 0.263417,-0.451569 0.658538,-0.357488 0.413949,0.09408 0.470398,0.05644 0.470398,-0.376316 0,-0.413938 0.07526,-0.489203 0.583274,-0.489203 0.45157,0 0.564469,-0.07527 0.470387,-0.282235 -0.05645,-0.15052 -0.169336,-0.413937 -0.225786,-0.564457 -0.07526,-0.188153 0.05645,-0.338683 0.395133,-0.470387 0.508019,-0.188153 0.508019,-0.206968 0.188152,-0.564469 -0.319866,-0.357489 -0.319866,-0.395121 0.01882,-0.771426 0.338672,-0.376315 0.338672,-0.395132 -0.07526,-0.696183 -0.395122,-0.30104 -0.395122,-0.357489 -0.112896,-0.752611 0.282234,-0.395121 0.263419,-0.413948 -0.282224,-0.526835 -0.508019,-0.112884 -0.545651,-0.169337 -0.451569,-0.677356 0.09408,-0.50802 0.07526,-0.545652 -0.432765,-0.489203 -0.470377,0.05645 -0.545653,-0.01882 -0.602091,-0.451571 -0.05645,-0.470386 -0.09408,-0.489203 -0.545652,-0.282234 -0.319867,0.131705 -0.526825,0.15052 -0.564457,0.03764 -0.225786,-0.658538 -0.41395,-0.733793 -0.790254,-0.395121 -0.376306,0.338683 -0.413939,0.338683 -0.733805,0.05645 -0.432754,-0.395121 -0.602091,-0.395121 -0.602091,-0.03764 z"
     id="path4578"
     style="stroke-width:0.0188155" />
  <path
     d="m 19.778799,91.471119 v 1.128926 h 7.055814 7.055792 v -1.128926 -1.128926 h -7.055792 -7.055814 z"
     id="path4580"
     style="stroke-width:0.0188155" />
</svg>
