<?xml version="1.0" encoding="UTF-8" standalone="no"?>
<!-- Created with Inkscape (http://www.inkscape.org/) -->

<svg
   width="100mm"
   height="100mm"
   viewBox="0 0 100 100"
   version="1.1"
   id="svg26768"
   xmlns="http://www.w3.org/2000/svg"
   xmlns:svg="http://www.w3.org/2000/svg">
  <defs
     id="defs26765" />
  <path
     d="M 42.301521,1.4160153 C 33.847721,2.7831336 25.477625,6.438067 19.032655,11.571731 17.219137,13.022537 13.368894,16.900681 11.666976,18.99321 -1.8646738,35.565991 -2.9248848,59.058052 9.1001462,76.91425 16.270526,87.600075 27.067948,94.798344 39.957885,97.560477 c 2.734237,0.585901 3.766545,0.669603 9.62562,0.669603 5.747462,-0.02795 6.919265,-0.111666 9.486098,-0.641707 15.400977,-3.348035 27.7887,-13.001537 34.45687,-26.895903 4.65937,-9.681398 5.94278,-20.283521 3.76655,-30.941435 -0.83701,-4.101342 -2.03672,-7.477286 -4.18504,-11.829734 C 86.356103,14.333864 73.912561,4.847752 58.902198,1.8066165 54.996158,1.025414 46.01226,0.80220338 42.301521,1.4160153 Z M 58.037293,5.182561 c 9.207095,1.8135116 17.158683,6.082257 23.687361,12.722534 3.794443,3.878144 6.054359,7.00298 8.397979,11.718133 3.06905,6.138064 4.35245,11.411222 4.57566,18.804805 0.13948,4.43615 0.0558,5.635864 -0.44641,8.621193 C 91.043363,75.798238 77.1211,90.166894 58.232594,94.212442 53.935938,95.133153 45.510047,95.161049 41.018104,94.240392 29.020965,91.81307 18.586253,84.893791 11.834378,74.849687 10.132459,72.310766 7.4261282,66.814397 6.4775172,63.968561 4.0501912,56.658681 3.5479862,48.037488 5.1104022,40.616009 5.7521092,37.463275 7.5377292,32.357521 8.9327452,29.539582 15.852021,15.812635 28.602467,6.8008282 44.282437,4.6246114 47.323572,4.2061002 54.633452,4.4851311 58.037293,5.1826172 Z"
     id="path4676"
     style="stroke-width:0.0279003" />
  <path
     d="m 42.050413,18.546802 c 0,0.223211 1.53451,4.743049 2.092529,6.221766 0.195287,0.474303 -0.362705,0.502214 -9.458213,0.502214 -5.30106,0 -9.653505,0.02795 -9.653505,0.08371 0,0.02795 0.558001,1.590315 1.227611,3.487529 l 1.199718,3.40384 h -6.361274 c -3.71074,0 -6.389169,0.111666 -6.389169,0.251108 0,0.13948 1.311313,3.933936 2.929531,8.453788 1.618219,4.491955 2.929532,8.370099 2.929532,8.593297 0,0.22321 -1.311313,4.185042 -2.929532,8.7607 -1.618218,4.603541 -2.929531,8.453789 -2.929531,8.593297 0,0.111666 2.87373,0.223197 6.389169,0.223197 h 6.361274 l -1.199718,3.403841 c -0.66961,1.897228 -1.227611,3.459633 -1.227611,3.487543 0,0.05577 4.32455,0.08372 9.625603,0.08372 5.301058,0 9.62561,0.05576 9.62561,0.111665 0,0.0559 -0.558007,1.618224 -1.22761,3.487556 l -1.227624,3.375931 h 15.819474 15.79158 L 78.962522,65.363632 84.486787,49.683665 78.962522,34.003685 73.438257,18.295808 H 57.75829 c -9.179199,0 -15.707877,0.111665 -15.707877,0.251106 z m 29.15582,4.045548 c 0.223212,0.5022 2.483131,6.807668 5.022066,14.005951 l 4.603541,13.085252 -4.770945,13.531646 c -2.622638,7.449389 -4.882558,13.754843 -5.022066,14.00595 -0.251093,0.474317 -1.116011,0.502199 -12.24823,0.502199 -6.612381,0 -11.997137,-0.05576 -11.997137,-0.13948 0,-0.05576 2.204126,-6.361274 4.910454,-14.00595 L 56.586472,49.683566 51.703916,35.789201 c -2.706328,-7.644675 -4.910454,-13.950143 -4.910454,-14.005949 0,-0.08372 5.412667,-0.13948 12.025033,-0.13948 h 11.997137 z m -21.957537,16.628589 3.682843,10.462614 -3.682843,10.462614 -3.71074,10.462615 -7.728393,0.08372 c -6.110165,0.0559 -7.756284,0 -7.756284,-0.27899 0,-0.195314 1.646119,-4.938363 3.627038,-10.546316 L 37.279455,49.68358 33.652415,39.444162 c -1.98092,-5.607967 -3.599136,-10.351016 -3.599136,-10.518421 0,-0.223196 2.259925,-0.306899 7.756284,-0.251092 l 7.728393,0.08372 z M 28.909365,36.347193 c 1.088111,2.762133 4.547753,12.889953 4.547753,13.33636 0,0.446393 -3.459642,10.574213 -4.547753,13.30845 l -0.306898,0.781202 h -4.575654 c -2.51103,0 -4.575651,-0.05576 -4.575651,-0.11153 0,-0.08372 1.060212,-3.18063 2.371525,-6.891383 1.311315,-3.71074 2.37153,-6.975072 2.37153,-7.226179 0,-0.251107 -1.060215,-3.40384 -2.34363,-7.002982 -1.283414,-3.599127 -2.287825,-6.612366 -2.204124,-6.751874 0.05579,-0.111665 2.092524,-0.195301 4.519853,-0.195301 h 4.436151 z"
     id="path4678"
     style="stroke-width:0.0279003" />
</svg>
