<?xml version="1.0" encoding="UTF-8" standalone="no"?>
<!-- Created with Inkscape (http://www.inkscape.org/) -->

<svg
   width="100mm"
   height="100mm"
   viewBox="0 0 100 100"
   version="1.1"
   id="svg26768"
   xmlns="http://www.w3.org/2000/svg"
   xmlns:svg="http://www.w3.org/2000/svg">
  <defs
     id="defs26765" />
  <path
     d="M 6.5111445,2.60903 C 4.9372605,3.0778461 3.2294223,4.6182438 2.5596943,6.1586403 1.9234468,7.5316039 1.9234468,9.038513 1.9904097,50.897128 l 0.1004464,43.332041 0.8371774,1.205527 c 0.4353314,0.669738 1.4064493,1.607374 2.1431686,2.076189 l 1.3394696,0.870659 H 49.70922 c 35.630065,0 43.499462,-0.06697 44.403617,-0.468816 1.40645,-0.56928 3.114293,-2.545003 3.583113,-4.118888 0.267885,-0.904147 0.334857,-13.89706 0.267885,-44.202698 L 97.863389,6.6944298 96.858777,5.254495 C 96.322985,4.4842955 95.251413,3.5131759 94.514707,3.1448205 93.175217,2.4415958 93.07476,2.4415958 50.312,2.374623 26.73723,2.3411271 7.0134515,2.4415856 6.5111445,2.60903 Z M 93.30917,7.4981166 94.012401,8.4022619 93.945471,50.729695 93.845077,93.090616 93.0414,93.726866 c -0.770202,0.602764 -1.942253,0.63625 -43.131128,0.63625 H 7.5827067 L 6.7790235,93.525944 5.9418609,92.722259 V 50.56226 c 0,-42.1599981 0,-42.1599981 0.7032084,-43.0641434 L 7.314813,6.6274572 h 42.662318 42.662305 z"
     id="path4692"
     style="stroke-width:0.0334869" />
  <path
     d="m 14.313585,21.026822 c 0,3.3152 0.100425,6.027639 0.234413,6.027639 0.133936,0 0.937637,-0.669737 1.7748,-1.506908 l 1.540403,-1.506913 9.845148,10.079557 9.811668,10.079555 3.047293,-3.047306 3.047309,-3.047309 -9.979089,-9.979095 -9.945608,-9.945607 1.573885,-1.607372 1.607363,-1.573882 h -6.295533 -6.262052 z"
     id="path4694"
     style="stroke-width:0.0334869" />
  <path
     d="m 74.690453,16.606551 1.573897,1.573884 -9.878643,9.878634 c -5.424874,5.424876 -9.878631,10.012579 -9.878631,10.213503 0,0.167432 1.239012,1.573884 2.74592,3.080795 l 2.779413,2.77941 10.046066,-10.046067 10.04608,-10.04607 1.506906,1.506913 c 0.803682,0.837171 1.607367,1.506908 1.741319,1.506908 0.133937,0 0.267896,-2.712439 0.267896,-6.027639 v -6.027641 h -6.262054 -6.262037 z"
     id="path4696"
     style="stroke-width:0.0334869" />
  <path
     d="m 27.641372,66.803403 -9.979089,9.979096 -1.674357,-1.674345 -1.674341,-1.640859 v 6.262051 6.262047 h 6.262052 6.262052 L 25.196829,84.317048 23.522487,82.642705 33.568551,72.596636 43.614619,62.550568 40.768242,59.704184 c -1.540403,-1.573886 -2.91337,-2.846387 -3.013825,-2.846387 -0.100457,0 -4.654675,4.487245 -10.113045,9.945606 z"
     id="path4698"
     style="stroke-width:0.0334869" />
  <path
     d="m 59.252996,59.637209 c -1.506908,1.506911 -2.74592,2.913359 -2.74592,3.147767 0,0.200922 4.453757,4.755142 9.912126,10.146528 l 9.945608,9.778175 -1.640862,1.640857 -1.607363,1.640857 h 6.262037 6.262054 v -6.262047 -6.262051 l -1.674344,1.640859 -1.674342,1.674345 -9.979103,-9.979096 c -5.458369,-5.458361 -10.012583,-9.945606 -10.113043,-9.945606 -0.100457,0 -1.406449,1.239016 -2.946848,2.779412 z"
     id="path4700"
     style="stroke-width:0.0334869" />
</svg>
