<?xml version="1.0" encoding="UTF-8" standalone="no"?>
<!-- Created with Inkscape (http://www.inkscape.org/) -->

<svg
   width="100mm"
   height="100mm"
   viewBox="0 0 100 100"
   version="1.1"
   id="svg26768"
   xmlns="http://www.w3.org/2000/svg"
   xmlns:svg="http://www.w3.org/2000/svg">
  <defs
     id="defs26765" />
  <path
     d="m 18.969,1.7845741 c -2.083243,0.5319017 -3.967026,2.0167614 -4.942159,3.9005438 l -0.59838,1.108115 -0.06648,42.9280901 -0.04433,42.928092 0.465405,1.285406 c 0.664865,1.728647 2.304863,3.368647 4.033512,4.01135 l 1.285404,0.487567 h 31.625395 31.625396 l 1.329729,-0.642703 c 1.529189,-0.709188 3.036214,-2.216216 3.723241,-3.745403 L 87.893296,93.00401 V 50.120241 7.2364672 L 87.317078,5.9953877 C 86.563566,4.3997121 85.189511,3.0256683 83.593837,2.2721495 L 82.352756,1.6959362 50.993308,1.6516091 c -17.242157,0 -31.647557,0.044327 -32.024313,0.1329792 z m 63.671871,3.1027134 c 0.952973,0.4875606 1.595674,1.1524267 2.17189,2.2383785 0.398918,0.7535041 0.421081,1.9502572 0.421081,32.578365 0,30.2735 -0.02217,31.869176 -0.398919,32.977283 -0.554053,1.551351 -2.238378,3.368646 -3.745403,4.055675 L 79.914926,77.26888 H 50.550071 21.185216 L 20.165757,76.759151 C 18.570081,75.961313 17.395487,74.831043 16.70846,73.434828 L 16.08792,72.171585 V 39.814846 7.4580991 l 0.531892,-0.8643348 c 0.288107,-0.4653974 0.997296,-1.1302635 1.551351,-1.4848597 l 0.997296,-0.6427029 h 31.315125 c 30.362151,0 31.359448,0.022163 32.157287,0.4210858 z M 18.570081,76.892123 c 2.304864,1.462704 0.487568,1.396217 32.556205,1.32973 l 29.010261,-0.06648 1.484864,-0.731352 c 1.01946,-0.487568 1.839459,-1.130269 2.615134,-1.994593 l 1.130271,-1.263243 -0.06648,9.086483 -0.0665,9.086485 -0.620541,1.063783 c -0.332431,0.576216 -1.041622,1.329728 -1.529187,1.662161 l -0.930812,0.598378 -31.027017,0.06648 c -21.940533,0.04433 -31.292962,0 -31.89134,-0.177297 -1.085946,-0.31027 -2.349188,-1.440541 -2.836756,-2.548648 -0.376757,-0.819999 -0.42108,-1.662161 -0.42108,-9.839996 v -8.953511 l 0.753514,0.997297 c 0.421081,0.554054 1.241082,1.307568 1.839459,1.684323 z"
     id="path4624"
     style="stroke-width:0.0221621" />
  <path
     d="m 29.939266,22.240251 v 4.033507 l 0.997298,-0.975135 0.997297,-0.975136 4.654051,4.631899 4.654054,4.654048 1.883783,-1.883782 c 1.04162,-1.019462 1.883782,-1.972435 1.883782,-2.1054 0,-0.132979 -2.038917,-2.260541 -4.543241,-4.764864 l -4.543243,-4.543247 1.041622,-1.041625 1.041622,-1.063774 h -4.033513 -4.033512 z"
     id="path4626"
     style="stroke-width:0.0221621" />
  <path
     d="m 64.179795,19.314843 1.108107,1.108115 -4.609727,4.609721 -4.587566,4.587573 1.928108,1.950272 1.950269,1.928094 4.587567,-4.587559 4.609727,-4.609721 1.108108,1.1081 1.108108,1.085953 V 22.351066 18.206742 H 67.238172 63.09385 Z"
     id="path4628"
     style="stroke-width:0.0221621" />
  <path
     d="m 36.543589,51.826727 -4.609728,4.609728 -0.997297,-0.997297 -0.997298,-0.975134 v 4.03351 4.033513 h 4.033512 4.033513 l -1.041622,-1.063783 -1.041622,-1.041621 4.543243,-4.543242 c 2.504324,-2.504323 4.543241,-4.63189 4.543241,-4.764862 0,-0.221622 -3.568107,-3.87838 -3.767565,-3.87838 -0.06648,0 -2.171892,2.061088 -4.698377,4.587568 z"
     id="path4630"
     style="stroke-width:0.0221621" />
  <path
     d="m 58.018717,49.167268 -1.928108,1.950271 4.587566,4.587566 4.609727,4.609727 -1.108107,1.108107 -1.085945,1.108108 h 4.144322 4.144324 v -4.144323 -4.144323 l -1.108108,1.085947 -1.108108,1.108107 -4.609727,-4.609728 -4.587567,-4.587568 z"
     id="path4632"
     style="stroke-width:0.0221621" />
  <path
     d="m 32.598724,83.363473 v 1.32973 h -1.329728 -1.32973 v 4.210809 4.210809 l 6.825944,-0.04433 6.803782,-0.06648 0.06648,-4.166486 0.04433,-4.144323 h -1.440533 -1.440541 v -1.329728 -1.32973 H 36.69873 32.598731 Z"
     id="path4634"
     style="stroke-width:0.0221621" />
  <path
     d="m 60.301418,83.363473 v 1.32973 H 58.97169 57.64196 v 4.210809 4.210809 l 6.825943,-0.04433 6.803783,-0.06648 0.06648,-4.166484 0.04433,-4.144323 H 69.941962 68.501421 V 83.36347 82.03374 h -4.1 -4.099998 z"
     id="path4636"
     style="stroke-width:0.0221621" />
</svg>
