<?xml version="1.0" encoding="UTF-8" standalone="no"?>
<!-- Created with Inkscape (http://www.inkscape.org/) -->

<svg
   width="100mm"
   height="100mm"
   viewBox="0 0 100 100"
   version="1.1"
   id="svg26768"
   xmlns="http://www.w3.org/2000/svg"
   xmlns:svg="http://www.w3.org/2000/svg">
  <defs
     id="defs26765" />
  <path
     d="m 15.711373,2.2289751 c -1.274031,0.637016 -1.762408,1.7199361 -1.762408,3.949492 v 1.7199362 l -2.123385,0.084946 -2.1233828,0.063739 -0.785653,0.8068853 -0.806884,0.7856548 -0.06371,42.8498826 c -0.04246,42.446449 -0.04246,42.828662 0.382209,43.529381 0.233572,0.382201 0.721951,0.870589 1.10416,1.104163 0.7007168,0.424673 1.0404578,0.424673 35.5242128,0.3822 l 34.823497,-0.06375 1.868586,-0.594554 c 4.268,-1.337724 7.686641,-3.843327 10.022375,-7.368146 3.291236,-4.947489 3.864546,-11.508736 1.507596,-16.838427 -1.295266,-2.930275 -4.183068,-6.412621 -6.54002,-7.898995 L 85.71934,64.10437 V 34.037267 3.9701419 L 85.230966,3.2481912 c -0.254804,-0.4034426 -0.806885,-0.89182 -1.210328,-1.08292 -0.700719,-0.3609813 -2.760394,-0.382212 -34.080318,-0.382212 -33.337127,0 -33.337127,0 -34.228947,0.4459159 z M 82.746607,33.867397 c 0,23.038706 -0.06375,28.878015 -0.254805,28.79308 -0.148639,-0.06373 -0.828116,-0.233561 -1.486374,-0.382212 L 79.773869,62.00223 V 36.24558 c 0,-28.7293887 0.08495,-26.9669794 -1.465131,-27.9225035 L 77.544313,7.8346993 47.243624,7.7709597 16.921702,7.7285457 V 6.3483483 4.968151 h 32.912452 32.912453 z m -5.945475,2.399426 v 25.331965 l -1.889818,0.254804 c -2.144609,0.276047 -4.310461,0.89182 -5.796835,1.635001 -0.552071,0.276047 -1.06169,0.509619 -1.104163,0.509619 -0.06373,0 -0.127396,-2.696701 -0.16987,-6.009177 l -0.06373,-6.03041 -0.573312,-0.743181 c -1.167866,-1.550079 0.36097,-1.443901 -23.357229,-1.443901 H 22.54867 l -0.849353,0.488377 c -0.55208,0.297277 -1.019226,0.785654 -1.316499,1.42267 l -0.488378,0.934282 v 13.610897 13.610898 l 0.488378,0.93428 c 0.339741,0.700708 0.721951,1.082921 1.422667,1.422672 l 0.93429,0.488377 h 18.17617 18.176167 l 0.382209,1.486362 c 0.849354,3.35495 3.439882,7.389377 5.924239,9.321655 0.658247,0.509608 1.210327,0.955524 1.210327,0.997997 0,0.04254 -12.506728,0.08495 -27.816328,0.08495 H 10.976226 V 52.744292 10.913626 h 32.912451 32.912455 z m -41.873134,33.613161 -0.06371,9.725097 -5.818074,0.06373 c -4.522808,0.04254 -5.86054,-0.02121 -6.009176,-0.21233 -0.08494,-0.14864 -0.16987,-4.544047 -0.16987,-9.788802 v -9.49153 h 6.051643 6.051646 z m 14.906156,0.06373 v 9.767571 H 43.888677 37.943206 V 69.94372 60.176149 h 5.945471 5.945477 z M 64.69784,63.31875 v 3.142607 l -0.764413,0.743193 c -2.633002,2.50559 -4.607746,6.794833 -4.926255,10.616917 l -0.148635,1.78364 -3.015209,0.06373 -3.036438,0.06375 v -9.788802 -9.767571 h 5.945478 5.945472 z m 15.60688,1.868587 c 4.947477,1.210327 9.024377,5.01118 10.659379,9.95867 0.509619,1.507605 0.573312,2.038445 0.573312,4.565278 0,2.590525 -0.04241,3.036429 -0.594544,4.565266 -1.741166,5.074896 -5.542031,8.578473 -10.616917,9.873747 C 76.907298,95.020876 73.361248,94.596202 70.006298,92.9612 66.65135,91.304956 63.890955,88.18358 62.659394,84.616301 61.236726,80.5394 61.576471,76.44127 63.678624,72.428074 64.634148,70.5595 67.734281,67.523058 69.687802,66.50383 73.063971,64.741421 76.673735,64.295516 80.30472,65.187337 Z"
     id="path7968"
     style="stroke-width:0.021234" />
  <path
     d="m 49.876622,24.715612 c -0.997992,0.615773 -1.550071,1.61377 -1.486372,2.717933 0.0425,0.89182 -0.02124,0.976754 -4.183063,5.881771 -4.501575,5.308458 -4.225537,5.074885 -5.966706,5.053655 -0.127406,0 -1.953516,-1.295263 -4.055667,-2.887803 -3.737156,-2.802869 -3.82209,-2.887802 -3.949494,-3.758393 -0.148636,-1.104162 -0.99799,-2.038443 -2.10215,-2.335721 -2.654229,-0.72195 -4.777614,2.272017 -3.248777,4.607739 0.509612,0.764423 2.038449,1.40144 2.972737,1.210328 0.700717,-0.127396 0.955522,0.02121 4.671444,2.802868 3.588522,2.675471 3.92826,2.99398 3.92826,3.588523 0,1.550066 1.592542,2.802868 3.333712,2.590525 1.550072,-0.169869 2.6967,-1.571297 2.590529,-3.142607 -0.06371,-0.806886 0.08494,-1.019228 4.161836,-5.818066 3.907026,-4.586521 4.310469,-4.989963 4.926248,-4.989963 0.382209,0 0.934288,-0.106147 1.231562,-0.254803 0.467143,-0.212331 0.934293,-0.06375 4.140602,1.295261 2.951502,1.274033 3.60975,1.635014 3.60975,1.974752 0,0.233574 0.36098,0.806886 0.828124,1.252802 0.764419,0.764412 0.913053,0.828115 2.038446,0.828115 1.125392,0 1.274031,-0.06373 2.038444,-0.828115 0.743192,-0.743193 0.828127,-0.913062 0.828127,-1.932279 0,-1.443901 -0.573323,-2.399425 -1.698705,-2.845341 -1.061701,-0.424673 -1.550078,-0.424673 -2.335723,-0.02121 -0.615784,0.318508 -0.74319,0.276035 -4.204302,-1.189097 C 54.463132,27.030111 54.356962,26.966419 53.953518,26.117061 53.1891,24.460817 51.34176,23.8238 49.876622,24.715632 Z"
     id="path7970"
     style="stroke-width:0.021234" />
  <path
     d="m 74.890084,76.059031 v 6.094114 l 2.866572,2.866571 2.86656,2.84533 1.061701,-1.040446 1.06169,-1.040471 -2.441887,-2.463118 -2.441899,-2.441898 v -5.478328 -5.457098 h -1.486363 -1.486374 z"
     id="path7972"
     style="stroke-width:0.021234" />
</svg>
