<?xml version="1.0" encoding="UTF-8" standalone="no"?>
<!-- Created with Inkscape (http://www.inkscape.org/) -->

<svg
   width="100mm"
   height="100mm"
   viewBox="0 0 100 100"
   version="1.1"
   id="svg26768"
   xmlns="http://www.w3.org/2000/svg"
   xmlns:svg="http://www.w3.org/2000/svg">
  <defs
     id="defs26765" />
  <path
     d="m 23.461094,1.570837 c -2.346357,0.5586533 -4.558622,2.3686893 -5.675919,4.6256476 l -0.625687,1.2737294 -0.111707,31.843225 -0.111692,31.843227 -5.541841,0.06703 -5.5418389,0.04469 0.067032,11.463561 c 0.067033,11.396527 0.067033,11.441218 0.5809999,12.379756 0.7821141,1.497191 1.7653427,2.458075 3.2178437,3.195497 l 1.3631123,0.670383 h 33.675617 c 38.368281,0 34.926994,0.178768 37.116905,-1.988805 2.301652,-2.323997 2.100541,1.139651 2.167574,-35.619722 l 0.04473,-32.111379 h 5.586533 5.586542 v -9.675873 c 0,-5.564185 -0.111693,-10.25687 -0.223469,-11.0836768 C 94.633586,6.0400545 93.315167,4.0065567 91.281677,2.6881359 89.047071,1.2579842 90.767714,1.3250223 55.930108,1.3473686 38.477788,1.3697215 23.930453,1.4590944 23.461184,1.5708292 Z m 65.54118,3.0167271 c 1.273715,0.5809998 2.793264,2.2346119 3.106115,3.3519186 0.156416,0.5586533 0.245799,4.1340333 0.245799,9.7429093 V 26.57615 H 63.080763 33.807337 v -8.446835 c 0,-5.050223 -0.08934,-8.9831424 -0.245793,-9.7876027 C 33.427466,7.6266364 32.980537,6.3976001 32.555962,5.615485 32.131385,4.8557176 31.796195,4.1629868 31.796195,4.0959488 c 0,-0.044693 12.647905,-0.067033 28.111424,-0.044693 27.977346,0.067033 28.089072,0.067033 29.094655,0.5363083 z M 27.66216,4.6545971 c 1.139651,0.5139618 2.636843,2.1899203 2.972033,3.3295721 0.20111,0.6256914 0.268157,3.9105728 0.268157,11.0836788 v 10.189831 h 25.139381 25.139392 v 31.887919 31.887917 l -0.469268,0.983229 c -0.290499,0.580999 -0.849153,1.206691 -1.385454,1.564228 l -0.916198,0.603346 -29.966147,0.06703 -29.9885,0.04469 0.580994,-1.161998 0.581007,-1.184345 0.111706,-42.792826 0.111707,-42.7928269 0.491609,-1.0279209 c 0.603347,-1.2066956 1.452499,-2.0558489 2.636841,-2.6368473 1.184342,-0.603345 3.463653,-0.603345 4.692688,-0.044693 z"
     id="path4638"
     style="stroke-width:0.0223462" />
  <path
     d="m 30.90235,39.089978 v 1.340767 H 50.45521 70.00807 V 39.089978 37.749212 H 50.45521 30.90235 Z"
     id="path4640"
     style="stroke-width:0.0223462" />
  <path
     d="m 30.90235,50.263039 v 1.340768 H 46.321176 61.740002 V 50.263039 48.922273 H 46.321176 30.90235 Z"
     id="path4642"
     style="stroke-width:0.0223462" />
  <path
     d="M 30.90235,61.436102 V 62.77687 H 50.45521 70.00807 V 61.436102 60.095333 H 50.45521 30.90235 Z"
     id="path4644"
     style="stroke-width:0.0223462" />
  <path
     d="m 30.90235,72.609163 v 1.340768 H 46.321176 61.740002 V 72.609163 71.268396 H 46.321176 30.90235 Z"
     id="path4646"
     style="stroke-width:0.0223462" />
  <path
     d="m 30.90235,83.782225 v 1.340766 H 50.45521 70.00807 V 83.782225 82.441457 H 50.45521 30.90235 Z"
     id="path4648"
     style="stroke-width:0.0223462" />
</svg>
