<?xml version="1.0" encoding="UTF-8" standalone="no"?>
<!-- Created with Inkscape (http://www.inkscape.org/) -->

<svg
   width="100mm"
   height="100mm"
   viewBox="0 0 100 100"
   version="1.1"
   id="svg26768"
   xmlns="http://www.w3.org/2000/svg"
   xmlns:svg="http://www.w3.org/2000/svg">
  <defs
     id="defs26765" />
  <path
     d="M 36.360442,1.8876046 C 21.88482,3.4075495 9.4116602,13.419848 4.8277138,27.244067 3.3077734,31.779761 3.0906385,33.275575 3.0906385,39.041696 c 0,4.559821 0.072374,5.500737 0.5548995,7.696206 3.3293925,14.789258 14.451495,25.814858 29.337258,29.023621 2.050713,0.434268 3.208763,0.530773 7.261937,0.530773 4.053175,0 5.211224,-0.0965 7.261936,-0.530773 5.066468,-1.085672 9.746918,-3.088132 13.944849,-5.935005 l 2.267846,-1.544065 1.35106,1.375182 1.375183,1.375185 -0.24126,1.085671 c -0.289514,1.254554 -0.04825,2.509108 0.651403,3.643032 0.289511,0.434268 5.307727,5.573113 11.194479,11.435739 9.095516,9.047264 10.832588,10.663709 11.677004,10.904969 3.112251,0.892664 5.741995,-0.772033 6.224512,-3.932545 0.313637,-2.171343 0.19301,-2.316098 -11.556367,-14.210233 -7.479072,-7.55145 -11.146229,-11.097977 -11.74938,-11.363362 -1.03742,-0.410144 -2.291973,-0.458396 -3.232889,-0.120641 -0.627277,0.241261 -0.772033,0.168882 -2.00246,-1.061546 l -1.326932,-1.32693 1.447561,-1.519942 C 72.597745,59.259309 75.999516,52.286884 77.205819,44.711309 77.712465,41.430168 77.519458,34.288862 76.819802,31.273108 75.661753,26.254892 73.514535,21.405559 70.691788,17.400638 68.713454,14.626143 64.684407,10.62122 61.837535,8.5946392 54.479093,3.3834167 45.262949,0.946689 36.360442,1.8876046 Z m 9.79517,3.7636628 c 6.682911,1.1339255 13.100436,4.4874366 17.973896,9.3850246 5.018215,5.04234 7.937464,10.446572 9.457404,17.491376 0.627279,2.919249 0.603152,10.350069 -0.02414,13.26932 -1.471687,6.779415 -4.511568,12.352529 -9.409154,17.274241 -4.921711,4.92171 -10.205312,7.768582 -17.225988,9.312649 -3.329392,0.747907 -9.988178,0.747907 -13.365824,0 C 21.257529,69.681762 11.534737,60.899885 7.8434538,49.174633 6.6854043,45.435097 6.4682683,43.89103 6.4682683,39.041696 c 0,-3.401771 0.096505,-4.945836 0.4342688,-6.514028 C 8.3018479,25.965386 11.486483,19.98213 15.998052,15.398183 23.98377,7.2677042 34.936991,3.7453033 46.155596,5.6512674 Z"
     id="path7996"
     style="stroke-width:0.024126" />
  <path
     d="m 25.117709,14.529646 c -4.632198,2.774493 -8.75775,7.35844 -11.073849,12.304278 -1.568193,3.377645 -2.629741,7.647953 -2.629741,10.687834 v 1.519938 h 0.820287 0.796159 l 0.144755,-2.24372 C 13.681968,28.788133 18.410672,20.923044 25.431347,16.38735 l 2.098965,-1.375184 -0.337764,-0.651404 C 26.999539,13.998873 26.75828,13.70936 26.661775,13.70936 c -0.120627,0 -0.796159,0.36189 -1.544066,0.820286 z"
     id="path7998"
     style="stroke-width:0.024126" />
  <path
     d="m 38.459406,28.112605 0.02412,11.773503 5.983256,5.669618 c 3.305268,3.112259 6.103887,5.669618 6.200391,5.669618 0.09651,0 0.675529,-0.530773 1.278681,-1.158048 L 53.007399,48.885119 51.463334,47.41343 C 50.594796,46.593146 48.133941,44.204668 45.986723,42.129829 L 42.054184,38.366168 V 27.364697 16.363224 h -1.809451 -1.809454 z"
     id="path8000"
     style="stroke-width:0.024126" />
</svg>
