<?xml version="1.0" encoding="UTF-8" standalone="no"?>
<!-- Created with Inkscape (http://www.inkscape.org/) -->

<svg
   width="100mm"
   height="100mm"
   viewBox="0 0 100 100"
   version="1.1"
   id="svg26768"
   xmlns="http://www.w3.org/2000/svg"
   xmlns:svg="http://www.w3.org/2000/svg">
  <defs
     id="defs26765" />
  <path
     d="m 21.852838,1.8675232 c -2.345894,0.553281 -4.448346,2.3016294 -5.554899,4.6253977 l -0.686064,1.4385246 -0.110658,31.4261235 -0.110658,31.426132 -5.4663746,0.06639 -5.488507,0.04426 v 10.799964 c 0,12.061438 0,12.149962 1.482783,14.075366 0.486882,0.619669 1.349994,1.372127 2.058189,1.770485 l 1.217209,0.686064 33.5285796,0.06639 c 30.186789,0.04426 33.617106,0.02213 34.568743,-0.309834 1.43852,-0.464755 3.29753,-2.190978 3.961463,-3.67376 l 0.531145,-1.172949 0.06639,-11.131932 0.06639,-11.1098 h -1.460642 -1.43852 v 10.844227 c 0,10.224557 -0.02213,10.910621 -0.42049,11.685208 -0.509015,1.01803 -1.018029,1.482782 -2.080322,1.925405 -0.708194,0.287704 -4.249166,0.331964 -30.23105,0.331964 H 16.85122 l 0.59754,-1.062291 0.59754,-1.04016 0.110659,-42.491667 c 0.110658,-38.308876 0.154917,-42.5580444 0.464754,-43.2662374 1.6377,-3.607371 6.285225,-4.5147433 9.029479,-1.7483583 1.593437,1.5712975 1.571307,1.3278603 1.571307,12.8581567 v 10.357337 h 24.89746 24.897462 v 5.53277 5.53277 h 1.43852 1.43852 v -5.53277 -5.53277 h 5.532769 5.532767 V 19.262557 c 0,-10.8663624 -0.0664,-11.5524163 -1.23934,-13.5663508 C 90.923937,4.3462235 89.175581,2.8413023 87.692799,2.2437636 L 86.431327,1.7347503 54.562576,1.6904117 c -18.081089,0 -32.222848,0.066407 -32.709731,0.1770507 z m 63.604715,2.633602 c 1.659831,0.3098338 3.031958,1.2393451 3.850808,2.5229479 l 0.663936,1.0844231 0.0664,9.2729148 0.0664,9.250795 h -29.01386 -28.99171 v -8.697514 c 0,-9.5606298 -0.08853,-10.3794768 -1.327865,-12.3934013 C 30.395434,4.9437521 30.10773,4.4347388 30.10773,4.3683321 c 0,-0.1991795 54.199008,-0.088475 55.349823,0.1327931 z"
     id="path5534"
     style="stroke-width:0.022131" />
  <path
     d="m 41.726545,47.214104 1.305735,1.327865 H 69.323998 95.615717 V 47.214104 45.88624 H 68.018265 40.420812 Z"
     id="path5586"
     style="stroke-width:0.022131" />
  <path
     d="m 41.726545,55.623913 1.305735,1.327865 H 69.323998 95.615717 V 55.623913 54.29605 H 68.018265 40.420812 Z"
     id="path5588"
     style="stroke-width:0.022131" />
  <path
     d="m 41.726545,63.812412 1.305735,1.327865 H 69.323998 95.615717 V 63.812412 62.484547 H 68.018265 40.420812 Z"
     id="path5590"
     style="stroke-width:0.022131" />
</svg>
