<?xml version="1.0" encoding="UTF-8" standalone="no"?>
<!-- Created with Inkscape (http://www.inkscape.org/) -->

<svg
   width="100mm"
   height="100mm"
   viewBox="0 0 100 100"
   version="1.1"
   id="svg26768"
   xmlns="http://www.w3.org/2000/svg"
   xmlns:svg="http://www.w3.org/2000/svg">
  <defs
     id="defs26765" />
  <path
     d="m 20.248973,2.2002959 c -1.301005,0.639844 -1.599601,1.3010164 -1.727576,3.6257813 l -0.106643,2.0688277 -2.196793,0.1066384 -2.218129,0.1066383 -0.725149,0.789141 -0.725158,0.8104687 0.04257,43.2747607 0.06396,43.296088 0.639848,0.661175 c 0.341241,0.341242 0.981089,0.746477 1.407651,0.853125 0.511872,0.149292 12.519609,0.191948 34.252968,0.170621 33.015927,-0.06396 33.442488,-0.06396 34.167647,-0.490545 1.15171,-0.682503 1.514289,-1.59961 1.514289,-3.775084 v -1.876869 h 1.919534 c 2.21812,0 2.985933,-0.277269 3.625781,-1.343668 0.426562,-0.661176 0.426562,-1.407661 0.426562,-43.573356 V 4.0131866 L 90.141134,3.3093589 C 89.863865,2.9254522 89.309338,2.4349056 88.904103,2.2216245 88.200273,1.8377189 86.856605,1.8163903 54.565826,1.8163903 c -31.565611,0 -33.634448,0.021327 -34.316951,0.3839056 z M 87.517866,46.925365 V 88.941767 H 86.024905 84.531934 L 84.425295,49.27146 C 84.297329,5.3142018 84.446585,9.0039697 82.889669,8.1935011 82.121855,7.8095944 81.247404,7.7882668 51.793265,7.7882668 H 21.50734 V 6.2952953 4.8023266 l 33.015928,0.042655 32.994598,0.063983 z m -5.865228,5.971876 v 42.12304 H 48.594047 15.535463 V 52.897241 10.7742 h 33.058584 33.058591 z"
     id="path6626"
     style="stroke-width:0.0213281" />
  <path
     d="m 58.511627,25.383964 c -1.002416,0.5332 -9.277734,8.893826 -9.277734,9.363044 0,0.234614 0.170631,0.597193 0.36258,0.810468 0.341252,0.383908 0.319923,0.426563 -0.170622,0.917107 l -0.511882,0.53321 -2.410077,-2.410079 c -2.303431,-2.30344 -2.388741,-2.431405 -2.175465,-3.00727 1.301013,-3.433823 -2.474061,-7.294218 -5.95054,-6.078514 l -0.70383,0.25594 1.407651,1.407662 c 0.810469,0.810469 1.407661,1.5996 1.407661,1.85554 0,0.469218 -1.450315,2.004845 -1.898205,2.004845 -0.149293,0 -0.938445,-0.639848 -1.748903,-1.428979 -0.810469,-0.767814 -1.535627,-1.343678 -1.620938,-1.258368 -0.08534,0.06396 -0.191958,0.70383 -0.234613,1.407661 -0.234613,3.241875 2.708674,5.822574 5.865239,5.118753 l 1.002417,-0.234613 2.410078,2.410077 2.410078,2.410078 -3.241874,3.241875 c -2.793986,2.815312 -3.28453,3.199218 -3.647109,3.028589 -0.810469,-0.44789 -1.301014,-0.04267 -2.644682,2.154147 -0.746495,1.173037 -1.343678,2.218119 -1.343678,2.30343 0,0.277269 0.938434,1.109065 1.23703,1.109065 0.44789,0 4.436251,-2.687348 4.585544,-3.071254 0.08534,-0.213277 0.04257,-0.575856 -0.08535,-0.810469 -0.213276,-0.405235 0.08535,-0.767803 3.028589,-3.711091 l 3.284539,-3.28453 2.410079,2.410079 c 1.898196,1.876877 2.388741,2.474061 2.282102,2.815312 -0.554527,1.85555 -0.255931,3.45516 0.917116,4.820157 1.002418,1.15172 2.154138,1.68492 3.775075,1.68492 2.090155,0 2.13281,-0.213277 0.490545,-1.834215 -0.810469,-0.789139 -1.450317,-1.578281 -1.450317,-1.770239 0,-0.426562 1.492972,-1.940861 1.919534,-1.940861 0.170631,0 0.959762,0.639848 1.748903,1.428989 0.78914,0.78914 1.514299,1.364996 1.599619,1.279685 0.277259,-0.298596 0.319914,-2.666009 0.06396,-3.476478 -0.426571,-1.279696 -1.770239,-2.580709 -3.135236,-3.00727 -0.981089,-0.298597 -1.322351,-0.319924 -2.367422,-0.106644 l -1.215704,0.255941 -2.388751,-2.38875 -2.410077,-2.410079 0.533199,-0.511882 c 0.490555,-0.490544 0.53321,-0.511872 0.917116,-0.17062 0.213277,0.191949 0.533201,0.362578 0.703822,0.362578 0.511882,0 9.491019,-9.192423 9.66165,-9.853588 0.426552,-1.791568 -1.770241,-3.476487 -3.391178,-2.623364 z"
     id="path6628"
     style="stroke-width:0.0213281" />
  <path
     d="m 29.441406,63.220058 c -2.943288,1.023744 -4.201647,4.116325 -2.793986,6.888972 0.533201,1.066411 1.855541,1.791568 4.692181,2.623364 2.730002,0.810469 3.391178,1.194375 3.391178,1.940852 0,1.834222 -2.324768,2.30344 -5.097425,1.023754 -0.639848,-0.277258 -1.364997,-0.70383 -1.578283,-0.895779 -0.383906,-0.341251 -0.447889,-0.298596 -1.450316,0.810469 -0.554527,0.639848 -1.023744,1.258359 -1.045072,1.386324 0,0.383907 2.047499,1.620936 3.433823,2.068836 1.812885,0.575856 4.585553,0.639838 6.078514,0.106644 3.049927,-1.066411 4.286958,-5.033443 2.282113,-7.400856 -0.725158,-0.874451 -2.068826,-1.535627 -4.713519,-2.303441 -2.516715,-0.725157 -3.028588,-1.087736 -3.028588,-2.090163 0,-1.578272 2.260776,-1.876869 4.841484,-0.639839 l 1.5143,0.725159 0.917106,-1.279686 c 0.874452,-1.258358 0.895779,-1.301023 0.490544,-1.59961 -2.111482,-1.59961 -5.566642,-2.175474 -7.934054,-1.364995 z"
     id="path6630"
     style="stroke-width:0.0213281" />
  <path
     d="m 40.382722,63.305367 c -0.06396,0.127966 -0.08535,3.81773 -0.06396,8.147341 l 0.06396,7.891401 2.772657,0.06396 c 5.225391,0.106643 7.976721,-0.575856 9.896255,-2.495389 3.092571,-3.092581 3.071243,-8.616558 -0.06396,-11.495854 -2.026171,-1.876878 -3.945704,-2.388751 -9.043129,-2.388751 -2.5807,0 -3.497815,0.06396 -3.561799,0.277269 z m 8.765862,3.583116 c 1.492971,0.767814 2.282112,2.111483 2.388749,4.052343 0.08535,1.258359 0,1.642265 -0.469217,2.623364 -0.725157,1.492963 -1.770239,2.218121 -3.604453,2.49539 -0.746485,0.127975 -1.855551,0.191958 -2.410077,0.149293 l -1.045083,-0.06396 -0.06396,-4.692181 c -0.02139,-2.580709 0,-4.820157 0.06396,-4.96945 0.08535,-0.234613 0.533209,-0.27727 2.111482,-0.213286 1.599609,0.06396 2.196803,0.191948 3.028599,0.61851 z"
     id="path6632"
     style="stroke-width:0.0213281" />
  <path
     d="m 57.765142,71.239423 v 8.211334 h 1.706247 1.706248 v -2.516726 -2.516716 l 1.023755,-1.002427 1.002416,-1.002418 2.452744,3.519144 2.452733,3.497805 2.196793,0.02139 H 72.50287 L 72.033652,78.746977 C 71.756393,78.384399 70.37006,76.486193 68.962409,74.545341 67.533421,72.60448 66.211079,70.770257 65.997793,70.450334 l -0.383906,-0.575856 3.369849,-3.433822 3.348513,-3.412506 H 70.11412 67.874672 l -3.284529,3.54047 -3.305858,3.540471 -0.06396,-3.540471 -0.04267,-3.54047 h -1.706248 -1.706248 z"
     id="path6634"
     style="stroke-width:0.0213281" />
</svg>
