<?xml version="1.0" encoding="UTF-8" standalone="no"?>
<!-- Created with Inkscape (http://www.inkscape.org/) -->

<svg
   width="100mm"
   height="100mm"
   viewBox="0 0 100 100"
   version="1.1"
   id="svg26768"
   sodipodi:docname="a search head cluster.svg"
   inkscape:version="1.1.1 (3bf5ae0d25, 2021-09-20)"
   xmlns:inkscape="http://www.inkscape.org/namespaces/inkscape"
   xmlns:sodipodi="http://sodipodi.sourceforge.net/DTD/sodipodi-0.dtd"
   xmlns="http://www.w3.org/2000/svg"
   xmlns:svg="http://www.w3.org/2000/svg">
  <sodipodi:namedview
     id="namedview26770"
     pagecolor="#ffffff"
     bordercolor="#666666"
     borderopacity="1.0"
     inkscape:pageshadow="2"
     inkscape:pageopacity="0.0"
     inkscape:pagecheckerboard="0"
     inkscape:document-units="mm"
     showgrid="false"
     width="209mm"
     inkscape:zoom="0.7500982"
     inkscape:cx="13.998167"
     inkscape:cy="135.31562"
     inkscape:window-width="1920"
     inkscape:window-height="1027"
     inkscape:window-x="1912"
     inkscape:window-y="-8"
     inkscape:window-maximized="1"
     inkscape:current-layer="layer1" />
  <defs
     id="defs26765" />
  <g
     inkscape:label="Layer 1"
     inkscape:groupmode="layer"
     id="layer1">
    <path
       d="m 34.359151,3.1467224 c -0.679983,0.3399911 -1.296216,0.8712273 -1.678705,1.4237124 l -0.616234,0.8712261 -0.106239,14.0458731 -0.106253,14.045872 -6.374828,9.923485 -6.37483,9.923484 -5.439854,0.06373 -5.4398541,0.06373 -1.0199721,0.637485 c -0.7649784,0.467488 -1.2112183,0.956226 -1.6362073,1.784953 l -0.5949832,1.147467 0.042487,19.166988 0.063731,19.145735 0.5949852,0.892475 c 0.3187404,0.488739 0.9774723,1.147471 1.46621,1.46621 l 0.8924768,0.594987 14.4496107,0.06371 c 10.07223,0.04251 14.704605,0 15.278339,-0.169998 1.041222,-0.297488 2.252439,-1.381207 2.719927,-2.443677 0.361241,-0.78623 0.403739,-1.636207 0.403739,-11.113452 V 74.438493 h 9.031006 9.031007 V 84.63822 c 0,11.134701 0,11.092201 1.232467,12.409666 0.318741,0.33999 0.956226,0.786227 1.423712,0.998716 0.807477,0.361243 1.678706,0.403743 15.108345,0.403743 10.114728,0 14.47086,-0.06371 14.980846,-0.233744 1.189972,-0.403743 2.124944,-1.253713 2.656181,-2.401183 L 94.856245,94.73174 V 76.138513 c 0,-12.452165 -0.08502,-18.869494 -0.233743,-19.400728 C 94.346261,55.73906 93.198791,54.421597 92.13632,53.91161 91.456339,53.550369 90.648862,53.486623 85.952738,53.401625 L 80.534161,53.29538 74.201832,43.414395 67.89075,33.533411 67.827006,19.721281 67.763262,5.9091518 67.232028,4.952927 C 66.934534,4.4429408 66.275802,3.7204607 65.787067,3.3592196 L 64.85209,2.7217369 50.168736,2.6579929 35.46413,2.615493 Z m 29.919196,2.8474235 0.509986,0.4037389 0.06374,15.5333362 0.04249,15.55458 -0.509986,0.509988 -0.531236,0.531234 H 49.956232 c -13.748381,0 -13.918377,0 -14.470862,-0.446237 L 34.932884,37.655797 V 22.101214 6.5678809 l 0.467487,-0.4887374 0.44624,-0.4887375 h 13.982125 c 13.429638,0 13.982124,0.021255 14.449611,0.4037399 z M 32.425452,45.008099 c 0.488739,0.892476 1.402462,1.721205 2.337439,2.103693 0.70123,0.297491 2.634928,0.339991 15.002097,0.339991 10.072227,0 14.428361,-0.06373 14.938346,-0.233743 2.146194,-0.722481 2.974921,-2.124942 3.144917,-5.291109 l 0.127492,-2.23119 4.589877,6.799818 4.589876,6.799817 -7.564797,0.106253 -7.564796,0.106239 -0.998724,0.594986 c -0.658732,0.382488 -1.211218,0.934974 -1.593708,1.593706 l -0.594984,0.998724 -0.06373,7.3948 -0.06374,7.373552 -8.861011,-0.04249 -8.861012,-0.06373 -0.106252,-7.437301 c -0.10624,-8.117281 -0.10624,-8.032284 -1.423713,-9.286 -1.253716,-1.189968 -1.529957,-1.232468 -9.540993,-1.232468 -4.037391,0 -7.309805,-0.08499 -7.267305,-0.169996 0.04249,-0.106251 2.124943,-3.229911 4.632376,-6.948562 l 4.568627,-6.757319 0.106253,2.422435 c 0.06374,1.699956 0.212494,2.61368 0.467487,3.059918 z m 17.488281,-5.099863 c 7.607295,0 14.067122,-0.06373 14.407113,-0.169996 l 0.573736,-0.148745 v 1.699954 c 0,1.784951 -0.318743,2.804925 -0.956225,3.059918 -0.191245,0.06373 -6.544825,0.127493 -14.109621,0.127493 -16.42581,0 -14.895852,0.297492 -14.895852,-2.889922 v -1.997447 l 0.594985,0.148746 c 0.318742,0.106252 6.799818,0.169996 14.385864,0.169996 z M 37.376569,56.90778 37.907804,57.417766 V 72.92985 88.441933 l -0.552484,0.424989 c -0.552486,0.446237 -0.722482,0.446237 -14.470861,0.446237 H 8.9873323 L 8.4773467,88.781923 7.9461112,88.271937 V 72.844852 57.417766 L 8.4773467,56.90778 8.9873323,56.376545 H 22.926957 36.866583 Z m 53.739808,-0.08499 0.552485,0.424986 v 15.618336 c 0,15.320837 0,15.597079 -0.424989,16.022068 -0.424988,0.424987 -0.701231,0.424987 -14.364614,0.424987 -8.669768,0 -14.067123,-0.085 -14.322116,-0.212493 -0.212495,-0.106244 -0.488737,-0.509991 -0.616233,-0.871231 -0.318742,-0.913727 -0.339991,-29.876699 -0.02124,-30.705425 0.446237,-1.16872 -0.127492,-1.12622 14.789603,-1.147469 13.684632,0 13.854628,0 14.407112,0.446238 z m -68.18942,33.977835 c 9.349751,0 14.300867,-0.085 14.57711,-0.212495 0.382489,-0.212493 0.403737,-0.148746 0.403737,1.806201 0,3.187416 1.678706,2.868673 -14.959596,2.868673 H 8.8173371 L 8.3923491,94.710513 C 8.0098589,94.221779 7.9461112,93.839288 7.9461112,92.245581 c 0,-1.806202 0.021254,-1.869949 0.403737,-1.657456 0.2762427,0.127493 5.2273598,0.212495 14.5771088,0.212495 z m 68.741905,1.699954 c 0,1.296216 -0.085,1.954949 -0.339991,2.294938 l -0.318742,0.467487 H 76.81551 c -16.638303,0 -14.959597,0.297492 -15.065846,-2.741176 l -0.085,-1.827451 h 15.002098 15.002097 z"
       id="path6643"
       style="stroke-width:0.0212494" />
    <path
       d="m 44.388881,11.816489 c -2.167442,0.722482 -3.442408,1.699955 -4.611127,3.46366 L 38.88528,16.64011 h -1.338715 -1.338714 v 0.849977 0.84998 h 1.12622 1.104971 v 1.487459 1.48746 h -1.211218 -1.232467 v 0.743731 0.743728 h 1.444962 1.444961 l 0.361239,0.764981 c 0.573735,1.189967 2.358687,2.932421 3.697401,3.612403 1.126219,0.573734 1.423712,0.616233 3.484907,0.616233 2.188691,0 2.316187,-0.02125 3.761149,-0.76498 1.593707,-0.828728 1.763703,-0.807478 2.018696,0.233744 0.08499,0.297493 1.317464,1.721204 2.783673,3.166164 2.698679,2.698679 3.251164,3.017419 4.058643,2.358688 0.786227,-0.658733 0.403738,-1.296216 -2.401185,-4.10114 C 54.8861,26.946085 53.78113,25.98986 53.504887,25.98986 c -0.934976,0 -0.998723,-0.509986 -0.191245,-1.699955 0.403738,-0.594983 0.743731,-1.189968 0.743731,-1.296214 0,-0.106252 1.338714,-0.191246 2.974919,-0.191246 h 2.974921 v -0.743728 -0.743731 h -2.67743 -2.677427 l 0.106253,-0.807478 c 0.403728,-3.187415 -1.763712,-6.842316 -4.86613,-8.266029 -1.44496,-0.658734 -4.164887,-0.871227 -5.503603,-0.42499 z m 4.079891,1.52996 c 1.274965,0.382491 2.826174,1.50871 3.463656,2.549932 l 0.467488,0.76498 -0.552485,0.509987 c -0.956225,0.892476 -0.552485,2.273687 0.743731,2.54993 0.637483,0.148746 0.658733,0.169996 0.531234,1.019973 -0.509985,3.166165 -2.996169,5.418604 -6.204832,5.6311 -2.231191,0.148745 -3.463658,-0.318742 -5.099862,-1.954949 -1.636207,-1.636207 -2.103694,-2.868673 -1.954949,-5.099861 0.297492,-4.377383 4.398632,-7.224808 8.606019,-5.971092 z"
       id="path6645"
       style="stroke-width:0.0212494" />
    <path
       d="m 43.220162,16.788858 c -0.658731,0.233744 -1.062471,0.786227 -1.062471,1.423712 0,1.338714 0.616234,1.614956 3.591154,1.614956 2.61368,0 3.31491,-0.169996 3.654902,-0.934976 0.382489,-0.807477 0.06373,-1.593707 -0.764979,-1.954947 -0.722481,-0.297493 -4.717375,-0.403738 -5.418606,-0.148745 z"
       id="path6647"
       style="stroke-width:0.0212494" />
    <path
       d="m 45.345105,21.888721 c -0.531235,0.679981 -0.424987,1.466209 0.254993,2.018695 0.658733,0.573734 2.911173,0.531237 3.654903,-0.06373 0.67998,-0.531234 0.743729,-1.487458 0.127491,-2.103691 -0.339992,-0.339992 -0.701232,-0.42499 -1.997447,-0.42499 -1.46621,0 -1.614956,0.04251 -2.039945,0.573736 z"
       id="path6649"
       style="stroke-width:0.0212494" />
    <path
       d="m 55.20484,17.298843 c 0.06373,0.361241 0.127493,0.764981 0.127493,0.849976 0,0.127494 1.636205,0.169997 3.782398,0.148748 l 3.761148,-0.06373 V 17.4901 16.746369 l -3.909895,-0.06373 -3.909895,-0.04249 z"
       id="path6651"
       style="stroke-width:0.0212494" />
    <path
       d="m 18.167086,62.560127 c -2.294939,0.382491 -4.887369,2.316188 -5.843594,4.334885 -0.361239,0.74373 -0.361239,0.74373 -1.721203,0.74373 H 9.2210762 v 0.74373 0.74373 h 1.1262198 1.104971 v 1.487459 1.48746 H 10.241048 9.0085822 v 0.743731 0.743729 h 1.4449598 1.423714 l 0.509985,0.934975 c 2.103694,4.016143 7.097308,5.461104 11.198449,3.293662 1.274966,-0.701232 1.784952,-0.594983 1.784952,0.318742 0,0.573735 5.248609,5.864843 5.801094,5.864843 0.76498,0 1.211217,-0.42499 1.211217,-1.126222 0,-0.616232 -0.33999,-1.04122 -2.762425,-3.421158 -1.763703,-1.763701 -2.847425,-2.677428 -3.059918,-2.613679 -0.38249,0.148746 -1.10497,-0.594983 -0.76498,-0.807477 0.127493,-0.085 0.531236,-0.658732 0.871227,-1.296215 l 0.658733,-1.147471 h 2.847423 2.847423 V 72.844852 72.101121 H 30.364258 27.708079 V 70.65616 c 0,-1.8487 -0.403739,-3.208663 -1.402461,-4.653625 -1.763704,-2.571181 -5.057365,-3.973642 -8.138532,-3.442408 z m 3.654902,1.763705 c 1.211218,0.446238 2.337436,1.296213 3.123665,2.379936 0.36124,0.531234 0.658732,0.977472 0.616235,0.998722 -1.253719,0.658732 -1.52996,1.359964 -0.892477,2.231188 0.233744,0.318744 0.679981,0.594986 0.977473,0.637485 0.509987,0.06373 0.573734,0.169996 0.573734,0.849978 0,1.126219 -1.062471,3.187413 -2.124943,4.164887 -1.359962,1.232467 -2.571178,1.699953 -4.462379,1.699953 -2.677429,0.02125 -4.696123,-1.168717 -5.97109,-3.527404 -0.637483,-1.189967 -0.701232,-1.508708 -0.701232,-3.038668 -0.02125,-1.338714 0.085,-1.933698 0.488739,-2.826174 0.616233,-1.338715 2.401186,-3.059917 3.67615,-3.506155 1.147469,-0.40374 3.633652,-0.424988 4.696125,-0.06373 z"
       id="path6653"
       style="stroke-width:0.0212494" />
    <path
       d="m 15.595906,68.063729 c -0.254995,0.254995 -0.424989,0.701232 -0.424989,1.147471 0,1.211218 0.488737,1.402461 3.739899,1.402461 2.783676,0 2.826174,0 3.251162,-0.552484 0.573735,-0.743731 0.552486,-1.253717 -0.085,-1.8912 -0.488739,-0.509986 -0.616234,-0.531235 -3.293663,-0.531235 -2.486183,0 -2.804925,0.04249 -3.187413,0.424987 z"
       id="path6655"
       style="stroke-width:0.0212494" />
    <path
       d="m 18.698321,72.54736 c -0.403739,0.318743 -0.552486,0.637483 -0.552486,1.12622 0,1.10497 0.509988,1.402462 2.379937,1.402462 1.806202,0 2.294938,-0.297492 2.294938,-1.444962 0,-0.998722 -0.807478,-1.529959 -2.337436,-1.529959 -0.913727,0 -1.359965,0.106253 -1.784953,0.446239 z"
       id="path6657"
       style="stroke-width:0.0212494" />
    <path
       d="m 28.218066,68.106229 c 0.06373,0.276243 0.127492,0.616233 0.127492,0.743731 0,0.212494 0.913725,0.276242 3.824898,0.276242 h 3.824896 v -0.74373 -0.74373 h -3.952393 -3.952394 z"
       id="path6659"
       style="stroke-width:0.0212494" />
    <path
       d="m 72.161885,62.560127 c -2.337436,0.382491 -4.951116,2.294939 -5.928591,4.313634 l -0.361239,0.764981 h -1.444962 -1.44496 v 0.74373 0.74373 h 1.168718 1.168716 v 1.487459 1.48746 h -1.168716 -1.168718 v 0.743731 0.722481 l 1.423711,0.06374 1.444961,0.06373 0.509987,0.956223 c 0.786228,1.423713 2.20994,2.719929 3.803647,3.463658 1.274967,0.616233 1.636205,0.679982 3.35741,0.679982 1.784952,0 2.018696,-0.04251 3.548654,-0.807477 0.892476,-0.446239 1.721205,-0.764982 1.82745,-0.701234 0.106253,0.06374 0.233745,0.42499 0.318743,0.807478 0.191245,0.998725 5.121113,5.907342 5.907342,5.907342 0.72248,0 1.232466,-0.509986 1.232466,-1.232467 0,-0.807477 -5.291109,-6.098585 -5.907342,-5.90734 -0.233742,0.085 -0.509986,0.02125 -0.658732,-0.169996 -0.191244,-0.233738 -0.06373,-0.573727 0.658732,-1.699948 l 0.892477,-1.402462 h 2.826173 2.826174 v -0.743721 -0.74373 H 84.359059 81.745378 L 81.639139,70.337412 C 81.532886,68.233718 80.895408,66.661261 79.514196,65.1738 77.559248,63.048858 74.924318,62.11388 72.161893,62.56012 Z m 3.654902,1.806202 c 1.041223,0.36124 3.208666,2.146192 3.421159,2.847424 0.08499,0.254993 -0.06373,0.573734 -0.424989,0.934975 -0.297491,0.297493 -0.531236,0.74373 -0.531236,0.998723 0,0.658733 0.807479,1.46621 1.444961,1.46621 0.509986,0 0.509986,0.04249 0.38249,0.998725 -0.297493,2.231189 -1.742453,4.122389 -3.931145,5.18486 -1.508709,0.743731 -3.973643,0.701231 -5.588599,-0.085 -1.508709,-0.743729 -2.762426,-2.146191 -3.378659,-3.7399 -0.573737,-1.529959 -0.488737,-3.739898 0.212495,-5.18486 0.65873,-1.359962 2.209939,-2.826175 3.506154,-3.31491 1.338715,-0.531236 3.506156,-0.573735 4.887369,-0.106251 z"
       id="path6661"
       style="stroke-width:0.0212494" />
    <path
       d="m 69.463208,68.169977 c -0.637483,0.637483 -0.658733,1.147469 -0.085,1.8912 0.424989,0.552484 0.467489,0.552484 3.293663,0.552484 2.571182,0 2.88992,-0.04249 3.272411,-0.424987 0.616234,-0.616235 0.552487,-1.572457 -0.127493,-2.103695 -0.509985,-0.403739 -0.849976,-0.446237 -3.208663,-0.446237 -2.507432,0 -2.656179,0.02124 -3.144914,0.531235 z"
       id="path6663"
       style="stroke-width:0.0212494" />
    <path
       d="m 72.459377,72.589859 c -0.658733,0.658733 -0.70123,1.487459 -0.127491,2.061194 0.33999,0.339992 0.70123,0.424989 2.018695,0.424989 1.317464,0 1.678705,-0.085 2.018695,-0.424989 0.531236,-0.531234 0.552485,-1.296216 0.02125,-1.933699 -0.33999,-0.403737 -0.637483,-0.509985 -1.891199,-0.573734 -1.381211,-0.085 -1.551207,-0.04249 -2.039945,0.446239 z"
       id="path6665"
       style="stroke-width:0.0212494" />
    <path
       d="m 82.149118,68.318724 0.06373,0.70123 3.888646,0.06373 3.867395,0.04249 v -0.743715 -0.74373 h -3.952384 -3.931143 z"
       id="path6667"
       style="stroke-width:0.0212494" />
  </g>
</svg>
