<?xml version="1.0" encoding="UTF-8" standalone="no"?>
<!-- Created with Inkscape (http://www.inkscape.org/) -->

<svg
   width="100mm"
   height="100mm"
   viewBox="0 0 100 100"
   version="1.1"
   id="svg26768"
   sodipodi:docname="a settings.svg"
   inkscape:version="1.1.1 (3bf5ae0d25, 2021-09-20)"
   xmlns:inkscape="http://www.inkscape.org/namespaces/inkscape"
   xmlns:sodipodi="http://sodipodi.sourceforge.net/DTD/sodipodi-0.dtd"
   xmlns="http://www.w3.org/2000/svg"
   xmlns:svg="http://www.w3.org/2000/svg">
  <sodipodi:namedview
     id="namedview26770"
     pagecolor="#ffffff"
     bordercolor="#666666"
     borderopacity="1.0"
     inkscape:pageshadow="2"
     inkscape:pageopacity="0.0"
     inkscape:pagecheckerboard="0"
     inkscape:document-units="mm"
     showgrid="false"
     width="209mm"
     inkscape:zoom="0.7500982"
     inkscape:cx="13.998167"
     inkscape:cy="135.31562"
     inkscape:window-width="1920"
     inkscape:window-height="1027"
     inkscape:window-x="1912"
     inkscape:window-y="-8"
     inkscape:window-maximized="1"
     inkscape:current-layer="layer1" />
  <defs
     id="defs26765" />
  <g
     inkscape:label="Layer 1"
     inkscape:groupmode="layer"
     id="layer1">
    <path
       d="m 15.343524,1.659705 c -1.47571,0.8943701 -1.408632,0.1117961 -1.408632,17.641445 v 15.852704 l -1.185039,0.670778 c -1.49807,0.849651 -2.9514211,2.414798 -3.6892759,4.024664 -0.5142634,1.073244 -0.6036999,1.587506 -0.6036999,3.286809 0,1.699302 0.089438,2.213565 0.6036999,3.286809 0.7378548,1.609866 2.1912059,3.175013 3.6892759,4.024664 l 1.185039,0.670777 v 22.806434 c 0,19.922079 0.04472,22.895869 0.335388,23.521919 0.939089,1.945258 3.979946,1.989977 4.896676,0.04474 0.313029,-0.693138 0.357748,-2.929061 0.357748,-23.589007 V 51.073637 l 1.073243,-0.536622 c 1.453351,-0.737856 3.018499,-2.437158 3.778713,-4.047024 0.536621,-1.16268 0.626059,-1.609865 0.626059,-3.353886 0,-1.744022 -0.08944,-2.191206 -0.648418,-3.398605 -0.715496,-1.565147 -2.39244,-3.309168 -3.890509,-4.069384 L 19.524704,35.198573 V 19.256431 c 0,-15.4055204 -0.02236,-15.9421415 -0.447186,-16.635278 C 18.250226,1.2572387 16.662721,0.85477234 15.343524,1.659705 Z m 4.091742,35.52884 c 1.229759,0.558982 2.705469,2.034691 3.28681,3.353887 0.626058,1.408633 0.648418,3.778712 0,5.187345 -1.095603,2.459517 -3.309168,3.890508 -5.992278,3.86815 -1.900536,0 -3.26445,-0.558981 -4.516567,-1.811099 -2.9961394,-2.996139 -2.5042356,-7.848096 1.006165,-10.08402 0.58134,-0.380107 1.47571,-0.804933 1.945254,-0.916729 1.185041,-0.29067 3.085576,-0.111796 4.270616,0.402466 z"
       id="path5581"
       style="stroke-width:0.0223592" />
    <path
       d="M 48.882392,1.659705 C 47.384323,2.5764347 47.473759,0.60882044 47.473759,30.480772 v 27.032327 l -1.185039,0.670778 c -1.498069,0.849651 -2.951421,2.414798 -3.689276,4.024664 -0.514262,1.073244 -0.6037,1.587507 -0.6037,3.286809 0,1.699302 0.08944,2.213565 0.6037,3.286809 0.737855,1.609866 2.191207,3.175013 3.689276,4.024669 l 1.185039,0.670769 v 11.626816 c 0,9.927495 0.04472,11.738595 0.33539,12.342295 0.939088,1.945258 3.979945,1.989977 4.896674,0.04474 0.31303,-0.670778 0.357748,-2.101765 0.357748,-12.409383 V 73.432868 l 0.939089,-0.469542 c 1.498069,-0.760212 3.175012,-2.504234 3.890508,-4.069381 0.558981,-1.207399 0.648418,-1.654583 0.648418,-3.398604 0,-1.744022 -0.08944,-2.191207 -0.648418,-3.398607 -0.715496,-1.565146 -2.392439,-3.309168 -3.890508,-4.069382 L 53.063571,57.557817 V 30.436053 c 0,-26.4733453 -0.02236,-27.1217635 -0.447184,-27.8149 C 51.789094,1.2572387 50.201588,0.85477234 48.882392,1.659705 Z m 4.091742,57.888085 c 1.229758,0.558982 2.705469,2.034691 3.286809,3.353887 0.62606,1.408633 0.648418,3.778713 0,5.187345 -1.095603,2.459517 -3.309168,3.890509 -5.992277,3.86815 -1.900537,0 -3.26445,-0.558982 -4.516568,-1.811099 -2.996138,-2.996139 -2.504236,-7.848095 1.006166,-10.08402 0.58134,-0.380107 1.475711,-0.804933 1.945254,-0.916729 1.18504,-0.29067 3.085576,-0.111796 4.270616,0.402466 z"
       id="path5583"
       style="stroke-width:0.0223592" />
    <path
       d="m 82.42126,1.659705 c -1.386273,0.8272922 -1.408633,0.9838066 -1.408633,9.256728 v 7.467988 l -1.18504,0.670777 c -1.498069,0.849651 -2.95142,2.414798 -3.689275,4.024664 -0.514263,1.073244 -0.603699,1.587506 -0.603699,3.286809 0,1.699303 0.08944,2.213565 0.603699,3.286809 0.737855,1.609866 2.191206,3.175013 3.689275,4.024664 l 1.18504,0.670777 v 31.191147 c 0,27.412435 0.04472,31.28059 0.335389,31.90664 0.939088,1.945258 3.979947,1.989977 4.896676,0.04474 0.335385,-0.693138 0.357746,-3.55512 0.357746,-31.973721 V 34.304203 l 1.073247,-0.536622 c 1.453348,-0.737855 3.018498,-2.437158 3.77871,-4.047023 0.536624,-1.162681 0.626059,-1.609866 0.626059,-3.353887 0,-1.699303 -0.111796,-2.213565 -0.603699,-3.286809 -0.737857,-1.609866 -2.191204,-3.175013 -3.689279,-4.024664 l -1.185038,-0.670777 v -7.512707 c 0,-7.0878804 -0.02238,-7.5797842 -0.447182,-8.250561 C 85.327963,1.2572387 83.740458,0.85477234 82.42126,1.659705 Z m 4.091741,18.759407 c 1.22976,0.558981 2.705468,2.034691 3.286806,3.353886 0.626061,1.408634 0.648422,3.778712 0,5.187345 -1.095601,2.459517 -3.309167,3.890509 -5.992274,3.86815 -1.900536,0 -3.26445,-0.558981 -4.516568,-1.811099 -2.996138,-2.996139 -2.504235,-7.848095 1.006166,-10.08402 0.581342,-0.380106 1.475711,-0.804932 1.945255,-0.916728 1.185041,-0.290671 3.085577,-0.111797 4.270615,0.402466 z"
       id="path5585"
       style="stroke-width:0.0223592" />
  </g>
</svg>
