<?xml version="1.0" encoding="UTF-8" standalone="no"?>
<!-- Created with Inkscape (http://www.inkscape.org/) -->

<svg
   width="100mm"
   height="100mm"
   viewBox="0 0 100 100"
   version="1.1"
   id="svg26768"
   sodipodi:docname="a search heads.svg"
   inkscape:version="1.1.1 (3bf5ae0d25, 2021-09-20)"
   xmlns:inkscape="http://www.inkscape.org/namespaces/inkscape"
   xmlns:sodipodi="http://sodipodi.sourceforge.net/DTD/sodipodi-0.dtd"
   xmlns="http://www.w3.org/2000/svg"
   xmlns:svg="http://www.w3.org/2000/svg">
  <sodipodi:namedview
     id="namedview26770"
     pagecolor="#ffffff"
     bordercolor="#666666"
     borderopacity="1.0"
     inkscape:pageshadow="2"
     inkscape:pageopacity="0.0"
     inkscape:pagecheckerboard="0"
     inkscape:document-units="mm"
     showgrid="false"
     width="209mm"
     inkscape:zoom="0.7500982"
     inkscape:cx="13.998167"
     inkscape:cy="241.96832"
     inkscape:window-width="1920"
     inkscape:window-height="1027"
     inkscape:window-x="1912"
     inkscape:window-y="-8"
     inkscape:window-maximized="1"
     inkscape:current-layer="layer1" />
  <defs
     id="defs26765" />
  <g
     inkscape:label="Layer 1"
     inkscape:groupmode="layer"
     id="layer1">
    <path
       d="m 24.323084,1.5977755 c -2.696976,0.8440801 -4.673377,3.2734147 -4.899843,6.114496 L 19.320232,8.9681121 17.982046,9.0916318 C 16.170343,9.2769255 14.708637,10.018072 13.432209,11.397432 11.476395,13.53854 11.661675,9.2975122 11.661675,54.219504 V 93.74756 l 0.679387,1.379361 c 0.80292,1.647014 2.099935,2.861683 3.685174,3.458709 1.11172,0.411761 1.338188,0.411761 30.696013,0.370574 l 29.58428,-0.06183 0.885267,-0.473507 c 2.202854,-1.173495 3.623403,-3.273429 3.870442,-5.743923 l 0.14412,-1.235255 1.297015,-0.123512 c 2.614613,-0.247055 4.941013,-1.997001 5.846856,-4.385148 0.411745,-1.132322 0.411745,-1.173494 0.370587,-40.907432 L 88.658985,6.2504808 88.082532,5.1593473 C 87.382544,3.8211601 86.167876,2.6270793 84.891464,1.9888657 L 83.923849,1.5153592 54.380729,1.4741859 C 38.137176,1.4536691 24.611172,1.5153592 24.322944,1.5977057 Z m 59.41561,2.6763743 c 1.029375,0.4735205 2.017576,1.6470006 2.326389,2.7793214 0.185294,0.617627 0.226467,8.8938168 0.185294,30.6959978 l -0.06183,29.851934 -0.494107,1.091134 c -0.597041,1.338187 -2.326388,2.964602 -3.602815,3.396948 l -0.947025,0.329401 -0.04117,-29.0696 -0.06182,-29.0696 -0.576453,-1.173479 C 79.723995,11.582727 78.48874,10.347472 77.068206,9.6886723 L 75.894713,9.1328051 48.842702,9.0709755 21.790676,9.0298023 21.914196,8.0210152 C 22.140648,6.1475477 23.33473,4.5623069 24.878798,4.0887863 25.18761,4.0064409 38.384216,3.9035067 54.174849,3.9035067 c 27.504946,-0.020516 28.760786,0 29.563707,0.3705733 z m -7.637976,7.7820832 c 0.947028,0.494106 1.564655,1.13232 2.038175,2.05876 0.308813,0.597041 0.329386,3.438122 0.329386,30.798947 0,27.134358 -0.04117,30.222493 -0.329386,31.10776 -0.452933,1.317602 -2.05876,3.026361 -3.417535,3.643988 l -1.091133,0.494108 H 46.351746 19.073254 L 18.126227,79.727448 C 16.808626,79.109821 15.552786,77.915755 14.893986,76.6805 l -0.555854,-1.04996 -0.06183,-30.160733 c -0.04117,-21.040462 0,-30.3872 0.164707,-30.922481 0.411747,-1.420533 1.688173,-2.532266 3.294001,-2.861666 0.391161,-0.08235 13.505419,-0.123518 29.13136,-0.103007 l 28.410799,0.02065 z m 10.149659,67.383002 -0.06183,6.27919 -0.576453,0.967612 c -0.679388,1.173495 -1.873468,1.914641 -3.39695,2.120521 l -1.070546,0.144108 0.04118,-7.86443 0.06183,-7.885031 0.823508,-0.247038 c 0.452919,-0.123512 1.194079,-0.473521 1.667586,-0.761748 0.823507,-0.53528 2.3058,-2.079348 2.388148,-2.511682 0.123513,-0.617627 0.185293,4.158682 0.123513,9.758498 z m -69.668204,0.370573 c 2.038161,1.358774 0.3294,1.297014 30.201907,1.23524 l 27.052012,-0.06183 1.379359,-0.679388 c 0.885267,-0.432332 1.708775,-1.04996 2.326402,-1.729346 l 0.947028,-1.049975 -0.06169,8.132084 -0.06183,8.111484 -0.555855,0.844093 c -0.350001,0.535266 -0.926438,1.029375 -1.626427,1.37936 l -1.091134,0.535282 H 46.413523 c -25.466785,0 -28.781372,-0.04117 -29.46076,-0.329402 -0.967612,-0.391159 -1.811708,-1.19408 -2.3264,-2.18228 -0.370575,-0.72056 -0.391162,-1.297014 -0.391162,-8.708523 v -7.967376 l 0.679388,0.905853 c 0.370588,0.494093 1.111734,1.19408 1.6676,1.564655 z"
       id="path5505"
       style="stroke-width:0.0205876" />
    <path
       d="m 36.696181,22.329411 c -1.626413,0.432347 -2.779308,0.988213 -4.241028,2.038173 -3.355762,2.388149 -5.311575,6.176256 -5.332176,10.293765 0,2.3058 0.308815,3.643988 1.358788,5.846856 1.523467,3.191067 4.755708,5.826268 8.296777,6.711535 1.585241,0.411761 4.755722,0.391161 6.340964,-0.02065 1.152892,-0.288226 3.211641,-1.235254 4.508654,-2.079334 l 0.576455,-0.35 1.008786,0.988215 c 0.885267,0.864667 1.008786,1.111719 1.091147,2.017573 l 0.102871,1.029374 5.764508,5.764509 c 5.57923,5.579229 5.805682,5.76451 6.670363,5.867458 1.152894,0.102857 2.141107,-0.473521 2.57344,-1.523483 0.658802,-1.564654 0.555869,-1.708775 -5.435108,-7.761495 -3.026375,-3.026375 -5.785097,-5.640989 -6.15567,-5.805696 -0.370572,-0.164694 -0.926439,-0.288228 -1.235253,-0.288228 -0.411748,0 -0.86468,-0.3088 -1.626414,-1.04996 l -1.070547,-1.049961 0.802906,-1.235254 c 1.544067,-2.408748 2.141108,-4.652789 1.996989,-7.658562 -0.164693,-3.355761 -1.399948,-6.052737 -3.829284,-8.46147 -1.482293,-1.502895 -3.82928,-2.820496 -5.826268,-3.294003 -1.647001,-0.391171 -4.879242,-0.370586 -6.340962,0.02065 z m 5.64099,2.44992 c 4.941002,1.276428 8.296777,5.929217 7.843843,10.849632 -0.6588,7.267403 -8.440884,11.590777 -14.946538,8.296777 -0.555869,-0.288228 -1.605829,-1.070561 -2.326389,-1.749948 -2.099933,-1.955815 -3.232255,-4.529256 -3.232255,-7.308563 0,-2.758735 0.885267,-5.023363 2.758735,-7.040935 2.594029,-2.779323 6.382136,-3.952816 9.902604,-3.046963 z"
       id="path5507"
       style="stroke-width:0.0205876" />
    <path
       d="m 33.155127,28.340972 c -0.905839,0.967614 -2.24404,3.149896 -2.24404,3.623403 0,0.06183 2.594026,0.123513 5.764508,0.123513 h 5.764508 v -2.470502 -2.470507 h -4.09692 -4.096909 z"
       id="path5509"
       style="stroke-width:0.0205876" />
    <path
       d="m 34.822715,39.911165 v 2.470507 h 5.352762 5.352763 l 0.885266,-0.802906 c 0.926427,-0.864681 2.099922,-2.655801 2.305802,-3.582242 l 0.144105,-0.555868 h -7.020349 -7.020349 z"
       id="path5511"
       style="stroke-width:0.0205876" />
    <path
       d="m 19.382067,30.852653 v 1.235255 h 2.655801 2.655789 l 0.226467,-0.905853 c 0.123524,-0.494095 0.267626,-1.04996 0.349987,-1.235255 0.10287,-0.288227 -0.185294,-0.3294 -2.882255,-0.3294 h -3.005789 z"
       id="path5513"
       style="stroke-width:0.0205876" />
    <path
       d="m 57.880751,30.852653 v 1.235255 h 7.720322 7.720338 V 30.852653 29.6174 h -7.720338 -7.720322 z"
       id="path5515"
       style="stroke-width:0.0205876" />
    <path
       d="m 19.382067,38.675911 v 1.235254 h 1.235254 1.235255 v -1.235254 -1.235255 h -1.235255 -1.235254 z"
       id="path5517"
       style="stroke-width:0.0205876" />
    <path
       d="m 55.101444,37.68771 c -0.144121,0.494108 -0.514694,1.914641 -0.514694,2.058761 0,0.102871 1.338186,0.164694 2.985201,0.164694 h 2.985188 v -1.235254 -1.235255 h -2.676388 c -1.9764,0 -2.717548,0.06183 -2.779307,0.247054 z"
       id="path5519"
       style="stroke-width:0.0205876" />
    <path
       d="m 65.70402,38.675911 v 1.235254 h 3.808695 3.808696 V 38.675911 37.440656 H 69.512715 65.70402 Z"
       id="path5521"
       style="stroke-width:0.0205876" />
    <path
       d="m 19.382067,46.293302 v 1.235253 h 5.90863 c 3.232241,0 5.846855,-0.04117 5.805682,-0.08236 -0.04117,-0.02065 -0.699973,-0.576453 -1.461721,-1.235254 l -1.37936,-1.152907 h -4.446909 -4.426322 z"
       id="path5523"
       style="stroke-width:0.0205876" />
    <path
       d="m 58.80719,46.293302 1.214669,1.235253 h 6.649775 6.649777 v -1.235253 -1.235255 h -7.864443 -7.864431 z"
       id="path5525"
       style="stroke-width:0.0205876" />
    <path
       d="m 19.382067,54.116571 v 1.23524 h 11.52902 11.529016 v -1.23524 -1.235253 H 30.911087 19.382067 Z"
       id="path5527"
       style="stroke-width:0.0205876" />
    <path
       d="m 47.586987,54.116571 v 1.23524 h 2.820494 2.820495 l -1.214667,-1.23524 -1.214668,-1.235253 h -1.605826 -1.605828 z"
       id="path5529"
       style="stroke-width:0.0205876" />
    <path
       d="m 66.568702,54.116571 1.091133,1.23524 h 2.841081 2.820495 v -1.23524 -1.235253 h -3.932228 -3.911628 z"
       id="path5531"
       style="stroke-width:0.0205876" />
    <path
       d="m 19.382067,61.733961 v 1.23524 h 5.146883 5.146882 v -1.23524 -1.235254 H 24.52895 19.382067 Z"
       id="path5533"
       style="stroke-width:0.0205876" />
    <path
       d="m 34.822715,61.733961 v 1.23524 h 10.293777 10.293766 v -1.23524 -1.235254 H 45.116492 34.822715 Z"
       id="path5535"
       style="stroke-width:0.0205876" />
    <path
       d="m 70.850903,61.733961 v 1.23524 h 1.235254 1.235254 v -1.23524 -1.235254 h -1.235254 -1.235254 z"
       id="path5537"
       style="stroke-width:0.0205876" />
    <path
       d="m 20.596735,86.706626 c -0.92644,0.617626 -1.25584,1.297011 -1.152893,2.388146 0.08234,0.6794 0.267626,1.049973 0.78232,1.544081 0.638213,0.617615 0.658799,0.617615 0.3294,0.08234 -0.761734,-1.235254 -0.02052,-2.717563 1.379359,-2.717563 1.441135,0 2.202868,1.688176 1.255841,2.779323 -0.411746,0.452919 -0.411746,0.452919 0.04117,0.205881 1.605827,-0.823508 1.626414,-3.376362 0.02051,-4.343977 -0.885253,-0.53528 -1.791108,-0.514694 -2.655786,0.06183 z"
       id="path5539"
       style="stroke-width:0.0205876" />
  </g>
</svg>
