<?xml version="1.0" encoding="UTF-8" standalone="no"?>
<!-- Created with Inkscape (http://www.inkscape.org/) -->

<svg
   width="100mm"
   height="100mm"
   viewBox="0 0 100 100"
   version="1.1"
   id="svg26768"
   sodipodi:docname="a search head.svg"
   inkscape:version="1.1.1 (3bf5ae0d25, 2021-09-20)"
   xmlns:inkscape="http://www.inkscape.org/namespaces/inkscape"
   xmlns:sodipodi="http://sodipodi.sourceforge.net/DTD/sodipodi-0.dtd"
   xmlns="http://www.w3.org/2000/svg"
   xmlns:svg="http://www.w3.org/2000/svg">
  <sodipodi:namedview
     id="namedview26770"
     pagecolor="#ffffff"
     bordercolor="#666666"
     borderopacity="1.0"
     inkscape:pageshadow="2"
     inkscape:pageopacity="0.0"
     inkscape:pagecheckerboard="0"
     inkscape:document-units="mm"
     showgrid="false"
     width="209mm"
     inkscape:zoom="0.7500982"
     inkscape:cx="13.998167"
     inkscape:cy="241.96832"
     inkscape:window-width="1920"
     inkscape:window-height="1027"
     inkscape:window-x="1912"
     inkscape:window-y="-8"
     inkscape:window-maximized="1"
     inkscape:current-layer="layer1" />
  <defs
     id="defs26765" />
  <g
     inkscape:label="Layer 1"
     inkscape:groupmode="layer"
     id="layer1">
    <path
       d="M 19.790744,2.0568109 C 17.16902,2.6789132 15.124948,4.745192 14.413981,7.5002303 14.102921,8.7000032 14.080694,13.521339 14.125147,51.047665 l 0.06676,42.192102 0.577652,1.244224 c 0.777642,1.621923 1.888551,2.843901 3.354934,3.665976 l 1.177567,0.644327 h 32.32729 32.327289 l 1.177566,-0.644327 c 1.466383,-0.822075 2.577293,-2.044053 3.354916,-3.665976 l 0.577671,-1.244224 0.06676,-42.192102 C 89.177913,13.521339 89.155728,8.7000032 88.844706,7.5002303 88.244829,5.1895479 86.889515,3.5454191 84.734373,2.5011668 L 83.512375,1.9234962 52.073798,1.8791234 c -17.885544,0 -31.794051,0.066756 -32.282858,0.1776875 z m 63.943613,3.021648 c 1.11091,0.5998963 1.777443,1.2886559 2.2218,2.3329081 0.288834,0.7331912 0.333286,4.48805 0.333286,33.216021 0,30.327668 -0.02218,32.460604 -0.377718,33.48263 -0.533219,1.488609 -2.199593,3.266052 -3.665976,3.932587 l -1.177567,0.533238 H 51.740335 c -28.305821,0 -29.3723,-0.02219 -30.416531,-0.422151 -1.399745,-0.533219 -2.888354,-1.910738 -3.64377,-3.354913 l -0.599897,-1.110911 -0.06676,-32.549467 c -0.04437,-22.706881 0,-32.7938708 0.177687,-33.3715414 0.444376,-1.5330594 1.821895,-2.7328323 3.554907,-3.088325 0.422133,-0.088942 14.575043,-0.1333146 31.43856,-0.1111288 l 30.660935,0.022186 z M 19.501908,78.175919 c 2.177368,1.488608 0.377719,1.399745 32.127338,1.399745 31.749618,0 29.949969,0.08894 32.127337,-1.399745 0.599876,-0.377699 1.399724,-1.155341 1.799649,-1.688561 l 0.755416,-0.955389 -0.06676,8.865011 -0.06657,8.887238 -0.644328,0.910937 c -0.399924,0.577672 -1.044252,1.133116 -1.755238,1.488609 l -1.133115,0.555444 H 51.629246 20.612818 l -1.133116,-0.555444 c -0.710984,-0.355493 -1.355313,-0.910937 -1.755236,-1.488609 l -0.644329,-0.910937 -0.06676,-8.887238 -0.06655,-8.865011 0.755416,0.955389 c 0.399925,0.53322 1.199773,1.310862 1.799651,1.688561 z"
       id="path5545"
       style="stroke-width:0.022218" />
    <path
       d="m 41.186743,16.165289 c -3.732633,0.977595 -7.220863,3.821497 -8.842786,7.220863 -1.133116,2.355115 -1.466382,3.821517 -1.466382,6.198837 0,2.37734 0.333266,3.843742 1.466382,6.198856 1.644129,3.443798 5.132378,6.287719 8.953874,7.243088 1.710806,0.444357 5.132379,0.42215 6.843185,-0.02219 1.399726,-0.355492 3.577093,-1.377519 4.643571,-2.155142 l 0.622102,-0.466582 1.199773,1.177548 c 1.022026,0.99982 1.199773,1.333087 1.310862,2.177367 0.111127,0.999822 0.288835,1.177567 6.332151,7.220883 5.998884,6.02111 6.243288,6.221062 7.176451,6.332151 1.244205,0.111128 2.310663,-0.511013 2.777244,-1.644128 0.710986,-1.68858 0.599897,-1.844101 -5.86557,-8.376225 -3.266051,-3.266051 -6.243267,-6.087746 -6.643192,-6.265493 -0.399924,-0.177687 -0.99982,-0.311061 -1.333087,-0.311061 -0.444356,0 -0.933163,-0.333267 -1.755237,-1.133116 l -1.155322,-1.133115 0.866486,-1.333088 c 4.443619,-6.909821 1.955209,-16.1081 -5.398988,-19.862959 -0.84428,-0.42215 -2.132936,-0.910937 -2.888352,-1.088684 -1.755219,-0.42215 -5.243449,-0.399924 -6.843165,0.02219 z m 6.109972,2.64395 c 4.399188,1.133115 7.598582,4.643571 8.376225,9.153846 0.555445,3.310484 -0.68876,7.020911 -3.221621,9.487114 -4.399186,4.310304 -10.975741,4.354736 -15.397134,0.08894 -4.599139,-4.421393 -4.576914,-11.597824 0.04437,-15.930353 2.888354,-2.710607 6.598761,-3.710408 10.198099,-2.799471 z"
       id="path5547"
       style="stroke-width:0.022218" />
    <path
       d="m 37.343021,22.697392 c -0.999801,1.066479 -2.377321,3.33271 -2.377321,3.865948 0,0.06676 2.799471,0.133315 6.221043,0.133315 h 6.221061 V 24.03048 21.364306 h -4.421392 -4.421393 z"
       id="path5549"
       style="stroke-width:0.022218" />
    <path
       d="m 39.187121,35.139517 v 2.666175 h 5.821138 5.821138 l 1.044252,-1.088684 c 1.133116,-1.177566 2.088485,-2.666175 2.310683,-3.64377 l 0.1555,-0.599896 h -7.576355 -7.576375 z"
       id="path5551"
       style="stroke-width:0.022218" />
    <path
       d="m 22.523577,25.363567 v 1.333088 h 2.866126 2.866128 l 0.244403,-0.977595 c 0.133315,-0.533239 0.288836,-1.133135 0.377699,-1.333087 0.111128,-0.311061 -0.199953,-0.355493 -3.11053,-0.355493 h -3.243826 z"
       id="path5553"
       style="stroke-width:0.022218" />
    <path
       d="m 64.071369,25.363567 v 1.333088 h 8.331773 8.331773 V 25.363567 24.03048 h -8.331773 -8.331773 z"
       id="path5555"
       style="stroke-width:0.022218" />
    <path
       d="m 22.523577,33.806429 v 1.333088 h 1.333087 1.333067 v -1.333088 -1.333087 h -1.333067 -1.333087 z"
       id="path5557"
       style="stroke-width:0.022218" />
    <path
       d="m 61.071928,32.739971 c -0.155501,0.533219 -0.555465,2.066278 -0.555465,2.221799 0,0.111128 1.444177,0.177688 3.22162,0.177688 h 3.22164 V 33.80637 32.473283 h -2.888354 c -2.132936,0 -2.932784,0.06676 -2.999441,0.266629 z"
       id="path5559"
       style="stroke-width:0.022218" />
    <path
       d="m 72.514231,33.806429 v 1.333088 h 4.110333 4.110351 v -1.333088 -1.333087 h -4.110351 -4.110333 z"
       id="path5561"
       style="stroke-width:0.022218" />
    <path
       d="M 22.523577,42.027113 V 43.3602 h 6.33215 6.354358 l -1.555266,-1.333087 -1.555266,-1.333088 h -4.776886 -4.79909 z"
       id="path5563"
       style="stroke-width:0.022218" />
    <path
       d="m 65.07117,42.027113 1.310883,1.333087 h 7.17643 7.176432 v -1.333087 -1.333088 h -8.487293 -8.487313 z"
       id="path5565"
       style="stroke-width:0.022218" />
    <path
       d="m 22.523577,50.469994 v 1.333068 H 34.9657 47.407804 V 50.469994 49.136906 H 34.9657 22.523577 Z"
       id="path5567"
       style="stroke-width:0.022218" />
    <path
       d="m 52.962333,50.469994 v 1.333068 h 3.043874 3.043874 l -1.310862,-1.333068 -1.310862,-1.333088 h -1.733013 -1.733011 z"
       id="path5569"
       style="stroke-width:0.022218" />
    <path
       d="m 73.447394,50.469994 1.155342,1.333068 h 3.06608 3.066099 v -1.333068 -1.333088 h -4.243647 -4.221441 z"
       id="path5571"
       style="stroke-width:0.022218" />
    <path
       d="m 22.523577,58.690678 v 1.333068 h 5.554508 5.554528 V 58.690678 57.35759 h -5.554528 -5.554508 z"
       id="path5573"
       style="stroke-width:0.022218" />
    <path
       d="m 39.187121,58.690678 v 1.333068 H 50.296158 61.405195 V 58.690678 57.35759 H 50.296158 39.187121 Z"
       id="path5575"
       style="stroke-width:0.022218" />
    <path
       d="m 78.06876,58.690678 v 1.333068 h 1.333067 1.333088 V 58.690678 57.35759 H 79.401827 78.06876 Z"
       id="path5577"
       style="stroke-width:0.022218" />
    <path
       d="m 24.167705,85.330144 c -0.910937,0.399924 -1.644128,1.53304 -1.644128,2.599518 0,0.822055 0.133314,1.110889 0.799848,1.821875 0.466582,0.488787 0.644327,0.599876 0.444355,0.26661 -0.488787,-0.733192 -0.444355,-1.599697 0.08894,-2.288457 0.866506,-1.088685 2.355114,-0.95537 2.999422,0.288835 0.377719,0.733192 0.288835,1.399745 -0.311042,2.088505 -0.333266,0.399924 -0.333266,0.399924 0.133315,0.155501 1.64413,-0.84428 1.755219,-3.554888 0.199953,-4.576914 -0.666534,-0.444376 -2.066279,-0.622122 -2.710607,-0.355493 z"
       id="path5579"
       style="stroke-width:0.022218" />
  </g>
</svg>
