<?xml version="1.0" encoding="UTF-8" standalone="no"?>
<!-- Created with Inkscape (http://www.inkscape.org/) -->

<svg
   width="100mm"
   height="100mm"
   viewBox="0 0 100 100"
   version="1.1"
   id="svg26768"
   sodipodi:docname="a splunk instance.svg"
   inkscape:version="1.1.1 (3bf5ae0d25, 2021-09-20)"
   xmlns:inkscape="http://www.inkscape.org/namespaces/inkscape"
   xmlns:sodipodi="http://sodipodi.sourceforge.net/DTD/sodipodi-0.dtd"
   xmlns="http://www.w3.org/2000/svg"
   xmlns:svg="http://www.w3.org/2000/svg">
  <sodipodi:namedview
     id="namedview26770"
     pagecolor="#ffffff"
     bordercolor="#666666"
     borderopacity="1.0"
     inkscape:pageshadow="2"
     inkscape:pageopacity="0.0"
     inkscape:pagecheckerboard="0"
     inkscape:document-units="mm"
     showgrid="false"
     width="209mm"
     inkscape:zoom="0.7500982"
     inkscape:cx="13.998167"
     inkscape:cy="241.96832"
     inkscape:window-width="1920"
     inkscape:window-height="1027"
     inkscape:window-x="1912"
     inkscape:window-y="-8"
     inkscape:window-maximized="1"
     inkscape:current-layer="layer1" />
  <defs
     id="defs26765" />
  <g
     inkscape:label="Layer 1"
     inkscape:groupmode="layer"
     id="layer1">
    <path
       d="M 20.30457,1.4670486 C 18.789559,1.9349156 17.185418,3.0711773 16.361084,4.318838 14.868342,6.5467971 14.979742,3.2939755 15.024306,50.348524 l 0.06688,42.665454 0.490149,1.047145 c 0.646113,1.403624 2.138842,2.98547 3.520184,3.698418 l 1.11398,0.601548 h 32.30544 32.305441 l 1.113979,-0.534714 c 1.403613,-0.712947 2.762673,-2.071995 3.47562,-3.475619 l 0.534714,-1.11398 0.06688,-43.044215 C 90.062162,7.1929096 90.062162,7.1483453 89.616542,5.9229667 88.992724,4.2965559 87.4777,2.6255808 85.873572,1.8457986 L 84.603629,1.2219683 52.966583,1.1773809 c -26.936059,-0.022294 -31.793021,0 -32.66192,0.2896331 z m 64.766845,3.0968582 c 0.824335,0.5124313 1.247649,0.9803099 1.715528,1.8937733 l 0.601548,1.2030965 -0.04459,32.6619204 -0.06688,32.639638 -0.467879,1.024863 c -0.690665,1.492729 -1.938314,2.762661 -3.386491,3.475608 l -1.269943,0.62383 H 52.520825 22.888928 L 21.730396,77.485088 C 20.17082,76.660742 19.05684,75.502209 18.343893,73.987198 l -0.579278,-1.247661 -0.06688,-32.171771 c -0.04459,-27.804958 0,-32.3499939 0.267351,-33.3080216 0.445597,-1.4927295 1.715539,-2.7626724 3.185998,-3.1637046 0.8689,-0.2227982 7.129462,-0.2673509 31.948962,-0.2450803 l 30.879546,0.044587 z m -63.58603,73.7678102 1.403624,0.646112 h 29.743284 29.743284 l 1.292225,-0.646112 c 1.292214,-0.623831 2.62898,-1.760092 3.319657,-2.807237 0.356468,-0.534702 0.37875,-0.04447 0.37875,8.020666 0.02229,7.820151 -0.02229,8.644486 -0.401032,9.468832 -0.490149,1.113991 -1.760092,2.250253 -2.85179,2.562168 -0.601548,0.178234 -10.003545,0.222787 -32.082642,0.178234 L 20.817002,95.6875 19.836703,95.019117 c -0.512431,-0.37875 -1.203108,-1.136262 -1.515023,-1.670975 l -0.556984,-1.002581 -0.06688,-8.666767 -0.06688,-8.644497 1.225379,1.314496 c 0.846628,0.935745 1.670975,1.537294 2.628991,1.98289 z"
       id="path5587"
       style="stroke-width:0.0222796" />
    <path
       d="m 39.977475,29.338842 0.06688,3.052306 10.783339,5.257994 10.783327,5.235711 -10.783327,5.3471 -10.783339,5.347111 -0.06688,2.940906 c -0.02229,1.626423 0.02229,2.963189 0.111353,2.963189 0.08917,0 6.349691,-3.074588 13.924749,-6.839841 l 13.76881,-6.83984 v -2.85179 -2.851789 L 53.969025,33.193212 c -7.597352,-3.787535 -13.857927,-6.906675 -13.924762,-6.906675 -0.06688,0 -0.08906,1.38133 -0.06688,3.052305 z"
       id="path5589"
       style="stroke-width:0.0222796" />
    <path
       d="m 24.827335,85.015605 c -1.71554,0.868899 -1.893773,3.653854 -0.289633,4.678717 0.579266,0.37875 0.579266,0.37875 0.200516,-0.06688 -0.401032,-0.445596 -0.512431,-1.492741 -0.267363,-2.183406 0.200516,-0.512431 1.381342,-1.069427 2.005161,-0.913463 1.269943,0.334186 1.826939,1.871491 1.069427,3.030023 -0.200516,0.334197 -0.02229,0.222798 0.445596,-0.267351 0.690666,-0.712947 0.802065,-1.00258 0.802065,-1.849209 0,-2.027443 -2.161124,-3.341938 -3.965769,-2.428475 z"
       id="path5591"
       style="stroke-width:0.0222796" />
  </g>
</svg>
