<?xml version="1.0" encoding="UTF-8" standalone="no"?>
<!-- Created with Inkscape (http://www.inkscape.org/) -->

<svg
   width="100mm"
   height="100mm"
   viewBox="0 0 100 100"
   version="1.1"
   id="svg26768"
   xmlns="http://www.w3.org/2000/svg"
   xmlns:svg="http://www.w3.org/2000/svg">
  <defs
     id="defs26765" />
  <path
     d="m 47.099811,38.269478 c -3.67224,0.583242 -6.264401,1.360888 -8.964567,2.721775 -7.366059,3.672222 -12.571987,10.390239 -14.386497,18.512344 -0.216015,1.015265 -0.410428,2.138532 -0.410428,2.50577 v 0.648028 l -2.37615,-0.08637 c -2.91618,-0.129631 -5.119518,0.194423 -7.56047,1.12327 -5.3355341,1.98733 -9.5045954,6.718017 -11.0382901,12.550388 -0.5400348,2.052131 -0.6480414,5.983574 -0.2160132,7.992504 1.5984989,7.430861 7.668478,13.176814 15.1425463,14.364898 0.907257,0.129634 12.096756,0.216003 31.775582,0.216003 32.834058,0 32.077998,0.02155 35.512616,-1.144866 6.934037,-2.376152 12.204766,-8.165307 13.954476,-15.401765 0.604838,-2.419352 0.648038,-6.545198 0.129634,-8.87815 C 97.776602,69.46186 95.832474,65.919241 92.916296,62.895046 88.790434,58.617981 83.584506,56.28503 78.140975,56.26343 h -1.900928 l -0.432023,-1.036865 c -0.669644,-1.620092 -1.684909,-3.49942 -2.743375,-5.119511 -1.27447,-1.94413 -5.33553,-6.005174 -7.279643,-7.279659 -4.860306,-3.196998 -10.023033,-4.752304 -15.531382,-4.687487 -1.447289,0.02155 -2.851362,0.08637 -3.153783,0.129634 z m 6.609999,3.110597 c 5.141127,0.712844 10.044634,3.132197 13.738473,6.761218 2.743357,2.678573 4.644286,5.681152 6.113175,9.634195 0.388823,1.015265 0.777645,1.836127 0.885647,1.836127 0.10808,-0.02155 1.123266,-0.108081 2.246549,-0.19442 5.897172,-0.496824 11.664726,2.138533 15.401749,7.04204 5.702769,7.474062 5.097926,17.475495 -1.425672,23.999094 -1.663308,1.684908 -2.872992,2.505754 -5.162728,3.607436 -3.693838,1.74971 -0.604842,1.620092 -35.750235,1.684908 -34.994184,0.06481 -32.963659,0.129634 -36.225461,-1.447288 -5.4003383,-2.656973 -8.5541355,-7.668497 -8.5541355,-13.608854 0,-2.613772 0.3888242,-4.406683 1.4040877,-6.610016 2.8513775,-6.199592 8.8997558,-9.33179 16.2010138,-8.402925 1.296078,0.172803 2.570557,0.32402 2.808175,0.367221 0.388825,0.04326 0.453625,-0.194418 0.79925,-2.872976 0.82085,-6.415597 3.261802,-11.427121 7.517266,-15.423365 5.357135,-5.033108 12.744804,-7.38766 20.002846,-6.372395 z"
     id="path6772"
     style="stroke-width:0.0216013" />
  <path
     d="m 44.075616,64.471921 v 1.965713 l 7.085239,3.456219 7.063639,3.456218 -6.156376,3.045796 c -3.391416,1.663291 -6.566814,3.196997 -7.063655,3.434602 l -0.928847,0.388823 v 2.07373 2.05213 l 9.072568,-4.536284 9.094171,-4.536284 -0.06481,-1.900913 -0.06481,-1.879311 -8.85655,-4.471484 c -4.860306,-2.462553 -8.92135,-4.471484 -9.007768,-4.493083 -0.107922,0 -0.172802,0.885662 -0.172801,1.944128 z"
     id="path6774"
     style="stroke-width:0.0216013" />
</svg>
