<?xml version="1.0" encoding="UTF-8" standalone="no"?>
<!-- Created with Inkscape (http://www.inkscape.org/) -->

<svg
   width="100mm"
   height="100mm"
   viewBox="0 0 100 100"
   version="1.1"
   id="svg26768"
   xmlns="http://www.w3.org/2000/svg"
   xmlns:svg="http://www.w3.org/2000/svg">
  <defs
     id="defs26765" />
  <path
     d="M 52.405939,1.2397397 C 52.15136,1.3091158 45.185143,3.6003923 36.899742,6.3544723 27.410874,9.5019925 21.578693,11.561774 21.092678,11.908929 c -1.22661,0.925745 -1.527477,1.735768 -1.666338,4.559286 l -0.11572,2.522649 -1.782055,0.601734 c -1.041461,0.347154 -2.059779,0.879456 -2.476364,1.272897 -1.504333,1.458045 -1.411757,-0.948886 -1.411757,33.211033 0,33.974773 -0.09258,31.845565 1.388613,33.280466 0.694309,0.671164 2.545795,1.342326 16.084788,5.855325 15.066469,5.022156 15.321048,5.091587 17.241965,5.091587 1.920917,0 2.175496,-0.06942 17.010529,-4.999011 8.262259,-2.754087 15.413623,-5.253594 15.876494,-5.531317 1.365472,-0.879455 1.828344,-2.152352 1.828344,-4.883294 v -2.314359 l 1.920917,-0.624876 c 2.01349,-0.64802 2.777229,-1.249753 3.49468,-2.638368 0.324009,-0.671163 0.370297,-3.679829 0.370297,-31.822419 0,-29.855216 -0.02314,-31.128111 -0.439728,-32.030714 -0.231437,-0.532305 -0.786884,-1.226604 -1.20347,-1.527477 C 86.704715,11.538631 81.127113,9.5714311 71.26795,6.3081882 58.168684,1.9340515 55.900614,1.2397397 54.488855,1.1934555 53.6094,1.1471213 52.660513,1.1702885 52.405934,1.2396645 Z m 17.936273,7.7531024 c 11.548644,3.8418319 14.81189,4.9990099 15.228473,5.4387339 l 0.509159,0.57859 v 30.294947 c 0,22.171548 -0.06943,30.456949 -0.25458,30.873534 -0.231435,0.509157 -1.805198,1.296039 -2.568936,1.296039 -0.09256,0 -0.18515,-12.242953 -0.18515,-27.193705 0,-29.76264 0.09256,-28.003728 -1.388614,-29.43863 C 81.011401,20.194332 79.090484,19.500023 65.620921,14.987023 50.785889,10.05744 50.253586,9.8954326 48.471531,9.8954326 c -1.782055,0 -2.314358,0.1620074 -13.955578,4.0269934 l -12.080947,4.026979 v -1.689482 c 0,-1.2729 0.09256,-1.758908 0.370296,-1.990354 C 23.013594,14.08442 29.77152,11.746923 37.802341,9.0391262 51.06361,4.5955633 52.544799,4.1558267 54.02599,4.1326971 c 1.504331,-0.023167 2.59208,0.3008593 16.316222,4.860145 z m -5.901613,8.6788389 c 10.345178,3.42525 15.159044,5.137875 15.459911,5.461884 0.347153,0.416586 0.393439,1.110892 0.393439,6.804213 v 6.34134 H 67.333546 c -7.128222,0 -12.960403,0.04629 -12.960403,0.09258 0,0.04629 -0.06943,0.254579 -0.138861,0.462871 -0.11572,0.324011 1.157179,0.370296 12.890972,0.416583 l 13.052977,0.06943 0.06943,8.146539 0.04629,8.169684 H 68.375007 c -11.64122,0 -11.918943,0 -12.150379,0.462871 -0.25458,0.462871 -0.138861,0.462871 11.849512,0.509158 l 12.10409,0.06943 0.06943,8.14654 0.04629,8.169681 H 64.556297 c -15.45991,0 -15.714489,0 -15.969069,0.462872 -0.254579,0.462872 -0.138861,0.462872 15.668203,0.50916 l 15.922781,0.06942 0.06942,6.271909 c 0.04629,5.716464 0.02314,6.318198 -0.347154,6.757926 -0.601734,0.671163 -30.109793,10.460897 -31.544697,10.460897 -0.740592,0 -5.415597,-1.458046 -16.084786,-4.999012 -8.262251,-2.754086 -15.18218,-5.11473 -15.321042,-5.253592 -0.231436,-0.162005 -0.300866,-1.805199 -0.300866,-6.781068 v -6.572768 h 11.340352 c 11.17835,0 11.340354,0 11.340354,-0.462872 0,-0.462873 -0.162004,-0.462873 -11.340354,-0.462873 H 16.649086 v -8.215969 -8.21597 h 9.836022 c 5.415596,0 9.836019,-0.0463 9.836019,-0.09258 0,-0.04629 0.06943,-0.254579 0.138862,-0.462871 0.138861,-0.32401 -0.83317,-0.370296 -9.836021,-0.370296 h -9.974882 v -8.215977 -8.21597 H 30.65095 c 7.706812,0 14.001865,-0.04629 14.001865,-0.09258 0,-0.04629 0.06943,-0.254578 0.138861,-0.462871 0.138862,-0.324009 -1.203466,-0.370296 -14.001863,-0.370296 H 16.649086 v -6.572769 c 0,-4.975871 0.06943,-6.619064 0.300866,-6.781068 0.138862,-0.138862 7.058791,-2.499508 15.321049,-5.253593 10.530328,-3.494681 15.344193,-4.999014 16.084786,-4.999014 0.717451,0 5.461884,1.481192 16.084787,4.999014 z"
     id="path6180"
     style="stroke-width:0.0231436" />
  <path
     d="m 46.087742,40.583824 c -4.235275,8.863989 -7.660525,16.177361 -7.591094,16.223648 0.04629,0.06942 1.620052,-0.208294 3.471537,-0.57859 3.008666,-0.601734 3.378962,-0.624876 3.378962,-0.300867 0,0.208292 -1.249753,6.572776 -2.754085,14.140726 -1.527477,7.56795 -2.730943,13.793573 -2.707799,13.816716 0.02314,0.02314 3.540967,-7.938248 7.845673,-17.681694 4.281562,-9.76659 7.776242,-17.774267 7.729954,-17.797411 -0.02314,-0.02314 -1.596906,0.254579 -3.471536,0.64802 -1.897774,0.370298 -3.471536,0.648021 -3.517823,0.601733 -0.0463,-0.04629 1.180321,-5.647033 2.684654,-12.451244 1.527476,-6.804212 2.730942,-12.451245 2.684655,-12.566964 -0.02314,-0.09256 -3.517823,7.081935 -7.753098,15.945927 z"
     id="path6182"
     style="stroke-width:0.0231436" />
  <path
     d="m 22.435006,28.063149 v 1.504331 h 4.28156 4.281563 v -1.504331 -1.504335 h -4.281563 -4.28156 z"
     id="path6184"
     style="stroke-width:0.0231436" />
  <path
     d="m 34.006794,28.063149 v 1.504331 h 7.058791 7.058792 l 0.694307,-1.388614 c 0.370297,-0.763739 0.694307,-1.434902 0.694307,-1.504333 0,-0.06942 -3.49468,-0.11572 -7.753098,-0.11572 h -7.753099 z"
     id="path6186"
     style="stroke-width:0.0231436" />
  <path
     d="m 56.247774,27.577132 c -0.509161,2.013491 -0.509161,1.990348 1.712623,1.990348 h 1.967204 v -1.504331 -1.504335 h -1.712624 -1.712625 z"
     id="path6188"
     style="stroke-width:0.0231436" />
  <path
     d="m 62.936266,28.063149 v 1.504331 l 5.739609,-0.04629 5.716463,-0.06943 V 28.063146 26.67453 l -5.716463,-0.06942 -5.739609,-0.04629 z"
     id="path6190"
     style="stroke-width:0.0231436" />
  <path
     d="m 22.435006,45.42083 v 1.504333 h 8.67884 8.678843 l 0.694307,-1.388614 c 0.370297,-0.763739 0.694308,-1.434902 0.694308,-1.504332 0,-0.06943 -4.212132,-0.11572 -9.37315,-0.11572 h -9.373148 z"
     id="path6192"
     style="stroke-width:0.0231436" />
  <path
     d="m 52.637374,44.194221 c -0.231435,0.694309 -0.57859,2.175496 -0.57859,2.430075 0,0.231438 1.527477,0.300867 6.827357,0.300867 h 6.827355 V 45.42083 43.916497 h -6.480202 c -4.999012,0 -6.526489,0.06943 -6.59592,0.277724 z"
     id="path6194"
     style="stroke-width:0.0231436" />
  <path
     d="m 68.72216,45.42083 v 1.527476 l 2.846661,-0.06942 2.823517,-0.06943 v -1.388615 -1.388614 l -2.823517,-0.06942 -2.846661,-0.06943 z"
     id="path6196"
     style="stroke-width:0.0231436" />
  <path
     d="m 22.435006,62.778514 v 1.504332 l 5.739606,-0.0463 5.716464,-0.06943 v -1.388613 -1.388616 l -5.716464,-0.06942 -5.739606,-0.04629 z"
     id="path6198"
     style="stroke-width:0.0231436" />
  <path
     d="m 36.784024,62.778514 v 1.527476 l 2.013489,-0.06943 2.013492,-0.06942 0.277724,-1.319184 c 0.138862,-0.740595 0.208293,-1.388615 0.138862,-1.458046 -0.06943,-0.06943 -1.087749,-0.11572 -2.291215,-0.11572 h -2.152352 z"
     id="path6200"
     style="stroke-width:0.0231436" />
  <path
     d="m 52.429082,62.685941 c -0.32401,0.763736 -0.601732,1.434901 -0.601732,1.504331 0,0.04629 5.068443,0.06942 11.294065,0.04629 l 11.270923,-0.06943 V 62.778516 61.3899 l -10.669189,-0.06944 -10.669191,-0.04629 z"
     id="path6202"
     style="stroke-width:0.0231436" />
  <path
     d="m 22.435006,80.136197 v 1.504333 l 7.452231,-0.0463 7.452233,-0.06942 0.277723,-1.319184 c 0.138861,-0.740595 0.208292,-1.388615 0.138861,-1.458044 -0.06943,-0.06943 -3.540967,-0.11572 -7.729955,-0.11572 h -7.591093 z"
     id="path6204"
     style="stroke-width:0.0231436" />
  <path
     d="m 44.791701,80.043622 c -0.324009,0.763738 -0.601734,1.434904 -0.601734,1.504333 0,0.0463 6.804214,0.06943 15.112758,0.0463 l 15.089613,-0.06945 v -1.388614 -1.388614 l -14.487881,-0.06943 -14.487879,-0.04629 z"
     id="path6206"
     style="stroke-width:0.0231436" />
</svg>
