<?xml version="1.0" encoding="UTF-8" standalone="no"?>
<!-- Created with Inkscape (http://www.inkscape.org/) -->

<svg
   width="100mm"
   height="100mm"
   viewBox="0 0 100 100"
   version="1.1"
   id="svg26768"
   xmlns="http://www.w3.org/2000/svg"
   xmlns:svg="http://www.w3.org/2000/svg">
  <defs
     id="defs26765" />
  <path
     d="m 31.739035,6.8592732 -16.930308,5.6604348 -0.943405,1.070893 c -0.535447,0.586441 -1.019899,1.427858 -1.121889,1.861314 -0.0765,0.433456 -0.152984,16.063396 -0.152984,34.702034 0,37.073298 -0.101989,34.753029 1.529846,36.333872 0.764924,0.739426 2.804721,1.478851 17.720731,6.450856 16.598842,5.532947 16.879314,5.609439 18.995602,5.609439 2.116289,0 2.396762,-0.0765 18.740629,-5.507448 9.10259,-3.034199 16.981303,-5.787924 17.491253,-6.093894 0.535446,-0.356964 1.172882,-1.070893 1.478852,-1.708329 l 0.535447,-1.121887 V 49.898974 c 0,-37.455759 0.101989,-35.109992 -1.529848,-36.690835 C 86.788038,12.468713 84.748242,11.729287 69.832231,6.7572838 53.02941,1.1733411 52.978416,1.1478435 50.836628,1.1733411 48.72034,1.1988398 48.312381,1.3008293 31.739035,6.8592732 Z m 36.818323,2.8557149 c 11.397362,3.7736229 16.700832,5.6604349 17.032299,6.0173989 0.382462,0.458954 0.433458,1.223878 0.433458,7.496251 v 6.986303 H 71.74454 c -7.853215,0 -14.278573,0.05098 -14.278573,0.101989 0,0.051 -0.0765,0.280473 -0.152985,0.50995 -0.152985,0.356964 1.223878,0.40796 14.278575,0.40796 h 14.431558 v 9.051594 9.051596 H 72.891926 c -12.850716,0 -13.131188,0 -13.386163,0.50995 -0.280472,0.509949 -0.20398,0.509949 13.131189,0.509949 h 13.386163 v 9.051601 9.051596 H 68.684846 c -17.057796,0 -17.31277,0 -17.593244,0.509949 -0.280471,0.509949 -0.203978,0.509949 17.33827,0.509949 h 17.593243 v 6.960805 c 0,5.762424 -0.0765,7.037297 -0.382463,7.496251 -0.560944,0.79042 -32.866217,11.550347 -34.676535,11.550347 -0.968904,0 -5.201481,-1.300369 -17.848218,-5.507451 C 24.013308,86.946779 16.389569,84.34604 16.211087,84.193055 15.98161,84.014573 15.905118,82.204253 15.905118,76.722301 V 69.481024 H 28.39887 c 12.315269,0 12.493752,0 12.493752,-0.509949 0,-0.509949 -0.178483,-0.509949 -12.493752,-0.509949 H 15.905118 V 59.40953 50.357934 h 10.836417 c 5.966404,0 10.836419,-0.05099 10.836419,-0.101989 0,-0.05099 0.0765,-0.280472 0.152984,-0.509949 0.152984,-0.356964 -0.917909,-0.407959 -10.836418,-0.407959 H 15.905118 v -9.051592 -9.051596 h 15.42596 c 8.490651,0 15.425959,-0.05099 15.425959,-0.101989 0,-0.05099 0.0765,-0.280472 0.152984,-0.509949 0.152985,-0.356964 -1.325867,-0.407959 -15.425958,-0.407959 H 15.905118 v -7.241277 c 0,-5.481954 0.0765,-7.292271 0.331466,-7.470755 0.152985,-0.152983 7.776724,-2.753725 16.879315,-5.7879214 11.601341,-3.8501152 16.904812,-5.5074498 17.720729,-5.5074498 0.790422,0 6.017399,1.6318369 17.72073,5.5074498 z"
     id="path6218"
     style="stroke-width:0.0254974" />
  <path
     d="m 48.337878,34.982964 c -4.666034,9.740027 -8.439658,17.797223 -8.363165,17.848218 0.051,0.0765 1.784822,-0.229477 3.824619,-0.637436 3.314668,-0.662934 3.722627,-0.688432 3.722627,-0.331467 0,0.229477 -1.376862,7.241276 -3.034197,15.578943 -1.682831,8.337667 -3.008699,15.196483 -2.983202,15.22198 0.0255,0.0255 3.926609,-8.745626 8.643638,-19.480055 4.717028,-10.759924 8.567144,-19.556546 8.51615,-19.60754 -0.0255,-0.0255 -1.759326,0.280471 -3.824619,0.713927 -2.090791,0.40796 -3.824619,0.71393 -3.875612,0.662934 -0.05099,-0.05098 1.300369,-6.221377 2.957704,-13.717628 1.682831,-7.496252 3.008698,-13.717631 2.983201,-13.819621 -0.05098,-0.101989 -3.901109,7.802222 -8.567144,17.567745 z"
     id="path6220"
     style="stroke-width:0.0254974" />
  <path
     d="m 22.279481,21.163344 v 1.657336 h 4.717029 4.717029 V 21.163344 19.50601 H 26.99651 22.279481 Z"
     id="path6222"
     style="stroke-width:0.0254974" />
  <path
     d="m 35.028207,21.163344 v 1.657336 h 7.776724 7.776723 l 0.764924,-1.529848 c 0.40796,-0.841415 0.764924,-1.580842 0.764924,-1.657334 0,-0.0765 -3.850116,-0.127493 -8.541648,-0.127493 h -8.541647 z"
     id="path6224"
     style="stroke-width:0.0254974" />
  <path
     d="m 59.53126,20.780884 c -0.458954,2.116289 -0.535445,2.039796 1.886812,2.039796 h 2.167283 V 21.163344 19.50601 h -1.886811 -1.886812 z"
     id="path6226"
     style="stroke-width:0.0254974" />
  <path
     d="m 66.900024,21.163344 v 1.657336 l 6.323369,-0.05098 6.297871,-0.0765 v -1.529853 -1.529846 l -6.297871,-0.0765 -6.323369,-0.05099 z"
     id="path6228"
     style="stroke-width:0.0254974" />
  <path
     d="m 22.279481,40.286434 v 1.657334 h 9.561545 9.561545 l 0.764923,-1.529845 c 0.407959,-0.841416 0.764924,-1.580843 0.764924,-1.657335 0,-0.0765 -4.640536,-0.127493 -10.326468,-0.127493 H 22.279481 Z"
     id="path6230"
     style="stroke-width:0.0254974" />
  <path
     d="m 55.553658,38.93507 c -0.254976,0.764923 -0.637437,2.39676 -0.637437,2.677233 0,0.254974 1.682832,0.331465 7.521749,0.331465 h 7.521749 V 40.286434 38.6291 h -7.139287 c -5.50745,0 -7.190283,0.0765 -7.266774,0.30597 z"
     id="path6232"
     style="stroke-width:0.0254974" />
  <path
     d="m 73.274388,40.286434 v 1.682833 l 3.136186,-0.0765 3.11069,-0.0765 v -1.529848 -1.529846 l -3.11069,-0.0765 -3.136186,-0.0765 z"
     id="path6234"
     style="stroke-width:0.0254974" />
  <path
     d="m 22.279481,59.409525 v 1.657334 l 6.323367,-0.05098 6.297873,-0.0765 v -1.529846 -1.529848 l -6.297873,-0.0765 -6.323367,-0.051 z"
     id="path6236"
     style="stroke-width:0.0254974" />
  <path
     d="m 38.087903,59.409525 v 1.682831 l 2.218278,-0.0765 2.218277,-0.0765 0.30597,-1.453355 c 0.152985,-0.815916 0.229477,-1.529844 0.152985,-1.606336 -0.0765,-0.0765 -1.198379,-0.12748 -2.524249,-0.12748 h -2.371261 z"
     id="path6238"
     style="stroke-width:0.0254974" />
  <path
     d="m 55.42617,59.078058 c -0.305968,0.739427 -0.61194,1.50435 -0.688431,1.682831 -0.101989,0.254975 2.396761,0.30597 12.31527,0.254975 l 12.468255,-0.0765 V 59.409517 57.87967 L 67.766938,57.80317 56.012612,57.75218 Z"
     id="path6240"
     style="stroke-width:0.0254974" />
  <path
     d="m 22.279481,78.532615 v 1.657334 l 8.21018,-0.051 8.21018,-0.0765 0.203979,-1.0199 c 0.10199,-0.560944 0.254974,-1.274872 0.331468,-1.606339 l 0.127493,-0.560944 h -8.541652 -8.541648 z"
     id="path6242"
     style="stroke-width:0.0254974" />
  <path
     d="m 47.012011,78.201148 c -0.30597,0.739426 -0.61194,1.50435 -0.688431,1.682832 -0.101989,0.254974 3.238176,0.305969 16.522349,0.254974 l 16.675335,-0.0765 v -1.529848 -1.529847 l -15.961406,-0.0765 -15.961406,-0.05099 z"
     id="path6244"
     style="stroke-width:0.0254974" />
</svg>
