<?xml version="1.0" encoding="UTF-8" standalone="no"?>
<!-- Created with Inkscape (http://www.inkscape.org/) -->

<svg
   width="100mm"
   height="100mm"
   viewBox="0 0 100 100"
   version="1.1"
   id="svg26768"
   sodipodi:docname="a system.svg"
   inkscape:version="1.1.1 (3bf5ae0d25, 2021-09-20)"
   xmlns:inkscape="http://www.inkscape.org/namespaces/inkscape"
   xmlns:sodipodi="http://sodipodi.sourceforge.net/DTD/sodipodi-0.dtd"
   xmlns="http://www.w3.org/2000/svg"
   xmlns:svg="http://www.w3.org/2000/svg">
  <sodipodi:namedview
     id="namedview26770"
     pagecolor="#ffffff"
     bordercolor="#666666"
     borderopacity="1.0"
     inkscape:pageshadow="2"
     inkscape:pageopacity="0.0"
     inkscape:pagecheckerboard="0"
     inkscape:document-units="mm"
     showgrid="false"
     width="209mm"
     inkscape:zoom="0.7500982"
     inkscape:cx="13.998167"
     inkscape:cy="241.96832"
     inkscape:window-width="1920"
     inkscape:window-height="1027"
     inkscape:window-x="1912"
     inkscape:window-y="-8"
     inkscape:window-maximized="1"
     inkscape:current-layer="layer1" />
  <defs
     id="defs26765" />
  <g
     inkscape:label="Layer 1"
     inkscape:groupmode="layer"
     id="layer1">
    <path
       d="m 18.147994,1.2811454 c -2.665269,0.8440025 -4.419886,2.7096885 -5.108417,5.3749379 -0.310942,1.199383 -0.333152,5.9746297 -0.288732,43.5325847 l 0.06654,42.177749 0.732952,1.488113 c 0.866194,1.776827 2.265468,3.087261 3.953454,3.731353 1.199382,0.444221 1.576954,0.444221 32.738287,0.444221 31.161333,0 31.538923,0 32.738288,-0.444221 1.687987,-0.644092 3.08726,-1.954526 3.953455,-3.731353 l 0.732951,-1.488113 0.06656,-42.177749 C 87.777837,12.675133 87.755589,7.8554663 87.444611,6.6560833 86.844919,4.3461954 85.490084,2.7026294 83.335667,1.6587358 L 82.114092,1.0812545 50.575169,1.0367589 C 25.566147,1.0145111 18.858584,1.0590067 18.147842,1.2810699 Z m 64.18835,2.9539995 c 1.110524,0.5996915 1.776846,1.2882047 2.221048,2.3320981 0.288732,0.7329519 0.33317,4.486534 0.33317,33.315769 v 32.493959 l -0.621902,1.332624 c -0.732952,1.510324 -2.043366,2.820739 -3.575882,3.531481 l -1.021683,0.466412 H 50.242168 20.813261 l -1.021683,-0.466412 c -1.421485,-0.666322 -2.776319,-1.954527 -3.487061,-3.287151 l -0.599672,-1.132753 -0.06655,-32.538377 c -0.04449,-22.699136 0,-32.7827092 0.177605,-33.3601716 0.421991,-1.4881143 1.754616,-2.6652683 3.44262,-3.0872603 0.377573,-0.088802 14.503459,-0.1332983 31.427873,-0.1332983 l 30.761532,0.044496 z M 17.637161,77.018956 c 0.421991,0.31096 1.243784,0.799582 1.865667,1.066122 l 1.088314,0.510833 h 29.651026 29.651028 l 1.088313,-0.510833 c 1.465886,-0.666321 2.465359,-1.443694 3.264941,-2.554218 l 0.666322,-0.910632 -0.06675,8.884209 -0.06656,8.9064 -0.644112,0.910632 c -0.3998,0.577482 -1.043894,1.132735 -1.754636,1.488115 l -1.132733,0.555252 H 50.264342 c -29.606607,0 -31.050283,-0.02225 -31.894286,-0.421992 -1.088314,-0.48864 -2.065576,-1.443694 -2.465358,-2.398747 -0.244312,-0.555253 -0.310942,-2.554198 -0.310942,-9.3062 v -8.595459 l 0.644093,0.888422 c 0.355381,0.510852 0.999473,1.177155 1.399273,1.488096 z"
       id="path6165"
       style="stroke-width:0.0222106" />
    <path
       d="m 22.789997,84.481699 c -0.244329,0.0888 -0.732951,0.488622 -1.043893,0.888423 -0.866213,1.021683 -0.844003,2.398728 0.0888,3.375992 0.466412,0.510832 0.599673,0.577462 0.444202,0.244311 -0.421992,-0.844003 -0.288732,-1.621356 0.421992,-2.332097 0.577482,-0.555272 0.799582,-0.644113 1.399274,-0.533062 0.399783,0.0888 0.910633,0.33317 1.132733,0.57748 0.577464,0.577482 0.577464,1.821267 0.02225,2.46536 -0.444201,0.488641 -0.444201,0.488641 0.0445,0.222119 1.154944,-0.599692 1.643584,-2.132226 1.088313,-3.420429 -0.555252,-1.354837 -2.221048,-2.043369 -3.598093,-1.488097 z"
       id="path6167"
       style="stroke-width:0.0222106" />
  </g>
</svg>
