<?xml version="1.0" encoding="UTF-8" standalone="no"?>
<!-- Created with Inkscape (http://www.inkscape.org/) -->

<svg
   width="100mm"
   height="100mm"
   viewBox="0 0 100 100"
   version="1.1"
   id="svg26768"
   xmlns="http://www.w3.org/2000/svg"
   xmlns:svg="http://www.w3.org/2000/svg">
  <defs
     id="defs26765" />
  <path
     d="M 7.3721603,20.304014 C 5.0257539,21.151327 2.874881,23.237021 1.8972114,25.648606 l -0.499697,1.260106 -0.065175,31.806841 c -0.02173,20.791765 0.021729,32.219635 0.1738082,33.001769 0.5214234,2.846104 2.4115838,5.366317 4.9752507,6.626425 l 1.433914,0.695231 H 50.280982 92.64665 l 1.433912,-0.695231 c 2.541946,-1.260108 4.432108,-3.758595 4.975254,-6.582973 0.325886,-1.694627 0.304167,-63.266065 -0.02178,-64.786883 C 98.447472,24.279869 96.405236,21.716202 93.906745,20.543 L 92.646639,19.956398 50.606861,19.912949 C 9.4143947,19.891219 8.5453548,19.891219 7.3721518,20.304017 Z m 85.5134737,3.171993 c 1.129749,0.608328 2.520213,2.172599 2.889553,3.258897 0.173807,0.477973 0.325892,2.346408 0.391069,4.562457 l 0.108632,3.758597 H 50.280978 4.2870702 L 4.3957027,31.297361 C 4.4608766,29.081312 4.6129621,27.212877 4.7867705,26.734904 5.3081937,25.19236 7.0245466,23.606363 8.6757211,23.08494 8.9798834,22.998031 27.838038,22.932857 50.606871,22.954584 l 41.388,0.04346 z m -79.25639,19.227495 0.04345,4.519007 H 9.001604 4.3305171 v -4.410377 c 0,-2.433309 0.065167,-4.497278 0.1520801,-4.584181 0.086907,-0.06518 2.1508741,-0.108633 4.6059094,-0.08691 l 4.4755534,0.06517 z m 27.41819,-0.04345 V 47.22251 H 28.880882 16.714334 v -4.562456 -4.562458 h 12.166548 12.166552 z m 55.183998,0 V 47.22251 H 70.160253 44.089073 v -4.410375 c 0,-2.43331 0.06517,-4.497278 0.152081,-4.562456 0.06517,-0.08691 11.79721,-0.152083 26.071181,-0.152083 h 25.919097 z m -82.602188,12.31863 -0.06517,4.519003 H 9.0016163 4.4391611 l -0.065167,-4.518999 -0.043458,-4.497279 h 4.6710846 4.6710873 z m 27.41819,0.06517 v 4.562456 H 28.880882 16.714334 v -4.562455 -4.562457 h 12.166548 12.166552 z m 55.183998,0 v 4.562456 l -26.006001,-0.04345 -26.027728,-0.06517 -0.06517,-4.519005 -0.04345,-4.497279 H 70.16027 96.231447 Z m -82.602188,12.101382 -0.06517,4.519003 H 9.0016204 4.4391654 l -0.065167,-4.519003 -0.043458,-4.497279 h 4.6710854 4.6710875 z m 27.41819,0.06517 v 4.562455 H 28.880882 16.714334 v -4.562455 -4.562458 h 12.166548 12.166552 z m 55.183998,0 v 4.562455 H 70.160253 44.089073 v -4.562455 -4.562458 h 26.07118 26.071179 z m -82.602188,12.210001 -0.06517,4.627634 H 9.0016163 4.4391611 l -0.065167,-4.627628 -0.043458,-4.605909 h 4.6710846 4.6710873 z m 27.41819,0.06517 V 84.15666 H 28.880882 16.714334 v -4.671085 -4.671087 h 12.166548 12.166552 z m 55.140549,-0.06517 -0.06517,4.627634 h -25.96256 -25.96255 l -0.06517,-4.627631 -0.04346,-4.605907 h 26.071183 26.071178 z m -82.558739,12.27518 -0.06517,4.519005 -2.389858,-0.02173 c -1.9987903,0 -2.5419391,-0.0869 -3.280623,-0.477971 C 5.4385543,94.454787 4.5912413,92.93397 4.3957079,89.501262 L 4.2653516,87.198309 h 4.714538 4.6928134 z m 27.41819,0.06518 v 4.562457 H 28.880882 16.714334 v -4.562457 -4.562456 h 12.166548 12.166552 z m 55.183998,-2.650569 c 0,1.064574 -0.152079,2.411584 -0.325885,2.998185 -0.412797,1.390464 -1.585999,2.759201 -3.019913,3.51961 l -1.108026,0.58662 H 67.987656 44.197703 l -0.06517,-4.519004 -0.04346,-4.49728 h 26.07118 26.071181 z"
     id="path7352"
     style="stroke-width:0.0217261" />
</svg>
