<?xml version="1.0" encoding="UTF-8" standalone="no"?>
<!-- Created with Inkscape (http://www.inkscape.org/) -->

<svg
   width="100mm"
   height="100mm"
   viewBox="0 0 100 100"
   version="1.1"
   id="svg26768"
   xmlns="http://www.w3.org/2000/svg"
   xmlns:svg="http://www.w3.org/2000/svg">
  <defs
     id="defs26765" />
  <path
     d="M 10.174339,2.0453239 C 8.2863527,2.6521747 8.0166407,2.8319904 4.9823752,5.8213036 2.6898189,8.0689043 1.9930615,8.9005248 1.4985904,10.001841 l -0.65180548,1.393518 v 15.396092 15.396078 l 0.53942498,1.348563 c 0.4944731,1.281132 1.7756062,2.607219 27.0836221,27.937719 14.586949,14.631902 26.813912,26.74648 27.151052,26.926281 1.011422,0.516957 2.247601,0.404573 3.236561,-0.337127 0.471989,-0.359631 9.394973,-9.170232 19.778907,-19.599118 C 98.842313,58.212949 98.392785,58.707415 97.853351,57.066664 97.67355,56.549722 89.851898,48.615682 70.814684,29.578471 46.990086,5.7988267 43.865925,2.7420826 42.764594,2.2700937 L 41.528416,1.7306601 26.469466,1.6857338 C 12.556801,1.6408075 11.320618,1.6632016 10.174339,2.0453378 Z M 41.77565,4.8997892 c 0.651803,0.2472329 7.7767,7.2597588 27.173527,26.6340968 L 95.246137,57.808377 76.141505,76.913004 57.036879,96.017644 30.784863,69.788107 C 12.646705,51.672424 4.3755225,43.266382 4.0833346,42.637055 3.6787652,41.782971 3.6562892,40.951351 3.6562892,26.903821 c 0,-13.890189 0.044958,-14.901611 0.4270454,-15.733218 0.4944722,-1.123807 5.1020597,-5.6864401 6.2708134,-6.2258598 0.764185,-0.3596179 2.112749,-0.3820948 15.688281,-0.4045718 13.036093,0 14.96903,0.044926 15.733221,0.3596178 z"
     id="path6170"
     style="stroke-width:0.022476" />
  <path
     d="m 19.546848,16.11533 c -4.854822,1.843029 -6.180908,8.091365 -2.472366,11.597635 1.505894,1.460935 2.60722,1.887984 4.787398,1.887984 2.225126,0 3.551214,-0.516943 4.967202,-1.932937 1.50589,-1.505902 1.887984,-2.494848 1.887984,-4.92225 0,-1.775611 -0.08985,-2.292555 -0.516943,-3.079222 -0.741713,-1.415994 -1.685704,-2.382461 -3.01179,-3.101698 -0.966467,-0.53942 -1.505895,-0.651804 -2.989312,-0.719222 -1.191232,-0.04493 -2.090275,0.04493 -2.652173,0.26971 z m 3.843403,2.697126 c 1.101324,0.471989 1.820559,1.168747 2.315024,2.247602 1.078855,2.315032 -0.247232,5.057111 -2.764547,5.731393 -2.135225,0.584374 -4.54016,-0.83162 -5.102058,-2.989313 -0.831613,-3.326454 2.472361,-6.270813 5.551581,-4.989682 z"
     id="path6172"
     style="stroke-width:0.022476" />
  <path
     d="m 45.281919,25.690121 c -0.719236,0.26971 -1.101345,1.191224 -0.741714,1.865506 0.157326,0.292187 6.675372,6.900142 14.497041,14.72181 11.620113,11.597635 14.294761,14.182377 14.789228,14.182377 0.764189,0 1.595795,-0.988945 1.393517,-1.663228 -0.157338,-0.561896 -28.544569,-29.06151 -29.083989,-29.196374 -0.179815,-0.04493 -0.584375,0 -0.854083,0.08985 z"
     id="path6174"
     style="stroke-width:0.022476" />
  <path
     d="m 35.122741,35.736915 c -1.191225,0.966467 -1.168763,1.011422 8.361089,10.518781 4.967203,4.989681 9.01288,8.855554 9.237649,8.855554 0.561897,0 1.505889,-1.011422 1.505889,-1.595796 0,-0.382095 -2.382449,-2.899405 -8.47346,-9.03537 -7.709285,-7.709284 -9.260127,-9.147742 -9.911932,-9.147742 -0.134917,0 -0.449526,0.179802 -0.719235,0.404573 z"
     id="path6176"
     style="stroke-width:0.022476" />
  <path
     d="m 25.165854,45.626368 c -1.011421,1.123793 -1.191228,0.899037 11.597637,13.710374 6.563001,6.585476 12.249439,12.137069 12.58658,12.31687 0.943991,0.494481 1.820552,0.02254 1.910461,-1.0339 C 51.327987,69.855524 50.945868,69.473443 39.011091,57.516189 26.019954,44.569991 26.087369,44.614946 25.165854,45.626368 Z"
     id="path6178"
     style="stroke-width:0.022476" />
</svg>
