<?xml version="1.0" encoding="UTF-8" standalone="no"?>
<!-- Created with Inkscape (http://www.inkscape.org/) -->

<svg
   width="100mm"
   height="100mm"
   viewBox="0 0 100 100"
   version="1.1"
   id="svg26768"
   sodipodi:docname="a thrid party app.svg"
   inkscape:version="1.1.1 (3bf5ae0d25, 2021-09-20)"
   xmlns:inkscape="http://www.inkscape.org/namespaces/inkscape"
   xmlns:sodipodi="http://sodipodi.sourceforge.net/DTD/sodipodi-0.dtd"
   xmlns="http://www.w3.org/2000/svg"
   xmlns:svg="http://www.w3.org/2000/svg">
  <sodipodi:namedview
     id="namedview26770"
     pagecolor="#ffffff"
     bordercolor="#666666"
     borderopacity="1.0"
     inkscape:pageshadow="2"
     inkscape:pageopacity="0.0"
     inkscape:pagecheckerboard="0"
     inkscape:document-units="mm"
     showgrid="false"
     width="209mm"
     inkscape:zoom="0.7500982"
     inkscape:cx="13.998167"
     inkscape:cy="241.96832"
     inkscape:window-width="1920"
     inkscape:window-height="1027"
     inkscape:window-x="1912"
     inkscape:window-y="-8"
     inkscape:window-maximized="1"
     inkscape:current-layer="layer1" />
  <defs
     id="defs26765" />
  <g
     inkscape:label="Layer 1"
     inkscape:groupmode="layer"
     id="layer1">
    <path
       d="m 13.354837,31.338239 c -3.6262701,0.973912 -6.6516131,3.481215 -8.2471831,6.817386 -1.388335,2.921738 -1.3261673,1.595559 -1.3261673,26.316352 0,25.010903 -0.062209,23.684724 1.4919413,26.689348 1.160405,2.217205 3.066792,4.123591 5.2839971,5.283996 3.066791,1.595547 0.186491,1.491952 39.868247,1.491952 34.874339,0 35.578883,0 37.17443,-0.414434 4.330803,-1.098237 7.936351,-4.703799 9.158931,-9.138196 0.35226,-1.222573 0.37298,-2.983905 0.37298,-23.912666 0,-21.281016 -0.0208,-22.669362 -0.37298,-23.933373 -1.28474,-4.496577 -4.911003,-8.081398 -9.366141,-9.221084 -1.802771,-0.455872 -72.338891,-0.455872 -74.038055,0.02066 z m 73.416409,2.859569 c 2.818131,0.745982 5.18039,2.735244 6.485838,5.44977 l 0.766699,1.616278 0.0622,22.772979 c 0.0414,20.348554 0.0208,22.918012 -0.290108,23.933374 -0.870307,3.066791 -3.37761,5.636262 -6.568726,6.734499 l -1.284729,0.435154 -34.294143,0.06221 C 29.289731,95.243512 16.732477,95.181292 15.592791,95.057016 11.324157,94.538976 7.7600429,91.34786 6.8897479,87.245 6.7446929,86.561185 6.6825249,78.873492 6.7239749,63.850385 l 0.0621,-22.379264 0.476603,-1.201854 c 1.118962,-2.735241 3.5848271,-5.056051 6.3200711,-5.926357 1.264023,-0.393704 2.113598,-0.414435 36.718569,-0.414435 28.947991,-0.02066 35.620322,0.04144 36.46991,0.26938 z"
       id="path6751"
       style="stroke-width:0.0207216" />
    <path
       d="m 49.058045,43.584665 c -0.207212,0.06221 -3.709157,1.8235 -7.77058,3.937099 -4.64162,2.424415 -7.646244,4.10286 -8.122834,4.558732 -0.414436,0.414434 -0.953195,1.201855 -1.201855,1.740613 -0.414434,0.994631 -0.435153,1.264011 -0.372997,10.298613 0.06221,8.723762 0.08287,9.303958 0.476603,10.09139 0.7667,1.554109 1.699164,2.155035 9.366138,6.112841 l 7.418313,3.833493 h 1.657726 l 1.657715,-0.02078 7.439032,-3.895649 c 4.330803,-2.279361 7.708412,-4.185748 8.081409,-4.579452 1.491941,-1.491953 1.471222,-1.243292 1.533389,-11.541894 0.06221,-9.0346 0.04144,-9.30398 -0.372995,-10.298612 C 68.598458,53.2823 68.0597,52.494881 67.645265,52.080447 67.147956,51.603855 64.288375,50.008297 59.626025,47.6046 55.6475,45.55317 52.124825,43.771119 51.77257,43.646783 51.150924,43.439571 49.804015,43.398122 49.058045,43.584573 Z m 9.366138,6.693062 c 7.128214,3.688438 7.314707,3.792044 7.72913,4.641631 0.393716,0.828858 0.414434,1.243292 0.414434,8.848098 0,4.620901 -0.08287,8.267889 -0.207211,8.703042 -0.124336,0.393705 -0.414434,0.932464 -0.663095,1.160405 -0.766701,0.683814 -14.608685,7.729131 -15.209612,7.729131 -0.414435,0 -13.261787,-6.444401 -15.064557,-7.542638 -0.932474,-0.580208 -0.973912,-1.03608 -0.973912,-10.029221 0,-8.454395 0,-8.475113 0.476591,-9.158927 0.352267,-0.51804 1.450514,-1.201843 4.807405,-2.942455 9.780561,-5.097504 10.340038,-5.366884 10.878809,-5.263267 0.290099,0.0621 3.792032,1.782051 7.812018,3.854201 z"
       id="path6753"
       style="stroke-width:0.0207216" />
    <path
       d="m 48.12557,55.582442 c -3.253273,0.870306 -5.65697,3.584831 -6.257897,7.086765 -0.828869,4.931729 2.859569,9.59408 7.894905,9.925616 2.673075,0.186493 4.890279,-0.600915 6.71378,-2.382978 1.927094,-1.885657 2.735244,-3.999255 2.590189,-6.775937 -0.290098,-5.491207 -5.574095,-9.283251 -10.940977,-7.853466 z m 4.869562,3.149678 c 2.838861,1.471222 4.061434,5.014605 2.693807,7.832736 -1.015362,2.07215 -2.921737,3.191117 -5.366884,3.191117 -3.937087,-0.02078 -6.672331,-3.978536 -5.366871,-7.791299 0.435153,-1.284729 2.092867,-3.004624 3.377609,-3.460496 1.264011,-0.47659 3.543383,-0.352266 4.662339,0.227942 z"
       id="path6755"
       style="stroke-width:0.0207216" />
  </g>
</svg>
