<?xml version="1.0" encoding="UTF-8" standalone="no"?>
<!-- Created with Inkscape (http://www.inkscape.org/) -->

<svg
   width="100mm"
   height="100mm"
   viewBox="0 0 100 100"
   version="1.1"
   id="svg26768"
   sodipodi:docname="a time.svg"
   inkscape:version="1.2.1 (9c6d41e410, 2022-07-14)"
   xmlns:inkscape="http://www.inkscape.org/namespaces/inkscape"
   xmlns:sodipodi="http://sodipodi.sourceforge.net/DTD/sodipodi-0.dtd"
   xmlns="http://www.w3.org/2000/svg"
   xmlns:svg="http://www.w3.org/2000/svg">
  <sodipodi:namedview
     id="namedview26770"
     pagecolor="#ffffff"
     bordercolor="#666666"
     borderopacity="1.0"
     inkscape:pageshadow="2"
     inkscape:pageopacity="0.0"
     inkscape:pagecheckerboard="0"
     inkscape:document-units="mm"
     showgrid="false"
     width="209mm"
     inkscape:zoom="0.7500982"
     inkscape:cx="14.664747"
     inkscape:cy="137.31535"
     inkscape:window-width="1920"
     inkscape:window-height="1009"
     inkscape:window-x="3832"
     inkscape:window-y="-8"
     inkscape:window-maximized="1"
     inkscape:current-layer="layer1"
     inkscape:showpageshadow="2"
     inkscape:deskcolor="#d1d1d1" />
  <defs
     id="defs26765" />
  <g
     inkscape:label="Layer 1"
     inkscape:groupmode="layer"
     id="layer1">
    <path
       d="m 45.261289,2.4300507 c -1.096715,0.4825527 -1.403788,1.1186453 -1.403788,2.8733848 0,2.2153559 0.855439,3.180463 2.851446,3.180463 h 0.877366 v 2.3030945 c 0,1.272185 -0.0878,2.303095 -0.197406,2.303095 -0.723828,0 -5.637097,0.965105 -7.216349,1.425723 C 19.400831,20.503857 6.3280352,40.814955 9.5523687,62.178893 11.416782,74.637536 18.85248,85.714323 29.841527,92.404263 41.027981,99.225811 55.329101,100.41026 67.656139,95.540858 80.838617,90.320511 90.862558,78.497961 93.779801,64.745199 95.578421,56.212783 94.810717,47.592631 91.564444,39.564703 89.129753,33.510855 84.391949,26.952521 79.741901,23.179832 79.083868,22.631477 78.53552,22.126989 78.513577,22.039254 c 0,-0.08775 0.307089,-0.658028 0.658032,-1.250252 0.54835,-0.899304 0.811568,-1.096712 1.381861,-1.162514 0.54835,-0.04386 0.789627,-0.241276 1.14057,-0.877369 0.438698,-0.811568 0.438698,-0.811568 0,-1.381857 -0.241276,-0.329013 -1.250252,-1.074777 -2.259213,-1.71087 -1.579267,-0.943171 -1.908283,-1.074776 -2.412778,-0.899304 -0.855424,0.307081 -1.31605,1.228318 -1.00896,2.01795 0.219333,0.57029 0.175463,0.789632 -0.372886,1.667001 -0.350959,0.548357 -0.701903,1.008975 -0.767699,1.008975 -0.0878,0 -0.701903,-0.329014 -1.381862,-0.745764 -4.321048,-2.610172 -10.24329,-4.671991 -15.419762,-5.395821 l -1.930211,-0.26321 V 10.765058 8.4838985 h 0.899309 c 2.105674,0 3.180463,-1.2502518 3.004984,-3.5314124 -0.109709,-1.4257233 -0.50448,-2.0398827 -1.645065,-2.5224354 -1.008976,-0.4386845 -12.151559,-0.4167511 -13.138608,0 z M 56.886426,16.27055 c 15.310095,2.017949 28.031947,12.568313 32.791676,27.176511 1.425731,4.364911 1.842473,7.150559 1.864416,12.195432 0,4.671991 -0.285147,6.821546 -1.425732,10.857443 -3.992031,14.257251 -15.924242,25.246301 -30.598247,28.20742 -3.026925,0.592223 -9.387852,0.811566 -12.546373,0.41675 -7.391843,-0.921232 -14.674005,-4.1017 -20.44271,-8.883362 C 6.0648161,69.197847 7.7537661,37.371279 29.929267,22.609542 37.913316,17.301459 47.520517,15.042233 56.886426,16.27055 Z"
       id="path20188"
       style="stroke-width:0.0219343" />
    <path
       d="m 28.832553,40.178862 c -0.67996,0.658026 -0.701903,1.294119 -0.04382,1.930213 0.26322,0.263209 4.540382,3.136595 9.49752,6.404793 l 9.014966,5.900308 -0.02191,1.118646 c -0.06588,4.935203 6.689942,6.470599 8.773691,1.996015 0.833495,-1.776672 0.614161,-3.465608 -0.63609,-4.891333 -1.381858,-1.557331 -3.421737,-1.996014 -5.41776,-1.140581 l -1.052831,0.46062 -9.300127,-6.163518 c -5.154543,-3.399806 -9.541389,-6.163519 -9.804592,-6.163519 -0.263218,0 -0.72383,0.241276 -1.008976,0.548356 z"
       id="path20190"
       style="stroke-width:0.0219343" />
  </g>
</svg>
