<?xml version="1.0" encoding="UTF-8" standalone="no"?>
<!-- Created with Inkscape (http://www.inkscape.org/) -->

<svg
   width="100mm"
   height="100mm"
   viewBox="0 0 100 100"
   version="1.1"
   id="svg26768"
   sodipodi:docname="a value.svg"
   inkscape:version="1.2.1 (9c6d41e410, 2022-07-14)"
   xmlns:inkscape="http://www.inkscape.org/namespaces/inkscape"
   xmlns:sodipodi="http://sodipodi.sourceforge.net/DTD/sodipodi-0.dtd"
   xmlns="http://www.w3.org/2000/svg"
   xmlns:svg="http://www.w3.org/2000/svg">
  <sodipodi:namedview
     id="namedview26770"
     pagecolor="#ffffff"
     bordercolor="#666666"
     borderopacity="1.0"
     inkscape:pageshadow="2"
     inkscape:pageopacity="0.0"
     inkscape:pagecheckerboard="0"
     inkscape:document-units="mm"
     showgrid="false"
     width="209mm"
     inkscape:zoom="0.7500982"
     inkscape:cx="14.664747"
     inkscape:cy="137.31535"
     inkscape:window-width="1920"
     inkscape:window-height="1009"
     inkscape:window-x="3832"
     inkscape:window-y="-8"
     inkscape:window-maximized="1"
     inkscape:current-layer="layer1"
     inkscape:showpageshadow="2"
     inkscape:deskcolor="#d1d1d1" />
  <defs
     id="defs26765" />
  <g
     inkscape:label="Layer 1"
     inkscape:groupmode="layer"
     id="layer1">
    <path
       d="M 7.0770138,3.7197343 C 5.4680008,4.2159173 4.1684178,5.787159 3.9621351,7.5237957 3.9002931,8.1026739 3.8589706,27.701857 3.9002931,51.084427 l 0.061843,42.506247 0.6188443,0.992364 c 0.4538262,0.744272 0.9282729,1.178432 1.7327794,1.591916 l 1.1139353,0.578879 43.2575509,-0.04136 43.236931,-0.06201 0.86639,-0.578877 c 0.474457,-0.310114 1.113934,-0.951017 1.423363,-1.426523 l 0.577591,-0.868321 V 50.112735 6.4487321 L 96.170665,5.5390651 C 95.758101,4.960187 95.159877,4.4640053 94.437885,4.0711937 L 93.30333,3.5129898 50.499595,3.5336676 c -23.557527,0 -43.092532,0.1033768 -43.4225812,0.1860667 z M 93.61276,7.0069399 c 0.39193,0.4755077 0.39193,1.447196 0.39193,43.1678191 v 42.671642 l -0.51571,0.496182 -0.495078,0.516855 H 50.602729 c -31.829467,0 -42.5149392,-0.06201 -42.927502,-0.248091 C 7.3451791,93.466629 7.0770138,93.115165 6.9326031,92.639658 6.7882174,92.143477 6.746954,78.312408 6.7882174,49.657903 L 6.8500604,7.3997501 7.4276663,6.9035683 8.005259,6.4073865 l 42.618075,0.041354 42.597453,0.062021 z"
       id="path20124"
       style="stroke-width:0.0206514" />
    <path
       d="M 46.147015,17.571478 C 31.500918,19.57688 19.887185,30.6376 17.226131,45.088896 c -0.39193,2.04675 -0.412561,2.542932 -0.20628,3.266532 0.309429,0.992363 1.093303,1.964053 1.980313,2.460235 0.598225,0.330788 2.743567,0.351463 31.375664,0.351463 29.93167,0 30.756808,-0.02068 31.540683,-0.392814 0.474446,-0.248088 1.031407,-0.785619 1.382087,-1.343824 0.763255,-1.199106 0.783874,-2.356864 0.06184,-5.582046 C 80.451854,30.740971 70.178957,20.69329 56.914948,17.964289 54.625208,17.488781 48.395462,17.261364 46.146973,17.571478 Z m 6.601069,2.915068 c 1.299572,0.124042 2.392874,0.248091 2.43414,0.289439 0.04131,0.02068 -0.08251,0.909668 -0.268167,1.943381 -0.185661,1.054385 -0.268176,1.984726 -0.206292,2.067424 0.144411,0.268766 1.175817,0.475506 1.361468,0.289439 0.08249,-0.08269 0.309428,-1.033712 0.474457,-2.108772 0.165029,-1.054388 0.350681,-1.964054 0.391931,-2.026077 0.309429,-0.310113 6.229759,1.840009 8.106924,2.935744 l 0.907654,0.537529 -0.556962,0.971689 c -0.309429,0.53753 -0.763255,1.323153 -1.03142,1.736638 -0.268164,0.434158 -0.474447,0.909665 -0.474447,1.054385 0,0.310114 0.969526,0.826969 1.23769,0.661575 0.103168,-0.06201 0.598225,-0.909667 1.134566,-1.860681 l 0.948893,-1.757312 0.639476,0.351464 c 1.753412,1.03371 6.559806,5.582046 6.559806,6.202273 0,0.08269 -0.70136,0.620226 -1.547117,1.157758 -1.939062,1.281802 -2.083461,1.447196 -1.794663,2.108773 0.144399,0.28944 0.350679,0.516855 0.495077,0.516855 0.144399,0 0.969525,-0.496181 1.815283,-1.095734 0.84577,-0.599553 1.650275,-1.157758 1.794663,-1.240456 0.412574,-0.268764 2.991113,4.258895 4.105035,7.215311 l 0.474458,1.261131 -2.207239,0.620226 c -2.083457,0.558204 -2.207225,0.620227 -2.14534,1.095736 0.103155,1.013039 0.391941,1.054386 2.6198,0.434158 2.042196,-0.578878 2.062827,-0.578878 2.227856,-0.165394 0.268165,0.723599 0.783875,4.072828 0.660109,4.279568 -0.08249,0.124042 -3.713103,0.206743 -10.087247,0.206743 h -9.96347 L 60.71061,47.383737 c -0.226915,-1.426523 -1.485248,-3.680016 -2.805451,-5.044513 -0.68074,-0.702926 -1.19644,-1.385175 -1.155187,-1.50922 0.04131,-0.10338 0.969526,-1.447199 2.062827,-2.977093 2.186606,-3.059787 2.372256,-3.617992 1.443982,-4.341592 -1.155185,-0.909667 -1.547117,-0.620226 -4.249432,3.204509 -1.774032,2.48091 -2.186594,2.977092 -2.537287,2.873721 -3.919372,-1.095736 -7.735611,-0.124043 -10.56168,2.708326 -1.361468,1.343825 -2.64042,3.617991 -2.867334,5.085862 l -0.144399,0.785622 h -9.839712 c -7.941896,0 -9.901588,-0.06201 -10.087237,-0.268764 -0.165031,-0.206743 -0.144398,-0.744274 0.08249,-2.026076 0.165018,-0.951016 0.309429,-1.777986 0.309429,-1.840008 0,-0.06202 0.08249,-0.227418 0.185647,-0.372138 0.123765,-0.227416 0.556962,-0.165392 2.165975,0.268766 1.113923,0.310115 2.145342,0.496184 2.310372,0.434159 0.206282,-0.08269 0.288799,-0.351462 0.247533,-0.78562 -0.06184,-0.640903 -0.103155,-0.661576 -2.124709,-1.199108 -1.835928,-0.475506 -2.06284,-0.599552 -2.021577,-0.97169 0.08249,-0.744271 1.629633,-4.155523 2.640422,-5.830135 1.629644,-2.687652 1.258331,-2.563608 3.424293,-1.07506 1.794663,1.240454 1.877178,1.2818 2.269122,0.93034 0.701359,-0.620228 0.474446,-1.013037 -1.361467,-2.232819 -1.485235,-0.992362 -1.732781,-1.219779 -1.567762,-1.529893 0.577605,-1.095735 6.827983,-6.57441 7.096147,-6.222949 0.04131,0.04135 0.433195,0.723601 0.86639,1.529895 1.093303,2.026075 1.25832,2.191471 1.877177,1.922705 0.268164,-0.124042 0.495078,-0.372137 0.495078,-0.558205 0,-0.186068 -0.412563,-1.054386 -0.928273,-1.922704 -0.515709,-0.888993 -0.928273,-1.695287 -0.928273,-1.79866 0,-0.516855 6.085348,-3.039113 8.27194,-3.431924 l 0.742624,-0.14472 0.268166,1.943379 c 0.123778,1.054387 0.330058,2.026076 0.433207,2.150121 0.103155,0.124043 0.474445,0.186069 0.825127,0.124043 l 0.660106,-0.10338 -0.144397,-1.095737 c -0.06184,-0.620215 -0.185656,-1.612582 -0.247539,-2.232807 l -0.144399,-1.116409 1.320217,-0.124042 c 1.588381,-0.14472 2.661053,-0.24809 3.073615,-0.289439 0.16503,-0.02068 1.3821,0.06201 2.681684,0.186067 z m 0.618844,22.16279 c 1.835927,0.682251 3.733724,2.853047 4.414464,5.044516 l 0.144399,0.475507 h -7.549963 -7.549961 l 0.144399,-0.475507 c 1.382099,-4.465637 5.96158,-6.698455 10.396662,-5.044516 z"
       id="path20126"
       style="stroke-width:0.0206514" />
  </g>
</svg>
