<?xml version="1.0" encoding="UTF-8" standalone="no"?>
<!-- Created with Inkscape (http://www.inkscape.org/) -->

<svg
   width="100mm"
   height="100mm"
   viewBox="0 0 100 100"
   version="1.1"
   id="svg26768"
   xmlns="http://www.w3.org/2000/svg"
   xmlns:svg="http://www.w3.org/2000/svg">
  <defs
     id="defs26765" />
  <path
     d="m 46.441831,38.333172 c -5.969831,0.871507 -12.179319,4.161449 -16.188259,8.540776 -3.573183,3.921784 -6.165915,9.129043 -6.906701,13.900548 l -0.283239,1.830168 -3.028488,0.02179 c -3.486031,0.04358 -5.468712,0.457542 -8.148598,1.721228 -4.8586558,2.309499 -8.1703849,6.253063 -9.7173118,11.56927 -2.89776201,10.022325 3.2681549,20.545788 13.4865838,22.964231 1.808378,0.435742 2.418434,0.435742 34.163109,0.392174 l 32.311148,-0.06539 1.917317,-0.610046 C 90.409398,96.615253 95.485929,92.1052 97.947939,86.266094 99.124474,83.455487 99.538444,81.254926 99.538444,77.856046 99.516694,75.285094 99.429498,74.47895 98.950172,72.692359 96.902126,64.979512 90.779789,58.857171 83.219452,56.939854 82.391525,56.743764 80.539571,56.504099 79.12337,56.416948 L 76.552418,56.286217 75.833431,54.608565 C 72.173101,46.198528 64.177012,39.967248 55.026183,38.44211 52.825622,38.071719 48.577019,38.028143 46.441831,38.333172 Z m 9.913396,3.529605 c 8.235755,2.135194 14.22737,7.691057 17.386584,16.101107 0.675419,1.851954 0.718997,1.89553 1.285476,1.764804 1.176535,-0.326816 5.969832,-0.174303 7.429601,0.239664 4.183239,1.154748 8.213959,4.030724 10.654186,7.603903 1.002232,1.481563 2.309492,4.335748 2.767029,6.144135 0.544697,2.09162 0.544697,6.405585 0,8.497195 -1.503347,5.817322 -5.751949,10.697754 -11.111714,12.767591 -3.464242,1.329055 -2.069835,1.285476 -35.949704,1.285476 -30.11059,0 -31.047461,-0.02177 -32.681539,-0.435753 C 13.433473,95.155479 11.167553,93.826425 9.1412975,91.800178 7.2021926,89.839283 6.1999589,88.314141 5.415602,86.048218 2.4524754,77.507445 7.3982821,68.269458 16.069783,66.199632 c 2.396647,-0.588272 6.274859,-0.522899 9.216198,0.108942 0.435751,0.08716 0.479329,-0.0654 0.80614,-2.810615 0.784357,-6.231282 2.767038,-10.675971 6.579884,-14.706695 3.703912,-3.921784 8.780442,-6.579883 14.162001,-7.429603 2.331286,-0.348603 7.146366,-0.108939 9.521221,0.501116 z"
     id="path7388"
     style="stroke-width:0.0217877" />
  <path
     d="m 42.323953,53.018077 c -3.660329,1.220112 -6.928484,2.418435 -7.233512,2.636311 -0.305029,0.239665 -0.762576,0.806145 -1.002232,1.307263 -0.413969,0.849718 -0.435758,1.285473 -0.435758,13.225134 0,13.443 -0.02181,13.203334 1.220118,14.336301 0.871507,0.806145 14.140214,5.207256 15.687139,5.207256 1.525143,0 14.750272,-4.401111 15.643561,-5.207256 1.241898,-1.132967 1.220114,-0.893301 1.220114,-14.292733 0,-9.913399 -0.06539,-12.462557 -0.305028,-13.029039 -0.566489,-1.394411 -1.285477,-1.743016 -8.584352,-4.161449 -5.817323,-1.939104 -7.146366,-2.309495 -8.235755,-2.287708 -1.024015,0 -2.636304,0.457541 -7.974295,2.26592 z m 15.186024,2.919551 6.536311,2.156982 0.06539,3.834635 0.04363,3.834635 H 50.429069 36.702814 v -3.79106 -3.79106 l 6.492743,-2.178769 c 3.551388,-1.198323 6.775964,-2.200557 7.124572,-2.200557 0.37039,0 3.594967,0.958658 7.189933,2.135194 z M 64.3731,71.10186 v 3.812849 H 50.537914 36.702729 V 71.10186 67.289021 H 50.537914 64.3731 Z m 0,8.148609 c 0,1.982667 -0.08716,2.875969 -0.261451,3.028489 -0.37039,0.283233 -13.029041,4.401111 -13.573735,4.401111 -0.217872,0 -3.442459,-0.980448 -7.124572,-2.178777 L 36.702729,82.300731 V 79.381183 76.439851 H 50.537914 64.3731 Z"
     id="path7390"
     style="stroke-width:0.0217877" />
  <path
     d="m 38.227871,61.951032 v 0.76257 h 2.287707 2.287708 v -0.76257 -0.762569 h -2.287708 -2.287707 z"
     id="path7392"
     style="stroke-width:0.0217877" />
  <path
     d="m 44.328427,61.951032 v 0.76257 h 5.33798 5.337991 v -0.76257 -0.762569 h -5.337991 -5.33798 z"
     id="path7394"
     style="stroke-width:0.0217877" />
  <path
     d="m 56.52953,61.951032 v 0.76257 h 3.159214 3.159224 v -0.76257 -0.762569 H 59.688744 56.52953 Z"
     id="path7396"
     style="stroke-width:0.0217877" />
  <path
     d="m 38.227871,71.10186 v 0.762576 H 48.250207 58.272554 V 71.10186 70.339294 H 48.250207 38.227871 Z"
     id="path7398"
     style="stroke-width:0.0217877" />
  <path
     d="m 59.797684,71.10186 v 0.762576 h 1.525143 1.525141 V 71.10186 70.339294 h -1.525141 -1.525143 z"
     id="path7400"
     style="stroke-width:0.0217877" />
  <path
     d="m 38.227871,80.252689 v 0.762577 h 3.812849 3.812839 V 80.252689 79.490124 H 42.04072 38.227871 Z"
     id="path7402"
     style="stroke-width:0.0217877" />
  <path
     d="m 48.903842,80.252689 v 0.762577 h 6.972063 6.972063 v -0.762577 -0.762565 h -6.972063 -6.972063 z"
     id="path7404"
     style="stroke-width:0.0217877" />
</svg>
