<?xml version="1.0" encoding="UTF-8" standalone="no"?>
<!-- Created with Inkscape (http://www.inkscape.org/) -->

<svg
   width="100mm"
   height="100mm"
   viewBox="0 0 100 100"
   version="1.1"
   id="svg26768"
   xmlns="http://www.w3.org/2000/svg"
   xmlns:svg="http://www.w3.org/2000/svg">
  <defs
     id="defs26765" />
  <path
     d="m 3.0188234,12.43002 c -0.424774,0.223565 -0.9836894,0.693054 -1.2296116,1.028403 l -0.4694871,0.625984 -0.067076,41.046675 c -0.044717,41.001963 -0.044717,41.046677 0.4024183,42.008009 0.8942622,1.810883 -3.6664795,1.654387 48.558488,1.654387 44.69079,0 46.61346,-0.02236 47.32886,-0.402418 0.42478,-0.223566 0.96134,-0.760125 1.1849,-1.184899 0.38007,-0.715411 0.40242,-2.481579 0.40242,-41.73973 0,-45.026147 0.0894,-41.940938 -1.29668,-42.902271 -0.58127,-0.380063 -2.68279,-0.402419 -47.328876,-0.469489 C 6.3499474,12.049954 3.7342274,12.072313 3.0188184,12.43002 Z m 6.125703,5.767997 c 0.3129908,0.290636 0.5589138,0.71541 0.5589138,0.916619 0,0.536559 -0.8719078,1.430822 -1.3861098,1.430822 -0.514199,0 -1.520247,-0.961334 -1.520247,-1.453178 0,-0.469488 0.983692,-1.453178 1.45318,-1.453178 0.201208,0 0.603627,0.245922 0.894263,0.558915 z m 5.5891436,0 c 0.312988,0.290636 0.558913,0.71541 0.558913,0.916619 0,0.536559 -0.871907,1.430822 -1.386107,1.430822 -0.514201,0 -1.520247,-0.961334 -1.520247,-1.453178 0,-0.469488 0.983689,-1.453178 1.453177,-1.453178 0.20121,0 0.603628,0.245922 0.894264,0.558915 z m 78.248025,0 c 0.71541,0.693053 0.71541,1.296681 -0.0224,1.877952 l -0.60362,0.469489 h -35.27868 c -35.010403,0 -35.301038,0 -35.748172,-0.447132 -0.73777,-0.737768 -0.491844,-1.967378 0.447134,-2.302727 0.17885,-0.06708 16.163803,-0.134141 35.50224,-0.134141 l 35.166898,-0.02236 z m 3.24169,42.812845 v 34.87626 H 50.168851 4.1142964 V 61.010862 26.134602 H 50.168851 96.223385 Z"
     id="path6710"
     style="stroke-width:0.0223566" />
  <path
     d="m 6.9535814,28.973886 c -0.08942,0.06708 -0.156498,1.989736 -0.156498,4.247751 V 37.31289 H 50.168851 93.540605 V 33.065142 28.81739 h -43.21527 c -23.787395,0 -43.3046856,0.06708 -43.3717536,0.156496 z m 85.5809736,4.091256 v 3.241703 H 50.168851 7.8031314 l -0.06708,-2.995781 c -0.02236,-1.654388 0,-3.152278 0.04472,-3.308774 0.08942,-0.245922 7.8247996,-0.290636 42.4327826,-0.245922 l 42.321001,0.06708 z"
     id="path6712"
     style="stroke-width:0.0223566" />
  <path
     d="m 6.9535814,40.152176 c -0.08942,0.06708 -0.156498,12.050196 -0.156498,26.604327 V 93.204335 H 34.742805 62.688528 V 66.600008 39.99568 H 34.899302 c -15.291899,0 -27.8786526,0.06708 -27.9457206,0.156496 z M 61.794259,66.600008 V 92.310071 L 34.809881,92.265353 7.8031314,92.198278 7.7360554,66.823562 c -0.02236,-13.950504 0,-25.508854 0.06708,-25.66535 0.06708,-0.201209 5.7009256,-0.268279 27.0514476,-0.268279 h 26.939673 z"
     id="path6714"
     style="stroke-width:0.0223566" />
  <path
     d="m 65.594882,48.379396 v 8.383717 H 79.567744 93.540605 V 48.379396 39.99568 H 79.567744 65.594882 Z m 27.006753,0.04472 0.0447,7.44474 H 79.567733 66.489141 V 48.379402 40.88995 l 13.033875,0.04472 13.011529,0.06706 z"
     id="path6716"
     style="stroke-width:0.0223566" />
  <path
     d="M 65.594882,76.436902 V 93.204335 H 79.567744 93.540605 V 76.436902 59.669469 H 79.567744 65.594882 Z m 27.006753,-0.06708 -0.0671,15.828455 -13.011532,0.06706 -13.033874,0.04472 V 76.436902 60.56373 H 79.56772 92.646315 Z"
     id="path6718"
     style="stroke-width:0.0223566" />
</svg>
