<?xml version="1.0" encoding="UTF-8" standalone="no"?>
<!-- Created with Inkscape (http://www.inkscape.org/) -->

<svg
   width="100mm"
   height="100mm"
   viewBox="0 0 100 100"
   version="1.1"
   id="svg26768"
   xmlns="http://www.w3.org/2000/svg"
   xmlns:svg="http://www.w3.org/2000/svg">
  <defs
     id="defs26765" />
  <path
     d="m 21.813794,1.8837762 c -0.983531,0.5003936 -1.345883,1.3631419 -1.345883,3.1749122 v 1.4666708 h -1.483929 c -1.742747,0 -2.484716,0.2760796 -3.002364,1.121572 -0.345097,0.5521587 -0.345097,0.6901984 -0.310585,35.4244268 l 0.05175,34.855014 0.431377,0.465882 c 0.949025,1.01804 -1.018041,0.949017 28.936565,0.949017 18.29025,0 27.953022,-0.06899 28.694984,-0.189801 2.795307,-0.448632 5.556103,-1.794514 7.62669,-3.744324 3.43374,-3.243933 5.003943,-7.385122 4.589821,-12.026705 C 85.639865,59.48082 83.379462,55.529439 80.204554,53.182764 L 78.824159,52.164715 78.755166,27.62817 C 78.703418,3.1261331 78.703418,3.0916234 78.341043,2.6084844 78.151242,2.3496601 77.719866,1.987306 77.392025,1.8320114 76.839865,1.5386774 75.166134,1.5214222 49.628797,1.5214222 22.918129,1.5386782 22.434992,1.5386782 21.813808,1.8837762 Z M 76.373962,27.593659 c 0,18.721624 -0.05175,23.466742 -0.207057,23.397719 -0.120784,-0.05175 -0.672945,-0.189801 -1.207849,-0.310586 L 73.95827,50.45648 73.923773,29.284644 C 73.872027,8.1990899 73.872027,8.0955605 73.509653,7.6296767 73.319852,7.3708523 72.940244,6.9912431 72.681419,6.8014388 72.215538,6.4390847 72.146515,6.4390847 47.540946,6.3873199 L 22.883617,6.3528153 V 5.2312434 4.1096708 h 26.74518 26.745179 z m -4.831383,1.94981 v 20.602419 l -1.156081,0.120784 c -1.898043,0.189808 -5.4008,1.225105 -5.676881,1.67373 -0.345096,0.534905 -0.41412,-0.293328 -0.41412,-4.486286 0,-4.451781 -0.01724,-4.641589 -0.379608,-5.383551 -0.258825,-0.517641 -0.638433,-0.914506 -1.087065,-1.156081 L 62.138623,40.517619 H 44.831904 c -19.273786,0 -18.031425,-0.08627 -18.980449,1.173338 l -0.465881,0.603929 -0.0345,11.405519 -0.05175,11.405534 0.396864,0.690193 c 0.207056,0.379609 0.690194,0.862753 1.069801,1.06981 l 0.690202,0.396864 h 14.891028 c 14.045538,0 14.873771,0.01725 14.873771,0.293329 0,0.707457 1.207842,3.744333 1.967059,4.96943 0.828241,1.311378 2.415698,3.071389 3.554525,3.934126 l 0.603928,0.465889 H 40.70797 18.052213 V 42.933319 8.9410534 H 44.797392 71.542579 Z M 37.377766,56.909833 v 7.937275 l -4.779623,-0.03449 -4.796878,-0.05175 -0.05175,-7.902763 -0.03449,-7.885522 h 4.83139 4.831391 z m 12.251017,0 v 7.937275 H 44.797392 39.966009 V 56.909833 48.97255 h 4.831383 4.831391 z m 12.07847,-5.418056 v 2.51922 l -1.01804,1.104321 c -2.105107,2.225884 -3.347461,5.159231 -3.727069,8.731004 l -0.103536,1.000786 H 54.442917 52.044481 V 56.909833 48.97255 h 4.831383 4.831389 z m 12.682394,1.552946 c 6.160016,1.501179 10.214933,7.851004 8.989828,14.045531 -1.104313,5.521584 -5.763152,9.559245 -11.319248,9.783557 -2.363931,0.103536 -3.916877,-0.224312 -6.039239,-1.259609 -1.363138,-0.672945 -1.880786,-1.069809 -3.105892,-2.294907 -2.225883,-2.225891 -3.347461,-4.693351 -3.571774,-7.781987 -0.258824,-3.658052 1.570203,-7.833746 4.400015,-10.094149 3.105892,-2.467459 6.884729,-3.312956 10.64631,-2.398436 z"
     id="path7962"
     style="stroke-width:0.017255" />
  <path
     d="m 49.715062,20.13952 c -0.897257,0.552161 -1.173337,0.98353 -1.276866,2.087851 l -0.103535,1.035297 -3.364717,3.968638 c -3.571773,4.210212 -3.381966,4.037661 -4.762366,4.020405 -0.103528,0 -1.604715,-1.069809 -3.312949,-2.363931 -2.726284,-2.036083 -3.140404,-2.415692 -3.140404,-2.829812 0,-0.586665 -0.534904,-1.483922 -1.138826,-1.863531 -0.27608,-0.189808 -0.793729,-0.310592 -1.276866,-0.310592 -1.3804,0 -2.415691,1.018041 -2.415691,2.398435 0,1.466674 1.052546,2.415699 2.605492,2.381188 l 0.983529,-0.01725 3.071389,2.346675 c 2.778043,2.122362 3.088636,2.432947 3.192163,2.967852 0.207057,1.294121 1.06981,2.070595 2.312164,2.070595 1.380394,0 2.415698,-1.035298 2.432954,-2.484716 V 32.70114 l 3.433733,-4.037662 c 2.88158,-3.381973 3.502757,-4.020406 3.882365,-4.020406 0.258824,0 0.724705,-0.08627 1.018042,-0.1898 0.517648,-0.189808 0.793729,-0.103535 3.485501,1.052546 2.398442,1.018042 2.916083,1.311377 2.916083,1.587458 0,0.189807 0.293337,0.655689 0.672953,1.018041 0.586665,0.603928 0.759217,0.672945 1.501179,0.672945 1.53569,0 2.484707,-0.949025 2.484707,-2.484715 0,-1.639219 -1.915299,-2.829812 -3.330204,-2.087851 -0.483138,0.241576 -0.621177,0.207064 -3.381966,-0.966273 -2.829819,-1.190594 -2.881579,-1.225106 -3.209427,-1.932555 -0.638433,-1.345889 -2.139619,-1.880794 -3.278437,-1.173338 z"
     id="path7964"
     style="stroke-width:0.017255" />
  <path
     d="m 72.802189,56.68552 c -1.432162,1.846276 -5.280016,7.367859 -5.297271,7.609434 -0.01725,0.189801 0.517649,0.500394 1.794514,1.035298 1.000786,0.396864 1.880794,0.810978 1.94981,0.880001 0.06899,0.06899 -0.362352,1.518434 -0.983529,3.209421 -1.069809,2.933339 -1.190594,3.537268 -0.707456,3.537268 0.258824,0 6.004727,-8.230619 5.883943,-8.437675 -0.05175,-0.08628 -0.914513,-0.483144 -1.915299,-0.880009 -1.000785,-0.396857 -1.811777,-0.810977 -1.811777,-0.914506 0,-0.103527 0.5004,-1.53569 1.138825,-3.192172 0.621185,-1.656466 1.087065,-3.123147 1.035305,-3.243925 -0.155296,-0.41412 -0.569417,-0.258831 -1.087065,0.396865 z"
     id="path7966"
     style="stroke-width:0.017255" />
  <path
     d="m 6.1808045,94.749947 c -0.6729452,1.915306 -1.2423537,3.554517 -1.2423537,3.623541 0,0.06899 0.3278404,0.120784 0.7419604,0.120784 0.7074573,0 0.7419614,-0.0345 1.0007855,-0.741961 l 0.2760803,-0.724705 1.294122,-0.05175 1.3113781,-0.05175 0.2415675,0.741969 c 0.2415694,0.724705 0.2760814,0.741961 1.0870664,0.793721 0.621176,0.03449 0.793728,0 0.741961,-0.172545 -0.05175,-0.120783 -0.621177,-1.76001 -1.276866,-3.62354 L 9.1659123,91.247231 H 8.3031663 7.4404142 Z m 2.8988354,0.84549 c 0,0.08628 -0.3968648,0.13804 -0.880001,0.13804 -0.6384401,0 -0.8627531,-0.06899 -0.8109848,-0.224312 0.051748,-0.103529 0.2760803,-0.759218 0.4831362,-1.414899 l 0.414121,-1.207849 0.3968638,1.294113 c 0.224313,0.707458 0.3968648,1.345891 0.3968648,1.414907 z"
     id="path8132"
     style="stroke-width:0.017255" />
  <path
     d="m 29.440483,94.870739 v 3.623533 h 0.690201 0.690201 v -3.623533 -3.623548 h -0.690201 -0.690201 z"
     id="path8134"
     style="stroke-width:0.017255" />
  <path
     d="m 59.636659,92.455039 v 1.207843 l -0.552161,-0.345089 c -0.74196,-0.44864 -1.328626,-0.431376 -2.053338,0.05175 -0.776473,0.517649 -1.190594,1.380395 -1.190594,2.501972 0,2.156867 1.656475,3.416477 3.243932,2.450195 0.448632,-0.276072 0.552161,-0.293328 0.552161,-0.08627 0,0.189808 0.189801,0.258825 0.690201,0.258825 h 0.690193 V 94.870729 91.24718 H 60.32686 59.636659 Z m -0.362353,2.156868 c 0.138034,0.13804 0.27608,0.603921 0.310586,1.069809 0.06899,0.672946 0.01725,0.914514 -0.29333,1.294122 -1.000792,1.294121 -2.467459,-0.120784 -1.89805,-1.846282 0.293337,-0.914513 1.20785,-1.156082 1.880794,-0.517649 z"
     id="path8136"
     style="stroke-width:0.017255" />
  <path
     d="m 65.330795,94.853475 v 3.640797 h 0.690193 0.6902 v -1.380394 -1.380401 h 1.20785 c 1.380394,0 1.552946,0.155303 1.552946,1.449417 0,1.20785 0.08627,1.311378 1.069802,1.311378 0.672945,0 0.828241,-0.05175 0.6902,-0.224313 -0.08627,-0.103527 -0.207056,-0.741968 -0.241568,-1.397649 -0.05175,-0.966282 -0.138039,-1.242362 -0.465888,-1.501186 l -0.396865,-0.327841 0.500401,-0.414121 c 0.414121,-0.362351 0.483137,-0.552152 0.483137,-1.29412 0,-0.759218 -0.06899,-0.949019 -0.569417,-1.432162 l -0.552153,-0.56941 -2.329419,-0.05175 -2.329419,-0.06899 z m 3.934132,-2.122355 c 0.448625,0.310585 0.517649,1.12157 0.103529,1.466666 -0.155296,0.120792 -0.741962,0.224313 -1.414914,0.224313 l -1.156081,0.01725 -0.05175,-1.000785 -0.05175,-0.983537 h 1.087058 c 0.707456,0 1.225106,0.08628 1.48393,0.27608 z"
     id="path8138"
     style="stroke-width:0.017255" />
  <path
     d="m 47.385642,92.455039 c 0,0.56941 -0.05175,0.690202 -0.345103,0.690202 -0.276081,0 -0.345097,0.120776 -0.345097,0.517641 0,0.396865 0.06899,0.517648 0.345097,0.517648 0.327848,0 0.345103,0.120792 0.345103,1.880795 0,2.243139 0.103529,2.432947 1.397651,2.432947 0.828233,0 0.84549,-0.01725 0.84549,-0.517648 0,-0.431377 -0.06899,-0.517649 -0.43137,-0.517649 -0.431376,0 -0.431376,0 -0.431376,-1.639219 0,-1.639226 0,-1.639226 0.431376,-1.639226 0.362352,0 0.43137,-0.08626 0.43137,-0.517648 0,-0.431369 -0.06899,-0.517641 -0.43137,-0.517641 -0.379608,0 -0.431376,-0.06899 -0.431376,-0.690202 v -0.690193 h -0.690201 -0.690194 z"
     id="path8178"
     style="stroke-width:0.017255" />
  <path
     d="m 94.491665,92.455039 c 0,0.56941 -0.05175,0.690202 -0.345092,0.690202 -0.276077,0 -0.345101,0.120776 -0.345101,0.517641 0,0.396865 0.06896,0.517648 0.345101,0.517648 0.327836,0 0.345092,0.120792 0.345092,1.880795 0,2.243139 0.103536,2.432947 1.397663,2.432947 0.828231,0 0.845487,-0.01725 0.845487,-0.517648 0,-0.431377 -0.06896,-0.517649 -0.431372,-0.517649 -0.431372,0 -0.431372,0 -0.431372,-1.639219 0,-1.639226 0,-1.639226 0.431372,-1.639226 0.362358,0 0.431372,-0.08626 0.431372,-0.517648 0,-0.431369 -0.06896,-0.517641 -0.431372,-0.517641 -0.379603,0 -0.431372,-0.06899 -0.431372,-0.690202 v -0.690193 h -0.690203 -0.690203 z"
     id="path8180"
     style="stroke-width:0.017255" />
  <path
     d="m 13.859262,93.145241 c -0.6902,0.207057 -0.983536,0.500385 -1.345889,1.294114 -0.41412,0.880009 -0.41412,2.053346 0,2.950603 0.414121,0.931763 1.276866,1.345882 2.484715,1.225098 0.724706,-0.06899 0.966274,-0.172544 1.449418,-0.707449 0.310585,-0.327848 0.569409,-0.776473 0.569409,-0.966281 0,-0.293329 -0.120784,-0.345096 -0.655688,-0.345096 -0.552154,0 -0.707449,0.08627 -0.862746,0.431376 -0.13804,0.310585 -0.327841,0.431369 -0.690201,0.431369 -0.759217,0 -1.069801,-0.465882 -1.069801,-1.604707 0,-1.069809 0.379607,-1.673738 1.01804,-1.673738 0.345098,0 0.880002,0.431377 0.880002,0.707458 0,0.08627 0.345097,0.155295 0.759217,0.155295 h 0.776473 l -0.155296,-0.534904 c -0.224312,-0.776474 -0.603921,-1.12157 -1.466666,-1.345882 -0.862753,-0.22432 -1.018042,-0.22432 -1.690987,-0.01725 z"
     id="path8244"
     style="stroke-width:0.017255" />
  <path
     d="m 19.553399,93.145241 c -0.690202,0.207057 -0.983538,0.500385 -1.345891,1.294114 -0.41412,0.880009 -0.41412,2.053346 0,2.950603 0.414121,0.931763 1.276866,1.345882 2.484716,1.225098 0.724705,-0.06899 0.96628,-0.172544 1.449418,-0.707449 0.310584,-0.327848 0.569409,-0.776473 0.569409,-0.966281 0,-0.293329 -0.120785,-0.345096 -0.655689,-0.345096 -0.552153,0 -0.707449,0.08627 -0.862746,0.431376 -0.13804,0.310585 -0.32784,0.431369 -0.6902,0.431369 -0.759218,0 -1.069802,-0.465882 -1.069802,-1.604707 0,-1.069809 0.379609,-1.673738 1.018042,-1.673738 0.345096,0 0.880001,0.431377 0.880001,0.707458 0,0.08627 0.345096,0.155295 0.759216,0.155295 h 0.776474 l -0.155296,-0.534904 c -0.224313,-0.776474 -0.603922,-1.12157 -1.466667,-1.345882 -0.862753,-0.22432 -1.018041,-0.22432 -1.690985,-0.01725 z"
     id="path8246"
     style="stroke-width:0.017255" />
  <path
     d="m 24.695373,93.317793 c -0.396865,0.1898 -0.84549,0.586665 -1.035298,0.89725 -0.414119,0.724712 -0.431376,2.415698 -0.03449,3.192171 0.534897,1.000786 2.294906,1.570203 3.278436,1.069802 0.55216,-0.293329 1.328634,-1.052545 1.328634,-1.311378 0,-0.32784 -1.276866,-0.293328 -1.552946,0.0345 -0.500392,0.603921 -1.898043,0.120784 -1.898043,-0.655689 0,-0.258824 0.241568,-0.293336 1.829027,-0.293336 h 1.846274 L 28.336182,95.44013 c -0.13804,-1.052546 -0.569409,-1.742747 -1.311378,-2.139611 -0.776472,-0.414121 -1.466666,-0.414121 -2.329418,0.01725 z m 1.846282,1.156081 c 0.586665,0.534897 0.396865,0.741954 -0.724713,0.741954 -0.569408,0 -1.035296,-0.05175 -1.035296,-0.138032 0,-0.06899 0.120783,-0.310593 0.27608,-0.51765 0.310591,-0.448632 1.035297,-0.500399 1.483929,-0.08627 z"
     id="path8248"
     style="stroke-width:0.017255" />
  <path
     d="m 33.150303,93.317793 c -0.396863,0.1898 -0.845496,0.586665 -1.035296,0.89725 -0.414121,0.724712 -0.431376,2.415698 -0.03449,3.192171 0.534904,1.000786 2.294906,1.570203 3.278443,1.069802 0.552161,-0.293329 1.328634,-1.052545 1.328634,-1.311378 0,-0.32784 -1.276873,-0.293328 -1.552946,0.0345 -0.5004,0.603921 -1.89805,0.120784 -1.89805,-0.655689 0,-0.258824 0.241568,-0.293336 1.829027,-0.293336 h 1.846281 L 36.791121,95.44013 c -0.138041,-1.052546 -0.569417,-1.742747 -1.311378,-2.139611 -0.776473,-0.414121 -1.466674,-0.414121 -2.329419,0.01725 z m 1.846276,1.156081 c 0.586673,0.534897 0.396865,0.741954 -0.724705,0.741954 -0.569417,0 -1.035298,-0.05175 -1.035298,-0.138032 0,-0.06899 0.120784,-0.310593 0.27608,-0.51765 0.310593,-0.448632 1.035298,-0.500399 1.483923,-0.08627 z"
     id="path8250"
     style="stroke-width:0.017255" />
  <path
     d="m 39.845225,93.231513 c -0.310592,0.13804 -0.569416,0.327841 -0.569416,0.431369 0,0.08628 -0.06899,0.172552 -0.172545,0.172552 -0.08628,0 -0.172552,-0.155289 -0.172552,-0.345097 0,-0.27608 -0.120784,-0.345096 -0.603922,-0.345096 h -0.603928 v 2.674515 2.674516 h 0.690201 0.690201 v -1.604706 c 0,-1.846283 0.189801,-2.260404 1.121569,-2.432955 0.569417,-0.120784 0.603922,-0.155289 0.603922,-0.793729 0,-0.759209 -0.120785,-0.810978 -0.98353,-0.431369 z"
     id="path8252"
     style="stroke-width:0.017255" />
  <path
     d="m 42.623269,93.214257 c -0.603921,0.258824 -1.104314,0.880009 -1.104314,1.345889 0,0.465881 1.225106,0.431369 1.518434,-0.03457 0.258824,-0.431369 1.363138,-0.483137 1.518435,-0.08627 0.172552,0.448625 -0.241562,0.724706 -1.259611,0.862746 -1.25961,0.155296 -1.94981,0.776473 -1.94981,1.760002 0.01725,1.414914 1.414914,2.053347 2.726284,1.259618 0.483137,-0.293336 0.569417,-0.310592 0.655689,-0.08628 0.06899,0.172553 0.345104,0.258832 0.897257,0.258832 0.621184,0 0.741961,-0.05175 0.586672,-0.207064 -0.13804,-0.138041 -0.207063,-0.897257 -0.207063,-2.243139 0,-2.294915 -0.120785,-2.553739 -1.328627,-2.881581 -0.862752,-0.241568 -1.397657,-0.224319 -2.053346,0.05175 z m 1.829027,3.744325 c -0.327842,0.759217 -1.397651,0.914514 -1.673731,0.224312 -0.172545,-0.465881 0.189808,-0.828232 1.000785,-1.01804 0.88001,-0.224313 1.018042,-0.05175 0.672946,0.793728 z"
     id="path8254"
     style="stroke-width:0.017255" />
  <path
     d="m 51.613105,93.317793 c -0.396865,0.1898 -0.84549,0.586665 -1.035298,0.89725 -0.41412,0.724712 -0.431369,2.415698 -0.03449,3.192171 0.534912,1.000786 2.294915,1.570203 3.278444,1.069802 0.552161,-0.293329 1.328634,-1.052545 1.328634,-1.311378 0,-0.32784 -1.276866,-0.293328 -1.552947,0.0345 -0.500392,0.603921 -1.898042,0.120784 -1.898042,-0.655689 0,-0.258824 0.241561,-0.293336 1.829019,-0.293336 h 1.846283 l -0.12079,-0.810989 c -0.138043,-1.052544 -0.569419,-1.742745 -1.31138,-2.139609 -0.776473,-0.414121 -1.466666,-0.414121 -2.329419,0.01725 z m 1.846281,1.156081 c 0.586666,0.534897 0.396865,0.741954 -0.724712,0.741954 -0.569409,0 -1.03529,-0.05175 -1.03529,-0.138032 0,-0.06899 0.120777,-0.310593 0.276073,-0.51765 0.310592,-0.448632 1.035297,-0.500399 1.483929,-0.08627 z"
     id="path8256"
     style="stroke-width:0.017255" />
  <path
     d="m 73.354349,93.317793 c -0.396865,0.1898 -0.845497,0.586665 -1.035298,0.89725 -0.414119,0.724712 -0.431376,2.415698 -0.03449,3.192171 0.534897,1.000786 2.294907,1.570203 3.278437,1.069802 0.55216,-0.293329 1.328633,-1.052545 1.328633,-1.311378 0,-0.32784 -1.276866,-0.293328 -1.552946,0.0345 -0.500392,0.603921 -1.898043,0.120784 -1.898043,-0.655689 0,-0.258824 0.241569,-0.293336 1.829019,-0.293336 h 1.846283 L 76.995158,95.44013 c -0.138039,-1.052546 -0.569416,-1.742747 -1.311377,-2.139611 -0.776473,-0.414121 -1.466666,-0.414121 -2.329419,0.01725 z m 1.846276,1.156081 c 0.586671,0.534897 0.396864,0.741954 -0.724706,0.741954 -0.569409,0 -1.035297,-0.05175 -1.035297,-0.138032 0,-0.06899 0.120784,-0.310593 0.27608,-0.51765 0.310584,-0.448632 1.035298,-0.500399 1.483923,-0.08627 z"
     id="path8258"
     style="stroke-width:0.017255" />
  <path
     d="m 80.342607,93.162497 c -0.224313,0.08627 -0.569417,0.293328 -0.724713,0.448625 -0.293329,0.258824 -0.310585,0.258824 -0.310585,-0.08627 0,-0.310593 -0.103528,-0.379609 -0.603928,-0.379609 H 78.09946 v 3.709813 3.709814 h 0.6902 0.690193 v -1.328634 c 0,-1.276866 0.01725,-1.311378 0.327849,-1.018035 0.810978,0.741962 2.381179,0.362353 3.002364,-0.707456 0.41412,-0.724713 0.448632,-2.536483 0.05175,-3.2957 -0.483145,-0.949026 -1.639226,-1.414906 -2.519228,-1.052546 z m 1.087057,1.570194 c 0.690201,0.79373 0.120785,2.726284 -0.810984,2.726284 -0.98353,0 -1.53569,-1.12157 -1.138827,-2.329419 0.327849,-0.966274 1.276874,-1.173338 1.949811,-0.396865 z"
     id="path8260"
     style="stroke-width:0.017255" />
  <path
     d="m 85.173997,93.266017 c -0.741969,0.379609 -1.380402,1.570202 -1.380402,2.553739 0,0.379609 0.172552,1.052554 0.396864,1.466674 0.500394,1.018034 1.259611,1.414898 2.501968,1.328626 1.570203,-0.120784 2.501971,-1.156081 2.501971,-2.7953 0,-1.639226 -0.931768,-2.674515 -2.501971,-2.795307 -0.655685,-0.05175 -1.087061,0.01725 -1.51843,0.241568 z m 2.225879,1.363145 c 0.828242,1.052554 0.241575,2.829813 -0.931768,2.829813 -0.63843,0 -0.897247,-0.241569 -1.121566,-1.052553 -0.207057,-0.690193 0.05175,-1.794515 0.483136,-2.036084 0.552159,-0.327847 1.190594,-0.207056 1.570198,0.258824 z"
     id="path8262"
     style="stroke-width:0.017255" />
  <path
     d="m 92.472844,93.231513 c -0.31059,0.13804 -0.569421,0.327841 -0.569421,0.431369 0,0.08628 -0.06896,0.172552 -0.172541,0.172552 -0.08628,0 -0.17255,-0.155289 -0.17255,-0.345097 0,-0.27608 -0.120783,-0.345096 -0.603923,-0.345096 h -0.603933 v 2.674515 2.674516 h 0.690203 0.690203 v -1.604706 c 0,-1.846283 0.189797,-2.260404 1.121565,-2.432955 0.569421,-0.120784 0.603923,-0.155289 0.603923,-0.793729 0,-0.759209 -0.120782,-0.810978 -0.983526,-0.431369 z"
     id="path8264"
     style="stroke-width:0.017255" />
</svg>
