<?xml version="1.0" encoding="UTF-8" standalone="no"?>
<!-- Created with Inkscape (http://www.inkscape.org/) -->

<svg
   width="100mm"
   height="100mm"
   viewBox="0 0 100 100"
   version="1.1"
   id="svg26768"
   xmlns="http://www.w3.org/2000/svg"
   xmlns:svg="http://www.w3.org/2000/svg">
  <defs
     id="defs26765" />
  <path
     d="m 21.068821,33.114832 v 30.489294 h 1.083375 1.083377 V 42.9426 22.281068 h 4.333504 4.333503 v -1.083371 -1.083378 h -4.333503 -4.333504 v -4.952578 -4.952572 h 4.333504 4.333503 V 9.1257917 8.0424141 h -4.333503 -4.333504 v -2.708441 -2.708441 h -1.083377 -1.083375 z"
     id="path7980"
     style="stroke-width:0.0154769" />
  <path
     d="M 35.539627,5.0089616 C 34.657451,5.4113613 34.316962,5.953047 34.224099,7.0828512 l -0.07738,1.0369447 -0.495258,0.04644 -0.510731,0.046439 v 1.0833713 1.0679008 h 0.541686 0.541687 v 0.866703 c 0,1.0679 0.340489,1.686968 1.11433,2.089367 0.526214,0.263108 0.959561,0.294063 5.385928,0.294063 5.184731,0 5.246635,-0.01546 6.03595,-0.835748 0.294062,-0.325018 0.386922,-0.619075 0.433348,-1.408389 l 0.0619,-1.005996 h 0.526214 0.526208 V 9.2031862 8.0424267 h -0.541686 c -0.526215,0 -0.541692,-0.015458 -0.541692,-0.6655005 C 47.209139,6.3245038 46.729348,5.4578005 45.955504,5.1018338 45.336431,4.8232552 44.918559,4.7923 40.64696,4.8077777 c -3.528707,0 -4.751377,0.046439 -5.107343,0.2011965 z m 9.518235,4.1942119 V 11.447311 H 40.724357 36.390851 V 9.2031735 6.9590364 h 4.333506 4.333505 z"
     id="path8004"
     style="stroke-width:0.0154769" />
  <path
     d="m 38.557602,9.2031735 v 0.5416918 h 2.166755 2.166749 V 9.2031735 8.6614879 h -2.166749 -2.166755 z"
     id="path8006"
     style="stroke-width:0.0154769" />
  <path
     d="m 35.694396,16.879671 c -0.263105,0.0619 -0.680979,0.340488 -0.92861,0.60359 -0.37144,0.386921 -0.448824,0.63455 -0.526209,1.501254 -0.09286,1.052423 -0.09286,1.052423 -0.58812,1.098849 l -0.510731,0.04644 v 1.083377 1.067894 h 0.541686 0.541687 v 0.866703 c 0,1.052423 0.386922,1.779833 1.145285,2.1358 0.727408,0.340489 9.920623,0.371444 10.58613,0.03098 0.866697,-0.448826 1.176237,-0.959562 1.238141,-2.027462 l 0.0619,-1.00599 h 0.526214 0.526208 v -1.08337 -1.083379 h -0.541686 -0.541692 v -0.742882 c -0.01546,-1.12981 -0.479775,-1.996507 -1.269097,-2.352474 -0.619073,-0.278585 -1.021466,-0.30954 -5.231157,-0.294062 -2.507241,0 -4.78233,0.07739 -5.029962,0.15477 z m 9.363466,4.318026 v 2.166749 h -4.333505 -4.333506 v -2.166749 -2.166755 h 4.333506 4.333505 z"
     id="path8022"
     style="stroke-width:0.0154769" />
  <path
     d="m 38.557602,21.120309 v 0.541692 h 2.166755 2.166749 v -0.541692 -0.541686 h -2.166749 -2.166755 z"
     id="path8024"
     style="stroke-width:0.0154769" />
  <path
     d="m 36.390851,45.651036 v 17.95309 h 1.083379 1.083372 v -2.70844 -2.708435 h 4.333504 4.333505 V 57.103867 56.020495 H 42.891106 38.557602 V 45.651036 35.281581 h 4.333504 4.333505 V 34.19821 33.114832 H 42.891106 38.557602 V 30.406392 27.69795 H 37.47423 36.390851 Z"
     id="path8026"
     style="stroke-width:0.0154769" />
  <path
     d="m 50.505693,30.17424 c -0.742889,0.448825 -1.114327,1.160759 -1.114327,2.120322 v 0.82027 h -0.541692 -0.541686 v 1.083378 1.083371 h 0.541686 0.541692 v 0.804799 c 0,1.036945 0.371438,1.795305 1.083372,2.213176 0.510736,0.294062 0.78932,0.309534 5.525218,0.309534 4.782331,0 4.999005,-0.01546 5.401405,-0.325012 0.727411,-0.541685 0.990512,-1.021467 1.083378,-2.042934 l 0.108337,-0.959563 h 0.51073 0.526215 V 34.19821 33.114832 h -0.526215 c -0.51073,0 -0.51073,0 -0.60359,-0.851225 -0.108343,-1.083378 -0.510736,-1.779834 -1.191714,-2.120323 -0.479782,-0.24763 -1.083379,-0.278579 -5.416883,-0.278579 -4.596611,0 -4.906145,0.01546 -5.385926,0.309535 z m 9.71943,4.02397 v 2.166749 H 55.891619 51.558115 V 34.19821 32.031455 h 4.333504 4.333504 z"
     id="path8030"
     style="stroke-width:0.0154769" />
  <path
     d="m 53.724864,34.275592 v 0.541685 h 2.244137 2.244137 V 34.275592 33.7339 h -2.244137 -2.244137 z"
     id="path8032"
     style="stroke-width:0.0154769" />
  <path
     d="m 52.641492,44.025978 v 3.327508 h 5.014483 5.014482 l -0.82027,1.625064 c -0.448826,0.882175 -0.944085,2.104844 -1.098849,2.692963 l -0.278584,1.083372 -4.813287,0.04644 c -4.287071,0.04644 -4.859719,0.07739 -5.231157,0.325011 -0.650028,0.417878 -0.959562,1.021474 -1.036944,2.042941 -0.07738,0.913129 -0.07738,0.928608 -0.572641,0.97504 l -0.510737,0.04644 v 1.083377 1.0679 h 0.541686 0.541692 v 0.835752 c 0,0.990511 0.433349,1.733399 1.238141,2.135799 0.479782,0.247624 1.083378,0.278579 5.262112,0.278579 5.200208,0 5.416883,-0.03099 5.416883,-0.897652 0,-0.340496 0.108337,-0.232152 0.634551,0.6655 2.352468,4.023965 6.128809,6.391916 10.66351,6.685979 3.606093,0.216674 7.057416,-1.052422 9.703956,-3.575145 1.872688,-1.779827 3.126317,-3.900149 3.760858,-6.360961 0.402404,-1.547681 0.448832,-4.333504 0.09286,-5.819275 C 84.988,47.19874 81.289044,43.406927 76.351943,42.230684 72.699418,41.348509 68.551638,42.215224 65.564618,44.490298 l -0.928614,0.696456 -4.87519,-0.03099 -4.875189,-0.04644 -0.04644,-2.213182 -0.04644,-2.197704 h -1.0679 -1.083371 z m 23.431871,0.386916 c 4.797809,1.22267 8.140799,5.540697 8.140799,10.524223 0,4.147786 -2.182227,7.707447 -5.912138,9.672998 -2.182227,1.160767 -5.153769,1.485778 -7.614587,0.851227 -3.776335,-0.959563 -6.763361,-3.915634 -7.815783,-7.738402 -0.448826,-1.594107 -0.448826,-3.977537 0,-5.571645 1.052422,-3.791813 4.023971,-6.763361 7.753879,-7.738401 1.547681,-0.402393 3.8692,-0.402393 5.44783,0 z M 60.225123,56.79434 v 2.166742 H 55.891619 51.558115 V 56.79434 54.627584 h 4.333504 4.333504 z"
     id="path8034"
     style="stroke-width:0.0154769" />
  <path
     d="m 74.742363,47.461824 c -0.696456,0.773838 -4.921623,6.809793 -4.921623,7.057423 0,0.154763 0.557164,0.448826 1.702445,0.91313 1.005996,0.386921 1.702452,0.758359 1.702452,0.882174 0,0.108337 -0.417871,1.37744 -0.944086,2.816778 -0.882181,2.460812 -1.021467,3.188223 -0.557169,3.048931 0.294063,-0.09286 5.24664,-7.243143 5.169253,-7.459816 -0.04644,-0.108337 -0.820272,-0.49526 -1.717923,-0.866698 -0.897653,-0.355967 -1.640541,-0.696462 -1.640541,-0.727417 0,-0.04644 0.464304,-1.300045 1.021473,-2.770345 0.557163,-1.470294 0.990512,-2.801301 0.959557,-2.940593 -0.07738,-0.433349 -0.340489,-0.402394 -0.773838,0.04644 z"
     id="path8036"
     style="stroke-width:0.0154769" />
  <path
     d="m 53.724864,56.871715 v 0.541692 h 2.244137 2.244137 v -0.541692 -0.541686 h -2.244137 -2.244137 z"
     id="path8038"
     style="stroke-width:0.0154769" />
  <path
     d="m 29.457246,84.079933 c -0.603595,1.717923 -1.11433,3.188216 -1.11433,3.250127 0,0.0619 0.294059,0.108337 0.665502,0.108337 0.634549,0 0.665503,-0.03097 0.897655,-0.665501 l 0.247629,-0.650029 1.160759,-0.04644 1.176237,-0.04644 0.216676,0.665507 c 0.216675,0.650022 0.247628,0.6655 0.975038,0.711927 0.557165,0.03099 0.711934,0 0.6655,-0.154763 -0.04643,-0.108345 -0.557164,-1.578638 -1.145281,-3.250134 l -1.067899,-3.064402 h -0.77384 -0.773841 z m 2.600102,0.75836 c 0,0.07739 -0.355966,0.123814 -0.789316,0.123814 -0.572642,0 -0.77384,-0.0619 -0.72741,-0.201195 0.04643,-0.09287 0.247628,-0.680979 0.43335,-1.269097 l 0.371443,-1.083379 0.355967,1.16076 c 0.201198,0.634546 0.355966,1.207193 0.355966,1.269097 z"
     id="path8126"
     style="stroke-width:0.0154769" />
  <path
     d="m 50.319967,84.18827 v 3.250127 h 0.619075 0.619073 V 84.18827 80.938144 h -0.619073 -0.619075 z"
     id="path8128"
     style="stroke-width:0.0154769" />
  <path
     d="m 77.559141,82.021521 v 1.083371 l -0.495259,-0.309533 c -0.665507,-0.4024 -1.191715,-0.386923 -1.841738,0.04644 -0.696456,0.464304 -1.0679,1.238147 -1.0679,2.244137 0,1.934604 1.485771,3.064408 2.909638,2.197705 0.4024,-0.247624 0.495259,-0.263101 0.495259,-0.07738 0,0.170249 0.170242,0.232152 0.619074,0.232152 h 0.619067 V 84.188287 80.93816 h -0.619067 -0.619074 z m -0.325018,1.934598 c 0.123816,0.123814 0.247636,0.541685 0.278585,0.959562 0.0619,0.603596 0.01546,0.820264 -0.263107,1.16076 -0.897652,1.160759 -2.213182,-0.108338 -1.702445,-1.656019 0.263107,-0.82027 1.083377,-1.036945 1.686967,-0.464303 z"
     id="path8130"
     style="stroke-width:0.0154769" />
  <path
     d="m 66.570613,82.021521 c 0,0.510731 -0.04644,0.619067 -0.309534,0.619067 -0.247635,0 -0.309539,0.108338 -0.309539,0.464304 0,0.355967 0.0619,0.464304 0.309539,0.464304 0.294057,0 0.309534,0.108337 0.309534,1.686974 0,2.011979 0.09287,2.182227 1.25362,2.182227 0.742888,0 0.758359,-0.01546 0.758359,-0.464304 0,-0.386922 -0.0619,-0.464303 -0.386915,-0.464303 -0.386922,0 -0.386922,0 -0.386922,-1.4703 0,-1.470294 0,-1.470294 0.386922,-1.470294 0.325011,0 0.386915,-0.07738 0.386915,-0.464304 0,-0.386915 -0.0619,-0.464304 -0.386915,-0.464304 -0.340489,0 -0.386922,-0.0619 -0.386922,-0.619067 v -0.619074 h -0.619074 -0.619068 z"
     id="path8176"
     style="stroke-width:0.0154769" />
  <path
     d="m 36.499192,82.640588 c -0.619076,0.18572 -0.882181,0.448827 -1.207192,1.16076 -0.371444,0.789321 -0.371444,1.841744 0,2.646531 0.371445,0.835748 1.145281,1.207193 2.228659,1.098855 0.650026,-0.0619 0.866696,-0.154764 1.30005,-0.634545 0.278579,-0.294062 0.510737,-0.696456 0.510737,-0.866703 0,-0.263108 -0.108343,-0.309541 -0.588125,-0.309541 -0.495255,0 -0.634547,0.07739 -0.773838,0.386922 -0.123813,0.278585 -0.294055,0.386923 -0.619071,0.386923 -0.680978,0 -0.959561,-0.417878 -0.959561,-1.439345 0,-0.959557 0.340489,-1.501249 0.913132,-1.501249 0.309538,0 0.789318,0.386923 0.789318,0.634546 0,0.07739 0.309531,0.139292 0.680981,0.139292 h 0.696456 l -0.139292,-0.479781 c -0.201197,-0.696456 -0.541686,-1.00599 -1.315529,-1.207186 -0.77384,-0.201203 -0.913131,-0.201203 -1.516725,-0.01546 z"
     id="path8230"
     style="stroke-width:0.0154769" />
  <path
     d="m 41.451762,82.640588 c -0.619067,0.18572 -0.882175,0.448827 -1.207186,1.16076 -0.371444,0.789321 -0.371444,1.841744 0,2.646531 0.371438,0.835748 1.145282,1.207193 2.22866,1.098855 0.650029,-0.0619 0.866696,-0.154764 1.300051,-0.634545 0.278579,-0.294062 0.51073,-0.696456 0.51073,-0.866703 0,-0.263108 -0.108337,-0.309541 -0.588118,-0.309541 -0.495259,0 -0.634551,0.07739 -0.773837,0.386922 -0.123815,0.278585 -0.294057,0.386923 -0.619075,0.386923 -0.680977,0 -0.959562,-0.417878 -0.959562,-1.439345 0,-0.959557 0.340489,-1.501249 0.913136,-1.501249 0.309534,0 0.789316,0.386923 0.789316,0.634546 0,0.07739 0.309533,0.139292 0.680978,0.139292 h 0.696456 l -0.139294,-0.479781 c -0.201196,-0.696456 -0.541685,-1.00599 -1.315523,-1.207186 -0.773844,-0.201203 -0.913136,-0.201203 -1.516732,-0.01546 z"
     id="path8232"
     style="stroke-width:0.0154769" />
  <path
     d="m 46.063851,82.795359 c -0.355966,0.170241 -0.758366,0.526208 -0.928607,0.804793 -0.371444,0.650028 -0.386923,2.166748 -0.03099,2.863204 0.479782,0.897659 2.058418,1.408396 2.940593,0.959564 0.495259,-0.263108 1.191715,-0.944086 1.191715,-1.176238 0,-0.294056 -1.145283,-0.263101 -1.392912,0.03098 -0.448826,0.541685 -1.702452,0.108336 -1.702452,-0.588118 0,-0.232152 0.216681,-0.263108 1.640548,-0.263108 h 1.656012 L 49.329425,84.69903 c -0.123814,-0.944085 -0.51073,-1.563152 -1.176237,-1.919119 -0.696456,-0.371445 -1.315523,-0.371445 -2.089367,0.01546 z m 1.656019,1.036945 c 0.526207,0.479781 0.355966,0.6655 -0.650024,0.6655 -0.510736,0 -0.928613,-0.04644 -0.928613,-0.123815 0,-0.0619 0.108343,-0.278578 0.247636,-0.464297 0.278578,-0.402406 0.928601,-0.448833 1.331001,-0.07739 z"
     id="path8234"
     style="stroke-width:0.0154769" />
  <path
     d="m 53.647488,82.795359 c -0.355972,0.170241 -0.758372,0.526208 -0.928613,0.804793 -0.371444,0.650028 -0.386923,2.166748 -0.03098,2.863204 0.479782,0.897659 2.058419,1.408396 2.940593,0.959564 0.495259,-0.263108 1.191715,-0.944086 1.191715,-1.176238 0,-0.294056 -1.145283,-0.263101 -1.392912,0.03098 -0.448825,0.541685 -1.702451,0.108336 -1.702451,-0.588118 0,-0.232152 0.216681,-0.263108 1.640547,-0.263108 H 57.0214 L 56.913072,84.69903 c -0.12382,-0.944085 -0.510736,-1.563152 -1.176237,-1.919119 -0.696455,-0.371445 -1.315529,-0.371445 -2.089367,0.01546 z m 1.656013,1.036945 c 0.526208,0.479781 0.355966,0.6655 -0.650023,0.6655 -0.510737,0 -0.928614,-0.04644 -0.928614,-0.123815 0,-0.0619 0.108344,-0.278578 0.247636,-0.464297 0.278578,-0.402406 0.928608,-0.448833 1.331001,-0.07739 z"
     id="path8236"
     style="stroke-width:0.0154769" />
  <path
     d="m 59.807247,82.717977 c -0.278579,0.123808 -0.510731,0.294056 -0.510731,0.386915 0,0.07738 -0.0619,0.154771 -0.15477,0.154771 -0.07738,0 -0.154764,-0.139292 -0.154764,-0.30954 0,-0.247624 -0.108337,-0.309535 -0.541692,-0.309535 h -0.541686 v 2.398902 2.398907 h 0.619075 0.619067 v -1.439339 c 0,-1.656024 0.170248,-2.027462 1.00599,-2.182232 0.510736,-0.108337 0.541691,-0.139293 0.541691,-0.711934 0,-0.680977 -0.108337,-0.727404 -0.88218,-0.386915 z"
     id="path8238"
     style="stroke-width:0.0154769" />
  <path
     d="m 62.144249,82.702499 c -0.541692,0.232152 -0.990518,0.789316 -0.990518,1.207193 0,0.417871 1.098856,0.386916 1.361956,-0.03099 0.232152,-0.386922 1.222671,-0.433355 1.361963,-0.07739 0.15477,0.402399 -0.216674,0.650029 -1.129811,0.773843 -1.129804,0.139294 -1.748878,0.696456 -1.748878,1.578631 0.01552,1.269097 1.269103,1.841744 2.445334,1.129804 0.433355,-0.263101 0.510736,-0.278578 0.588125,-0.07738 0.0619,0.154769 0.309534,0.232152 0.804787,0.232152 0.557169,0 0.6655,-0.04644 0.526214,-0.18572 -0.123815,-0.123815 -0.185725,-0.804793 -0.185725,-2.011985 0,-2.058412 -0.108331,-2.29057 -1.191709,-2.584626 -0.773844,-0.216674 -1.253625,-0.201197 -1.841738,0.04644 z m 1.640535,3.358464 c -0.294056,0.680979 -1.253619,0.820271 -1.501242,0.201197 -0.15477,-0.417871 0.170242,-0.742883 0.897652,-0.91313 0.789316,-0.201197 0.913131,-0.04644 0.60359,0.711933 z"
     id="path8240"
     style="stroke-width:0.0154769" />
  <path
     d="m 70.207662,82.795359 c -0.355967,0.170241 -0.758366,0.526208 -0.928614,0.804793 -0.371438,0.650028 -0.386916,2.166748 -0.03099,2.863204 0.479782,0.897659 2.058419,1.408396 2.940593,0.959564 0.49526,-0.263108 1.191715,-0.944086 1.191715,-1.176238 0,-0.294056 -1.145281,-0.263101 -1.392911,0.03098 -0.448826,0.541685 -1.702446,0.108336 -1.702446,-0.588118 0,-0.232152 0.216675,-0.263108 1.640535,-0.263108 h 1.656025 l -0.10834,-0.727406 c -0.123814,-0.944085 -0.510736,-1.563152 -1.176237,-1.919119 -0.696455,-0.371445 -1.315523,-0.371445 -2.089367,0.01546 z m 1.656012,1.036945 c 0.526215,0.479781 0.355967,0.6655 -0.650022,0.6655 -0.510738,0 -0.928608,-0.04644 -0.928608,-0.123815 0,-0.0619 0.108337,-0.278578 0.247629,-0.464297 0.278579,-0.402406 0.928608,-0.448833 1.331001,-0.07739 z"
     id="path8242"
     style="stroke-width:0.0154769" />
  <path
     d="m 30.200132,95.192275 v 3.265604 l 1.919123,-0.0619 c 1.671493,-0.04644 1.981031,-0.09286 2.367949,-0.371444 1.315532,-0.975034 1.671494,-3.497756 0.696456,-4.999005 -0.572639,-0.882182 -1.207188,-1.098849 -3.28108,-1.098849 h -1.702448 z m 3.250127,-2.04294 c 0.526213,0.139292 0.928609,0.990518 0.928609,1.950074 0,0.913137 -0.386922,1.779841 -0.928609,2.042941 -0.216676,0.108337 -0.711931,0.201197 -1.114328,0.201197 h -0.742887 v -2.166749 -2.166756 l 0.742887,0.01552 c 0.402397,0.01546 0.897652,0.0619 1.114328,0.123815 z"
     id="path8382"
     style="stroke-width:0.0154769" />
  <path
     d="m 52.331952,95.176798 v 3.250127 h 0.619075 0.619073 l 0.01552,-2.600098 c 0,-1.439351 0.0619,-2.44534 0.123815,-2.275093 0.07738,0.170242 0.355967,1.331002 0.634551,2.584626 l 0.510731,2.290565 h 0.6655 0.650023 l 0.30954,-1.361957 c 0.170241,-0.742888 0.433355,-1.903648 0.603596,-2.584626 l 0.278579,-1.238141 0.04644,2.584626 0.03091,2.600098 h 0.619074 0.619074 v -3.250127 -3.250127 h -1.00599 c -0.557169,0 -1.005996,0.04644 -1.005996,0.108337 -0.01552,0.232152 -1.067899,4.720421 -1.114332,4.782331 -0.04644,0.03099 -0.263101,-0.789315 -0.495252,-1.841737 -0.232152,-1.036945 -0.49526,-2.151278 -0.572642,-2.47629 l -0.15477,-0.572641 h -0.990518 -1.00599 z"
     id="path8384"
     style="stroke-width:0.0154769" />
  <path
     d="M 68.427829,93.010042 V 94.09342 L 67.93257,93.783886 c -0.665501,-0.402399 -1.191716,-0.386921 -1.841738,0.04644 -0.696456,0.46431 -1.0679,1.238148 -1.0679,2.244137 0,1.934597 1.48577,3.064408 2.909638,2.19771 0.402399,-0.247635 0.495259,-0.263113 0.495259,-0.07739 0,0.170241 0.170241,0.232152 0.619073,0.232152 h 0.619067 v -3.250127 -3.250127 h -0.619067 -0.619073 z m -0.325018,1.934604 c 0.123815,0.123815 0.247635,0.541692 0.278584,0.959563 0.0619,0.603596 0.01546,0.820271 -0.263107,1.160759 -0.897652,1.16076 -2.213175,-0.108343 -1.702444,-1.656018 0.263107,-0.820271 1.083377,-1.036945 1.686967,-0.464304 z"
     id="path8386"
     style="stroke-width:0.0154769" />
  <path
     d="m 75.85669,95.176798 v 3.250127 h 0.619073 0.619074 V 95.176798 91.926671 H 76.475763 75.85669 Z"
     id="path8388"
     style="stroke-width:0.0154769" />
  <path
     d="m 41.962498,93.010042 c 0,0.510737 -0.04644,0.619075 -0.309533,0.619075 -0.247629,0 -0.30954,0.108337 -0.30954,0.464303 0,0.355967 0.0619,0.464304 0.30954,0.464304 0.294056,0 0.309533,0.108338 0.309533,1.686974 0,2.011986 0.09286,2.182227 1.25362,2.182227 0.742889,0 0.758366,-0.01546 0.758366,-0.464304 0,-0.386916 -0.0619,-0.464304 -0.386922,-0.464304 -0.386922,0 -0.386922,0 -0.386922,-1.470293 0,-1.4703 0,-1.4703 0.386922,-1.4703 0.325011,0 0.386922,-0.07738 0.386922,-0.464304 0,-0.386922 -0.0619,-0.464303 -0.386922,-0.464303 -0.340489,0 -0.386922,-0.0619 -0.386922,-0.619075 v -0.619067 h -0.619067 -0.619075 z"
     id="path8398"
     style="stroke-width:0.0154769" />
  <path
     d="m 37.536136,93.69102 c -0.541691,0.232158 -0.990515,0.789322 -0.990515,1.207193 0,0.417877 1.098851,0.386922 1.361956,-0.03099 0.232153,-0.386916 1.222672,-0.433343 1.361958,-0.07737 0.154771,0.402394 -0.216674,0.650023 -1.129805,0.773832 -1.129807,0.139292 -1.748879,0.696462 -1.748879,1.578636 0.01548,1.269103 1.269099,1.841738 2.445336,1.129811 0.433348,-0.263107 0.510736,-0.278585 0.588119,-0.07738 0.0619,0.154765 0.309533,0.232146 0.804793,0.232146 0.557162,0 0.665499,-0.04644 0.526207,-0.185718 -0.123814,-0.123815 -0.185719,-0.804793 -0.185719,-2.011986 0,-2.058418 -0.108336,-2.290563 -1.191715,-2.584626 -0.773837,-0.216675 -1.25362,-0.201196 -1.841736,0.04644 z m 1.64054,3.358471 c -0.294062,0.680978 -1.253622,0.82027 -1.501248,0.201196 -0.154769,-0.417871 0.170242,-0.742882 0.897651,-0.91313 0.789316,-0.201197 0.913137,-0.04644 0.603597,0.711934 z"
     id="path8416"
     style="stroke-width:0.0154769" />
  <path
     d="m 45.58407,93.69102 c -0.541686,0.232158 -0.990518,0.789322 -0.990518,1.207193 0,0.417877 1.098854,0.386922 1.361962,-0.03099 0.232152,-0.386916 1.222664,-0.433343 1.361956,-0.07737 0.15477,0.402394 -0.216674,0.650023 -1.129804,0.773832 -1.129804,0.139292 -1.748878,0.696462 -1.748878,1.578636 0.01552,1.269103 1.269097,1.841738 2.445334,1.129811 0.433348,-0.263107 0.510736,-0.278585 0.588118,-0.07738 0.0619,0.154765 0.309541,0.232146 0.804793,0.232146 0.55717,0 0.6655,-0.04644 0.526214,-0.185718 -0.123815,-0.123815 -0.185724,-0.804793 -0.185724,-2.011986 0,-2.058418 -0.108338,-2.290563 -1.191709,-2.584626 -0.773844,-0.216675 -1.253625,-0.201196 -1.841744,0.04644 z m 1.640541,3.358471 c -0.294057,0.680978 -1.253619,0.82027 -1.501249,0.201196 -0.15477,-0.417871 0.170247,-0.742882 0.897652,-0.91313 0.789322,-0.201197 0.91313,-0.04644 0.603597,0.711934 z"
     id="path8418"
     style="stroke-width:0.0154769" />
  <path
     d="m 60.689427,93.737454 c -0.6655,0.340489 -1.238147,1.408389 -1.238147,2.29057 0,0.340488 0.15477,0.944078 0.355967,1.315523 0.448832,0.913137 1.129811,1.269103 2.244137,1.191715 1.408389,-0.108337 2.244137,-1.036945 2.244137,-2.507238 0,-1.4703 -0.835748,-2.398907 -2.244137,-2.507245 -0.588119,-0.04644 -0.975034,0.01552 -1.361957,0.216675 z m 1.996509,1.222669 c 0.742882,0.944086 0.216673,2.538194 -0.835749,2.538194 -0.572641,0 -0.804793,-0.216675 -1.005995,-0.944085 -0.18572,-0.619074 0.04644,-1.609586 0.433354,-1.826267 0.495259,-0.294055 1.0679,-0.185718 1.40839,0.232158 z"
     id="path8420"
     style="stroke-width:0.0154769" />
  <path
     d="m 71.755337,93.783886 c -0.355967,0.170248 -0.75836,0.526209 -0.928608,0.804793 -0.371444,0.650024 -0.386915,2.16675 -0.03091,2.863205 0.479782,0.897652 2.058412,1.408389 2.940593,0.959569 0.495253,-0.263113 1.191709,-0.944091 1.191709,-1.176243 0,-0.294057 -1.145276,-0.263108 -1.392912,0.03099 -0.44882,0.541687 -1.702445,0.108338 -1.702445,-0.588118 0,-0.232152 0.21668,-0.263107 1.64054,-0.263107 h 1.65602 L 75.020987,95.68757 C 74.897172,94.743478 74.510249,94.124411 73.84475,93.768444 73.148294,93.397 72.529219,93.397 71.755382,93.783904 Z m 1.656019,1.036945 c 0.526214,0.479781 0.355967,0.665507 -0.650029,0.665507 -0.510731,0 -0.928602,-0.04644 -0.928602,-0.123821 0,-0.0619 0.108337,-0.278585 0.247623,-0.464304 0.278586,-0.402394 0.928614,-0.448826 1.331008,-0.07738 z"
     id="path8422"
     style="stroke-width:0.0154769" />
</svg>
