<?xml version="1.0" encoding="UTF-8" standalone="no"?>
<!-- Created with Inkscape (http://www.inkscape.org/) -->

<svg
   width="100mm"
   height="100mm"
   viewBox="0 0 100 100"
   version="1.1"
   id="svg26768"
   xmlns="http://www.w3.org/2000/svg"
   xmlns:svg="http://www.w3.org/2000/svg">
  <defs
     id="defs26765" />
  <path
     d="M 18.919479,1.4688443 C 17.066163,2.0599821 15.612268,3.3221577 14.797447,5.047664 L 14.286188,6.1181049 V 30.402953 54.687788 l 0.495283,1.038496 c 0.830797,1.773433 1.981131,2.811929 3.786517,3.498934 l 0.926659,0.335514 h 20.658089 20.674067 l 0.71896,1.006544 c 0.974589,1.358033 2.891812,3.147442 4.201915,3.914331 2.204809,1.27815 4.297778,1.805387 7.061776,1.805387 2.204808,-0.01598 3.754564,-0.399422 5.943394,-1.485849 1.485849,-0.734936 1.853318,-1.006543 3.275258,-2.444461 2.061016,-2.076992 2.955721,-3.578817 3.706634,-6.326839 0.271607,-0.958612 0.287584,-2.620207 0.287584,-25.467131 V 6.1181049 L 85.511064,5.047664 C 84.856013,3.6416898 83.705678,2.4913587 82.299713,1.8363125 L 81.229263,1.3250553 50.393909,1.2930722 C 25.789532,1.2770812 19.430739,1.3090642 18.919479,1.4688154 Z M 80.98961,3.7215801 c 0.974589,0.3355141 1.789409,1.0544782 2.332623,2.0290566 0.463329,0.8308086 0.463329,0.878735 0.511259,3.7545725 l 0.06391,2.9237638 H 50.170233 16.443066 V 9.7288786 c 0,-3.4190486 0.271607,-4.3137463 1.693547,-5.3841968 1.166312,-0.8947074 -0.687005,-0.8467809 31.953736,-0.8627532 26.345855,0 30.308118,0.031887 30.899262,0.2396515 z M 23.153349,18.020878 v 3.35514 h -3.355141 -3.355143 v -3.35514 -3.355141 h 3.355143 3.355141 z m 20.258668,0.03189 0.03195,3.323196 h -9.02693 -9.02693 v -3.35514 -3.35515 l 8.994976,0.03198 8.979,0.04797 z m 40.45343,-0.03189 v 3.35514 H 64.773089 45.680732 v -3.35514 -3.355141 h 19.092357 19.092358 z m -60.744051,8.978998 -0.04793,3.403077 -3.307212,0.04797 -3.323188,0.03198 v -3.43503 -3.435021 h 3.355142 3.355142 z m 20.242691,0.04798 v 3.35515 h -8.947046 -8.947046 l -0.04793,-3.403077 -0.03195,-3.387094 8.979,0.03198 8.994976,0.04797 z m 40.50136,0 v 3.435031 H 64.773089 45.680732 v -3.435031 -3.435021 h 19.092357 19.092358 z m -60.712098,9.026935 v 3.355141 h -3.355141 -3.355143 v -3.355146 -3.355141 h 3.355143 3.355141 z m 20.290622,0 v 3.355141 h -9.02693 -9.02693 v -3.355146 -3.355141 h 9.02693 9.02693 z m 40.421476,0 v 3.355141 H 64.773089 45.680732 v -3.355146 -3.355141 h 19.092357 19.092358 z m -60.712098,8.947045 v 3.355142 h -3.355141 -3.355143 v -3.355142 -3.355142 h 3.355143 3.355141 z m 20.290622,0 v 3.355142 h -9.02693 -9.02693 v -3.355142 -3.355142 h 9.02693 9.02693 z m 20.226715,-2.061015 c -1.469872,1.37401 -2.652161,3.003651 -3.291235,4.489499 l -0.399422,0.926658 H 52.83837 45.680732 v -3.355142 -3.355142 h 9.681982 9.666006 z m 11.024039,-1.118386 c 3.403072,0.623098 6.67833,3.147442 8.148201,6.310862 1.022521,2.188831 1.310103,5.144551 0.702983,7.477175 -1.32608,5.176504 -6.358793,8.883138 -11.519322,8.499692 C 70.349016,64.00235 69.150751,63.666836 67.569041,62.883969 66.466638,62.340756 65.9394,61.957311 64.773089,60.775023 63.606778,59.608711 63.19138,59.065498 62.648166,57.963094 61.801392,56.237592 61.481854,54.815651 61.481854,52.866473 61.497824,45.868605 67.808695,40.580262 74.694725,41.842435 Z m 9.170722,1.693547 -0.01598,1.885271 -0.335515,-0.479306 C 83.0666,44.318849 81.213284,42.465533 80.590186,42.01818 l -0.479307,-0.335514 1.88527,-0.01598 h 1.869294 z M 23.153349,54.144623 v 3.387095 l -1.709524,-0.07988 c -1.981132,-0.09586 -2.700091,-0.335515 -3.62675,-1.214243 -1.038496,-1.006543 -1.37401,-1.917224 -1.37401,-3.834448 v -1.62964 h 3.355143 3.355141 z m 20.258668,-0.06391 -0.04793,3.323188 -8.979,0.04794 -8.994977,0.03195 v -3.355142 -3.355142 h 9.02693 9.026931 z m 15.785145,-1.27815 c 0,1.869294 0.143792,2.779976 0.639075,4.393639 0.07988,0.271607 -0.319537,0.287584 -7.029822,0.287584 h -7.125683 v -3.355141 -3.355142 h 6.758215 6.758215 z"
     id="path7992"
     style="stroke-width:0.0159769" />
  <path
     d="m 71.515327,48.632555 c -1.485848,2.061016 -2.668136,3.850425 -2.620206,3.946287 0.04793,0.111838 0.81482,0.463329 1.725502,0.81482 0.910681,0.335514 1.725501,0.671028 1.789409,0.734935 0.07988,0.06391 -0.335514,1.437919 -0.910681,3.051583 -1.02252,2.811928 -1.118381,3.355141 -0.527237,3.131465 0.25563,-0.09586 5.224436,-7.045799 5.336274,-7.461196 0.06391,-0.223677 -0.287584,-0.415399 -1.62964,-0.958613 -0.942636,-0.383445 -1.741479,-0.76689 -1.773433,-0.878728 -0.04793,-0.111837 0.399422,-1.453894 0.974589,-3.003651 0.575167,-1.549756 1.006543,-2.891813 0.958613,-2.987674 -0.303561,-0.479306 -0.782867,0.03195 -3.32319,3.610772 z"
     id="path7994"
     style="stroke-width:0.0159769" />
  <path
     d="m 24.942759,83.733734 c -0.623099,1.773431 -1.150335,3.291235 -1.150335,3.355142 0,0.06391 0.303561,0.111838 0.687005,0.111838 0.655052,0 0.687006,-0.03195 0.926659,-0.687006 l 0.255629,-0.671029 1.198266,-0.04793 1.214242,-0.04793 0.223676,0.687006 c 0.223676,0.671029 0.25563,0.687005 1.006542,0.734936 0.575168,0.03195 0.734937,0 0.687006,-0.159769 -0.04793,-0.111838 -0.575168,-1.629641 -1.182289,-3.355142 L 27.706757,80.49043 H 26.907914 26.10907 Z m 2.684113,0.782865 c 0,0.07988 -0.367468,0.127815 -0.81482,0.127815 -0.591144,0 -0.798844,-0.06391 -0.750913,-0.207698 0.04794,-0.09586 0.25563,-0.702982 0.447352,-1.310104 l 0.383446,-1.11838 0.367467,1.198264 c 0.207699,0.655052 0.367468,1.246196 0.367468,1.310103 z"
     id="path8090"
     style="stroke-width:0.0159769" />
  <path
     d="m 46.319807,83.845571 v 3.355143 h 0.639075 0.639075 V 83.845571 80.49043 h -0.639075 -0.639075 z"
     id="path8092"
     style="stroke-width:0.0159769" />
  <path
     d="m 74.439094,81.60881 v 1.11838 l -0.511259,-0.319537 c -0.687005,-0.415398 -1.230219,-0.399421 -1.901248,0.04793 -0.718959,0.479306 -1.102403,1.27815 -1.102403,2.316646 0,1.997108 1.533779,3.163419 3.003651,2.268715 0.415399,-0.25563 0.511259,-0.271607 0.511259,-0.07988 0,0.175746 0.175746,0.239654 0.639075,0.239654 h 0.639075 v -3.355143 -3.355141 h -0.639075 -0.639075 z m -0.335514,1.997109 c 0.127815,0.127815 0.25563,0.55919 0.287584,0.990565 0.06391,0.623098 0.01598,0.846774 -0.271607,1.198265 -0.926658,1.198265 -2.284692,-0.111838 -1.757455,-1.709524 0.271606,-0.846774 1.11838,-1.070451 1.741478,-0.479306 z"
     id="path8094"
     style="stroke-width:0.0159769" />
  <path
     d="m 63.095518,81.60881 c 0,0.527237 -0.04793,0.639075 -0.319537,0.639075 -0.255629,0 -0.319538,0.111838 -0.319538,0.479305 0,0.367469 0.06391,0.479306 0.319538,0.479306 0.303561,0 0.319537,0.111839 0.319537,1.741479 0,2.076994 0.09586,2.252739 1.294127,2.252739 0.76689,0 0.782867,-0.01598 0.782867,-0.479306 0,-0.399423 -0.06391,-0.479306 -0.399423,-0.479306 -0.399421,0 -0.399421,0 -0.399421,-1.517803 0,-1.517803 0,-1.517803 0.399421,-1.517803 0.335515,0 0.399423,-0.07988 0.399423,-0.479306 0,-0.399421 -0.06391,-0.479305 -0.399423,-0.479305 -0.351491,0 -0.399421,-0.06391 -0.399421,-0.639075 v -0.639075 h -0.639075 -0.639075 z"
     id="path8172"
     style="stroke-width:0.0159769" />
  <path
     d="m 32.052465,82.247885 c -0.639075,0.191722 -0.910682,0.463328 -1.246196,1.198265 -0.383445,0.81482 -0.383445,1.901247 0,2.732043 0.383445,0.862752 1.182288,1.246197 2.300669,1.134358 0.671029,-0.06391 0.894704,-0.159768 1.342057,-0.655051 0.287583,-0.303561 0.527237,-0.718959 0.527237,-0.894704 0,-0.271607 -0.111839,-0.319538 -0.607122,-0.319538 -0.51126,0 -0.655051,0.07988 -0.798843,0.399421 -0.127814,0.287584 -0.30356,0.399423 -0.639075,0.399423 -0.702982,0 -0.990566,-0.431376 -0.990566,-1.485849 0,-0.990566 0.351492,-1.549757 0.942635,-1.549757 0.319538,0 0.814821,0.399423 0.814821,0.655052 0,0.07988 0.319537,0.143792 0.702982,0.143792 h 0.71896 l -0.143792,-0.495283 c -0.2077,-0.718959 -0.559191,-1.038496 -1.358034,-1.246195 -0.798844,-0.2077 -0.942636,-0.2077 -1.565733,-0.01598 z"
     id="path8190"
     style="stroke-width:0.0159769" />
  <path
     d="m 37.165062,82.247885 c -0.639075,0.191722 -0.910681,0.463328 -1.246195,1.198265 -0.383446,0.81482 -0.383446,1.901247 0,2.732043 0.383444,0.862752 1.182288,1.246197 2.300669,1.134358 0.671028,-0.06391 0.894704,-0.159768 1.342056,-0.655051 0.287585,-0.303561 0.527237,-0.718959 0.527237,-0.894704 0,-0.271607 -0.111838,-0.319538 -0.607121,-0.319538 -0.51126,0 -0.655052,0.07988 -0.798843,0.399421 -0.127815,0.287584 -0.30356,0.399423 -0.639075,0.399423 -0.702983,0 -0.990565,-0.431376 -0.990565,-1.485849 0,-0.990566 0.35149,-1.549757 0.942634,-1.549757 0.319538,0 0.81482,0.399423 0.81482,0.655052 0,0.07988 0.319538,0.143792 0.702983,0.143792 h 0.718959 l -0.143792,-0.495283 c -0.207699,-0.718959 -0.55919,-1.038496 -1.358033,-1.246195 -0.798844,-0.2077 -0.942636,-0.2077 -1.565734,-0.01598 z"
     id="path8192"
     style="stroke-width:0.0159769" />
  <path
     d="m 42.085937,82.407653 c -0.367467,0.175746 -0.782867,0.543214 -0.958612,0.830798 -0.383445,0.671028 -0.399421,2.236761 -0.03195,2.95572 0.495284,0.926658 2.124924,1.453894 3.035606,0.990566 0.51126,-0.271607 1.230218,-0.974589 1.230218,-1.214242 0,-0.303561 -1.182288,-0.271607 -1.437918,0.03195 -0.463328,0.559191 -1.757455,0.111838 -1.757455,-0.60712 0,-0.239654 0.223676,-0.271607 1.693548,-0.271607 h 1.709524 l -0.111837,-0.750914 c -0.127815,-0.974588 -0.527236,-1.613663 -1.214243,-1.981131 -0.718958,-0.383444 -1.358033,-0.383444 -2.156876,0.01598 z m 1.709526,1.07045 c 0.543213,0.495283 0.367467,0.687006 -0.671029,0.687006 -0.527237,0 -0.958612,-0.04793 -0.958612,-0.127815 0,-0.06391 0.111837,-0.287583 0.255629,-0.479307 0.287584,-0.415398 0.958613,-0.463328 1.374012,-0.07988 z"
     id="path8194"
     style="stroke-width:0.0159769" />
  <path
     d="m 49.754834,82.407653 c -0.367468,0.175746 -0.782867,0.543214 -0.958612,0.830798 -0.383444,0.671028 -0.399421,2.236761 -0.03195,2.95572 0.495283,0.926658 2.124923,1.453894 3.035604,0.990566 0.51126,-0.271607 1.230219,-0.974589 1.230219,-1.214242 0,-0.303561 -1.182288,-0.271607 -1.437918,0.03195 -0.463329,0.559191 -1.757456,0.111838 -1.757456,-0.60712 0,-0.239654 0.223677,-0.271607 1.693549,-0.271607 h 1.709524 l -0.111838,-0.750914 c -0.127814,-0.974588 -0.527236,-1.613663 -1.214242,-1.981131 -0.718958,-0.383444 -1.358033,-0.383444 -2.156877,0.01598 z m 1.709525,1.07045 c 0.543214,0.495283 0.367468,0.687006 -0.671029,0.687006 -0.527236,0 -0.958612,-0.04793 -0.958612,-0.127815 0,-0.06391 0.111838,-0.287583 0.25563,-0.479307 0.287584,-0.415398 0.958612,-0.463328 1.374011,-0.07988 z"
     id="path8196"
     style="stroke-width:0.0159769" />
  <path
     d="m 56.113628,82.327769 c -0.287584,0.127815 -0.527238,0.303561 -0.527238,0.399421 0,0.07988 -0.06391,0.159769 -0.159768,0.159769 -0.07988,0 -0.159769,-0.143791 -0.159769,-0.319537 0,-0.25563 -0.111838,-0.319537 -0.55919,-0.319537 h -0.55919 v 2.476414 2.476415 h 0.639075 0.639074 v -1.485849 c 0,-1.709525 0.175745,-2.09297 1.038497,-2.252738 0.527236,-0.111839 0.55919,-0.143792 0.55919,-0.734937 0,-0.702982 -0.111839,-0.750912 -0.910681,-0.399421 z"
     id="path8198"
     style="stroke-width:0.0159769" />
  <path
     d="m 58.526134,82.311792 c -0.55919,0.239653 -1.022519,0.81482 -1.022519,1.246195 0,0.431376 1.134357,0.399423 1.405964,-0.03195 0.239653,-0.399421 1.262172,-0.447351 1.405964,-0.07988 0.159769,0.415398 -0.223676,0.671029 -1.166311,0.798844 -1.166311,0.143791 -1.805386,0.718958 -1.805386,1.629639 0.01597,1.310103 1.310103,1.901248 2.524345,1.166312 0.447352,-0.271607 0.527237,-0.287583 0.607121,-0.07988 0.06391,0.159769 0.319537,0.239653 0.830797,0.239653 0.575168,0 0.687005,-0.04793 0.543214,-0.191722 -0.127815,-0.127815 -0.191723,-0.830797 -0.191723,-2.076992 0,-2.124923 -0.111837,-2.364577 -1.230218,-2.668138 -0.798844,-0.223676 -1.294127,-0.207699 -1.901248,0.04793 z m 1.693549,3.46698 c -0.303561,0.702982 -1.294127,0.846774 -1.549757,0.207699 -0.159769,-0.431374 0.175745,-0.766889 0.926659,-0.942634 0.81482,-0.2077 0.942635,-0.04793 0.623098,0.734935 z"
     id="path8200"
     style="stroke-width:0.0159769" />
  <path
     d="m 66.850082,82.407653 c -0.367467,0.175746 -0.782867,0.543214 -0.958612,0.830798 -0.383444,0.671028 -0.399421,2.236761 -0.03195,2.95572 0.495283,0.926658 2.124923,1.453894 3.035604,0.990566 0.511261,-0.271607 1.23022,-0.974589 1.23022,-1.214242 0,-0.303561 -1.182289,-0.271607 -1.437919,0.03195 -0.463329,0.559191 -1.757455,0.111838 -1.757455,-0.60712 0,-0.239654 0.223676,-0.271607 1.693548,-0.271607 h 1.709525 l -0.111838,-0.750914 c -0.127815,-0.974588 -0.527237,-1.613663 -1.214243,-1.981131 -0.718958,-0.383444 -1.358033,-0.383444 -2.156876,0.01598 z m 1.709525,1.07045 c 0.543214,0.495283 0.367468,0.687006 -0.671029,0.687006 -0.527236,0 -0.958612,-0.04793 -0.958612,-0.127815 0,-0.06391 0.111839,-0.287583 0.25563,-0.479307 0.287584,-0.415398 0.958613,-0.463328 1.374011,-0.07988 z"
     id="path8202"
     style="stroke-width:0.0159769" />
  <path
     d="m 33.698082,95.205124 v 3.37112 l 1.981131,-0.06387 c 1.725502,-0.04798 2.04504,-0.09585 2.444461,-0.38344 1.358034,-1.006543 1.725503,-3.610776 0.718959,-5.160533 -0.591143,-0.910681 -1.246195,-1.134358 -3.387095,-1.134358 h -1.757456 z m 3.355143,-2.108946 c 0.543213,0.143791 0.958611,1.02252 0.958611,2.013085 0,0.942636 -0.399422,1.837337 -0.958611,2.108943 -0.223677,0.111844 -0.734937,0.207707 -1.150335,0.207707 H 35.136 v -2.236766 -2.236761 l 0.76689,0.01598 c 0.415398,0.01598 0.926658,0.06391 1.150335,0.127814 z"
     id="path8378"
     style="stroke-width:0.0159769" />
  <path
     d="m 45.680732,92.952386 c 0,0.527237 -0.04793,0.639075 -0.319537,0.639075 -0.255629,0 -0.319537,0.111838 -0.319537,0.479305 0,0.367469 0.06391,0.479306 0.319537,0.479306 0.303561,0 0.319537,0.111838 0.319537,1.741482 0,2.076993 0.09586,2.252736 1.294127,2.252736 0.76689,0 0.782867,-0.01599 0.782867,-0.479303 0,-0.399423 -0.06391,-0.479313 -0.399423,-0.479313 -0.399421,0 -0.399421,0 -0.399421,-1.517799 0,-1.517803 0,-1.517803 0.399421,-1.517803 0.335514,0 0.399423,-0.07988 0.399423,-0.479306 0,-0.399421 -0.06391,-0.479305 -0.399423,-0.479305 -0.35149,0 -0.399421,-0.06391 -0.399421,-0.639075 v -0.639074 h -0.639075 -0.639075 z"
     id="path8390"
     style="stroke-width:0.0159769" />
  <path
     d="m 64.373668,92.952386 c 0,0.527237 -0.04793,0.639075 -0.319538,0.639075 -0.25563,0 -0.319537,0.111838 -0.319537,0.479305 0,0.367469 0.06391,0.479306 0.319537,0.479306 0.303561,0 0.319538,0.111838 0.319538,1.741482 0,2.076993 0.09586,2.252736 1.294126,2.252736 0.766889,0 0.782867,-0.01599 0.782867,-0.479303 0,-0.399423 -0.06391,-0.479313 -0.399422,-0.479313 -0.399422,0 -0.399422,0 -0.399422,-1.517799 0,-1.517803 0,-1.517803 0.399422,-1.517803 0.335514,0 0.399422,-0.07988 0.399422,-0.479306 0,-0.399421 -0.06391,-0.479305 -0.399422,-0.479305 -0.351491,0 -0.399422,-0.06391 -0.399422,-0.639075 v -0.639074 h -0.639074 -0.639075 z"
     id="path8392"
     style="stroke-width:0.0159769" />
  <path
     d="m 41.271117,93.655368 c -0.55919,0.239653 -1.022519,0.81482 -1.022519,1.246196 0,0.431375 1.134357,0.399422 1.405965,-0.03195 0.239652,-0.399421 1.262171,-0.447351 1.405963,-0.07988 0.159769,0.415398 -0.223676,0.671028 -1.166311,0.798844 -1.166311,0.143791 -1.805386,0.718963 -1.805386,1.629642 0.01598,1.310102 1.310103,1.90124 2.524344,1.166304 0.447353,-0.271606 0.527238,-0.287578 0.607122,-0.07986 0.06391,0.159771 0.319537,0.239662 0.830797,0.239662 0.575168,0 0.687005,-0.04797 0.543213,-0.191725 -0.127814,-0.127817 -0.191722,-0.830799 -0.191722,-2.076993 0,-2.124925 -0.111838,-2.364577 -1.230218,-2.668138 -0.798844,-0.223677 -1.294127,-0.2077 -1.901248,0.04793 z m 1.693549,3.466985 c -0.303561,0.702973 -1.294127,0.846771 -1.549757,0.207697 -0.159769,-0.431376 0.175746,-0.76689 0.926658,-0.942634 0.814821,-0.207707 0.942636,-0.04797 0.623099,0.734937 z"
     id="path8400"
     style="stroke-width:0.0159769" />
  <path
     d="m 49.579089,93.655368 c -0.559192,0.239653 -1.02252,0.81482 -1.02252,1.246196 0,0.431375 1.134358,0.399422 1.405964,-0.03195 0.239654,-0.399421 1.262173,-0.447351 1.405965,-0.07988 0.159769,0.415398 -0.223677,0.671028 -1.166311,0.798844 -1.166312,0.143791 -1.805386,0.718963 -1.805386,1.629642 0.01597,1.310102 1.310103,1.90124 2.524344,1.166304 0.447353,-0.271606 0.527237,-0.287578 0.607122,-0.07986 0.06391,0.159771 0.319537,0.239662 0.830796,0.239662 0.575167,0 0.687006,-0.04797 0.543214,-0.191725 -0.127815,-0.127817 -0.191723,-0.830799 -0.191723,-2.076993 0,-2.124925 -0.111838,-2.364577 -1.230219,-2.668138 -0.798842,-0.223677 -1.294125,-0.2077 -1.901246,0.04793 z m 1.693547,3.466985 c -0.303561,0.702973 -1.294126,0.846771 -1.549755,0.207697 -0.159769,-0.431376 0.175745,-0.76689 0.926657,-0.942634 0.814821,-0.207707 0.942636,-0.04797 0.623098,0.734937 z"
     id="path8402"
     style="stroke-width:0.0159769" />
  <path
     d="m 54.835478,93.607438 c -1.070451,0.30356 -1.53378,1.661594 -0.798844,2.332622 0.191723,0.191723 0.782867,0.463329 1.310104,0.607118 0.527236,0.159771 1.070449,0.38345 1.198264,0.511267 0.2077,0.207697 0.2077,0.255623 -0.06391,0.463321 -0.463329,0.335514 -1.022519,0.271615 -1.469872,-0.175744 -0.495282,-0.511257 -1.501825,-0.575165 -1.501825,-0.09585 0,0.46333 0.591143,1.086432 1.230218,1.310102 0.335515,0.111844 0.942636,0.143798 1.469872,0.09585 0.734937,-0.07986 0.974589,-0.175743 1.342057,-0.591137 0.942635,-1.054479 0.335514,-2.172857 -1.405964,-2.572279 -1.07045,-0.239653 -1.405965,-0.55919 -0.958612,-0.894705 0.367468,-0.25563 1.022519,-0.159768 1.294126,0.207699 0.223676,0.287585 1.342057,0.303561 1.342057,0.01598 0,-0.367468 -0.51126,-0.942635 -1.054473,-1.166311 -0.591144,-0.25563 -1.182289,-0.271607 -1.933201,-0.04793 z"
     id="path8404"
     style="stroke-width:0.0159769" />
  <path
     d="m 59.980029,93.75123 c -0.367468,0.175745 -0.782867,0.543213 -0.958612,0.830797 -0.383445,0.671028 -0.399421,2.236756 -0.03195,2.955721 0.495283,0.926661 2.124924,1.453891 3.035606,0.99056 0.511259,-0.271606 1.230218,-0.974588 1.230218,-1.21424 0,-0.30356 -1.182288,-0.271605 -1.437918,0.03198 -0.463329,0.559194 -1.757455,0.111845 -1.757455,-0.607119 0,-0.239652 0.223676,-0.271606 1.693548,-0.271606 h 1.709524 l -0.111837,-0.75091 c -0.127815,-0.97459 -0.527238,-1.613664 -1.214243,-1.981132 -0.718959,-0.383445 -1.358033,-0.383445 -2.156877,0.01597 z m 1.709526,1.070449 c 0.543213,0.495283 0.367467,0.687006 -0.67103,0.687006 -0.527236,0 -0.958611,-0.04793 -0.958611,-0.127815 0,-0.06391 0.111837,-0.287583 0.255629,-0.479306 0.287584,-0.415399 0.958612,-0.463329 1.374012,-0.07988 z"
     id="path8406"
     style="stroke-width:0.0159769" />
</svg>
