<?xml version="1.0" encoding="UTF-8" standalone="no"?>
<!-- Created with Inkscape (http://www.inkscape.org/) -->

<svg
   width="100mm"
   height="100mm"
   viewBox="0 0 100 100"
   version="1.1"
   id="svg26768"
   sodipodi:docname="addon.svg"
   inkscape:version="1.1.1 (3bf5ae0d25, 2021-09-20)"
   xmlns:inkscape="http://www.inkscape.org/namespaces/inkscape"
   xmlns:sodipodi="http://sodipodi.sourceforge.net/DTD/sodipodi-0.dtd"
   xmlns="http://www.w3.org/2000/svg"
   xmlns:svg="http://www.w3.org/2000/svg">
  <sodipodi:namedview
     id="namedview26770"
     pagecolor="#ffffff"
     bordercolor="#666666"
     borderopacity="1.0"
     inkscape:pageshadow="2"
     inkscape:pageopacity="0.0"
     inkscape:pagecheckerboard="0"
     inkscape:document-units="mm"
     showgrid="false"
     width="209mm"
     inkscape:zoom="0.7500982"
     inkscape:cx="13.998167"
     inkscape:cy="241.96832"
     inkscape:window-width="1920"
     inkscape:window-height="1027"
     inkscape:window-x="1912"
     inkscape:window-y="-8"
     inkscape:window-maximized="1"
     inkscape:current-layer="layer1" />
  <defs
     id="defs26765" />
  <g
     inkscape:label="Layer 1"
     inkscape:groupmode="layer"
     id="layer1">
    <path
       d="m 47.075492,4.6433212 c -0.355755,0.3557542 -0.758939,1.3044356 -1.090979,2.5851555 -0.47434,1.8262098 -0.616639,2.0870961 -1.233288,2.3479835 -1.019833,0.4269068 -1.067263,0.4031913 -3.106921,-0.8300958 -1.446742,-0.9012457 -1.968521,-1.0909822 -2.49029,-0.9723977 -0.403195,0.071155 -1.446734,0.9249631 -2.656306,2.1345308 -2.395421,2.4191355 -2.442852,2.6325905 -0.90125,5.2651795 1.067264,1.802489 1.067264,1.873644 0.75894,2.656306 -0.18973,0.450625 -0.37947,0.877524 -0.426899,0.90124 -0.04746,0.04745 -1.019834,0.33204 -2.181967,0.640364 -2.86976,0.782663 -2.940906,0.877533 -2.940906,4.411363 0,3.533839 0.07118,3.6287 2.940906,4.411364 1.162133,0.308324 2.134537,0.592923 2.181967,0.640363 0.04746,0.02372 0.237169,0.450624 0.426899,0.901248 0.332039,0.80638 0.332039,0.85381 -0.735224,2.585152 -1.612759,2.63259 -1.565318,2.893475 1.019834,5.478627 2.49028,2.514006 2.561444,2.53772 5.312612,0.853818 1.731342,-1.067273 1.778772,-1.067273 2.58516,-0.735234 0.450616,0.18974 0.877523,0.37948 0.901239,0.42691 0.04746,0.04746 0.33204,1.019833 0.640364,2.181966 0.782663,2.869761 0.877524,2.940907 4.411362,2.940907 3.604986,0 3.77101,-0.118586 4.506234,-3.083207 0.52177,-2.11082 0.52177,-2.134536 1.423018,-2.395422 0.877525,-0.260884 0.996119,-0.213453 2.846046,0.830094 1.494172,0.877525 2.087097,1.09098 2.58515,0.972404 0.37947,-0.07117 1.470458,-0.948687 2.632592,-2.134537 2.419127,-2.442851 2.466567,-2.72746 0.972393,-5.312611 -0.972393,-1.636473 -1.019832,-1.802487 -0.758939,-2.63259 0.260876,-0.85381 0.308315,-0.877525 2.324267,-1.423019 3.10692,-0.806378 3.154361,-0.877533 3.154361,-4.506233 0,-3.652414 -0.04746,-3.723569 -3.154361,-4.529948 -2.015952,-0.545495 -2.087096,-0.569209 -2.324267,-1.423019 -0.260893,-0.806378 -0.213454,-0.972402 0.71151,-2.537721 1.612757,-2.774889 1.612757,-2.774889 -0.806379,-5.265181 C 63.321651,8.7226491 62.278103,7.868835 61.851193,7.7739667 61.329415,7.6553822 60.783931,7.8688299 59.266043,8.7463644 57.439831,9.789912 57.273806,9.8373507 56.443713,9.6001786 55.589904,9.3392902 55.566178,9.2918565 55.020694,7.2521923 54.214316,4.168981 54.119446,4.0978302 50.561891,4.0978302 c -2.751166,0 -2.964619,0.023715 -3.486399,0.545491 z m 5.858106,2.466569 c 0.189729,0.6403603 0.474338,1.6839088 0.640354,2.3717028 l 0.33204,1.233282 1.707626,0.687795 1.707627,0.711508 2.039667,-1.162133 c 1.114694,-0.640354 2.110812,-1.162133 2.229397,-1.162133 0.23717,0 2.893476,2.680021 2.893476,2.917191 0,0.09486 -0.521779,1.090987 -1.162134,2.205681 l -1.162133,2.039667 0.71151,1.707627 c 0.735223,1.731342 0.735223,1.731342 1.944796,2.039658 0.66408,0.166023 1.707618,0.450623 2.347981,0.640363 l 1.114695,0.332039 v 2.110812 2.110813 l -1.233279,0.355753 c -0.687793,0.18974 -1.755066,0.47435 -2.371705,0.616649 -1.090979,0.284599 -1.114695,0.308315 -1.802488,2.015943 l -0.71151,1.707627 1.162133,1.992227 c 0.640355,1.090987 1.162134,2.110811 1.162134,2.229396 0,0.142309 -0.640364,0.877534 -1.423027,1.660197 l -1.446734,1.423019 -0.66408,-0.379471 c -0.355752,-0.213454 -1.351862,-0.758948 -2.181965,-1.233288 l -1.517888,-0.853808 -1.660187,0.711508 c -0.901249,0.403186 -1.683912,0.75894 -1.731343,0.80638 -0.04736,0.02372 -0.237169,0.687794 -0.426908,1.470457 -0.213456,0.75894 -0.474341,1.778772 -0.592925,2.253112 l -0.237169,0.901248 h -2.110814 c -2.324265,0 -2.087106,0.142301 -2.585159,-1.849926 -0.782665,-3.083215 -0.569209,-2.774891 -2.537712,-3.604985 l -1.778782,-0.735234 -2.015951,1.233289 -2.039658,1.233287 -1.541603,-1.541612 -1.517888,-1.517887 1.209563,-2.039658 1.209564,-2.015952 -0.640355,-1.636471 C 37.897011,28.194314 37.541256,27.36422 37.446386,27.26935 37.351523,27.150764 36.640008,26.913595 35.881069,26.723866 35.12212,26.534126 34.078572,26.249516 33.604232,26.130932 L 32.702984,25.893763 V 23.78295 c 0,-2.324266 -0.1423,-2.087097 1.849927,-2.585151 3.083215,-0.782665 2.774891,-0.569209 3.604983,-2.537721 l 0.735225,-1.802497 -1.185839,-2.015943 c -0.664079,-1.090986 -1.209572,-2.087096 -1.209572,-2.181966 0,-0.213454 2.703744,-2.86976 2.940905,-2.86976 0.09486,0 1.090989,0.545494 2.181967,1.185848 l 1.968512,1.209572 1.778782,-0.758948 c 1.731342,-0.711509 1.755047,-0.75894 2.039658,-1.8262054 0.142299,-0.6166431 0.426908,-1.683909 0.616638,-2.3717019 l 0.355764,-1.2332856 h 2.110811 2.110814 z"
       id="path101"
       style="stroke-width:0.0237171" />
    <path
       d="m 48.190194,15.814032 c -2.466566,0.806379 -4.174193,2.324267 -5.265172,4.648534 -0.877533,1.897366 -0.877533,4.767126 0.02372,6.688198 0.806379,1.731344 2.442852,3.367815 4.174194,4.174195 1.114703,0.521778 1.707628,0.616649 3.367814,0.640363 1.683913,0 2.229408,-0.09486 3.344101,-0.616639 1.873642,-0.877532 3.15436,-2.134536 4.055609,-3.960748 0.687794,-1.399303 0.782663,-1.802488 0.782663,-3.604985 0,-1.683903 -0.09486,-2.229398 -0.616638,-3.3441 -1.375588,-2.940907 -4.008178,-4.719688 -7.162539,-4.861987 -1.019834,-0.07118 -2.110812,0.04745 -2.703746,0.237169 z m 4.814549,2.158252 c 1.138427,0.47434 2.608875,1.921073 3.2018,3.15436 0.664079,1.328157 0.735233,3.747294 0.166024,5.051728 -1.019833,2.324266 -3.320384,3.842154 -5.881822,3.842154 -3.557553,0.02372 -6.261289,-2.751176 -6.237574,-6.356161 0.02372,-4.411363 4.624818,-7.423424 8.751572,-5.692081 z"
       id="path103"
       style="stroke-width:0.0237171" />
    <path
       d="M 19.184285,17.047321 C 8.5590597,21.197799 7.3732113,21.719568 6.6854174,22.478517 c -0.853811,0.972394 -1.1621325,2.300551 -0.830094,3.4864 0.1185849,0.426908 1.7313425,3.272944 3.5575548,6.332444 l 3.3440998,5.549782 -2.7986158,2.988346 C 2.1317521,49.183876 1.8708646,49.4922 1.609978,50.44088 c -0.3557554,1.304432 0.2371697,2.82232 1.4230208,3.557553 0.4743401,0.308316 3.0120604,1.446734 5.66837,2.537712 l 4.7908332,1.968513 v 10.506638 c 0,9.98487 0.02372,10.577784 0.474339,11.431603 0.237169,0.498054 0.758948,1.185847 1.162134,1.494171 0.403194,0.355756 7.589447,3.367816 17.076254,7.162539 l 16.38846,6.545895 h 1.897356 1.897359 l 16.38846,-6.569618 c 11.384162,-4.52994 16.649343,-6.759345 17.171113,-7.233685 1.565328,-1.351863 1.541612,-1.162133 1.541612,-12.807189 V 58.504658 l 5.146588,-2.134528 c 5.549782,-2.276837 6.545891,-2.940914 6.854209,-4.458803 0.284608,-1.589033 -0.189732,-2.276836 -5.739506,-8.182363 -2.917199,-3.130655 -5.312611,-5.786951 -5.312611,-5.905545 0,-0.142301 1.494171,-2.727451 3.320384,-5.786952 1.826213,-3.035774 3.39153,-5.881811 3.462676,-6.30872 0.237168,-1.304434 -0.118585,-2.442852 -1.04355,-3.367815 -0.758938,-0.735234 -2.466566,-1.470457 -12.309126,-5.312611 -6.308729,-2.466567 -11.573901,-4.411365 -11.739927,-4.340218 -0.332029,0.118585 -1.541593,2.229405 -1.375578,2.371705 0.07118,0.04745 4.719688,1.873643 10.3169,4.079324 5.620936,2.181967 10.862392,4.245348 11.692486,4.553673 1.257003,0.498054 1.47045,0.687784 1.47045,1.185848 0,0.332039 -1.37558,2.893476 -3.225516,5.952966 -1.778772,2.96463 -3.24922,5.407482 -3.272945,5.431196 -0.02372,0.04746 -3.510114,-1.328148 -7.708023,-3.01206 -8.585559,-3.438969 -8.822728,-3.486399 -9.32079,-1.849926 -0.213455,0.758948 -0.213455,0.972402 0.07117,1.233287 0.18974,0.166016 3.510115,1.565319 7.399699,3.130646 3.865878,1.541602 6.972808,2.86976 6.877939,2.940905 -0.118585,0.09486 -7.470854,3.083214 -16.364735,6.640761 L 50.490764,51.816457 34.315758,45.365428 c -8.917596,-3.557547 -16.269874,-6.545892 -16.388459,-6.640761 -0.09486,-0.07117 3.130644,-1.470447 7.162539,-3.083206 4.055608,-1.612757 7.399709,-3.035785 7.447147,-3.178085 0.213446,-0.521768 -0.592923,-2.039666 -1.138418,-2.181965 -0.355754,-0.09486 -3.083214,0.901248 -8.300957,2.988344 -4.269063,1.707627 -7.779179,3.083215 -7.802894,3.035776 -0.735233,-0.924964 -6.5458997,-11.028408 -6.5458997,-11.313009 0,-0.237169 0.1422999,-0.545493 0.3083243,-0.687794 0.1422992,-0.118583 5.4074724,-2.229405 11.6687734,-4.672256 6.26129,-2.442853 11.455308,-4.506234 11.550177,-4.601104 0.09487,-0.07118 -0.166014,-0.687785 -0.592924,-1.351862 L 30.924228,12.446218 Z M 31.232526,47.28651 47.92931,53.974709 43.091038,58.812982 C 40.458446,61.469288 37.99188,63.81727 37.636126,64.00701 36.236814,64.742233 35.738759,64.552502 19.895794,57.959164 11.499975,54.449049 4.5746044,51.460704 4.5271704,51.318403 4.4323026,51.057518 14.085126,40.622034 14.39345,40.622034 c 0.09486,0 7.684309,3.01206 16.839076,6.664476 z m 60.407242,-1.517888 c 2.608866,2.798605 4.743394,5.265172 4.743394,5.45492 0,0.569201 -30.19175,13.115506 -31.543622,13.115506 -1.351873,0 -1.992237,-0.498064 -7.30484,-5.858106 l -4.458803,-4.482509 16.673069,-6.664484 c 9.178482,-3.676139 16.791636,-6.6882 16.91022,-6.6882 0.142309,0 2.371706,2.300551 4.980582,5.122873 z m -42.14514,38.042091 -0.07117,8.988743 -16.00899,-6.427306 C 24.615455,82.83832 17.286901,79.921119 17.1446,79.849974 16.409367,79.517935 16.338221,78.450671 16.338221,69.201026 c 0,-5.146588 0.07118,-9.368211 0.166015,-9.368211 0.09486,0 4.174194,1.683902 9.083621,3.723569 12.498867,5.217743 11.455318,5.336328 18.855026,-2.063381 l 4.980573,-4.980573 0.07117,9.154766 c 0.02372,5.028002 0.02372,13.18666 -10e-7,18.143517 z m 7.281124,-22.104257 c 4.767118,4.743404 5.051727,4.980574 6.379875,5.360043 0.782663,0.23717 1.826212,0.355755 2.371705,0.308324 0.545485,-0.07118 4.980573,-1.778772 9.866277,-3.842163 4.909427,-2.039657 8.988751,-3.699845 9.083619,-3.699845 0.09485,0 0.166016,4.292778 0.166016,9.55795 0,9.083622 -0.02372,9.581676 -0.450624,10.056016 -0.450625,0.474338 -31.662207,13.115514 -32.397441,13.115514 -0.308315,0 -0.355754,-2.158252 -0.355754,-17.906348 0,-9.84256 0.07117,-17.906347 0.166015,-17.906347 0.09487,0 2.419136,2.229396 5.170312,4.956856 z"
       id="path117"
       style="stroke-width:0.0237171" />
  </g>
</svg>
