<?xml version="1.0" encoding="UTF-8" standalone="no"?>
<!-- Created with Inkscape (http://www.inkscape.org/) -->

<svg
   width="100mm"
   height="100mm"
   viewBox="0 0 100 100"
   version="1.1"
   id="svg26768"
   inkscape:version="1.1.1 (3bf5ae0d25, 2021-09-20)"
   sodipodi:docname="app.svg"
   xmlns:inkscape="http://www.inkscape.org/namespaces/inkscape"
   xmlns:sodipodi="http://sodipodi.sourceforge.net/DTD/sodipodi-0.dtd"
   xmlns="http://www.w3.org/2000/svg"
   xmlns:svg="http://www.w3.org/2000/svg">
  <sodipodi:namedview
     id="namedview26770"
     pagecolor="#ffffff"
     bordercolor="#666666"
     borderopacity="1.0"
     inkscape:pageshadow="2"
     inkscape:pageopacity="0.0"
     inkscape:pagecheckerboard="0"
     inkscape:document-units="mm"
     showgrid="false"
     width="209mm"
     inkscape:zoom="0.7500982"
     inkscape:cx="13.998167"
     inkscape:cy="241.96832"
     inkscape:window-width="1920"
     inkscape:window-height="1027"
     inkscape:window-x="1912"
     inkscape:window-y="-8"
     inkscape:window-maximized="1"
     inkscape:current-layer="layer1" />
  <defs
     id="defs26765" />
  <g
     inkscape:label="Layer 1"
     inkscape:groupmode="layer"
     id="layer1">
    <path
       d="m 47.66422,4.0600535 c -0.04767,0.1668758 -0.38143,1.3826834 -0.739021,2.6938495 -0.333751,1.311165 -0.715181,2.5508128 -0.834377,2.7653677 -0.09536,0.1907147 -0.643663,0.5006263 -1.215809,0.6675013 -0.572145,0.166876 -1.50188,0.572145 -2.097865,0.858218 l -1.096611,0.548306 -2.574653,-1.54956 -2.574653,-1.5733981 -1.907149,1.9071491 -1.88331,1.883311 1.549558,2.598492 1.54956,2.574653 -0.548305,1.096611 c -0.309913,0.595984 -0.739021,1.644917 -0.953576,2.28858 l -0.381429,1.215808 -2.932244,0.715182 -2.908403,0.715181 -0.07152,2.64617 -0.07152,2.670011 0.905895,0.238394 c 0.500628,0.143035 1.835633,0.476786 2.979923,0.762859 l 2.074026,0.500627 0.405268,1.239647 c 0.214555,0.667503 0.643663,1.716435 0.953576,2.31242 l 0.548305,1.096611 -1.54956,2.574652 -1.549558,2.598493 1.88331,1.859471 1.859471,1.88331 2.598492,-1.549559 2.574652,-1.549559 1.096612,0.548305 c 0.595984,0.309912 1.644917,0.739021 2.312419,0.953576 l 1.239648,0.405269 0.500627,2.074025 c 0.286072,1.144291 0.619824,2.479296 0.76286,2.979922 l 0.238394,0.905896 2.67001,-0.07152 2.646171,-0.07152 0.715181,-2.908405 0.715181,-2.908403 1.54956,-0.572145 c 0.858217,-0.333751 1.907149,-0.715181 2.312419,-0.882057 0.667503,-0.286072 0.858218,-0.238394 3.289834,1.191969 l 2.598492,1.478042 1.883311,-1.907151 1.907149,-1.88331 -1.478041,-2.598492 c -1.430363,-2.431617 -1.478041,-2.622332 -1.191969,-3.289834 0.166876,-0.405269 0.524467,-1.382684 0.834378,-2.169383 0.595985,-1.597239 0.357591,-1.454202 4.839393,-2.741529 l 1.740275,-0.500626 -0.07152,-2.646171 -0.07152,-2.646171 -2.813046,-0.762859 c -1.52572,-0.429109 -2.884565,-0.834379 -2.956083,-0.929736 -0.09536,-0.09536 -0.40527,-0.786699 -0.691341,-1.52572 -0.286073,-0.739021 -0.643664,-1.692596 -0.81054,-2.097865 -0.286072,-0.667503 -0.238394,-0.858218 1.191969,-3.289834 l 1.478037,-2.598494 -1.90715,-1.88331 -1.883311,-1.9071508 -2.526974,1.4542022 c -1.382684,0.8105376 -2.622331,1.4542006 -2.741528,1.4542006 -0.119197,0 -0.929736,-0.333751 -1.787953,-0.71518 -0.882057,-0.40527 -1.740275,-0.7151806 -1.930989,-0.7151806 -0.500628,0 -0.643664,-0.309913 -1.478042,-3.3375138 L 53.099585,3.893171 50.429575,3.82165 c -2.002507,-0.047674 -2.67001,0.023837 -2.765368,0.2383941 z m 4.648678,11.8720085 c 1.978669,0.38143 3.695104,1.287326 5.268503,2.765368 4.267247,4.076533 4.338766,10.727719 0.166875,14.804251 -4.219569,4.124213 -10.465486,4.124213 -14.661216,0.02384 -4.076533,-4.005019 -4.148051,-10.322454 -0.166875,-14.518183 2.526974,-2.646171 5.888325,-3.742782 9.392713,-3.07528 z"
       id="path91"
       style="stroke-width:0.0238394" />
    <path
       d="M 18.937773,19.41261 C 8.162375,23.608341 7.0657639,24.085128 6.3744217,24.895668 c -0.9058962,1.025092 -1.1681294,2.121704 -0.858217,3.38519 0.1430357,0.476788 1.7641132,3.385192 3.5997457,6.460471 l 3.3613516,5.578414 -2.9084042,3.099119 c -7.3186881,7.771636 -8.0338684,8.606014 -8.2961026,9.559589 -0.30991138,1.16813 0.2383941,2.789207 1.1681293,3.43287 0.3575907,0.262234 2.9322436,1.406524 5.7214505,2.550813 L 13.216323,61.06 v 10.584682 c 0,10.036377 0.02384,10.632362 0.476787,11.490579 0.238394,0.500627 0.76286,1.191968 1.16813,1.501881 0.405269,0.35759 7.60476,3.361352 16.997475,7.127973 l 16.282293,6.531989 h 2.264741 2.264741 l 16.282292,-6.531989 c 9.392715,-3.766621 16.592205,-6.770383 16.997475,-7.127973 0.40527,-0.309913 0.929735,-1.001254 1.168129,-1.501881 0.452948,-0.858217 0.476787,-1.454202 0.476787,-11.490579 V 61.06 l 5.077788,-2.097866 c 2.765368,-1.144289 5.340019,-2.288579 5.69761,-2.550813 0.333754,-0.238394 0.810536,-0.905896 1.025086,-1.478041 0.739023,-1.90715 0.52447,-2.264741 -5.530728,-8.725211 -3.003761,-3.194477 -5.411538,-5.912165 -5.363859,-6.055202 0.04768,-0.143036 1.573399,-2.741527 3.409031,-5.769128 1.811793,-3.051441 3.385191,-5.864487 3.456709,-6.269756 0.238393,-1.14429 -0.09536,-2.264741 -0.929736,-3.218315 -0.691341,-0.81054 -1.787952,-1.287327 -12.324957,-5.411538 -6.365112,-2.479296 -11.705132,-4.481804 -11.872008,-4.457964 -0.333751,0.07152 -1.668757,2.240901 -1.478042,2.407777 0.07152,0.04767 3.456709,1.382684 7.509404,2.979922 16.949795,6.579667 16.091577,6.222077 16.091577,6.88958 0,0.33375 -1.358844,2.860724 -3.242155,5.983682 -1.787952,2.979922 -3.265994,5.435378 -3.313672,5.483057 -0.04768,0.04767 -3.552067,-1.311166 -7.771637,-3.003761 -8.606014,-3.45671 -8.844408,-3.504388 -9.321195,-1.907151 -0.214554,0.762861 -0.214554,0.977415 0.07152,1.239648 0.190715,0.166876 3.528227,1.573398 7.437885,3.146797 3.885818,1.54956 7.008776,2.884565 6.913419,2.956083 -0.119197,0.09536 -7.509404,3.099118 -16.449169,6.675025 l -16.282296,6.48431 -16.258455,-6.48431 C 25.183689,44.300918 17.793483,41.297157 17.674286,41.2018 c -0.09536,-0.07152 3.146798,-1.478042 7.199492,-3.099119 4.076532,-1.621078 7.437885,-3.05144 7.485563,-3.194476 0.214554,-0.524466 -0.595984,-2.050187 -1.144289,-2.193222 -0.357592,-0.09536 -3.099119,0.905895 -8.343782,3.003761 -4.291088,1.716435 -7.819315,3.099118 -7.866994,3.05144 C 14.47981,38.221878 8.4484473,27.756392 8.4484473,27.398802 c 0,-0.262234 0.2383941,-0.643664 0.5483055,-0.834379 0.2860723,-0.166875 5.5784142,-2.288579 11.7289732,-4.672517 6.174399,-2.407776 11.276025,-4.410285 11.347543,-4.505642 0.09536,-0.07152 -0.190715,-0.691341 -0.595985,-1.358844 l -0.73902,-1.215809 z m 12.110402,30.395205 16.782921,6.722703 -4.863233,4.863233 c -2.64617,2.67001 -5.125466,5.030109 -5.483056,5.220823 -0.357591,0.190715 -1.048933,0.333752 -1.573398,0.333752 -1.287327,0 -31.634852,-12.63487 -31.634852,-13.183175 0,-0.357591 9.511911,-10.656201 9.845662,-10.656201 0.09536,0 7.723958,3.027601 16.925956,6.698865 z m 60.71889,-1.52572 c 2.622331,2.813046 4.767875,5.292341 4.767875,5.483056 0,0.548305 -30.347525,13.183175 -31.634851,13.183175 -0.524466,0 -1.215808,-0.143037 -1.573399,-0.333752 -0.35759,-0.190714 -2.836885,-2.550813 -5.483056,-5.220823 l -4.863233,-4.863233 16.663723,-6.698864 c 9.154321,-3.671264 16.80676,-6.675025 16.997475,-6.675025 0.190715,0 2.503135,2.28858 5.125466,5.125466 z m -42.36257,38.071482 -0.07152,9.201999 -16.258454,-6.50815 c -10.084056,-4.028855 -16.42533,-6.698864 -16.639884,-6.984937 -0.286073,-0.38143 -0.333752,-1.978667 -0.357591,-10.084056 0,-9.035123 0.02384,-9.607267 0.429109,-9.511911 0.214554,0.07152 4.314927,1.764114 9.106641,3.766622 12.301118,5.173145 11.299864,5.292342 18.71391,-2.145544 l 5.006269,-5.006268 0.07152,9.035122 c 0.02384,4.98243 0.02384,13.183175 0,18.237123 z m 13.73148,-16.663723 c 0.882057,0.262233 1.787954,0.35759 2.407777,0.286072 0.572145,-0.09536 4.910911,-1.764114 9.678786,-3.76662 4.767875,-1.97867 8.868248,-3.671265 9.106641,-3.718944 0.38143,-0.119196 0.40527,0.452948 0.40527,9.488071 0,8.772891 -0.04768,9.678787 -0.429109,10.131735 -0.262233,0.333752 -5.649932,2.598492 -15.185682,6.412792 -8.129227,3.242155 -15.447915,6.150559 -16.258453,6.460471 l -1.501881,0.572145 V 77.270775 58.985974 l 5.196984,5.149305 c 4.95859,4.934751 5.220823,5.173145 6.579667,5.554575 z"
       id="path119"
       style="stroke-width:0.0238394" />
  </g>
</svg>
