<?xml version="1.0" encoding="UTF-8" standalone="no"?>
<!-- Created with Inkscape (http://www.inkscape.org/) -->

<svg
   width="100mm"
   height="100mm"
   viewBox="0 0 100 100"
   version="1.1"
   id="svg26768"
   xmlns="http://www.w3.org/2000/svg"
   xmlns:svg="http://www.w3.org/2000/svg">
  <defs
     id="defs26765" />
  <path
     d="M 43.554676,2.0388604 C 30.969152,2.708493 20.959115,4.7860388 18.62401,7.1898181 l -0.566605,0.5837824 v 7.8981375 7.915321 l 3.245106,23.780278 3.245109,23.780277 0.738303,0.652467 c 1.716989,1.528113 6.352857,3.073412 12.087598,4.052094 4.910582,0.824148 6.88512,0.961515 13.9076,0.961515 7.022479,0 8.997009,-0.137442 13.907602,-0.961515 5.734741,-0.978682 10.370599,-2.523981 12.087597,-4.052094 L 78.014618,71.147614 81.25973,47.367337 84.504842,23.587059 V 15.740421 7.8937834 L 83.955391,7.2756674 C 81.980861,5.0092562 73.344409,3.0518933 61.754745,2.21056 58.252102,1.95301 47.143178,1.8499939 43.554676,2.0388971 Z m 12.362311,2.060379 c 5.065108,0.1716628 9.323234,0.4807673 13.049113,0.9443494 5.803406,0.7382978 10.954382,2.0260464 12.928912,3.2107606 l 0.549431,0.3433992 v 7.1255054 7.142673 l -3.176428,23.368195 c -1.751312,12.84308 -3.21076,23.539913 -3.262278,23.745945 -0.06863,0.274715 -0.480748,0.583783 -1.510947,1.064531 -3.245094,1.562465 -8.636453,2.78153 -15.401375,3.485496 -3.245111,0.343399 -13.117788,0.291882 -16.483083,-0.08583 C 35.914076,73.68878 29.956133,72.22935 27.2948,70.666885 L 26.556494,70.237635 23.328558,46.49169 20.10062,22.728578 20.11782,15.654589 V 8.597768 L 20.684429,8.237202 C 23.981047,6.2111545 34.6092,4.477009 45.958494,4.1164429 48.139063,4.0478105 50.14794,3.9790013 50.42266,3.9619847 c 0.291888,-0.016829 2.764353,0.051426 5.494364,0.1374417 z"
     id="path54"
     style="stroke-width:0.0171699" />
  <path
     d="m 35.398982,94.241119 v 3.60568 h 1.974539 c 2.867371,0 3.67435,-0.429256 3.82888,-2.043237 0.06868,-0.772634 0.03437,-0.910001 -0.446416,-1.373579 -0.49793,-0.49791 -0.49793,-0.532262 -0.188871,-0.806985 0.480757,-0.429247 0.583779,-1.304916 0.240379,-1.957358 -0.429243,-0.824172 -1.13321,-1.030202 -3.433972,-1.030202 h -1.974539 z m 3.691522,-2.232082 c 0.377742,0.137439 0.446421,0.257548 0.394908,0.721136 -0.05152,0.635277 -0.377736,0.772644 -1.802833,0.806975 l -0.910008,0.01686 v -0.858493 -0.858483 h 0.927173 c 0.5151,0 1.150386,0.06866 1.39076,0.171668 z m 0.394908,2.953208 c 0.120183,0.120242 0.206041,0.41209 0.206041,0.669638 0,0.70395 -0.566607,1.013016 -1.83718,1.013016 h -1.081702 v -0.944353 -0.944332 h 1.253402 c 0.738307,0 1.339253,0.08583 1.459439,0.206031 z"
     id="path220"
     style="stroke-width:0.0171699" />
  <path
     d="m 54.114157,94.241119 v 3.60568 h 0.686781 0.6868 v -0.927186 c 0,-0.566604 0.08583,-0.99585 0.240383,-1.116051 0.274716,-0.223196 0.360566,-0.137439 1.064531,1.133216 0.497934,0.910021 0.497934,0.910021 1.322081,0.910021 0.463583,0 0.789816,-0.05139 0.755483,-0.137448 -0.0344,-0.06866 -0.480766,-0.806976 -0.978699,-1.631127 l -0.892832,-1.528111 0.875665,-0.892855 c 0.480768,-0.480744 0.875666,-0.944332 0.875666,-1.013016 0,-0.06866 -0.360566,-0.120232 -0.806982,-0.120232 -0.789816,0.01686 -0.858499,0.06866 -1.596797,0.961498 l -0.77265,0.944342 -0.05143,-1.888674 -0.05161,-1.905871 h -0.669633 -0.686781 z"
     id="path222"
     style="stroke-width:0.0171699" />
  <path
     d="m 65.446273,91.837338 c 0,0.566593 -0.05143,0.686795 -0.343401,0.686795 -0.274715,0 -0.343399,0.120242 -0.343399,0.515085 0,0.394915 0.06863,0.515096 0.343399,0.515096 0.326234,0 0.343401,0.120242 0.343401,1.871519 0,2.232081 0.103034,2.420966 1.390764,2.420966 0.824148,0 0.841314,-0.01686 0.841314,-0.515106 0,-0.429246 -0.06863,-0.515095 -0.429249,-0.515095 -0.42925,0 -0.42925,0 -0.42925,-1.631147 0,-1.631137 0,-1.631137 0.42925,-1.631137 0.360566,0 0.429249,-0.08583 0.429249,-0.515096 0,-0.429226 -0.06863,-0.515085 -0.429249,-0.515085 -0.377732,0 -0.42925,-0.06866 -0.42925,-0.686795 v -0.686794 h -0.686781 -0.686798 z"
     id="path282"
     style="stroke-width:0.0171699" />
  <path
     d="m 49.770169,92.524133 c -0.686794,0.20604 -0.978682,0.49792 -1.339248,1.287739 -0.412078,0.875659 -0.412078,2.043207 0,2.936042 0.412074,0.927176 1.270569,1.339247 2.472462,1.219066 0.721127,-0.06866 0.961511,-0.171668 1.442278,-0.70397 0.309048,-0.326232 0.566598,-0.772644 0.566598,-0.961518 0,-0.29188 -0.120239,-0.343398 -0.652449,-0.343398 -0.54945,0 -0.703965,0.08583 -0.858499,0.429257 -0.137367,0.309066 -0.326231,0.429247 -0.686797,0.429247 -0.755474,0 -1.064531,-0.463589 -1.064531,-1.596795 0,-1.064534 0.377736,-1.665489 1.013022,-1.665489 0.343395,0 0.875655,0.429257 0.875655,0.70397 0,0.08583 0.343399,0.154462 0.755483,0.154462 h 0.77265 l -0.154459,-0.532272 c -0.223199,-0.772644 -0.60095,-1.116051 -1.45943,-1.339247 -0.858503,-0.223216 -1.013031,-0.223216 -1.682661,-0.01686 z"
     id="path322"
     style="stroke-width:0.0171699" />
  <path
     d="m 60.552864,92.695821 c -0.394917,0.188885 -0.841333,0.583779 -1.030199,0.892845 -0.412083,0.721136 -0.42925,2.40378 -0.0344,3.176414 0.532266,0.99587 2.283596,1.562463 3.262278,1.064533 0.549432,-0.29189 1.322081,-1.047347 1.322081,-1.304895 0,-0.326242 -1.270582,-0.29191 -1.545298,0.03443 -0.497915,0.600945 -1.888679,0.120242 -1.888679,-0.652453 0,-0.257548 0.240383,-0.291879 1.819995,-0.291879 h 1.837181 L 64.175584,94.80782 c -0.137441,-1.047347 -0.566616,-1.734152 -1.304915,-2.129066 -0.772649,-0.412061 -1.45943,-0.412061 -2.317929,0.01686 z m 1.837162,1.150393 c 0.583784,0.532272 0.394917,0.738302 -0.721132,0.738302 -0.566598,0 -1.03018,-0.05139 -1.03018,-0.137439 0,-0.06866 0.120238,-0.309055 0.274716,-0.515085 0.309049,-0.446433 1.03018,-0.49793 1.476596,-0.08583 z"
     id="path324"
     style="stroke-width:0.0171699" />
  <path
     d="m 42.438633,94.56733 c 0,1.133216 0.06868,2.249268 0.171699,2.506815 0.360566,0.944353 2.043217,1.133217 2.936048,0.326232 0.309059,-0.274734 0.326231,-0.274734 0.326231,0.06866 0,0.326231 0.103016,0.377749 0.686793,0.377749 h 0.686795 V 95.18544 92.524133 h -0.772644 -0.772644 v 1.854342 c 0,1.596785 -0.05152,1.905851 -0.309058,2.146233 -0.360567,0.326211 -0.772646,0.360563 -1.253403,0.120242 -0.291887,-0.171668 -0.326229,-0.377739 -0.326229,-2.146232 v -1.974534 h -0.686795 -0.686793 z"
     id="path450"
     style="stroke-width:0.0171699" />
</svg>
