<?xml version="1.0" encoding="UTF-8" standalone="no"?>
<!-- Created with Inkscape (http://www.inkscape.org/) -->

<svg
   width="100mm"
   height="100mm"
   viewBox="0 0 100 100"
   version="1.1"
   id="svg26768"
   sodipodi:docname="cluster Peer.svg"
   inkscape:version="1.1.1 (3bf5ae0d25, 2021-09-20)"
   xmlns:inkscape="http://www.inkscape.org/namespaces/inkscape"
   xmlns:sodipodi="http://sodipodi.sourceforge.net/DTD/sodipodi-0.dtd"
   xmlns="http://www.w3.org/2000/svg"
   xmlns:svg="http://www.w3.org/2000/svg">
  <sodipodi:namedview
     id="namedview26770"
     pagecolor="#ffffff"
     bordercolor="#666666"
     borderopacity="1.0"
     inkscape:pageshadow="2"
     inkscape:pageopacity="0.0"
     inkscape:pagecheckerboard="0"
     inkscape:document-units="mm"
     showgrid="false"
     width="209mm"
     inkscape:zoom="0.7500982"
     inkscape:cx="13.998167"
     inkscape:cy="135.31562"
     inkscape:window-width="1920"
     inkscape:window-height="1027"
     inkscape:window-x="1912"
     inkscape:window-y="-8"
     inkscape:window-maximized="1"
     inkscape:current-layer="layer1" />
  <defs
     id="defs26765" />
  <g
     inkscape:label="Layer 1"
     inkscape:groupmode="layer"
     id="layer1">
    <path
       d="m 38.032434,1.3173885 c -0.88254,0.27017 -1.76508,1.09867 -2.21535,2.05325 l -0.43226,0.91856 v 11.5270095 11.52701 l -5.13312,8.01487 c -2.82772,4.41268 -5.29522,8.23101 -5.49334,8.50117 l -0.37823,0.50431 h -4.50274 c -4.07048,0 -4.55677,0.036 -5.16914,0.34221 -0.77448,0.39624 -1.29679,0.93657 -1.76508,1.8191 -0.3242,0.59436 -0.34221,1.40486 -0.39624,16.19185 -0.036,10.71652 0.018,15.86765 0.14409,16.51604 0.25215,1.17071 1.00861,2.25137 1.90916,2.70165 0.6664,0.32419 1.24275,0.3422 13.3281,0.3422 h 12.60767 l 0.75646,-0.48629 c 0.39624,-0.27017 0.97259,-0.88254 1.24276,-1.35083 l 0.5043,-0.86452 0.054,-8.78935 0.054,-8.77133 h 7.54659 7.54658 l 0.054,8.77133 0.054,8.78935 0.45027,0.81049 c 0.25216,0.43226 0.8105,1.04464 1.22475,1.35082 l 0.79248,0.54033 12.35551,0.054 c 13.61628,0.054 13.23805,0.072 14.39076,-1.04464 1.20673,-1.17071 1.13469,-0.09 1.13469,-17.95692 v -16.20986 l -0.41426,-0.79248 c -0.23414,-0.43226 -0.77447,-1.04464 -1.18872,-1.33281 l -0.77447,-0.54033 -4.7729,-0.0901 -4.79092,-0.0901 -5.47532,-8.51918 -5.45732,-8.51918 v -11.52701 c 0,-12.5716395 0.018,-12.2294295 -1.04464,-13.3821295 -0.27016,-0.28818 -0.81049,-0.66641 -1.20673,-0.84652 -0.68442,-0.32419 -1.40486,-0.34221 -12.87783,-0.32419 -6.68207,0 -12.39154,0.09 -12.6617,0.16209 z m 24.80108,2.71966 0.46828,0.36022 v 13.1840095 13.16601 l -0.39624,0.41425 -0.37823,0.41425 h -11.85121 c -11.38292,0 -11.8512,-0.018 -12.24744,-0.34221 l -0.43226,-0.3422 V 17.617308 4.3432285 l 0.43226,-0.3422 c 0.39624,-0.3242 0.86452,-0.34221 12.1754,-0.34221 11.61706,0 11.76115,0 12.22944,0.37823 z M 50.297894,32.800538 c 6.97023,0.018 12.03131,-0.018 12.39153,-0.12608 l 0.61237,-0.1621 v 1.639 c 0,1.42286 -0.054,1.69303 -0.39624,2.05325 l -0.37823,0.41425 h -11.85121 c -14.03053,0 -12.64368,0.27016 -12.75175,-2.44949 -0.054,-1.639 -0.036,-1.72905 0.27017,-1.58496 0.19812,0.09 5.63742,0.18011 12.10336,0.21613 z m 19.5779,5.54737 3.87235,5.74549 -6.33985,0.0901 c -4.23258,0.054 -6.51996,0.1621 -6.82615,0.30618 -0.79248,0.34221 -1.639,1.18873 -1.9812,1.94519 -0.30619,0.64839 -0.34221,1.29678 -0.34221,6.88018 v 6.17776 h -7.5646 -7.5646 v -5.81754 c 0,-6.64604 -0.0721,-7.16836 -1.20674,-8.24901 -1.22474,-1.18873 -0.9906,-1.15271 -7.99686,-1.24276 l -6.4119,-0.0901 3.89037,-5.7635 3.89036,-5.74549 0.10807,1.87313 c 0.054,1.04464 0.18011,2.10729 0.28817,2.35944 0.34221,0.77447 1.17072,1.639 1.94519,1.9812 0.68441,0.30619 1.47689,0.34221 12.93186,0.34221 13.32811,0 12.91385,0.036 14.04854,-1.04463 0.9906,-0.91856 1.20674,-1.62099 1.20674,-3.74628 0,-1.06265 0.036,-1.89115 0.0901,-1.83712 0.054,0.054 1.83712,2.66562 3.96241,5.83555 z m -29.91619,8.73531 0.46828,0.36022 v 13.3101 13.31009 l -0.39624,0.27016 c -0.36022,0.25215 -1.8191,0.28818 -12.24744,0.28818 -11.61707,0 -11.85121,0 -12.21143,-0.36022 -0.36022,-0.36022 -0.36022,-0.59436 -0.36022,-13.58026 v -13.23805 l 0.46829,-0.36022 c 0.46828,-0.37823 0.61237,-0.37823 12.13938,-0.37823 11.52701,0 11.67109,0 12.13938,0.37823 z m 45.80185,0.0361 c 0.30618,0.30618 0.3242,1.11667 0.37823,13.43616 0.036,13.05794 0.036,13.11198 -0.34221,13.58026 l -0.36022,0.4863 h -11.92325 -11.90524 l -0.41425,-0.39624 -0.41425,-0.37824 v -13.13003 -13.12998 l 0.45027,-0.45027 0.45028,-0.43227 11.86922,0.0361 c 11.13076,0.054 11.90523,0.072 12.21142,0.37823 z m -45.33357,30.31243 c 0,2.57556 1.36884,2.32341 -12.60766,2.32341 -13.9765,0 -12.60767,0.25215 -12.60767,-2.32341 v -1.639 h 12.60767 12.60766 z m 45.74782,-0.25216 c 0,1.60298 -0.21613,2.19734 -0.88253,2.48552 -0.3242,0.12607 -4.03446,0.1801 -12.13939,0.14408 l -11.6891,-0.054 -0.34221,-0.43226 c -0.27017,-0.34221 -0.34221,-0.70243 -0.34221,-1.98121 v -1.54894 h 12.69772 12.69772 z"
       id="path7985"
       style="stroke-width:0.018011" />
    <path
       d="m 21.786554,91.372148 c -1.36883,0.43226 -2.25137,1.92718 -2.25137,3.87236 0,1.94518 0.59436,3.00783 2.03524,3.60219 1.78308,0.73845 3.6202,0.018 4.35865,-1.76508 l 0.27016,-0.6664 h -0.79248 c -0.64839,0 -0.8285,0.072 -0.91856,0.36022 -0.30618,0.97259 -1.9812,1.26076 -2.75567,0.48629 -0.8105,-0.8285 -0.77447,-3.36805 0.054,-4.19655 0.61237,-0.61237 1.74706,-0.59436 2.34142,0.018 0.25216,0.23414 0.45028,0.52232 0.45028,0.63038 0,0.0901 0.37823,0.18011 0.8285,0.18011 0.75646,0 0.81049,-0.018 0.70243,-0.41425 -0.25216,-0.79248 -0.82851,-1.53093 -1.44088,-1.81911 -0.77447,-0.37822 -2.16131,-0.5043 -2.88175,-0.28817 z"
       id="path8051"
       style="stroke-width:0.018011" />
    <path
       d="m 27.279894,95.154448 v 3.7823 h 0.72044 0.72044 v -3.7823 -3.7823 h -0.72044 -0.72044 z"
       id="path8057"
       style="stroke-width:0.018011" />
    <path
       d="m 58.979164,95.154448 v 3.7823 h 0.72044 0.72044 v -1.35082 -1.35082 h 1.22474 c 1.49492,0 2.34143,-0.37823 2.77369,-1.26077 0.63038,-1.24275 0.19812,-2.71965 -0.93657,-3.27799 -0.48629,-0.25215 -1.08065,-0.3242 -2.55755,-0.3242 h -1.94519 z m 3.85435,-2.17932 c 0.36022,0.30618 0.37823,1.09866 0.036,1.54894 -0.19811,0.27016 -0.48629,0.34221 -1.29678,0.36022 h -1.06265 l -0.054,-0.88254 c -0.0901,-1.33281 0,-1.42286 1.13469,-1.33281 0.52232,0.054 1.09866,0.18011 1.24275,0.30619 z"
       id="path8059"
       style="stroke-width:0.018011" />
    <path
       d="m 42.589204,92.632918 c 0,0.59436 -0.054,0.72044 -0.36022,0.72044 -0.28818,0 -0.36022,0.12607 -0.36022,0.54032 0,0.41426 0.072,0.54034 0.36022,0.54034 0.34221,0 0.36022,0.12607 0.36022,1.96319 0,2.34142 0.10806,2.53954 1.45888,2.53954 0.86453,0 0.88254,-0.018 0.88254,-0.54033 0,-0.45027 -0.072,-0.54033 -0.45027,-0.54033 -0.45028,0 -0.45028,0 -0.45028,-1.71103 0,-1.71104 0,-1.71104 0.45028,-1.71104 0.37823,0 0.45027,-0.0901 0.45027,-0.54034 0,-0.45027 -0.072,-0.54032 -0.45027,-0.54032 -0.39624,0 -0.45028,-0.072 -0.45028,-0.72044 v -0.72044 h -0.72043 -0.72044 z"
       id="path8065"
       style="stroke-width:0.018011" />
    <path
       d="m 37.600174,93.371368 c -1.20674,0.34221 -1.72906,1.87314 -0.90055,2.6296 0.21613,0.21613 0.88253,0.52232 1.4769,0.68441 0.59436,0.18011 1.20673,0.43227 1.35082,0.57635 0.23414,0.23415 0.23414,0.28818 -0.0721,0.52232 -0.52231,0.37823 -1.1527,0.30619 -1.657,-0.19812 -0.55834,-0.57635 -1.69303,-0.64839 -1.69303,-0.10807 0,0.52232 0.6664,1.22475 1.38684,1.4769 0.37823,0.12608 1.06265,0.1621 1.65701,0.10807 0.8285,-0.09 1.09866,-0.19812 1.51292,-0.66641 1.06264,-1.18872 0.37823,-2.44949 -1.58497,-2.89976 -1.20673,-0.27016 -1.58496,-0.63038 -1.08065,-1.00861 0.41425,-0.28818 1.1527,-0.18011 1.45888,0.23414 0.25216,0.3242 1.51292,0.34221 1.51292,0.018 0,-0.41425 -0.57635,-1.06265 -1.18872,-1.3148 -0.66641,-0.28817 -1.33281,-0.30618 -2.17932,-0.054 z"
       id="path8081"
       style="stroke-width:0.018011" />
    <path
       d="m 46.821774,93.533468 c -0.41425,0.19812 -0.88253,0.61237 -1.08066,0.93657 -0.43226,0.75646 -0.45027,2.52153 -0.036,3.33202 0.55834,1.04464 2.39545,1.639 3.42208,1.11668 0.57635,-0.30619 1.38684,-1.09867 1.38684,-1.36883 0,-0.34221 -1.33281,-0.30619 -1.62099,0.036 -0.52231,0.63038 -1.9812,0.12608 -1.9812,-0.68442 0,-0.27016 0.25216,-0.30618 1.90916,-0.30618 h 1.92718 l -0.12608,-0.84652 c -0.14409,-1.09866 -0.59437,-1.8191 -1.36883,-2.23335 -0.8105,-0.43227 -1.53093,-0.43227 -2.43148,0.018 z m 1.92717,1.20673 c 0.61238,0.55834 0.41426,0.77447 -0.75645,0.77447 -0.59437,0 -1.08066,-0.054 -1.08066,-0.14409 0,-0.072 0.12607,-0.32419 0.28817,-0.54032 0.3242,-0.46829 1.08066,-0.52232 1.54894,-0.0901 z"
       id="path8083"
       style="stroke-width:0.018011" />
    <path
       d="m 53.990134,93.443408 c -0.32419,0.14409 -0.59436,0.34221 -0.59436,0.45027 0,0.0901 -0.072,0.18011 -0.18011,0.18011 -0.0901,0 -0.18011,-0.16209 -0.18011,-0.36021 0,-0.28818 -0.12608,-0.36022 -0.63038,-0.36022 h -0.63039 v 2.7917 2.79169 h 0.72044 0.72044 v -1.67502 c 0,-1.92717 0.19812,-2.35943 1.17071,-2.53954 0.59436,-0.12608 0.63039,-0.1621 0.63039,-0.82851 0,-0.79248 -0.12608,-0.84651 -1.02663,-0.45027 z"
       id="path8085"
       style="stroke-width:0.018011" />
    <path
       d="m 66.813934,93.533468 c -0.41425,0.19812 -0.88254,0.61237 -1.08066,0.93657 -0.43226,0.75646 -0.45027,2.52153 -0.036,3.33202 0.55834,1.04464 2.39546,1.639 3.42208,1.11668 0.57635,-0.30619 1.38684,-1.09867 1.38684,-1.36883 0,-0.34221 -1.33281,-0.30619 -1.62098,0.036 -0.52232,0.63038 -1.98121,0.12608 -1.98121,-0.68442 0,-0.27016 0.25215,-0.30618 1.90916,-0.30618 h 1.92717 l -0.12607,-0.84652 c -0.14409,-1.09866 -0.59436,-1.8191 -1.36883,-2.23335 -0.81049,-0.43227 -1.53094,-0.43227 -2.43148,0.018 z m 1.92717,1.20673 c 0.61237,0.55834 0.41425,0.77447 -0.75646,0.77447 -0.59436,0 -1.08066,-0.054 -1.08066,-0.14409 0,-0.072 0.12608,-0.32419 0.28818,-0.54032 0.3242,-0.46829 1.08066,-0.52232 1.54894,-0.0901 z"
       id="path8087"
       style="stroke-width:0.018011" />
    <path
       d="m 72.577444,93.533468 c -0.41426,0.19812 -0.88255,0.61237 -1.08066,0.93657 -0.43227,0.75646 -0.45028,2.52153 -0.036,3.33202 0.55834,1.04464 2.39546,1.639 3.42208,1.11668 0.57635,-0.30619 1.38685,-1.09867 1.38685,-1.36883 0,-0.34221 -1.33281,-0.30619 -1.62099,0.036 -0.52232,0.63038 -1.9812,0.12608 -1.9812,-0.68442 0,-0.27016 0.25215,-0.30618 1.90916,-0.30618 h 1.92717 l -0.12607,-0.84652 c -0.1441,-1.09866 -0.59437,-1.8191 -1.36884,-2.23335 -0.81049,-0.43227 -1.53093,-0.43227 -2.43147,0.018 z m 1.92717,1.20673 c 0.61237,0.55834 0.41425,0.77447 -0.75647,0.77447 -0.59436,0 -1.08065,-0.054 -1.08065,-0.14409 0,-0.072 0.12608,-0.32419 0.28817,-0.54032 0.3242,-0.46829 1.08066,-0.52232 1.54895,-0.0901 z"
       id="path8089"
       style="stroke-width:0.018011" />
    <path
       d="m 79.565684,93.443408 c -0.3242,0.14409 -0.59436,0.34221 -0.59436,0.45027 0,0.0901 -0.072,0.18011 -0.18011,0.18011 -0.09,0 -0.18011,-0.16209 -0.18011,-0.36021 0,-0.28818 -0.12607,-0.36022 -0.63038,-0.36022 h -0.63038 v 2.7917 2.79169 h 0.72043 0.72044 v -1.67502 c 0,-1.92717 0.19812,-2.35943 1.17072,-2.53954 0.59435,-0.12608 0.63038,-0.1621 0.63038,-0.82851 0,-0.79248 -0.12608,-0.84651 -1.02663,-0.45027 z"
       id="path8091"
       style="stroke-width:0.018011" />
    <path
       d="m 30.161644,95.496658 c 0,1.18872 0.072,2.35943 0.18011,2.6296 0.37823,0.9906 2.1433,1.18872 3.07987,0.34221 0.3242,-0.28818 0.34221,-0.28818 0.34221,0.072 0,0.34221 0.10807,0.39624 0.72044,0.39624 h 0.72044 v -2.79169 -2.7917 h -0.81049 -0.8105 v 1.94518 c 0,1.67502 -0.054,1.99921 -0.32419,2.25137 -0.37823,0.34221 -0.8105,0.37823 -1.3148,0.12608 -0.30619,-0.18011 -0.34221,-0.39624 -0.34221,-2.25138 v -2.07125 h -0.72044 -0.72044 z"
       id="path8095"
       style="stroke-width:0.018011" />
  </g>
</svg>
