<?xml version="1.0" encoding="UTF-8" standalone="no"?>
<!-- Created with Inkscape (http://www.inkscape.org/) -->

<svg
   width="100mm"
   height="100mm"
   viewBox="0 0 100 100"
   version="1.1"
   id="svg26768"
   sodipodi:docname="cluster master.svg"
   inkscape:version="1.1.1 (3bf5ae0d25, 2021-09-20)"
   xmlns:inkscape="http://www.inkscape.org/namespaces/inkscape"
   xmlns:sodipodi="http://sodipodi.sourceforge.net/DTD/sodipodi-0.dtd"
   xmlns="http://www.w3.org/2000/svg"
   xmlns:svg="http://www.w3.org/2000/svg">
  <sodipodi:namedview
     id="namedview26770"
     pagecolor="#ffffff"
     bordercolor="#666666"
     borderopacity="1.0"
     inkscape:pageshadow="2"
     inkscape:pageopacity="0.0"
     inkscape:pagecheckerboard="0"
     inkscape:document-units="mm"
     showgrid="false"
     width="209mm"
     inkscape:zoom="0.7500982"
     inkscape:cx="13.998167"
     inkscape:cy="135.31562"
     inkscape:window-width="1920"
     inkscape:window-height="1027"
     inkscape:window-x="1912"
     inkscape:window-y="-8"
     inkscape:window-maximized="1"
     inkscape:current-layer="layer1" />
  <defs
     id="defs26765" />
  <g
     inkscape:label="Layer 1"
     inkscape:groupmode="layer"
     id="layer1">
    <path
       d="M 37.534282,1.8261029 C 36.48562,2.3593207 35.810211,3.2302433 35.543602,4.4033234 35.419184,4.9009932 35.348089,9.344476 35.348089,16.276309 v 11.055386 l -5.349954,8.353749 -5.367727,8.353747 h -4.479032 c -4.301291,0 -4.514579,0.01777 -5.225535,0.4088 -0.426575,0.213288 -1.013114,0.746506 -1.333045,1.173081 l -0.550992,0.764279 -0.05333,15.925442 c -0.03555,11.16203 0,16.138731 0.142191,16.618627 0.248835,0.870923 1.155306,1.884033 2.044002,2.275064 0.657636,0.302159 1.49301,0.337704 12.797231,0.337704 11.375317,0 12.121822,-0.03553 12.815006,-0.337704 0.853148,-0.391031 1.795167,-1.457463 2.026228,-2.328385 0.106644,-0.355479 0.177739,-4.123552 0.177739,-9.029158 v -8.389295 l 7.518374,0.03554 7.500599,0.05333 0.08887,8.81587 0.08887,8.798096 0.479896,0.728732 c 0.31993,0.479896 0.799827,0.888701 1.439688,1.190861 l 0.942018,0.462121 12.281787,-0.03553 12.281787,-0.05334 0.782053,-0.533211 c 0.408799,-0.30216 0.959791,-0.906475 1.208626,-1.333051 l 0.444351,-0.799818 V 62.79069 46.794151 l -0.391022,-0.710957 c -0.479896,-0.888697 -1.030889,-1.421915 -1.866264,-1.777393 -0.533218,-0.213288 -1.49301,-0.26661 -5.083344,-0.26661 h -4.42571 l -4.212422,-6.594129 c -3.270403,-5.118892 -4.105777,-6.576354 -3.803621,-6.487484 2.097324,0.586539 5.474371,0.479895 7.891626,-0.26661 C 82.484557,28.735836 86.71475,23.065952 86.7503,16.489596 86.80362,9.5222155 82.449008,3.8345572 75.570497,1.8794245 74.450739,1.5594938 73.722008,1.4883981 71.784649,1.470624 c -2.612768,0 -3.590334,0.1777394 -5.65211,1.0131145 L 64.835042,3.0169561 64.266276,2.4837385 C 63.093197,1.3462068 63.573093,1.3817543 50.402609,1.3817543 H 38.440753 Z M 62.29337,4.1367141 c 0.31993,0.248835 0.302157,0.3021561 -0.497671,0.9953397 -0.462121,0.3910267 -1.244175,1.2264021 -1.724071,1.8129408 -3.039342,3.8391694 -4.07023,8.6381314 -2.879377,13.3304494 0.710957,2.719412 2.75496,5.954267 4.781188,7.5006 l 0.924244,0.693183 v 1.101983 c 0,0.995341 -0.05332,1.155306 -0.479896,1.475237 C 61.955665,31.4197 61.884569,31.4197 50.349287,31.384152 39.24058,31.330826 38.74291,31.313053 38.387431,30.993125 38.014178,30.655421 38.014178,30.637646 38.014178,17.627128 V 4.5988363 L 38.4763,4.2433573 c 0.462123,-0.3732524 0.604314,-0.3732524 11.961857,-0.3732524 9.953402,0 11.553056,0.035554 11.855213,0.2666092 z m 13.134936,0.3377047 c 1.99068,0.6398616 3.501464,1.5641059 5.06557,3.1282117 1.546332,1.5463326 2.470577,3.0571165 3.145986,5.0655705 0.408801,1.244176 0.479897,1.706298 0.479897,3.732526 0,2.026228 -0.0711,2.488351 -0.479897,3.732525 -0.675409,2.008455 -1.599654,3.51924 -3.145986,5.065571 -1.546332,1.546333 -3.057117,2.488351 -5.06557,3.145986 -1.244176,0.4088 -1.724071,0.462123 -3.732526,0.479896 -2.061776,0 -2.470577,-0.05332 -3.732525,-0.497669 C 60.640394,25.820911 57.192251,17.911511 60.427107,11.050773 62.097856,7.5137608 65.36826,4.9543152 69.296299,4.1189399 71.002596,3.7634618 73.668686,3.9234269 75.428306,4.4744188 Z M 50.455931,32.663875 c 7.056252,0 11.71302,-0.0711 11.97963,-0.177739 l 0.462122,-0.17774 v 1.688523 c 0,2.666091 1.386367,2.399482 -12.441752,2.399482 -13.828119,0 -12.441753,0.266609 -12.441753,-2.399482 v -1.688523 l 0.462122,0.17774 c 0.26661,0.106643 4.92338,0.177739 11.979631,0.177739 z m -14.539077,4.230196 c 0.248835,0.479896 0.746506,1.048661 1.190854,1.368592 l 0.764279,0.533218 h 12.56617 12.56617 l 0.746506,-0.479895 c 0.391025,-0.26661 0.942017,-0.853149 1.208626,-1.315271 0.408801,-0.693184 0.497671,-1.084211 0.586541,-2.683864 l 0.106643,-1.84849 3.732526,5.527693 c 2.061776,3.057117 3.750299,5.616563 3.785847,5.705433 0.03555,0.0711 -2.772733,0.159965 -6.238651,0.195513 l -6.291971,0.05332 -0.853149,0.533219 c -0.639861,0.391026 -1.013114,0.799827 -1.368592,1.493009 l -0.49767,0.94202 v 6.025362 6.025363 h -7.465052 -7.465052 v -6.007589 c 0,-5.91872 0,-6.007589 -0.426574,-6.878512 -0.479896,-1.048661 -0.817601,-1.368593 -1.884037,-1.848488 -0.746505,-0.337706 -1.155306,-0.373253 -6.896286,-0.373253 -3.519238,0 -6.078685,-0.0711 -6.043136,-0.159966 0.03555,-0.08887 1.741845,-2.648316 3.785847,-5.687658 l 3.732526,-5.527693 0.106643,1.777393 c 0.08887,1.386367 0.213287,1.972907 0.550992,2.630542 z m 4.176874,9.864532 c 0.302157,0.302157 0.319932,1.101984 0.373253,13.259353 0.03554,12.886101 0.03554,12.939423 -0.337705,13.401545 l -0.355478,0.479897 H 28.007454 16.258886 L 15.850085,73.508371 15.441284,73.135119 V 60.177921 47.220725 l 0.444348,-0.444349 0.444349,-0.426573 11.713022,0.03555 c 10.984289,0.05332 11.748568,0.0711 12.050725,0.373252 z m 44.932501,0.03555 0.444349,0.426574 v 12.992745 c 0,12.74391 0,12.97497 -0.355479,13.330449 C 84.75962,73.8994 84.528559,73.8994 73.028824,73.8994 H 61.280256 L 60.853681,73.455049 60.409333,73.028475 V 60.320113 c 0,-8.958061 0.05332,-12.832779 0.195514,-13.15271 0.106643,-0.231061 0.373252,-0.515443 0.586539,-0.604313 0.248835,-0.124417 4.354614,-0.195514 11.89076,-0.195514 l 11.517508,-0.01777 z M 40.502528,76.423296 c 0,1.58188 -0.213287,2.16842 -0.870922,2.452803 -0.319931,0.124416 -3.98136,0.177739 -11.97963,0.142191 L 16.116694,78.964972 15.778989,78.538397 C 15.51238,78.200692 15.441284,77.845214 15.441284,76.583264 v -1.528561 h 12.530622 12.530622 z m 44.96805,0.159965 c 0,1.26195 -0.0711,1.617428 -0.337706,1.955132 l -0.337705,0.426576 H 73.028824 61.262482 L 60.835908,78.467298 C 60.462656,78.02295 60.409333,77.791889 60.409333,76.512165 v -1.457462 h 12.530622 12.530623 z"
       id="path7981"
       style="stroke-width:0.0177739" />
    <path
       d="m 70.61157,11.246286 -0.817601,2.577221 h -2.523898 c -2.399481,0 -2.950473,0.106643 -2.950473,0.550992 0,0.08887 3.554787,3.288177 4.07023,3.66143 0.03555,0.03555 -0.266608,1.173079 -0.675409,2.541672 -0.426575,1.368593 -0.710957,2.612768 -0.657635,2.754959 0.177739,0.49767 0.728731,0.26661 2.683864,-1.155305 1.084209,-0.782054 1.99068,-1.421915 2.044001,-1.421915 0.05333,0 0.977566,0.639861 2.044002,1.421915 1.955134,1.421915 2.75496,1.741845 2.75496,1.101983 0,-0.177739 -0.319931,-1.40414 -0.710957,-2.701637 -0.391026,-1.297497 -0.710958,-2.399481 -0.710958,-2.417255 0,-0.03555 0.924245,-0.835374 2.061777,-1.777393 1.564106,-1.333045 2.026228,-1.812941 1.99068,-2.097324 -0.05333,-0.355479 -0.159966,-0.373252 -2.66609,-0.426574 L 73.917521,13.805728 73.18879,11.459569 C 72.371189,8.9001239 72.264545,8.6690624 71.766876,8.6690624 c -0.26661,0 -0.479896,0.4798964 -1.155306,2.5772196 z"
       id="path7983"
       style="stroke-width:0.0177739" />
    <path
       d="m 17.129808,90.429154 c -1.350819,0.426576 -2.221742,1.901811 -2.221742,3.821395 0,1.919584 0.586541,2.968252 2.008455,3.55479 1.759619,0.728727 3.57256,0.01781 4.301291,-1.74185 l 0.26661,-0.657637 h -0.782054 c -0.639861,0 -0.8176,0.07114 -0.90647,0.355486 -0.302157,0.959788 -1.955133,1.244166 -2.719411,0.479894 -0.799828,-0.817599 -0.76428,-3.323729 0.05332,-4.141328 0.604314,-0.60431 1.724072,-0.586537 2.310612,0.01781 0.248835,0.23106 0.444349,0.515447 0.444349,0.622091 0,0.08886 0.373252,0.177735 0.8176,0.177735 0.746505,0 0.799827,-0.01781 0.693183,-0.408804 -0.248835,-0.782053 -0.817601,-1.51078 -1.421914,-1.795167 -0.76428,-0.37325 -2.132873,-0.497667 -2.84383,-0.284379 z"
       id="path8049"
       style="stroke-width:0.0177739" />
    <path
       d="m 22.550858,94.161678 v 3.732523 h 0.710957 0.710957 v -3.732523 -3.732524 h -0.710957 -0.710957 z"
       id="path8053"
       style="stroke-width:0.0177739" />
    <path
       d="m 53.655239,94.161678 v 3.732523 h 0.710958 0.710957 l 0.01777,-2.986015 c 0,-1.652978 0.0711,-2.808282 0.142191,-2.612766 0.08887,0.195515 0.408801,1.528553 0.728731,2.968243 l 0.586541,2.630538 h 0.764278 0.746506 l 0.355479,-1.564098 c 0.195513,-0.853152 0.497669,-2.186198 0.693182,-2.968251 l 0.319932,-1.421909 0.05332,2.968243 0.03555,2.986015 h 0.710957 0.710958 v -3.732523 -3.732524 h -1.155302 c -0.639862,0 -1.155306,0.05334 -1.155306,0.124416 -0.01777,0.266615 -1.226402,5.421047 -1.279723,5.492146 -0.05333,0.03561 -0.302157,-0.90647 -0.568766,-2.115099 -0.26661,-1.190848 -0.568767,-2.470568 -0.657636,-2.843827 l -0.17774,-0.657636 h -1.137534 -1.155306 z"
       id="path8055"
       style="stroke-width:0.0177739" />
    <path
       d="m 37.836439,91.673328 c 0,0.586547 -0.05333,0.710955 -0.355479,0.710955 -0.284383,0 -0.355478,0.124416 -0.355478,0.53322 0,0.408804 0.0711,0.53322 0.355478,0.53322 0.337705,0 0.355479,0.124417 0.355479,1.937357 0,2.310615 0.106644,2.506121 1.439688,2.506121 0.853149,0 0.870923,-0.01781 0.870923,-0.533211 0,-0.444349 -0.0711,-0.53322 -0.444348,-0.53322 -0.444348,0 -0.444348,0 -0.444348,-1.688524 0,-1.688523 0,-1.688523 0.444348,-1.688523 0.373252,0 0.444348,-0.08887 0.444348,-0.53322 0,-0.444349 -0.0711,-0.53322 -0.444348,-0.53322 -0.391027,0 -0.444348,-0.07106 -0.444348,-0.710955 v -0.710954 h -0.710958 -0.710957 z"
       id="path8061"
       style="stroke-width:0.0177739" />
    <path
       d="m 74.09526,91.673328 c 0,0.586547 -0.05333,0.710955 -0.355478,0.710955 -0.284383,0 -0.355479,0.124416 -0.355479,0.53322 0,0.408804 0.0711,0.53322 0.355479,0.53322 0.337705,0 0.355478,0.124417 0.355478,1.937357 0,2.310615 0.106644,2.506121 1.439689,2.506121 0.853149,0 0.870923,-0.01781 0.870923,-0.533211 0,-0.444349 -0.0711,-0.53322 -0.444349,-0.53322 -0.444348,0 -0.444348,0 -0.444348,-1.688524 0,-1.688523 0,-1.688523 0.444348,-1.688523 0.373253,0 0.444349,-0.08887 0.444349,-0.53322 0,-0.444349 -0.0711,-0.53322 -0.444349,-0.53322 -0.391026,0 -0.444348,-0.07106 -0.444348,-0.710955 V 90.962374 H 74.806218 74.09526 Z"
       id="path8063"
       style="stroke-width:0.0177739" />
    <path
       d="m 32.91306,92.402064 c -1.190854,0.337705 -1.706298,1.848485 -0.888697,2.594993 0.213287,0.213288 0.870923,0.515439 1.457463,0.67541 0.58654,0.177743 1.190853,0.426576 1.333044,0.568765 0.231062,0.231061 0.231062,0.284378 -0.0711,0.515439 -0.515444,0.373258 -1.137531,0.302159 -1.635202,-0.195507 -0.550992,-0.568765 -1.670749,-0.639864 -1.670749,-0.106644 0,0.515439 0.657635,1.208621 1.368592,1.457463 0.373254,0.124416 1.048663,0.159961 1.635202,0.106644 0.817602,-0.08887 1.08421,-0.195516 1.493011,-0.657637 1.048662,-1.173084 0.373252,-2.417259 -1.564106,-2.861599 -1.190853,-0.266615 -1.564107,-0.622092 -1.066436,-0.99535 0.4088,-0.284379 1.137531,-0.177734 1.439688,0.23106 0.248835,0.319933 1.493011,0.337714 1.493011,0.01781 0,-0.408804 -0.568766,-1.04866 -1.17308,-1.297501 -0.657635,-0.284379 -1.315271,-0.302151 -2.150646,-0.05333 z"
       id="path8067"
       style="stroke-width:0.0177739" />
    <path
       d="m 42.013313,92.562026 c -0.4088,0.195515 -0.870923,0.60431 -1.066436,0.924242 -0.426574,0.746508 -0.444349,2.488349 -0.03554,3.288175 0.550992,1.030896 2.363933,1.617433 3.377048,1.101986 0.568766,-0.302151 1.368592,-1.084204 1.368592,-1.350819 0,-0.337704 -1.31527,-0.302151 -1.599654,0.03561 -0.515444,0.622083 -1.955133,0.124417 -1.955133,-0.675409 0,-0.266606 0.248835,-0.302159 1.884037,-0.302159 h 1.901811 l -0.124417,-0.835371 c -0.142192,-1.084213 -0.58654,-1.795168 -1.350819,-2.203971 -0.799828,-0.426576 -1.510785,-0.426576 -2.399481,0.01781 z m 1.901811,1.190857 c 0.604314,0.550992 0.4088,0.764272 -0.746505,0.764272 -0.58654,0 -1.066436,-0.05334 -1.066436,-0.142189 0,-0.07106 0.124417,-0.319932 0.284383,-0.533212 0.31993,-0.462121 1.066436,-0.515447 1.528558,-0.08887 z"
       id="path8069"
       style="stroke-width:0.0177739" />
    <path
       d="m 48.909599,92.473154 c -0.31993,0.142189 -0.58654,0.337705 -0.58654,0.444349 0,0.08887 -0.0711,0.177743 -0.177739,0.177743 -0.08887,0 -0.17774,-0.15997 -0.17774,-0.355477 0,-0.284387 -0.124417,-0.355486 -0.622087,-0.355486 h -0.622087 v 2.754963 2.754955 h 0.710957 0.710957 v -1.652969 c 0,-1.901812 0.195514,-2.328388 1.155306,-2.506131 0.586539,-0.124408 0.622087,-0.159961 0.622087,-0.817598 0,-0.782053 -0.124417,-0.835371 -1.013114,-0.444349 z"
       id="path8071"
       style="stroke-width:0.0177739" />
    <path
       d="m 63.324257,92.455382 c -0.622087,0.266614 -1.137531,0.90647 -1.137531,1.386372 0,0.479894 1.26195,0.44434 1.564107,-0.03561 0.266609,-0.444349 1.404139,-0.497675 1.564104,-0.08887 0.17774,0.462122 -0.248834,0.746509 -1.297495,0.888698 -1.297498,0.159961 -2.008456,0.799826 -2.008456,1.81294 0.01777,1.457462 1.457463,2.115099 2.808283,1.297492 0.497668,-0.302151 0.586538,-0.319923 0.675408,-0.08886 0.0711,0.177734 0.355479,0.266606 0.924245,0.266606 0.639862,0 0.764279,-0.05333 0.604313,-0.213288 -0.142191,-0.142189 -0.213286,-0.924243 -0.213286,-2.310606 0,-2.363933 -0.124418,-2.630539 -1.368593,-2.968252 -0.888697,-0.248833 -1.439689,-0.231061 -2.115099,0.05334 z m 1.884037,3.85694 c -0.337704,0.782053 -1.439688,0.942024 -1.724071,0.231061 -0.177739,-0.479894 0.195513,-0.853144 1.030888,-1.048659 0.906471,-0.231061 1.048662,-0.05333 0.693183,0.817598 z"
       id="path8073"
       style="stroke-width:0.0177739" />
    <path
       d="m 69.171881,92.402064 c -1.190853,0.337705 -1.706297,1.848485 -0.888696,2.594993 0.213287,0.213288 0.870922,0.515439 1.457463,0.67541 0.586539,0.177743 1.190853,0.426576 1.333044,0.568765 0.231061,0.231061 0.231061,0.284378 -0.0711,0.515439 -0.515444,0.373258 -1.137531,0.302159 -1.635202,-0.195507 -0.550992,-0.568765 -1.670749,-0.639864 -1.670749,-0.106644 0,0.515439 0.657635,1.208621 1.368592,1.457463 0.373252,0.124416 1.048662,0.159961 1.635202,0.106644 0.817601,-0.08887 1.08421,-0.195516 1.49301,-0.657637 1.048662,-1.173084 0.373253,-2.417259 -1.564105,-2.861599 -1.190855,-0.266615 -1.564107,-0.622092 -1.066436,-0.99535 0.4088,-0.284379 1.137531,-0.177734 1.439688,0.23106 0.248835,0.319933 1.49301,0.337714 1.49301,0.01781 0,-0.408804 -0.568766,-1.04866 -1.17308,-1.297501 -0.657635,-0.284379 -1.315271,-0.302151 -2.150645,-0.05333 z"
       id="path8075"
       style="stroke-width:0.0177739" />
    <path
       d="m 78.272135,92.562026 c -0.408801,0.195515 -0.870923,0.60431 -1.066436,0.924242 -0.426575,0.746508 -0.444348,2.488349 -0.03554,3.288175 0.550991,1.030896 2.363932,1.617433 3.377046,1.101986 0.568766,-0.302151 1.368593,-1.084204 1.368593,-1.350819 0,-0.337704 -1.315271,-0.302151 -1.599653,0.03561 -0.515445,0.622083 -1.955133,0.124417 -1.955133,-0.675409 0,-0.266606 0.248835,-0.302159 1.884037,-0.302159 h 1.901811 l -0.124418,-0.835371 c -0.142192,-1.084213 -0.58654,-1.795168 -1.350819,-2.203971 -0.799827,-0.426576 -1.510784,-0.426576 -2.399481,0.01781 z m 1.90181,1.190857 c 0.604314,0.550992 0.408801,0.764272 -0.746505,0.764272 -0.586539,0 -1.066436,-0.05334 -1.066436,-0.142189 0,-0.07106 0.124418,-0.319932 0.284383,-0.533212 0.319931,-0.462121 1.066436,-0.515447 1.528558,-0.08887 z"
       id="path8077"
       style="stroke-width:0.0177739" />
    <path
       d="m 85.34616,92.473154 c -0.319931,0.142189 -0.58654,0.337705 -0.58654,0.444349 0,0.08887 -0.0711,0.177743 -0.17774,0.177743 -0.08887,0 -0.177738,-0.15997 -0.177738,-0.355477 0,-0.284387 -0.124418,-0.355486 -0.622089,-0.355486 h -0.622087 v 2.754963 2.754955 h 0.710957 0.710957 v -1.652969 c 0,-1.901812 0.195514,-2.328388 1.155306,-2.506131 0.58654,-0.124408 0.622088,-0.159961 0.622088,-0.817598 0,-0.782053 -0.124417,-0.835371 -1.013114,-0.444349 z"
       id="path8079"
       style="stroke-width:0.0177739" />
    <path
       d="m 25.572425,94.499391 c 0,1.173076 0.0711,2.328379 0.17774,2.594984 0.373253,0.977569 2.115098,1.173085 3.039343,0.337705 0.319931,-0.284378 0.337704,-0.284378 0.337704,0.07106 0,0.337705 0.106643,0.391022 0.710958,0.391022 h 0.710957 V 95.139207 92.384244 H 29.7493 28.949473 v 1.919592 c 0,1.65297 -0.05333,1.972902 -0.319931,2.221735 -0.373253,0.337705 -0.799827,0.373258 -1.297497,0.124425 -0.302157,-0.177743 -0.337705,-0.391031 -0.337705,-2.221752 v -2.044 h -0.710957 -0.710958 z"
       id="path8093"
       style="stroke-width:0.0177739" />
  </g>
</svg>
