<?xml version="1.0" encoding="UTF-8" standalone="no"?>
<!-- Created with Inkscape (http://www.inkscape.org/) -->

<svg
   width="100mm"
   height="100mm"
   viewBox="0 0 100 100"
   version="1.1"
   id="svg26768"
   sodipodi:docname="configuration file.svg"
   inkscape:version="1.1.1 (3bf5ae0d25, 2021-09-20)"
   xmlns:inkscape="http://www.inkscape.org/namespaces/inkscape"
   xmlns:sodipodi="http://sodipodi.sourceforge.net/DTD/sodipodi-0.dtd"
   xmlns="http://www.w3.org/2000/svg"
   xmlns:svg="http://www.w3.org/2000/svg">
  <sodipodi:namedview
     id="namedview26770"
     pagecolor="#ffffff"
     bordercolor="#666666"
     borderopacity="1.0"
     inkscape:pageshadow="2"
     inkscape:pageopacity="0.0"
     inkscape:pagecheckerboard="0"
     inkscape:document-units="mm"
     showgrid="false"
     width="209mm"
     inkscape:zoom="0.7500982"
     inkscape:cx="13.998167"
     inkscape:cy="135.31562"
     inkscape:window-width="1920"
     inkscape:window-height="1009"
     inkscape:window-x="1912"
     inkscape:window-y="-8"
     inkscape:window-maximized="1"
     inkscape:current-layer="layer1" />
  <defs
     id="defs26765" />
  <g
     inkscape:label="Layer 1"
     inkscape:groupmode="layer"
     id="layer1">
    <path
       d="M 25.212645,1.4285873 C 24.97092,1.6357779 24.677403,1.9810979 24.57381,2.1882885 24.435678,2.4472779 24.383878,11.391042 24.383878,33.318802 c 0,27.142079 0.03457,30.802465 0.258994,31.251376 0.569773,1.105023 -1.122285,1.035961 25.691739,1.035961 h 24.414053 l 0.483449,-0.379849 c 0.915099,-0.725174 0.94963,-0.949629 0.94963,-8.080469 v -6.561066 h 1.03596 1.035953 V 39.741737 28.898719 l -1.018691,-1.001422 -1.035953,-1.018691 -0.05182,-4.85174 -0.05182,-4.868993 L 75.54286,16.05285 C 75.05942,15.06869 74.17886,14.119063 68.377499,8.3522346 62.23082,2.222821 61.695578,1.739374 60.76321,1.3940556 59.779057,1.0314701 59.675457,1.0314701 42.720291,1.0314701 H 25.678794 Z M 58.91579,9.6817127 c 0,7.3034973 0.01725,7.4070983 1.122285,8.0977333 0.535249,0.328056 0.846036,0.345318 7.234432,0.345318 h 6.664659 v 5.438774 5.438774 H 54.512969 35.088771 v 10.791225 10.791218 h 19.424198 19.424197 v 6.474735 6.474727 H 50.196479 26.455799 V 33.318802 3.1033845 H 42.685791 58.91579 Z m 8.287655,0.4143833 5.956755,5.956754 -6.043086,-0.03449 -6.043079,-0.05181 -0.05182,-5.922223 c -0.01725,-3.2459993 0.01725,-5.9049561 0.08633,-5.9049561 0.08633,0 2.814349,2.6762223 6.094879,5.9567541 z m 8.891966,29.697441 v 8.63298 l -19.372397,0.05182 -19.389666,0.03457 V 39.79358 31.074268 l 19.389666,0.03457 19.372397,0.05182 z"
       id="path98"
       style="stroke-width:0.017266" />
    <path
       d="m 46.294376,35.787834 c -1.018691,0.673374 -1.260416,1.45034 -1.260416,3.919372 0,2.555363 0.328056,3.556785 1.294947,4.057496 0.776967,0.414387 2.745288,0.293525 3.280537,-0.172655 0.517973,-0.46618 0.846029,-1.312216 0.846029,-2.158245 v -0.690643 h -0.759705 -0.759705 l -0.120855,0.725174 c -0.189932,1.122284 -0.362587,1.346747 -1.035961,1.346747 -0.897829,0 -1.03596,-0.397118 -1.03596,-3.021543 0,-1.864727 0.05182,-2.348169 0.310786,-2.728025 0.569781,-0.88056 1.674804,-0.379849 1.674804,0.776974 0,0.46618 0.03449,0.483442 0.880567,0.483442 h 0.897821 L 50.386411,37.51443 c -0.05182,-0.448918 -0.224463,-0.98416 -0.379856,-1.225885 -0.604304,-0.93236 -2.658957,-1.208616 -3.712179,-0.500711 z"
       id="path100"
       style="stroke-width:0.017266" />
    <path
       d="m 52.941766,35.563379 c -0.552511,0.224455 -1.243146,1.139553 -1.39854,1.86472 -0.241724,1.156823 -0.138131,4.540945 0.172655,5.24885 0.431657,1.018691 1.174085,1.381278 2.658956,1.312216 1.087761,-0.05182 1.312217,-0.120862 1.743866,-0.552511 0.742435,-0.707905 0.949629,-1.640265 0.880567,-4.109297 -0.08633,-2.4345 -0.328056,-3.107874 -1.364017,-3.625854 -0.638835,-0.328049 -2.054644,-0.397118 -2.693487,-0.138124 z m 1.899259,1.260416 c 0.638835,0.46618 0.759705,4.644538 0.172655,5.594167 -0.189924,0.293518 -0.41438,0.397118 -0.863298,0.397118 -0.93236,0 -1.156815,-0.707904 -1.070484,-3.38413 0.03449,-1.778396 0.103593,-2.158245 0.379849,-2.469031 0.379848,-0.41438 0.93236,-0.46618 1.381278,-0.138124 z"
       id="path102"
       style="stroke-width:0.017266" />
    <path
       d="m 58.087023,39.741737 0.05182,4.195628 0.725166,0.05182 0.742436,0.05182 0.03457,-2.987004 0.05182,-2.987012 1.035961,2.935212 1.035953,2.935211 h 0.949629 0.94963 l 0.05182,-4.195627 0.03457,-4.178359 h -0.776975 -0.776966 v 2.79708 c 0,1.536672 -0.06906,2.728026 -0.138132,2.624425 -0.08632,-0.08632 -0.569773,-1.346739 -1.070484,-2.79708 l -0.897843,-2.624434 h -1.018691 -1.018692 z"
       id="path104"
       style="stroke-width:0.017266" />
    <path
       d="m 64.958869,39.793537 v 4.230159 h 0.776966 0.759705 l 0.05182,-1.864728 0.05182,-1.84745 1.433078,-0.05182 1.415802,-0.05182 v -0.673365 -0.690636 h -1.467602 -1.467602 v -0.949629 -0.949622 h 1.553933 1.553934 v -0.690643 -0.690635 h -2.3309 -2.330908 z"
       id="path106"
       style="stroke-width:0.017266" />
    <path
       d="m 42.340473,43.074067 v 0.949629 h 0.776967 0.776966 v -0.949629 -0.94963 H 43.11744 42.340473 Z"
       id="path108"
       style="stroke-width:0.017266" />
    <path
       d="m 20.844362,79.418897 c -1.312216,0.41438 -2.158245,1.847459 -2.158245,3.712179 0,1.86472 0.569773,2.883411 1.951051,3.453192 1.709335,0.707904 3.470462,0.01725 4.178359,-1.692065 l 0.258994,-0.638835 h -0.759705 c -0.621574,0 -0.794229,0.06906 -0.88056,0.345317 -0.293525,0.93236 -1.899259,1.208616 -2.641694,0.46618 -0.776967,-0.794236 -0.742436,-3.228736 0.05181,-4.022972 0.587043,-0.587035 1.674796,-0.569773 2.244577,0.01725 0.241717,0.224455 0.431649,0.500719 0.431649,0.604312 0,0.08633 0.362579,0.172655 0.794228,0.172655 0.725174,0 0.776967,-0.01725 0.673374,-0.397111 -0.241725,-0.759705 -0.794236,-1.467609 -1.381279,-1.743865 -0.742435,-0.362587 -2.071913,-0.483442 -2.762549,-0.276256 z"
       id="path204"
       style="stroke-width:0.017266" />
    <path
       d="m 39.249868,79.746953 c -0.189924,0.189917 -0.397118,0.621574 -0.46618,0.949622 -0.06906,0.448918 -0.189924,0.621581 -0.431649,0.621581 -0.241725,0 -0.328056,0.120855 -0.328056,0.517973 0,0.397118 0.06906,0.51798 0.345318,0.51798 0.328056,0 0.345325,0.120862 0.345325,2.158245 v 2.158245 h 0.690635 0.690636 v -2.158245 -2.158245 h 0.51798 c 0.46618,0 0.51798,-0.05182 0.51798,-0.51798 0,-0.46618 -0.05181,-0.517973 -0.51798,-0.517973 -0.276256,0 -0.51798,-0.05182 -0.51798,-0.103601 0,-0.310786 0.414387,-0.759697 0.690643,-0.759697 0.276248,0 0.345317,-0.12087 0.345317,-0.517988 0,-0.500703 -0.03457,-0.517973 -0.776966,-0.517973 -0.53525,0 -0.880568,0.103593 -1.105023,0.328056 z"
       id="path224"
       style="stroke-width:0.017266" />
    <path
       d="m 41.995148,80.023201 c 0,0.58705 0.01725,0.604312 0.690643,0.604312 0.673373,0 0.690643,-0.01725 0.690643,-0.604312 0,-0.587034 -0.01725,-0.604304 -0.690643,-0.604304 -0.673374,0 -0.690643,0.01725 -0.690643,0.604304 z"
       id="path226"
       style="stroke-width:0.017266" />
    <path
       d="m 69.793339,80.023201 c 0,0.58705 0.01725,0.604312 0.690635,0.604312 0.673374,0 0.690643,-0.01725 0.690643,-0.604312 0,-0.587034 -0.01725,-0.604304 -0.690643,-0.604304 -0.673366,0 -0.690635,0.01725 -0.690635,0.604304 z"
       id="path228"
       style="stroke-width:0.017266" />
    <path
       d="m 66.685465,80.627513 c 0,0.569773 -0.05182,0.690643 -0.345318,0.690643 -0.276256,0 -0.345318,0.120855 -0.345318,0.517973 0,0.397118 0.06906,0.51798 0.345318,0.51798 0.328056,0 0.345318,0.120862 0.345318,1.881989 0,2.244569 0.1036,2.434501 1.398547,2.434501 0.82876,0 0.846029,-0.01725 0.846029,-0.51798 0,-0.431649 -0.06906,-0.517981 -0.431649,-0.517981 -0.431649,0 -0.431649,0 -0.431649,-1.640264 0,-1.640265 0,-1.640265 0.431649,-1.640265 0.362587,0 0.431649,-0.08632 0.431649,-0.51798 0,-0.431649 -0.06906,-0.517973 -0.431649,-0.517973 -0.379849,0 -0.431649,-0.06906 -0.431649,-0.690643 V 79.93687 h -0.690635 -0.690643 z"
       id="path284"
       style="stroke-width:0.017266" />
    <path
       d="m 27.146434,81.439011 c -0.742435,0.379848 -1.381278,1.571202 -1.381278,2.555363 0,0.379848 0.172663,1.053222 0.397118,1.467602 0.500711,1.018691 1.260416,1.415809 2.503563,1.329478 1.571202,-0.120855 2.503562,-1.156816 2.503562,-2.79708 0,-1.640265 -0.93236,-2.676218 -2.503562,-2.797088 -0.656105,-0.05182 -1.087754,0.01725 -1.519403,0.241725 z m 2.227307,1.364016 c 0.828767,1.053223 0.241725,2.831611 -0.93236,2.831611 -0.638842,0 -0.897829,-0.241724 -1.122292,-1.053222 -0.207186,-0.690635 0.05182,-1.795658 0.48345,-2.037383 0.552511,-0.328056 1.191354,-0.207186 1.571202,0.258994 z"
       id="path326"
       style="stroke-width:0.017266" />
    <path
       d="m 34.363605,81.45628 c -0.51798,0.276256 -0.656112,0.293517 -0.656112,0.103601 0,-0.172663 -0.207186,-0.241725 -0.690635,-0.241725 h -0.690636 v 2.676218 2.676225 h 0.690636 0.690635 v -1.812927 c 0,-1.605734 0.03457,-1.847459 0.362587,-2.175515 0.46618,-0.46618 1.208616,-0.379848 1.484871,0.189932 0.138124,0.258987 0.224456,1.105023 0.224456,2.106445 v 1.692065 h 0.690643 0.690635 v -2.071914 c 0,-1.122292 -0.08632,-2.244576 -0.189924,-2.469031 -0.397118,-0.863298 -1.622996,-1.174093 -2.607156,-0.673374 z"
       id="path328"
       style="stroke-width:0.017266" />
    <path
       d="m 45.707334,81.318156 c -0.46618,0.189917 -1.053223,0.846029 -1.277678,1.433071 -0.258994,0.690635 -0.241725,1.91652 0.05182,2.624425 0.500711,1.191346 2.158245,1.674796 3.125136,0.915098 l 0.483449,-0.379856 -0.103593,0.673374 c -0.05181,0.362579 -0.224463,0.776966 -0.345317,0.897829 -0.328056,0.345317 -1.277686,0.328056 -1.640265,0 -0.172663,-0.172655 -0.604312,-0.293525 -0.949629,-0.293525 -0.759705,0 -0.863298,0.414387 -0.241725,1.001429 0.811498,0.759705 2.762557,0.828767 3.833041,0.138132 0.621573,-0.397118 0.776966,-1.277685 0.776966,-4.299228 v -2.710749 h -0.690635 c -0.604312,0 -0.690635,0.05182 -0.690635,0.379849 -0.01725,0.362579 -0.03457,0.379848 -0.241725,0.103593 -0.414387,-0.552512 -1.381278,-0.776967 -2.089183,-0.483442 z m 1.657526,1.208608 c 0.224463,0 0.673382,0.966899 0.673382,1.46761 0,0.483449 -0.276264,1.139553 -0.587051,1.329478 -0.345317,0.241724 -1.087753,0.138124 -1.364009,-0.172663 -0.880559,-0.966891 -0.189924,-3.056066 0.880568,-2.693487 0.138124,0.03457 0.310786,0.06906 0.39711,0.06906 z"
       id="path330"
       style="stroke-width:0.017266" />
    <path
       d="m 59.140246,81.40448 c -0.310787,0.138131 -0.569781,0.328056 -0.569781,0.431649 0,0.08633 -0.06906,0.172662 -0.172655,0.172662 -0.08633,0 -0.172655,-0.155393 -0.172655,-0.345325 0,-0.276248 -0.12087,-0.34531 -0.604312,-0.34531 h -0.604311 v 2.676218 2.676225 h 0.690635 0.690643 v -1.605734 c 0,-1.847458 0.189924,-2.261838 1.122284,-2.4345 0.569781,-0.120863 0.604312,-0.155394 0.604312,-0.794236 0,-0.759698 -0.120862,-0.811498 -0.98416,-0.431649 z"
       id="path332"
       style="stroke-width:0.017266" />
    <path
       d="m 61.747401,81.387218 c -0.604304,0.258986 -1.105015,0.880567 -1.105015,1.346747 0,0.46618 1.225878,0.431642 1.519403,-0.03457 0.258986,-0.431649 1.364009,-0.483449 1.519402,-0.08633 0.172655,0.44891 -0.241725,0.725166 -1.260416,0.863298 -1.260416,0.155393 -1.951051,0.776966 -1.951051,1.761127 0.01725,1.415809 1.415809,2.054644 2.728018,1.260416 0.483449,-0.293525 0.56978,-0.310795 0.656104,-0.08633 0.06906,0.172655 0.345325,0.258987 0.897837,0.258987 0.621573,0 0.742435,-0.05182 0.587042,-0.207186 -0.138132,-0.138132 -0.207194,-0.897837 -0.207194,-2.244577 0,-2.296376 -0.120862,-2.555363 -1.329478,-2.883419 -0.863298,-0.241717 -1.39854,-0.224455 -2.054652,0.05182 z m 1.830197,3.746709 c -0.328056,0.759705 -1.398548,0.915099 -1.674803,0.224456 -0.172655,-0.46618 0.189932,-0.828767 1.001429,-1.018692 0.88056,-0.224455 1.018692,-0.05181 0.673374,0.794236 z"
       id="path334"
       style="stroke-width:0.017266" />
    <path
       d="m 73.591849,81.439011 c -0.742436,0.379848 -1.381279,1.571202 -1.381279,2.555363 0,0.379848 0.172663,1.053222 0.397118,1.467602 0.500711,1.018691 1.260416,1.415809 2.503563,1.329478 1.571203,-0.120855 2.503563,-1.156816 2.503563,-2.79708 0,-1.640265 -0.93236,-2.676218 -2.503563,-2.797088 -0.656104,-0.05182 -1.087753,0.01725 -1.519402,0.241725 z m 2.227307,1.364016 c 0.828767,1.053223 0.241724,2.831611 -0.93236,2.831611 -0.638843,0 -0.897829,-0.241724 -1.122285,-1.053222 -0.207193,-0.690635 0.05182,-1.795658 0.483442,-2.037383 0.552511,-0.328056 1.191354,-0.207186 1.571203,0.258994 z"
       id="path336"
       style="stroke-width:0.017266" />
    <path
       d="m 80.809012,81.45628 c -0.517973,0.276256 -0.656097,0.293517 -0.656097,0.103601 0,-0.172663 -0.207201,-0.241725 -0.690643,-0.241725 h -0.690635 v 2.676218 2.676225 h 0.690635 0.690643 v -1.812927 c 0,-1.605734 0.03457,-1.847459 0.362579,-2.175515 0.46618,-0.46618 1.208624,-0.379848 1.484872,0.189932 0.138131,0.258987 0.224455,1.105023 0.224455,2.106445 v 1.692065 h 0.690643 0.690635 v -2.071914 c 0,-1.122292 -0.08632,-2.244576 -0.189924,-2.469031 -0.397118,-0.863298 -1.622995,-1.174093 -2.607163,-0.673374 z"
       id="path338"
       style="stroke-width:0.017266" />
    <path
       d="m 41.995148,83.994374 v 2.676225 h 0.690643 0.690643 v -2.676225 -2.676218 h -0.690643 -0.690643 z"
       id="path452"
       style="stroke-width:0.017266" />
    <path
       d="m 50.800791,83.3728 c 0,1.139554 0.06906,2.261838 0.172662,2.520832 0.36258,0.94963 2.054645,1.139546 2.952474,0.328049 0.310786,-0.276256 0.328056,-0.276256 0.328056,0.06906 0,0.328048 0.103593,0.379848 0.690635,0.379848 h 0.690635 V 83.994364 81.318146 H 54.858287 54.08132 v 1.86472 c 0,1.605734 -0.05182,1.916521 -0.310787,2.158245 -0.362579,0.328049 -0.776966,0.36258 -1.260416,0.120855 -0.293517,-0.172655 -0.328056,-0.379849 -0.328056,-2.158237 v -1.985583 h -0.690635 -0.690635 z"
       id="path454"
       style="stroke-width:0.017266" />
    <path
       d="m 69.793339,83.994374 v 2.676225 h 0.690635 0.690643 v -2.676225 -2.676218 h -0.690643 -0.690635 z"
       id="path456"
       style="stroke-width:0.017266" />
    <path
       d="m 43.203771,95.303571 v 3.625855 h 0.776967 0.776966 v -1.553941 -1.553933 h 1.640265 1.640273 v -0.604304 -0.604312 h -1.657535 -1.640264 l 0.05182,-0.828767 0.05181,-0.811498 1.778397,-0.05181 1.761119,-0.05182 v -0.587035 -0.604311 h -2.589886 -2.589894 z"
       id="path474"
       style="stroke-width:0.017266" />
    <path
       d="m 49.419512,92.282036 c 0,0.587035 0.01725,0.604304 0.690643,0.604304 0.673366,0 0.690636,-0.01725 0.690636,-0.604304 0,-0.58705 -0.01725,-0.604312 -0.690636,-0.604312 -0.673373,0 -0.690643,0.01725 -0.690643,0.604312 z"
       id="path476"
       style="stroke-width:0.017266" />
    <path
       d="m 52.182061,95.303571 v 3.625855 h 0.690643 0.690643 v -3.625855 -3.625847 h -0.690643 -0.690643 z"
       id="path478"
       style="stroke-width:0.017266" />
    <path
       d="m 55.894247,93.749638 c -0.397118,0.189924 -0.846028,0.587042 -1.03596,0.897829 -0.41438,0.725174 -0.431642,2.417231 -0.03457,3.194198 0.53525,1.00143 2.296377,1.571203 3.280537,1.0705 0.552511,-0.293525 1.329478,-1.053231 1.329478,-1.312225 0,-0.328048 -1.277678,-0.293517 -1.553933,0.03457 -0.500711,0.604312 -1.899259,0.120862 -1.899259,-0.656104 0,-0.258987 0.241725,-0.293518 1.830189,-0.293518 h 1.847458 l -0.120862,-0.811497 c -0.138124,-1.05323 -0.569773,-1.743866 -1.312209,-2.140984 -0.776966,-0.414387 -1.467602,-0.414387 -2.330907,0.01725 z m 1.847459,1.156815 c 0.587034,0.53525 0.397118,0.742436 -0.725174,0.742436 -0.569773,0 -1.035953,-0.05182 -1.035953,-0.138124 0,-0.06906 0.120862,-0.310787 0.276255,-0.51798 0.310787,-0.448911 1.035953,-0.500711 1.484872,-0.08633 z"
       id="path492"
       style="stroke-width:0.017266" />
    <path
       d="m 49.419512,96.253201 v 2.676225 h 0.690643 0.690636 v -2.676225 -2.676226 h -0.690636 -0.690643 z"
       id="path528"
       style="stroke-width:0.017266" />
  </g>
</svg>
