<?xml version="1.0" encoding="UTF-8" standalone="no"?>
<!-- Created with Inkscape (http://www.inkscape.org/) -->

<svg
   width="100mm"
   height="100mm"
   viewBox="0 0 100 100"
   version="1.1"
   id="svg26768"
   sodipodi:docname="datastores.svg"
   inkscape:version="1.2.1 (9c6d41e410, 2022-07-14)"
   xmlns:inkscape="http://www.inkscape.org/namespaces/inkscape"
   xmlns:sodipodi="http://sodipodi.sourceforge.net/DTD/sodipodi-0.dtd"
   xmlns="http://www.w3.org/2000/svg"
   xmlns:svg="http://www.w3.org/2000/svg">
  <sodipodi:namedview
     id="namedview12294"
     pagecolor="#ffffff"
     bordercolor="#666666"
     borderopacity="1.0"
     inkscape:showpageshadow="2"
     inkscape:pageopacity="0.0"
     inkscape:pagecheckerboard="0"
     inkscape:deskcolor="#d1d1d1"
     inkscape:document-units="mm"
     showgrid="false"
     inkscape:zoom="0.77548253"
     inkscape:cx="588.02098"
     inkscape:cy="194.71747"
     inkscape:window-width="1920"
     inkscape:window-height="1009"
     inkscape:window-x="1912"
     inkscape:window-y="-8"
     inkscape:window-maximized="1"
     inkscape:current-layer="svg26768" />
  <defs
     id="defs26765" />
  <path
     d="M 46.009848,0.79115778 C 36.542511,1.5138516 29.640761,3.0315106 26.587373,5.0550679 25.250379,5.9403651 24.907102,6.5727268 24.78063,8.3433395 l -0.09035,1.4273266 -1.445388,0.4878189 c -2.421035,0.813036 -4.155507,1.842875 -4.824009,2.836584 -0.307146,0.487819 -0.325207,1.716402 -0.325207,29.233079 0,27.968374 0.01809,28.745269 0.343277,29.28729 1.391196,2.294563 7.606383,4.191648 17.182122,5.257627 3.559277,0.397478 16.820766,0.451679 20.506515,0.09035 9.142112,-0.903368 15.718664,-2.746251 17.706072,-4.950473 0.614301,-0.668493 0.632362,-0.722694 0.632362,-2.222292 0,-1.08405 0.07226,-1.571869 0.234884,-1.608 2.800443,-0.794965 5.474423,-2.222292 6.215187,-3.342473 l 0.415548,-0.614292 V 35.661291 C 81.331643,3.0134677 81.530387,6.4101416 79.57911,5.0912171 77.031601,3.3567446 71.557169,1.965558 63.986917,1.1163827 61.511689,0.84537709 48.503136,0.61049341 46.009839,0.79117596 Z M 59.650745,3.0315106 c 8.853045,0.5600904 16.965308,2.2945629 19.024996,4.1193768 0.289076,0.2529446 0.307146,1.8428747 0.307146,28.5103856 v 28.239379 l -0.794965,0.46975 c -0.740764,0.433618 -2.421035,1.156321 -3.306342,1.427335 l -0.415548,0.126464 V 39.79871 c 0,-28.727189 0.09035,-26.66751 -1.120181,-27.588948 -5.83577,-4.444583 -27.607018,-6.2332567 -43.416005,-3.5773468 -1.192452,0.2168045 -2.312633,0.4155481 -2.493307,0.4697492 -0.289084,0.09035 -0.325215,0 -0.271014,-0.8672363 0.05417,-0.9394983 0.07226,-0.9575684 1.011778,-1.5357289 C 30.923546,5.0731289 38.439596,3.5193389 45.919507,3.0495806 49.460723,2.8327761 56.21794,2.8327761 59.650745,3.0314924 Z m -9.431188,6.6849453 c 4.878202,0.1987436 8.383278,0.5239591 11.870293,1.1021201 4.191639,0.704624 8.112272,1.897076 9.485398,2.890784 l 0.722694,0.523951 v 28.167108 28.149048 l -0.722694,0.487819 c -1.662211,1.084041 -5.691237,2.294563 -10.11776,2.999196 -9.304715,1.481519 -22.349399,1.409248 -31.43731,-0.180683 -4.769799,-0.849166 -9.431196,-2.529437 -9.666071,-3.487006 -0.05417,-0.216813 -0.07226,-12.954342 -0.05417,-28.311651 l 0.05417,-27.896093 0.722703,-0.487829 c 2.999187,-1.987408 11.400535,-3.595408 20.596857,-3.938694 1.987417,-0.072262 3.703819,-0.1626034 3.794161,-0.1626034 0.108402,-0.018088 2.240352,0.054174 4.751729,0.1445333 z"
     id="path72"
     style="stroke-width:0.0180674" />
  <path
     d="m 22.287323,17.43125 c 0.05417,0.361347 1.06598,0.740764 3.758021,1.409257 10.244232,2.583638 27.914164,2.728181 39.025632,0.343286 3.902563,-0.831105 5.655096,-1.517668 5.185347,-2.005488 -0.05417,-0.05417 -1.156312,0.198744 -2.421035,0.560091 -11.67155,3.288272 -32.882707,3.216 -43.68702,-0.162613 -1.716403,-0.54202 -1.933216,-0.54202 -1.860945,-0.144533 z"
     id="path74"
     style="stroke-width:0.0180674" />
  <path
     d="m 23.154559,95.554775 v 3.812222 l 2.240362,-0.07226 c 1.951277,-0.05417 2.312624,-0.108402 2.764312,-0.433609 1.535729,-1.138251 1.951286,-4.083246 0.813035,-5.835788 -0.668492,-1.02984 -1.409256,-1.282785 -3.830292,-1.282785 H 23.154559 Z M 26.94872,93.16988 c 0.614292,0.162603 1.084041,1.156303 1.084041,2.276493 0,1.06598 -0.451688,2.077749 -1.084041,2.384895 -0.252944,0.126472 -0.831105,0.234875 -1.300854,0.234875 H 24.78063 v -2.529438 -2.529437 l 0.867236,0.01809 c 0.469749,0.01809 1.04791,0.07226 1.300854,0.144542 z"
     id="path252"
     style="stroke-width:0.0180674" />
  <path
     d="m 36.705124,93.007268 c 0,0.596221 -0.05417,0.722693 -0.361347,0.722693 -0.289085,0 -0.361347,0.126473 -0.361347,0.542021 0,0.415557 0.07226,0.542029 0.361347,0.542029 0.343286,0 0.361347,0.126473 0.361347,1.969347 0,2.348765 0.108402,2.547508 1.463457,2.547508 0.867246,0 0.885307,-0.01809 0.885307,-0.54202 0,-0.451689 -0.07226,-0.54203 -0.451688,-0.54203 -0.45168,0 -0.45168,0 -0.45168,-1.716402 0,-1.716403 0,-1.716403 0.45168,-1.716403 0.379417,0 0.451688,-0.09035 0.451688,-0.542029 0,-0.451679 -0.07226,-0.542021 -0.451688,-0.542021 -0.397478,0 -0.45168,-0.07226 -0.45168,-0.722693 v -0.722703 h -0.722693 -0.722703 z"
     id="path296"
     style="stroke-width:0.0180674" />
  <path
     d="m 51.881758,93.007268 c 0,0.596221 -0.05417,0.722693 -0.361347,0.722693 -0.289084,0 -0.361347,0.126473 -0.361347,0.542021 0,0.415557 0.07226,0.542029 0.361347,0.542029 0.343277,0 0.361347,0.126473 0.361347,1.969347 0,2.348765 0.108403,2.547508 1.463458,2.547508 0.867236,0 0.885306,-0.01809 0.885306,-0.54202 0,-0.451689 -0.07226,-0.54203 -0.451679,-0.54203 -0.451697,0 -0.451697,0 -0.451697,-1.716402 0,-1.716403 0,-1.716403 0.451697,-1.716403 0.379408,0 0.451679,-0.09035 0.451679,-0.542029 0,-0.451679 -0.07226,-0.542021 -0.451679,-0.542021 -0.397496,0 -0.451697,-0.07226 -0.451697,-0.722693 v -0.722703 h -0.722694 -0.722694 z"
     id="path298"
     style="stroke-width:0.0180674" />
  <path
     d="m 31.71852,93.802233 c -0.632362,0.271014 -1.156321,0.921446 -1.156321,1.409265 0,0.48782 1.282793,0.451679 1.589939,-0.03618 0.271005,-0.451688 1.427327,-0.505889 1.58993,-0.09035 0.180673,0.46975 -0.252945,0.758834 -1.318925,0.903377 -1.318915,0.162603 -2.041618,0.813026 -2.041618,1.842875 0.01809,1.481528 1.481528,2.15002 2.854654,1.318915 0.505889,-0.307146 0.59623,-0.325207 0.686562,-0.09035 0.07226,0.180673 0.361347,0.271014 0.939508,0.271014 0.650423,0 0.776895,-0.05417 0.614291,-0.216813 -0.144542,-0.144543 -0.216813,-0.939508 -0.216813,-2.348764 0,-2.402966 -0.126463,-2.67398 -1.391187,-3.017266 -0.903367,-0.252936 -1.463458,-0.234875 -2.15002,0.05417 z m 1.915146,3.920633 c -0.343286,0.794965 -1.463467,0.957568 -1.752543,0.234874 -0.180673,-0.487819 0.198744,-0.867236 1.04791,-1.065979 0.921437,-0.234875 1.06598,-0.05417 0.704633,0.831105 z"
     id="path372"
     style="stroke-width:0.0180674" />
  <path
     d="m 41.113576,93.802233 c -0.632361,0.271014 -1.156321,0.921446 -1.156321,1.409265 0,0.48782 1.282794,0.451679 1.589939,-0.03618 0.271015,-0.451688 1.427327,-0.505889 1.58993,-0.09035 0.180674,0.46975 -0.252944,0.758834 -1.318915,0.903377 -1.318924,0.162603 -2.041618,0.813026 -2.041618,1.842875 0.01809,1.481528 1.481518,2.15002 2.854653,1.318915 0.50588,-0.307146 0.596222,-0.325207 0.686554,-0.09035 0.07226,0.180673 0.361356,0.271014 0.939507,0.271014 0.650432,0 0.776904,-0.05417 0.614292,-0.216813 -0.144533,-0.144543 -0.216805,-0.939508 -0.216805,-2.348764 0,-2.402966 -0.126472,-2.67398 -1.391195,-3.017266 -0.903368,-0.252936 -1.463458,-0.234875 -2.150021,0.05417 z m 1.915146,3.920633 c -0.343277,0.794965 -1.463458,0.957568 -1.752542,0.234874 -0.180674,-0.487819 0.198743,-0.867236 1.047909,-1.065979 0.921438,-0.234875 1.06598,-0.05417 0.704633,0.831105 z"
     id="path374"
     style="stroke-width:0.0180674" />
  <path
     d="m 47.057758,93.748031 c -1.210523,0.343277 -1.734473,1.879006 -0.903377,2.63784 0.216814,0.216814 0.885307,0.52396 1.481528,0.686563 0.596231,0.180674 1.210522,0.433618 1.355056,0.578161 0.234883,0.234874 0.234883,0.289075 -0.07226,0.52395 -0.52396,0.379417 -1.156312,0.307146 -1.662202,-0.198734 -0.56009,-0.578161 -1.698341,-0.650432 -1.698341,-0.108403 0,0.523951 0.668492,1.228583 1.391195,1.481528 0.379417,0.126463 1.065971,0.162604 1.662202,0.108402 0.831096,-0.09035 1.102111,-0.198743 1.517659,-0.668492 1.065979,-1.192452 0.379417,-2.457176 -1.58993,-2.908864 -1.210514,-0.271006 -1.589931,-0.632353 -1.08405,-1.01177 0.415557,-0.289084 1.156321,-0.180673 1.463467,0.234875 0.252944,0.325216 1.517658,0.343286 1.517658,0.01809 0,-0.415548 -0.578151,-1.06598 -1.192452,-1.318924 -0.668483,-0.289076 -1.336985,-0.307146 -2.186151,-0.05417 z"
     id="path376"
     style="stroke-width:0.0180674" />
  <path
     d="m 56.398613,93.856434 c -0.776895,0.397487 -1.445397,1.64414 -1.445397,2.67398 0,0.397478 0.180674,1.102111 0.415557,1.535729 0.523951,1.06598 1.318916,1.481528 2.61977,1.391195 1.644141,-0.126472 2.619779,-1.210522 2.619779,-2.926924 0,-1.716403 -0.975638,-2.800453 -2.619779,-2.926925 -0.686563,-0.05417 -1.138242,0.01809 -1.58993,0.252945 z m 2.330694,1.427326 c 0.867236,1.102111 0.252945,2.963056 -0.975638,2.963056 -0.668493,0 -0.939508,-0.252944 -1.174382,-1.102111 -0.216805,-0.722694 0.05417,-1.879006 0.505889,-2.13195 0.57816,-0.343286 1.246653,-0.216814 1.644131,0.271005 z"
     id="path378"
     style="stroke-width:0.0180674" />
  <path
     d="m 63.860463,93.820303 c -0.325216,0.144542 -0.596231,0.343277 -0.596231,0.451679 0,0.09035 -0.07226,0.180682 -0.180673,0.180682 -0.09035,0 -0.180674,-0.162612 -0.180674,-0.361356 0,-0.289075 -0.126472,-0.361347 -0.632362,-0.361347 h -0.632361 v 2.800453 2.800452 h 0.722703 0.722694 v -1.680271 c 0,-1.933216 0.198743,-2.366835 1.174382,-2.547508 0.59623,-0.126472 0.632361,-0.162603 0.632361,-0.831105 0,-0.794965 -0.126472,-0.849166 -1.029839,-0.451679 z"
     id="path380"
     style="stroke-width:0.0180674" />
  <path
     d="m 66.787378,93.910644 c -0.415548,0.198734 -0.885297,0.614282 -1.084041,0.939498 -0.433627,0.758834 -0.451688,2.529438 -0.03608,3.342473 0.56009,1.04791 2.402965,1.64414 3.432805,1.120181 0.57816,-0.307146 1.391195,-1.102111 1.391195,-1.373126 0,-0.343276 -1.336985,-0.307145 -1.62607,0.03618 -0.52395,0.632362 -1.987408,0.126472 -1.987408,-0.686563 0,-0.271015 0.252945,-0.307146 1.915146,-0.307146 h 1.933207 L 70.59966,96.132975 c -0.144534,-1.102111 -0.596222,-1.824814 -1.373117,-2.240362 -0.813035,-0.433618 -1.535729,-0.433618 -2.439105,0.01809 z m 1.933216,1.210513 c 0.614292,0.560091 0.415548,0.776895 -0.758834,0.776895 -0.596221,0 -1.084041,-0.05417 -1.084041,-0.144533 0,-0.07226 0.126473,-0.325216 0.289076,-0.542021 0.325216,-0.469758 1.08405,-0.523959 1.553799,-0.09035 z"
     id="path382"
     style="stroke-width:0.0180674" />
  <path
     d="m 72.894172,93.748031 c -1.210522,0.343277 -1.734472,1.879006 -0.903376,2.63784 0.216813,0.216814 0.885306,0.52396 1.481528,0.686563 0.596221,0.180674 1.210522,0.433618 1.355055,0.578161 0.234875,0.234874 0.234875,0.289075 -0.07226,0.52395 -0.523959,0.379417 -1.156321,0.307146 -1.66221,-0.198734 -0.560091,-0.578161 -1.698333,-0.650432 -1.698333,-0.108403 0,0.523951 0.668493,1.228583 1.391187,1.481528 0.379417,0.126463 1.06598,0.162604 1.66221,0.108402 0.831096,-0.09035 1.102111,-0.198743 1.517659,-0.668492 1.06598,-1.192452 0.379417,-2.457176 -1.58993,-2.908864 -1.210522,-0.271006 -1.589939,-0.632353 -1.08405,-1.01177 0.415557,-0.289084 1.156321,-0.180673 1.463467,0.234875 0.252936,0.325216 1.517659,0.343286 1.517659,0.01809 0,-0.415548 -0.578161,-1.06598 -1.192452,-1.318924 -0.668493,-0.289076 -1.336986,-0.307146 -2.186152,-0.05417 z"
     id="path384"
     style="stroke-width:0.0180674" />
</svg>
