<?xml version="1.0" encoding="UTF-8" standalone="no"?>
<!-- Created with Inkscape (http://www.inkscape.org/) -->

<svg
   width="100mm"
   height="100mm"
   viewBox="0 0 100 100"
   version="1.1"
   id="svg26768"
   sodipodi:docname="datastore.svg"
   inkscape:version="1.2.1 (9c6d41e410, 2022-07-14)"
   xmlns:inkscape="http://www.inkscape.org/namespaces/inkscape"
   xmlns:sodipodi="http://sodipodi.sourceforge.net/DTD/sodipodi-0.dtd"
   xmlns="http://www.w3.org/2000/svg"
   xmlns:svg="http://www.w3.org/2000/svg">
  <sodipodi:namedview
     id="namedview12294"
     pagecolor="#ffffff"
     bordercolor="#666666"
     borderopacity="1.0"
     inkscape:showpageshadow="2"
     inkscape:pageopacity="0.0"
     inkscape:pagecheckerboard="0"
     inkscape:deskcolor="#d1d1d1"
     inkscape:document-units="mm"
     showgrid="false"
     inkscape:zoom="0.77548253"
     inkscape:cx="588.02098"
     inkscape:cy="194.71747"
     inkscape:window-width="1920"
     inkscape:window-height="1009"
     inkscape:window-x="1912"
     inkscape:window-y="-8"
     inkscape:window-maximized="1"
     inkscape:current-layer="svg26768" />
  <defs
     id="defs26765" />
  <path
     d="M 44.020368,1.7072528 C 33.236175,2.2958312 24.198725,4.3083686 21.426737,6.7386118 20.0977,7.9157582 20.192631,5.29566 20.192631,38.369687 c 0,34.23219 -0.208849,30.681758 1.841666,32.067763 2.677056,1.822672 8.467864,3.303598 16.385127,4.176965 3.740287,0.417695 15.037099,0.569585 19.290024,0.284798 12.075245,-0.854384 20.353246,-3.22767 21.644307,-6.227488 0.227841,-0.512628 0.265805,-5.449055 0.265805,-30.188123 0,-19.669745 -0.07591,-29.8083928 -0.189855,-30.2830561 C 78.651262,5.3905824 70.999805,3.017307 59.399223,1.9730581 57.082895,1.7642103 46.450601,1.5743553 44.020368,1.7072528 Z m 14.049808,2.5631407 c 8.505841,0.5506032 16.650944,2.3732856 18.663481,4.2149504 l 0.417695,0.3797203 V 38.445627 68.026189 l -0.702493,0.493645 c -0.968299,0.645536 -3.246652,1.518902 -5.543987,2.088488 -10.461411,2.639091 -27.852813,2.885904 -39.605295,0.550593 -3.778252,-0.740458 -7.25274,-1.95558 -8.296983,-2.885903 -0.322766,-0.265806 -0.341752,-1.936598 -0.341752,-29.960283 V 8.6372341 L 23.496237,8.1435884 C 28.964277,4.9349118 43.2799,3.3400698 58.070176,4.2703935 Z"
     id="path86"
     style="stroke-width:0.0189862" />
  <path
     d="m 24.635409,12.054759 c -0.170875,0.30378 0.07594,0.45567 1.442954,0.911341 9.70197,3.132726 28.384433,3.778262 41.579867,1.423969 3.094762,-0.550603 7.214769,-1.689785 7.44261,-2.03153 0.322763,-0.531621 -0.265816,-0.550603 -1.87964,-0.07591 -11.942348,3.60739 -34.687861,3.68333 -46.231494,0.132908 -2.031527,-0.626543 -2.164433,-0.645536 -2.354297,-0.360738 z"
     id="path88"
     style="stroke-width:0.0189862" />
  <path
     d="m 24.939193,94.265177 v 4.006092 l 2.354292,-0.07591 c 2.050512,-0.05691 2.430243,-0.113915 2.904896,-0.45567 1.613824,-1.196129 2.050512,-4.290891 0.854373,-6.132556 -0.702483,-1.082212 -1.480916,-1.348028 -4.025079,-1.348028 h -2.088482 z m 3.987109,-2.506183 c 0.645536,0.170872 1.139171,1.215111 1.139171,2.392268 0,1.120189 -0.474653,2.18341 -1.139171,2.506183 -0.265805,0.132897 -0.873366,0.246812 -1.367012,0.246812 h -0.911336 v -2.658063 -2.658073 l 0.911336,0.019 c 0.493646,0.019 1.101207,0.07591 1.367012,0.151901 z"
     id="path250"
     style="stroke-width:0.0189862" />
  <path
     d="m 39.36873,91.588121 c 0,0.626543 -0.05691,0.759451 -0.379721,0.759451 -0.30378,0 -0.37972,0.132898 -0.37972,0.569586 0,0.436678 0.07591,0.569585 0.37972,0.569585 0.360738,0 0.379721,0.132898 0.379721,2.069495 0,2.468208 0.113925,2.677066 1.537884,2.677066 0.911341,0 0.930334,-0.019 0.930334,-0.569585 0,-0.474664 -0.07591,-0.569596 -0.474653,-0.569596 -0.474663,0 -0.474663,0 -0.474663,-1.80369 0,-1.80369 0,-1.80369 0.474663,-1.80369 0.398703,0 0.474653,-0.09491 0.474653,-0.569585 0,-0.474664 -0.07591,-0.569586 -0.474653,-0.569586 -0.417706,0 -0.474663,-0.07591 -0.474663,-0.759451 V 90.82866 H 40.128181 39.36873 Z"
     id="path292"
     style="stroke-width:0.0189862" />
  <path
     d="m 55.31718,91.588121 c 0,0.626543 -0.05701,0.759451 -0.379731,0.759451 -0.30378,0 -0.37973,0.132898 -0.37973,0.569586 0,0.436678 0.07591,0.569585 0.37973,0.569585 0.360738,0 0.379731,0.132898 0.379731,2.069495 0,2.468208 0.113915,2.677066 1.537885,2.677066 0.911341,0 0.930323,-0.019 0.930323,-0.569585 0,-0.474664 -0.07591,-0.569596 -0.474663,-0.569596 -0.474653,0 -0.474653,0 -0.474653,-1.80369 0,-1.80369 0,-1.80369 0.474653,-1.80369 0.398723,0 0.474663,-0.09491 0.474663,-0.569585 0,-0.474664 -0.07591,-0.569586 -0.474663,-0.569586 -0.417696,0 -0.474653,-0.07591 -0.474653,-0.759451 V 90.82866 H 56.076631 55.31718 Z"
     id="path294"
     style="stroke-width:0.0189862" />
  <path
     d="m 33.938668,92.423512 c -0.664518,0.284798 -1.215122,0.968299 -1.215122,1.480927 0,0.512628 1.34803,0.474653 1.670793,-0.03801 0.284798,-0.474653 1.499919,-0.531611 1.670792,-0.09491 0.189855,0.493646 -0.265805,0.797426 -1.385994,0.949316 -1.386005,0.170873 -2.145446,0.854384 -2.145446,1.936598 0.019,1.556866 1.556867,2.25936 2.999819,1.385994 0.531621,-0.322763 0.626554,-0.341756 0.721476,-0.09491 0.07591,0.189865 0.379731,0.284798 0.987291,0.284798 0.683501,0 0.816409,-0.05691 0.645526,-0.227841 -0.15189,-0.15189 -0.22783,-0.987281 -0.22783,-2.468208 0,-2.525176 -0.132898,-2.809963 -1.461945,-3.170711 -0.949306,-0.265795 -1.537884,-0.246813 -2.25936,0.05701 z m 2.012537,4.120018 c -0.360737,0.835391 -1.537884,1.006263 -1.841654,0.246812 -0.189865,-0.512628 0.208837,-0.911341 1.101196,-1.120178 0.968299,-0.246823 1.120189,-0.05691 0.740458,0.873366 z"
     id="path360"
     style="stroke-width:0.0189862" />
  <path
     d="m 43.81151,92.423512 c -0.664518,0.284798 -1.215121,0.968299 -1.215121,1.480927 0,0.512628 1.348029,0.474653 1.670792,-0.03801 0.284798,-0.474653 1.499909,-0.531611 1.670792,-0.09491 0.189866,0.493646 -0.265805,0.797426 -1.385994,0.949316 -1.385994,0.170873 -2.145445,0.854384 -2.145445,1.936598 0.019,1.556866 1.556867,2.25936 2.999818,1.385994 0.531621,-0.322763 0.626554,-0.341756 0.721487,-0.09491 0.07591,0.189865 0.37972,0.284798 0.987281,0.284798 0.6835,0 0.816408,-0.05691 0.645536,-0.227841 -0.151891,-0.15189 -0.227841,-0.987281 -0.227841,-2.468208 0,-2.525176 -0.132908,-2.809963 -1.461934,-3.170711 -0.949316,-0.265795 -1.537884,-0.246813 -2.259371,0.05701 z m 2.012548,4.120018 c -0.360738,0.835391 -1.537884,1.006263 -1.841665,0.246812 -0.189865,-0.512628 0.208848,-0.911341 1.101197,-1.120178 0.968298,-0.246823 1.120188,-0.05691 0.740468,0.873366 z"
     id="path362"
     style="stroke-width:0.0189862" />
  <path
     d="m 50.247846,92.366555 c -1.272069,0.360737 -1.822672,1.974562 -0.949306,2.771988 0.22783,0.22783 0.930324,0.550603 1.556867,0.721476 0.626543,0.189865 1.272079,0.45567 1.423969,0.607561 0.246823,0.246822 0.246823,0.30378 -0.07591,0.550603 -0.550603,0.398703 -1.215121,0.322763 -1.746742,-0.208848 -0.588568,-0.607561 -1.784708,-0.683501 -1.784708,-0.113915 0,0.550593 0.702494,1.291062 1.461945,1.556867 0.398713,0.132908 1.120189,0.170883 1.746732,0.113915 0.873376,-0.09491 1.158164,-0.208848 1.594842,-0.702483 1.120189,-1.253097 0.398713,-2.582134 -1.670782,-3.056797 -1.272079,-0.284788 -1.670792,-0.664508 -1.139171,-1.063221 0.436678,-0.30378 1.215111,-0.189865 1.537884,0.246823 0.265805,0.341745 1.594842,0.360738 1.594842,0.019 0,-0.436678 -0.607561,-1.120189 -1.253097,-1.385994 -0.702493,-0.303781 -1.404976,-0.322763 -2.297335,-0.05691 z"
     id="path364"
     style="stroke-width:0.0189862" />
  <path
     d="m 60.063731,92.48047 c -0.816398,0.417695 -1.518892,1.727749 -1.518892,2.809963 0,0.417696 0.189865,1.158164 0.436678,1.613824 0.550603,1.120189 1.385994,1.556878 2.753006,1.461945 1.72775,-0.132898 2.753006,-1.272079 2.753006,-3.075769 0,-1.80369 -1.025256,-2.942861 -2.753006,-3.075769 -0.721476,-0.05691 -1.196139,0.019 -1.670792,0.265806 z m 2.449225,1.499919 c 0.911342,1.158154 0.265806,3.113734 -1.025256,3.113734 -0.702483,0 -0.987281,-0.265805 -1.234104,-1.158154 -0.22784,-0.759451 0.05691,-1.974573 0.531621,-2.240378 0.607561,-0.360738 1.310044,-0.22783 1.727739,0.284798 z"
     id="path366"
     style="stroke-width:0.0189862" />
  <path
     d="m 67.905053,92.442494 c -0.341755,0.151891 -0.626543,0.360738 -0.626543,0.474664 0,0.09491 -0.07591,0.189855 -0.189865,0.189855 -0.09491,0 -0.189866,-0.170873 -0.189866,-0.379721 0,-0.30378 -0.132897,-0.37972 -0.664518,-0.37972 h -0.664518 v 2.942861 2.942871 h 0.759451 0.759451 V 96.46758 c 0,-2.031531 0.208848,-2.487191 1.234104,-2.677056 0.626543,-0.132908 0.664518,-0.170883 0.664518,-0.873366 0,-0.835401 -0.132908,-0.892359 -1.082214,-0.474664 z"
     id="path368"
     style="stroke-width:0.0189862" />
  <path
     d="m 70.980822,92.537427 c -0.436688,0.208848 -0.930323,0.645536 -1.139171,0.987281 -0.455671,0.797426 -0.474664,2.658084 -0.03801,3.512457 0.588568,1.101207 2.525176,1.72775 3.607389,1.177147 0.607561,-0.322763 1.461934,-1.158154 1.461934,-1.442952 0,-0.360738 -1.404976,-0.322763 -1.708757,0.03801 -0.550603,0.664518 -2.088487,0.132898 -2.088487,-0.721476 0,-0.284798 0.265805,-0.322763 2.012537,-0.322763 h 2.03153 L 74.98689,94.872773 c -0.151901,-1.158164 -0.626554,-1.917605 -1.442962,-2.354293 -0.854384,-0.455671 -1.613835,-0.455671 -2.563141,0.019 z m 2.03153,1.272079 c 0.645526,0.588579 0.436688,0.816409 -0.797426,0.816409 -0.626543,0 -1.139171,-0.05691 -1.139171,-0.15189 0,-0.07591 0.132908,-0.341756 0.30378,-0.569586 0.341756,-0.493646 1.139172,-0.550603 1.632817,-0.09491 z"
     id="path370"
     style="stroke-width:0.0189862" />
</svg>
