<?xml version="1.0" encoding="UTF-8" standalone="no"?>
<!-- Created with Inkscape (http://www.inkscape.org/) -->

<svg
   width="100mm"
   height="100mm"
   viewBox="0 0 100 100"
   version="1.1"
   id="svg26768"
   xmlns="http://www.w3.org/2000/svg"
   xmlns:svg="http://www.w3.org/2000/svg">
  <defs
     id="defs26765" />
  <path
     d="M 46.088657,1.4949029 C 36.593182,2.012225 28.666372,3.7811559 26.229922,5.917221 25.061761,6.9518835 25.1452,4.6322513 25.1452,33.802894 c 0,26.100062 0,26.417128 0.333764,26.967838 1.2516,2.035937 7.192532,3.854927 15.686733,4.806142 3.287536,0.367134 13.216904,0.500642 16.955022,0.250325 9.345287,-0.650838 16.471071,-2.453139 18.490318,-4.689333 l 0.60077,-0.667519 V 33.686077 6.8851252 L 76.510908,6.1842359 C 74.441602,4.1316096 68.200284,2.4961771 59.605955,1.7285296 57.570009,1.5449625 48.208041,1.378085 46.088657,1.4949029 Z m 12.349137,2.252883 c 6.858777,0.4338833 13.667477,1.8857396 15.92036,3.3876647 l 0.767656,0.5173312 0.05008,5.3067842 0.03342,5.290103 -0.534021,0.333755 c -1.535295,0.934534 -5.290103,2.019256 -9.245159,2.653396 -7.409478,1.184851 -18.089813,1.335039 -25.933175,0.350454 -4.839539,-0.61746 -9.128359,-1.668803 -11.347872,-2.803593 L 27.231248,18.316418 27.181168,13.3267 c -0.01666,-2.753516 0,-5.1732856 0.05008,-5.3735423 0.183567,-0.784328 3.053909,-2.0192472 6.458264,-2.7868947 6.792019,-1.5186055 15.352969,-2.0192472 24.748324,-1.4184771 z m -29.621225,17.5557831 1.084722,0.417203 0.05008,2.43645 0.05008,2.436451 -0.884456,-0.350445 c -0.483966,-0.183567 -1.101416,-0.467263 -1.385112,-0.634149 l -0.500641,-0.283696 -0.05008,-2.302942 c -0.03342,-2.152755 -0.01666,-2.302952 0.250325,-2.219504 0.166878,0.05008 0.784337,0.283695 1.385107,0.500632 z m 46.39268,1.752242 c 0,2.086005 -0.03341,2.302951 -0.317074,2.486519 -0.300385,0.183567 -2.336322,1.051343 -2.46983,1.051343 -0.03342,0 -0.05008,-1.084723 -0.05008,-2.386382 v -2.40308 l 1.301669,-0.500642 c 0.700898,-0.283695 1.335038,-0.517322 1.418486,-0.534011 0.06674,0 0.116818,1.017973 0.116818,2.286253 z M 33.906406,22.722056 c 1.284979,0.283695 2.803594,0.567391 3.387674,0.63414 l 1.034654,0.116818 v 2.469829 2.469829 l -0.450582,-0.06674 c -3.73811,-0.684209 -5.156587,-0.967904 -6.057742,-1.21822 l -1.084722,-0.317075 -0.05008,-2.38639 -0.05008,-2.369692 0.467263,0.0834 c 0.250325,0.05008 1.518614,0.317075 2.803584,0.58408 z m 37.764981,1.735551 -0.05008,2.386391 -1.418478,0.383824 c -1.869059,0.500641 -5.890864,1.201531 -6.05775,1.051343 -0.06674,-0.06674 -0.100129,-1.168161 -0.0834,-2.43645 l 0.05008,-2.302943 2.252883,-0.383833 c 1.234919,-0.200247 2.820274,-0.517322 3.504492,-0.700889 2.019247,-0.534021 1.85236,-0.734278 1.802301,2.002557 z M 42.083533,23.923596 c 1.20154,0.0834 2.720145,0.216937 3.387673,0.267006 l 1.201531,0.100128 v 2.403071 2.40308 h -0.61745 c -0.884466,0 -6.408195,-0.483961 -6.758649,-0.60077 -0.267006,-0.0834 -0.300385,-0.350454 -0.300385,-2.503208 v -2.436451 l 0.467262,0.100129 c 0.250326,0.05008 1.435176,0.166886 2.620018,0.267015 z m 21.243851,2.119375 -0.05008,2.46982 -1.83568,0.183577 c -1.001284,0.116808 -2.720146,0.250316 -3.788178,0.317065 l -1.969188,0.116818 V 26.71049 24.29073 l 1.468546,-0.116818 c 1.134782,-0.0834 4.555826,-0.400513 6.007682,-0.567391 0.166887,-0.01666 0.200257,0.534012 0.166887,2.43645 z m -8.310634,0.61746 v 2.386381 l -0.867776,0.116818 c -1.15148,0.133498 -4.472396,0.133498 -5.790745,0 l -1.017972,-0.116818 v -2.386381 -2.40308 h 3.838246 3.838247 z m -26.333688,0.133498 1.301668,0.534021 v 2.786895 2.803593 l -0.700898,-0.250325 c -0.400514,-0.133508 -1.017973,-0.417203 -1.385107,-0.61746 l -0.66752,-0.383824 -0.05008,-2.703456 c -0.01666,-1.485235 0.01666,-2.703456 0.08349,-2.703456 0.05008,0 0.700889,0.233627 1.418477,0.534012 z m 46.526187,2.236194 v 2.753524 l -1.034662,0.467263 c -0.584081,0.267006 -1.218221,0.534021 -1.418478,0.58408 l -0.383832,0.116818 V 30.131534 27.31126 l 1.301668,-0.500641 c 0.700898,-0.283696 1.335038,-0.517331 1.418486,-0.534021 0.06674,0 0.116818,1.234919 0.116818,2.753525 z m -43.32209,-1.184851 c 0.717588,0.216946 3.904996,0.851096 5.824124,1.168161 l 0.617451,0.100128 v 2.836964 2.853653 l -0.450582,-0.100129 c -0.267006,-0.05008 -1.184842,-0.216946 -2.052618,-0.350453 -1.568674,-0.267006 -4.756091,-1.001275 -5.023097,-1.184842 -0.0834,-0.05008 -0.150188,-1.318358 -0.150188,-2.836963 0,-2.086005 0.05008,-2.736835 0.216946,-2.736835 0.100129,0 0.567391,0.116818 1.017964,0.250316 z m 39.817598,2.569958 v 2.803584 l -1.785611,0.433893 c -1.401797,0.333755 -5.47367,1.118092 -5.824115,1.118092 -0.03341,0 -0.06674,-1.26829 -0.06674,-2.836955 v -2.820283 l 0.550711,-0.0834 c 2.953772,-0.500642 3.754798,-0.65083 5.123216,-1.001283 0.867776,-0.216937 1.685492,-0.400505 1.80231,-0.417194 0.150188,-0.01666 0.200248,0.650829 0.200248,2.803584 z m -27.818914,-0.801027 2.786894,0.216946 v 2.820274 2.836964 l -2.035936,-0.116818 c -1.134782,-0.06674 -2.836964,-0.216947 -3.804868,-0.317075 l -1.752241,-0.200247 -0.05008,-2.820283 -0.03342,-2.820274 1.034663,0.100128 c 0.58408,0.06674 2.302942,0.200257 3.854927,0.300385 z m 19.474911,2.45314 v 2.820274 l -2.035937,0.183567 c -1.134782,0.116818 -2.853653,0.250325 -3.838238,0.317074 l -1.80231,0.100129 V 32.651423 29.81446 l 2.052627,-0.133499 c 1.118092,-0.06674 2.519888,-0.166886 3.120658,-0.250325 0.60077,-0.06674 1.401788,-0.133508 1.80231,-0.150188 l 0.70089,-0.01666 z m -8.344004,0.55071 c 0,2.736826 0,2.786895 -0.367143,2.887023 -0.500633,0.133499 -6.124491,0.133499 -6.792019,0 l -0.517331,-0.116818 v -2.703456 c 0,-1.485235 0.03341,-2.736835 0.06674,-2.770214 0.03341,-0.03342 1.76893,-0.06674 3.838246,-0.06674 h 3.771489 z m -26.333688,0.517322 1.301668,0.534021 v 2.720136 2.720155 l -0.867776,-0.350454 c -0.483961,-0.183567 -1.101412,-0.467262 -1.385107,-0.63414 l -0.500642,-0.283695 -0.05008,-2.620017 c -0.01666,-1.435176 0.01666,-2.620017 0.08349,-2.620017 0.05008,0 0.700889,0.233626 1.418477,0.534011 z m 46.526187,2.102695 c 0,2.987152 0.133498,2.703456 -1.685492,3.454414 -0.567391,0.233636 -1.068033,0.417203 -1.101412,0.417203 -0.03342,0 -0.05008,-1.218229 -0.05008,-2.720155 v -2.703455 l 1.301669,-0.534012 c 0.700898,-0.283696 1.335038,-0.517331 1.418486,-0.534012 0.06674,-0.01666 0.116818,1.168152 0.116818,2.620017 z m -43.32209,-1.051352 c 0.717588,0.216946 3.904996,0.851087 5.824124,1.168161 l 0.617451,0.100128 v 2.753525 2.736835 l -0.367135,-0.0834 c -0.216946,-0.03342 -1.13479,-0.200257 -2.052626,-0.350445 -0.917844,-0.150197 -2.45314,-0.467271 -3.421044,-0.717588 l -1.752241,-0.433892 -0.05008,-2.720146 c -0.05008,-3.02053 -0.133498,-2.853653 1.20154,-2.453139 z m 39.784228,2.45314 -0.05008,2.720145 -1.418478,0.383824 c -1.618733,0.433893 -5.857494,1.20154 -6.041061,1.084722 -0.0834,-0.03332 -0.133507,-1.268289 -0.133507,-2.720145 V 35.471697 L 65.24649,35.27144 c 1.551985,-0.250316 4.88959,-0.934525 5.54042,-1.151471 0.967904,-0.300385 0.934525,-0.400513 0.884465,2.519889 z m -27.785544,-0.667519 2.786894,0.200256 v 2.720146 2.720145 h -0.61745 c -0.884466,0 -6.408195,-0.483952 -6.758649,-0.60077 -0.267006,-0.0834 -0.300385,-0.367134 -0.300385,-2.770205 v -2.686775 l 1.051343,0.100128 c 0.5674,0.06674 2.286262,0.200257 3.838247,0.317075 z m 19.441541,2.336321 -0.05008,2.720146 -1.83568,0.183567 c -1.001284,0.116818 -2.720146,0.250325 -3.804868,0.317075 l -1.969187,0.116818 0.05008,-2.720146 0.05008,-2.736835 2.753525,-0.200257 c 1.501925,-0.116818 2.937092,-0.233636 3.170727,-0.267015 0.233627,-0.03332 0.70089,-0.0834 1.051343,-0.100119 l 0.617451,-0.01666 z m -8.310634,0.567391 v 2.686776 l -0.867776,0.116809 c -1.15148,0.133507 -4.472396,0.133507 -5.790745,0 L 47.340257,41.562827 V 38.9428 c 0,-1.435166 0.03341,-2.653387 0.06674,-2.686766 0.03341,-0.03332 1.76893,-0.06674 3.838246,-0.06674 h 3.771489 z m -26.333688,0.433884 1.301668,0.534021 v 2.736835 2.720145 L 29.617587,45.200808 C 29.40065,45.134068 28.7665,44.867053 28.19911,44.616727 l -1.051343,-0.483952 v -2.670077 c 0,-1.485235 0.05008,-2.686775 0.116817,-2.686775 0.06674,0 0.70089,0.233636 1.418478,0.534012 z m 46.492808,2.169453 -0.05008,2.703456 -0.934534,0.450573 c -0.500642,0.250316 -1.134791,0.517331 -1.368418,0.567391 l -0.450582,0.116818 v -2.736835 -2.753516 l 1.301669,-0.500651 c 0.700898,-0.283695 1.335038,-0.517322 1.418486,-0.534011 0.06674,0 0.100128,1.20153 0.0834,2.686775 z M 31.887159,40.361287 c 0.717588,0.216946 3.904996,0.851086 5.824124,1.168161 l 0.617451,0.100128 v 2.753525 2.770205 l -0.867776,-0.116809 c -1.234919,-0.166887 -4.706023,-0.867785 -5.840805,-1.20154 l -0.967904,-0.267015 v -2.720146 c 0,-2.085996 0.05008,-2.736826 0.216946,-2.736826 0.100129,0 0.567391,0.116809 1.017964,0.250317 z m 39.817598,2.503199 v 2.736835 l -0.61745,0.166887 c -1.969188,0.517322 -2.820274,0.700889 -4.539145,1.017964 -1.051343,0.183567 -2.052627,0.333764 -2.219504,0.333764 -0.283696,0 -0.300385,-0.200266 -0.300385,-2.753525 v -2.736835 l 0.55071,-0.0834 c 2.386382,-0.400514 4.555826,-0.817717 5.54042,-1.084722 0.650829,-0.183568 1.268289,-0.333756 1.385107,-0.333756 0.150188,-0.01666 0.200247,0.634141 0.200247,2.736826 z m -27.818914,-0.734268 2.786894,0.216937 v 2.770214 2.786895 l -0.951214,-0.06674 C 43.902532,47.720715 40.414739,47.43701 39.713841,47.336882 l -0.717588,-0.100128 v -2.753516 -2.753525 l 1.051343,0.100129 c 0.5674,0.06674 2.286262,0.200256 3.838247,0.300385 z m 19.474911,2.386381 v 2.736835 l -0.70089,0.100128 c -0.934534,0.116818 -4.422327,0.400514 -5.807434,0.467263 l -1.084722,0.05008 -0.05008,-2.770214 -0.03341,-2.770206 2.035936,-0.133507 c 1.134782,-0.06674 2.536579,-0.166878 3.137349,-0.250325 0.60077,-0.06674 1.401787,-0.133499 1.802301,-0.150188 l 0.700898,-0.01666 z m -8.344004,0.634149 v 2.803584 h -3.838247 -3.838246 v -2.720145 c 0,-1.501916 0.03341,-2.770205 0.06674,-2.803584 0.03341,-0.03342 1.76893,-0.06674 3.838246,-0.06674 h 3.771489 z m -27.067957,0.116809 c 0.333755,0.166887 0.934525,0.400522 1.335039,0.517331 l 0.700898,0.216946 v 2.403081 c 0,1.301659 -0.03342,2.386381 -0.0834,2.386381 -0.233636,0 -1.885749,-0.734269 -2.286262,-1.017973 l -0.467265,-0.333755 v -2.252883 c 0,-1.234919 0.03342,-2.236194 0.0834,-2.236194 0.05008,0 0.367135,0.133508 0.717588,0.317066 z m 47.260456,2.019256 v 2.353012 l -1.20154,0.56739 c -0.667519,0.317066 -1.301668,0.584081 -1.418477,0.584081 -0.183576,0 -0.216955,-0.500642 -0.183576,-2.336322 l 0.05008,-2.353011 1.335038,-0.567391 c 0.734277,-0.300385 1.351728,-0.567391 1.385107,-0.567391 0.01666,-0.01666 0.03342,1.034653 0.03342,2.319632 z M 32.988571,46.8863 c 0.967904,0.216946 2.553259,0.534021 3.554542,0.684209 l 1.785621,0.283695 v 2.45314 2.43645 L 36.910247,52.526848 C 35.258134,52.259842 32.805004,51.725821 31.536715,51.358687 L 30.652249,51.10837 v -2.43645 c 0,-2.236193 0.01666,-2.419769 0.300385,-2.302951 0.150188,0.06674 1.068033,0.300385 2.035937,0.517331 z m 38.515939,4.25544 c -0.333764,0.216947 -3.587922,0.967905 -5.52373,1.301669 -1.351737,0.233636 -1.835689,0.250316 -1.885749,0.116818 -0.05008,-0.116818 -0.05008,-1.20154 -0.03341,-2.43645 l 0.05008,-2.236203 2.202824,-0.383824 c 1.201531,-0.200247 2.903712,-0.550701 3.754799,-0.767638 l 1.551984,-0.383824 0.05008,2.336322 c 0.03332,1.702173 -0.01666,2.353002 -0.166878,2.45313 z M 42.751061,48.288097 c 1.385098,0.100128 2.820274,0.216937 3.220787,0.267005 l 0.700889,0.0834 v 2.43645 2.41976 L 45.137442,53.394587 C 42.917938,53.22771 39.997536,52.960704 39.463515,52.860575 l -0.467262,-0.100128 v -2.41976 -2.43646 l 0.634149,0.100138 c 0.333755,0.06674 1.752241,0.183558 3.120659,0.283695 z m 20.609693,2.085996 c 0,2.369701 0,2.41976 -0.367134,2.503199 -0.433893,0.08349 -3.270847,0.350454 -5.673927,0.517331 l -1.635424,0.100129 v -2.419761 -2.41976 l 0.517332,-0.100129 c 0.283695,-0.05008 1.017963,-0.100128 1.635423,-0.116817 0.60077,-0.01666 1.969187,-0.116818 3.02053,-0.233636 1.051343,-0.100119 2.052627,-0.216937 2.219504,-0.233627 0.250326,-0.01666 0.283696,0.200257 0.283696,2.403071 z m -8.344004,0.650839 v 2.386381 l -1.919119,0.100128 c -1.051352,0.05008 -2.786904,0.05008 -3.838247,0 l -1.919127,-0.100128 v -2.386381 -2.40308 h 3.838246 3.838247 z m -22.929334,2.603327 c 12.18225,3.03722 32.057675,2.536579 41.619908,-1.051343 l 1.501925,-0.567391 v 3.888307 3.888306 l -0.617459,0.433884 c -1.418478,0.951223 -4.789462,1.969187 -8.961464,2.670086 -12.232319,2.069306 -30.50569,0.967904 -36.897205,-2.202824 -1.668793,-0.834397 -1.585354,-0.60077 -1.585354,-4.806142 0,-2.035946 0.03342,-3.738118 0.0834,-3.788187 0.05008,-0.05008 0.717588,0.166887 1.485235,0.467272 0.750958,0.317065 2.269564,0.784337 3.370976,1.068032 z"
     id="path90"
     style="stroke-width:0.016688" />
  <path
     d="m 29.066885,10.573184 c -0.166877,0.283696 0.03342,0.417194 1.2516,0.801018 9.11166,2.920402 26.784271,3.354295 38.165485,0.951224 3.571241,-0.750967 5.273414,-1.418487 4.822841,-1.869059 -0.05008,-0.05008 -0.750958,0.100128 -1.551985,0.333755 -10.513448,3.187417 -30.372183,3.237476 -40.685383,0.100128 -1.702173,-0.500642 -1.86905,-0.534012 -2.002558,-0.317066 z"
     id="path92"
     style="stroke-width:0.016688" />
  <path
     d="m 30.151608,82.848971 v 3.521172 l 2.069315,-0.06674 c 1.802301,-0.05008 2.136065,-0.100119 2.553259,-0.400504 1.418487,-1.051343 1.80231,-3.771498 0.750967,-5.390232 -0.617459,-0.951214 -1.301668,-1.18485 -3.537861,-1.18485 h -1.83568 z m 3.504482,-2.202814 c 0.567391,0.150187 1.001283,1.068023 1.001283,2.102685 0,0.984594 -0.417202,1.919119 -1.001283,2.202815 -0.233636,0.116818 -0.767647,0.216946 -1.20154,0.216946 h -0.801017 v -2.336322 -2.336322 l 0.801017,0.01666 c 0.433893,0.01666 0.967904,0.06674 1.20154,0.133507 z"
     id="path254"
     style="stroke-width:0.016688" />
  <path
     d="m 51.345381,82.832281 v 3.504483 h 0.58408 c 0.400514,0 0.58409,-0.0834 0.58409,-0.250316 0,-0.317075 0.150188,-0.317075 0.517322,0.01666 0.166887,0.150188 0.58408,0.300385 0.934525,0.333755 1.335048,0.166877 2.269573,-0.967904 2.269573,-2.770214 0,-1.635424 -0.817708,-2.603328 -2.169436,-2.569949 -0.433892,0.01666 -0.851095,0.133508 -1.051352,0.317075 -0.333755,0.300376 -0.333755,0.283695 -0.333755,-0.884466 v -1.20154 H 52.0129 51.345381 Z m 3.220787,-0.133507 c 0.400513,0.483961 0.383824,1.635432 -0.06674,2.202823 -0.917845,1.168161 -2.252883,-0.150197 -1.80231,-1.78562 0.267015,-0.967905 1.20154,-1.184842 1.869059,-0.417203 z"
     id="path256"
     style="stroke-width:0.016688" />
  <path
     d="m 42.8345,80.495959 c 0,0.550702 -0.05008,0.66752 -0.333765,0.66752 -0.267005,0 -0.333764,0.116818 -0.333764,0.500641 0,0.383824 0.06674,0.500642 0.333764,0.500642 0.317075,0 0.333765,0.116818 0.333765,1.818991 0,2.169444 0.100128,2.353011 1.351728,2.353011 0.801026,0 0.817716,-0.01666 0.817716,-0.500633 0,-0.417203 -0.06674,-0.500651 -0.417203,-0.500651 -0.417203,0 -0.417203,0 -0.417203,-1.585354 0,-1.585364 0,-1.585364 0.417203,-1.585364 0.350445,0 0.417203,-0.0834 0.417203,-0.500642 0,-0.417193 -0.06674,-0.500641 -0.417203,-0.500641 -0.367134,0 -0.417203,-0.06674 -0.417203,-0.66752 V 79.82844 H 43.502019 42.8345 Z"
     id="path300"
     style="stroke-width:0.016688" />
  <path
     d="m 38.061728,81.230237 c -0.584081,0.250316 -1.068033,0.851086 -1.068033,1.301659 0,0.450582 1.184842,0.417203 1.468546,-0.03342 0.250316,-0.417203 1.318349,-0.467272 1.468546,-0.0834 0.166878,0.433893 -0.233636,0.700899 -1.21823,0.834406 -1.218229,0.150188 -1.885748,0.750958 -1.885748,1.702173 0.01666,1.368417 1.368417,1.985877 2.636706,1.218229 0.467272,-0.283695 0.550711,-0.300385 0.63415,-0.0834 0.06674,0.166877 0.333755,0.250316 0.867775,0.250316 0.60077,0 0.717588,-0.05008 0.567391,-0.200256 -0.133498,-0.133508 -0.200256,-0.867776 -0.200256,-2.169445 0,-2.219503 -0.116818,-2.46982 -1.284979,-2.786894 -0.834397,-0.233627 -1.351728,-0.216947 -1.985868,0.05008 z m 1.768922,3.6213 c -0.317066,0.734269 -1.351728,0.884457 -1.618734,0.216938 -0.166878,-0.450573 0.183567,-0.801027 0.967904,-0.984594 0.851095,-0.216937 0.984594,-0.05008 0.65083,0.767656 z"
     id="path386"
     style="stroke-width:0.016688" />
  <path
     d="m 46.739486,81.230237 c -0.584071,0.250316 -1.068023,0.851086 -1.068023,1.301659 0,0.450582 1.184851,0.417203 1.468546,-0.03342 0.250316,-0.417203 1.318349,-0.467272 1.468546,-0.0834 0.166877,0.433893 -0.233636,0.700899 -1.21823,0.834406 -1.21822,0.150188 -1.885749,0.750958 -1.885749,1.702173 0.01666,1.368417 1.368427,1.985877 2.636707,1.218229 0.467272,-0.283695 0.550701,-0.300385 0.634149,-0.0834 0.06674,0.166877 0.333755,0.250316 0.867776,0.250316 0.60077,0 0.717579,-0.05008 0.567391,-0.200256 -0.133507,-0.133508 -0.200257,-0.867776 -0.200257,-2.169445 0,-2.219503 -0.116808,-2.46982 -1.284978,-2.786894 -0.834397,-0.233627 -1.351728,-0.216947 -1.985878,0.05008 z m 1.76894,3.6213 c -0.317074,0.734269 -1.351737,0.884457 -1.618742,0.216938 -0.166878,-0.450573 0.183567,-0.801027 0.967904,-0.984594 0.851086,-0.216937 0.984594,-0.05008 0.650838,0.767656 z"
     id="path388"
     style="stroke-width:0.016688" />
  <path
     d="m 58.087349,81.230237 c -0.584089,0.250316 -1.068041,0.851086 -1.068041,1.301659 0,0.450582 1.18485,0.417203 1.468546,-0.03342 0.250325,-0.417203 1.318357,-0.467272 1.468545,-0.0834 0.166878,0.433893 -0.233626,0.700899 -1.21822,0.834406 -1.21823,0.150188 -1.885749,0.750958 -1.885749,1.702173 0.01666,1.368417 1.368418,1.985877 2.636707,1.218229 0.467262,-0.283695 0.550701,-0.300385 0.63414,-0.0834 0.06674,0.166877 0.333764,0.250316 0.867785,0.250316 0.600761,0 0.717579,-0.05008 0.567382,-0.200256 -0.133499,-0.133508 -0.200248,-0.867776 -0.200248,-2.169445 0,-2.219503 -0.116818,-2.46982 -1.284979,-2.786894 -0.834405,-0.233627 -1.351728,-0.216947 -1.985868,0.05008 z m 1.768922,3.6213 c -0.317074,0.734269 -1.351728,0.884457 -1.618734,0.216938 -0.166877,-0.450573 0.183567,-0.801027 0.967904,-0.984594 0.851087,-0.216937 0.984594,-0.05008 0.65083,0.767656 z"
     id="path390"
     style="stroke-width:0.016688" />
  <path
     d="m 63.744577,81.180168 c -1.118092,0.317075 -1.602044,1.735552 -0.834396,2.43645 0.200256,0.200257 0.817707,0.483952 1.368417,0.634149 0.550702,0.166878 1.118092,0.400505 1.2516,0.534012 0.216946,0.216946 0.216946,0.267006 -0.06674,0.483952 -0.483943,0.350445 -1.068024,0.283696 -1.535295,-0.183567 -0.517322,-0.534012 -1.568665,-0.60077 -1.568665,-0.100128 0,0.483952 0.61745,1.134791 1.284969,1.368417 0.350454,0.116818 0.984594,0.150197 1.535295,0.100129 0.767657,-0.0834 1.017973,-0.183567 1.401797,-0.617451 0.984594,-1.101411 0.350454,-2.269572 -1.468546,-2.686775 -1.118092,-0.250316 -1.468546,-0.584081 -1.001283,-0.934525 0.383824,-0.267015 1.068032,-0.166887 1.351728,0.216937 0.233636,0.300385 1.401797,0.317074 1.401797,0.01666 0,-0.383824 -0.534012,-0.984594 -1.101412,-1.21822 -0.617451,-0.267015 -1.23491,-0.283696 -2.019247,-0.05008 z"
     id="path392"
     style="stroke-width:0.016688" />
  <path
     d="m 68.951242,81.330356 c -0.383824,0.183576 -0.817716,0.5674 -1.001284,0.867785 -0.400513,0.700899 -0.417202,2.336322 -0.03332,3.08728 0.517331,0.967904 2.219504,1.518614 3.170728,1.034653 0.534011,-0.283695 1.284969,-1.017964 1.284969,-1.268289 0,-0.317065 -1.23491,-0.283695 -1.501925,0.03342 -0.483943,0.58408 -1.835671,0.116818 -1.835671,-0.63414 0,-0.250326 0.233627,-0.283696 1.768922,-0.283696 h 1.78562 l -0.116817,-0.784346 c -0.133499,-1.017964 -0.550702,-1.685483 -1.26829,-2.069307 -0.750958,-0.400513 -1.418477,-0.400513 -2.252883,0.01666 z m 1.785611,1.118101 c 0.5674,0.517332 0.383824,0.717588 -0.700889,0.717588 -0.55071,0 -1.001283,-0.05008 -1.001283,-0.133507 0,-0.06674 0.116817,-0.300385 0.267005,-0.500642 0.300385,-0.433883 1.001284,-0.483952 1.435167,-0.0834 z"
     id="path394"
     style="stroke-width:0.016688" />
  <path
     d="m 29.317202,94.697462 v 3.521163 l 2.069316,-0.06674 c 1.80231,-0.05008 2.136065,-0.100129 2.553268,-0.400514 1.418486,-1.051343 1.80231,-3.771488 0.750958,-5.390231 -0.617451,-0.951215 -1.30166,-1.184841 -3.537853,-1.184841 h -1.835689 z m 3.504491,-2.202824 c 0.567391,0.150188 1.001275,1.068033 1.001275,2.102686 0,0.984594 -0.417194,1.919119 -1.001275,2.202824 -0.233635,0.116817 -0.767656,0.216946 -1.20154,0.216946 H 30.819127 V 94.680772 92.34445 l 0.801026,0.01666 c 0.433884,0.01666 0.967905,0.06674 1.20154,0.133498 z"
     id="path480"
     style="stroke-width:0.016688" />
  <path
     d="m 42.000103,92.34445 c 0,0.550702 -0.05008,0.667519 -0.333764,0.667519 -0.267006,0 -0.333764,0.116818 -0.333764,0.500633 0,0.383824 0.06674,0.500651 0.333764,0.500651 0.317074,0 0.333764,0.116809 0.333764,1.81899 0,2.169445 0.100119,2.353003 1.351728,2.353003 0.801017,0 0.817707,-0.01666 0.817707,-0.500633 0,-0.417203 -0.06674,-0.500642 -0.417203,-0.500642 -0.417194,0 -0.417194,0 -0.417194,-1.585363 0,-1.585355 0,-1.585355 0.417194,-1.585355 0.350454,0 0.417203,-0.0834 0.417203,-0.500651 0,-0.417194 -0.06674,-0.500633 -0.417203,-0.500633 -0.367134,0 -0.417194,-0.06674 -0.417194,-0.667519 v -0.667528 h -0.667519 -0.667519 z"
     id="path484"
     style="stroke-width:0.016688" />
  <path
     d="m 56.018024,92.34445 c 0,0.550702 -0.05008,0.667519 -0.333755,0.667519 -0.267006,0 -0.333764,0.116818 -0.333764,0.500633 0,0.383824 0.06674,0.500651 0.333764,0.500651 0.317075,0 0.333755,0.116809 0.333755,1.81899 0,2.169445 0.100138,2.353003 1.351737,2.353003 0.801018,0 0.817708,-0.01666 0.817708,-0.500633 0,-0.417203 -0.06674,-0.500642 -0.417194,-0.500642 -0.417203,0 -0.417203,0 -0.417203,-1.585363 0,-1.585355 0,-1.585355 0.417203,-1.585355 0.350444,0 0.417194,-0.0834 0.417194,-0.500651 0,-0.417194 -0.06674,-0.500633 -0.417194,-0.500633 -0.367134,0 -0.417203,-0.06674 -0.417203,-0.667519 v -0.667528 h -0.667519 -0.667529 z"
     id="path486"
     style="stroke-width:0.016688" />
  <path
     d="m 37.227322,93.078719 c -0.58408,0.250316 -1.068033,0.851086 -1.068033,1.301668 0,0.450573 1.184851,0.417194 1.468546,-0.03342 0.250317,-0.417202 1.318358,-0.467262 1.468546,-0.0834 0.166878,0.433884 -0.233636,0.700898 -1.218229,0.834397 -1.218221,0.150188 -1.88574,0.750958 -1.88574,1.702182 0.01666,1.368417 1.368417,1.985868 2.636707,1.21822 0.467262,-0.283695 0.550701,-0.300385 0.63414,-0.0834 0.06674,0.166877 0.333764,0.250316 0.867776,0.250316 0.60077,0 0.717587,-0.05008 0.5674,-0.200248 -0.133508,-0.133507 -0.200257,-0.867785 -0.200257,-2.169444 0,-2.219513 -0.116818,-2.469829 -1.284979,-2.786904 -0.834397,-0.233626 -1.351728,-0.216937 -1.985877,0.05008 z m 1.768931,3.6213 c -0.317066,0.734269 -1.351728,0.884466 -1.618734,0.216946 -0.166887,-0.450582 0.183567,-0.801026 0.967904,-0.984593 0.851087,-0.216947 0.984594,-0.05008 0.65083,0.767647 z"
     id="path494"
     style="stroke-width:0.016688" />
  <path
     d="m 45.905099,93.078719 c -0.58409,0.250316 -1.068042,0.851086 -1.068042,1.301668 0,0.450573 1.184851,0.417194 1.468546,-0.03342 0.250326,-0.417202 1.318358,-0.467262 1.468546,-0.0834 0.166878,0.433884 -0.233627,0.700898 -1.21822,0.834397 -1.21823,0.150188 -1.885749,0.750958 -1.885749,1.702182 0.01666,1.368417 1.368417,1.985868 2.636706,1.21822 0.467263,-0.283695 0.550702,-0.300385 0.634141,-0.0834 0.06674,0.166877 0.333764,0.250316 0.867784,0.250316 0.600761,0 0.717579,-0.05008 0.567382,-0.200248 -0.133498,-0.133507 -0.200247,-0.867785 -0.200247,-2.169444 0,-2.219513 -0.116818,-2.469829 -1.284979,-2.786904 -0.834406,-0.233626 -1.351728,-0.216937 -1.985868,0.05008 z m 1.768922,3.6213 c -0.317075,0.734269 -1.351728,0.884466 -1.618734,0.216946 -0.166878,-0.450582 0.183567,-0.801026 0.967904,-0.984593 0.851086,-0.216947 0.984594,-0.05008 0.65083,0.767647 z"
     id="path496"
     style="stroke-width:0.016688" />
  <path
     d="m 51.562327,93.028659 c -1.118092,0.317066 -1.602044,1.735552 -0.834397,2.436441 0.200257,0.200266 0.817717,0.483961 1.368418,0.634149 0.550701,0.166878 1.118092,0.400514 1.2516,0.534021 0.216946,0.216937 0.216946,0.267006 -0.06674,0.483943 -0.483943,0.350454 -1.068023,0.283705 -1.535295,-0.183567 -0.517322,-0.534012 -1.568665,-0.600761 -1.568665,-0.100128 0,0.483961 0.617451,1.13479 1.28497,1.368417 0.350454,0.116818 0.984594,0.150197 1.535295,0.100138 0.767657,-0.0834 1.017973,-0.183577 1.401797,-0.61746 0.984593,-1.101412 0.350453,-2.269573 -1.468546,-2.686775 -1.118092,-0.250317 -1.468546,-0.584081 -1.001284,-0.934526 0.383824,-0.267005 1.068033,-0.166886 1.351728,0.216947 0.233636,0.300376 1.401797,0.317065 1.401797,0.01666 0,-0.383833 -0.534012,-0.984594 -1.101412,-1.21823 -0.61745,-0.267005 -1.23491,-0.283695 -2.019247,-0.05008 z"
     id="path498"
     style="stroke-width:0.016688" />
  <path
     d="m 60.190035,93.128787 c -0.717588,0.367135 -1.335047,1.518606 -1.335047,2.469821 0,0.367134 0.166886,1.017972 0.383824,1.418486 0.483961,0.984594 1.218229,1.368417 2.419769,1.284979 1.518606,-0.116827 2.419761,-1.118102 2.419761,-2.703465 0,-1.585355 -0.901155,-2.586639 -2.419761,-2.703456 -0.634149,-0.05008 -1.051352,0.01666 -1.468546,0.233635 z m 2.152755,1.318349 c 0.801017,1.017964 0.233627,2.736835 -0.901155,2.736835 -0.61746,0 -0.867776,-0.233635 -1.084722,-1.017973 -0.200257,-0.667519 0.05008,-1.735551 0.467262,-1.969187 0.534021,-0.317066 1.151472,-0.200248 1.518615,0.250325 z"
     id="path500"
     style="stroke-width:0.016688" />
  <path
     d="m 67.082183,93.095408 c -0.300385,0.133499 -0.550702,0.317075 -0.550702,0.417194 0,0.08349 -0.06674,0.166887 -0.166886,0.166887 -0.0834,0 -0.166878,-0.150197 -0.166878,-0.333764 0,-0.267006 -0.116818,-0.333756 -0.58408,-0.333756 h -0.584081 v 2.586639 2.586638 h 0.667519 0.66752 V 96.63327 c 0,-1.78562 0.183567,-2.186134 1.084722,-2.353011 0.55071,-0.116818 0.58408,-0.150197 0.58408,-0.767657 0,-0.734268 -0.116809,-0.784328 -0.951214,-0.417194 z"
     id="path502"
     style="stroke-width:0.016688" />
  <path
     d="m 69.785639,93.178847 c -0.383824,0.183567 -0.817708,0.567391 -1.001284,0.867776 -0.400504,0.700898 -0.417194,2.336322 -0.03342,3.08728 0.517331,0.967904 2.219503,1.518614 3.170718,1.034662 0.534021,-0.283695 1.284979,-1.017973 1.284979,-1.268289 0,-0.317075 -1.23491,-0.283696 -1.501916,0.03342 -0.483952,0.584072 -1.83568,0.116809 -1.83568,-0.634149 0,-0.250316 0.233636,-0.283695 1.768931,-0.283695 h 1.785616 l -0.116818,-0.784337 c -0.133498,-1.017973 -0.550701,-1.685492 -1.26828,-2.069316 -0.750967,-0.400513 -1.418486,-0.400513 -2.252883,0.01666 z m 1.78562,1.118092 c 0.567391,0.517331 0.383824,0.717588 -0.700898,0.717588 -0.550702,0 -1.001275,-0.05008 -1.001275,-0.133507 0,-0.06674 0.116809,-0.300385 0.267006,-0.500633 0.300376,-0.433892 1.001275,-0.483961 1.435167,-0.0834 z"
     id="path504"
     style="stroke-width:0.016688" />
</svg>
