<?xml version="1.0" encoding="UTF-8" standalone="no"?>
<!-- Created with Inkscape (http://www.inkscape.org/) -->

<svg
   width="100mm"
   height="100mm"
   viewBox="0 0 100 100"
   version="1.1"
   id="svg26768"
   xmlns="http://www.w3.org/2000/svg"
   xmlns:svg="http://www.w3.org/2000/svg">
  <defs
     id="defs26765" />
  <path
     d="m 26.725241,2.424078 c -2.056933,0.7046924 -3.332994,1.923611 -4.323368,4.0757795 l -0.438051,0.9522801 v 24.5689194 24.56891 l 0.533279,1.142736 c 0.704689,1.504618 2.171207,2.971134 3.637723,3.656776 l 1.161786,0.533277 h 23.140491 23.140495 l 1.237969,-0.590419 c 0.685642,-0.32377 1.618882,-0.97132 2.075976,-1.428425 0.457094,-0.457095 1.104645,-1.390334 1.428425,-2.075976 l 0.590409,-1.237969 0.0571,-24.226089 C 79.005577,8.137779 79.005577,8.1187385 78.605615,6.9379012 78.091378,5.3952023 77.158139,4.157233 75.920169,3.3001757 73.920376,1.9479328 75.329751,2.0241152 50.360878,2.0241152 28.153624,2.043217 27.848896,2.043217 26.7252,2.424078 Z m 46.852355,2.8187594 c 0.971321,0.438054 2.114067,1.6950638 2.361665,2.6283035 0.285679,1.0284622 0.285679,47.2904001 0,48.3379141 -0.266649,0.990381 -1.714115,2.399756 -2.761628,2.723526 -1.142736,0.32378 -44.338324,0.342831 -45.481066,0 -1.028466,-0.304719 -2.437844,-1.714104 -2.742574,-2.742577 -0.304732,-1.047503 -0.323777,-47.2142185 -0.01905,-48.3188631 0.247593,-0.9332397 1.390334,-2.1902495 2.361664,-2.6283035 0.723738,-0.3428208 1.904567,-0.3618715 23.140495,-0.3618715 21.235924,0 22.416752,0.019102 23.140494,0.3618715 z"
     id="path6750"
     style="stroke-width:0.0190457" />
  <path
     d="m 28.420305,17.908209 c -0.933238,0.399963 -1.104648,1.25702 -0.438051,2.095027 0.380916,0.476135 0.457097,0.495185 2.45689,0.495185 1.885521,0 2.114073,-0.0381 2.475941,-0.419003 0.704687,-0.761824 0.419005,-1.866479 -0.59042,-2.228341 -0.838008,-0.285689 -3.180622,-0.247598 -3.90436,0.0571 z"
     id="path6752"
     style="stroke-width:0.0190457" />
  <path
     d="m 36.990857,17.908209 c -0.933238,0.399963 -1.104648,1.25702 -0.438051,2.095027 l 0.380916,0.495185 h 10.646529 10.646538 l 0.399952,-0.419003 c 0.704693,-0.761824 0.419004,-1.866479 -0.590418,-2.228341 -0.952281,-0.32378 -20.264594,-0.266648 -21.045466,0.0571 z"
     id="path6754"
     style="stroke-width:0.0190457" />
  <path
     d="m 62.702511,17.908209 c -0.93324,0.399963 -1.104645,1.25702 -0.438054,2.095027 l 0.380922,0.495185 h 4.913786 c 4.875684,0 4.913776,0 5.313738,-0.438054 0.742784,-0.780864 0.476146,-1.847428 -0.552327,-2.20929 -0.914189,-0.32378 -8.856241,-0.266648 -9.618065,0.0571 z"
     id="path6756"
     style="stroke-width:0.0190457" />
  <path
     d="m 28.420305,26.478761 c -0.933238,0.399963 -1.104648,1.25702 -0.438051,2.095027 l 0.380916,0.495185 h 19.19804 19.198029 l 0.399963,-0.438054 c 0.742784,-0.780864 0.476145,-1.847428 -0.552327,-2.20929 -0.971331,-0.342831 -37.405698,-0.285689 -38.18657,0.0571 z"
     id="path6758"
     style="stroke-width:0.0190457" />
  <path
     d="m 71.254022,26.497812 c -0.914199,0.380912 -1.085604,1.237969 -0.419003,2.075976 0.514236,0.64755 1.466516,0.685641 2.037884,0.0571 1.085605,-1.142736 -0.133324,-2.761618 -1.618881,-2.133108 z"
     id="path6760"
     style="stroke-width:0.0190457" />
  <path
     d="m 28.420305,35.049313 c -0.933238,0.399963 -1.104648,1.25702 -0.438051,2.095027 l 0.380916,0.495185 h 3.504402 c 3.371081,0 3.52345,-0.019 3.904361,-0.419003 0.70469,-0.761834 0.419004,-1.866479 -0.590416,-2.228351 -0.895143,-0.304729 -6.018433,-0.266628 -6.761212,0.0571 z"
     id="path6762"
     style="stroke-width:0.0190457" />
  <path
     d="m 39.847709,35.049313 c -0.933237,0.399963 -1.104648,1.25702 -0.438051,2.095027 l 0.38091,0.495185 h 3.504409 c 3.371085,0 3.52345,-0.019 3.904362,-0.419003 0.704692,-0.761834 0.419003,-1.866479 -0.590419,-2.228351 -0.895148,-0.304729 -6.018431,-0.266628 -6.761211,0.0571 z"
     id="path6764"
     style="stroke-width:0.0190457" />
  <path
     d="m 51.275118,35.049313 c -0.93325,0.399963 -1.104655,1.25702 -0.438054,2.095027 l 0.380912,0.495185 h 10.627477 10.627488 l 0.399962,-0.438043 c 0.742784,-0.780875 0.476146,-1.847439 -0.552327,-2.209311 -0.95228,-0.32377 -20.264593,-0.266628 -21.045458,0.0571 z"
     id="path6766"
     style="stroke-width:0.0190457" />
  <path
     d="m 28.420305,43.619865 c -0.933238,0.399963 -1.104648,1.25701 -0.438051,2.095027 l 0.380916,0.495185 h 6.342208 6.342208 l 0.399958,-0.438043 c 0.742779,-0.780875 0.476144,-1.847439 -0.552321,-2.209301 -0.933243,-0.32378 -11.713092,-0.266638 -12.474918,0.0571 z"
     id="path6768"
     style="stroke-width:0.0190457" />
  <path
     d="m 45.561409,43.619865 c -0.933238,0.399963 -1.104648,1.25701 -0.438051,2.095027 l 0.380916,0.495185 h 13.484339 13.484328 l 0.399962,-0.438043 c 0.742784,-0.780875 0.476146,-1.847439 -0.552327,-2.209301 -0.971321,-0.34282 -25.978295,-0.285689 -26.759167,0.0571 z"
     id="path6770"
     style="stroke-width:0.0190457" />
  <path
     d="M 5.5654979,20.76506 C 4.6322603,21.165023 4.4608488,22.02208 5.127447,22.860086 l 0.3809131,0.495186 h 3.5044042 c 3.3710847,0 3.5234507,-0.0191 3.9043637,-0.419003 0.70469,-0.761824 0.419004,-1.86648 -0.590416,-2.228341 -0.895147,-0.30474 -6.0184335,-0.266649 -6.7612141,0.0571 z"
     id="path6776"
     style="stroke-width:0.0190457" />
  <path
     d="m 16.973855,20.78411 c -0.914192,0.380913 -1.085603,1.23797 -0.419004,2.075976 0.514233,0.647551 1.504608,0.685642 2.075978,0.0762 1.047512,-1.142746 -0.190456,-2.761628 -1.656974,-2.152158 z"
     id="path6778"
     style="stroke-width:0.0190457" />
  <path
     d="m 82.700465,20.76506 c -0.933229,0.399963 -1.104645,1.25702 -0.438044,2.095026 0.380913,0.476135 0.457095,0.495186 2.437848,0.495186 1.88552,0 2.075976,-0.0381 2.456888,-0.438054 0.742783,-0.780865 0.476145,-1.847429 -0.552328,-2.20929 -0.838006,-0.285689 -3.180621,-0.247598 -3.904364,0.0571 z"
     id="path6780"
     style="stroke-width:0.0190457" />
  <path
     d="m 91.251977,20.78411 c -0.914189,0.380913 -1.085605,1.23797 -0.419004,2.075976 0.514227,0.647551 1.466517,0.685642 2.037885,0.0571 1.085605,-1.142736 -0.133324,-2.761617 -1.618881,-2.133107 z"
     id="path6782"
     style="stroke-width:0.0190457" />
  <path
     d="m 5.5464523,29.354662 c -0.914192,0.380913 -1.0856035,1.23797 -0.4190053,2.075976 0.5142333,0.647551 1.5046077,0.685642 2.0759789,0.0762 C 8.2509381,30.364092 7.0129688,28.74521 5.5464523,29.35468 Z"
     id="path6784"
     style="stroke-width:0.0190457" />
  <path
     d="m 11.2792,29.335612 c -0.933238,0.399963 -1.104649,1.25702 -0.43805,2.095026 l 0.380913,0.495186 h 3.504403 c 3.371084,0 3.52345,-0.0191 3.904363,-0.419003 0.70469,-0.761824 0.419005,-1.86648 -0.590416,-2.228341 -0.895146,-0.30474 -6.018432,-0.266638 -6.761213,0.0571 z"
     id="path6786"
     style="stroke-width:0.0190457" />
  <path
     d="m 82.700465,29.335612 c -0.933229,0.399963 -1.104645,1.25702 -0.438044,2.095026 l 0.380913,0.495186 h 3.48536 c 3.390128,0 3.485361,-0.0191 3.885313,-0.438054 0.742784,-0.780865 0.476135,-1.847429 -0.552327,-2.20929 -0.895138,-0.30474 -6.018431,-0.266638 -6.761215,0.0571 z"
     id="path6788"
     style="stroke-width:0.0190457" />
  <path
     d="m 94.108827,29.354662 c -0.914189,0.380913 -1.085604,1.23797 -0.419003,2.075976 0.514226,0.647551 1.466517,0.685642 2.037885,0.0571 1.085604,-1.142736 -0.133314,-2.761617 -1.618882,-2.133107 z"
     id="path6790"
     style="stroke-width:0.0190457" />
  <path
     d="m 5.5654979,37.906164 c -0.9332376,0.399963 -1.1046491,1.25702 -0.4380509,2.095026 0.3809131,0.476145 0.4570965,0.495186 2.456892,0.495186 1.8855218,0 2.1140701,-0.0381 2.475938,-0.419003 0.70469,-0.761824 0.419004,-1.86648 -0.5904162,-2.228341 -0.8380096,-0.285689 -3.1806279,-0.247598 -3.9043629,0.0571 z"
     id="path6792"
     style="stroke-width:0.0190457" />
  <path
     d="m 14.13605,37.906164 c -0.933237,0.399963 -1.104649,1.25702 -0.43805,2.095026 0.380913,0.476145 0.457097,0.495186 2.456891,0.495186 1.885522,0 2.11407,-0.0381 2.475938,-0.419003 0.70469,-0.761824 0.419005,-1.86648 -0.590416,-2.228341 -0.838009,-0.285689 -3.180627,-0.247598 -3.904363,0.0571 z"
     id="path6794"
     style="stroke-width:0.0190457" />
  <path
     d="m 82.909972,37.829981 c -0.914199,0.361872 -1.199878,1.580791 -0.552328,2.304534 0.438054,0.476135 1.485568,0.476135 1.980753,-0.0191 1.009422,-1.009422 -0.114273,-2.81876 -1.428425,-2.285483 z"
     id="path6796"
     style="stroke-width:0.0190457" />
  <path
     d="m 88.623673,37.810941 c -0.914189,0.380912 -1.199878,1.599831 -0.552317,2.323574 0.304719,0.32377 0.6285,0.361861 3.828171,0.361861 3.237763,0 3.504401,-0.0191 3.866273,-0.380912 0.514236,-0.514236 0.495186,-1.542699 -0.0191,-2.018844 -0.361861,-0.32377 -0.761824,-0.361862 -3.580583,-0.399953 -1.733155,-0.0191 -3.332986,0.019 -3.542493,0.114274 z"
     id="path6798"
     style="stroke-width:0.0190457" />
  <path
     d="m 19.583113,95.176501 v 4.018638 l 2.361663,-0.0762 c 2.056932,-0.0571 2.437845,-0.114273 2.913988,-0.457094 1.618882,-1.199878 2.056935,-4.304327 0.857055,-6.151756 -0.70469,-1.085604 -1.485562,-1.352243 -4.037682,-1.352243 h -2.095024 z m 3.999591,-2.514029 c 0.647553,0.171415 1.14274,1.218928 1.14274,2.399756 0,1.123695 -0.476142,2.190249 -1.14274,2.51403 -0.266639,0.133314 -0.876101,0.247587 -1.371288,0.247587 h -0.914192 v -2.666394 -2.666395 l 0.914192,0.0191 c 0.495187,0.0191 1.104649,0.0762 1.371288,0.152365 z"
     id="path7076"
     style="stroke-width:0.0190457" />
  <path
     d="m 47.008883,95.157451 v 3.999597 h 0.761824 0.761834 v -1.428426 -1.428425 h 1.295101 c 1.58079,0 2.475939,-0.399963 2.933033,-1.333202 0.666591,-1.314142 0.209507,-2.875891 -0.990371,-3.46631 -0.514237,-0.266639 -1.142747,-0.342821 -2.704496,-0.342821 h -2.056925 z m 4.075769,-2.304523 c 0.380912,0.32378 0.399963,1.161787 0.0381,1.637932 -0.209506,0.285689 -0.514236,0.361871 -1.371293,0.380912 h -1.123696 l -0.0571,-0.93324 c -0.0952,-1.409375 0,-1.504608 1.199878,-1.409375 0.552328,0.0571 1.161787,0.190457 1.314152,0.323771 z"
     id="path7078"
     style="stroke-width:0.0190457" />
  <path
     d="m 66.625925,95.157451 v 3.999597 h 0.761824 0.761824 v -1.028463 c 0,-0.62851 0.0952,-1.104655 0.266649,-1.237969 0.30472,-0.247598 0.399953,-0.152365 1.180828,1.25701 0.552327,1.009422 0.552327,1.009422 1.466516,1.009422 0.514236,0 0.876098,-0.0571 0.838007,-0.152365 -0.0381,-0.0762 -0.533277,-0.895149 -1.085605,-1.809348 L 69.825597,95.500282 70.796928,94.5099 c 0.533277,-0.533277 0.97133,-1.047513 0.97133,-1.123695 0,-0.0762 -0.399962,-0.133315 -0.895148,-0.133315 -0.876108,0.0191 -0.95229,0.0762 -1.771246,1.066554 l -0.857057,1.047513 -0.0571,-2.095026 -0.0571,-2.114067 H 67.387824 66.626 Z"
     id="path7080"
     style="stroke-width:0.0190457" />
  <path
     d="m 34.057823,92.491056 c 0,0.62851 -0.05713,0.761834 -0.380911,0.761834 -0.304734,0 -0.380916,0.133315 -0.380916,0.571368 0,0.438054 0.07618,0.571369 0.380916,0.571369 0.361863,0 0.380911,0.133324 0.380911,2.075986 0,2.475928 0.114275,2.685435 1.542699,2.685435 0.914196,0 0.933237,-0.0191 0.933237,-0.571368 0,-0.476146 -0.07618,-0.571368 -0.47614,-0.571368 -0.476139,0 -0.476139,0 -0.476139,-1.809348 0,-1.809337 0,-1.809337 0.476139,-1.809337 0.399958,0 0.47614,-0.0952 0.47614,-0.571369 0,-0.476145 -0.07618,-0.571368 -0.47614,-0.571368 -0.419003,0 -0.476139,-0.0762 -0.476139,-0.761834 v -0.761824 h -0.761831 -0.761826 z"
     id="path7118"
     style="stroke-width:0.0190457" />
  <path
     d="m 79.196064,92.491056 c 0,0.62851 -0.0571,0.761834 -0.380912,0.761834 -0.30473,0 -0.380912,0.133315 -0.380912,0.571368 0,0.438054 0.0762,0.571369 0.380912,0.571369 0.361872,0 0.380912,0.133324 0.380912,2.075986 0,2.475928 0.114274,2.685435 1.542699,2.685435 0.914189,0 0.93324,-0.0191 0.93324,-0.571368 0,-0.476146 -0.0762,-0.571368 -0.476135,-0.571368 -0.476145,0 -0.476145,0 -0.476145,-1.809348 0,-1.809337 0,-1.809337 0.476145,-1.809337 0.399952,0 0.476135,-0.0952 0.476135,-0.571369 0,-0.476145 -0.0762,-0.571368 -0.476135,-0.571368 -0.419014,0 -0.476145,-0.0762 -0.476145,-0.761834 v -0.761824 h -0.761835 -0.761824 z"
     id="path7120"
     style="stroke-width:0.0190457" />
  <path
     d="m 28.610763,93.329073 c -0.666597,0.285679 -1.218924,0.971331 -1.218924,1.485557 0,0.514236 1.352241,0.476145 1.676016,-0.0381 0.285687,-0.476145 1.504611,-0.533276 1.676022,-0.0952 0.190458,0.495186 -0.26664,0.799915 -1.390335,0.95228 -1.390335,0.171416 -2.152161,0.857057 -2.152161,1.942652 0.01906,1.561749 1.561746,2.266442 3.009216,1.390344 0.53328,-0.32378 0.628509,-0.342831 0.723738,-0.0952 0.07618,0.190457 0.380911,0.28569 0.990373,0.28569 0.685644,0 0.818967,-0.0571 0.647555,-0.228558 -0.152369,-0.152365 -0.228551,-0.990371 -0.228551,-2.475928 0,-2.533081 -0.133317,-2.81876 -1.466517,-3.180631 -0.952285,-0.266639 -1.542699,-0.247598 -2.266432,0.0571 z m 2.018839,4.132911 c -0.36187,0.838007 -1.5427,1.009422 -1.847428,0.247588 -0.190458,-0.514237 0.209499,-0.914189 1.104648,-1.123686 0.971331,-0.247598 1.123695,-0.0571 0.74278,0.876098 z"
     id="path7128"
     style="stroke-width:0.0190457" />
  <path
     d="m 38.514509,93.329073 c -0.666597,0.285679 -1.218919,0.971331 -1.218919,1.485557 0,0.514236 1.352242,0.476145 1.676018,-0.0381 0.285686,-0.476145 1.504604,-0.533276 1.676016,-0.0952 0.190458,0.495186 -0.266635,0.799915 -1.39033,0.95228 -1.390336,0.171416 -2.152162,0.857057 -2.152162,1.942652 0.01906,1.561749 1.561747,2.266442 3.009217,1.390344 0.533275,-0.32378 0.628504,-0.342831 0.723733,-0.0952 0.07618,0.190457 0.380916,0.28569 0.990377,0.28569 0.685645,0 0.818962,-0.0571 0.647551,-0.228558 -0.152364,-0.152365 -0.228546,-0.990371 -0.228546,-2.475928 0,-2.533081 -0.133323,-2.81876 -1.466518,-3.180631 -0.952283,-0.266639 -1.542699,-0.247598 -2.266437,0.0571 z m 2.018844,4.132911 c -0.361868,0.838007 -1.542699,1.009422 -1.847433,0.247588 -0.190453,-0.514237 0.209505,-0.914189 1.104648,-1.123686 0.971331,-0.247598 1.123696,-0.0571 0.742785,0.876098 z"
     id="path7130"
     style="stroke-width:0.0190457" />
  <path
     d="m 55.274705,93.329073 c -0.666601,0.285679 -1.218929,0.971331 -1.218929,1.485557 0,0.514236 1.352243,0.476145 1.676023,-0.0381 0.285679,-0.476145 1.504608,-0.533276 1.676014,-0.0952 0.190466,0.495186 -0.266639,0.799915 -1.390335,0.95228 -1.390324,0.171416 -2.152158,0.857057 -2.152158,1.942652 0.0191,1.561749 1.56175,2.266442 3.009216,1.390344 0.533277,-0.32378 0.62851,-0.342831 0.723743,-0.0952 0.0762,0.190457 0.380902,0.28569 0.990371,0.28569 0.685642,0 0.818966,-0.0571 0.647551,-0.228558 -0.152365,-0.152365 -0.228548,-0.990371 -0.228548,-2.475928 0,-2.533081 -0.133314,-2.81876 -1.466516,-3.180631 -0.95228,-0.266639 -1.542699,-0.247598 -2.266432,0.0571 z m 2.018834,4.132911 c -0.361861,0.838007 -1.542699,1.009422 -1.847429,0.247588 -0.190456,-0.514237 0.209507,-0.914189 1.104656,-1.123686 0.97133,-0.247598 1.123695,-0.0571 0.742773,0.876098 z"
     id="path7132"
     style="stroke-width:0.0190457" />
  <path
     d="m 61.807372,93.25289 c -0.761834,0.228548 -1.085614,0.552328 -1.485567,1.428426 -0.457094,0.97132 -0.457094,2.266432 0,3.256813 0.457095,1.028463 1.409385,1.485557 2.742577,1.352233 0.799915,-0.0762 1.066564,-0.190456 1.599841,-0.780865 0.342821,-0.361871 0.6285,-0.857057 0.6285,-1.066554 0,-0.32378 -0.133314,-0.380922 -0.723733,-0.380922 -0.609459,0 -0.780875,0.0952 -0.95228,0.476145 -0.152375,0.342821 -0.361872,0.476146 -0.761824,0.476146 -0.838017,0 -1.180838,-0.514237 -1.180838,-1.771247 0,-1.180837 0.419003,-1.847438 1.123696,-1.847438 0.380912,0 0.971331,0.476145 0.971331,0.780874 0,0.0952 0.380912,0.171416 0.838006,0.171416 h 0.857057 l -0.171415,-0.590419 c -0.247588,-0.857057 -0.666591,-1.237969 -1.618882,-1.485567 -0.95228,-0.247588 -1.123695,-0.247588 -1.866469,-0.0191 z"
     id="path7134"
     style="stroke-width:0.0190457" />
  <path
     d="m 73.768052,93.443346 c -0.438054,0.209507 -0.93324,0.647551 -1.142736,0.990372 -0.457105,0.799915 -0.476145,2.666394 -0.0381,3.523452 0.590419,1.104655 2.533081,1.733155 3.618685,1.180837 0.60946,-0.32378 1.466517,-1.161797 1.466517,-1.447476 0,-0.361871 -1.409385,-0.32378 -1.714115,0.0381 -0.552327,0.666601 -2.095026,0.133324 -2.095026,-0.723733 0,-0.285689 0.266638,-0.323781 2.018844,-0.323781 h 2.037885 l -0.133315,-0.895138 c -0.152375,-1.161797 -0.62851,-1.923621 -1.447476,-2.361665 -0.857057,-0.457094 -1.618881,-0.457094 -2.571171,0.019 z m 2.037885,1.276061 c 0.64755,0.590409 0.438054,0.818966 -0.799916,0.818966 -0.62851,0 -1.142746,-0.0571 -1.142746,-0.152365 0,-0.0762 0.133324,-0.342821 0.30474,-0.571378 0.342821,-0.495186 1.142736,-0.552318 1.637922,-0.0952 z"
     id="path7136"
     style="stroke-width:0.0190457" />
</svg>
