<?xml version="1.0" encoding="UTF-8" standalone="no"?>
<!-- Created with Inkscape (http://www.inkscape.org/) -->

<svg
   width="100mm"
   height="100mm"
   viewBox="0 0 100 100"
   version="1.1"
   id="svg26768"
   sodipodi:docname="database datastores.svg"
   inkscape:version="1.2.1 (9c6d41e410, 2022-07-14)"
   xmlns:inkscape="http://www.inkscape.org/namespaces/inkscape"
   xmlns:sodipodi="http://sodipodi.sourceforge.net/DTD/sodipodi-0.dtd"
   xmlns="http://www.w3.org/2000/svg"
   xmlns:svg="http://www.w3.org/2000/svg">
  <sodipodi:namedview
     id="namedview12294"
     pagecolor="#ffffff"
     bordercolor="#666666"
     borderopacity="1.0"
     inkscape:showpageshadow="2"
     inkscape:pageopacity="0.0"
     inkscape:pagecheckerboard="0"
     inkscape:deskcolor="#d1d1d1"
     inkscape:document-units="mm"
     showgrid="false"
     inkscape:zoom="0.77548253"
     inkscape:cx="588.02098"
     inkscape:cy="194.71747"
     inkscape:window-width="1920"
     inkscape:window-height="1009"
     inkscape:window-x="1912"
     inkscape:window-y="-8"
     inkscape:window-maximized="1"
     inkscape:current-layer="svg26768" />
  <defs
     id="defs26765" />
  <path
     d="M 47.447975,1.1699533 C 39.244326,1.7973875 33.205311,3.1149868 30.585791,4.8561089 29.330932,5.7031446 29.127016,6.0639171 29.017216,7.6481781 l -0.07843,1.3175993 -1.25486,0.423513 c -2.133262,0.7215446 -3.639094,1.5999506 -4.156724,2.4312966 -0.313715,0.501944 -0.313715,0.784286 -0.313715,25.442288 v 24.940343 l 0.360773,0.533314 c 1.082316,1.615631 5.082183,3.058721 10.932969,3.968497 4.533182,0.690175 6.274298,0.799976 13.176032,0.799976 6.901734,0 8.642846,-0.109801 13.176028,-0.799976 4.501821,-0.690174 8.125226,-1.772492 9.834968,-2.94892 1.160748,-0.768596 1.36467,-1.176428 1.45878,-2.697949 l 0.07845,-1.333289 1.176438,-0.392143 c 2.494028,-0.831346 4.078299,-1.835233 4.486122,-2.823439 0.188231,-0.439194 0.219601,-4.611603 0.219601,-25.191316 0,-28.1872962 0.172551,-25.2540559 -1.521511,-26.4148039 C 74.411812,3.4130188 69.67471,2.2052203 63.055323,1.452305 61.408322,1.2640738 59.039775,1.1856433 54.506594,1.1542731 c -3.450864,-0.01571 -6.619389,-0.01571 -7.058591,0.01571 z m 11.842743,1.9450335 c 7.011529,0.439203 13.395633,1.7097518 15.84261,3.1685221 l 0.862716,0.5176335 V 31.412084 56.023035 l -0.799975,0.439203 c -0.439194,0.250972 -1.286229,0.627425 -1.882284,0.831336 l -1.082327,0.376463 -0.07845,-22.760029 C 72.074558,13.64013 72.058946,12.102929 71.807916,11.726467 69.611911,8.5108941 55.510422,6.2678286 42.271646,7.0364339 38.35021,7.2717156 32.750396,7.9618904 31.322992,8.3854034 c -0.250972,0.07845 -0.282343,0 -0.235286,-0.7529153 0.04706,-0.8313457 0.04706,-0.8313457 0.909774,-1.3489792 2.368548,-1.41171 8.846766,-2.7449993 15.372037,-3.1528321 3.07441,-0.1882313 8.925191,-0.1882313 11.921172,-0.015709 z m -8.187967,5.8037303 c 8.784021,0.3450923 15.7485,1.6313209 18.462138,3.4351839 l 0.627425,0.423513 0.04703,4.972385 0.03132,4.956694 -0.345092,0.235292 c -1.301919,0.847026 -4.846894,1.913663 -8.438929,2.509717 -4.423381,0.752916 -7.26251,0.941147 -13.803463,0.941147 -6.540961,0 -9.380083,-0.188231 -13.803464,-0.941147 -3.592037,-0.596054 -7.137016,-1.662691 -8.438935,-2.509717 l -0.345086,-0.235292 0.03137,-4.956694 0.04706,-4.972385 0.62743,-0.423513 c 2.619521,-1.725432 9.866338,-3.1214618 17.881754,-3.4194938 1.725435,-0.062741 3.215582,-0.1411711 3.294011,-0.1411711 0.09411,-0.015709 1.945035,0.047031 4.12535,0.125481 z m -24.563884,16.6582759 1.223489,0.501944 v 2.243056 c 0,2.541097 0.172543,2.368556 -1.599947,1.56858 L 25.095778,29.42 v -2.164635 c 0,-1.207808 0.04706,-2.180325 0.109801,-2.180325 0.06274,0 0.6588,0.219601 1.333288,0.501953 z m 43.731877,1.678372 V 29.42 l -1.050947,0.470573 c -1.788172,0.799976 -1.615631,0.972517 -1.615631,-1.56858 v -2.243056 l 1.145068,-0.486264 c 0.611734,-0.266652 1.223478,-0.486253 1.333279,-0.501943 0.141171,-0.01571 0.188231,0.517633 0.188231,2.164635 z m -36.861517,0.07845 2.117578,0.360773 0.04706,2.290116 0.04706,2.290125 -0.596056,-0.09416 c -1.066632,-0.141171 -5.129242,-0.972517 -5.850787,-1.192118 l -0.705859,-0.203912 -0.04706,-2.274436 -0.04706,-2.274436 1.458775,0.360773 c 0.799974,0.203921 2.415606,0.533314 3.576352,0.737235 z m 33.504764,3.325373 c -0.09406,0.266662 -2.948921,0.925467 -6.729187,1.552891 l -0.439203,0.07845 0.04703,-2.305806 0.04703,-2.290116 2.117575,-0.360772 c 1.160748,-0.203922 2.760689,-0.517634 3.529294,-0.721545 l 1.41172,-0.360773 0.04703,2.117575 c 0.01571,1.160748 0.01571,2.180315 -0.03132,2.290116 z M 39.056098,28.03967 c 1.160743,0.109801 2.635208,0.219602 3.262638,0.266662 l 1.129374,0.09416 v 2.274436 2.274436 l -1.756804,-0.109801 c -0.97252,-0.06274 -2.588151,-0.188231 -3.576354,-0.298032 l -1.80386,-0.172541 -0.04706,-2.337176 -0.04706,-2.321496 0.360772,0.07845 c 0.203914,0.04703 1.317602,0.156861 2.478349,0.250971 z m 20.046389,2.007774 -0.04703,2.321496 -1.803863,0.172541 c -0.988207,0.109801 -2.603838,0.235292 -3.560665,0.298032 l -1.772492,0.109801 v -2.274436 -2.274435 l 1.145058,-0.09416 c 0.956827,-0.07845 5.270417,-0.470573 5.882151,-0.549004 0.156861,-0.01571 0.188241,0.486254 0.156861,2.290116 z m -7.811505,0.580374 v 2.243066 l -0.956826,0.1098 c -0.533314,0.04703 -1.725432,0.09416 -2.650894,0.09416 -0.925459,0 -2.117576,-0.04703 -2.650894,-0.09416 l -0.956829,-0.1098 v -2.243066 -2.258746 h 3.607723 3.60772 z m -24.579572,0.188231 1.050946,0.439203 v 2.635209 c 0,1.44308 -0.01569,2.635198 -0.04706,2.635198 -0.03137,0 -0.501943,-0.172541 -1.035259,-0.392143 -1.709747,-0.705855 -1.584261,-0.423513 -1.584261,-3.356743 0,-2.368556 0.01569,-2.556778 0.282343,-2.478357 0.141172,0.04703 0.737231,0.282352 1.333289,0.517633 z m 43.559334,2.007774 v 2.556778 l -1.254858,0.580374 c -0.674495,0.313712 -1.286229,0.564684 -1.33329,0.564684 -0.04703,0 -0.07845,-1.192118 -0.07845,-2.650888 v -2.650889 l 0.752916,-0.266662 c 0.407832,-0.125481 0.909776,-0.345082 1.129377,-0.470573 0.768596,-0.439203 0.784286,-0.423513 0.784286,2.337176 z M 29.770133,31.804256 c 1.050945,0.266652 3.403807,0.737225 5.254727,1.035257 l 0.580373,0.09416 v 2.666578 2.666579 L 35.103289,38.18838 C 33.079826,37.858978 31.526937,37.560955 30.083847,37.200183 L 28.389786,36.79235 v -2.650888 c 0,-1.44309 0.04706,-2.635209 0.09411,-2.635209 0.04706,0 0.62743,0.141171 1.286232,0.298032 z m 37.175228,2.321486 -0.04703,2.635209 -1.333289,0.360772 c -0.988207,0.250972 -5.411588,1.129378 -5.75667,1.129378 -0.03132,0 -0.04703,-1.192118 -0.04703,-2.666579 v -2.650898 l 0.596054,-0.09416 c 1.537211,-0.250972 4.737103,-0.894087 5.442958,-1.082318 0.439203,-0.125491 0.878406,-0.235291 0.988207,-0.235291 0.156851,-0.01571 0.188231,0.564693 0.156851,2.603838 z m -26.116773,-0.721545 2.619522,0.203912 v 2.650898 2.666579 l -1.678379,-0.09416 c -0.941143,-0.06274 -2.556774,-0.188241 -3.607723,-0.298032 l -1.929344,-0.172551 v -2.666578 -2.666569 l 0.988201,0.09416 c 0.533314,0.06274 2.148946,0.188232 3.607723,0.282341 z m 18.305279,2.258756 c 0,1.945024 -0.04703,2.619508 -0.188241,2.666569 -0.266652,0.09416 -5.521379,0.549003 -6.352725,0.549003 h -0.674484 v -2.635208 -2.650888 l 2.8548,-0.188232 c 1.58427,-0.1098 2.90187,-0.219601 2.93324,-0.266652 0.03132,-0.03142 0.376462,-0.06274 0.752915,-0.06274 h 0.674495 z m -7.842885,0.564684 v 2.603838 l -0.486253,0.109791 c -0.266662,0.04703 -1.678382,0.09416 -3.121467,0.09416 -1.443091,0 -2.854808,-0.04703 -3.121465,-0.09416 l -0.486258,-0.109791 v -2.603838 -2.603838 h 3.607723 3.60772 z m -24.579572,0.549004 1.050946,0.439193 v 2.556778 c 0,2.90187 0.188229,2.682268 -1.599947,1.882293 l -1.066631,-0.470574 v -2.509717 c 0,-2.305806 0.01569,-2.494037 0.282343,-2.415607 0.141172,0.04703 0.737231,0.282342 1.333289,0.517634 z m 43.559334,1.929343 v 2.478347 l -1.050947,0.470574 c -1.803862,0.799975 -1.615631,1.019577 -1.615631,-1.913664 v -2.556777 l 0.752915,-0.266652 c 0.407833,-0.125491 0.909776,-0.345093 1.129378,-0.470583 0.768595,-0.439194 0.784285,-0.407823 0.784285,2.258755 z M 29.770133,37.764838 c 1.050945,0.266661 3.403807,0.737225 5.254727,1.035257 l 0.580373,0.09416 v 2.572458 2.572468 L 35.02486,43.945021 C 33.958228,43.80385 29.895618,42.972504 29.174073,42.752902 l -0.705858,-0.203911 -0.04706,-2.541088 c -0.01569,-1.39603 0,-2.541097 0.06274,-2.541097 0.04706,0 0.62743,0.141171 1.286232,0.298032 z m 37.175228,2.243065 -0.04703,2.541088 -0.705864,0.203911 c -0.721545,0.219602 -4.784154,1.050948 -5.835101,1.192119 l -0.596054,0.09416 v -2.572468 -2.556777 l 1.145058,-0.188232 c 1.380349,-0.235281 4.564552,-0.894086 5.207676,-1.082307 0.909766,-0.282342 0.878396,-0.376463 0.831336,2.368546 z M 40.75016,39.380469 43.44811,39.5687 v 2.572468 2.572458 l -1.756804,-0.109801 c -0.97252,-0.06274 -2.588151,-0.188231 -3.576354,-0.298032 l -1.80386,-0.172541 -0.04706,-2.572458 -0.04706,-2.572468 0.909773,0.09416 c 0.501944,0.06274 2.133263,0.188231 3.62341,0.298032 z m 18.352327,2.196005 -0.04703,2.556778 -1.803863,0.172541 c -0.988207,0.109801 -2.603838,0.235292 -3.560665,0.298032 l -1.772492,0.109801 V 42.141168 39.55301 l 2.007774,-0.109801 c 1.098008,-0.07845 2.446977,-0.172541 3.011661,-0.250962 0.564694,-0.06274 1.286239,-0.12549 1.615641,-0.14118 l 0.580374,-0.01571 z m -7.842875,0.564694 0.03142,2.494027 -0.956827,0.109801 c -1.239178,0.125491 -4.04693,0.125491 -5.301788,0 l -0.95683,-0.109801 v -2.462667 c 0,-1.348969 0.03135,-2.494027 0.06274,-2.525397 0.03135,-0.03132 1.647005,-0.04703 3.576349,-0.03132 l 3.497926,0.03132 z m -24.548202,0.439193 1.050946,0.439203 v 2.556778 c 0,1.709752 -0.06274,2.556778 -0.172544,2.556778 -0.09411,0 -0.690172,-0.235292 -1.333288,-0.533314 l -1.160746,-0.549004 v -2.541088 c 0,-2.337186 0.01569,-2.525407 0.282343,-2.446977 0.141172,0.04703 0.737231,0.282342 1.333289,0.517624 z m 43.559334,1.960724 v 2.509717 l -1.160748,0.549004 c -0.643114,0.298022 -1.239168,0.533314 -1.333289,0.533314 -0.109801,0 -0.172541,-0.862716 -0.172541,-2.572468 v -2.572458 l 0.752915,-0.266652 c 0.407833,-0.125491 0.909776,-0.345092 1.129378,-0.470583 0.768595,-0.439203 0.784285,-0.407823 0.784285,2.290126 z M 29.770133,43.568568 c 1.050945,0.266652 3.403807,0.737225 5.254727,1.035257 l 0.580373,0.09416 v 2.572458 c 0,2.588148 0,2.588148 -0.345085,2.588148 -0.580374,-0.01571 -4.172412,-0.721545 -5.568444,-1.097998 l -1.301918,-0.345092 v -2.572468 c 0,-1.41171 0.04706,-2.572458 0.09411,-2.572458 0.04706,0 0.62743,0.141171 1.286232,0.298032 z m 37.206608,2.274426 v 2.572468 l -1.286239,0.345092 c -1.41171,0.376453 -5.003754,1.082318 -5.568438,1.097998 -0.360773,0 -0.360773,0 -0.360773,-2.588148 v -2.572458 l 0.596054,-0.09416 c 1.537211,-0.250972 4.737103,-0.894086 5.442958,-1.082317 0.439203,-0.125481 0.878406,-0.235282 0.988207,-0.235282 0.141171,-0.01571 0.188231,0.596054 0.188231,2.556768 z M 40.828588,45.168509 43.44811,45.37243 v 2.603829 2.619528 l -0.894091,-0.06274 c -1.709743,-0.109791 -4.988067,-0.376452 -5.646871,-0.470563 l -0.674484,-0.09416 v -2.588148 -2.588148 l 0.988201,0.09416 c 0.533314,0.06274 2.148946,0.188231 3.607723,0.282342 z m 18.305279,2.243066 v 2.556778 l -0.737235,0.1098 c -0.705865,0.07845 -3.199893,0.298032 -5.490018,0.470574 l -0.988197,0.06274 V 47.991949 45.35674 l 2.8548,-0.188231 c 1.58427,-0.109791 2.90187,-0.219601 2.93324,-0.266652 0.03132,-0.03142 0.376462,-0.06274 0.752915,-0.06274 h 0.674495 z m -7.842885,0.596064 v 2.635198 h -3.60772 -3.607723 v -2.635198 -2.619528 h 3.607723 3.60772 z m -24.861915,0.360772 1.25486,0.533314 0.04706,2.211686 c 0.03137,1.599951 -0.01569,2.196005 -0.141172,2.196005 -0.109799,0 -0.705859,-0.250972 -1.333288,-0.548994 l -1.160746,-0.564694 v -2.180315 c 0,-1.207808 0.01569,-2.196005 0.04706,-2.196005 0.01569,0 0.596058,0.250971 1.286232,0.549003 z m 43.841677,1.647002 v 2.180315 l -1.160748,0.564694 c -0.627424,0.298022 -1.223488,0.548994 -1.333289,0.548994 -0.125481,0 -0.172541,-0.596054 -0.141171,-2.196005 l 0.04703,-2.211686 1.176428,-0.517633 c 0.643115,-0.298032 1.223489,-0.533314 1.301919,-0.549004 0.06274,-0.01571 0.109801,0.972517 0.109801,2.180325 z M 30.507363,49.63895 c 0.862716,0.203922 2.368548,0.501944 3.341065,0.643125 l 1.756805,0.282342 v 2.290116 2.290116 L 34.256258,54.925047 C 32.640625,54.674075 30.366191,54.187822 29.221131,53.85842 l -0.831345,-0.250972 v -2.274436 c 0,-2.117575 0.01569,-2.290116 0.282344,-2.180315 0.141171,0.04703 0.972516,0.266652 1.835233,0.486253 z m 36.469378,1.694062 v 2.274436 l -0.894096,0.250972 c -1.223479,0.360772 -3.325373,0.815655 -4.972375,1.066627 l -1.348979,0.219602 v -2.290116 -2.290116 l 1.850923,-0.298032 c 1.003877,-0.156861 2.572458,-0.470574 3.482234,-0.705865 0.909767,-0.250972 1.694062,-0.454883 1.772483,-0.470573 0.06274,0 0.10981,1.003887 0.10981,2.243065 z M 39.605099,50.956559 c 1.380349,0.09416 2.807749,0.203912 3.184208,0.250972 l 0.658803,0.07845 v 2.290126 2.274436 l -1.521521,-0.09416 C 39.74627,55.599522 37.173805,55.36424 36.671866,55.25444 l -0.439202,-0.09416 v -2.274436 -2.290116 l 0.439202,0.09416 c 0.235282,0.04703 1.552888,0.156861 2.933233,0.266662 z m 19.528768,1.945034 v 2.258746 l -0.423523,0.09416 c -0.517624,0.109801 -3.090092,0.345083 -5.254727,0.501944 l -1.5372,0.09416 V 53.576165 51.30173 l 0.486253,-0.09416 c 0.266662,-0.04703 0.925466,-0.09416 1.45878,-0.109801 0.517624,-0.01571 1.803863,-0.1098 2.83912,-0.219601 1.035257,-0.09416 2.007774,-0.203921 2.164635,-0.203921 0.235282,-0.03142 0.266662,0.172551 0.266662,2.227385 z m -7.842885,0.627424 v 2.243066 l -1.803862,0.09416 c -0.988197,0.04703 -2.619518,0.04703 -3.607721,0 l -1.80386,-0.09416 v -2.243066 -2.258745 h 3.607723 3.60772 z m -23.387454,1.913664 c 4.862583,1.584261 11.231,2.337176 19.779734,2.337176 5.552754,0 8.156592,-0.156851 12.23489,-0.721545 3.874377,-0.533314 7.607583,-1.45878 9.772218,-2.399917 l 0.580374,-0.250972 -0.03132,3.717526 -0.04703,3.733206 -1.4274,0.721545 c -2.431287,1.223489 -6.760557,2.180315 -12.454487,2.760689 -2.101894,0.203922 -4.141039,0.266662 -8.627162,0.266662 -4.486127,0 -6.525274,-0.06274 -8.627164,-0.266662 -5.693928,-0.580374 -10.023197,-1.5372 -12.454487,-2.760689 l -1.427404,-0.721545 -0.04706,-3.733206 -0.03137,-3.717526 0.580373,0.250972 c 0.3294,0.141171 1.333288,0.501944 2.227377,0.784286 z"
     id="path76"
     style="stroke-width:0.0156858" />
  <path
     d="m 26.821211,15.600854 c 0,0.313712 0.690173,0.580364 2.933235,1.160738 10.572198,2.682269 27.701039,2.462667 37.567378,-0.486253 0.972517,-0.282342 1.42741,-0.627435 1.176428,-0.878406 -0.06274,-0.04703 -0.862716,0.12549 -1.788172,0.407832 -9.94477,2.88618 -27.826527,2.917551 -37.739921,0.07845 -2.133262,-0.611744 -2.148948,-0.611744 -2.148948,-0.282342 z"
     id="path78"
     style="stroke-width:0.0156858" />
  <path
     d="m 30.899506,83.441726 v 3.309693 l 1.945034,-0.06274 c 1.694061,-0.04703 2.007775,-0.09416 2.399921,-0.376452 1.333288,-0.988207 1.694061,-3.544985 0.705859,-5.066505 -0.580374,-0.894087 -1.223491,-1.113688 -3.325381,-1.113688 h -1.725433 z m 3.294008,-2.070515 c 0.533315,0.141171 0.941144,1.003887 0.941144,1.976404 0,0.925457 -0.392142,1.803863 -0.941144,2.070515 -0.2196,0.1098 -0.721544,0.203921 -1.129374,0.203921 H 32.311224 V 83.426046 81.23004 l 0.752916,0.01571 c 0.40783,0.01571 0.909774,0.06274 1.129374,0.125481 z"
     id="path258"
     style="stroke-width:0.0156858" />
  <path
     d="m 50.663558,83.426046 v 3.294003 h 0.548994 c 0.376462,0 0.549004,-0.07845 0.549004,-0.235282 0,-0.298032 0.141171,-0.298032 0.486263,0.01571 0.156851,0.141171 0.548994,0.282342 0.878396,0.313722 1.254859,0.156852 2.133265,-0.909776 2.133265,-2.603838 0,-1.5372 -0.768605,-2.446977 -2.039154,-2.415606 -0.407823,0.01571 -0.799966,0.12549 -0.988197,0.298032 -0.313712,0.282342 -0.313712,0.266652 -0.313712,-0.831346 v -1.129378 h -0.627435 -0.627424 z m 3.027351,-0.125491 c 0.376453,0.454893 0.360772,1.53721 -0.06274,2.070524 -0.862716,1.097998 -2.117574,-0.141171 -1.694052,-1.678381 0.250962,-0.909767 1.129368,-1.113678 1.756803,-0.392143 z"
     id="path260"
     style="stroke-width:0.0156858" />
  <path
     d="m 42.663821,81.23004 c 0,0.517624 -0.04706,0.627425 -0.313716,0.627425 -0.250971,0 -0.313713,0.109801 -0.313713,0.470573 0,0.360773 0.06274,0.470573 0.313713,0.470573 0.29803,0 0.313716,0.109801 0.313716,1.709752 0,2.039144 0.09411,2.211686 1.270546,2.211686 0.752915,0 0.768601,-0.01571 0.768601,-0.470564 0,-0.392152 -0.06274,-0.470583 -0.392145,-0.470583 -0.392142,0 -0.392142,0 -0.392142,-1.49014 0,-1.490151 0,-1.490151 0.392142,-1.490151 0.329403,0 0.392145,-0.07845 0.392145,-0.470573 0,-0.392143 -0.06274,-0.470573 -0.392145,-0.470573 -0.345087,0 -0.392142,-0.06274 -0.392142,-0.627425 v -0.627434 h -0.627429 -0.627431 z"
     id="path302"
     style="stroke-width:0.0156858" />
  <path
     d="m 38.334553,81.920215 c -0.549001,0.235282 -1.003889,0.799976 -1.003889,1.223489 0,0.423513 1.113687,0.392142 1.380349,-0.03142 0.235282,-0.392143 1.239171,-0.439203 1.380343,-0.07845 0.156859,0.407823 -0.2196,0.658804 -1.145061,0.784285 -1.145056,0.141171 -1.77249,0.705855 -1.77249,1.599941 0.0157,1.286239 1.286233,1.866613 2.478349,1.145068 0.439202,-0.266662 0.517632,-0.282342 0.596061,-0.07845 0.06274,0.156861 0.313717,0.235282 0.815657,0.235282 0.564687,0 0.67449,-0.04703 0.533318,-0.188222 -0.125485,-0.12549 -0.188228,-0.815665 -0.188228,-2.039154 0,-2.086204 -0.109802,-2.321486 -1.207803,-2.619518 -0.784287,-0.219601 -1.270546,-0.203911 -1.866606,0.04703 z m 1.662692,3.403804 c -0.29803,0.690175 -1.270546,0.831346 -1.521521,0.203911 -0.156858,-0.423513 0.172546,-0.752915 0.909773,-0.925456 0.799975,-0.203912 0.925461,-0.04703 0.611748,0.721545 z"
     id="path396"
     style="stroke-width:0.0156858" />
  <path
     d="m 46.491146,81.920215 c -0.549005,0.235282 -1.003889,0.799976 -1.003889,1.223489 0,0.423513 1.113688,0.392142 1.380345,-0.03142 0.235287,-0.392143 1.239176,-0.439203 1.380349,-0.07845 0.156861,0.407823 -0.219602,0.658804 -1.145062,0.784285 -1.145061,0.141171 -1.77249,0.705855 -1.77249,1.599941 0.0157,1.286239 1.286232,1.866613 2.478349,1.145068 0.439203,-0.266662 0.517634,-0.282342 0.596064,-0.07845 0.06274,0.156861 0.313712,0.235282 0.815656,0.235282 0.564684,0 0.674485,-0.04703 0.533314,-0.188222 -0.125491,-0.12549 -0.188232,-0.815665 -0.188232,-2.039154 0,-2.086204 -0.1098,-2.321486 -1.207798,-2.619518 -0.784293,-0.219601 -1.27055,-0.203911 -1.866606,0.04703 z m 1.662687,3.403804 c -0.29803,0.690175 -1.270545,0.831346 -1.521515,0.203911 -0.156858,-0.423513 0.17254,-0.752915 0.909773,-0.925456 0.799971,-0.203912 0.925462,-0.04703 0.611742,0.721545 z"
     id="path398"
     style="stroke-width:0.0156858" />
  <path
     d="m 57.157453,81.920215 c -0.549004,0.235282 -1.003887,0.799976 -1.003887,1.223489 0,0.423513 1.113688,0.392142 1.38035,-0.03142 0.235281,-0.392143 1.239178,-0.439203 1.380349,-0.07845 0.156851,0.407823 -0.219601,0.658804 -1.145068,0.784285 -1.145058,0.141171 -1.772492,0.705855 -1.772492,1.599941 0.01571,1.286239 1.286239,1.866613 2.478357,1.145068 0.439203,-0.266662 0.517624,-0.282342 0.596054,-0.07845 0.06274,0.156861 0.313713,0.235282 0.815656,0.235282 0.564694,0 0.674495,-0.04703 0.533314,-0.188222 -0.125481,-0.12549 -0.188222,-0.815665 -0.188222,-2.039154 0,-2.086204 -0.1098,-2.321486 -1.207808,-2.619518 -0.784285,-0.219601 -1.270539,-0.203911 -1.866603,0.04703 z m 1.662692,3.403804 c -0.298032,0.690175 -1.270549,0.831346 -1.521511,0.203911 -0.156861,-0.423513 0.172531,-0.752915 0.909766,-0.925456 0.799976,-0.203912 0.925467,-0.04703 0.611745,0.721545 z"
     id="path400"
     style="stroke-width:0.0156858" />
  <path
     d="m 62.318069,81.873155 c -1.050947,0.298022 -1.505831,1.631311 -0.784286,2.290116 0.188222,0.188231 0.768596,0.454893 1.286229,0.596064 0.517634,0.156851 1.050948,0.376453 1.176429,0.501943 0.203921,0.203912 0.203921,0.250972 -0.06274,0.454884 -0.454883,0.329402 -1.003887,0.266661 -1.44309,-0.172542 -0.486253,-0.501943 -1.47446,-0.564684 -1.47446,-0.09416 0,0.454883 0.580374,1.066627 1.207808,1.286229 0.329393,0.109801 0.925457,0.141171 1.44309,0.09416 0.721535,-0.07845 0.956827,-0.172541 1.317599,-0.580364 0.925457,-1.035267 0.329403,-2.133265 -1.380349,-2.525417 -1.050947,-0.235282 -1.38034,-0.548994 -0.941147,-0.878396 0.360783,-0.250972 1.003897,-0.156861 1.270549,0.203911 0.219602,0.282342 1.317599,0.298032 1.317599,0.01571 0,-0.360773 -0.501943,-0.925457 -1.035257,-1.145058 -0.580374,-0.250982 -1.160748,-0.266662 -1.897973,-0.04703 z"
     id="path402"
     style="stroke-width:0.0156858" />
  <path
     d="m 67.368884,82.014326 c -0.360772,0.172541 -0.768605,0.533314 -0.941146,0.815656 -0.376463,0.658804 -0.392143,2.196005 -0.03132,2.90187 0.486254,0.909766 2.086205,1.4274 2.980291,0.972516 0.501943,-0.266661 1.207808,-0.956836 1.207808,-1.192118 0,-0.298032 -1.160748,-0.266662 -1.41172,0.03142 -0.454893,0.549004 -1.725432,0.109801 -1.725432,-0.596064 0,-0.235282 0.219602,-0.266652 1.662682,-0.266652 h 1.678382 l -0.109801,-0.737235 c -0.125491,-0.956827 -0.517624,-1.584261 -1.192118,-1.945033 -0.705855,-0.376453 -1.33329,-0.376453 -2.117575,0.01571 z m 1.678372,1.050947 c 0.533314,0.486254 0.360772,0.674485 -0.658805,0.674485 -0.517623,0 -0.941146,-0.04703 -0.941146,-0.125481 0,-0.06274 0.109801,-0.282352 0.250972,-0.470573 0.282342,-0.407833 0.941146,-0.454893 1.348979,-0.07845 z"
     id="path404"
     style="stroke-width:0.0156858" />
  <path
     d="m 27.44864,94.578613 v 3.309693 l 1.945034,-0.06274 c 1.694062,-0.04703 2.007777,-0.09416 2.399921,-0.376463 1.333289,-0.988197 1.69406,-3.544974 0.705858,-5.066495 -0.580372,-0.894086 -1.223488,-1.113688 -3.32538,-1.113688 H 27.44864 Z m 3.294009,-2.070514 c 0.533316,0.141171 0.941145,1.003887 0.941145,1.976404 0,0.925456 -0.392144,1.803852 -0.941145,2.070514 -0.2196,0.109801 -0.721545,0.203921 -1.129374,0.203921 h -0.752917 v -2.196015 -2.196005 l 0.752917,0.01571 c 0.407829,0.01571 0.909774,0.06274 1.129374,0.125481 z"
     id="path482"
     style="stroke-width:0.0156858" />
  <path
     d="m 39.369811,92.366918 c 0,0.517634 -0.04706,0.627434 -0.313713,0.627434 -0.250975,0 -0.313717,0.109801 -0.313717,0.470574 0,0.360772 0.06274,0.470573 0.313717,0.470573 0.29803,0 0.313713,0.109801 0.313713,1.709752 0,2.039144 0.09411,2.211685 1.270546,2.211685 0.752918,0 0.768605,-0.01571 0.768605,-0.470573 0,-0.392143 -0.06275,-0.470573 -0.392146,-0.470573 -0.392142,0 -0.392142,0 -0.392142,-1.490141 0,-1.49015 0,-1.49015 0.392142,-1.49015 0.329399,0 0.392146,-0.07845 0.392146,-0.470573 0,-0.392143 -0.06275,-0.470574 -0.392146,-0.470574 -0.345086,0 -0.392142,-0.06274 -0.392142,-0.627434 v -0.627424 h -0.627429 -0.627434 z"
     id="path488"
     style="stroke-width:0.0156858" />
  <path
     d="m 52.545841,92.366918 c 0,0.517634 -0.04703,0.627434 -0.313712,0.627434 -0.250972,0 -0.313712,0.109801 -0.313712,0.470574 0,0.360772 0.06274,0.470573 0.313712,0.470573 0.298032,0 0.313712,0.109801 0.313712,1.709752 0,2.039144 0.09416,2.211685 1.270549,2.211685 0.752915,0 0.768605,-0.01571 0.768605,-0.470573 0,-0.392143 -0.06274,-0.470573 -0.392143,-0.470573 -0.392152,0 -0.392152,0 -0.392152,-1.490141 0,-1.49015 0,-1.49015 0.392152,-1.49015 0.329393,0 0.392143,-0.07845 0.392143,-0.470573 0,-0.392143 -0.06274,-0.470574 -0.392143,-0.470574 -0.345092,0 -0.392152,-0.06274 -0.392152,-0.627434 v -0.627424 h -0.627425 -0.627434 z"
     id="path490"
     style="stroke-width:0.0156858" />
  <path
     d="m 35.040546,93.057093 c -0.549003,0.235291 -1.003889,0.799975 -1.003889,1.223488 0,0.423523 1.113688,0.392143 1.380345,-0.03142 0.235287,-0.392143 1.239176,-0.439193 1.380348,-0.07845 0.156859,0.407833 -0.219601,0.658805 -1.145061,0.784296 -1.145059,0.141171 -1.77249,0.705855 -1.77249,1.599941 0.01569,1.286239 1.286232,1.866603 2.478349,1.145068 0.439202,-0.266662 0.517631,-0.282352 0.596061,-0.07845 0.06274,0.156851 0.313712,0.235281 0.815657,0.235281 0.564687,0 0.674485,-0.04703 0.533313,-0.188231 -0.125485,-0.125481 -0.188227,-0.815656 -0.188227,-2.039144 0,-2.086205 -0.109798,-2.321487 -1.207804,-2.619519 -0.784287,-0.219601 -1.270546,-0.203911 -1.866602,0.04703 z m 1.662688,3.403813 c -0.29803,0.690165 -1.270546,0.831346 -1.521516,0.203912 -0.156858,-0.423513 0.172541,-0.752915 0.909774,-0.925457 0.79997,-0.203921 0.925459,-0.04703 0.611742,0.721545 z"
     id="path506"
     style="stroke-width:0.0156858" />
  <path
     d="m 43.040277,93.057093 c -0.549001,0.235291 -1.003885,0.799975 -1.003885,1.223488 0,0.423523 1.113688,0.392143 1.380345,-0.03142 0.235287,-0.392143 1.239176,-0.439193 1.380348,-0.07845 0.156854,0.407833 -0.219601,0.658805 -1.145061,0.784296 -1.145061,0.141171 -1.77249,0.705855 -1.77249,1.599941 0.0157,1.286239 1.286233,1.866603 2.478349,1.145068 0.439202,-0.266662 0.517627,-0.282352 0.596056,-0.07845 0.06274,0.156851 0.313717,0.235281 0.815662,0.235281 0.564687,0 0.674485,-0.04703 0.533313,-0.188231 -0.125485,-0.125481 -0.188228,-0.815656 -0.188228,-2.039144 0,-2.086205 -0.109802,-2.321487 -1.207803,-2.619519 -0.784288,-0.219601 -1.270546,-0.203911 -1.866606,0.04703 z m 1.662691,3.403813 c -0.29803,0.690165 -1.270545,0.831346 -1.521519,0.203912 -0.156854,-0.423513 0.172545,-0.752915 0.909777,-0.925457 0.799971,-0.203921 0.925456,-0.04703 0.611742,0.721545 z"
     id="path508"
     style="stroke-width:0.0156858" />
  <path
     d="m 48.357752,93.010042 c -1.050948,0.298023 -1.505834,1.631312 -0.784293,2.290116 0.188233,0.188232 0.768603,0.454884 1.286236,0.596055 0.517624,0.156861 1.050938,0.376462 1.176429,0.501943 0.203921,0.203921 0.203921,0.250972 -0.06274,0.454893 -0.454883,0.329402 -1.003887,0.266662 -1.44309,-0.172541 -0.486257,-0.501944 -1.47446,-0.564694 -1.47446,-0.09416 0,0.454893 0.58037,1.066638 1.207808,1.286229 0.329393,0.109811 0.925447,0.141181 1.44308,0.09416 0.721545,-0.07845 0.956837,-0.172541 1.3176,-0.580374 0.925466,-1.035257 0.329412,-2.133265 -1.38034,-2.525408 -1.050947,-0.235281 -1.38034,-0.549003 -0.941147,-0.878396 0.360773,-0.250972 1.003887,-0.156861 1.270549,0.203912 0.219602,0.282342 1.317599,0.298032 1.317599,0.01571 0,-0.360772 -0.501943,-0.925456 -1.035257,-1.145058 -0.580374,-0.250972 -1.160748,-0.266652 -1.897973,-0.04703 z"
     id="path510"
     style="stroke-width:0.0156858" />
  <path
     d="m 56.467278,93.104153 c -0.674484,0.345092 -1.254858,1.4274 -1.254858,2.321496 0,0.345083 0.156861,0.956827 0.360772,1.333289 0.454893,0.925457 1.145068,1.286229 2.274436,1.207799 1.42741,-0.109801 2.274436,-1.050947 2.274436,-2.541088 0,-1.49015 -0.847026,-2.431297 -2.274436,-2.541097 -0.596054,-0.04703 -0.988197,0.01571 -1.38035,0.219601 z m 2.023464,1.239179 c 0.752916,0.956826 0.219602,2.572458 -0.847026,2.572458 -0.580374,0 -0.815665,-0.219602 -1.019577,-0.956827 -0.188231,-0.627434 0.04703,-1.631321 0.439203,-1.850923 0.501944,-0.298022 1.082318,-0.188231 1.4274,0.235292 z"
     id="path512"
     style="stroke-width:0.0156858" />
  <path
     d="m 62.945503,93.072783 c -0.282352,0.125481 -0.517633,0.298032 -0.517633,0.392143 0,0.07845 -0.06274,0.156851 -0.156861,0.156851 -0.07845,0 -0.156852,-0.141171 -0.156852,-0.313712 0,-0.250972 -0.1098,-0.313713 -0.549003,-0.313713 H 61.01615 v 2.431297 2.431287 h 0.627434 0.627425 v -1.45878 c 0,-1.678372 0.172551,-2.054824 1.019577,-2.211685 0.517633,-0.109801 0.549003,-0.141171 0.549003,-0.721545 0,-0.690175 -0.1098,-0.737235 -0.894086,-0.392143 z"
     id="path514"
     style="stroke-width:0.0156858" />
  <path
     d="m 65.486591,93.151213 c -0.360773,0.172542 -0.768605,0.533314 -0.941147,0.815656 -0.376462,0.658805 -0.392142,2.196005 -0.03132,2.90186 0.486263,0.909777 2.086205,1.42741 2.980291,0.972527 0.501943,-0.266662 1.207808,-0.956837 1.207808,-1.192128 0,-0.298022 -1.160748,-0.266652 -1.41172,0.03142 -0.454883,0.549004 -1.725432,0.109801 -1.725432,-0.596054 0,-0.235282 0.219602,-0.266662 1.662692,-0.266662 h 1.678372 L 68.796333,95.080606 C 68.670852,94.123769 68.278709,93.496345 67.604215,93.135572 66.89836,92.75911 66.270935,92.75911 65.48664,93.151282 Z m 1.678372,1.050938 c 0.533314,0.486263 0.360772,0.674494 -0.658805,0.674494 -0.517623,0 -0.941137,-0.04703 -0.941137,-0.12549 0,-0.06274 0.109801,-0.282342 0.250972,-0.470574 0.282342,-0.407823 0.941147,-0.454883 1.34897,-0.07845 z"
     id="path516"
     style="stroke-width:0.0156858" />
  <path
     d="m 70.788378,93.010042 c -1.050947,0.298023 -1.50584,1.631312 -0.784286,2.290116 0.188222,0.188232 0.768596,0.454884 1.286229,0.596055 0.517624,0.156861 1.050948,0.376462 1.176429,0.501943 0.203911,0.203921 0.203911,0.250972 -0.06274,0.454893 -0.454893,0.329402 -1.003887,0.266662 -1.44309,-0.172541 -0.486263,-0.501944 -1.47446,-0.564694 -1.47446,-0.09416 0,0.454893 0.580374,1.066638 1.207798,1.286229 0.329403,0.109811 0.925467,0.141181 1.44309,0.09416 0.721545,-0.07845 0.956837,-0.172541 1.317609,-0.580374 0.925457,-1.035257 0.329393,-2.133265 -1.380349,-2.525408 -1.050947,-0.235281 -1.38035,-0.549003 -0.941147,-0.878396 0.360773,-0.250972 1.003887,-0.156861 1.270549,0.203912 0.219602,0.282342 1.317599,0.298032 1.317599,0.01571 0,-0.360772 -0.501943,-0.925456 -1.035257,-1.145058 -0.580374,-0.250972 -1.160748,-0.266652 -1.897973,-0.04703 z"
     id="path518"
     style="stroke-width:0.0156858" />
</svg>
