<?xml version="1.0" encoding="UTF-8" standalone="no"?>
<!-- Created with Inkscape (http://www.inkscape.org/) -->

<svg
   width="100mm"
   height="100mm"
   viewBox="0 0 100 100"
   version="1.1"
   id="svg26768"
   xmlns="http://www.w3.org/2000/svg"
   xmlns:svg="http://www.w3.org/2000/svg">
  <defs
     id="defs26765" />
  <path
     d="m 22.309328,32.371268 c -3.198799,0.847874 -5.858042,3.468577 -6.821536,6.763724 -0.192699,0.674449 -0.308318,1.792102 -0.308318,3.102456 0,3.46858 -0.462477,4.95236 -2.042607,6.72518 -1.040573,1.1562 -2.755592,2.06188 -4.2201026,2.23531 l -1.059843,0.13489 v 1.13692 c 0,1.23327 -0.09635,1.1562 1.54159,1.42597 2.3509246,0.36613 4.6055006,2.44727 5.4533746,5.01017 0.09635,0.30832 0.250509,2.44727 0.308318,4.72112 0.11562,3.75762 0.173429,4.23937 0.578096,5.14506 0.847875,1.90771 2.755593,3.25661 5.414836,3.8347 1.888447,0.40467 55.940452,0.3854 57.867432,-0.0193 2.81341,-0.59737 4.83675,-2.21603 5.53046,-4.48988 0.32759,-1.04057 0.3854,-1.7921 0.3854,-4.64404 0,-3.79617 0.1927,-4.85601 1.19473,-6.41687 1.00203,-1.5994 2.83267,-2.87121 4.50915,-3.14099 1.71502,-0.26978 1.61867,-0.1927 1.61867,-1.42597 v -1.11765 l -0.96349,-0.11562 c -2.35093,-0.28905 -4.68258,-2.04261 -5.72316,-4.31645 -0.46248,-0.98277 -0.52028,-1.42598 -0.6359,-4.20084 -0.15416,-3.391497 -0.42394,-4.528421 -1.56086,-6.281978 -1.29109,-2.023336 -3.75763,-3.699815 -6.10855,-4.200833 -0.71299,-0.154159 -8.84488,-0.211968 -27.36323,-0.192698 -24.145152,0 -26.438267,0.03854 -27.59446,0.327588 z m 54.01346,2.158226 c 2.87121,0.462477 5.08725,2.370194 5.95439,5.106519 0.11563,0.308315 0.25051,1.965525 0.34686,3.661275 0.11562,2.44727 0.23124,3.31442 0.55883,4.18156 0.5781,1.50305 1.88845,3.23734 3.17953,4.20084 l 1.07911,0.80933 -0.73225,0.53955 c -1.63794,1.19474 -3.12172,3.21807 -3.75763,5.10653 -0.0964,0.30831 -0.25051,2.48581 -0.30832,4.81746 -0.13489,4.58623 -0.1927,4.83674 -1.31035,5.95439 -0.69371,0.69372 -1.84991,1.214 -3.3915,1.46452 -0.80933,0.13488 -9.86618,0.19269 -28.6543,0.15416 -30.388598,-0.0578 -28.384531,0.0193 -30.195899,-1.29109 -1.348891,-0.98276 -1.483781,-1.48378 -1.5994,-6.18563 -0.115619,-3.56493 -0.173429,-4.29718 -0.539556,-5.26067 -0.712986,-1.96553 -2.081147,-3.69982 -3.892515,-5.01017 -0.308318,-0.21197 -0.404667,-0.3854 -0.250509,-0.44321 0.712986,-0.30832 2.254576,-1.7921 2.929021,-2.79413 1.329622,-1.9848 1.5994,-2.94829 1.753559,-6.43614 0.154159,-3.333689 0.346858,-4.143025 1.329622,-5.568993 1.079113,-1.56086 2.832671,-2.678514 4.68258,-2.986831 1.406701,-0.231239 51.392757,-0.250509 52.818727,-0.01927 z"
     id="path128"
     style="stroke-width:0.0192699" />
  <path
     d="m 27.126796,52.450478 v 1.15619 h 22.931152 22.93115 v -1.15619 -1.15619 H 50.057948 27.126796 Z"
     id="path130"
     style="stroke-width:0.0192699" />
  <path
     d="m 66.533688,88.485148 c -2.21603,1.09838 -2.75559,4.87528 -1.00203,6.87935 0.75153,0.86714 1.58013,1.214 2.83267,1.214 1.25255,0 2.08115,-0.34686 2.83268,-1.214 1.71502,-1.96553 1.17546,-5.81951 -0.9635,-6.86008 -1.09838,-0.52029 -2.65924,-0.53956 -3.69982,-0.0193 z m 2.79414,1.25254 c 0.30832,0.17343 0.69371,0.55883 0.86714,0.86715 0.36613,0.71298 0.36613,2.50508 0,3.39149 -0.59736,1.42597 -2.75559,1.56086 -3.56493,0.21197 -0.48174,-0.77079 -0.52028,-2.77486 -0.0964,-3.60346 0.53956,-1.04058 1.73429,-1.4067 2.79414,-0.86715 z"
     id="path206"
     style="stroke-width:0.0192699" />
  <path
     d="m 1.6905614,92.358388 v 4.06594 l 2.389465,-0.0771 c 2.081146,-0.0578 2.466543,-0.11562 2.948291,-0.46248 1.637939,-1.214 2.081146,-4.35499 0.867144,-6.22417 -0.712986,-1.09838 -1.50305,-1.36816 -4.085214,-1.36816 h -2.119686 z m 4.046674,-2.54362 c 0.655176,0.17343 1.156192,1.23327 1.156192,2.42801 0,1.13692 -0.481746,2.21603 -1.156192,2.54362 -0.269778,0.13489 -0.886414,0.2505 -1.387431,0.2505 h -0.924954 v -2.69777 -2.69779 l 0.924954,0.0193 c 0.501017,0.0193 1.117653,0.0771 1.387431,0.15416 z"
     id="path238"
     style="stroke-width:0.0192699" />
  <path
     d="m 29.246485,92.339128 v 4.04667 h 0.770794 0.770794 l 0.01928,-3.23734 c 0,-1.7921 0.07708,-3.04464 0.154158,-2.83267 0.09635,0.21196 0.443208,1.65721 0.790066,3.21807 l 0.635907,2.85194 h 0.828602 0.809337 l 0.385394,-1.69575 c 0.211972,-0.92496 0.539558,-2.37019 0.751529,-3.21807 l 0.346858,-1.54159 0.05781,3.21807 0.03856,3.23734 h 0.770794 0.770795 v -4.04667 -4.04668 h -1.252545 c -0.693715,0 -1.252539,0.0578 -1.252539,0.13489 -0.01928,0.28905 -1.329623,5.87731 -1.387431,5.95439 -0.05781,0.0386 -0.327592,-0.98276 -0.616636,-2.29312 -0.28905,-1.29108 -0.616637,-2.67851 -0.712987,-3.08317 l -0.1927,-0.71299 h -1.233273 -1.252539 z"
     id="path240"
     style="stroke-width:0.0192699" />
  <path
     d="m 49.287158,89.641338 v 1.34889 l -0.61664,-0.38539 c -0.8286,-0.50102 -1.48378,-0.48175 -2.29312,0.0578 -0.867142,0.57809 -1.329615,1.54158 -1.329615,2.79413 0,2.40873 1.849905,3.81543 3.622735,2.73632 0.50102,-0.30832 0.61664,-0.32759 0.61664,-0.0964 0,0.21197 0.21196,0.28905 0.77079,0.28905 h 0.7708 v -4.04667 -4.04668 h -0.7708 -0.77079 z m -0.40467,2.40874 c 0.15416,0.15415 0.30832,0.67444 0.34686,1.19473 0.0771,0.75152 0.0193,1.0213 -0.32759,1.44524 -1.11766,1.44524 -2.75559,-0.13489 -2.11969,-2.06188 0.32759,-1.0213 1.34889,-1.29108 2.10042,-0.57809 z"
     id="path242"
     style="stroke-width:0.0192699" />
  <path
     d="m 58.536688,92.339128 v 4.04667 h 0.7708 0.7708 v -4.04667 -4.04668 h -0.7708 -0.7708 z"
     id="path244"
     style="stroke-width:0.0192699" />
  <path
     d="m 73.567198,92.339128 v 4.04667 h 0.67444 c 0.46248,0 0.67445,-0.0964 0.67445,-0.28905 0,-0.36613 0.17343,-0.36613 0.59737,0.0193 0.1927,0.17343 0.67444,0.34686 1.07911,0.3854 1.54159,0.19269 2.6207,-1.11766 2.6207,-3.1988 0,-1.88845 -0.94422,-3.0061 -2.50508,-2.96756 -0.50102,0.0193 -0.98277,0.15416 -1.214,0.36612 -0.3854,0.34686 -0.3854,0.3276 -0.3854,-1.0213 v -1.38743 h -0.7708 -0.77079 z m 3.71908,-0.15417 c 0.46248,0.55883 0.44321,1.88846 -0.0771,2.54363 -1.05985,1.34889 -2.60144,-0.17343 -2.08115,-2.06188 0.30832,-1.11765 1.38743,-1.36816 2.15822,-0.48175 z"
     id="path246"
     style="stroke-width:0.0192699" />
  <path
     d="m 80.311658,88.966888 c 0,0.65518 0.0193,0.67445 0.77079,0.67445 0.75153,0 0.7708,-0.0193 0.7708,-0.67445 0,-0.65517 -0.0193,-0.67444 -0.7708,-0.67444 -0.75152,0 -0.77079,0.0193 -0.77079,0.67444 z"
     id="path248"
     style="stroke-width:0.0192699" />
  <path
     d="m 16.335667,89.641338 c 0,0.63591 -0.05781,0.7708 -0.385398,0.7708 -0.308318,0 -0.385398,0.13488 -0.385398,0.57809 0,0.44321 0.07708,0.5781 0.385398,0.5781 0.366128,0 0.385398,0.13489 0.385398,2.10041 0,2.50509 0.115619,2.71706 1.56086,2.71706 0.924954,0 0.944224,-0.0193 0.944224,-0.5781 0,-0.48175 -0.07708,-0.5781 -0.481748,-0.5781 -0.481746,0 -0.481746,0 -0.481746,-1.83063 0,-1.83064 0,-1.83064 0.481746,-1.83064 0.404668,0 0.481748,-0.0964 0.481748,-0.5781 0,-0.48174 -0.07708,-0.57809 -0.481748,-0.57809 -0.423937,0 -0.481746,-0.0771 -0.481746,-0.7708 v -0.7708 h -0.770795 -0.770795 z"
     id="path288"
     style="stroke-width:0.0192699" />
  <path
     d="m 96.112948,89.641338 c 0,0.63591 -0.0578,0.7708 -0.38539,0.7708 -0.30832,0 -0.3854,0.13488 -0.3854,0.57809 0,0.44321 0.0771,0.5781 0.3854,0.5781 0.36613,0 0.38539,0.13489 0.38539,2.10041 0,2.50509 0.11562,2.71706 1.56086,2.71706 0.92496,0 0.94423,-0.0193 0.94423,-0.5781 0,-0.48175 -0.0771,-0.5781 -0.48175,-0.5781 -0.48174,0 -0.48174,0 -0.48174,-1.83063 0,-1.83064 0,-1.83064 0.48174,-1.83064 0.40467,0 0.48175,-0.0964 0.48175,-0.5781 0,-0.48174 -0.0771,-0.57809 -0.48175,-0.57809 -0.42394,0 -0.48174,-0.0771 -0.48174,-0.7708 v -0.7708 h -0.7708 -0.7708 z"
     id="path290"
     style="stroke-width:0.0192699" />
  <path
     d="m 10.824482,90.489218 c -0.674446,0.28905 -1.2332716,0.98276 -1.2332716,1.50305 0,0.52029 1.3681606,0.48174 1.6957486,-0.0386 0.289048,-0.48174 1.52232,-0.53955 1.695749,-0.0964 0.192699,0.50102 -0.269778,0.80934 -1.406701,0.9635 -1.406701,0.17343 -2.1774956,0.86714 -2.1774956,1.96552 0.01927,1.58014 1.5801296,2.29312 3.0446406,1.40671 0.539556,-0.32759 0.635906,-0.34686 0.732255,-0.0964 0.07708,0.1927 0.385397,0.28905 1.002033,0.28905 0.693716,0 0.828605,-0.0578 0.655176,-0.23124 -0.154158,-0.15416 -0.231238,-1.00204 -0.231238,-2.50509 0,-2.56289 -0.134889,-2.85194 -1.483781,-3.21807 -0.963494,-0.26977 -1.56086,-0.25051 -2.293115,0.0578 z m 2.042607,4.18156 c -0.366128,0.84787 -1.56086,1.0213 -1.869178,0.25051 -0.192699,-0.52029 0.211969,-0.92496 1.117653,-1.13692 0.982764,-0.25051 1.136923,-0.0578 0.751525,0.88641 z"
     id="path348"
     style="stroke-width:0.0192699" />
  <path
     d="m 20.844818,90.489218 c -0.674446,0.28905 -1.233273,0.98276 -1.233273,1.50305 0,0.52029 1.368162,0.48174 1.69575,-0.0386 0.289048,-0.48174 1.52232,-0.53955 1.695748,-0.0964 0.192699,0.50102 -0.269777,0.80934 -1.4067,0.9635 -1.406701,0.17343 -2.177496,0.86714 -2.177496,1.96552 0.01927,1.58014 1.580129,2.29312 3.04464,1.40671 0.539556,-0.32759 0.635906,-0.34686 0.732255,-0.0964 0.07708,0.1927 0.385398,0.28905 1.002034,0.28905 0.693716,0 0.828604,-0.0578 0.655176,-0.23124 -0.154159,-0.15416 -0.231239,-1.00204 -0.231239,-2.50509 0,-2.56289 -0.134889,-2.85194 -1.48378,-3.21807 -0.963494,-0.26977 -1.56086,-0.25051 -2.293115,0.0578 z m 2.042607,4.18156 c -0.366128,0.84787 -1.56086,1.0213 -1.869179,0.25051 -0.192698,-0.52029 0.211969,-0.92496 1.117653,-1.13692 0.982764,-0.25051 1.136923,-0.0578 0.751526,0.88641 z"
     id="path350"
     style="stroke-width:0.0192699" />
  <path
     d="m 39.652217,90.547018 c -0.828608,0.42394 -1.541589,1.75356 -1.541589,2.85195 0,0.42393 0.192695,1.17546 0.443208,1.63793 0.558823,1.13693 1.406696,1.58013 2.794127,1.48378 1.75356,-0.13488 2.794134,-1.29108 2.794134,-3.12171 0,-1.83064 -1.040574,-2.98683 -2.794134,-3.12172 -0.732252,-0.0578 -1.214002,0.0193 -1.695746,0.26977 z m 2.485812,1.52233 c 0.924958,1.17546 0.269779,3.16025 -1.040573,3.16025 -0.712981,0 -1.002031,-0.26977 -1.252539,-1.17546 -0.231242,-0.77079 0.05781,-2.00406 0.539558,-2.27384 0.616631,-0.36613 1.329617,-0.23124 1.753554,0.28905 z"
     id="path352"
     style="stroke-width:0.0192699" />
  <path
     d="m 53.237478,90.604838 c -0.4432,0.21196 -0.94422,0.65517 -1.15619,1.00203 -0.46248,0.80934 -0.48175,2.69778 -0.0386,3.56493 0.59736,1.11765 2.56289,1.75356 3.66127,1.19473 0.61664,-0.32759 1.48378,-1.17546 1.48378,-1.46451 0,-0.36613 -1.42597,-0.32759 -1.73428,0.0386 -0.55883,0.67445 -2.11969,0.13489 -2.11969,-0.73226 0,-0.28905 0.26978,-0.32758 2.04261,-0.32758 h 2.06187 l -0.13488,-0.90569 c -0.15417,-1.17546 -0.63591,-1.94625 -1.46452,-2.38946 -0.86714,-0.46248 -1.63794,-0.46248 -2.60143,0.0193 z m 2.06188,1.29108 c 0.65517,0.59736 0.44321,0.8286 -0.80934,0.8286 -0.6359,0 -1.15619,-0.0578 -1.15619,-0.15416 0,-0.0771 0.13489,-0.34685 0.30832,-0.57809 0.34686,-0.50102 1.15619,-0.55883 1.65721,-0.0964 z"
     id="path354"
     style="stroke-width:0.0192699" />
  <path
     d="m 84.647378,90.604838 c -0.44321,0.21196 -0.94423,0.65517 -1.15619,1.00203 -0.46248,0.80934 -0.48175,2.69778 -0.0386,3.56493 0.59737,1.11765 2.5629,1.75356 3.66128,1.19473 0.61664,-0.32759 1.48378,-1.17546 1.48378,-1.46451 0,-0.36613 -1.42597,-0.32759 -1.73429,0.0386 -0.55883,0.67445 -2.11969,0.13489 -2.11969,-0.73226 0,-0.28905 0.26978,-0.32758 2.04261,-0.32758 h 2.06188 l -0.13489,-0.90569 c -0.15416,-1.17546 -0.63591,-1.94625 -1.46451,-2.38946 -0.86714,-0.46248 -1.63794,-0.46248 -2.60143,0.0193 z m 2.06188,1.29108 c 0.65517,0.59736 0.4432,0.8286 -0.80934,0.8286 -0.63591,0 -1.15619,-0.0578 -1.15619,-0.15416 0,-0.0771 0.13489,-0.34685 0.30832,-0.57809 0.34685,-0.50102 1.15619,-0.55883 1.65721,-0.0964 z"
     id="path356"
     style="stroke-width:0.0192699" />
  <path
     d="m 91.237678,90.412138 c -0.7708,0.23123 -1.09839,0.55882 -1.50305,1.44524 -0.46248,0.98276 -0.46248,2.29311 0,3.29514 0.46248,1.04058 1.42597,1.50306 2.77486,1.36816 0.80933,-0.0771 1.07911,-0.19269 1.61867,-0.79006 0.34685,-0.36612 0.6359,-0.86714 0.6359,-1.07911 0,-0.32759 -0.13488,-0.3854 -0.73225,-0.3854 -0.61664,0 -0.79006,0.0964 -0.96349,0.48175 -0.15417,0.34686 -0.36613,0.48174 -0.7708,0.48174 -0.84788,0 -1.19473,-0.52028 -1.19473,-1.79209 0,-1.19473 0.42393,-1.86918 1.13692,-1.86918 0.3854,0 0.98276,0.48175 0.98276,0.79006 0,0.0964 0.3854,0.17343 0.84788,0.17343 h 0.86714 l -0.17343,-0.59736 c -0.2505,-0.86715 -0.67444,-1.25254 -1.63793,-1.50306 -0.9635,-0.2505 -1.13693,-0.2505 -1.88845,-0.0193 z"
     id="path358"
     style="stroke-width:0.0192699" />
  <path
     d="m 80.311658,93.899988 c 0,3.31441 -0.0193,3.48784 -0.3854,3.58419 -0.26978,0.0771 -0.3854,0.26978 -0.3854,0.63591 0,0.61663 0.23124,0.75152 1.11766,0.6359 1.11765,-0.17342 1.19473,-0.48175 1.19473,-4.62477 v -3.71908 h -0.7708 -0.77079 z"
     id="path458"
     style="stroke-width:0.0192699" />
</svg>
