<?xml version="1.0" encoding="UTF-8" standalone="no"?>
<!-- Created with Inkscape (http://www.inkscape.org/) -->

<svg
   width="100mm"
   height="100mm"
   viewBox="0 0 100 100"
   version="1.1"
   id="svg26768"
   sodipodi:docname="data model.svg"
   inkscape:version="1.2.1 (9c6d41e410, 2022-07-14)"
   xmlns:inkscape="http://www.inkscape.org/namespaces/inkscape"
   xmlns:sodipodi="http://sodipodi.sourceforge.net/DTD/sodipodi-0.dtd"
   xmlns="http://www.w3.org/2000/svg"
   xmlns:svg="http://www.w3.org/2000/svg">
  <sodipodi:namedview
     id="namedview12294"
     pagecolor="#ffffff"
     bordercolor="#666666"
     borderopacity="1.0"
     inkscape:showpageshadow="2"
     inkscape:pageopacity="0.0"
     inkscape:pagecheckerboard="0"
     inkscape:deskcolor="#d1d1d1"
     inkscape:document-units="mm"
     showgrid="false"
     inkscape:zoom="0.77548253"
     inkscape:cx="588.02098"
     inkscape:cy="194.71747"
     inkscape:window-width="1920"
     inkscape:window-height="1009"
     inkscape:window-x="1912"
     inkscape:window-y="-8"
     inkscape:window-maximized="1"
     inkscape:current-layer="svg26768" />
  <defs
     id="defs26765" />
  <path
     d="M 16.08776,2.6606801 15.711815,2.9170023 V 39.725438 c 0,33.21987 0.03417,36.825516 0.273414,37.064757 0.358857,0.358862 1.144924,0.341772 1.486692,-0.0342 0.273415,-0.290502 0.290503,-2.375286 0.32468,-25.598437 l 0.05126,-25.273756 5.126523,-0.08545 5.126523,-0.08545 0.222149,-0.495564 c 0.22215,-0.427213 0.205062,-0.529743 -0.08544,-0.939866 l -0.341769,-0.444318 -5.075257,-0.05125 -5.058169,-0.0342 V 17.33955 10.931396 l 5.058169,-0.0342 5.075257,-0.05125 0.341768,-0.444302 c 0.290503,-0.4101231 0.307592,-0.5126538 0.08544,-0.9398575 L 28.100906,8.966223 22.974383,8.880773 17.84786,8.795323 17.76242,5.839032 C 17.67698,3.1561538 17.642802,2.8485618 17.352299,2.6264104 16.925088,2.3188184 16.566232,2.3188184 16.087756,2.6606083 Z"
     id="path56"
     style="stroke-width:0.0170884" />
  <path
     d="M 33.517937,5.0872277 C 32.902754,5.6511509 32.817312,5.958743 32.766048,7.599225 l -0.05127,1.1961883 -1.05948,0.051252 -1.076569,0.051252 v 1.0082169 1.0253068 h 1.110748 1.110744 v 1.45251 c 0,1.41834 0.0171,1.46961 0.581008,2.101875 l 0.581004,0.632274 6.0493,0.05125 6.049298,0.05125 0.581004,-0.393033 c 0.820245,-0.563914 1.025307,-1.042397 1.025307,-2.580348 v -1.315805 h 1.110748 1.110739 V 9.9061071 8.8978902 L 48.829151,8.8466382 47.752583,8.7953862 47.667133,7.3428756 C 47.496242,4.5403762 47.701333,4.608727 40.096966,4.608727 h -6.066389 z m 12.115682,3.2297121 c 0.03411,0.9227762 0.03411,2.3582062 -0.01705,3.2126222 l -0.08545,1.53796 h -5.297406 -5.297406 l -0.08544,-1.53796 c -0.05127,-0.854416 -0.06835,-2.289846 -0.0171,-3.2126222 l 0.06835,-1.6575719 h 5.331584 5.348668 z"
     id="path68"
     style="stroke-width:0.0170884" />
  <path
     d="m 37.072327,9.9061609 c 0,0.3246821 0.119617,0.3417721 3.161356,0.3417721 3.041735,0 3.161356,-0.01705 3.161356,-0.3417721 0,-0.324673 -0.119621,-0.3417629 -3.161356,-0.3417629 -3.041739,0 -3.161356,0.017054 -3.161356,0.3417629 z"
     id="path70"
     style="stroke-width:0.0170884" />
  <path
     d="m 34.064767,19.646558 c -0.187975,0.06831 -0.563919,0.375943 -0.803158,0.683535 -0.427208,0.495564 -0.461386,0.666445 -0.461386,1.982254 v 1.43543 h -1.110744 -1.110748 v 1.025306 1.008208 l 1.076569,0.05125 1.059479,0.05125 0.08544,1.45252 c 0.170885,2.802499 -0.0171,2.734148 7.433461,2.734148 6.493596,0 6.664477,-0.01705 7.177139,-1.025307 0.170873,-0.324682 0.256323,-0.974037 0.256323,-1.879723 v -1.367075 h 1.110748 1.110739 V 24.773057 23.74775 H 48.77789 47.667143 v -1.332899 c 0,-1.503781 -0.205062,-1.999344 -1.008217,-2.546168 -0.581004,-0.393033 -0.615184,-0.393033 -6.408156,-0.375952 -3.212624,0 -5.980947,0.0684 -6.186006,0.1538 z m 11.551762,3.503124 c 0.05125,0.837327 0.05125,2.289846 0.01714,3.195533 l -0.05125,1.674662 H 40.233745 34.88507 l -0.06835,-1.589222 c -0.03415,-0.854416 -0.03415,-2.324026 0.0171,-3.246802 l 0.05126,-1.657572 5.331585,0.0342 5.314494,0.05125 z"
     id="path116"
     style="stroke-width:0.0170884" />
  <path
     d="m 37.072327,24.773083 c 0,0.324673 0.119617,0.341763 3.161356,0.341763 3.041735,0 3.161356,-0.01705 3.161356,-0.341763 0,-0.324682 -0.119621,-0.341772 -3.161356,-0.341772 -3.041739,0 -3.161356,0.01705 -3.161356,0.341772 z"
     id="path118"
     style="stroke-width:0.0170884" />
  <path
     d="m 35.431838,32.428687 c -0.581003,0.375943 -0.581003,0.683535 -0.581003,22.368726 0,24.026306 -0.08544,22.334554 1.162012,22.232024 0.939859,-0.08545 1.05948,-0.444303 1.05948,-3.605655 v -2.682879 h 4.955641 c 4.733488,0 4.972721,-0.01705 5.297403,-0.341772 0.427212,-0.427204 0.444302,-1.059478 0.03411,-1.41834 -0.273412,-0.256322 -0.905686,-0.290493 -5.297406,-0.290493 H 37.072258 V 55.78854 42.886799 h 5.006904 c 4.648043,0 5.041076,-0.01714 5.297407,-0.307592 0.393033,-0.427213 0.358853,-0.991127 -0.05125,-1.401259 -0.324682,-0.324673 -0.563923,-0.341763 -5.29741,-0.341763 h -4.95564 v -3.827806 c 0,-3.605655 -0.0171,-3.844887 -0.358855,-4.2721 -0.341771,-0.427213 -0.905689,-0.563914 -1.281634,-0.307592 z"
     id="path122"
     style="stroke-width:0.0170884" />
  <path
     d="m 52.99872,36.905848 c -0.751885,0.461384 -1.059477,1.264548 -1.059477,2.734149 v 1.196188 h -1.025307 -1.025307 v 1.025307 1.025307 h 1.025307 1.025307 v 1.196179 c 0,1.38416 0.273412,2.187325 0.939866,2.699969 0.461383,0.375952 0.581004,0.375952 6.596126,0.375952 h 6.100562 l 0.529734,-0.444303 c 0.615184,-0.512653 0.871507,-1.315809 0.871507,-2.768319 v -1.059478 h 1.025306 1.025307 v -1.025307 -1.025307 h -1.008217 -0.991127 l -0.08545,-1.418339 c -0.05125,-0.991127 -0.170882,-1.537952 -0.393033,-1.896814 -0.598094,-0.922776 -0.905686,-0.956947 -7.21131,-0.956947 -5.485378,0 -5.81006,0.01705 -6.339804,0.341763 z m 11.825182,3.195533 c 0.05125,0.837335 0.102531,1.623401 0.102531,1.760111 0,0.136702 -0.05125,0.922767 -0.102531,1.743013 l -0.10253,1.50378 h -5.263227 -5.246146 l -0.119612,-1.50378 c -0.0684,-0.820246 -0.10254,-1.606311 -0.10254,-1.743013 0,-0.13671 0.0342,-0.922776 0.10254,-1.760111 l 0.119612,-1.486691 h 5.246146 5.263227 z"
     id="path124"
     style="stroke-width:0.0170884" />
  <path
     d="m 56.211343,41.861492 c 0,0.324673 0.10253,0.341763 3.263892,0.341763 3.00756,0 3.246793,-0.01714 3.195523,-0.307592 -0.05125,-0.256322 -0.358853,-0.290502 -3.263883,-0.341763 -3.110092,-0.03411 -3.195532,-0.03411 -3.195532,0.307592 z"
     id="path126"
     style="stroke-width:0.0170884" />
  <path
     d="m 54.536681,49.653806 c -0.375943,0.256323 -0.375943,0.290502 -0.375943,5.023995 0,4.101209 0.0342,4.801834 0.273412,5.023986 0.222151,0.239241 1.110748,0.273421 7.142959,0.273421 6.459415,0 6.903718,-0.01705 7.16004,-0.307592 0.393033,-0.427213 0.358853,-0.991127 -0.05125,-1.40125 -0.324673,-0.324682 -0.563914,-0.341772 -6.408154,-0.341772 h -6.066382 v -3.930337 c 0,-3.708177 -0.01705,-3.947418 -0.341763,-4.2721 -0.410123,-0.410123 -0.820246,-0.427213 -1.332899,-0.0684 z"
     id="path132"
     style="stroke-width:0.0170884" />
  <path
     d="m 74.359229,53.994257 c -0.751886,0.461384 -1.059478,1.264548 -1.059478,2.734149 v 1.196188 h -1.025298 -1.025306 v 1.025307 1.025307 h 1.025306 1.025298 v 1.196179 c 0,1.384169 0.273421,2.187324 0.939866,2.699969 0.461384,0.375952 0.581005,0.375952 6.596126,0.375952 h 6.100563 l 0.529743,-0.444303 c 0.615175,-0.512653 0.871506,-1.315809 0.871506,-2.76832 v -1.059477 h 1.025307 1.025298 v -1.025307 -1.025307 h -1.008217 -0.991127 l -0.08545,-1.41834 c -0.05125,-0.991127 -0.170881,-1.537951 -0.393032,-1.896813 -0.598095,-0.922776 -0.905687,-0.956947 -7.21131,-0.956947 -5.485379,0 -5.810052,0.01714 -6.339804,0.341763 z m 11.825191,3.195532 c 0.05125,0.837336 0.102531,1.623401 0.102531,1.760112 0,0.136701 -0.05125,0.922767 -0.102531,1.743013 l -0.10254,1.50378 h -5.263227 -5.246137 l -0.11962,-1.50378 c -0.0684,-0.820246 -0.102531,-1.606312 -0.102531,-1.743013 0,-0.136711 0.0342,-0.922776 0.102531,-1.760112 l 0.11962,-1.48669 h 5.246137 5.263227 z"
     id="path134"
     style="stroke-width:0.0170884" />
  <path
     d="m 77.57186,58.949901 c 0,0.324682 0.102522,0.341763 3.263883,0.341763 3.007561,0 3.246793,-0.01705 3.195532,-0.307583 -0.05125,-0.256331 -0.358861,-0.290511 -3.263883,-0.341772 -3.110091,-0.0342 -3.195532,-0.0342 -3.195532,0.307592 z"
     id="path136"
     style="stroke-width:0.0170884" />
  <path
     d="m 52.89619,64.777042 c -0.717706,0.563923 -0.956947,1.196197 -0.956947,2.631618 v 1.281638 h -1.025307 -1.025307 v 1.025298 1.025307 h 1.025307 1.025307 v 1.230368 c 0,1.520861 0.341763,2.324017 1.196188,2.73414 0.529743,0.273412 1.213278,0.307592 6.288534,0.307592 4.853104,0 5.79297,-0.03411 6.271444,-0.273412 0.888596,-0.410123 1.162017,-0.991127 1.247458,-2.597438 l 0.08545,-1.40125 h 0.991127 1.008217 v -1.025307 -1.025298 h -1.025307 -1.025306 v -1.076577 c 0,-1.435429 -0.256323,-2.238576 -0.871507,-2.751238 l -0.529734,-0.444294 h -6.100562 c -5.946771,0 -6.134743,0.01705 -6.579045,0.358853 z m 11.927712,3.178451 c 0.05125,0.837327 0.102531,1.623392 0.102531,1.760103 0,0.136702 -0.05125,0.922776 -0.102531,1.743022 l -0.10253,1.50378 h -5.263227 -5.246146 l -0.119612,-1.50378 c -0.0684,-0.820246 -0.10254,-1.60632 -0.10254,-1.743022 0,-0.136711 0.0342,-0.922776 0.10254,-1.760103 l 0.119612,-1.486699 h 5.246146 5.263227 z"
     id="path138"
     style="stroke-width:0.0170884" />
  <path
     d="m 56.211343,69.715596 c 0,0.341772 0.08545,0.341772 3.195532,0.307592 2.90503,-0.05125 3.212622,-0.08545 3.263883,-0.358853 0.05125,-0.273421 -0.187963,-0.290502 -3.195523,-0.290502 -3.161362,0 -3.263892,0.01714 -3.263892,0.341763 z"
     id="path140"
     style="stroke-width:0.0170884" />
  <path
     d="m 26.990165,94.339997 v 3.605646 l 2.118963,-0.06831 c 1.845548,-0.05125 2.187316,-0.102522 2.614524,-0.410114 1.452515,-1.076577 1.845549,-3.861986 0.768979,-5.519567 -0.632267,-0.974037 -1.332893,-1.21327 -3.622741,-1.21327 h -1.879725 z m 3.588566,-2.255675 c 0.581007,0.1538 1.025305,1.093657 1.025305,2.153144 0,1.008217 -0.427213,1.965164 -1.025305,2.255666 -0.239238,0.119621 -0.786066,0.222151 -1.230365,0.222151 H 28.528122 V 94.322907 91.93053 l 0.820244,0.01714 c 0.444299,0.01705 0.991127,0.06831 1.230365,0.13671 z"
     id="path230"
     style="stroke-width:0.0170884" />
  <path
     d="m 51.426589,94.322907 v 3.588565 h 0.683544 0.683535 l 0.01705,-2.870851 c 0,-1.589221 0.06831,-2.699968 0.136711,-2.511997 0.08545,0.187972 0.393032,1.469601 0.700624,2.85376 l 0.563915,2.529088 h 0.734804 0.717706 l 0.341772,-1.503781 c 0.187972,-0.820245 0.478474,-2.101874 0.666445,-2.85376 l 0.307592,-1.367079 0.05125,2.853769 0.0342,2.870851 h 0.683535 0.683535 v -3.588565 -3.588565 h -1.110739 c -0.615184,0 -1.110756,0.05125 -1.110756,0.11962 -0.01705,0.256322 -1.17909,5.211957 -1.23036,5.280317 -0.05125,0.0342 -0.290502,-0.871515 -0.546833,-2.033524 -0.256322,-1.144927 -0.546824,-2.375286 -0.632265,-2.734148 L 53.630977,90.734342 H 52.53731 51.426562 Z"
     id="path232"
     style="stroke-width:0.0170884" />
  <path
     d="m 69.198542,91.93053 v 1.196188 l -0.546834,-0.341772 c -0.734804,-0.444293 -1.315808,-0.427212 -2.033523,0.05125 -0.768976,0.512654 -1.179099,1.36707 -1.179099,2.477818 0,2.136054 1.640491,3.383503 3.212622,2.426556 0.444294,-0.273412 0.546834,-0.290502 0.546834,-0.08545 0,0.18798 0.187962,0.256331 0.683535,0.256331 h 0.683535 v -3.588565 -3.588565 h -0.683535 -0.683535 z m -0.358862,2.136054 c 0.136702,0.136702 0.273412,0.598086 0.307592,1.059478 0.06831,0.666445 0.01705,0.905686 -0.290502,1.281629 -0.991127,1.281629 -2.443647,-0.11962 -1.879732,-1.828462 0.290511,-0.905686 1.196197,-1.144919 1.862642,-0.512645 z"
     id="path234"
     style="stroke-width:0.0170884" />
  <path
     d="m 77.40097,94.322907 v 3.588565 h 0.683535 0.683544 V 94.322907 90.734342 H 78.084505 77.40097 Z"
     id="path236"
     style="stroke-width:0.0170884" />
  <path
     d="m 39.977356,91.93053 c 0,0.563914 -0.05126,0.683535 -0.341766,0.683535 -0.273418,0 -0.34177,0.119621 -0.34177,0.512653 0,0.393033 0.06835,0.512645 0.34177,0.512645 0.324676,0 0.341766,0.119629 0.341766,1.862642 0,2.221495 0.102531,2.409467 1.38416,2.409467 0.820248,0 0.837332,-0.01714 0.837332,-0.512654 0,-0.427212 -0.06835,-0.512653 -0.427208,-0.512653 -0.427213,0 -0.427213,0 -0.427213,-1.623401 0,-1.623401 0,-1.623401 0.427213,-1.623401 0.358855,0 0.427208,-0.08545 0.427208,-0.512645 0,-0.427212 -0.06835,-0.512653 -0.427208,-0.512653 -0.375945,0 -0.427213,-0.0684 -0.427213,-0.683535 v -0.683544 h -0.683536 -0.683535 z"
     id="path286"
     style="stroke-width:0.0170884" />
  <path
     d="m 35.090073,92.682416 c -0.598098,0.256331 -1.093659,0.871515 -1.093659,1.332899 0,0.461392 1.213276,0.427212 1.503778,-0.0342 0.256327,-0.427204 1.349987,-0.478474 1.503782,-0.08545 0.170885,0.444294 -0.239238,0.717715 -1.247455,0.854416 -1.247454,0.153801 -1.93099,0.768985 -1.93099,1.743022 0.0171,1.40125 1.40125,2.033524 2.699969,1.247449 0.478476,-0.290502 0.563918,-0.307583 0.649361,-0.08545 0.06835,0.17089 0.341766,0.256331 0.888595,0.256331 0.615183,0 0.7348,-0.05125 0.581005,-0.205062 -0.136707,-0.13671 -0.20506,-0.888596 -0.20506,-2.221495 0,-2.272756 -0.119617,-2.529087 -1.315808,-2.853769 -0.854421,-0.239232 -1.384161,-0.222142 -2.033518,0.05125 z m 1.811369,3.708185 c -0.324681,0.751895 -1.384161,0.905687 -1.657573,0.222152 -0.170886,-0.461384 0.187969,-0.820246 0.991126,-1.008217 0.871506,-0.222152 1.008217,-0.05125 0.666447,0.786065 z"
     id="path340"
     style="stroke-width:0.0170884" />
  <path
     d="m 43.976043,92.682416 c -0.598093,0.256331 -1.093659,0.871515 -1.093659,1.332899 0,0.461392 1.213281,0.427212 1.503786,-0.0342 0.256322,-0.427204 1.34998,-0.478474 1.503771,-0.08545 0.170891,0.444294 -0.239232,0.717715 -1.247449,0.854416 -1.247453,0.153801 -1.930989,0.768985 -1.930989,1.743022 0.0171,1.40125 1.401246,2.033524 2.699974,1.247449 0.478464,-0.290502 0.563914,-0.307583 0.649355,-0.08545 0.06831,0.17089 0.341772,0.256331 0.888596,0.256331 0.615184,0 0.734805,-0.05125 0.581004,-0.205062 -0.136701,-0.13671 -0.205061,-0.888596 -0.205061,-2.221495 0,-2.272756 -0.119621,-2.529087 -1.315809,-2.853769 -0.854417,-0.239232 -1.38416,-0.222142 -2.033519,0.05125 z m 1.811376,3.708185 c -0.324682,0.751895 -1.384159,0.905687 -1.65758,0.222152 -0.170886,-0.461384 0.187971,-0.820246 0.991126,-1.008217 0.871516,-0.222152 1.008217,-0.05125 0.666454,0.786065 z"
     id="path342"
     style="stroke-width:0.0170884" />
  <path
     d="m 60.825214,92.733686 c -0.734795,0.375942 -1.367069,1.555041 -1.367069,2.529078 0,0.375943 0.170881,1.042397 0.393032,1.452519 0.495564,1.008217 1.247459,1.40125 2.477818,1.315809 1.55505,-0.11962 2.477826,-1.144927 2.477826,-2.768328 0,-1.623401 -0.922776,-2.648699 -2.477826,-2.76832 -0.649364,-0.05125 -1.076568,0.01705 -1.503781,0.239242 z m 2.204406,1.349979 c 0.820245,1.042397 0.239241,2.8025 -0.922776,2.8025 -0.632266,0 -0.888597,-0.239241 -1.110748,-1.042388 -0.205052,-0.683535 0.05125,-1.777193 0.478482,-2.016434 0.546825,-0.324682 1.179099,-0.205061 1.555042,0.256322 z"
     id="path344"
     style="stroke-width:0.0170884" />
  <path
     d="m 72.872548,92.784946 c -0.393033,0.187972 -0.837336,0.581005 -1.025307,0.888597 -0.410123,0.717714 -0.427213,2.392376 -0.03411,3.161361 0.529743,0.991127 2.272756,1.555041 3.246793,1.059478 0.546833,-0.290502 1.315809,-1.042388 1.315809,-1.298719 0,-0.324682 -1.264539,-0.290502 -1.537952,0.0342 -0.495563,0.598094 -1.879723,0.11962 -1.879723,-0.649364 0,-0.256323 0.239232,-0.290503 1.811364,-0.290503 h 1.828462 l -0.119621,-0.803155 c -0.136701,-1.042388 -0.563914,-1.725923 -1.298719,-2.118956 -0.768975,-0.410122 -1.45251,-0.410122 -2.306936,0.01705 z m 1.828453,1.144928 c 0.581004,0.529743 0.393033,0.734796 -0.717715,0.734796 -0.563914,0 -1.025298,-0.05125 -1.025298,-0.136702 0,-0.06831 0.119621,-0.307592 0.273412,-0.512653 0.307593,-0.444303 1.025307,-0.495564 1.469601,-0.08545 z"
     id="path346"
     style="stroke-width:0.0170884" />
</svg>
