<?xml version="1.0" encoding="UTF-8" standalone="no"?>
<!-- Created with Inkscape (http://www.inkscape.org/) -->

<svg
   width="100mm"
   height="100mm"
   viewBox="0 0 100 100"
   version="1.1"
   id="svg26768"
   sodipodi:docname="deployer.svg"
   inkscape:version="1.1.1 (3bf5ae0d25, 2021-09-20)"
   xmlns:inkscape="http://www.inkscape.org/namespaces/inkscape"
   xmlns:sodipodi="http://sodipodi.sourceforge.net/DTD/sodipodi-0.dtd"
   xmlns="http://www.w3.org/2000/svg"
   xmlns:svg="http://www.w3.org/2000/svg">
  <sodipodi:namedview
     id="namedview26770"
     pagecolor="#ffffff"
     bordercolor="#666666"
     borderopacity="1.0"
     inkscape:pageshadow="2"
     inkscape:pageopacity="0.0"
     inkscape:pagecheckerboard="0"
     inkscape:document-units="mm"
     showgrid="false"
     width="209mm"
     inkscape:zoom="0.7500982"
     inkscape:cx="13.998167"
     inkscape:cy="135.31562"
     inkscape:window-width="1920"
     inkscape:window-height="1027"
     inkscape:window-x="1912"
     inkscape:window-y="-8"
     inkscape:window-maximized="1"
     inkscape:current-layer="layer1" />
  <defs
     id="defs26765" />
  <g
     inkscape:label="Layer 1"
     inkscape:groupmode="layer"
     id="layer1">
    <path
       d="m 64.270206,2.0936895 c -1.388497,0.6327329 -1.37092,0.47455 -1.406073,9.2273495 l -0.01758,7.715828 -4.376401,4.376398 -4.358825,4.358829 H 34.391161 14.653416 v 1.230308 1.230317 h 20.335325 20.335324 l 4.798224,-4.92126 4.815798,-4.903671 7.417033,-0.05276 c 8.243102,-0.05276 7.997038,-0.01762 8.752803,-1.247897 0.316365,-0.544853 0.333942,-0.878796 0.29879,-8.243091 L 81.353986,3.2009404 80.914587,2.7263905 C 80.035793,1.7772917 79.930336,1.7597156 72.179361,1.7597156 c -6.661269,0 -7.223697,0.035158 -7.909158,0.333942 z M 78.98124,11.074981 v 6.854602 H 72.214517 65.447792 V 11.074981 4.2203745 h 6.766725 6.766723 z"
       id="path7997"
       style="stroke-width:0.0175759" />
    <path
       d="m 69.314492,29.301196 c -0.333943,0.175761 -0.790916,0.58 -1.001827,0.913943 -0.38667,0.562433 -0.404246,0.773341 -0.404246,3.462455 v 2.882454 h -26.6275 -26.6275 v 1.230307 1.230318 h 26.6275 26.6275 v 3.462454 c 0,3.14608 0.03515,3.532751 0.351518,4.042455 0.667884,1.124863 0.597581,1.107283 9.034016,1.107283 h 7.64552 l 0.632733,-0.544852 c 0.369095,-0.316364 0.68546,-0.808488 0.790917,-1.230318 0.12303,-0.439397 0.175758,-3.216386 0.140606,-7.874 -0.05273,-6.960067 -0.07031,-7.206123 -0.421822,-7.680669 -0.193334,-0.263647 -0.580005,-0.650318 -0.843643,-0.843647 -0.47455,-0.351523 -0.720612,-0.369092 -7.891584,-0.421819 -6.801875,-0.03514 -7.46976,-0.01762 -8.032188,0.263636 z m 14.588003,9.016443 V 45.17224 H 77.13577 70.369046 v -6.854601 -6.854613 h 6.766724 6.766725 z"
       id="path8035"
       style="stroke-width:0.0175759" />
    <path
       d="m 14.653419,46.402548 v 1.230317 H 29.909307 45.14762 l 4.534584,4.534581 4.517007,4.51701 0.05273,7.645522 0.03515,7.645522 0.421822,0.59758 c 0.755763,1.054556 0.843643,1.072125 8.84068,1.072125 8.084918,0 8.067341,0 8.875833,-1.212738 l 0.404247,-0.59758 v -7.399454 c 0,-8.155216 0,-8.155216 -1.107283,-8.963715 -0.492125,-0.351512 -0.738187,-0.369091 -8.102493,-0.421819 l -7.592791,-0.05276 -4.903679,-4.903681 -4.921254,-4.92125 H 30.436579 14.653415 Z m 55.715627,17.839555 v 6.766716 h -6.854604 -6.854604 v -6.643693 c 0,-3.655784 0.05273,-6.713989 0.123032,-6.766716 0.05273,-0.07028 3.146087,-0.123034 6.854603,-0.123034 h 6.731573 z"
       id="path8047"
       style="stroke-width:0.0175759" />
    <path
       d="m 29.241423,93.172044 v 3.708512 l 2.179412,-0.07027 c 1.898197,-0.05276 2.249716,-0.105412 2.689114,-0.421819 1.493952,-1.107283 1.898199,-3.972147 0.790916,-5.677022 -0.650309,-1.001818 -1.370921,-1.247886 -3.726092,-1.247886 h -1.93335 z m 3.69094,-2.320022 c 0.597581,0.158182 1.054555,1.124852 1.054555,2.214567 0,1.036978 -0.439398,2.021228 -1.054555,2.320013 -0.246062,0.123034 -0.808492,0.228488 -1.265465,0.228488 H 30.823255 V 93.154465 90.69384 l 0.843643,0.01762 c 0.456973,0.01762 1.019403,0.07027 1.265465,0.140614 z"
       id="path8165"
       style="stroke-width:0.0175759" />
    <path
       d="m 48.57492,93.154465 v 3.690942 h 0.703037 0.703036 V 93.154465 89.463522 H 49.277957 48.57492 Z"
       id="path8167"
       style="stroke-width:0.0175759" />
    <path
       d="m 37.589978,91.572635 c -0.404246,0.19333 -0.861219,0.59758 -1.054554,0.913944 -0.421821,0.738192 -0.439397,2.460624 -0.03516,3.251545 0.544853,1.019398 2.337596,1.599409 3.339423,1.089705 0.562429,-0.298785 1.353344,-1.072126 1.353344,-1.335773 0,-0.333943 -1.300617,-0.298785 -1.581831,0.03514 -0.509702,0.61516 -1.93335,0.123024 -1.93335,-0.667886 0,-0.263637 0.246062,-0.298795 1.863047,-0.298795 h 1.880621 l -0.123032,-0.826068 c -0.140607,-1.072125 -0.580005,-1.77516 -1.335769,-2.17941 -0.790916,-0.421817 -1.493952,-0.421817 -2.372747,0.01762 z m 1.880622,1.177591 c 0.597581,0.544852 0.404247,0.755761 -0.738187,0.755761 -0.580006,0 -1.054555,-0.05276 -1.054555,-0.140613 0,-0.07028 0.123031,-0.316364 0.281216,-0.527273 0.316365,-0.456977 1.054552,-0.509704 1.511526,-0.0879 z"
       id="path8301"
       style="stroke-width:0.0175759" />
    <path
       d="m 44.532461,91.414454 c -0.228486,0.0879 -0.580004,0.298784 -0.738187,0.456977 -0.298791,0.263625 -0.316365,0.263625 -0.316365,-0.0879 0,-0.316364 -0.105456,-0.386671 -0.615159,-0.386671 h -0.615156 v 3.778818 3.778819 h 0.703036 0.703037 v -1.353342 c 0,-1.300613 0.01757,-1.335772 0.333943,-1.036977 0.826066,0.755762 2.425475,0.369092 3.058206,-0.720613 0.421822,-0.738182 0.456975,-2.583659 0.05273,-3.357 -0.492126,-0.966671 -1.669712,-1.441227 -2.566084,-1.072125 z m 1.107283,1.599398 c 0.703037,0.808499 0.123031,2.776999 -0.826068,2.776999 -1.001827,0 -1.564255,-1.142431 -1.160009,-2.37275 0.333943,-0.98425 1.300617,-1.195159 1.986077,-0.404249 z"
       id="path8303"
       style="stroke-width:0.0175759" />
    <path
       d="m 52.44162,91.519908 c -0.755763,0.38667 -1.406073,1.599409 -1.406073,2.601228 0,0.386681 0.175759,1.072135 0.404247,1.493954 0.509701,1.036977 1.283041,1.441227 2.548507,1.353341 1.599406,-0.123024 2.548505,-1.17758 2.548505,-2.847295 0,-1.669705 -0.949099,-2.724262 -2.548505,-2.847296 -0.667886,-0.05276 -1.107283,0.01762 -1.546681,0.246068 z m 2.267292,1.3885 c 0.843645,1.072125 0.246064,2.882443 -0.949099,2.882443 -0.650308,0 -0.913946,-0.246068 -1.142433,-1.072126 -0.210911,-0.703033 0.05273,-1.827897 0.492125,-2.073965 0.562428,-0.333943 1.212738,-0.210909 1.599407,0.263648 z"
       id="path8305"
       style="stroke-width:0.0175759" />
    <path
       d="m 64.305358,91.572635 c -0.404246,0.19333 -0.86122,0.59758 -1.054554,0.913944 -0.421822,0.738192 -0.439399,2.460624 -0.03515,3.251545 0.544854,1.019398 2.337596,1.599409 3.339423,1.089705 0.562428,-0.298785 1.353345,-1.072126 1.353345,-1.335773 0,-0.333943 -1.300618,-0.298785 -1.581833,0.03514 -0.509701,0.61516 -1.933349,0.123024 -1.933349,-0.667886 0,-0.263637 0.246063,-0.298795 1.863046,-0.298795 h 1.880623 l -0.123032,-0.826068 c -0.140608,-1.072125 -0.580005,-1.77516 -1.335769,-2.17941 -0.790916,-0.421817 -1.493953,-0.421817 -2.372748,0.01762 z m 1.880622,1.177591 c 0.597581,0.544852 0.404245,0.755761 -0.738188,0.755761 -0.580005,0 -1.054554,-0.05276 -1.054554,-0.140613 0,-0.07028 0.123031,-0.316364 0.281214,-0.527273 0.316366,-0.456977 1.054554,-0.509704 1.511528,-0.0879 z"
       id="path8307"
       style="stroke-width:0.0175759" />
    <path
       d="m 71.300569,91.48476 c -0.316366,0.140602 -0.580004,0.333933 -0.580004,0.439387 0,0.0879 -0.0703,0.175761 -0.17576,0.175761 -0.08788,0 -0.175759,-0.158181 -0.175759,-0.351512 0,-0.281215 -0.123032,-0.351522 -0.615157,-0.351522 h -0.615157 v 2.724262 2.724271 h 0.703037 0.703036 v -1.634556 c 0,-1.880624 0.193334,-2.302443 1.142434,-2.478204 0.580005,-0.123034 0.615157,-0.158182 0.615157,-0.8085 0,-0.773331 -0.123032,-0.826058 -1.001827,-0.439387 z"
       id="path8309"
       style="stroke-width:0.0175759" />
    <path
       d="m 57.187115,91.502328 c 0,0.05276 0.439397,1.335773 0.966675,2.864875 0.790915,2.214568 0.949099,2.812148 0.808492,3.128512 -0.123032,0.263636 -0.333942,0.404249 -0.632733,0.404249 -0.369094,0 -0.439397,0.0879 -0.439397,0.527273 0,0.298796 0.105454,0.580011 0.246062,0.632739 0.421822,0.158181 1.669712,-0.281216 1.880623,-0.650318 0.21091,-0.404239 2.44305,-6.678841 2.44305,-6.88975 0,-0.0879 -0.333942,-0.123034 -0.738188,-0.0879 l -0.738188,0.05276 -0.527277,1.898193 c -0.281215,1.036978 -0.580006,1.792738 -0.632733,1.669716 -0.0703,-0.123034 -0.351518,-1.00183 -0.615156,-1.950931 L 58.716219,91.396885 H 57.94288 c -0.404247,0 -0.755765,0.05276 -0.755765,0.105412 z"
       id="path8337"
       style="stroke-width:0.0175759" />
  </g>
</svg>
