<?xml version="1.0" encoding="UTF-8" standalone="no"?>
<!-- Created with Inkscape (http://www.inkscape.org/) -->

<svg
   width="100mm"
   height="100mm"
   viewBox="0 0 100 100"
   version="1.1"
   id="svg26768"
   sodipodi:docname="deployment server.svg"
   inkscape:version="1.1.1 (3bf5ae0d25, 2021-09-20)"
   xmlns:inkscape="http://www.inkscape.org/namespaces/inkscape"
   xmlns:sodipodi="http://sodipodi.sourceforge.net/DTD/sodipodi-0.dtd"
   xmlns="http://www.w3.org/2000/svg"
   xmlns:svg="http://www.w3.org/2000/svg">
  <sodipodi:namedview
     id="namedview26770"
     pagecolor="#ffffff"
     bordercolor="#666666"
     borderopacity="1.0"
     inkscape:pageshadow="2"
     inkscape:pageopacity="0.0"
     inkscape:pagecheckerboard="0"
     inkscape:document-units="mm"
     showgrid="false"
     width="209mm"
     inkscape:zoom="0.7500982"
     inkscape:cx="13.998167"
     inkscape:cy="135.31562"
     inkscape:window-width="1920"
     inkscape:window-height="1027"
     inkscape:window-x="1912"
     inkscape:window-y="-8"
     inkscape:window-maximized="1"
     inkscape:current-layer="layer1" />
  <defs
     id="defs26765" />
  <g
     inkscape:label="Layer 1"
     inkscape:groupmode="layer"
     id="layer1">
    <path
       d="M 29.460394,1.7538113 C 28.16958,2.0611484 26.832665,3.136827 26.156524,4.4276408 L 25.74162,5.1959824 V 35.161312 65.12664 l 0.368804,0.768345 c 0.491739,0.968112 1.429116,1.905483 2.397226,2.397224 l 0.768342,0.368802 h 22.281911 22.281913 l 0.660771,-0.353431 c 1.029578,-0.553207 1.982324,-1.505958 2.443328,-2.474061 l 0.430272,-0.860543 V 35.238146 5.5033194 L 76.86708,4.4737409 C 76.298507,3.3058615 75.606999,2.6297209 74.377654,2.0611484 l -0.845178,-0.399538 -21.74407,-0.030733 c -12.401037,0 -21.989941,0.046103 -22.328012,0.1229339 z m 43.503513,1.84402 c 0.906639,0.1844027 1.859386,0.9373777 2.274291,1.7825528 0.276603,0.5685733 0.291967,1.398382 0.33807,22.3280119 0.03071,14.644595 -0.01538,22.082144 -0.122934,22.789018 -0.199773,1.336914 -0.553206,2.013056 -1.490584,2.888965 -1.490582,1.398382 0.445638,1.290814 -22.558515,1.290814 H 31.120012 l -0.875909,-0.430272 c -1.075679,-0.537838 -2.013056,-1.55205 -2.42796,-2.673828 -0.307336,-0.82981 -0.307336,-0.998846 -0.276603,-23.403691 L 27.58564,5.6108867 28.046646,4.9501134 C 28.538386,4.2432391 29.229893,3.7668667 30.013602,3.5824649 30.812677,3.382696 72.087996,3.3980632 72.963908,3.5978317 Z M 29.137691,54.323756 c 0.33807,0.230502 0.87591,0.537839 1.21398,0.691508 0.583939,0.261236 1.721085,0.276602 21.129397,0.276602 h 20.514729 l 1.029577,-0.507105 c 0.706871,-0.338071 1.275445,-0.783708 1.813284,-1.383015 l 0.783709,-0.875909 -0.0461,5.993065 -0.0461,5.993065 -0.430268,0.722242 c -0.445641,0.783706 -0.96811,1.198612 -1.782557,1.475215 -0.384169,0.138302 -6.146732,0.184405 -21.867004,0.184405 -23.372958,0 -21.913109,0.06149 -22.927319,-0.891275 -0.998845,-0.93738 -1.01421,-1.029578 -1.01421,-7.545119 v -5.900866 l 0.522472,0.676141 c 0.276602,0.384172 0.783709,0.875911 1.106412,1.091046 z"
       id="path65"
       style="stroke-width:0.0153668" />
    <path
       d="m 59.210588,9.5601635 c -0.906644,0.5685725 -0.968111,0.8605435 -0.968111,4.5793175 v 3.349969 l -2.658463,2.658464 -2.643096,2.643095 h -9.75794 -9.742574 l 0.906643,0.92201 0.906645,0.922011 h 9.312301 9.296936 l 2.919698,-2.919699 2.9197,-2.919698 h 3.503638 3.519005 l 0.522473,-0.522473 0.522472,-0.522473 V 14.124114 10.497541 L 67.247443,9.913601 66.72497,9.3450285 63.205965,9.2989251 c -3.273136,-0.030732 -3.534373,-0.015371 -3.995377,0.2612364 z m 6.715306,4.4717505 v 2.919698 h -2.919699 -2.919698 v -2.812131 c 0,-1.552051 0.0461,-2.873598 0.107568,-2.919699 0.0461,-0.06147 1.367649,-0.107568 2.919698,-0.107568 h 2.812131 z"
       id="path67"
       style="stroke-width:0.0153668" />
    <path
       d="m 59.210588,24.927 c -0.722242,0.461005 -0.968111,1.044945 -0.968111,2.397226 v 1.152513 H 45.764606 33.286736 l 0.906643,0.922009 0.906644,0.922011 H 46.67125 58.242477 v 1.167879 c 0,1.352281 0.261237,2.028423 0.906643,2.412594 0.384171,0.230503 0.92201,0.261236 4.010743,0.261236 h 3.565107 l 0.522473,-0.522472 0.522472,-0.522473 V 29.49095 25.864377 l -0.522472,-0.58394 -0.522473,-0.568574 -3.519005,-0.0461 c -3.273136,-0.03074 -3.534373,-0.01537 -3.995377,0.261237 z m 6.715306,4.471748 v 2.9197 h -2.919699 -2.919698 v -2.812132 c 0,-1.552049 0.0461,-2.873598 0.107568,-2.919698 0.0461,-0.06147 1.367649,-0.107568 2.919698,-0.107568 h 2.812131 z"
       id="path69"
       style="stroke-width:0.0153668" />
    <path
       d="m 34.347047,35.238146 0.906645,0.92201 h 7.007276 6.99191 l 2.581629,2.581629 2.56626,2.566261 v 3.365337 c 0,5.05569 -0.199767,4.855919 4.917389,4.855919 h 3.565106 l 0.522472,-0.522471 0.522472,-0.522473 v -3.565106 c 0,-5.117155 0.199769,-4.917387 -4.871286,-4.917387 h -3.349971 l -2.842865,-2.842864 -2.842865,-2.842865 h -8.298091 -8.282724 z m 27.737138,9.527439 v 2.919698 h -2.919698 -2.919699 v -2.81213 c 0,-1.552052 0.0461,-2.8736 0.107567,-2.9197 0.0461,-0.06147 1.36765,-0.107568 2.9197,-0.107568 h 2.81213 z"
       id="path71"
       style="stroke-width:0.0153668" />
    <path
       d="m 32.318626,59.517745 c -0.568574,0.338071 -0.968112,1.029576 -0.968112,1.644256 0,0.537837 0.476373,1.352277 0.937377,1.598147 l 0.338071,0.184405 -0.322703,-0.430275 c -0.430272,-0.553207 -0.430272,-1.029579 0.03073,-1.552053 0.276604,-0.322698 0.491739,-0.430267 0.937378,-0.430267 0.445638,0 0.660773,0.107569 0.937377,0.430267 0.461005,0.522474 0.461005,0.998846 0.03073,1.552053 l -0.322703,0.430275 0.338071,-0.184405 c 0.461004,-0.261233 0.937377,-1.075681 0.937377,-1.628888 0,-0.968103 -0.968112,-1.92085 -1.951589,-1.92085 -0.230502,0 -0.645407,0.138302 -0.92201,0.307335 z"
       id="path73"
       style="stroke-width:0.0153668" />
    <path
       d="m 26.433127,84.273719 v 3.242399 l 1.905488,-0.06149 c 1.659618,-0.04611 1.966954,-0.0922 2.351126,-0.368801 1.30618,-0.968112 1.659618,-3.472907 0.691508,-4.963494 -0.568573,-0.875905 -1.198614,-1.091043 -3.25777,-1.091043 h -1.690352 z m 3.227036,-2.028423 c 0.522472,0.138302 0.92201,0.983474 0.92201,1.936225 0,0.906639 -0.384171,1.767182 -0.92201,2.028415 -0.215136,0.107578 -0.706875,0.199776 -1.106413,0.199776 h -0.737607 v -2.151356 -2.151361 l 0.737607,0.01537 c 0.399538,0.01537 0.891277,0.06149 1.106413,0.122939 z"
       id="path269"
       style="stroke-width:0.0153668" />
    <path
       d="m 43.336647,84.258356 v 3.227037 h 0.614672 0.614674 v -3.227037 -3.227043 h -0.614674 -0.614672 z"
       id="path271"
       style="stroke-width:0.0153668" />
    <path
       d="m 74.838658,82.106995 c 0,0.507103 -0.04609,0.614672 -0.307336,0.614672 -0.245871,0 -0.307338,0.107568 -0.307338,0.461009 0,0.35343 0.06146,0.460999 0.307338,0.460999 0.291971,0 0.307336,0.10757 0.307336,1.674985 0,1.99769 0.0922,2.166733 1.244713,2.166733 0.73761,0 0.752978,-0.01537 0.752978,-0.461008 0,-0.384173 -0.06146,-0.461009 -0.384173,-0.461009 -0.384169,0 -0.384169,0 -0.384169,-1.459845 0,-1.459856 0,-1.459856 0.384169,-1.459856 0.322706,0 0.384173,-0.07685 0.384173,-0.460999 0,-0.384173 -0.06146,-0.461009 -0.384173,-0.461009 -0.33807,0 -0.384169,-0.06148 -0.384169,-0.614672 v -0.614673 h -0.614673 -0.614676 z"
       id="path311"
       style="stroke-width:0.0153668" />
    <path
       d="m 33.732375,82.87534 c -0.353438,0.169034 -0.752976,0.522465 -0.92201,0.799068 -0.368805,0.645414 -0.384172,2.151365 -0.03073,2.842873 0.476372,0.891276 2.04379,1.398379 2.919699,0.952741 0.491739,-0.261233 1.183246,-0.937378 1.183246,-1.167879 0,-0.291974 -1.137146,-0.261232 -1.383015,0.03074 -0.445639,0.537846 -1.690352,0.107569 -1.690352,-0.583939 0,-0.230501 0.215135,-0.261233 1.628885,-0.261233 h 1.644251 l -0.107568,-0.722243 c -0.122934,-0.93738 -0.507105,-1.552053 -1.167879,-1.905492 -0.691508,-0.368801 -1.306181,-0.368801 -2.074523,0.01537 z m 1.644251,1.029577 c 0.522472,0.476371 0.353437,0.660768 -0.645408,0.660768 -0.507105,0 -0.92201,-0.04611 -0.92201,-0.122932 0,-0.06148 0.107569,-0.276603 0.24587,-0.461 0.276603,-0.399543 0.92201,-0.445647 1.321548,-0.07685 z"
       id="path413"
       style="stroke-width:0.0153668" />
    <path
       d="m 39.802273,82.737029 c -0.199768,0.07685 -0.507104,0.261241 -0.645406,0.399543 -0.261236,0.230501 -0.276603,0.230501 -0.276603,-0.07685 0,-0.276604 -0.0922,-0.338069 -0.53784,-0.338069 h -0.537838 v 3.303873 3.30387 h 0.614673 0.614673 v -1.183249 c 0,-1.137147 0.01537,-1.16788 0.29197,-0.906648 0.722242,0.660776 2.120623,0.322708 2.67383,-0.630034 0.368804,-0.645405 0.399538,-2.258924 0.0461,-2.93507 -0.430271,-0.845173 -1.459849,-1.260078 -2.243558,-0.93738 z m 0.968112,1.398389 c 0.614673,0.70687 0.107568,2.427958 -0.722241,2.427958 -0.87591,0 -1.367649,-0.998837 -1.014212,-2.074519 0.29197,-0.860543 1.137147,-1.044949 1.736453,-0.353439 z"
       id="path415"
       style="stroke-width:0.0153668" />
    <path
       d="m 46.717351,82.829235 c -0.660775,0.33807 -1.229348,1.398381 -1.229348,2.274296 0,0.338069 0.153668,0.93738 0.353438,1.306181 0.445638,0.906638 1.121778,1.260078 2.22819,1.183241 1.398382,-0.10756 2.228192,-1.029577 2.228192,-2.489422 0,-1.459856 -0.82981,-2.381864 -2.228192,-2.489433 -0.583939,-0.04611 -0.96811,0.01537 -1.35228,0.215137 z m 1.982321,1.213983 c 0.737608,0.937372 0.215135,2.520158 -0.829808,2.520158 -0.568574,0 -0.799077,-0.215138 -0.998846,-0.937371 -0.184402,-0.614674 0.0461,-1.598157 0.430272,-1.813295 0.491739,-0.291965 1.060312,-0.184396 1.398382,0.230508 z"
       id="path417"
       style="stroke-width:0.0153668" />
    <path
       d="m 58.058075,82.859969 c -0.461005,0.2305 -0.58394,0.24587 -0.58394,0.07685 0,-0.153673 -0.184402,-0.215138 -0.614673,-0.215138 h -0.614674 v 2.381864 2.381862 h 0.614674 0.614673 v -1.674991 c 0,-1.567416 0.03074,-1.705718 0.33807,-1.920856 0.445638,-0.307336 0.522473,-0.307336 0.891277,0.06148 0.261235,0.261242 0.307337,0.507112 0.307337,1.920855 v 1.613527 h 0.614673 0.614673 v -1.613527 c 0,-1.413743 0.0461,-1.659613 0.307337,-1.920855 0.799076,-0.799069 1.229347,-0.138302 1.229347,1.951597 v 1.582785 h 0.614674 0.614672 V 85.65677 c 0,-2.182097 -0.107567,-2.566269 -0.860542,-2.873605 -0.660774,-0.276604 -1.21398,-0.184406 -1.705719,0.276603 l -0.338069,0.322707 -0.276604,-0.322707 c -0.414905,-0.476369 -1.091045,-0.553205 -1.767186,-0.199766 z"
       id="path419"
       style="stroke-width:0.0153668" />
    <path
       d="m 65.080719,82.87534 c -0.353438,0.169034 -0.752976,0.522465 -0.922011,0.799068 -0.368804,0.645414 -0.384171,2.151365 -0.03073,2.842873 0.476371,0.891276 2.043789,1.398379 2.919698,0.952741 0.491739,-0.261233 1.183249,-0.937378 1.183249,-1.167879 0,-0.291974 -1.137147,-0.261232 -1.383017,0.03074 -0.445639,0.537846 -1.690352,0.107569 -1.690352,-0.583939 0,-0.230501 0.215135,-0.261233 1.628884,-0.261233 h 1.644253 L 68.32313,84.765465 c -0.122938,-0.93738 -0.507109,-1.552053 -1.167883,-1.905492 -0.691507,-0.368801 -1.306181,-0.368801 -2.074522,0.01537 z m 1.644251,1.029577 c 0.522473,0.476371 0.353437,0.660768 -0.645407,0.660768 -0.507106,0 -0.92201,-0.04611 -0.92201,-0.122932 0,-0.06148 0.107568,-0.276603 0.245869,-0.461 0.276603,-0.399543 0.922011,-0.445647 1.321548,-0.07685 z"
       id="path421"
       style="stroke-width:0.0153668" />
    <path
       d="m 71.119885,82.844606 c -0.461004,0.245863 -0.583938,0.261233 -0.583938,0.0922 0,-0.153673 -0.184405,-0.215138 -0.614673,-0.215138 h -0.614678 v 2.381864 2.381862 h 0.614678 0.614673 v -1.613525 c 0,-1.429115 0.03071,-1.644252 0.322701,-1.936218 0.414905,-0.414905 1.075677,-0.33807 1.321549,0.169034 0.122934,0.2305 0.199769,0.983476 0.199769,1.874752 v 1.505957 h 0.614672 0.614673 v -1.844026 c 0,-0.998847 -0.07684,-1.997691 -0.169033,-2.197459 -0.353437,-0.768345 -1.444481,-1.044948 -2.320393,-0.599302 z"
       id="path423"
       style="stroke-width:0.0153668" />
    <path
       d="m 50.866396,82.813866 c 0,0.04611 0.384171,1.167887 0.845175,2.504794 0.691509,1.936224 0.82981,2.458699 0.706875,2.735302 -0.107568,0.2305 -0.291969,0.35344 -0.553206,0.35344 -0.322704,0 -0.384172,0.07685 -0.384172,0.461 0,0.261241 0.0922,0.507112 0.215137,0.553207 0.368805,0.138301 1.45985,-0.245871 1.644251,-0.568569 0.184403,-0.353439 2.13599,-5.839399 2.13599,-6.023805 0,-0.07685 -0.291969,-0.107568 -0.645407,-0.07685 l -0.645407,0.04611 -0.461006,1.659621 c -0.245868,0.906639 -0.507104,1.567415 -0.553206,1.459846 -0.06146,-0.107569 -0.307336,-0.875913 -0.537839,-1.705717 L 52.20331,82.721661 h -0.67614 c -0.353438,0 -0.660774,0.04611 -0.660774,0.0922 z"
       id="path467"
       style="stroke-width:0.0153668" />
    <path
       d="m 39.033932,92.064704 c -0.706874,0.368801 -1.121779,1.152517 -1.014211,1.936224 0.107568,0.875906 0.599307,1.290811 2.013055,1.644251 0.676141,0.169034 1.336915,0.384172 1.490584,0.460999 0.414904,0.215138 0.353437,0.860553 -0.107568,1.152518 -0.691507,0.461009 -2.228191,0 -2.228191,-0.660776 0,-0.138302 -0.215135,-0.199767 -0.676141,-0.199767 -0.645407,0 -0.660774,0.01537 -0.58394,0.414904 0.215136,1.16788 1.367649,1.844027 2.950433,1.690354 1.505949,-0.138301 2.397226,-0.983483 2.243558,-2.166724 -0.107568,-0.906646 -0.614674,-1.306181 -2.197458,-1.721086 -1.674985,-0.445638 -2.043789,-0.82981 -1.429115,-1.444483 0.445638,-0.445638 1.290813,-0.414905 1.767186,0.07685 0.215136,0.199767 0.384171,0.445638 0.384171,0.537836 0,0.07685 0.276603,0.153673 0.614673,0.153673 0.522473,0 0.614673,-0.04611 0.614673,-0.307336 0,-0.568578 -0.461004,-1.213983 -1.075678,-1.53669 -0.768342,-0.399535 -2.043789,-0.414906 -2.766031,-0.03074 z"
       id="path479"
       style="stroke-width:0.0153668" />
    <path
       d="m 44.950164,93.785791 c -0.353437,0.169034 -0.752975,0.522473 -0.92201,0.799077 -0.368804,0.645405 -0.384171,2.151354 -0.03073,2.842862 0.476372,0.891277 2.043789,1.398379 2.919699,0.952751 0.491739,-0.261242 1.183246,-0.93738 1.183246,-1.167889 0,-0.291966 -1.137146,-0.261232 -1.383015,0.03074 -0.445638,0.537836 -1.690352,0.107561 -1.690352,-0.583948 0,-0.2305 0.215136,-0.261232 1.628885,-0.261232 h 1.644251 L 48.19257,95.67591 c -0.122935,-0.937379 -0.507106,-1.552052 -1.16788,-1.905483 -0.691507,-0.36881 -1.30618,-0.36881 -2.074523,0.01537 z m 1.644252,1.029577 c 0.522472,0.476371 0.353436,0.660776 -0.645408,0.660776 -0.507105,0 -0.922009,-0.04611 -0.922009,-0.12294 0,-0.06149 0.107568,-0.276603 0.245868,-0.461 0.276604,-0.399534 0.922011,-0.445637 1.321549,-0.07685 z"
       id="path527"
       style="stroke-width:0.0153668" />
    <path
       d="m 50.912496,93.708954 c -0.276603,0.12294 -0.507105,0.291974 -0.507105,0.384172 0,0.07685 -0.06146,0.153673 -0.153669,0.153673 -0.07684,0 -0.153668,-0.138302 -0.153668,-0.307336 0,-0.245871 -0.107567,-0.307336 -0.537838,-0.307336 h -0.537841 v 2.381853 2.381862 h 0.614674 0.614673 v -1.429111 c 0,-1.644251 0.169036,-2.013062 0.998845,-2.166734 0.507105,-0.10756 0.537839,-0.138301 0.537839,-0.706871 0,-0.676137 -0.107568,-0.722241 -0.87591,-0.384172 z"
       id="path529"
       style="stroke-width:0.0153668" />
    <path
       d="m 58.319311,93.785791 c -0.353437,0.169034 -0.752975,0.522473 -0.92201,0.799077 -0.368804,0.645405 -0.384171,2.151354 -0.03073,2.842862 0.476371,0.891277 2.043788,1.398379 2.919698,0.952751 0.491739,-0.261242 1.183246,-0.93738 1.183246,-1.167889 0,-0.291966 -1.137146,-0.261232 -1.383015,0.03074 -0.445639,0.537836 -1.690352,0.107561 -1.690352,-0.583948 0,-0.2305 0.215136,-0.261232 1.628885,-0.261232 h 1.644251 L 61.56172,95.675907 c -0.122936,-0.937379 -0.507107,-1.552052 -1.16788,-1.905483 -0.691508,-0.36881 -1.306182,-0.36881 -2.074524,0.01537 z m 1.644252,1.029577 c 0.522471,0.476371 0.353437,0.660776 -0.645407,0.660776 -0.507107,0 -0.922011,-0.04611 -0.922011,-0.12294 0,-0.06149 0.107569,-0.276603 0.245869,-0.461 0.276604,-0.399534 0.92201,-0.445637 1.321549,-0.07685 z"
       id="path531"
       style="stroke-width:0.0153668" />
    <path
       d="m 64.435311,93.708954 c -0.276603,0.12294 -0.507105,0.291974 -0.507105,0.384172 0,0.07685 -0.06146,0.153673 -0.153669,0.153673 -0.07684,0 -0.153668,-0.138302 -0.153668,-0.307336 0,-0.245871 -0.107567,-0.307336 -0.537839,-0.307336 h -0.537839 v 2.381853 2.381862 h 0.614672 0.614674 v -1.429111 c 0,-1.644251 0.169035,-2.013062 0.998845,-2.166734 0.507106,-0.10756 0.537839,-0.138301 0.537839,-0.706871 0,-0.676137 -0.107567,-0.722241 -0.87591,-0.384172 z"
       id="path533"
       style="stroke-width:0.0153668" />
    <path
       d="m 52.15721,93.908721 c 0.0461,0.138302 0.430271,1.198621 0.845176,2.33576 l 0.737608,2.074526 0.676141,0.04611 0.676141,0.04611 0.814441,-2.274285 c 0.445638,-1.244715 0.799077,-2.335758 0.799077,-2.397224 0,-0.07685 -0.291971,-0.107569 -0.645407,-0.07685 l -0.630041,0.04611 -0.430272,1.521319 c -0.245869,0.829811 -0.461005,1.598155 -0.491739,1.690354 -0.03073,0.0922 -0.169035,-0.215138 -0.307335,-0.676147 -0.122935,-0.461 -0.353438,-1.244707 -0.491739,-1.736449 l -0.24587,-0.875905 h -0.691507 c -0.599307,0 -0.691509,0.04611 -0.614674,0.276595 z"
       id="path537"
       style="stroke-width:0.0153668" />
  </g>
</svg>
