<?xml version="1.0" encoding="UTF-8" standalone="no"?>
<!-- Created with Inkscape (http://www.inkscape.org/) -->

<svg
   width="100mm"
   height="100mm"
   viewBox="0 0 100 100"
   version="1.1"
   id="svg26768"
   xmlns="http://www.w3.org/2000/svg"
   xmlns:svg="http://www.w3.org/2000/svg">
  <defs
     id="defs26765" />
  <g
     id="layer1">
    <path
       d="m 39.55243,2.6609959 c -1.67009,0.2467177 -3.207333,1.4613286 -3.947486,3.1124413 -0.436501,0.9489152 -0.474457,2.8847008 -0.07591,3.8336159 l 0.303652,0.7021979 -8.862866,8.862865 -8.843886,8.843887 -0.68322,-0.246718 c -3.245289,-1.157676 -6.870144,1.556221 -6.870144,5.143119 0,2.087613 1.651112,4.327052 3.605877,4.91538 1.214611,0.360587 1.746003,0.379566 3.036528,0.07591 l 0.967893,-0.227739 8.786952,8.786953 8.786953,8.786951 -0.284675,1.024828 c -0.929937,3.340181 2.429222,6.851167 5.978164,6.243861 1.043807,-0.170805 2.505136,-1.024828 3.150398,-1.840895 0.303653,-0.379566 0.721175,-1.157676 0.910958,-1.708047 l 0.34161,-1.00585 5.788381,-0.05693 c 5.143119,-0.03795 5.807359,-0.01898 5.807359,0.246718 0,0.891979 1.23359,2.429222 2.448201,3.036527 1.043806,0.531393 2.998571,0.34161 4.042377,-0.379566 1.499286,-1.062784 2.258418,-3.359159 1.670091,-4.953336 -0.208761,-0.512413 0,-0.740153 9.242432,-9.982584 6.680361,-6.69934 9.527105,-9.413237 9.735867,-9.337324 0.151825,0.07592 0.702196,0.246718 1.195632,0.379566 3.283245,0.89198 6.319774,-2.656962 4.896402,-5.712468 -0.436501,-0.929936 -1.404394,-1.878851 -2.334331,-2.258417 -0.929937,-0.398545 -2.619005,-0.379566 -3.473029,0.01898 L 84.189393,29.287547 74.643308,19.741462 65.078246,10.1764 65.362921,9.51216 C 65.552704,9.0566801 65.628617,8.39244 65.571682,7.5384158 65.476786,5.8873042 64.831529,4.9004327 63.332243,4.1033442 62.459241,3.6478653 62.117632,3.5719515 61.206674,3.6288871 59.574539,3.7427563 58.45482,4.5208666 57.733645,6.0201527 l -0.569349,1.1576764 -5.731447,0.018977 H 45.701403 L 45.492642,6.4566533 C 44.809423,3.8756048 42.266332,2.2624495 39.552435,2.6609927 Z m 18.010406,6.9081008 0.265695,0.7591323 -3.22631,3.22631 -3.22631,3.226311 -3.13142,-3.131419 -3.131419,-3.131419 0.303652,-0.9109589 0.303653,-0.8919795 5.788382,0.037954 5.788381,0.056931 z m 2.239438,2.0876133 c 1.195633,0.607306 2.201484,0.607306 3.510986,-0.01898 l 1.043806,-0.474457 9.546085,9.546084 c 8.36943,8.36943 9.508128,9.565063 9.26141,9.830759 -0.132848,0.151827 -0.34161,0.512414 -0.45548,0.816067 l -0.208761,0.512414 h -6.035098 -6.0351 l -0.436501,-1.024825 c -0.569349,-1.385417 -1.916808,-2.637984 -3.264268,-3.036528 -1.21461,-0.360587 -1.689068,-0.379566 -2.922657,-0.03796 l -0.948915,0.265696 -5.256989,-5.256989 -5.275967,-5.23801 3.169375,-3.169376 c 1.746004,-1.764981 3.226312,-3.188355 3.283247,-3.188355 0.05693,0 0.512414,0.208763 1.024827,0.474458 z m -21.236715,1.119719 c 0.948915,0.436502 3.093463,0.360588 4.137269,-0.151827 l 0.740153,-0.360586 3.112441,3.112441 3.112441,3.11244 -5.389836,5.389837 -5.370859,5.370859 -0.588327,-0.303653 c -0.77811,-0.398544 -2.543092,-0.398544 -3.397116,0.01898 -0.89198,0.417522 -1.897829,1.461328 -2.144547,2.258418 L 32.549437,31.8686 h -5.769402 c -4.308074,0 -5.769403,-0.05693 -5.769403,-0.227739 0,-0.113871 -0.189783,-0.607306 -0.398544,-1.062786 l -0.417523,-0.835045 8.71104,-8.711039 c 4.782531,-4.782531 8.748995,-8.692061 8.805931,-8.654104 0.05693,0.03795 0.4365,0.208761 0.854023,0.398545 z m 21.900957,17.896536 c -0.512415,1.043806 -0.531393,2.846745 -0.01898,4.156248 l 0.360586,0.986871 -5.143119,5.143119 -5.143119,5.143119 -5.256988,-5.275967 -5.275967,-5.25699 0.474458,-0.929935 c 0.626283,-1.23359 0.626283,-2.410244 0,-3.643833 l -0.474458,-0.929937 5.275967,-5.275968 5.256988,-5.256989 5.162098,5.162098 5.181076,5.181076 z m -27.8981,3.207332 c 0.645263,2.334331 3.01755,3.586899 5.332902,2.827767 l 1.00585,-0.322631 5.332902,5.332902 5.332902,5.332902 -2.960615,2.960615 -2.979592,2.979593 -0.873003,-0.436501 c -1.613155,-0.77811 -3.245288,-0.702198 -5.446772,0.265696 -0.227739,0.0949 -2.4482,-2.049657 -8.673081,-8.407387 l -8.388409,-8.521256 0.417523,-1.347459 0.4365,-1.347459 h 5.636555 5.636555 z m 50.064752,0.170805 c 0.151827,0.417523 0.284675,0.891981 0.303653,1.062785 0.01898,0.151826 -4.11829,4.516835 -9.223453,9.659954 -8.198625,8.331473 -9.280388,9.356301 -9.584041,9.147541 -1.34746,-0.986873 -3.150398,-1.100742 -4.649683,-0.322632 l -0.967893,0.493436 -3.036528,-3.036528 -3.055506,-3.055506 5.219031,-5.219032 c 3.700769,-3.700769 5.294946,-5.181076 5.503707,-5.105163 0.702198,0.322631 2.827767,0.303653 3.814639,-0.01898 1.461329,-0.493435 2.713896,-1.802938 3.150398,-3.302223 l 0.341608,-1.157677 5.940208,0.03796 5.959186,0.05693 z m -25.070332,21.844023 -0.208762,0.645262 h -5.78838 -5.788382 l -0.22774,-0.721176 -0.227739,-0.702197 3.074485,-3.093463 3.074484,-3.074485 3.150397,3.150398 3.150398,3.13142 z"
       id="path20194"
       style="stroke-width:0.0189783" />
    <path
       d="m 22.528896,93.567048 v 4.004421 l 2.353308,-0.07592 c 2.049657,-0.05693 2.429223,-0.11387 2.903681,-0.455479 1.613155,-1.195633 2.049656,-4.289095 0.854024,-6.129991 -0.702198,-1.081762 -1.480308,-1.347458 -4.0234,-1.347458 h -2.087613 z m 3.985443,-2.505136 c 0.645262,0.170805 1.138697,1.214611 1.138697,2.391266 0,1.11972 -0.474457,2.182504 -1.138697,2.505134 -0.265697,0.132849 -0.873001,0.246719 -1.366438,0.246719 h -0.910958 v -2.656962 -2.656962 l 0.910958,0.01898 c 0.493437,0.01898 1.100741,0.07591 1.366438,0.151825 z"
       id="path20270"
       style="stroke-width:0.0189783" />
    <path
       d="m 30.499782,90.226867 c 0,0.645262 0.01898,0.66424 0.759132,0.66424 0.740154,0 0.759132,-0.01898 0.759132,-0.66424 0,-0.645263 -0.01898,-0.66424 -0.759132,-0.66424 -0.740154,0 -0.759132,0.01898 -0.759132,0.66424 z"
       id="path20272"
       style="stroke-width:0.0189783" />
    <path
       d="m 62.383323,90.226867 c 0,0.645262 0.01898,0.66424 0.759132,0.66424 0.740154,0 0.759132,-0.01898 0.759132,-0.66424 0,-0.645263 -0.01898,-0.66424 -0.759132,-0.66424 -0.740153,0 -0.759132,0.01898 -0.759132,0.66424 z"
       id="path20274"
       style="stroke-width:0.0189783" />
    <path
       d="m 35.775749,91.821044 c -0.569349,0.284674 -0.721176,0.303653 -0.721176,0.0949 0,-0.189783 -0.227739,-0.265697 -0.759132,-0.265697 h -0.759132 v 2.941636 2.941633 h 0.759132 0.759132 v -2.06863 c 0,-1.935786 0.03795,-2.106591 0.417523,-2.372288 0.550371,-0.379566 0.645262,-0.379566 1.100741,0.07591 0.322631,0.322631 0.379565,0.626285 0.379565,2.372287 v 1.992719 h 0.759134 0.759131 v -1.992722 c 0,-1.746003 0.05693,-2.049657 0.379566,-2.372287 0.986871,-0.986872 1.518264,-0.170805 1.518264,2.410244 v 1.954761 h 0.759132 0.759132 v -2.258415 c 0,-2.694917 -0.132848,-3.169376 -1.062784,-3.548941 -0.816068,-0.34161 -1.499286,-0.22774 -2.106592,0.341609 l -0.417522,0.398544 -0.34161,-0.398544 c -0.512414,-0.588327 -1.347459,-0.683219 -2.182504,-0.246719 z"
       id="path20378"
       style="stroke-width:0.0189783" />
    <path
       d="m 44.448832,91.840023 c -0.436501,0.208761 -0.929937,0.645261 -1.138699,0.986871 -0.455478,0.797089 -0.474458,2.656961 -0.03795,3.510985 0.588327,1.100741 2.524114,1.727024 3.605877,1.176656 0.607305,-0.322632 1.461328,-1.157677 1.461328,-1.442352 0,-0.360588 -1.404394,-0.322632 -1.708046,0.03795 -0.550371,0.664241 -2.087613,0.132848 -2.087613,-0.721175 0,-0.284675 0.265695,-0.322631 2.011699,-0.322631 h 2.030679 l -0.132849,-0.89198 c -0.151826,-1.157676 -0.626283,-1.916808 -1.44235,-2.353309 -0.854024,-0.455479 -1.613155,-0.455479 -2.56207,0.01898 z m 2.030677,1.271545 c 0.645262,0.588328 0.436501,0.816067 -0.797088,0.816067 -0.626284,0 -1.138698,-0.05693 -1.138698,-0.151826 0,-0.07591 0.132848,-0.341609 0.303653,-0.569349 0.341608,-0.493436 1.138698,-0.550371 1.632133,-0.0949 z"
       id="path20380"
       style="stroke-width:0.0189783" />
    <path
       d="m 51.717519,91.802066 c -0.569348,0.303652 -0.721175,0.322631 -0.721175,0.113869 0,-0.189782 -0.227739,-0.265695 -0.759132,-0.265695 H 49.47808 v 2.941636 2.941633 h 0.759132 0.759132 v -1.992718 c 0,-1.764982 0.03795,-2.030679 0.398545,-2.391265 0.512413,-0.512415 1.328481,-0.417524 1.632133,0.208761 0.151827,0.284674 0.246718,1.214611 0.246718,2.315351 v 1.859871 h 0.759132 0.759132 v -2.277393 c 0,-1.233589 -0.0949,-2.467178 -0.208761,-2.713897 -0.436501,-0.948914 -1.78396,-1.290524 -2.865724,-0.740153 z"
       id="path20382"
       style="stroke-width:0.0189783" />
    <path
       d="m 57.505901,91.669218 c -1.271547,0.360588 -1.821918,1.973743 -0.948915,2.770831 0.227739,0.22774 0.929937,0.550371 1.55622,0.721176 0.626284,0.189782 1.271546,0.455478 1.423373,0.607306 0.246717,0.246717 0.246717,0.303652 -0.07591,0.550369 -0.550371,0.398545 -1.214611,0.322632 -1.746003,-0.208761 -0.588328,-0.607304 -1.783961,-0.683218 -1.783961,-0.113869 0,0.550371 0.702197,1.290524 1.461329,1.556218 0.398544,0.132852 1.11972,0.170805 1.746004,0.113873 0.873001,-0.0949 1.157676,-0.208762 1.594177,-0.702198 1.11972,-1.252568 0.398544,-2.581048 -1.67009,-3.055506 -1.271547,-0.284674 -1.670091,-0.66424 -1.138698,-1.062785 0.4365,-0.303653 1.214611,-0.189783 1.537242,0.246718 0.265696,0.34161 1.594177,0.360588 1.594177,0.01898 0,-0.4365 -0.607305,-1.119719 -1.252568,-1.385415 -0.702197,-0.303653 -1.404394,-0.322631 -2.296374,-0.05693 z"
       id="path20384"
       style="stroke-width:0.0189783" />
    <path
       d="m 66.55855,91.783088 c -0.816067,0.417522 -1.518265,1.727024 -1.518265,2.808788 0,0.417522 0.189784,1.157675 0.436501,1.613155 0.550371,1.11972 1.385416,1.556222 2.751854,1.46133 1.727025,-0.132852 2.751853,-1.271548 2.751853,-3.074485 0,-1.802938 -1.024828,-2.941636 -2.751853,-3.074485 -0.721176,-0.05693 -1.195633,0.01898 -1.67009,0.265697 z m 2.4482,1.499285 c 0.910959,1.157676 0.265696,3.11244 -1.024828,3.11244 -0.702198,0 -0.986872,-0.265696 -1.233589,-1.157675 -0.227741,-0.759132 0.05693,-1.973743 0.531391,-2.239439 0.607306,-0.360588 1.309503,-0.227741 1.727026,0.284674 z"
       id="path20386"
       style="stroke-width:0.0189783" />
    <path
       d="m 74.491478,91.802066 c -0.569349,0.303652 -0.721175,0.322631 -0.721175,0.113869 0,-0.189782 -0.22774,-0.265695 -0.759132,-0.265695 h -0.759133 v 2.941636 2.941633 h 0.759133 0.759132 v -1.992718 c 0,-1.764982 0.03795,-2.030679 0.398544,-2.391265 0.512414,-0.512415 1.328481,-0.417524 1.632133,0.208761 0.151827,0.284674 0.246719,1.214611 0.246719,2.315351 v 1.859871 h 0.759131 0.759133 v -2.277393 c 0,-1.233589 -0.0949,-2.467178 -0.208762,-2.713897 -0.436501,-0.948914 -1.78396,-1.290524 -2.865723,-0.740153 z"
       id="path20388"
       style="stroke-width:0.0189783" />
    <path
       d="m 30.499782,94.591876 v 2.941633 h 0.759132 0.759132 V 94.591876 91.65024 h -0.759132 -0.759132 z"
       id="path20390"
       style="stroke-width:0.0189783" />
    <path
       d="m 62.383323,94.591876 v 2.941633 h 0.759132 0.759132 V 94.591876 91.65024 h -0.759132 -0.759132 z"
       id="path20392"
       style="stroke-width:0.0189783" />
  </g>
</svg>
