<?xml version="1.0" encoding="UTF-8" standalone="no"?>
<!-- Created with Inkscape (http://www.inkscape.org/) -->

<svg
   width="100mm"
   height="100mm"
   viewBox="0 0 100 100"
   version="1.1"
   id="svg26768"
   sodipodi:docname="directory.svg"
   inkscape:version="1.1.1 (3bf5ae0d25, 2021-09-20)"
   xmlns:inkscape="http://www.inkscape.org/namespaces/inkscape"
   xmlns:sodipodi="http://sodipodi.sourceforge.net/DTD/sodipodi-0.dtd"
   xmlns="http://www.w3.org/2000/svg"
   xmlns:svg="http://www.w3.org/2000/svg">
  <sodipodi:namedview
     id="namedview26770"
     pagecolor="#ffffff"
     bordercolor="#666666"
     borderopacity="1.0"
     inkscape:pageshadow="2"
     inkscape:pageopacity="0.0"
     inkscape:pagecheckerboard="0"
     inkscape:document-units="mm"
     showgrid="false"
     width="209mm"
     inkscape:zoom="0.7500982"
     inkscape:cx="13.998167"
     inkscape:cy="135.31562"
     inkscape:window-width="1920"
     inkscape:window-height="1027"
     inkscape:window-x="1912"
     inkscape:window-y="-8"
     inkscape:window-maximized="1"
     inkscape:current-layer="layer1" />
  <defs
     id="defs26765" />
  <g
     inkscape:label="Layer 1"
     inkscape:groupmode="layer"
     id="layer1">
    <path
       d="M 11.89925,1.7840947 C 11.500651,2.1407364 11.060094,2.7701035 10.9552,3.1896819 10.787369,3.7351326 10.74541,13.700111 10.787369,35.245444 l 0.06294,31.258569 0.58741,0.881117 c 0.314684,0.482511 0.94405,1.069923 1.405587,1.300684 0.818177,0.419586 1.027966,0.419586 37.510277,0.37762 l 36.692105,-0.06291 0.776216,-0.608391 c 0.440555,-0.335654 0.986011,-0.986 1.195802,-1.468519 0.377619,-0.818184 0.398598,-1.97202 0.398598,-29.181653 0,-27.209639 -0.021,-28.3634771 -0.398598,-29.1816553 C 88.807909,8.0777955 88.262453,7.4274498 87.821898,7.0917877 L 87.045682,6.4834044 59.437442,6.3785105 C 44.248718,6.3155749 31.808226,6.2526361 31.787251,6.210679 31.745271,6.189704 31.724301,5.5603334 31.724301,4.8050929 31.724301,3.2316752 31.40962,2.4974132 30.46557,1.679235 L 29.794252,1.1337842 h -8.559391 -8.58037 z m 17.18172,2.3286582 c 0.06295,0.2727265 0.146857,1.0699251 0.188811,1.7832064 0.04198,1.027967 0.167829,1.4265658 0.587411,1.8671226 1.090899,1.1957986 -0.398601,1.1328608 28.99284,1.1328608 h 27.146705 l 0.398598,0.440558 c 0.335663,0.3566409 0.419575,0.8391543 0.461532,2.6852993 l 0.08389,2.223764 H 50.206728 13.472668 V 8.9379009 3.6512174 h 7.762193 7.762194 z M 86.416313,17.140651 c 0.356642,0.356642 0.37762,1.615376 0.37762,24.461402 0,23.412452 -0.02099,24.125734 -0.398598,24.545318 l -0.398598,0.440554 H 50.080852 c -34.552251,0 -35.936859,-0.02099 -36.251543,-0.377619 -0.335662,-0.356641 -0.356641,-2.307682 -0.314683,-24.713147 l 0.06294,-24.293571 0.524472,-0.272725 c 0.419579,-0.209789 7.720237,-0.251747 36.230564,-0.209789 33.964849,0.04195 35.727076,0.06294 36.083717,0.419577 z"
       id="path127"
       style="stroke-width:0.0209788" />
    <path
       d="m 23.962118,90.315061 v 4.426545 l 2.601385,-0.08386 c 2.265722,-0.0629 2.685297,-0.125874 3.209773,-0.503494 1.783205,-1.321671 2.26572,-4.741229 0.94405,-6.776189 -0.77622,-1.195787 -1.636356,-1.489495 -4.447528,-1.489495 h -2.30768 z m 4.405572,-2.769204 c 0.71328,0.188799 1.25873,1.342635 1.25873,2.643341 0,1.237749 -0.524469,2.41256 -1.25873,2.769205 -0.293706,0.146859 -0.965031,0.272722 -1.510481,0.272722 H 25.85022 v -2.93704 -2.937049 l 1.006989,0.02097 c 0.54545,0.02097 1.216775,0.08386 1.510481,0.167834 z"
       id="path277"
       style="stroke-width:0.0209788" />
    <path
       d="m 32.773258,86.622782 c 0,0.713279 0.02099,0.734254 0.839155,0.734254 0.818181,0 0.839156,-0.02097 0.839156,-0.734254 0,-0.71328 -0.02099,-0.734266 -0.839156,-0.734266 -0.818176,0 -0.839155,0.02097 -0.839155,0.734266 z"
       id="path279"
       style="stroke-width:0.0209788" />
    <path
       d="m 54.801106,87.357036 c 0,0.692303 -0.06294,0.839162 -0.419582,0.839162 -0.335659,0 -0.419574,0.14685 -0.419574,0.629358 0,0.482518 0.08391,0.629367 0.419574,0.629367 0.398602,0 0.419582,0.146859 0.419582,2.286707 0,2.727254 0.125875,2.958025 1.699291,2.958025 1.006985,0 1.027965,-0.02097 1.027965,-0.629367 0,-0.524479 -0.08391,-0.629367 -0.52447,-0.629367 -0.524476,0 -0.524476,0 -0.524476,-1.992999 0,-1.992999 0,-1.992999 0.524476,-1.992999 0.440556,0 0.52447,-0.104888 0.52447,-0.629367 0,-0.524469 -0.08391,-0.629358 -0.52447,-0.629358 -0.461535,0 -0.524476,-0.08386 -0.524476,-0.839162 V 86.517873 H 55.64026 54.801106 Z"
       id="path315"
       style="stroke-width:0.0209788" />
    <path
       d="m 38.710285,88.301087 c -0.377619,0.167834 -0.692299,0.398606 -0.692299,0.524469 0,0.104908 -0.08391,0.209796 -0.20979,0.209796 -0.104896,0 -0.209792,-0.188811 -0.209792,-0.419582 0,-0.335659 -0.146848,-0.419572 -0.734258,-0.419572 h -0.734261 v 3.251724 3.251733 h 0.839155 0.839156 v -1.951038 c 0,-2.244745 0.230764,-2.74824 1.363625,-2.958025 0.692306,-0.146859 0.734266,-0.18881 0.734266,-0.965036 0,-0.923066 -0.146856,-0.986002 -1.195802,-0.524469 z"
       id="path433"
       style="stroke-width:0.0209788" />
    <path
       d="m 42.108867,88.405985 c -0.482514,0.230771 -1.027965,0.713279 -1.25873,1.090899 -0.503496,0.881114 -0.524475,2.93705 -0.04198,3.8811 0.650345,1.216773 2.790198,1.909077 3.985994,1.300686 0.671325,-0.356635 1.615374,-1.27971 1.615374,-1.594394 0,-0.398606 -1.55244,-0.356634 -1.8881,0.04204 -0.608391,0.734264 -2.307682,0.146848 -2.307682,-0.797202 0,-0.314684 0.293705,-0.356645 2.223766,-0.356645 h 2.244743 l -0.146857,-0.986002 c -0.167831,-1.279709 -0.6923,-2.118872 -1.594396,-2.60138 -0.944051,-0.503504 -1.783205,-0.503504 -2.832151,0.02097 z m 2.244747,1.405582 c 0.713281,0.650343 0.48251,0.9021 -0.881114,0.9021 -0.692307,0 -1.258737,-0.0629 -1.258737,-0.167835 0,-0.08386 0.146855,-0.377619 0.335666,-0.629367 0.37762,-0.545455 1.258731,-0.608391 1.804185,-0.104898 z"
       id="path435"
       style="stroke-width:0.0209788" />
    <path
       d="m 49.283652,88.196198 c -0.839155,0.251737 -1.195795,0.608382 -1.63635,1.573408 -0.503495,1.069925 -0.503495,2.496503 0,3.587392 0.50349,1.132871 1.552435,1.636355 3.020961,1.489506 0.88111,-0.08386 1.174815,-0.209785 1.762226,-0.860139 0.37762,-0.398595 0.692305,-0.94405 0.692305,-1.174811 0,-0.356645 -0.146855,-0.419581 -0.7972,-0.419581 -0.671325,0 -0.860136,0.104897 -1.048945,0.524469 -0.16783,0.37762 -0.398596,0.524479 -0.839156,0.524479 -0.92307,0 -1.30069,-0.56643 -1.30069,-1.951038 0,-1.300685 0.461534,-2.03496 1.237754,-2.03496 0.419576,0 1.069928,0.52448 1.069928,0.860138 0,0.104898 0.419573,0.188811 0.92307,0.188811 h 0.94405 l -0.188811,-0.650343 c -0.272724,-0.944061 -0.73426,-1.363622 -1.783206,-1.636365 -1.048944,-0.272723 -1.237755,-0.272723 -2.055936,-0.02097 z"
       id="path437"
       style="stroke-width:0.0209788" />
    <path
       d="m 59.836044,88.343048 c -0.902096,0.461532 -1.678312,1.909076 -1.678312,3.104874 0,0.461532 0.209785,1.27972 0.48251,1.783203 0.608391,1.237759 1.531462,1.720277 3.041942,1.615379 1.909082,-0.146849 3.041943,-1.405583 3.041943,-3.398582 0,-1.992999 -1.132861,-3.251724 -3.041943,-3.398583 -0.797194,-0.0629 -1.321671,0.02097 -1.84614,0.293709 z m 2.706277,1.657329 c 1.006985,1.27971 0.293705,3.440544 -1.132862,3.440544 -0.77622,0 -1.0909,-0.293708 -1.363624,-1.27972 -0.251751,-0.839143 0.06294,-2.181798 0.587404,-2.475507 0.671325,-0.398606 1.447546,-0.251747 1.909082,0.314683 z"
       id="path439"
       style="stroke-width:0.0209788" />
    <path
       d="m 68.710117,88.301087 c -0.37762,0.167834 -0.692303,0.398606 -0.692303,0.524469 0,0.104908 -0.08389,0.209796 -0.209792,0.209796 -0.104893,0 -0.209784,-0.188811 -0.209784,-0.419582 0,-0.335659 -0.146857,-0.419572 -0.734269,-0.419572 h -0.73426 v 3.251724 3.251733 h 0.839161 0.839152 v -1.951038 c 0,-2.244745 0.230769,-2.74824 1.363628,-2.958025 0.692312,-0.146859 0.73426,-0.18881 0.73426,-0.965036 0,-0.923066 -0.146848,-0.986002 -1.195793,-0.524469 z"
       id="path441"
       style="stroke-width:0.0209788" />
    <path
       d="m 32.773258,91.447922 v 3.251733 h 0.839155 0.839156 v -3.251733 -3.251724 h -0.839156 -0.839155 z"
       id="path469"
       style="stroke-width:0.0209788" />
    <path
       d="m 70.325495,88.322072 c 0,0.0629 0.524468,1.594393 1.153837,3.419558 0.944053,2.643332 1.132866,3.356621 0.96503,3.734241 -0.146847,0.314684 -0.398597,0.482518 -0.755238,0.482518 -0.440563,0 -0.524477,0.104888 -0.524477,0.629367 0,0.356635 0.125879,0.692301 0.293707,0.755237 0.503489,0.188821 1.992997,-0.335666 2.244745,-0.776212 0.251742,-0.482529 2.916064,-7.971986 2.916064,-8.223733 0,-0.104899 -0.398598,-0.14685 -0.881118,-0.104899 l -0.88111,0.0629 -0.629368,2.265722 c -0.335663,1.237759 -0.692293,2.139848 -0.755238,1.992989 -0.0839,-0.146849 -0.419576,-1.195788 -0.734261,-2.328659 l -0.587411,-2.03494 h -0.923075 c -0.48251,0 -0.902087,0.0629 -0.902087,0.125863 z"
       id="path471"
       style="stroke-width:0.0209788" />
  </g>
</svg>
