<?xml version="1.0" encoding="UTF-8" standalone="no"?>
<!-- Created with Inkscape (http://www.inkscape.org/) -->

<svg
   width="100mm"
   height="100mm"
   viewBox="0 0 100 100"
   version="1.1"
   id="svg26768"
   xmlns="http://www.w3.org/2000/svg"
   xmlns:svg="http://www.w3.org/2000/svg">
  <defs
     id="defs26765" />
  <path
     d="M 6.3065761,2.1814965 C 5.903213,2.3937896 5.3724741,2.8820625 5.1389492,3.2854281 4.7143568,3.9860064 4.7143568,4.368139 4.7143568,35.724227 c 0,17.450723 0.063686,31.992979 0.169837,32.311425 0.2335248,0.891638 1.3374638,2.016803 2.3352537,2.398935 0.8067237,0.297226 4.4794415,0.318447 37.6400525,0.275992 l 36.727176,-0.06366 0.870406,-0.573204 c 0.509506,-0.339667 1.040257,-0.934093 1.316236,-1.486064 0.424587,-0.912872 0.44582,-1.210097 0.44582,-9.999132 v -9.065041 h -1.27377 -1.273771 v 8.767815 c 0,7.578964 -0.04245,8.831515 -0.33968,9.23488 l -0.318446,0.467052 H 44.541055 c -35.0712723,0 -36.4936533,-0.02122 -36.8120979,-0.382132 C 7.3892845,67.250181 7.3680552,65.212146 7.3680552,42.7937 c 0,-23.373758 0.021233,-24.435236 0.3821325,-24.753682 0.360902,-0.339679 3.2268963,-0.360899 36.7271793,-0.360899 36.069052,0 36.345045,0 36.76963,0.424586 0.275981,0.275979 0.4246,0.700578 0.4246,1.273771 v 0.849185 h 1.273771 1.27377 v -5.095097 c 0,-5.8381407 -0.106104,-6.3051803 -1.740823,-7.3666706 L 81.586676,7.1704648 53.775922,7.0643617 25.943935,6.9582586 25.837795,5.3235757 C 25.710416,3.4766122 25.328283,2.7335678 24.118198,2.1391421 23.460076,1.7994757 22.589668,1.7570096 15.223001,1.7570096 7.6652704,1.7782302 6.9859239,1.7994509 6.3065773,2.1816082 Z M 22.993025,4.4742917 c 0.148611,0.084882 0.275984,0.8916384 0.339677,1.8045099 0.06369,1.6559035 0.08492,1.6771365 0.955331,2.5050882 l 0.891637,0.8279518 h 27.725834 27.725835 l 0.509506,0.5307394 c 0.488285,0.488285 0.530752,0.658124 0.530752,2.759847 v 2.229109 H 44.519821 7.3680552 V 9.8666008 c 0,-2.9084539 0.063686,-5.3498554 0.1486064,-5.4135421 C 7.7077278,4.2619862 22.69581,4.2619862 22.993025,4.4742793 Z"
     id="path618"
     style="stroke-width:0.0212296" />
  <path
     d="m 45.899745,27.020099 1.252551,1.273783 H 72.37303 97.593776 V 27.020099 25.746328 H 71.120492 44.647195 Z"
     id="path682"
     style="stroke-width:0.0212296" />
  <path
     d="m 45.687452,34.875042 1.252538,1.273784 H 72.266889 97.593776 V 34.875042 33.601271 H 71.014339 44.434902 Z"
     id="path720"
     style="stroke-width:0.0212296" />
  <path
     d="m 45.899745,42.942291 1.252551,1.273771 H 72.37303 97.593776 V 42.942291 41.668508 H 71.120492 44.647195 Z"
     id="path742"
     style="stroke-width:0.0212296" />
  <path
     d="m 7.7926463,92.003849 v 4.479437 l 2.6324687,-0.08488 c 2.292795,-0.06366 2.717386,-0.127386 3.248124,-0.509519 1.804516,-1.337458 2.292796,-4.797883 0.955334,-6.857152 -0.785495,-1.210085 -1.655908,-1.50731 -4.500672,-1.50731 H 7.7926463 Z m 4.4582127,-2.802302 c 1.146397,0.297213 1.677136,2.929674 0.891642,4.479438 -0.44582,0.912871 -1.125168,1.273771 -2.420173,1.273771 H 9.7033098 v -2.97214 -2.972141 l 1.0190182,0.02122 c 0.55197,0.02122 1.231316,0.08488 1.528531,0.169838 z"
     id="path808"
     style="stroke-width:0.0212296" />
  <path
     d="m 16.70907,88.267443 c 0,0.721798 0.02123,0.743032 0.849185,0.743032 0.827953,0 0.849181,-0.02122 0.849181,-0.743032 0,-0.721811 -0.02123,-0.743045 -0.849181,-0.743045 -0.827955,0 -0.849185,0.02122 -0.849185,0.743045 z"
     id="path810"
     style="stroke-width:0.0212296" />
  <path
     d="m 65.537111,91.982616 v 4.458217 h 0.849185 0.849184 v -4.458217 -4.458218 h -0.849184 -0.849185 z"
     id="path812"
     style="stroke-width:0.0212296" />
  <path
     d="m 39.000126,89.010475 c 0,0.700578 -0.06366,0.849185 -0.424585,0.849185 -0.339679,0 -0.424586,0.148606 -0.424586,0.636892 0,0.488272 0.08488,0.636891 0.424586,0.636891 0.403365,0 0.424585,0.148594 0.424585,2.314015 0,2.759848 0.127386,2.993375 1.719604,2.993375 1.019011,0 1.040244,-0.02122 1.040244,-0.636892 0,-0.530739 -0.08488,-0.636879 -0.530739,-0.636879 -0.530739,0 -0.530739,0 -0.530739,-2.016816 0,-2.016803 0,-2.016803 0.530739,-2.016803 0.445819,0 0.530739,-0.106103 0.530739,-0.636891 0,-0.53074 -0.08488,-0.636892 -0.530739,-0.636892 -0.467052,0 -0.530739,-0.08488 -0.530739,-0.849185 V 88.16129 h -0.849185 -0.849185 z"
     id="path900"
     style="stroke-width:0.0212296" />
  <path
     d="m 92.074081,89.010475 c 0,0.700578 -0.06366,0.849185 -0.424585,0.849185 -0.339679,0 -0.4246,0.148606 -0.4246,0.636892 0,0.488272 0.08488,0.636891 0.4246,0.636891 0.403352,0 0.424585,0.148594 0.424585,2.314015 0,2.759848 0.127386,2.993375 1.719604,2.993375 1.019011,0 1.040244,-0.02122 1.040244,-0.636892 0,-0.530739 -0.08488,-0.636879 -0.530739,-0.636879 -0.530739,0 -0.530739,0 -0.530739,-2.016816 0,-2.016803 0,-2.016803 0.530739,-2.016803 0.445819,0 0.530739,-0.106103 0.530739,-0.636891 0,-0.53074 -0.08488,-0.636892 -0.530739,-0.636892 -0.467052,0 -0.530739,-0.08488 -0.530739,-0.849185 V 88.16129 h -0.849185 -0.849185 z"
     id="path902"
     style="stroke-width:0.0212296" />
  <path
     d="m 22.717041,89.965812 c -0.382133,0.169828 -0.700572,0.403366 -0.700572,0.53074 0,0.106103 -0.08492,0.212293 -0.212297,0.212293 -0.106153,0 -0.212297,-0.191073 -0.212297,-0.424586 0,-0.33968 -0.14861,-0.424599 -0.743035,-0.424599 H 20.1058 v 3.290586 3.290587 h 0.84919 0.849182 v -1.97435 c 0,-2.271562 0.233523,-2.781081 1.379918,-2.993374 0.700579,-0.148607 0.743042,-0.191072 0.743042,-0.976557 0,-0.934105 -0.148611,-0.997792 -1.210091,-0.53074 z"
     id="path948"
     style="stroke-width:0.0212296" />
  <path
     d="m 26.156233,90.071953 c -0.488281,0.233526 -1.040249,0.721811 -1.273771,1.103944 -0.509511,0.891638 -0.530743,2.97214 -0.04249,3.927465 0.658116,1.231317 2.823531,1.931895 4.033621,1.316237 0.679348,-0.360899 1.634678,-1.295004 1.634678,-1.613449 0,-0.403354 -1.570992,-0.3609 -1.910662,0.04245 -0.615661,0.743031 -2.335257,0.148606 -2.335257,-0.806731 0,-0.318434 0.297215,-0.3609 2.25034,-0.3609 H 30.78426 L 30.635649,92.683174 C 30.465813,91.38817 29.935077,90.538986 29.022201,90.0507 c -0.95533,-0.509506 -1.804513,-0.509506 -2.865993,0.02122 z m 2.271564,1.422389 c 0.721809,0.658112 0.48828,0.912859 -0.891638,0.912859 -0.700579,0 -1.273778,-0.06366 -1.273778,-0.169826 0,-0.08488 0.14861,-0.382133 0.339676,-0.636892 0.382133,-0.55196 1.273771,-0.615659 1.82574,-0.106103 z"
     id="path950"
     style="stroke-width:0.0212296" />
  <path
     d="m 33.629046,89.85966 c -0.849183,0.254759 -1.210083,0.615658 -1.655909,1.592216 -0.509506,1.082711 -0.509506,2.526322 0,3.630253 0.509513,1.146397 1.570992,1.655916 3.057058,1.507309 0.891651,-0.08488 1.188863,-0.212293 1.783289,-0.870417 0.382133,-0.403354 0.700579,-0.955325 0.700579,-1.188851 0,-0.3609 -0.148607,-0.424586 -0.806731,-0.424586 -0.679346,0 -0.870405,0.106103 -1.061478,0.530726 -0.169827,0.382133 -0.403366,0.530752 -0.84918,0.530752 -0.9341,0 -1.316232,-0.573206 -1.316232,-1.974363 0,-1.316224 0.46705,-2.059256 1.252545,-2.059256 0.424593,0 1.082706,0.530726 1.082706,0.870406 0,0.106103 0.424599,0.191072 0.934105,0.191072 h 0.955324 L 37.514063,91.536796 C 37.23807,90.581471 36.771018,90.156872 35.70954,89.880893 34.648064,89.604912 34.456997,89.604912 33.629046,89.85967 Z"
     id="path952"
     style="stroke-width:0.0212296" />
  <path
     d="m 44.095236,90.008266 c -0.912885,0.467052 -1.69837,1.931895 -1.69837,3.14198 0,0.467052 0.212292,1.295004 0.488273,1.80451 0.615659,1.25255 1.549763,1.740836 3.078293,1.634682 1.931895,-0.148605 3.078293,-1.422376 3.078293,-3.439192 0,-2.016803 -1.146398,-3.290586 -3.078293,-3.439193 -0.806718,-0.06366 -1.337458,0.02122 -1.868196,0.297213 z m 2.738613,1.677136 c 1.019012,1.295004 0.297214,3.48166 -1.146397,3.48166 -0.785498,0 -1.103944,-0.297214 -1.379923,-1.295018 -0.25476,-0.849172 0.06366,-2.207875 0.594425,-2.505087 0.679345,-0.403353 1.464843,-0.254748 1.931895,0.318445 z"
     id="path954"
     style="stroke-width:0.0212296" />
  <path
     d="m 53.075344,89.965812 c -0.382133,0.169828 -0.700579,0.403366 -0.700579,0.53074 0,0.106103 -0.08488,0.212293 -0.212294,0.212293 -0.106103,0 -0.212305,-0.191073 -0.212305,-0.424586 0,-0.33968 -0.148593,-0.424599 -0.743031,-0.424599 h -0.743033 v 3.290586 3.290587 h 0.849185 0.849184 v -1.97435 c 0,-2.271562 0.233527,-2.781081 1.379925,-2.993374 0.700578,-0.148607 0.743031,-0.191072 0.743031,-0.976557 0,-0.934105 -0.148605,-0.997792 -1.210083,-0.53074 z"
     id="path956"
     style="stroke-width:0.0212296" />
  <path
     d="m 71.651218,90.029499 c -0.636879,0.339679 -0.806719,0.360899 -0.806719,0.127373 0,-0.212293 -0.254746,-0.297212 -0.849185,-0.297212 h -0.849171 v 3.290586 3.290587 h 0.849171 0.849185 v -2.229109 c 0,-1.974349 0.04245,-2.271563 0.44582,-2.674928 0.573205,-0.573192 1.486077,-0.467052 1.825743,0.233527 0.169839,0.318445 0.275991,1.35869 0.275991,2.590007 v 2.080503 h 0.849186 0.849185 v -2.547555 c 0,-1.379924 -0.106103,-2.759835 -0.233527,-3.035828 -0.488285,-1.061477 -1.995582,-1.44361 -3.205679,-0.827951 z"
     id="path958"
     style="stroke-width:0.0212296" />
  <path
     d="m 79.336334,89.880893 c -0.275979,0.106103 -0.700578,0.360899 -0.89165,0.551971 -0.360899,0.318447 -0.382133,0.318447 -0.382133,-0.106103 0,-0.382133 -0.127373,-0.467052 -0.743031,-0.467052 h -0.743033 v 4.564358 4.564369 h 0.849185 0.849185 v -1.634683 c 0,-1.570996 0.02122,-1.613449 0.403365,-1.25255 0.997792,0.912872 2.929675,0.44582 3.69394,-0.870406 0.509518,-0.89165 0.551972,-3.120746 0.06366,-4.054851 -0.594438,-1.16763 -2.016816,-1.740823 -3.099526,-1.295004 z m 1.337459,1.931895 c 0.849185,0.976546 0.148619,3.354274 -0.997779,3.354274 -1.210097,0 -1.889442,-1.379925 -1.401157,-2.866001 0.403365,-1.188852 1.570984,-1.443611 2.398936,-0.488273 z"
     id="path960"
     style="stroke-width:0.0212296" />
  <path
     d="m 16.70907,93.150246 v 3.290587 h 0.849185 0.849181 V 93.150246 89.85966 H 17.558255 16.70907 Z"
     id="path1154"
     style="stroke-width:0.0212296" />
  <path
     d="m 54.710027,89.987045 c 0,0.06366 0.530738,1.613438 1.167618,3.460413 0.955337,2.674928 1.146397,3.396739 0.976558,3.778872 -0.148594,0.318446 -0.403353,0.488274 -0.764265,0.488274 -0.445819,0 -0.530727,0.106103 -0.530727,0.636891 0,0.360899 0.127373,0.700578 0.297213,0.764265 0.509505,0.19106 2.016802,-0.339679 2.271562,-0.785499 0.254747,-0.488272 2.950907,-8.067236 2.950907,-8.321995 0,-0.106103 -0.403365,-0.148606 -0.891638,-0.106103 l -0.891639,0.06366 -0.636891,2.292796 c -0.339679,1.252538 -0.700578,2.165409 -0.764265,2.016802 -0.08488,-0.148605 -0.424586,-1.210083 -0.743032,-2.356481 L 56.55699,89.85967 h -0.934092 c -0.488286,0 -0.912871,0.06366 -0.912871,0.127385 z"
     id="path1156"
     style="stroke-width:0.0212296" />
  <path
     d="m 84.219138,92.38598 c 0,1.401157 0.08488,2.781082 0.212293,3.099515 0.44582,1.167631 2.526321,1.401157 3.630266,0.403365 0.382131,-0.339667 0.403365,-0.339667 0.403365,0.08488 0,0.403365 0.127373,0.467052 0.849172,0.467052 h 0.849185 V 93.150207 89.85962 h -0.955325 -0.955338 v 2.292796 c 0,1.974349 -0.06366,2.356481 -0.382132,2.653694 -0.445819,0.403365 -0.955325,0.445832 -1.549764,0.148606 -0.360898,-0.212293 -0.403352,-0.467039 -0.403352,-2.653694 V 89.85962 h -0.849186 -0.849184 z"
     id="path1158"
     style="stroke-width:0.0212296" />
</svg>
