<?xml version="1.0" encoding="UTF-8" standalone="no"?>
<!-- Created with Inkscape (http://www.inkscape.org/) -->

<svg
   width="100mm"
   height="100mm"
   viewBox="0 0 100 100"
   version="1.1"
   id="svg26768"
   sodipodi:docname="directory inputs.svg"
   inkscape:version="1.2.1 (9c6d41e410, 2022-07-14)"
   xmlns:inkscape="http://www.inkscape.org/namespaces/inkscape"
   xmlns:sodipodi="http://sodipodi.sourceforge.net/DTD/sodipodi-0.dtd"
   xmlns="http://www.w3.org/2000/svg"
   xmlns:svg="http://www.w3.org/2000/svg">
  <sodipodi:namedview
     id="namedview12294"
     pagecolor="#ffffff"
     bordercolor="#666666"
     borderopacity="1.0"
     inkscape:showpageshadow="2"
     inkscape:pageopacity="0.0"
     inkscape:pagecheckerboard="0"
     inkscape:deskcolor="#d1d1d1"
     inkscape:document-units="mm"
     showgrid="false"
     inkscape:zoom="0.77548253"
     inkscape:cx="588.02098"
     inkscape:cy="194.71747"
     inkscape:window-width="1920"
     inkscape:window-height="1009"
     inkscape:window-x="1912"
     inkscape:window-y="-8"
     inkscape:window-maximized="1"
     inkscape:current-layer="svg26768" />
  <defs
     id="defs26765" />
  <path
     d="m 14.123792,2.7092236 c -1.158555,0.5792825 -1.598007,1.4581948 -1.598007,3.1560781 v 1.4781654 h -1.338341 c -1.6179929,0 -2.5568274,0.3995036 -3.196032,1.3782877 L 7.5319834,9.4009111 V 39.363689 69.346441 l 0.4194838,0.878909 c 0.2596753,0.519354 0.7590488,1.07866 1.2384546,1.398263 l 0.8189902,0.53933 34.636967,0.05992 c 33.59826,0.03995 34.656945,0.03995 35.475928,-0.339578 1.398263,-0.599256 2.317122,-2.19727 2.317122,-3.975061 0,-0.639207 0.01998,-0.639207 0.958809,-0.639207 1.837716,-0.01998 3.335855,-1.138585 3.81526,-2.896402 0.139826,-0.499379 0.219727,-2.976302 0.219727,-6.451984 V 52.287629 H 86.134338 84.83595 v 5.852728 c 0,6.651737 0.01998,6.531886 -1.558063,6.531886 h -0.838958 v -6.192307 -6.192307 h -1.298388 -1.298387 v 8.349627 c 0,7.850247 -0.01998,8.389577 -0.359553,8.689205 -0.339578,0.319605 -3.036228,0.339581 -34.656945,0.339581 H 10.54824 L 10.24861,69.226587 C 9.9689576,68.827084 9.9290127,66.290235 9.9290127,45.955497 c 0,-22.571959 0,-22.831636 0.3994973,-23.23114 0.399506,-0.399504 0.659181,-0.399504 34.616997,-0.399504 32.919104,0 34.257441,0.01998 34.557069,0.359554 0.199753,0.219727 0.339578,0.719107 0.339578,1.198511 v 0.838958 h 1.318363 1.318361 l -0.0799,-4.853971 c -0.05992,-5.193547 -0.119851,-5.4732 -1.198512,-6.471959 -1.178535,-1.118611 0.259679,-1.058685 -27.785482,-1.058685 H 27.567097 L 27.46722,10.879072 C 27.34737,9.1212555 26.907915,8.2623233 25.869206,7.7229934 25.190049,7.3834148 24.65072,7.3434642 20.016474,7.3434642 H 14.922805 V 6.1449543 c 0,-1.0786559 0.03999,-1.1985098 0.459429,-1.2983864 0.239698,-0.059893 3.595529,-0.07989 7.430766,-0.059893 l 6.991318,0.059893 0.09988,1.518117 c 0.119851,1.6978861 0.459429,2.3770424 1.458188,2.9762982 0.619232,0.3795283 1.218487,0.3995027 26.46712,0.3995027 26.067617,0 26.407195,0 26.846649,0.6791572 0.0799,0.119851 0.159801,3.395781 0.159801,7.250992 v 7.051241 h 1.318363 1.298387 l -0.05992,-7.350869 C 87.332857,9.4408588 87.332857,9.4608332 86.194268,8.4021487 85.015732,7.2835382 86.453946,7.3434642 58.408786,7.3434642 H 32.560897 L 32.46102,5.885279 C 32.341169,4.1274639 31.901715,3.2685288 30.863006,2.7292008 30.163874,2.3696489 29.604569,2.3496715 22.473435,2.3496715 c -6.891439,0 -7.710419,0.039897 -8.349633,0.3595521 z m 10.786604,8.6492554 c 0.119851,1.697892 0.459429,2.377047 1.458188,2.976303 0.619231,0.379529 1.218487,0.399504 26.467121,0.399504 26.067615,0 26.407194,0 26.846648,0.679157 0.0799,0.119851 0.159801,1.178535 0.159801,2.357071 v 2.15732 H 44.885581 9.9290127 v -4.973821 c 0,-3.795285 0.059893,-5.013772 0.2596753,-5.073697 0.119854,-0.059922 3.475675,-0.099877 7.430766,-0.079899 l 7.191066,0.039945 z"
     id="path616"
     style="stroke-width:0.0199752" />
  <path
     d="m 46.183968,31.113938 1.178536,1.198511 h 23.730519 23.73052 V 31.113938 29.915426 H 69.914488 45.005432 Z"
     id="path684"
     style="stroke-width:0.0199752" />
  <path
     d="m 46.183968,38.504756 1.178536,1.198511 h 23.730519 23.73052 V 38.504756 37.306245 H 69.914488 45.005432 Z"
     id="path722"
     style="stroke-width:0.0199752" />
  <path
     d="m 46.183968,46.095326 1.178536,1.198511 h 23.730519 23.73052 V 46.095326 44.896815 H 69.914488 45.005432 Z"
     id="path744"
     style="stroke-width:0.0199752" />
  <path
     d="m 9.8159512,93.178758 v 3.99441 l 2.3474288,-0.0757 c 2.044534,-0.0568 2.423152,-0.11359 2.896423,-0.45434 1.609125,-1.19265 2.044534,-4.27838 0.851889,-6.11467 -0.700441,-1.07907 -1.476607,-1.3441 -4.013345,-1.3441 H 9.8159512 Z m 3.9754838,-2.49888 c 0.64365,0.17038 1.135852,1.21158 1.135852,2.38529 0,1.11692 -0.473272,2.17705 -1.135852,2.49888 -0.265033,0.13251 -0.870821,0.2461 -1.363023,0.2461 H 11.51973 v -2.65032 -2.65033 l 0.908682,0.0189 c 0.492202,0.0189 1.09799,0.0757 1.363023,0.15144 z"
     id="path850"
     style="stroke-width:0.0189309" />
  <path
     d="m 17.766918,89.846918 c 0,0.64365 0.01893,0.66258 0.757235,0.66258 0.738304,0 0.757235,-0.0189 0.757235,-0.66258 0,-0.64365 -0.01893,-0.66258 -0.757235,-0.66258 -0.738304,0 -0.757235,0.0189 -0.757235,0.66258 z"
     id="path852"
     style="stroke-width:0.0189309" />
  <path
     d="m 61.307929,93.159828 v 3.97548 h 0.757235 0.757235 v -3.97548 -3.97549 h -0.757235 -0.757235 z"
     id="path854"
     style="stroke-width:0.0189309" />
  <path
     d="m 37.644336,90.509498 c 0,0.62472 -0.05679,0.75724 -0.378617,0.75724 -0.302894,0 -0.378618,0.13252 -0.378618,0.56792 0,0.43541 0.07572,0.56793 0.378618,0.56793 0.359686,0 0.378617,0.13252 0.378617,2.06347 0,2.46101 0.113585,2.66925 1.533401,2.66925 0.908682,0 0.927613,-0.0189 0.927613,-0.56793 0,-0.47327 -0.07572,-0.56792 -0.473272,-0.56792 -0.473272,0 -0.473272,0 -0.473272,-1.79843 0,-1.79844 0,-1.79844 0.473272,-1.79844 0.397548,0 0.473272,-0.0947 0.473272,-0.56793 0,-0.47327 -0.07572,-0.56792 -0.473272,-0.56792 -0.416479,0 -0.473272,-0.0757 -0.473272,-0.75724 v -0.75723 h -0.757235 -0.757235 z"
     id="path924"
     style="stroke-width:0.0189309" />
  <path
     d="m 84.782213,90.509498 c 0,0.62472 -0.05679,0.75724 -0.378617,0.75724 -0.302894,0 -0.378617,0.13252 -0.378617,0.56792 0,0.43541 0.07572,0.56793 0.378617,0.56793 0.359686,0 0.378617,0.13252 0.378617,2.06347 0,2.46101 0.113586,2.66925 1.533401,2.66925 0.908682,0 0.927612,-0.0189 0.927612,-0.56793 0,-0.47327 -0.07572,-0.56792 -0.473271,-0.56792 -0.473272,0 -0.473272,0 -0.473272,-1.79843 0,-1.79844 0,-1.79844 0.473272,-1.79844 0.397548,0 0.473271,-0.0947 0.473271,-0.56793 0,-0.47327 -0.07572,-0.56792 -0.473271,-0.56792 -0.416479,0 -0.473272,-0.0757 -0.473272,-0.75724 v -0.75723 h -0.757235 -0.757235 z"
     id="path926"
     style="stroke-width:0.0189309" />
  <path
     d="m 23.124356,91.361388 c -0.340756,0.15145 -0.624719,0.35969 -0.624719,0.47327 0,0.0947 -0.07572,0.18931 -0.189309,0.18931 -0.09465,0 -0.189309,-0.17038 -0.189309,-0.37861 0,-0.3029 -0.132516,-0.37862 -0.66258,-0.37862 h -0.662581 v 2.93429 2.93428 h 0.757235 0.757235 v -1.76057 c 0,-2.0256 0.20824,-2.47995 1.230507,-2.66926 0.624719,-0.13251 0.662581,-0.17037 0.662581,-0.87082 0,-0.83295 -0.132516,-0.88975 -1.07906,-0.47327 z"
     id="path1038"
     style="stroke-width:0.0189309" />
  <path
     d="m 26.191157,91.456048 c -0.43541,0.20823 -0.927612,0.64365 -1.135852,0.9844 -0.454341,0.7951 -0.473272,2.65032 -0.03786,3.50221 0.586857,1.09799 2.517806,1.72271 3.596866,1.17372 0.605788,-0.32183 1.457677,-1.15478 1.457677,-1.43875 0,-0.35968 -1.400885,-0.32182 -1.703778,0.0379 -0.548996,0.66258 -2.082397,0.13251 -2.082397,-0.71938 0,-0.28396 0.265033,-0.32182 2.006673,-0.32182 h 2.025604 l -0.132517,-0.88975 c -0.151447,-1.15479 -0.624718,-1.91202 -1.438746,-2.34743 -0.851889,-0.45435 -1.609124,-0.45435 -2.555668,0.0189 z m 2.025604,1.26837 c 0.64365,0.58685 0.43541,0.81402 -0.795097,0.81402 -0.624719,0 -1.135852,-0.0568 -1.135852,-0.15144 0,-0.0757 0.132516,-0.34076 0.302894,-0.56793 0.340755,-0.4922 1.135852,-0.549 1.628055,-0.0947 z"
     id="path1040"
     style="stroke-width:0.0189309" />
  <path
     d="m 32.665516,91.266738 c -0.757235,0.22717 -1.07906,0.549 -1.476608,1.41981 -0.454341,0.96548 -0.454341,2.25278 0,3.23718 0.454341,1.02227 1.400885,1.47661 2.726046,1.3441 0.795097,-0.0757 1.060129,-0.18931 1.590194,-0.77617 0.340755,-0.35969 0.624718,-0.85189 0.624718,-1.06013 0,-0.32182 -0.132516,-0.37861 -0.719373,-0.37861 -0.605788,0 -0.776166,0.0947 -0.946544,0.47326 -0.151446,0.34076 -0.359686,0.47328 -0.757234,0.47328 -0.832959,0 -1.173715,-0.51113 -1.173715,-1.76058 0,-1.17371 0.416479,-1.83629 1.116922,-1.83629 0.378617,0 0.965474,0.47327 0.965474,0.77617 0,0.0947 0.378618,0.17038 0.832959,0.17038 h 0.851889 l -0.170378,-0.58686 c -0.246101,-0.85189 -0.66258,-1.23051 -1.609124,-1.47661 -0.946544,-0.2461 -1.116922,-0.2461 -1.855226,-0.0189 z"
     id="path1042"
     style="stroke-width:0.0189309" />
  <path
     d="m 42.187746,91.399258 c -0.814028,0.41648 -1.51447,1.7227 -1.51447,2.80177 0,0.41647 0.189309,1.15478 0.43541,1.60912 0.548996,1.11692 1.381954,1.55233 2.744977,1.45768 1.72271,-0.13252 2.744977,-1.26837 2.744977,-3.0668 0,-1.79844 -1.022267,-2.93429 -2.744977,-3.06681 -0.719373,-0.0568 -1.192645,0.019 -1.665917,0.26504 z m 2.442083,1.49553 c 0.908682,1.15478 0.265032,3.10467 -1.022267,3.10467 -0.700443,0 -0.984406,-0.26503 -1.230507,-1.15479 -0.227171,-0.75723 0.05679,-1.96881 0.530064,-2.23384 0.605788,-0.35968 1.306231,-0.22717 1.72271,0.28396 z"
     id="path1044"
     style="stroke-width:0.0189309" />
  <path
     d="m 50.195506,91.361388 c -0.340756,0.15145 -0.624719,0.35969 -0.624719,0.47327 0,0.0947 -0.07572,0.18931 -0.189309,0.18931 -0.09465,0 -0.189309,-0.17038 -0.189309,-0.37861 0,-0.3029 -0.132516,-0.37862 -0.66258,-0.37862 h -0.662581 v 2.93429 2.93428 h 0.757235 0.757235 v -1.76057 c 0,-2.0256 0.20824,-2.47995 1.230507,-2.66926 0.624719,-0.13251 0.66258,-0.17037 0.66258,-0.87082 0,-0.83295 -0.132515,-0.88975 -1.079059,-0.47327 z"
     id="path1046"
     style="stroke-width:0.0189309" />
  <path
     d="m 66.570712,91.418178 c -0.567926,0.3029 -0.719373,0.32183 -0.719373,0.11359 0,-0.18931 -0.227171,-0.26503 -0.757235,-0.26503 h -0.757235 v 2.93429 2.93428 h 0.757235 0.757235 v -1.98774 c 0,-1.76057 0.03786,-2.02561 0.397548,-2.38529 0.511134,-0.51113 1.325162,-0.41648 1.628056,0.20824 0.151447,0.28396 0.246101,1.21157 0.246101,2.30956 v 1.85523 h 0.757235 0.757235 v -2.2717 c 0,-1.23051 -0.09465,-2.46102 -0.20824,-2.70712 -0.43541,-0.94654 -1.779502,-1.2873 -2.858562,-0.73831 z"
     id="path1048"
     style="stroke-width:0.0189309" />
  <path
     d="m 73.612998,91.285668 c -0.246102,0.0947 -0.624719,0.32182 -0.795097,0.4922 -0.321825,0.28397 -0.340756,0.28397 -0.340756,-0.0947 0,-0.34076 -0.113585,-0.41648 -0.66258,-0.41648 h -0.662581 v 4.07013 4.07015 h 0.757235 0.757235 v -1.45768 c 0,-1.40089 0.01893,-1.43875 0.359687,-1.11692 0.889751,0.81402 2.61246,0.39754 3.293971,-0.77617 0.454342,-0.7951 0.492204,-2.78284 0.05679,-3.6158 -0.530064,-1.04119 -1.798433,-1.55233 -2.763907,-1.15478 z m 1.192645,1.72271 c 0.757235,0.87082 0.132516,2.99108 -0.889751,2.99108 -1.07906,0 -1.684848,-1.23051 -1.249438,-2.55567 0.359687,-1.06013 1.400885,-1.2873 2.139189,-0.43541 z"
     id="path1050"
     style="stroke-width:0.0189309" />
  <path
     d="m 89.382416,91.285668 c -1.268369,0.35969 -1.817364,1.96881 -0.946544,2.7639 0.22717,0.22718 0.927613,0.549 1.552331,0.71938 0.624719,0.18931 1.268369,0.45434 1.419816,0.60579 0.246101,0.2461 0.246101,0.30289 -0.07572,0.54899 -0.548996,0.39755 -1.211576,0.32183 -1.741641,-0.20824 -0.586857,-0.60578 -1.779502,-0.68151 -1.779502,-0.11358 0,0.549 0.700442,1.2873 1.457677,1.55233 0.397548,0.13251 1.116922,0.17038 1.741641,0.11359 0.87082,-0.0947 1.154783,-0.20824 1.590193,-0.70045 1.116922,-1.24943 0.397549,-2.5746 -1.665917,-3.04787 -1.268369,-0.28396 -1.665917,-0.66258 -1.135852,-1.06013 0.43541,-0.30289 1.211576,-0.18931 1.533401,0.2461 0.265032,0.34076 1.590193,0.35969 1.590193,0.019 0,-0.43541 -0.605788,-1.11693 -1.249438,-1.38196 -0.700442,-0.30289 -1.400885,-0.32182 -2.290635,-0.0568 z"
     id="path1052"
     style="stroke-width:0.0189309" />
  <path
     d="m 17.766918,94.201028 v 2.93428 h 0.757235 0.757235 v -2.93428 -2.93429 h -0.757235 -0.757235 z"
     id="path1196"
     style="stroke-width:0.0189309" />
  <path
     d="m 51.463874,91.380328 c 0,0.0568 0.473272,1.43874 1.041198,3.08573 0.85189,2.38529 1.022268,3.02894 0.870821,3.36969 -0.132516,0.28397 -0.359687,0.43541 -0.681512,0.43541 -0.397548,0 -0.473272,0.0947 -0.473272,0.56793 0,0.32183 0.113586,0.62472 0.265032,0.68151 0.454342,0.17038 1.798433,-0.30289 2.025604,-0.70044 0.227171,-0.43541 2.631392,-7.19373 2.631392,-7.4209 0,-0.0947 -0.359687,-0.13252 -0.795097,-0.0947 l -0.795097,0.0568 -0.567926,2.04454 c -0.302894,1.11692 -0.624719,1.93094 -0.681512,1.79843 -0.07572,-0.13252 -0.378617,-1.07906 -0.66258,-2.10132 l -0.530065,-1.8363 h -0.832958 c -0.43541,0 -0.814028,0.0568 -0.814028,0.11359 z"
     id="path1198"
     style="stroke-width:0.0189309" />
  <path
     d="m 77.77779,93.519508 c 0,1.24944 0.07572,2.47995 0.189309,2.76391 0.397548,1.0412 2.252774,1.24944 3.237179,0.35969 0.340756,-0.30289 0.359687,-0.30289 0.359687,0.0757 0,0.35969 0.113585,0.41648 0.757235,0.41648 h 0.757235 v -2.93428 -2.93429 h -0.851889 -0.85189 v 2.04453 c 0,1.76057 -0.05679,2.10133 -0.340755,2.36636 -0.397549,0.35969 -0.85189,0.39755 -1.381954,0.13252 -0.321826,-0.18931 -0.359687,-0.41648 -0.359687,-2.36636 v -2.17705 H 78.535025 77.77779 Z"
     id="path1200"
     style="stroke-width:0.0189309" />
</svg>
