<?xml version="1.0" encoding="UTF-8" standalone="no"?>
<!-- Created with Inkscape (http://www.inkscape.org/) -->

<svg
   width="100mm"
   height="100mm"
   viewBox="0 0 100 100"
   version="1.1"
   id="svg26768"
   sodipodi:docname="directories.svg"
   inkscape:version="1.1.1 (3bf5ae0d25, 2021-09-20)"
   xmlns:inkscape="http://www.inkscape.org/namespaces/inkscape"
   xmlns:sodipodi="http://sodipodi.sourceforge.net/DTD/sodipodi-0.dtd"
   xmlns="http://www.w3.org/2000/svg"
   xmlns:svg="http://www.w3.org/2000/svg">
  <sodipodi:namedview
     id="namedview26770"
     pagecolor="#ffffff"
     bordercolor="#666666"
     borderopacity="1.0"
     inkscape:pageshadow="2"
     inkscape:pageopacity="0.0"
     inkscape:pagecheckerboard="0"
     inkscape:document-units="mm"
     showgrid="false"
     width="209mm"
     inkscape:zoom="0.7500982"
     inkscape:cx="13.998167"
     inkscape:cy="135.31562"
     inkscape:window-width="1920"
     inkscape:window-height="1027"
     inkscape:window-x="1912"
     inkscape:window-y="-8"
     inkscape:window-maximized="1"
     inkscape:current-layer="layer1" />
  <defs
     id="defs26765" />
  <g
     inkscape:label="Layer 1"
     inkscape:groupmode="layer"
     id="layer1">
    <path
       d="M 15.830808,1.7147147 C 14.88185,2.2304527 14.510518,3.0143752 14.40737,4.8091448 L 14.304223,6.4595072 12.65386,6.562655 C 10.776573,6.6864324 10.281464,6.8927279 9.6832075,7.8829452 L 9.2499869,8.56372 v 30.98556 c 0,25.848804 0.041262,31.088702 0.2888135,31.645699 0.3300729,0.804556 1.2584016,1.691623 2.0423246,1.980437 0.41259,0.165035 11.593798,0.226928 36.390496,0.226928 h 35.812875 l 0.845812,-0.495111 c 1.093364,-0.639515 1.77414,-1.856658 1.918544,-3.445133 l 0.123779,-1.217143 h 1.13462 c 1.464702,0 2.640583,-0.660145 3.341984,-1.897913 L 91.664977,65.45997 V 37.403808 9.3476419 L 91.149235,8.4605723 C 90.860427,7.9242046 90.282799,7.3465775 89.787688,7.057764 L 88.941877,6.562655 H 62.247263 c -14.688229,0 -26.797767,-0.082518 -26.921546,-0.1650362 -0.123774,-0.082518 -0.268184,-0.8045515 -0.33007,-1.6297334 -0.123779,-1.6709921 -0.453849,-2.3517669 -1.464696,-2.950023 -0.61889,-0.3919612 -1.09337,-0.4125909 -8.911964,-0.4125909 -6.725225,0.020631 -8.354958,0.061889 -8.788179,0.3094432 z m 16.544887,3.7339455 c 0.123779,1.7122515 0.598259,2.6612101 1.62973,3.1975779 0.680777,0.3713316 1.774141,0.3919612 27.437282,0.3919612 23.847746,0 26.777137,0.041256 27.189731,0.3300723 l 0.453849,0.3094432 V 37.403808 65.129901 l -0.453849,0.309439 c -0.247559,0.185665 -0.804556,0.330075 -1.237774,0.330075 H 86.610739 L 86.569512,40.126908 86.50762,14.505026 85.950622,13.576697 c -0.309439,-0.556998 -0.866436,-1.113995 -1.361547,-1.402808 l -0.82518,-0.45385 h -26.67399 c -14.688228,0 -26.797766,-0.08252 -26.92154,-0.165036 C 30.044586,11.472485 29.900182,10.750451 29.83829,9.925269 29.714516,8.3161652 29.405071,7.6147614 28.497373,7.0371343 28.002263,6.7070621 27.238969,6.6451731 22.45292,6.562655 l -5.466858,-0.1031478 -0.06189,-1.010847 c -0.04126,-0.5569974 -0.02063,-1.1346244 0.04126,-1.2790309 0.103148,-0.2475548 1.382179,-0.2888135 7.694819,-0.2475548 l 7.591667,0.061889 z m -5.157387,5.1573838 c 0.12378,1.712252 0.598259,2.66121 1.629737,3.197578 0.680776,0.371332 1.77414,0.391961 27.437281,0.391961 23.847741,0 26.777138,0.04126 27.189725,0.330072 0.412594,0.288814 0.453849,0.47448 0.453849,2.619951 v 2.310508 H 47.827217 11.725531 v -5.074865 c 0,-2.784987 0.06189,-5.1367542 0.144407,-5.1986432 0.08252,-0.082518 3.52765,-0.1237768 7.674186,-0.1031477 l 7.550411,0.061889 z m 56.277374,11.717575 0.433218,0.391962 v 23.785851 23.785849 l -0.453849,0.309445 c -0.412587,0.288814 -4.146534,0.33007 -35.689095,0.33007 -34.96706,0 -35.235244,0 -35.647834,-0.412587 -0.412591,-0.412594 -0.412591,-0.680777 -0.412591,-23.950885 0,-16.256075 0.06189,-23.641448 0.226925,-23.930261 0.123777,-0.226926 0.412591,-0.495109 0.660145,-0.598257 0.268184,-0.103148 15.534036,-0.165036 35.441538,-0.144407 34.100621,0.04126 35.008325,0.04126 35.441543,0.43322 z"
       id="path121"
       style="stroke-width:0.0206295" />
    <path
       d="m 19.771052,94.258799 v 4.352831 l 2.558059,-0.08252 c 2.22799,-0.06189 2.640583,-0.123773 3.156319,-0.495104 1.753509,-1.299661 2.227989,-4.662276 0.928329,-6.663344 -0.763294,-1.175881 -1.609106,-1.464695 -4.373462,-1.464695 h -2.269245 z m 4.3322,-2.723094 c 0.701401,0.185666 1.237774,1.320285 1.237774,2.599321 0,1.217143 -0.515742,2.372394 -1.237774,2.723094 -0.288814,0.14441 -0.94896,0.268184 -1.485327,0.268184 H 21.62771 v -2.88813 -2.888135 l 0.990215,0.02064 c 0.536367,0.02064 1.196513,0.08252 1.485327,0.16504 z"
       id="path281"
       style="stroke-width:0.0206295" />
    <path
       d="m 28.435452,90.628001 c 0,0.701407 0.02064,0.722038 0.825186,0.722038 0.80455,0 0.825181,-0.02064 0.825181,-0.722038 0,-0.701402 -0.02064,-0.722032 -0.825181,-0.722032 -0.804556,0 -0.825186,0.02064 -0.825186,0.722032 z"
       id="path283"
       style="stroke-width:0.0206295" />
    <path
       d="m 65.774913,90.628001 c 0,0.701407 0.02064,0.722038 0.825182,0.722038 0.80455,0 0.825181,-0.02064 0.825181,-0.722038 0,-0.701402 -0.02064,-0.722032 -0.825181,-0.722032 -0.804557,0 -0.825182,0.02064 -0.825182,0.722032 z"
       id="path285"
       style="stroke-width:0.0206295" />
    <path
       d="m 50.096463,91.350039 c 0,0.680771 -0.06189,0.825181 -0.412588,0.825181 -0.330076,0 -0.412593,0.144404 -0.412593,0.618884 0,0.47448 0.08252,0.618884 0.412593,0.618884 0.391963,0 0.412588,0.14441 0.412588,2.24862 0,2.681839 0.123779,2.908766 1.670992,2.908766 0.990221,0 1.010846,-0.02064 1.010846,-0.618884 0,-0.515741 -0.08252,-0.61889 -0.515735,-0.61889 -0.515736,0 -0.515736,0 -0.515736,-1.959806 0,-1.959806 0,-1.959806 0.515736,-1.959806 0.433218,0 0.515735,-0.103143 0.515735,-0.618884 0,-0.515736 -0.08252,-0.618884 -0.515735,-0.618884 -0.45385,0 -0.515736,-0.08252 -0.515736,-0.825181 v -0.825186 h -0.825187 -0.82518 z"
       id="path317"
       style="stroke-width:0.0206295" />
    <path
       d="m 34.273614,92.278368 c -0.371331,0.165035 -0.680776,0.391957 -0.680776,0.515736 0,0.103148 -0.08252,0.206296 -0.206297,0.206296 -0.103148,0 -0.206296,-0.185665 -0.206296,-0.412593 0,-0.33007 -0.144404,-0.412587 -0.722033,-0.412587 H 31.73618 v 3.197574 3.19758 h 0.825181 0.82518 V 96.65183 c 0,-2.207365 0.226928,-2.70247 1.340922,-2.908766 0.680771,-0.14441 0.722033,-0.185666 0.722033,-0.94896 0,-0.907698 -0.14441,-0.969591 -1.175882,-0.515736 z"
       id="path443"
       style="stroke-width:0.0206295" />
    <path
       d="m 37.615599,92.38151 c -0.47448,0.226928 -1.010853,0.701408 -1.237774,1.072739 -0.495111,0.866443 -0.515742,2.888136 -0.04128,3.816465 0.639515,1.196512 2.743731,1.877288 3.919612,1.279029 0.660146,-0.3507 1.588475,-1.258399 1.588475,-1.567844 0,-0.391962 -1.526582,-0.3507 -1.856658,0.04129 -0.598259,0.722032 -2.269251,0.144404 -2.269251,-0.783925 0,-0.309445 0.288814,-0.350701 2.186733,-0.350701 h 2.207359 l -0.144404,-0.969591 c -0.165035,-1.258399 -0.680776,-2.083579 -1.567844,-2.558059 -0.928329,-0.495111 -1.753515,-0.495111 -2.784987,0.02064 z m 2.207358,1.382184 c 0.701402,0.639515 0.47448,0.887068 -0.866442,0.887068 -0.680776,0 -1.237774,-0.06189 -1.237774,-0.165035 0,-0.08252 0.14441,-0.371332 0.330076,-0.618884 0.371332,-0.536373 1.237774,-0.598259 1.77414,-0.103149 z"
       id="path445"
       style="stroke-width:0.0206295" />
    <path
       d="m 44.670899,92.17522 c -0.825181,0.247552 -1.175887,0.598253 -1.609106,1.547213 -0.49511,1.052108 -0.49511,2.454917 0,3.52765 0.495111,1.113994 1.526588,1.609105 2.970653,1.464695 0.866442,-0.08252 1.155256,-0.206291 1.732879,-0.845811 0.371331,-0.391957 0.680776,-0.928329 0.680776,-1.155251 0,-0.350701 -0.144404,-0.412593 -0.783924,-0.412593 -0.66014,0 -0.845806,0.103148 -1.031472,0.515742 -0.165041,0.371331 -0.391962,0.515735 -0.825186,0.515735 -0.907699,0 -1.27903,-0.556997 -1.27903,-1.918544 0,-1.27903 0.453849,-2.001068 1.217143,-2.001068 0.412593,0 1.052108,0.515741 1.052108,0.845811 0,0.103149 0.412587,0.185666 0.907698,0.185666 h 0.928329 L 48.446101,93.80495 c -0.268183,-0.928329 -0.722032,-1.340916 -1.753509,-1.609105 -1.031478,-0.268184 -1.217143,-0.268184 -2.021693,-0.02064 z"
       id="path447"
       style="stroke-width:0.0206295" />
    <path
       d="m 55.047552,92.319624 c -0.887067,0.453849 -1.650361,1.877289 -1.650361,3.05317 0,0.453849 0.206297,1.258405 0.47448,1.75351 0.598253,1.217143 1.505951,1.691623 2.991278,1.588474 1.877288,-0.144404 2.991283,-1.382178 2.991283,-3.341984 0,-1.959806 -1.113995,-3.197574 -2.991283,-3.341984 -0.783919,-0.06189 -1.299661,0.02064 -1.815397,0.288814 z m 2.661208,1.629736 c 0.990222,1.258399 0.288814,3.38324 -1.113995,3.38324 -0.763288,0 -1.072733,-0.288814 -1.340916,-1.258399 -0.247558,-0.82518 0.06189,-2.145472 0.577628,-2.434286 0.66014,-0.391962 1.423434,-0.247552 1.877283,0.309445 z"
       id="path449"
       style="stroke-width:0.0206295" />
    <path
       d="m 63.773845,92.278368 c -0.371332,0.165035 -0.680777,0.391957 -0.680777,0.515736 0,0.103148 -0.08252,0.206296 -0.206291,0.206296 -0.103148,0 -0.206296,-0.185665 -0.206296,-0.412593 0,-0.33007 -0.14441,-0.412587 -0.722033,-0.412587 H 61.23641 v 3.197574 3.19758 h 0.825187 0.82518 V 96.65183 c 0,-2.207365 0.226922,-2.70247 1.340917,-2.908766 0.680776,-0.14441 0.722032,-0.185666 0.722032,-0.94896 0,-0.907698 -0.144404,-0.969591 -1.175881,-0.515736 z"
       id="path451"
       style="stroke-width:0.0206295" />
    <path
       d="m 70.416559,92.38151 c -0.47448,0.226928 -1.010852,0.701408 -1.237774,1.072739 -0.49511,0.866443 -0.515741,2.888136 -0.04129,3.816465 0.639515,1.196512 2.743731,1.877288 3.919613,1.279029 0.660145,-0.3507 1.588474,-1.258399 1.588474,-1.567844 0,-0.391962 -1.526582,-0.3507 -1.856658,0.04129 -0.598253,0.722032 -2.269245,0.144404 -2.269245,-0.783925 0,-0.309445 0.288808,-0.350701 2.186728,-0.350701 h 2.207359 l -0.144405,-0.969591 c -0.165034,-1.258399 -0.680776,-2.083579 -1.567843,-2.558059 -0.928329,-0.495111 -1.75351,-0.495111 -2.784987,0.02064 z m 2.207359,1.382184 c 0.701401,0.639515 0.47448,0.887068 -0.866442,0.887068 -0.680771,0 -1.237769,-0.06189 -1.237769,-0.165035 0,-0.08252 0.144405,-0.371332 0.33007,-0.618884 0.371332,-0.536373 1.237774,-0.598259 1.774141,-0.103149 z"
       id="path453"
       style="stroke-width:0.0206295" />
    <path
       d="m 77.183045,92.195845 c -1.382178,0.391962 -1.980437,2.145472 -1.031477,3.011914 0.247552,0.247552 1.010846,0.598259 1.691623,0.783925 0.680771,0.206291 1.382178,0.495105 1.547213,0.660146 0.268183,0.268183 0.268183,0.330069 -0.08252,0.598253 -0.598259,0.433218 -1.320291,0.3507 -1.897919,-0.226922 -0.639515,-0.660146 -1.939176,-0.742663 -1.939176,-0.123779 0,0.598253 0.763294,1.402809 1.588475,1.691623 0.433218,0.144404 1.217143,0.185666 1.89792,0.123773 0.948954,-0.103148 1.258399,-0.226921 1.732878,-0.763288 1.217143,-1.361553 0.433219,-2.805618 -1.815396,-3.321359 -1.382184,-0.309439 -1.815402,-0.722033 -1.237774,-1.155251 0.47448,-0.330076 1.320292,-0.206296 1.670992,0.268184 0.288814,0.371331 1.732879,0.391962 1.732879,0.02064 0,-0.47448 -0.660146,-1.217143 -1.361547,-1.505957 -0.763294,-0.330076 -1.526588,-0.350701 -2.496173,-0.06189 z"
       id="path455"
       style="stroke-width:0.0206295" />
    <path
       d="m 28.435452,95.372794 v 3.19758 h 0.825186 0.825181 v -3.19758 -3.197574 h -0.825181 -0.825186 z"
       id="path473"
       style="stroke-width:0.0206295" />
    <path
       d="m 65.774913,95.372794 v 3.19758 h 0.825182 0.825181 v -3.19758 -3.197574 h -0.825181 -0.825182 z"
       id="path475"
       style="stroke-width:0.0206295" />
  </g>
</svg>
