<?xml version="1.0" encoding="UTF-8" standalone="no"?>
<!-- Created with Inkscape (http://www.inkscape.org/) -->

<svg
   width="100mm"
   height="100mm"
   viewBox="0 0 100 100"
   version="1.1"
   id="svg26768"
   sodipodi:docname="distributed management console.svg"
   inkscape:version="1.1.1 (3bf5ae0d25, 2021-09-20)"
   xmlns:inkscape="http://www.inkscape.org/namespaces/inkscape"
   xmlns:sodipodi="http://sodipodi.sourceforge.net/DTD/sodipodi-0.dtd"
   xmlns="http://www.w3.org/2000/svg"
   xmlns:svg="http://www.w3.org/2000/svg">
  <sodipodi:namedview
     id="namedview26770"
     pagecolor="#ffffff"
     bordercolor="#666666"
     borderopacity="1.0"
     inkscape:pageshadow="2"
     inkscape:pageopacity="0.0"
     inkscape:pagecheckerboard="0"
     inkscape:document-units="mm"
     showgrid="false"
     width="209mm"
     inkscape:zoom="0.7500982"
     inkscape:cx="13.998167"
     inkscape:cy="135.31562"
     inkscape:window-width="1920"
     inkscape:window-height="1009"
     inkscape:window-x="1912"
     inkscape:window-y="-8"
     inkscape:window-maximized="1"
     inkscape:current-layer="layer1" />
  <defs
     id="defs26765" />
  <g
     inkscape:label="Layer 1"
     inkscape:groupmode="layer"
     id="layer1">
    <path
       d="m 72.604083,22.408666 c -0.810452,0.682483 -0.867322,0.924196 -0.867322,3.711001 v 2.530876 l -2.246511,2.246505 -2.232289,2.232289 h -8.701659 -8.687438 l -0.05685,-2.829461 c -0.04264,-3.09961 -0.07107,-3.213357 -1.023724,-3.910059 -0.383903,-0.298586 -0.469207,-0.298586 -15.085724,-0.298586 -14.644944,0 -14.701822,0 -15.099938,0.298586 -0.938415,0.682484 -0.895758,0.227494 -0.895758,11.147223 0,11.218313 -0.07107,10.578488 1.137477,11.189879 0.611383,0.327023 0.710918,0.327023 5.786887,0.327023 h 5.161274 v 0.995286 0.995293 h -2.260723 -2.274947 l -0.298588,0.383895 c -0.355459,0.454985 -0.284367,0.981071 0.170627,1.350743 0.270145,0.241719 0.895758,0.255932 8.602132,0.255932 h 8.303544 l 0.341237,-0.355459 c 0.426551,-0.42655 0.440772,-0.767796 0.05685,-1.265439 L 42.148266,51.044521 H 39.94442 37.754787 v -0.995293 -0.995286 h 5.232366 c 5.843766,0 5.929071,-0.01421 6.497805,-0.995284 0.241719,-0.426552 0.284376,-0.796232 0.341246,-2.744154 l 0.04264,-2.232288 h 6.782172 6.767959 l 2.246503,2.246509 2.232288,2.23229 v 2.559304 c 0,2.289168 0.02842,2.60197 0.284368,3.014299 0.5403,0.909981 0.767796,0.966859 3.625698,0.966859 2.857894,0 3.241796,-0.09954 3.767874,-0.966859 0.255932,-0.412329 0.284367,-0.725131 0.284367,-3.071169 0,-3.9385 -0.07107,-3.99537 -4.151776,-3.99537 H 69.106331 L 66.61811,43.57986 64.129889,41.09164 h -7.137623 -7.151854 v -0.995288 -0.995288 h 12.014539 12.014547 v 0.838886 c 0,0.710919 0.05685,0.924196 0.36968,1.293874 0.668262,0.79623 0.938416,0.853103 3.62569,0.853103 2.203854,0 2.488222,-0.02843 2.971651,-0.298586 0.924194,-0.526081 0.995285,-0.767793 0.995285,-3.711002 0,-2.360254 -0.02843,-2.644621 -0.284367,-3.071174 -0.511865,-0.838885 -1.165912,-1.023724 -3.767873,-1.023724 -1.947922,0 -2.360259,0.04265 -2.886338,0.284368 -0.725139,0.327023 -1.15169,1.123254 -1.165912,2.161196 v 0.682483 H 61.78386 49.840412 v -1.066379 -1.06638 h 9.213515 9.19931 l 2.474001,-2.474002 2.48822,-2.488219 2.729932,-0.04265 c 2.687275,-0.04265 2.744145,-0.04265 3.128048,-0.398114 0.668261,-0.62561 0.767788,-1.06638 0.767788,-3.5546 0,-2.488219 -0.09953,-2.928989 -0.767788,-3.554599 -0.383903,-0.35546 -0.426559,-0.35546 -3.19914,-0.398116 l -2.815245,-0.04266 z m 5.246588,3.611473 v 1.990576 h -2.06167 -2.061671 v -1.990576 -1.990576 h 2.061671 2.06167 z M 47.707667,37.53704 v 9.526324 l -13.962469,-0.02842 -13.976682,-0.04264 -0.04264,-9.497889 -0.02842,-9.483671 h 14.005124 14.005118 z m 32.133575,0.426552 v 1.990575 H 77.77958 75.717909 v -1.990575 -1.990575 h 2.061671 2.061662 z M 73.72733,50.049228 v 1.990579 h -1.990569 -1.990579 v -1.990579 -1.99057 h 1.990579 1.990569 z m -37.963118,0 v 1.009506 l -2.019014,-0.04264 -2.033227,-0.04264 -0.04264,-0.96685 -0.04264,-0.952637 h 2.075884 2.06167 z"
       id="path7406"
       style="stroke-width:0.0142185" />
    <path
       d="m 32.920531,31.707497 c 0,0.540299 -0.05685,0.853103 -0.156397,0.853103 -0.08532,0 -0.540307,0.170622 -1.009515,0.383898 l -0.83888,0.369678 -0.554521,-0.540299 -0.568734,-0.554517 -0.568734,0.554517 -0.568735,0.554518 0.568735,0.582954 c 0.554513,0.554517 0.554513,0.582955 0.341246,0.909977 -0.127971,0.184839 -0.312811,0.597173 -0.412338,0.924197 l -0.170619,0.582953 -0.881545,0.04265 -0.867323,0.04265 v 0.838886 0.853103 h 0.838888 c 0.838889,0 0.838889,0 0.952629,0.45499 0.04264,0.255931 0.227497,0.739356 0.383902,1.080597 l 0.29858,0.597173 -0.554512,0.568735 -0.554521,0.568737 0.554521,0.568736 0.554512,0.568736 0.582957,-0.568736 0.582956,-0.582955 0.78201,0.369679 c 0.42655,0.184839 0.881545,0.35546 1.023728,0.35546 0.199053,0 0.24171,0.142184 0.24171,0.853104 v 0.853104 h 0.710918 0.710927 v -0.853107 c 0,-0.71092 0.04264,-0.853105 0.255924,-0.853105 0.12797,0 0.582955,-0.17062 1.009507,-0.355459 l 0.782017,-0.369679 0.582949,0.582955 0.582955,0.568735 0.554521,-0.568735 0.554513,-0.568736 -0.582948,-0.611392 -0.582956,-0.597172 0.270146,-0.426552 c 0.156405,-0.241713 0.341245,-0.668264 0.440772,-0.966851 l 0.156406,-0.526081 h 0.909972 0.895757 v -0.924182 -0.924195 h -0.853102 -0.838887 l -0.156397,-0.5403 c -0.07107,-0.284368 -0.255932,-0.725137 -0.412338,-0.952632 l -0.270145,-0.426552 0.582948,-0.597172 0.582955,-0.611391 -0.554512,-0.568737 -0.554521,-0.568736 -0.582948,0.568736 -0.582956,0.582955 -0.782018,-0.369678 C 35.323439,32.731222 34.868453,32.5606 34.740491,32.5606 c -0.213283,0 -0.255932,-0.142182 -0.255932,-0.853103 v -0.853103 h -0.782017 -0.782011 z m 1.862609,2.630404 c 2.175419,0.767794 2.815245,3.611473 1.180134,5.246588 -1.265448,1.265438 -3.213361,1.251219 -4.464587,-0.04265 -1.322308,-1.350747 -1.322308,-3.09961 0,-4.421921 0.952637,-0.952633 2.04745,-1.208564 3.284453,-0.782012 z"
       id="path7408"
       style="stroke-width:0.0142185" />
    <path
       d="m 1.9244246,82.907942 v 3.000086 l 1.7630816,-0.05685 C 5.2230988,85.80853 5.5074579,85.765866 5.862925,85.509935 7.0714857,84.614178 7.3985096,82.296583 6.5027512,80.917395 5.9766654,80.106943 5.3937176,79.907889 3.4884524,79.907889 H 1.9244246 Z m 2.9858638,-1.876821 c 0.4834292,0.127962 0.8531016,0.909971 0.8531016,1.791517 0,0.838887 -0.355459,1.635111 -0.8531016,1.876829 -0.1990538,0.09953 -0.6540478,0.184841 -1.0237284,0.184841 H 3.204077 V 82.893729 80.90315 l 0.682483,0.01421 c 0.3696806,0.01421 0.8246746,0.05685 1.0237284,0.113749 z"
       id="path7450"
       style="stroke-width:0.0142185" />
    <path
       d="m 7.8961522,80.405508 c 0,0.483429 0.014213,0.497642 0.5687344,0.497642 0.5545211,0 0.5687343,-0.01421 0.5687343,-0.497642 0,-0.483421 -0.014211,-0.497642 -0.5687343,-0.497642 -0.5545128,0 -0.5687344,0.01421 -0.5687344,0.497642 z"
       id="path7452"
       style="stroke-width:0.0142185" />
    <path
       d="m 20.834893,80.405508 c 0,0.483429 0.01421,0.497642 0.568734,0.497642 0.554521,0 0.568735,-0.01421 0.568735,-0.497642 0,-0.483421 -0.01421,-0.497642 -0.568735,-0.497642 -0.554513,0 -0.568734,0.01421 -0.568734,0.497642 z"
       id="path7454"
       style="stroke-width:0.0142185" />
    <path
       d="m 23.109838,82.893729 v 2.985863 h 0.497643 c 0.341238,0 0.497643,-0.07107 0.497643,-0.213275 0,-0.270145 0.12797,-0.270145 0.440772,0.01421 0.142184,0.12797 0.497643,0.255932 0.796232,0.284375 1.137468,0.142176 1.9337,-0.824666 1.9337,-2.360259 0,-1.393401 -0.696705,-2.218067 -1.848395,-2.189632 -0.369673,0.01421 -0.725139,0.113748 -0.895759,0.270145 -0.284366,0.255932 -0.284366,0.241719 -0.284366,-0.753574 v -1.023717 h -0.568734 -0.568736 z m 2.744146,-0.113748 c 0.341246,0.412337 0.327023,1.393409 -0.05686,1.87683 -0.78201,0.995285 -1.919487,-0.12797 -1.535585,-1.521371 0.227497,-0.824667 1.023721,-1.009507 1.592455,-0.355459 z"
       id="path7456"
       style="stroke-width:0.0142185" />
    <path
       d="m 43.44215,80.90315 v 0.995294 l -0.454994,-0.284367 c -0.611391,-0.369681 -1.094811,-0.355468 -1.691989,0.04264 -0.639826,0.426551 -0.981064,1.137477 -0.981064,2.06167 0,1.777304 1.364958,2.815245 2.673053,2.019015 0.369681,-0.227498 0.454994,-0.241711 0.454994,-0.07107 0,0.156405 0.156397,0.213275 0.568735,0.213275 h 0.568734 V 82.893743 79.90788 H 44.010885 43.44215 Z m -0.298589,1.777304 c 0.113749,0.113748 0.22749,0.497643 0.255933,0.881536 0.05685,0.554521 0.01421,0.753575 -0.241718,1.066386 -0.824668,1.066377 -2.033228,-0.09954 -1.56402,-1.521372 0.24171,-0.753575 0.995284,-0.952636 1.549805,-0.42655 z"
       id="path7458"
       style="stroke-width:0.0142185" />
    <path
       d="m 47.992034,82.893729 v 2.985863 h 0.568734 0.568734 l 0.01421,-2.388693 c 0,-1.322309 0.05685,-2.246503 0.113748,-2.090106 0.07107,0.156405 0.327023,1.222791 0.582955,2.374481 l 0.469208,2.104318 h 0.611391 0.59717 l 0.284367,-1.251216 c 0.156406,-0.682483 0.398115,-1.748868 0.55452,-2.374473 l 0.255933,-1.137477 0.04264,2.374473 0.02843,2.388693 h 0.568734 0.568734 v -2.985863 -2.985863 h -0.924193 c -0.511864,0 -0.924193,0.04264 -0.924193,0.09953 -0.01421,0.213275 -0.981072,4.336615 -1.023729,4.393486 -0.04264,0.02842 -0.241711,-0.72514 -0.454986,-1.691991 -0.213275,-0.952636 -0.454994,-1.976356 -0.526085,-2.274945 L 49.826172,79.907869 H 48.9162 47.991998 Z"
       id="path7460"
       style="stroke-width:0.0142185" />
    <path
       d="m 15.005349,80.90315 c 0,0.469208 -0.04264,0.568743 -0.284368,0.568743 -0.227488,0 -0.284366,0.09953 -0.284366,0.426551 0,0.327024 0.05686,0.426551 0.284366,0.426551 0.270155,0 0.284368,0.09953 0.284368,1.549806 0,1.848386 0.08532,2.004791 1.15169,2.004791 0.682484,0 0.696705,-0.01421 0.696705,-0.42655 0,-0.355459 -0.05685,-0.426559 -0.355459,-0.426559 -0.355459,0 -0.355459,0 -0.355459,-1.350744 0,-1.350744 0,-1.350744 0.355459,-1.350744 0.298589,0 0.355459,-0.07107 0.355459,-0.426551 0,-0.355459 -0.05685,-0.426551 -0.355459,-0.426551 -0.312811,0 -0.355459,-0.05685 -0.355459,-0.568743 v -0.568734 h -0.568743 -0.568734 z"
       id="path7516"
       style="stroke-width:0.0142185" />
    <path
       d="m 33.489265,80.90315 c 0,0.469208 -0.04264,0.568743 -0.284366,0.568743 -0.227498,0 -0.284368,0.09953 -0.284368,0.426551 0,0.327024 0.05685,0.426551 0.284368,0.426551 0.270153,0 0.284366,0.09953 0.284366,1.549806 0,1.848386 0.08532,2.004791 1.151691,2.004791 0.682483,0 0.696705,-0.01421 0.696705,-0.42655 0,-0.355459 -0.05685,-0.426559 -0.355459,-0.426559 -0.355459,0 -0.355459,0 -0.355459,-1.350744 0,-1.350744 0,-1.350744 0.355459,-1.350744 0.29858,0 0.355459,-0.07107 0.355459,-0.426551 0,-0.355459 -0.05685,-0.426551 -0.355459,-0.426551 -0.312803,0 -0.355459,-0.05685 -0.355459,-0.568743 v -0.568734 h -0.568742 -0.568736 z"
       id="path7518"
       style="stroke-width:0.0142185" />
    <path
       d="m 96.050215,80.90315 c 0,0.469208 -0.04264,0.568743 -0.284367,0.568743 -0.227489,0 -0.284367,0.09953 -0.284367,0.426551 0,0.327024 0.05685,0.426551 0.284367,0.426551 0.270153,0 0.284367,0.09953 0.284367,1.549806 0,1.848386 0.08532,2.004791 1.15169,2.004791 0.682484,0 0.696705,-0.01421 0.696705,-0.42655 0,-0.355459 -0.05685,-0.426559 -0.355459,-0.426559 -0.355459,0 -0.355459,0 -0.355459,-1.350744 0,-1.350744 0,-1.350744 0.355459,-1.350744 0.298581,0 0.355459,-0.07107 0.355459,-0.426551 0,-0.355459 -0.05685,-0.426551 -0.355459,-0.426551 -0.31281,0 -0.355459,-0.05685 -0.355459,-0.568743 v -0.568734 h -0.568743 -0.568734 z"
       id="path7520"
       style="stroke-width:0.0142185" />
    <path
       d="m 11.209041,81.486107 c -0.952638,0.270145 -1.3649669,1.478713 -0.710918,2.075883 0.170618,0.170627 0.696695,0.412338 1.165904,0.5403 0.469207,0.142191 0.952636,0.341245 1.066376,0.454994 0.184849,0.18484 0.184849,0.227489 -0.05685,0.412329 -0.412329,0.298588 -0.909979,0.24171 -1.308087,-0.156397 -0.440773,-0.454994 -1.336531,-0.511864 -1.336531,-0.08532 0,0.412338 0.526078,0.966851 1.094812,1.165913 0.298589,0.09953 0.838889,0.127961 1.308096,0.08531 0.654048,-0.07107 0.867323,-0.156397 1.194339,-0.526077 0.838888,-0.938414 0.298589,-1.933699 -1.251218,-2.289167 -0.952628,-0.213275 -1.251217,-0.497641 -0.853101,-0.796222 0.327024,-0.227498 0.90998,-0.142184 1.15169,0.184831 0.199062,0.255932 1.194348,0.270155 1.194348,0.01421 0,-0.327024 -0.454986,-0.838888 -0.938416,-1.037942 -0.526077,-0.227494 -1.052163,-0.241707 -1.720424,-0.04263 z"
       id="path7568"
       style="stroke-width:0.0142185" />
    <path
       d="m 19.31353,81.542985 c -0.255932,0.11374 -0.469208,0.270146 -0.469208,0.355459 0,0.07107 -0.05685,0.142183 -0.142191,0.142183 -0.07107,0 -0.142184,-0.127969 -0.142184,-0.284375 0,-0.227489 -0.09953,-0.284359 -0.497642,-0.284359 h -0.497643 v 2.203846 2.203853 h 0.568734 0.568735 v -1.322308 c 0,-1.521371 0.156405,-1.862609 0.924201,-2.004801 0.469207,-0.09953 0.497643,-0.127961 0.497643,-0.654039 0,-0.625613 -0.09953,-0.668269 -0.810445,-0.355459 z"
       id="path7570"
       style="stroke-width:0.0142185" />
    <path
       d="m 36.830589,81.614077 c -0.327025,0.156397 -0.696697,0.48342 -0.853102,0.739352 -0.341238,0.59717 -0.355459,1.990579 -0.02842,2.630406 0.440771,0.824666 1.891051,1.293873 2.701495,0.881536 0.454995,-0.241711 1.094821,-0.867315 1.094821,-1.080598 0,-0.270146 -1.052164,-0.241711 -1.279652,0.02842 -0.412337,0.497642 -1.564028,0.09953 -1.564028,-0.5403 0,-0.213283 0.199054,-0.241719 1.50715,-0.241719 h 1.52137 l -0.09954,-0.668261 c -0.11374,-0.867323 -0.469199,-1.436058 -1.080599,-1.763081 -0.639825,-0.341246 -1.20856,-0.341246 -1.919478,0.01421 z m 1.521371,0.952629 c 0.483429,0.440771 0.327024,0.611391 -0.59717,0.611391 -0.469207,0 -0.85311,-0.04264 -0.85311,-0.11375 0,-0.05685 0.09953,-0.255932 0.227498,-0.42655 0.255932,-0.36968 0.853101,-0.412329 1.222782,-0.07107 z"
       id="path7572"
       style="stroke-width:0.0142185" />
    <path
       d="m 55.726843,81.528763 c -0.497642,0.213276 -0.909979,0.72514 -0.909979,1.109034 0,0.383903 1.009506,0.355459 1.251216,-0.02842 0.213276,-0.355459 1.123256,-0.398116 1.251226,-0.07107 0.142183,0.369672 -0.199062,0.59717 -1.03795,0.710918 -1.037942,0.127962 -1.606676,0.639827 -1.606676,1.450279 0.01421,1.165904 1.165912,1.69199 2.24651,1.037942 0.398116,-0.24171 0.469208,-0.255932 0.540299,-0.07107 0.05686,0.142184 0.284368,0.213277 0.739354,0.213277 0.511864,0 0.611391,-0.04264 0.483428,-0.17062 -0.113748,-0.113748 -0.170626,-0.73936 -0.170626,-1.848395 0,-1.891043 -0.09953,-2.104326 -1.094813,-2.374472 -0.710917,-0.199054 -1.15169,-0.18484 -1.691989,0.04264 z m 1.50715,3.085391 c -0.270154,0.625613 -1.151691,0.753574 -1.379188,0.18484 -0.142184,-0.383894 0.156405,-0.682483 0.824667,-0.838888 0.725139,-0.184832 0.838887,-0.04264 0.554521,0.654048 z"
       id="path7574"
       style="stroke-width:0.0142185" />
    <path
       d="m 61.186706,81.585633 c -0.42655,0.227498 -0.540299,0.241711 -0.540299,0.08532 0,-0.142184 -0.170619,-0.199054 -0.568735,-0.199054 h -0.568734 v 2.203846 2.203854 h 0.568734 0.568735 v -1.492936 c 0,-1.32231 0.02842,-1.521363 0.298588,-1.791517 0.383895,-0.383893 0.995286,-0.312802 1.222783,0.156405 0.113749,0.213276 0.18484,0.90998 0.18484,1.734647 v 1.393401 h 0.568735 0.568734 v -1.706203 c 0,-0.924202 -0.07107,-1.848395 -0.156405,-2.033236 -0.327024,-0.710926 -1.336523,-0.96685 -2.146976,-0.554521 z"
       id="path7576"
       style="stroke-width:0.0142185" />
    <path
       d="m 65.395352,81.528763 c -0.497642,0.213276 -0.909979,0.72514 -0.909979,1.109034 0,0.383903 1.009506,0.355459 1.251225,-0.02842 0.213275,-0.355459 1.123247,-0.398116 1.251218,-0.07107 0.142182,0.369672 -0.199063,0.59717 -1.037943,0.710918 -1.03795,0.127962 -1.606684,0.639827 -1.606684,1.450279 0.01421,1.165904 1.165912,1.69199 2.246511,1.037942 0.398116,-0.24171 0.469207,-0.255932 0.540298,-0.07107 0.05685,0.142184 0.284368,0.213277 0.739354,0.213277 0.511864,0 0.611391,-0.04264 0.483429,-0.17062 -0.113749,-0.113748 -0.170627,-0.73936 -0.170627,-1.848395 0,-1.891043 -0.09953,-2.104326 -1.094812,-2.374472 -0.710918,-0.199054 -1.15169,-0.18484 -1.69199,0.04264 z m 1.50715,3.085391 c -0.270146,0.625613 -1.151691,0.753574 -1.379188,0.18484 -0.142184,-0.383894 0.156405,-0.682483 0.824667,-0.838888 0.725139,-0.184832 0.838888,-0.04264 0.554521,0.654048 z"
       id="path7578"
       style="stroke-width:0.0142185" />
    <path
       d="m 70.101641,81.471893 c -0.383894,0.156397 -0.867323,0.696697 -1.052164,1.180117 -0.213275,0.568743 -0.199053,1.57825 0.04264,2.161206 0.412337,0.981064 1.777303,1.37918 2.573534,0.753574 l 0.398116,-0.31281 -0.08532,0.554521 c -0.04264,0.298581 -0.184839,0.639827 -0.284366,0.739362 -0.270155,0.284358 -1.052164,0.270145 -1.350753,0 -0.142184,-0.142192 -0.497643,-0.241719 -0.78201,-0.241719 -0.625604,0 -0.710918,0.341245 -0.199054,0.824666 0.668262,0.625613 2.274939,0.682483 3.156483,0.113749 0.511864,-0.327024 0.639826,-1.052163 0.639826,-3.540385 v -2.232281 h -0.568734 c -0.497643,0 -0.568735,0.04264 -0.568735,0.312802 -0.01421,0.298581 -0.02842,0.312802 -0.199062,0.08532 -0.341237,-0.454994 -1.137468,-0.639834 -1.720425,-0.398116 z m 1.364965,0.995286 c 0.184841,0 0.554522,0.79623 0.554522,1.20856 0,0.398116 -0.227497,0.938415 -0.483429,1.09482 -0.284368,0.199054 -0.895759,0.113749 -1.123255,-0.142183 -0.725133,-0.796232 -0.156397,-2.516656 0.725139,-2.218076 0.113748,0.02842 0.255932,0.05685 0.327023,0.05685 z"
       id="path7580"
       style="stroke-width:0.0142185" />
    <path
       d="m 75.078083,81.614077 c -0.327024,0.156397 -0.696705,0.48342 -0.85311,0.739352 -0.341236,0.59717 -0.355459,1.990579 -0.02842,2.630406 0.440772,0.824666 1.891044,1.293873 2.701496,0.881536 0.454986,-0.241711 1.094812,-0.867315 1.094812,-1.080598 0,-0.270146 -1.052155,-0.241711 -1.279652,0.02842 -0.412329,0.497642 -1.56402,0.09953 -1.56402,-0.5403 0,-0.213283 0.199054,-0.241719 1.50715,-0.241719 h 1.521363 l -0.09953,-0.668261 c -0.113749,-0.867323 -0.469208,-1.436058 -1.080599,-1.763081 -0.639826,-0.341246 -1.20856,-0.341246 -1.919478,0.01421 z m 1.521364,0.952629 c 0.483428,0.440771 0.327023,0.611391 -0.59717,0.611391 -0.469208,0 -0.853102,-0.04264 -0.853102,-0.11375 0,-0.05685 0.09953,-0.255932 0.227489,-0.42655 0.255932,-0.36968 0.853109,-0.412329 1.222783,-0.07107 z"
       id="path7582"
       style="stroke-width:0.0142185" />
    <path
       d="m 80.523725,81.599855 c -0.426551,0.213276 -0.540299,0.227489 -0.540299,0.07107 0,-0.142184 -0.17062,-0.199054 -0.568734,-0.199054 h -0.568735 v 2.203846 2.203854 h 0.568735 0.568734 v -1.549805 c 0,-1.450279 0.02842,-1.578241 0.31281,-1.777303 0.412329,-0.284367 0.483421,-0.284367 0.824666,0.05685 0.241711,0.24171 0.284368,0.469208 0.284368,1.777295 v 1.492936 h 0.568734 0.568735 v -1.492935 c 0,-1.308087 0.04264,-1.535585 0.284366,-1.777295 0.739362,-0.739353 1.137478,-0.12797 1.137478,1.805738 v 1.464493 h 0.568732 0.568737 v -1.69199 c 0,-2.019013 -0.09953,-2.374472 -0.796231,-2.65884 -0.611392,-0.255932 -1.123257,-0.170618 -1.578243,0.255932 l -0.312802,0.298581 -0.255932,-0.298581 c -0.383902,-0.440772 -1.009506,-0.511864 -1.635119,-0.18484 z"
       id="path7584"
       style="stroke-width:0.0142185" />
    <path
       d="m 87.021535,81.614077 c -0.327023,0.156397 -0.696701,0.48342 -0.853104,0.739352 -0.341241,0.59717 -0.35546,1.990579 -0.02843,2.630406 0.44077,0.824666 1.891047,1.293873 2.701496,0.881536 0.454986,-0.241711 1.094812,-0.867315 1.094812,-1.080598 0,-0.270146 -1.052155,-0.241711 -1.279652,0.02842 -0.412333,0.497642 -1.564024,0.09953 -1.564024,-0.5403 0,-0.213283 0.199058,-0.241719 1.507151,-0.241719 h 1.521365 l -0.09953,-0.668261 c -0.113748,-0.867323 -0.469207,-1.436058 -1.080598,-1.763081 -0.639827,-0.341246 -1.208563,-0.341246 -1.919482,0.01421 z m 1.521369,0.952629 c 0.483428,0.440771 0.327022,0.611391 -0.597173,0.611391 -0.469207,0 -0.853104,-0.04264 -0.853104,-0.11375 0,-0.05685 0.09953,-0.255932 0.227495,-0.42655 0.255931,-0.36968 0.853104,-0.412329 1.222782,-0.07107 z"
       id="path7586"
       style="stroke-width:0.0142185" />
    <path
       d="m 92.609365,81.585633 c -0.426551,0.227498 -0.540299,0.241711 -0.540299,0.08532 0,-0.142184 -0.170619,-0.199054 -0.568734,-0.199054 h -0.568734 v 2.203846 2.203854 h 0.568734 0.568734 v -1.492936 c 0,-1.32231 0.02842,-1.521363 0.298589,-1.791517 0.383894,-0.383893 0.995285,-0.312802 1.222782,0.156405 0.113749,0.213276 0.18484,0.90998 0.18484,1.734647 v 1.393401 h 0.568734 0.568735 v -1.706203 c 0,-0.924202 -0.07107,-1.848395 -0.156406,-2.033236 -0.327023,-0.710926 -1.33653,-0.96685 -2.146975,-0.554521 z"
       id="path7588"
       style="stroke-width:0.0142185" />
    <path
       d="m 7.8961522,83.675739 v 2.203853 H 8.4648866 9.0336209 V 83.675739 81.471893 H 8.4648866 7.8961522 Z"
       id="path7662"
       style="stroke-width:0.0142185" />
    <path
       d="m 20.834893,83.675739 v 2.203853 h 0.568734 0.568735 v -2.203853 -2.203846 h -0.568735 -0.568734 z"
       id="path7664"
       style="stroke-width:0.0142185" />
    <path
       d="m 28.228456,83.163874 c 0,0.938416 0.05685,1.862609 0.142192,2.075893 0.298589,0.782009 1.691989,0.938406 2.431343,0.270145 0.255932,-0.227497 0.270145,-0.227497 0.270145,0.05685 0,0.270146 0.08532,0.312802 0.568743,0.312802 h 0.568734 v -2.203849 -2.203846 h -0.639826 -0.639834 v 1.535585 c 0,1.322309 -0.04264,1.578241 -0.255933,1.777295 -0.29858,0.270154 -0.639825,0.298589 -1.037941,0.09954 -0.241711,-0.142183 -0.270145,-0.31281 -0.270145,-1.777303 v -1.635111 h -0.568735 -0.568743 z"
       id="path7666"
       style="stroke-width:0.0142185" />
    <path
       d="m 35.550937,90.002925 c -1.080599,0.341246 -1.777304,1.521372 -1.777304,3.056956 0,1.535593 0.469216,2.374472 1.606684,2.843681 1.407623,0.582955 2.857894,0.01421 3.440851,-1.393402 l 0.213275,-0.526086 H 38.40883 c -0.511864,0 -0.65404,0.05685 -0.725132,0.284376 -0.24171,0.767788 -1.564027,0.995285 -2.175418,0.383894 -0.639827,-0.654048 -0.611391,-2.65884 0.04264,-3.312888 0.483429,-0.483429 1.379188,-0.469207 1.848387,0.01421 0.199062,0.18484 0.355467,0.412329 0.355467,0.497642 0,0.07107 0.298581,0.142184 0.65404,0.142184 0.597177,0 0.639826,-0.01421 0.55452,-0.327024 -0.199053,-0.625613 -0.654047,-1.208569 -1.137468,-1.436057 -0.611392,-0.298589 -1.706211,-0.398116 -2.274946,-0.227498 z"
       id="path7854"
       style="stroke-width:0.0142185" />
    <path
       d="m 59.793305,92.98879 v 2.985863 h 0.568735 0.568734 V 92.98879 90.002925 H 60.36204 59.793305 Z"
       id="path7872"
       style="stroke-width:0.0142185" />
    <path
       d="m 40.882838,91.66648 c -0.6114,0.312803 -1.137477,1.293874 -1.137477,2.104327 0,0.312803 0.142184,0.867315 0.327023,1.20856 0.412338,0.838889 1.037942,1.165913 2.06167,1.094813 1.293875,-0.09953 2.061671,-0.952629 2.061671,-2.303373 0,-1.350753 -0.767796,-2.203853 -2.061671,-2.30338 -0.540298,-0.04264 -0.895757,0.01421 -1.251216,0.199053 z m 1.834173,1.123256 c 0.682483,0.867323 0.199054,2.331815 -0.767796,2.331815 -0.526086,0 -0.739354,-0.199054 -0.924194,-0.867323 -0.170627,-0.568734 0.04264,-1.478715 0.398108,-1.677777 0.454993,-0.270145 0.981072,-0.170618 1.293882,0.213285 z"
       id="path7886"
       style="stroke-width:0.0142185" />
    <path
       d="m 46.683938,91.680694 c -0.426551,0.227496 -0.540299,0.241719 -0.540299,0.08532 0,-0.142183 -0.170618,-0.199053 -0.568734,-0.199053 h -0.568734 v 2.203853 2.203846 h 0.568734 0.568734 v -1.492927 c 0,-1.322318 0.02842,-1.521372 0.298589,-1.791517 0.383894,-0.383903 0.995285,-0.31281 1.222782,0.156397 0.113749,0.213275 0.18484,0.90998 0.18484,1.734647 v 1.3934 h 0.568734 0.568736 v -1.706203 c 0,-0.924202 -0.07107,-1.848395 -0.156398,-2.033235 -0.327024,-0.710918 -1.336531,-0.96685 -2.146984,-0.554521 z"
       id="path7888"
       style="stroke-width:0.0142185" />
    <path
       d="m 51.020554,91.581167 c -0.952636,0.270153 -1.364965,1.478714 -0.710918,2.075892 0.170619,0.170618 0.696697,0.412329 1.165904,0.540299 0.469207,0.142184 0.952637,0.341238 1.066377,0.454986 0.184841,0.184841 0.184841,0.227488 -0.05685,0.412337 -0.412337,0.298581 -0.90998,0.241711 -1.308096,-0.156405 -0.440763,-0.454994 -1.336522,-0.511864 -1.336522,-0.08532 0,0.412337 0.526078,0.96685 1.094813,1.165912 0.298589,0.09953 0.838887,0.127963 1.308095,0.08531 0.654048,-0.07107 0.867323,-0.156397 1.194347,-0.526077 0.83888,-0.938416 0.29858,-1.933701 -1.251226,-2.28916 -0.952627,-0.213275 -1.251216,-0.497643 -0.853101,-0.796232 0.327024,-0.227496 0.90998,-0.142184 1.15169,0.184841 0.199054,0.255924 1.194347,0.270145 1.194347,0.01421 0,-0.327023 -0.454994,-0.838879 -0.938414,-1.037941 -0.526078,-0.22749 -1.052164,-0.241711 -1.720426,-0.04264 z"
       id="path7890"
       style="stroke-width:0.0142185" />
    <path
       d="m 55.527781,91.66648 c -0.611391,0.312803 -1.137469,1.293874 -1.137469,2.104327 0,0.312803 0.142184,0.867315 0.327025,1.20856 0.412329,0.838889 1.037941,1.165913 2.06167,1.094813 1.293873,-0.09953 2.061661,-0.952629 2.061661,-2.303373 0,-1.350753 -0.767788,-2.203853 -2.061661,-2.30338 -0.5403,-0.04264 -0.895759,0.01421 -1.251226,0.199053 z m 1.834173,1.123256 c 0.682484,0.867323 0.199062,2.331815 -0.767788,2.331815 -0.526086,0 -0.739361,-0.199054 -0.924202,-0.867323 -0.170618,-0.568734 0.04264,-1.478715 0.398116,-1.677777 0.454994,-0.270145 0.981072,-0.170618 1.293874,0.213285 z"
       id="path7892"
       style="stroke-width:0.0142185" />
    <path
       d="m 62.850261,91.709136 c -0.327024,0.156407 -0.696705,0.483422 -0.853102,0.739354 -0.341246,0.597178 -0.355467,1.990579 -0.02843,2.630404 0.440773,0.824668 1.891052,1.293875 2.701497,0.881546 0.454986,-0.241719 1.094812,-0.867323 1.094812,-1.080608 0,-0.270145 -1.052156,-0.24171 -1.279652,0.02843 -0.412329,0.497643 -1.56402,0.09953 -1.56402,-0.5403 0,-0.213275 0.199054,-0.241718 1.50715,-0.241718 h 1.521362 l -0.09953,-0.668261 C 65.7366,92.59066 65.381141,92.021925 64.769749,91.694901 64.129924,91.353663 63.56119,91.353663 62.850271,91.709111 Z m 1.521362,0.952629 c 0.48343,0.440773 0.327025,0.6114 -0.597168,0.6114 -0.469208,0 -0.853102,-0.04264 -0.853102,-0.113757 0,-0.05686 0.09953,-0.255932 0.227489,-0.426551 0.255932,-0.369673 0.853109,-0.41233 1.222781,-0.07107 z"
       id="path7894"
       style="stroke-width:0.0142185" />
  </g>
</svg>
