<?xml version="1.0" encoding="UTF-8" standalone="no"?>
<!-- Created with Inkscape (http://www.inkscape.org/) -->

<svg
   width="100mm"
   height="100mm"
   viewBox="0 0 100 100"
   version="1.1"
   id="svg26768"
   xmlns="http://www.w3.org/2000/svg"
   xmlns:svg="http://www.w3.org/2000/svg">
  <defs
     id="defs26765" />
  <g
     id="layer1">
    <path
       d="m 14.93716,14.309583 c -0.332495,0.174996 -0.769982,0.577488 -0.962479,0.909982 -0.332496,0.542487 -0.349991,0.892481 -0.349991,5.302387 0,4.392408 0.01749,4.759899 0.349991,5.302389 0.594987,0.997479 1.452467,1.259974 3.989917,1.259974 h 2.22245 V 26.034336 24.984359 H 18.22709 c -1.084975,0 -2.08246,-0.07 -2.204955,-0.139998 -0.157492,-0.122497 -0.209992,-1.119976 -0.174995,-4.427407 l 0.05246,-4.269909 2.152455,-0.0525 2.134953,-0.0525 v -1.032478 -1.049979 h -2.309947 c -1.924961,0.0175 -2.43245,0.07 -2.939941,0.349992 z"
       id="path12794"
       style="stroke-width:0.0174996" />
    <path
       d="m 79.160811,15.009569 v 1.032477 l 2.152454,0.0525 2.134952,0.0525 0.05254,4.269911 c 0.03497,3.307431 -0.01748,4.30491 -0.174995,4.427407 -0.122503,0.07001 -1.11998,0.139997 -2.18746,0.139997 h -1.977451 v 1.049978 1.049978 H 81.4358 c 2.764945,0 3.412425,-0.227496 4.007412,-1.45247 0.349998,-0.699985 0.367493,-1.049978 0.367493,-5.127392 0,-4.182412 -0.01748,-4.409908 -0.384988,-5.144892 -0.629991,-1.207474 -1.172479,-1.39997 -3.937416,-1.39997 h -2.327449 z"
       id="path12796"
       style="stroke-width:0.0174996" />
    <path
       d="m 17.912098,20.521952 v 2.187454 H 29.986842 42.061594 V 20.521952 18.334498 H 29.986842 17.912098 Z"
       id="path12798"
       style="stroke-width:0.0174996" />
    <path
       d="m 48.536454,20.521952 v 2.187454 h 5.512379 5.512388 v -2.187454 -2.187454 h -5.512388 -5.512379 z"
       id="path12800"
       style="stroke-width:0.0174996" />
    <path
       d="m 66.036081,20.521952 v 2.187454 h 7.699839 7.699841 V 20.521952 18.334498 H 73.73592 66.036081 Z"
       id="path12802"
       style="stroke-width:0.0174996" />
    <path
       d="m 17.912098,31.459223 v 2.099956 h 4.374905 4.374912 v -2.099956 -2.099956 h -4.374912 -4.374905 z"
       id="path12840"
       style="stroke-width:0.0174996" />
    <path
       d="m 33.311777,31.459223 v 2.099956 h 6.562357 6.562365 v -2.099956 -2.099956 h -6.562365 -6.562357 z"
       id="path12842"
       style="stroke-width:0.0174996" />
    <path
       d="m 52.911358,31.459223 v 2.099956 h 5.512388 5.51238 v -2.099956 -2.099956 h -5.51238 -5.512388 z"
       id="path12844"
       style="stroke-width:0.0174996" />
    <path
       d="m 70.410993,31.459223 v 2.099956 h 5.51238 5.512388 v -2.099956 -2.099956 h -5.512388 -5.51238 z"
       id="path12846"
       style="stroke-width:0.0174996" />
    <path
       d="m 17.912098,42.396492 v 2.187454 h 2.187452 2.187453 V 42.396492 40.209038 H 20.09955 17.912098 Z"
       id="path12898"
       style="stroke-width:0.0174996" />
    <path
       d="m 28.936865,42.396492 v 2.187454 h 3.237429 3.237438 v -2.187454 -2.187454 h -3.237438 -3.237429 z"
       id="path12900"
       style="stroke-width:0.0174996" />
    <path
       d="m 42.061594,42.396492 v 2.187454 h 13.124714 13.12473 V 42.396492 40.209038 H 55.186308 42.061594 Z"
       id="path12902"
       style="stroke-width:0.0174996" />
    <path
       d="m 74.785898,42.396492 v 2.187454 h 3.324935 3.324928 v -2.187454 -2.187454 h -3.324928 -3.324935 z"
       id="path12904"
       style="stroke-width:0.0174996" />
    <path
       d="m 17.912098,53.333762 v 2.099955 h 7.69984 7.699839 v -2.099955 -2.099957 h -7.699839 -7.69984 z"
       id="path12928"
       style="stroke-width:0.0174996" />
    <path
       d="m 39.786637,53.333762 v 2.099955 h 5.51238 5.512387 v -2.099955 -2.099957 h -5.512387 -5.51238 z"
       id="path12930"
       style="stroke-width:0.0174996" />
    <path
       d="m 57.286272,53.333762 v 2.099955 H 69.361016 81.435761 V 53.333762 51.233805 H 69.361016 57.286272 Z"
       id="path12932"
       style="stroke-width:0.0174996" />
    <path
       d="m 14.98966,57.988663 c -0.314992,0.157497 -0.752479,0.577488 -0.962479,0.92748 -0.384996,0.612488 -0.402491,0.752484 -0.402491,5.354888 0,4.392408 0.01749,4.759899 0.349991,5.302389 0.594987,0.997478 1.452467,1.259973 4.007411,1.259973 h 2.222459 l -0.05246,-1.102477 -0.05246,-1.084977 -2.152455,-0.0525 -2.134952,-0.0525 0.03497,-4.32241 0.05246,-4.322408 2.152455,-0.0525 2.134953,-0.0525 v -1.032479 -1.049977 h -2.309949 c -1.767459,0 -2.467448,0.07 -2.88744,0.279993 z"
       id="path12950"
       style="stroke-width:0.0174996" />
    <path
       d="m 79.160811,58.758647 v 1.032478 l 2.152454,0.0525 2.134952,0.0525 0.05254,4.322408 0.03497,4.322409 -2.134953,0.0525 -2.152455,0.0525 -0.05246,1.084978 -0.05254,1.102476 h 2.239953 c 2.78244,0 3.482427,-0.262494 4.05992,-1.43497 0.34999,-0.734984 0.367493,-1.032478 0.367493,-5.144891 0,-4.182411 -0.01749,-4.409907 -0.384995,-5.144892 -0.629985,-1.207474 -1.172473,-1.39997 -3.937418,-1.39997 h -2.32745 z"
       id="path12952"
       style="stroke-width:0.0174996" />
    <path
       d="m 17.912098,64.271031 v 2.187454 H 38.73666 59.561221 V 64.271031 62.083577 H 38.73666 17.912098 Z"
       id="path12964"
       style="stroke-width:0.0174996" />
    <path
       d="m 66.036081,64.271031 v 2.187454 h 7.699839 7.699841 V 64.271031 62.083577 H 73.73592 66.036081 Z"
       id="path12966"
       style="stroke-width:0.0174996" />
    <path
       d="m 65.913585,85.393085 c -0.787484,1.347472 -1.102477,2.432448 -1.102477,3.902419 0,2.187454 1.189975,4.8124 2.204955,4.8124 0.524993,0 0.524993,-0.104999 0,-1.172479 -1.06748,-2.152451 -1.06748,-4.952396 0,-7.384843 0.227495,-0.507487 0.419993,-0.96248 0.419993,-0.997478 0,-0.03503 -0.227495,-0.07 -0.489987,-0.07 -0.402498,0 -0.577493,0.157496 -1.032484,0.909977 z"
       id="path12978"
       style="stroke-width:0.0174996" />
    <path
       d="m 93.860497,84.570605 c 0,0.0525 0.192498,0.47249 0.419994,0.927479 0.612481,1.224972 0.857479,2.589944 0.769981,4.339909 -0.07002,1.469967 -0.192497,1.924957 -1.137475,4.059913 -0.07002,0.174997 0.05246,0.227494 0.472485,0.174997 0.50749,-0.0525 0.647488,-0.192493 1.172481,-1.119977 0.314992,-0.577485 0.717482,-1.592469 0.874982,-2.257451 0.384987,-1.592468 0.139998,-3.167435 -0.787485,-4.899898 -0.594988,-1.084976 -0.734985,-1.224972 -1.224972,-1.277474 -0.314993,-0.03497 -0.559991,-0.01751 -0.559991,0.0525 z"
       id="path12980"
       style="stroke-width:0.0174996" />
    <path
       d="m 2.8624165,88.333025 v 3.67492 h 2.8174368 2.7999424 l -0.052459,-0.664983 -0.05246,-0.647487 -2.0474629,-0.0525 -2.0649574,-0.0525 v -0.857478 -0.857482 l 1.8024651,-0.0525 1.7849624,-0.0525 v -0.612493 -0.612486 l -1.8024651,-0.0525 -1.8024571,-0.0525 0.052459,-0.734981 0.052459,-0.734987 1.8899626,-0.0525 1.8724599,-0.0525 V 85.270576 84.658084 H 5.4873628 2.8624156 Z"
       id="path13058"
       style="stroke-width:0.0174996" />
    <path
       d="m 32.786785,85.27059 v 0.594986 l 1.102477,0.0525 1.084975,0.0525 0.05254,3.009937 0.03497,3.027434 h 0.699988 0.699987 l 0.03506,-3.027434 0.05246,-3.009937 1.102478,-0.0525 1.084983,-0.0525 V 85.27059 84.658099 h -2.974938 -2.974936 z"
       id="path13060"
       style="stroke-width:0.0174996" />
    <path
       d="m 88.785602,88.333025 v 3.67492 h 0.699988 0.699987 v -3.67492 -3.674926 H 89.48559 88.785602 Z"
       id="path13062"
       style="stroke-width:0.0174996" />
    <path
       d="m 91.585545,88.333025 v 3.67492 h 0.699986 0.699984 v -3.67492 -3.674926 h -0.699984 -0.699986 z"
       id="path13064"
       style="stroke-width:0.0174996" />
    <path
       d="m 27.361903,85.883076 c 0,0.577489 -0.05246,0.699984 -0.349998,0.699984 -0.279995,0 -0.34999,0.1225 -0.34999,0.524988 0,0.402492 0.07003,0.524992 0.34999,0.524992 0.332495,0 0.349998,0.122495 0.349998,1.907461 0,2.274952 0.104991,2.467444 1.417469,2.467444 0.839978,0 0.85748,-0.01751 0.85748,-0.524987 0,-0.437494 -0.07003,-0.524987 -0.437487,-0.524987 -0.437495,0 -0.437495,0 -0.437495,-1.662467 0,-1.662464 0,-1.662464 0.437495,-1.662464 0.367484,0 0.437487,-0.0875 0.437487,-0.524992 0,-0.437489 -0.07003,-0.524988 -0.437487,-0.524988 -0.384995,0 -0.437495,-0.07 -0.437495,-0.699984 v -0.699985 h -0.699988 -0.699979 z"
       id="path13120"
       style="stroke-width:0.0174996" />
    <path
       d="m 16.24963,86.758058 c -0.40249,0.192493 -0.85748,0.594985 -1.049977,0.909978 -0.419985,0.734987 -0.437488,2.449949 -0.03497,3.237432 0.542488,1.014979 2.32745,1.592467 3.324936,1.084977 0.559982,-0.297493 1.347467,-1.067475 1.347467,-1.329972 0,-0.33249 -1.294976,-0.297493 -1.574971,0.03503 -0.507482,0.612487 -1.924952,0.122497 -1.924952,-0.664987 0,-0.262491 0.24499,-0.297492 1.854958,-0.297492 h 1.87246 l -0.122495,-0.822485 c -0.139997,-1.067481 -0.577493,-1.767465 -1.329973,-2.169957 -0.787485,-0.419993 -1.487472,-0.419993 -2.362455,0.01751 z m 1.87246,1.172474 c 0.594995,0.542489 0.402498,0.752483 -0.734977,0.752483 -0.577493,0 -1.049978,-0.0525 -1.049978,-0.139996 0,-0.07 0.122496,-0.314994 0.279988,-0.524989 0.314992,-0.454988 1.049977,-0.50749 1.504967,-0.0875 z"
       id="path13308"
       style="stroke-width:0.0174996" />
    <path
       d="m 22.951992,86.723056 c -0.524983,0.279997 -0.664989,0.297497 -0.664989,0.105 0,-0.174998 -0.209992,-0.244996 -0.69998,-0.244996 h -0.699987 v 2.712444 2.712441 h 0.699987 0.69998 v -1.837458 c 0,-1.627468 0.03505,-1.872464 0.3675,-2.204953 0.472484,-0.47249 1.224972,-0.384996 1.504967,0.192493 0.139998,0.262496 0.227495,1.119977 0.227495,2.134955 v 1.714963 h 0.69998 0.699988 v -2.099954 c 0,-1.137478 -0.0875,-2.274951 -0.192498,-2.502445 -0.40249,-0.874983 -1.644965,-1.189976 -2.642443,-0.68249 z"
       id="path13310"
       style="stroke-width:0.0174996" />
    <path
       d="m 46.786489,86.600561 c -0.227495,0.0875 -0.577485,0.297492 -0.734985,0.454989 -0.297489,0.262497 -0.314992,0.262497 -0.314992,-0.0875 0,-0.314994 -0.105001,-0.384992 -0.612483,-0.384992 h -0.612498 v 3.76242 3.762424 h 0.699996 0.699979 v -1.34747 c 0,-1.294976 0.01749,-1.329972 0.332495,-1.032478 0.822483,0.752481 2.414948,0.36749 3.044933,-0.717486 0.419992,-0.734986 0.45499,-2.572443 0.05246,-3.342432 -0.489988,-0.962476 -1.662467,-1.434965 -2.554944,-1.067475 z m 1.102478,1.592467 c 0.699987,0.80498 0.122494,2.764943 -0.822483,2.764943 -0.997477,0 -1.557467,-1.137478 -1.154978,-2.36245 0.332495,-0.979982 1.294975,-1.189975 1.977461,-0.402493 z"
       id="path13312"
       style="stroke-width:0.0174996" />
    <path
       d="m 51.773884,86.758058 c -0.40249,0.192493 -0.85748,0.594985 -1.049978,0.909978 -0.419992,0.734987 -0.437495,2.449949 -0.03505,3.237432 0.542487,1.014979 2.327459,1.592467 3.324936,1.084977 0.55999,-0.297493 1.347467,-1.067475 1.347467,-1.329972 0,-0.33249 -1.294976,-0.297493 -1.574963,0.03503 -0.507489,0.612487 -1.924959,0.122497 -1.924959,-0.664987 0,-0.262491 0.244989,-0.297492 1.854956,-0.297492 h 1.87246 l -0.122494,-0.82248 c -0.139998,-1.067481 -0.577485,-1.767466 -1.329973,-2.169957 -0.787485,-0.419993 -1.487472,-0.419993 -2.362455,0.01751 z m 1.87246,1.172474 c 0.594987,0.542489 0.402489,0.752483 -0.734986,0.752483 -0.577484,0 -1.049977,-0.0525 -1.049977,-0.139996 0,-0.07 0.122503,-0.314994 0.279995,-0.524989 0.314993,-0.454988 1.049977,-0.50749 1.504968,-0.0875 z"
       id="path13314"
       style="stroke-width:0.0174996" />
    <path
       d="m 57.513766,86.600561 c -1.17248,0.332494 -1.67997,1.819962 -0.874982,2.554943 0.209992,0.209999 0.85748,0.507492 1.434965,0.664989 0.577492,0.174997 1.172479,0.419992 1.312478,0.559988 0.227494,0.227496 0.227494,0.279992 -0.07002,0.507487 -0.507491,0.367495 -1.119972,0.297497 -1.609968,-0.192493 -0.542487,-0.559989 -1.644965,-0.629987 -1.644965,-0.105 0,0.507492 0.647488,1.189976 1.347476,1.434971 0.367492,0.122495 1.032474,0.157496 1.609967,0.105 0.80498,-0.0875 1.067472,-0.192499 1.469971,-0.647488 1.032474,-1.154975 0.367492,-2.379951 -1.539974,-2.817439 -1.172472,-0.262496 -1.539964,-0.612491 -1.049977,-0.979982 0.40249,-0.279991 1.11998,-0.174997 1.41747,0.227494 0.244998,0.314994 1.46997,0.332495 1.46997,0.01751 0,-0.402493 -0.55999,-1.032479 -1.154978,-1.277474 -0.647479,-0.279993 -1.294966,-0.297494 -2.117449,-0.0525 z"
       id="path13316"
       style="stroke-width:0.0174996" />
    <path
       d="m 69.413516,86.600561 c -1.172481,0.332494 -1.67997,1.819962 -0.874983,2.554943 0.209993,0.209999 0.85748,0.507492 1.434965,0.664989 0.577493,0.174997 1.172481,0.419992 1.312478,0.559988 0.227495,0.227496 0.227495,0.279992 -0.07003,0.507487 -0.507489,0.367495 -1.119972,0.297497 -1.609967,-0.192493 -0.542488,-0.559989 -1.644965,-0.629987 -1.644965,-0.105 0,0.507492 0.647488,1.189976 1.347475,1.434971 0.367493,0.122495 1.032475,0.157496 1.609968,0.105 0.804979,-0.0875 1.067472,-0.192499 1.46997,-0.647488 1.032475,-1.154975 0.367492,-2.379951 -1.539973,-2.817439 -1.172472,-0.262496 -1.539965,-0.612491 -1.049977,-0.979982 0.402489,-0.279991 1.11998,-0.174997 1.417469,0.227494 0.244998,0.314994 1.46997,0.332495 1.46997,0.01751 0,-0.402493 -0.55999,-1.032479 -1.154978,-1.277474 -0.647487,-0.279993 -1.294966,-0.297494 -2.117449,-0.0525 z"
       id="path13318"
       style="stroke-width:0.0174996" />
    <path
       d="m 76.150867,86.740557 c -0.524984,0.262496 -0.664982,0.279996 -0.664982,0.0875 0,-0.174998 -0.209992,-0.244996 -0.699987,-0.244996 h -0.69998 v 2.712444 2.712441 h 0.69998 0.699987 v -1.907461 c 0,-1.78496 0.03497,-1.942457 0.384987,-2.187453 0.50749,-0.349989 0.594996,-0.349989 1.014981,0.07 0.297497,0.297497 0.349998,0.577489 0.349998,2.187457 v 1.837458 h 0.699979 0.699987 v -1.837458 c 0,-1.609968 0.05254,-1.88996 0.349991,-2.187457 0.909987,-0.909979 1.399975,-0.157497 1.399975,2.222453 v 1.802462 h 0.699987 0.69998 v -2.082453 c 0,-2.48495 -0.122495,-2.922439 -0.979975,-3.272434 -0.752487,-0.314993 -1.382472,-0.209994 -1.942463,0.314994 l -0.384986,0.367495 -0.315001,-0.367495 c -0.472485,-0.542492 -1.242466,-0.62999 -2.012458,-0.227499 z"
       id="path13320"
       style="stroke-width:0.0174996" />
    <path
       d="m 84.130703,86.653058 c -0.61249,0.262496 -1.119972,0.892483 -1.119972,1.364972 0,0.472491 1.242466,0.43749 1.539964,-0.03502 0.262493,-0.437489 1.382472,-0.489985 1.539965,-0.0875 0.174995,0.454994 -0.24499,0.734987 -1.277472,0.874982 -1.277473,0.157497 -1.977461,0.787484 -1.977461,1.784966 0.01748,1.434966 1.434973,2.082453 2.764945,1.27747 0.489988,-0.297494 0.577485,-0.314994 0.664983,-0.08749 0.07003,0.174993 0.349998,0.262492 0.90998,0.262492 0.629993,0 0.752487,-0.0525 0.594987,-0.209995 -0.139989,-0.139995 -0.209992,-0.909983 -0.209992,-2.274951 0,-2.327454 -0.122495,-2.589945 -1.347475,-2.922439 -0.874975,-0.244995 -1.41747,-0.227494 -2.082452,0.0525 z m 1.854957,3.797421 c -0.332488,0.769982 -1.41747,0.927479 -1.697457,0.227496 -0.175003,-0.472491 0.192489,-0.839982 1.014972,-1.032479 0.892485,-0.227495 1.032483,-0.0525 0.682485,0.804983 z"
       id="path13322"
       style="stroke-width:0.0174996" />
    <path
       d="m 9.0572805,86.898053 c 0.052541,0.157497 0.4899954,1.364974 0.9624795,2.659944 l 0.839986,2.36245 0.76999,0.0525 0.769982,0.0525 0.927475,-2.589945 c 0.50749,-1.417471 0.909988,-2.659943 0.909988,-2.729941 0,-0.0875 -0.332496,-0.1225 -0.734994,-0.0875 l -0.717481,0.0525 -0.489988,1.732463 c -0.279995,0.944986 -0.524992,1.819968 -0.55999,1.924968 -0.03497,0.104994 -0.192497,-0.244995 -0.34999,-0.769988 -0.140005,-0.524987 -0.402489,-1.41747 -0.55999,-1.977458 L 10.544753,86.583065 H 9.7572681 c -0.6824849,0 -0.7874851,0.0525 -0.6999876,0.314993 z"
       id="path13402"
       style="stroke-width:0.0174996" />
    <path
       d="m 38.386669,86.68806 c 0,0.0525 0.437488,1.32997 0.96248,2.852441 0.787477,2.204953 0.944978,2.799938 0.80498,3.114931 -0.122503,0.262497 -0.332495,0.402493 -0.629985,0.402493 -0.367492,0 -0.437495,0.0875 -0.437495,0.524987 0,0.297498 0.105,0.57749 0.244998,0.629987 0.419993,0.157497 1.662468,-0.279993 1.87246,-0.647483 0.21,-0.402491 2.43245,-6.649862 2.43245,-6.859856 0,-0.0875 -0.332495,-0.1225 -0.734986,-0.0875 l -0.734984,0.0525 -0.524985,1.889961 c -0.280003,1.032478 -0.577493,1.78496 -0.629993,1.662464 -0.07003,-0.122499 -0.349989,-0.997477 -0.612482,-1.942457 l -0.489995,-1.697466 h -0.769983 c -0.402489,0 -0.75248,0.0525 -0.75248,0.104998 z"
       id="path13404"
       style="stroke-width:0.0174996" />
  </g>
</svg>
