<?xml version="1.0" encoding="UTF-8" standalone="no"?>
<!-- Created with Inkscape (http://www.inkscape.org/) -->

<svg
   width="100mm"
   height="100mm"
   viewBox="0 0 100 100"
   version="1.1"
   id="svg26768"
   xmlns="http://www.w3.org/2000/svg"
   xmlns:svg="http://www.w3.org/2000/svg">
  <defs
     id="defs26765" />
  <g
     id="layer1">
    <path
       d="m 3.6068736,6.5643959 c -0.67751,0.443879 -0.79431,1.284913 -0.79431,6.2376681 v 5.046204 l 0.58405,0.560688 c 0.56069,0.584052 0.63077,0.584052 4.43879,0.584052 3.6912004,0 3.8547404,-0.02336 3.8547404,-0.467241 0,-0.443879 -0.16354,-0.467241 -3.6912104,-0.467241 -2.56982,0 -3.78465,-0.09345 -3.97155,-0.280345 -0.3037,-0.303707 -0.42051,-9.3681831 -0.14017,-10.0924071 0.11681,-0.327068 0.70087,-0.373792 3.97155,-0.373792 3.6678404,0 3.8313804,-0.02336 3.8313804,-0.467241 0,-0.443879 -0.16354,-0.467241 -3.9014704,-0.467241 -2.17267,0 -4.04163,0.09345 -4.1818,0.186896 z"
       id="path12820"
       style="stroke-width:0.0233621" />
    <path
       d="m 88.551292,6.8447409 c 0,0.443879 0.163534,0.467241 3.854739,0.467241 h 3.854739 l -0.04673,5.3031861 -0.07009,5.326548 -3.784652,0.07009 c -3.621118,0.04673 -3.808015,0.09345 -3.808015,0.513965 0,0.443879 0.163534,0.467241 3.808015,0.467241 3.060428,0 3.901462,-0.07009 4.321979,-0.373793 0.513965,-0.35043 0.513965,-0.443879 0.513965,-5.910599 0,-5.0929271 -0.04672,-5.5835301 -0.420516,-5.9339611 -0.373793,-0.327069 -1.027931,-0.397155 -4.32198,-0.397155 -3.737929,0 -3.901463,0.02336 -3.901463,0.467241 z"
       id="path12822"
       style="stroke-width:0.0233621" />
    <path
       d="m 7.7185936,12.685254 v 1.401723 H 23.838414 39.958224 V 12.685254 11.28353 H 23.838414 7.7185936 Z"
       id="path12848"
       style="stroke-width:0.0233621" />
    <path
       d="m 48.602184,12.685254 v 1.401723 h 7.359046 7.359046 V 12.685254 11.28353 H 55.96123 48.602184 Z"
       id="path12850"
       style="stroke-width:0.0233621" />
    <path
       d="m 71.964235,12.685254 v 1.401723 H 82.243538 92.522842 V 12.685254 11.28353 H 82.243538 71.964235 Z"
       id="path12852"
       style="stroke-width:0.0233621" />
    <path
       d="m 7.7185936,24.36628 v 1.401723 h 5.8405104 5.84051 V 24.36628 22.964557 h -5.84051 -5.8405104 z"
       id="path12884"
       style="stroke-width:0.0233621" />
    <path
       d="m 28.277204,24.36628 v 1.401723 h 8.76076 8.76077 V 24.36628 22.964557 h -8.76077 -8.76076 z"
       id="path12886"
       style="stroke-width:0.0233621" />
    <path
       d="m 54.442696,24.36628 v 1.401723 h 7.359047 7.359046 V 24.36628 22.964557 h -7.359046 -7.359047 z"
       id="path12888"
       style="stroke-width:0.0233621" />
    <path
       d="m 77.804748,24.36628 v 1.401723 h 7.359047 7.359047 V 24.36628 22.964557 h -7.359047 -7.359047 z"
       id="path12890"
       style="stroke-width:0.0233621" />
    <path
       d="m 7.7185936,36.047306 v 1.401723 h 2.9202504 2.92026 v -1.401723 -1.401723 h -2.92026 -2.9202504 z"
       id="path12920"
       style="stroke-width:0.0233621" />
    <path
       d="m 22.436684,36.047306 v 1.401723 h 4.32198 4.32198 v -1.401723 -1.401723 h -4.32198 -4.32198 z"
       id="path12922"
       style="stroke-width:0.0233621" />
    <path
       d="m 39.958224,36.047306 v 1.401723 H 57.479763 75.001302 V 36.047306 34.645583 H 57.479763 39.958224 Z"
       id="path12924"
       style="stroke-width:0.0233621" />
    <path
       d="m 83.645261,36.047306 v 1.401723 h 4.43879 4.438791 v -1.401723 -1.401723 h -4.438791 -4.43879 z"
       id="path12926"
       style="stroke-width:0.0233621" />
    <path
       d="m 7.7185936,47.728332 v 1.401723 H 17.997894 28.277204 V 47.728332 46.326609 H 17.997894 7.7185936 Z"
       id="path12942"
       style="stroke-width:0.0233621" />
    <path
       d="m 36.921154,47.728332 v 1.401723 h 7.35905 7.359046 v -1.401723 -1.401723 h -7.359046 -7.35905 z"
       id="path12944"
       style="stroke-width:0.0233621" />
    <path
       d="m 60.283209,47.728332 v 1.401723 H 76.403025 92.522842 V 47.728332 46.326609 H 76.403025 60.283209 Z"
       id="path12946"
       style="stroke-width:0.0233621" />
    <path
       d="m 3.6068736,53.2885 c -0.67751,0.44388 -0.79431,1.284913 -0.79431,6.237668 v 5.046204 l 0.58405,0.560689 c 0.56069,0.584051 0.63077,0.584051 4.43879,0.584051 3.6912004,0 3.8547404,-0.02336 3.8547404,-0.467241 0,-0.443879 -0.16354,-0.467241 -3.6912104,-0.467241 -2.56982,0 -3.78465,-0.09345 -3.97155,-0.280345 -0.3037,-0.303706 -0.42051,-9.368182 -0.14017,-10.092406 0.11681,-0.327069 0.70087,-0.373793 3.97155,-0.373793 3.6678404,0 3.8313804,-0.02336 3.8313804,-0.467241 0,-0.443879 -0.16354,-0.467241 -3.9014704,-0.467241 -2.17267,0 -4.04163,0.09345 -4.1818,0.186896 z"
       id="path12960"
       style="stroke-width:0.0233621" />
    <path
       d="m 88.551292,53.568845 c 0,0.443879 0.163534,0.467241 3.854739,0.467241 h 3.854739 l -0.04673,5.303186 -0.07009,5.326548 -3.784652,0.07009 c -3.621118,0.04673 -3.808015,0.09345 -3.808015,0.513965 0,0.443879 0.163534,0.467241 3.808015,0.467241 3.060428,0 3.901462,-0.07009 4.321979,-0.373793 0.513965,-0.35043 0.513965,-0.443879 0.513965,-5.910599 0,-5.092927 -0.04672,-5.58353 -0.420516,-5.933961 -0.373793,-0.327069 -1.027931,-0.397155 -4.32198,-0.397155 -3.737929,0 -3.901463,0.02336 -3.901463,0.467241 z"
       id="path12962"
       style="stroke-width:0.0233621" />
    <path
       d="m 7.7185936,59.409358 v 1.401723 H 35.519434 63.320276 V 59.409358 58.007635 H 35.519434 7.7185936 Z"
       id="path12970"
       style="stroke-width:0.0233621" />
    <path
       d="m 71.964235,59.409358 v 1.401723 H 82.243538 92.522842 V 59.409358 58.007635 H 82.243538 71.964235 Z"
       id="path12972"
       style="stroke-width:0.0233621" />
    <path
       d="m 11.456514,89.079165 v 4.906031 h 3.7613 3.73792 l -0.0701,-0.887759 -0.0701,-0.864396 -2.73336,-0.07009 -2.75672,-0.07009 V 90.94812 89.80338 l 2.40629,-0.07009 2.38293,-0.07009 v -0.817656 -0.817672 l -2.40629,-0.07009 -2.40629,-0.07009 0.0701,-0.981207 0.0701,-0.981206 2.52311,-0.07009 2.49973,-0.07009 v -0.79431 -0.817672 h -3.50431 -3.50431 z"
       id="path13054"
       style="stroke-width:0.0233621" />
    <path
       d="m 51.40563,84.990805 v 0.79431 l 1.471809,0.07009 1.448447,0.07009 0.07009,4.018274 0.04672,4.041635 h 0.934482 0.934482 l 0.04672,-4.041635 0.07009,-4.018274 1.47181,-0.07009 1.448447,-0.07009 v -0.79431 -0.817672 h -3.97155 -3.971548 z"
       id="path13056"
       style="stroke-width:0.0233621" />
    <path
       d="m 44.163394,85.808477 c 0,0.770948 -0.0701,0.934482 -0.46724,0.934482 -0.37379,0 -0.46724,0.163534 -0.46724,0.700862 0,0.537327 0.0935,0.700862 0.46724,0.700862 0.44388,0 0.46724,0.163534 0.46724,2.546463 0,3.037067 0.14017,3.29405 1.89233,3.29405 1.12137,0 1.14474,-0.02336 1.14474,-0.700862 0,-0.584051 -0.0934,-0.700862 -0.58406,-0.700862 -0.58405,0 -0.58405,0 -0.58405,-2.219395 0,-2.219394 0,-2.219394 0.58405,-2.219394 0.49061,0 0.58406,-0.116811 0.58406,-0.700862 0,-0.584051 -0.0934,-0.700862 -0.58406,-0.700862 -0.51396,0 -0.58405,-0.09345 -0.58405,-0.934482 v -0.934482 h -0.93448 -0.93448 z"
       id="path13118"
       style="stroke-width:0.0233621" />
    <path
       d="m 29.328494,86.97658 c -0.53733,0.256982 -1.14475,0.794309 -1.40173,1.214826 -0.56069,0.981207 -0.58405,3.270687 -0.0468,4.32198 0.72422,1.354999 3.10716,2.125947 4.43879,1.448447 0.74759,-0.397154 1.79888,-1.425085 1.79888,-1.775515 0,-0.443879 -1.72879,-0.397156 -2.10258,0.04672 -0.67751,0.817672 -2.56983,0.163535 -2.56983,-0.887758 0,-0.35043 0.32707,-0.397155 2.47638,-0.397155 h 2.49974 l -0.16354,-1.098016 c -0.18689,-1.425085 -0.77095,-2.359567 -1.77551,-2.896895 -1.05129,-0.560689 -1.98578,-0.560689 -3.15388,0.02336 z m 2.49974,1.565257 c 0.7943,0.724224 0.53732,1.004568 -0.98121,1.004568 -0.77095,0 -1.40173,-0.07009 -1.40173,-0.186896 0,-0.09345 0.16354,-0.420517 0.3738,-0.700861 0.42052,-0.607414 1.40173,-0.6775 2.00914,-0.116811 z"
       id="path13298"
       style="stroke-width:0.0233621" />
    <path
       d="m 38.276154,86.929856 c -0.70086,0.373793 -0.88776,0.397154 -0.88776,0.140172 0,-0.233621 -0.28034,-0.327069 -0.93448,-0.327069 h -0.93448 v 3.621118 3.621119 h 0.93448 0.93448 V 91.53218 c 0,-2.172671 0.0467,-2.49974 0.49061,-2.943619 0.63077,-0.630775 1.63534,-0.513965 2.00913,0.256983 0.1869,0.350431 0.30371,1.495171 0.30371,2.85017 v 2.289482 h 0.93448 0.93448 v -2.803447 c 0,-1.518533 -0.11681,-3.037066 -0.25698,-3.340774 -0.53733,-1.168102 -2.19603,-1.588619 -3.52767,-0.911119 z"
       id="path13300"
       style="stroke-width:0.0233621" />
    <path
       d="m 70.095271,86.766322 c -0.303706,0.116809 -0.770948,0.397154 -0.981206,0.607413 -0.397155,0.350431 -0.420517,0.350431 -0.420517,-0.116811 0,-0.420517 -0.140172,-0.513965 -0.817672,-0.513965 h -0.817672 v 5.022841 5.022842 h 0.934483 0.934482 v -1.798878 c 0,-1.728793 0.02336,-1.775516 0.443879,-1.378362 1.098016,1.004569 3.223963,0.490603 4.064996,-0.957844 0.56069,-0.981206 0.607414,-3.434222 0.07009,-4.462152 -0.654138,-1.284913 -2.219395,-1.915688 -3.41086,-1.425084 z m 1.47181,2.125946 c 0.934481,1.074654 0.163534,3.691204 -1.098017,3.691204 -1.331637,0 -2.079223,-1.518533 -1.541895,-3.153877 0.443879,-1.308275 1.728792,-1.58862 2.639912,-0.537327 z"
       id="path13302"
       style="stroke-width:0.0233621" />
    <path
       d="m 76.753456,86.97658 c -0.537327,0.256982 -1.14474,0.794309 -1.401723,1.214826 -0.560689,0.981207 -0.584051,3.270687 -0.04673,4.32198 0.724223,1.354999 3.107152,2.125947 4.438789,1.448447 0.747586,-0.397154 1.798878,-1.425085 1.798878,-1.775515 0,-0.443879 -1.728792,-0.397156 -2.102584,0.04672 -0.6775,0.817672 -2.569826,0.163535 -2.569826,-0.887758 0,-0.35043 0.327069,-0.397155 2.476378,-0.397155 h 2.499739 l -0.163534,-1.098016 c -0.186897,-1.425085 -0.770948,-2.359567 -1.775516,-2.896895 -1.051293,-0.560689 -1.985775,-0.560689 -3.153877,0.02336 z m 2.49974,1.565257 c 0.794309,0.724224 0.537327,1.004568 -0.981206,1.004568 -0.770948,0 -1.401724,-0.07009 -1.401724,-0.186896 0,-0.09345 0.163534,-0.420517 0.373793,-0.700861 0.420517,-0.607414 1.401723,-0.6775 2.009137,-0.116811 z"
       id="path13304"
       style="stroke-width:0.0233621" />
    <path
       d="m 84.416209,86.766322 c -1.565257,0.443878 -2.242757,2.429653 -1.168102,3.410859 0.280344,0.280345 1.14474,0.677499 1.915688,0.887758 0.770948,0.23362 1.565257,0.560689 1.752154,0.747585 0.303707,0.303707 0.303707,0.373794 -0.09345,0.6775 -0.677499,0.490603 -1.495171,0.397155 -2.149308,-0.256983 -0.724224,-0.747585 -2.196033,-0.841033 -2.196033,-0.140172 0,0.6775 0.864396,1.588619 1.798878,1.915688 0.490603,0.163535 1.378361,0.210259 2.149309,0.140173 1.074654,-0.116811 1.425085,-0.256983 1.962412,-0.864396 1.378361,-1.541895 0.490603,-3.177239 -2.05586,-3.76129 -1.565258,-0.350431 -2.055861,-0.817673 -1.401724,-1.308275 0.537328,-0.373794 1.495172,-0.233621 1.892326,0.303706 0.327069,0.420517 1.962413,0.443879 1.962413,0.02336 0,-0.537328 -0.747586,-1.378361 -1.541896,-1.70543 -0.864396,-0.373793 -1.728791,-0.397155 -2.826808,-0.07009 z"
       id="path13306"
       style="stroke-width:0.0233621" />
    <path
       d="m 19.726684,87.163476 c 0.0701,0.210259 0.65414,1.82224 1.28492,3.551032 l 1.12137,3.153877 1.02793,0.07009 1.02793,0.07009 1.2382,-3.457583 c 0.67749,-1.892326 1.21482,-3.551032 1.21482,-3.644481 0,-0.11681 -0.44388,-0.163534 -0.98121,-0.11681 l -0.95784,0.07009 -0.65414,2.312843 c -0.37379,1.26155 -0.70086,2.429653 -0.74758,2.569826 -0.0468,0.140171 -0.25699,-0.327069 -0.46725,-1.027931 -0.18689,-0.700861 -0.53732,-1.892326 -0.74758,-2.639912 l -0.37379,-1.331637 h -1.05129 c -0.91112,0 -1.0513,0.07009 -0.93449,0.420517 z"
       id="path13398"
       style="stroke-width:0.0233621" />
    <path
       d="m 58.881486,86.883131 c 0,0.07009 0.584052,1.775517 1.284913,3.808015 1.051292,2.943619 1.261551,3.737928 1.074654,4.158445 -0.163534,0.350431 -0.443879,0.537327 -0.841034,0.537327 -0.490602,0 -0.58405,0.116811 -0.58405,0.700862 0,0.397155 0.140171,0.770948 0.327068,0.841034 0.560689,0.210258 2.219395,-0.373793 2.49974,-0.864396 0.280344,-0.537327 3.247325,-8.87758 3.247325,-9.157925 0,-0.11681 -0.443879,-0.163534 -0.981206,-0.11681 l -0.981206,0.07009 -0.700862,2.523101 c -0.373793,1.378361 -0.770948,2.382929 -0.841034,2.219395 -0.09345,-0.163534 -0.467241,-1.331637 -0.817672,-2.593188 l -0.654137,-2.266119 h -1.027931 c -0.537327,0 -1.004568,0.07009 -1.004568,0.140172 z"
       id="path13400"
       style="stroke-width:0.0233621" />
  </g>
</svg>
