<?xml version="1.0" encoding="UTF-8" standalone="no"?>
<!-- Created with Inkscape (http://www.inkscape.org/) -->

<svg
   width="100mm"
   height="100mm"
   viewBox="0 0 100 100"
   version="1.1"
   id="svg26768"
   xmlns="http://www.w3.org/2000/svg"
   xmlns:svg="http://www.w3.org/2000/svg">
  <defs
     id="defs26765" />
  <path
     d="m 72.955903,1.3780153 c -0.261829,0.16831 -0.673275,0.6171523 -0.878992,1.0098951 -0.37404,0.6545596 -0.392732,0.9537955 -0.392732,6.3773213 v 5.6853543 l -9.294807,4.264012 c -5.124301,2.356434 -9.444425,4.320125 -9.594043,4.357531 -0.16831,0.03745 -0.430139,-0.205717 -0.691967,-0.635866 C 51.355295,21.10844 49.185875,18.602388 47.764535,17.40548 43.388311,13.646409 38.806363,11.832336 33.158412,11.607914 17.897719,10.953343 6.0968668,24.699188 8.9395453,39.754165 c 1.3278287,6.91967 6.1341977,13.296991 12.4741177,16.532418 3.70296,1.888875 7.256308,2.655657 11.651238,2.506039 4.320125,-0.149618 7.836063,-1.196921 11.52033,-3.42244 2.767868,-1.683158 5.834973,-4.656755 7.331117,-7.125387 0.336632,-0.542361 0.635856,-0.991203 0.691967,-0.991203 0.05612,0 4.35752,1.963691 9.537932,4.376235 l 9.444425,4.376223 0.09346,5.872368 c 0.09346,5.348722 0.130914,5.891083 0.448843,6.377333 0.729373,1.084698 0.617163,1.065995 10.155095,1.065995 8.228802,0 8.789854,-0.01867 9.332203,-0.355336 1.215625,-0.748067 1.19692,-0.486238 1.19692,-12.735938 0,-10.903163 0,-11.090189 -0.392742,-11.782156 -0.76677,-1.346526 -0.411435,-1.309119 -10.173789,-1.309119 -9.762352,0 -9.407017,-0.03745 -10.173799,1.309119 -0.355335,0.65456 -0.392731,0.991203 -0.392731,4.656756 0,2.169408 -0.03745,3.946084 -0.0748,3.946084 -0.112245,0 -17.561015,-8.041787 -17.654522,-8.135293 -0.05613,-0.03745 0.205729,-0.991192 0.579757,-2.094606 0.93509,-2.823979 1.253019,-4.750262 1.253019,-7.536833 0,-2.861375 -0.355335,-5.049499 -1.215613,-7.574243 -0.355335,-1.028598 -0.673263,-1.944986 -0.691967,-2.01979 -0.03745,-0.112245 17.486201,-8.359727 17.766734,-8.359727 0.01867,0 0.03745,1.795382 0.03745,3.983493 0,4.451038 0.112246,4.918583 1.327824,5.647958 0.617163,0.355324 0.972499,0.374028 9.238707,0.374028 8.266209,0 8.621544,-0.01867 9.238697,-0.374028 0.336632,-0.205729 0.785474,-0.673274 0.972499,-1.02861 0.336631,-0.617152 0.355335,-1.271723 0.355335,-11.744747 0,-10.9405706 0,-11.1275843 -0.392742,-11.8195513 -0.766763,-1.3465268 -0.411427,-1.309131 -10.211188,-1.309131 -7.817366,0.018669 -8.808558,0.037454 -9.257411,0.3179396 z M 90.198991,11.5331 v 7.854774 H 82.25071 74.30243 V 11.5331 3.6783375 h 7.94828 7.948281 z m -52.851372,3.347625 c 3.366331,0.897696 6.583041,2.674361 9.051685,4.974694 1.421341,1.327823 3.908677,4.338828 3.721663,4.507139 -0.03745,0.03733 -1.701861,0.82288 -3.70296,1.739269 l -3.628156,1.664466 -0.09346,-1.982395 c -0.0748,-1.533552 -0.187014,-2.113308 -0.448843,-2.524755 -0.729374,-1.084698 -0.635867,-1.065994 -10.024181,-1.065994 -9.519231,0 -9.369618,-0.01867 -10.098988,1.178205 -0.355334,0.579756 -0.374036,1.02861 -0.374036,11.91307 0,10.88447 0.0187,11.3333 0.374036,11.913057 0.72937,1.19692 0.579757,1.178228 10.098988,1.178228 9.519228,0 9.369621,0.01867 10.098984,-1.178228 0.299236,-0.486238 0.37404,-0.93508 0.37404,-2.39383 0,-0.991191 0.03734,-1.832776 0.112245,-1.888887 0.09346,-0.09346 7.050584,3.029697 7.312413,3.272821 0.224421,0.224422 -1.683159,2.580856 -3.459835,4.264025 -2.674362,2.543447 -5.722762,4.264013 -9.29481,5.236512 -2.244218,0.598461 -6.844871,0.710659 -9.257404,0.205718 -5.947182,-1.253032 -10.697447,-4.56325 -13.858055,-9.650143 -4.114402,-6.676558 -4.114402,-15.24199 0,-21.918547 3.104503,-5.012091 7.817363,-8.341012 13.671035,-9.631439 2.244218,-0.48625 7.275012,-0.392743 9.425721,0.187014 z m 52.851372,7.77997 v 1.963679 H 82.25071 74.30243 v -1.963679 -1.963702 h 7.94828 7.948281 z m -50.120897,9.91196 v 7.948281 H 32.22332 24.368551 v -7.948281 -7.948281 h 7.854769 7.854774 z M 52.496093,29.71128 c 0.691979,2.431236 0.953796,5.124301 0.691979,7.368524 -0.392743,3.310217 -1.458749,6.713953 -2.057198,6.526927 -0.168322,-0.05612 -2.113308,-0.916387 -4.320124,-1.926283 l -4.020899,-1.851479 -0.05612,-4.56325 -0.03734,-4.58194 4.338827,-1.982395 4.35752,-1.982394 0.31794,0.691967 c 0.16831,0.37404 0.523646,1.402638 0.785474,2.300323 z M 40.078094,43.793757 v 1.963691 H 32.22332 24.368551 v -1.963691 -1.963691 h 7.854769 7.854774 z m 50.120897,9.91196 v 7.94828 H 82.25071 74.30243 v -7.94828 -7.948269 h 7.94828 7.948281 z m 0,11.221102 v 1.96369 H 82.25071 74.30243 v -1.96369 -1.963691 h 7.94828 7.948281 z"
     id="path7350"
     style="stroke-width:0.0187019" />
  <path
     d="m 11.838328,94.195186 v 3.927382 h 3.010993 2.992293 l -0.05611,-0.710672 -0.05609,-0.691967 -2.188115,-0.05612 -2.206815,-0.05612 v -0.916388 -0.916388 l 1.926288,-0.05613 1.907586,-0.05612 v -0.654559 -0.65456 l -1.926288,-0.05613 -1.926289,-0.05612 0.05612,-0.785486 0.05609,-0.785474 2.019797,-0.05612 2.001096,-0.05612 v -0.635867 -0.65456 h -2.805275 -2.805273 z"
     id="path7432"
     style="stroke-width:0.0187019" />
  <path
     d="m 51.673223,94.195186 v 3.927382 h 0.748067 0.748078 V 94.195186 90.267794 H 52.42129 51.673223 Z"
     id="path7434"
     style="stroke-width:0.0187019" />
  <path
     d="m 57.657802,94.195186 v 3.927382 h 0.748078 0.748066 v -2.767869 c 0.01867,-3.216721 -0.130902,-3.235426 1.926295,0.374027 l 1.346527,2.393842 h 0.804178 0.785485 v -3.927382 -3.927392 h -0.748078 -0.729374 l -0.05612,2.636965 -0.05612,2.636953 -1.496144,-2.636953 -1.496145,-2.636965 h -0.878992 -0.897685 z"
     id="path7436"
     style="stroke-width:0.0187019" />
  <path
     d="m 75.985588,91.576924 v 1.309132 l -0.598449,-0.37404 c -0.804177,-0.48625 -1.440044,-0.467545 -2.225518,0.05612 -0.841585,0.561054 -1.290428,1.496146 -1.290428,2.711769 0,2.33773 1.795381,3.70296 3.515946,2.655658 0.48625,-0.299224 0.598449,-0.317928 0.598449,-0.09346 0,0.205717 0.205729,0.280532 0.748078,0.280532 h 0.748078 v -3.927373 -3.927393 h -0.748078 -0.748078 z m -0.392731,2.33773 c 0.149618,0.149606 0.299236,0.65456 0.336632,1.159513 0.0748,0.729375 0.01867,0.991191 -0.317929,1.402637 -1.08471,1.402639 -2.674361,-0.130913 -2.057208,-2.001097 0.317939,-0.991191 1.30913,-1.25302 2.038505,-0.561053 z"
     id="path7438"
     style="stroke-width:0.0187019" />
  <path
     d="m 25.116623,91.576924 c 0,0.617153 -0.0561,0.748078 -0.374033,0.748078 -0.299232,0 -0.374039,0.130903 -0.374039,0.561054 0,0.430137 0.07481,0.561052 0.374039,0.561052 0.355335,0 0.374033,0.130915 0.374033,2.038493 0,2.431237 0.112211,2.636967 1.514848,2.636967 0.897692,0 0.916388,-0.01867 0.916388,-0.561054 0,-0.467557 -0.0748,-0.561064 -0.467542,-0.561064 -0.467543,0 -0.467543,0 -0.467543,-1.776677 0,-1.776665 0,-1.776665 0.467543,-1.776665 0.392736,0 0.467542,-0.09346 0.467542,-0.561052 0,-0.467547 -0.0748,-0.561054 -0.467542,-0.561054 -0.411439,0 -0.467543,-0.07479 -0.467543,-0.748078 v -0.748066 h -0.748079 -0.748072 z"
     id="path7512"
     style="stroke-width:0.0187019" />
  <path
     d="m 29.698573,92.512016 c -0.430143,0.205717 -0.91639,0.635856 -1.122112,0.9725 -0.448839,0.785474 -0.467543,2.61825 -0.03737,3.459835 0.579756,1.084698 2.487341,1.701861 3.553348,1.159512 0.598453,-0.317927 1.440036,-1.140809 1.440036,-1.42134 0,-0.355337 -1.383933,-0.317929 -1.683164,0.03745 -0.54235,0.65456 -2.057199,0.130902 -2.057199,-0.710671 0,-0.280532 0.261826,-0.317939 1.982392,-0.317939 h 2.001099 l -0.130915,-0.878981 c -0.149614,-1.140809 -0.617163,-1.888887 -1.421339,-2.319026 -0.841582,-0.448842 -1.589654,-0.448842 -2.524746,0.01867 z m 2.001095,1.25302 c 0.635864,0.579756 0.430141,0.804178 -0.785474,0.804178 -0.617162,0 -1.122112,-0.05613 -1.122112,-0.149607 0,-0.0748 0.130912,-0.336643 0.299228,-0.561053 0.336633,-0.486261 1.122112,-0.542361 1.608358,-0.09346 z"
     id="path7546"
     style="stroke-width:0.0187019" />
  <path
     d="m 36.954883,92.418509 c -0.336633,0.149606 -0.617163,0.355324 -0.617163,0.467547 0,0.09346 -0.0748,0.187013 -0.187019,0.187013 -0.09351,0 -0.187014,-0.16831 -0.187014,-0.374039 0,-0.299224 -0.130915,-0.374028 -0.654567,-0.374028 h -0.654564 v 2.898771 2.898795 h 0.748072 0.748073 v -1.739271 c 0,-2.001097 0.205723,-2.449939 1.215622,-2.636965 0.617162,-0.130914 0.654561,-0.168309 0.654561,-0.860276 0,-0.822882 -0.130909,-0.878993 -1.066001,-0.467547 z"
     id="path7548"
     style="stroke-width:0.0187019" />
  <path
     d="m 41.162792,92.474608 c -0.561053,0.299225 -0.71067,0.317929 -0.71067,0.112246 0,-0.187014 -0.224422,-0.261816 -0.748067,-0.261816 h -0.748079 v 2.89877 2.898794 h 0.748079 0.748067 V 96.1589 c 0,-1.739258 0.03745,-2.001086 0.392742,-2.356421 0.504953,-0.504954 1.309131,-0.411447 1.608355,0.205717 0.149618,0.28052 0.243125,1.19692 0.243125,2.28163 v 1.832776 h 0.748078 0.748066 V 95.87838 c 0,-1.215625 -0.09346,-2.431238 -0.205717,-2.674362 -0.430151,-0.935092 -1.757973,-1.271723 -2.823979,-0.729374 z"
     id="path7550"
     style="stroke-width:0.0187019" />
  <path
     d="m 46.698528,92.399806 c -0.654559,0.280532 -1.196908,0.953795 -1.196908,1.458748 0,0.504943 1.327834,0.467535 1.645762,-0.03745 0.280521,-0.467545 1.477441,-0.523656 1.64575,-0.09346 0.187026,0.486239 -0.261816,0.785474 -1.365229,0.935092 -1.365231,0.16831 -2.113297,0.841574 -2.113297,1.907579 0.01867,1.533552 1.53354,2.225519 2.954882,1.365231 0.523644,-0.317929 0.617163,-0.336632 0.71067,-0.09346 0.0748,0.187026 0.374039,0.280533 0.972499,0.280533 0.673264,0 0.804178,-0.05612 0.635857,-0.224421 -0.149618,-0.149618 -0.224422,-0.9725 -0.224422,-2.431237 0,-2.487347 -0.130914,-2.76788 -1.440045,-3.123204 -0.935092,-0.261828 -1.514836,-0.243136 -2.225519,0.05612 z m 1.982406,4.058295 c -0.355335,0.822882 -1.514848,0.991191 -1.814084,0.243125 -0.187025,-0.504953 0.205718,-0.897684 1.08471,-1.103413 0.953795,-0.243114 1.103402,-0.05613 0.729374,0.860288 z"
     id="path7552"
     style="stroke-width:0.0187019" />
  <path
     d="m 66.634681,92.455905 c -0.804178,0.411446 -1.496145,1.701873 -1.496145,2.767868 0,0.411446 0.187014,1.140821 0.430139,1.589663 0.542361,1.103402 1.365242,1.533552 2.711769,1.440034 1.701861,-0.130902 2.711768,-1.25302 2.711768,-3.029697 0,-1.776665 -1.009907,-2.898771 -2.711768,-3.029696 -0.710671,-0.05612 -1.178217,0.01867 -1.645763,0.261828 z m 2.412533,1.477453 c 0.897696,1.140809 0.261829,3.067092 -1.009895,3.067092 -0.691967,0 -0.9725,-0.261828 -1.215625,-1.140809 -0.22442,-0.748066 0.05612,-1.944987 0.523658,-2.206816 0.59846,-0.355335 1.290427,-0.22442 1.701862,0.280533 z"
     id="path7554"
     style="stroke-width:0.0187019" />
  <path
     d="m 80.006487,92.512016 c -0.430138,0.205717 -0.916387,0.635856 -1.122105,0.9725 -0.448853,0.785474 -0.467546,2.61825 -0.03734,3.459835 0.579756,1.084698 2.487336,1.701861 3.553342,1.159512 0.59846,-0.317927 1.440033,-1.140809 1.440033,-1.42134 0,-0.355337 -1.383934,-0.317929 -1.683158,0.03745 -0.542349,0.65456 -2.057197,0.130902 -2.057197,-0.710671 0,-0.280532 0.261828,-0.317939 1.982383,-0.317939 h 2.001097 L 83.952631,94.812385 C 83.803024,93.671576 83.335478,92.923498 82.5313,92.493359 81.689715,92.044517 80.941638,92.044517 80.006546,92.51203 Z m 2.001099,1.25302 c 0.635856,0.579756 0.430138,0.804178 -0.785486,0.804178 -0.617152,0 -1.122106,-0.05613 -1.122106,-0.149607 0,-0.0748 0.130915,-0.336643 0.299236,-0.561053 0.336632,-0.486261 1.122106,-0.542361 1.608356,-0.09346 z"
     id="path7556"
     style="stroke-width:0.0187019" />
  <path
     d="m 86.140684,92.343706 c -1.25302,0.355324 -1.795369,1.944975 -0.935091,2.730461 0.22442,0.224422 0.916387,0.542349 1.533551,0.71067 0.617164,0.187014 1.25302,0.448842 1.402638,0.59846 0.243125,0.243125 0.243125,0.299226 -0.07479,0.542349 -0.542349,0.392743 -1.196921,0.317929 -1.720566,-0.205717 -0.579769,-0.59846 -1.757974,-0.673263 -1.757974,-0.112245 0,0.54235 0.691967,1.271723 1.440034,1.533552 0.392742,0.130902 1.103414,0.16831 1.720577,0.112245 0.860278,-0.09346 1.140809,-0.205717 1.570948,-0.691955 1.103402,-1.234328 0.392743,-2.543458 -1.645762,-3.011005 -1.253021,-0.28052 -1.645763,-0.654559 -1.122106,-1.047302 0.430139,-0.299224 1.19692,-0.187014 1.514849,0.243125 0.261828,0.336632 1.570947,0.355335 1.570947,0.01867 0,-0.430138 -0.598449,-1.103402 -1.234316,-1.36523 -0.691967,-0.299236 -1.383935,-0.317929 -2.262926,-0.05612 z"
     id="path7558"
     style="stroke-width:0.0187019" />
  <path
     d="m 18.570985,92.399806 c 0,0.05612 0.374036,0.691967 0.841583,1.421341 0.467545,0.729363 0.841582,1.346527 0.841582,1.402626 0,0.05612 -0.280528,0.486262 -0.635863,0.9725 -0.336633,0.504953 -0.766775,1.122116 -0.953793,1.402637 l -0.31793,0.523658 h 0.916389 c 0.878986,0 0.935091,-0.03745 1.346531,-0.748078 0.224423,-0.411436 0.486249,-0.748068 0.579758,-0.748068 0.09351,0 0.355334,0.336632 0.561054,0.748068 0.374037,0.729373 0.41144,0.748078 1.327832,0.748078 h 0.95379 L 23.695285,97.59891 c -0.168317,-0.280521 -0.617157,-0.935092 -0.972492,-1.477441 l -0.635864,-0.953795 0.953793,-1.421342 0.972494,-1.42133 h -0.91639 c -0.878984,0 -0.916388,0.01867 -1.383934,0.860278 l -0.467545,0.860288 -0.448844,-0.804177 c -0.430142,-0.766783 -0.50495,-0.822882 -1.346531,-0.878993 -0.486248,-0.03734 -0.878987,-0.01867 -0.878987,0.03745 z"
     id="path7654"
     style="stroke-width:0.0187019" />
</svg>
