<?xml version="1.0" encoding="UTF-8" standalone="no"?>
<!-- Created with Inkscape (http://www.inkscape.org/) -->

<svg
   width="100mm"
   height="100mm"
   viewBox="0 0 100 100"
   version="1.1"
   id="svg26768"
   xmlns="http://www.w3.org/2000/svg"
   xmlns:svg="http://www.w3.org/2000/svg">
  <defs
     id="defs26765" />
  <path
     d="m 67.396397,32.558959 v 31.636333 h 1.121288 1.121287 V 48.977816 33.760345 h 6.535506 l 6.519486,0.01599 -2.450814,2.418772 -2.466833,2.418779 0.784902,0.784902 0.768882,0.768883 3.764324,-3.764327 3.764322,-3.764319 -3.684231,-3.684233 c -2.018318,-2.018316 -3.764323,-3.684233 -3.844415,-3.684233 -0.09611,0 -0.49657,0.336389 -0.881012,0.736854 l -0.720827,0.720826 2.354704,2.322667 2.370722,2.306648 H 76.046331 69.638972 V 16.140082 0.92259967 h -1.121287 -1.121288 z"
     id="path8002"
     style="stroke-width:0.0160184" />
  <path
     d="m 18.860663,3.6777872 c -1.729994,0.656759 -2.979427,1.8100874 -3.812386,3.4920144 L 14.615784,8.050817 v 24.508142 24.508147 l 0.528608,1.073232 c 0.624721,1.265454 1.842115,2.450815 3.203682,3.123587 l 0.913044,0.448515 21.833074,0.04805 21.817054,0.03203 V 60.671239 59.54995 h -7.849013 -7.849015 v -3.363863 -3.363863 h 7.849015 7.849013 V 51.700936 50.57965 h -7.849013 -7.849015 v -3.363864 -3.363863 h 7.849015 7.849013 v -1.121289 -1.121287 h -7.849013 -7.849015 v -3.363862 -3.363868 h 7.849015 7.849013 v -1.121281 -1.121291 h -7.849013 -7.849015 v -3.443958 -3.443958 h 7.849015 7.849013 v -1.121281 -1.121291 h -7.849013 -7.849015 v -3.363863 -3.363862 h 7.849015 7.849013 V 15.659549 14.538268 H 39.844756 16.778271 v -2.851275 c 0,-2.627018 0.03207,-2.8993312 0.384437,-3.636176 C 17.547145,7.2178585 18.316036,6.4329568 19.22908,5.9363873 19.709631,5.6640741 21.03916,5.6480552 41.334468,5.5999984 L 62.911246,5.567925 V 4.4466432 3.3253526 L 41.334468,3.341345 c -21.512705,0 -21.592799,0 -22.473805,0.3363801 z m 5.766618,16.4669158 v 3.363863 h -3.924508 -3.924502 v -3.363863 -3.363862 h 3.924502 3.924508 z m 20.183178,0 v 3.363863 h -8.970301 -8.970303 v -3.363863 -3.363862 h 8.970303 8.970301 z m -20.263271,9.050393 v 3.363863 l -3.876451,0.04807 -3.892466,0.03207 V 29.195138 25.75119 l 3.892466,0.03198 3.876451,0.04807 z m 20.263271,0 v 3.443958 h -8.970301 -8.970303 v -3.443958 -3.443958 h 8.970303 8.970301 z m -20.183178,9.050395 v 3.363863 h -3.924508 -3.924502 v -3.363863 -3.363865 h 3.924502 3.924508 z m 20.183178,0 v 3.363863 h -8.970301 -8.970303 v -3.363863 -3.363865 h 8.970303 8.970301 z m -20.183178,8.970301 v 3.363864 h -3.924508 -3.924502 v -3.363864 -3.363863 h 3.924502 3.924508 z m 20.183178,0 v 3.363864 h -8.970301 -8.970303 v -3.363864 -3.363863 h 8.970303 8.970301 z m -20.183178,8.970302 v 3.363862 h -2.178502 c -2.578958,0 -3.187661,-0.144164 -4.1808,-1.025176 -1.153329,-1.009159 -1.489708,-1.906189 -1.489708,-3.988581 V 52.82223 h 3.924502 3.924508 z m 20.183178,0.0801 v 3.443956 h -8.970301 -8.970303 v -3.443956 -3.443955 h 8.970303 8.970301 z"
     id="path8018"
     style="stroke-width:0.0160184" />
  <path
     d="m 17.258821,83.096998 v 3.363864 h 2.578961 2.562941 l -0.04805,-0.608699 -0.04806,-0.592681 -1.874152,-0.04806 -1.890164,-0.04806 V 84.37847 83.593569 l 1.649888,-0.04806 1.633877,-0.04806 v -0.560651 -0.560644 l -1.649895,-0.04806 -1.64989,-0.04806 0.04806,-0.672773 0.04807,-0.672773 1.729993,-0.04805 1.713963,-0.04806 V 80.293746 79.733102 H 19.6616 17.258847 Z"
     id="path8114"
     style="stroke-width:0.0160184" />
  <path
     d="M 45.611378,80.854423 V 81.97571 L 45.09879,81.655342 c -0.688791,-0.416478 -1.233416,-0.400459 -1.906189,0.04806 -0.720827,0.480552 -1.105269,1.281471 -1.105269,2.322667 0,2.002299 1.537765,3.171642 3.011458,2.274613 0.416478,-0.256294 0.512588,-0.272314 0.512588,-0.0801 0,0.176202 0.176203,0.240276 0.640737,0.240276 h 0.640735 v -3.363863 -3.363864 h -0.640735 -0.640737 z m -0.336385,2.002299 c 0.128147,0.128148 0.256294,0.560644 0.288331,0.993142 0.06408,0.624717 0.01602,0.848974 -0.272313,1.201378 -0.929067,1.20138 -2.290631,-0.112129 -1.762024,-1.713967 0.272313,-0.848976 1.121288,-1.073233 1.746006,-0.480553 z"
     id="path8116"
     style="stroke-width:0.0160184" />
  <path
     d="m 56.664071,80.854423 v 1.121287 l -0.512588,-0.320368 c -0.688792,-0.416478 -1.233416,-0.400459 -1.906189,0.04806 -0.720828,0.480552 -1.10527,1.281471 -1.10527,2.322667 0,2.002299 1.537767,3.171642 3.011459,2.274613 0.416479,-0.256294 0.512588,-0.272314 0.512588,-0.0801 0,0.176202 0.176203,0.240276 0.640736,0.240276 h 0.640736 v -3.363866 -3.363864 h -0.640736 -0.640736 z m -0.336385,2.002299 c 0.128147,0.128148 0.256294,0.560644 0.288331,0.993142 0.06408,0.624717 0.01602,0.848974 -0.272314,1.201378 -0.929066,1.20138 -2.290629,-0.112129 -1.762023,-1.713967 0.272313,-0.848976 1.121288,-1.073233 1.746006,-0.480553 z"
     id="path8118"
     style="stroke-width:0.0160184" />
  <path
     d="m 61.149223,80.29378 v 0.544625 l 1.009158,0.04806 0.993141,0.04806 0.04806,2.755164 0.03203,2.771182 h 0.640737 0.640736 l 0.03203,-2.771182 0.04806,-2.755164 1.009159,-0.04806 0.99314,-0.04806 V 80.29378 79.733135 h -2.723127 -2.723128 z"
     id="path8120"
     style="stroke-width:0.0160184" />
  <path
     d="m 71.881548,83.096998 v 3.363864 h 0.560644 c 0.384441,0 0.560643,-0.0801 0.560643,-0.240276 0,-0.30435 0.144167,-0.30435 0.49657,0.01602 0.160184,0.144165 0.560645,0.288331 0.897031,0.320367 1.281471,0.160185 2.178501,-0.929066 2.178501,-2.659052 0,-1.569803 -0.7849,-2.498871 -2.082391,-2.466833 -0.416478,0.01602 -0.816939,0.128147 -1.009159,0.304349 -0.320368,0.28833 -0.320368,0.272313 -0.320368,-0.848976 v -1.153324 h -0.640735 -0.640736 z m 3.09155,-0.128147 c 0.384442,0.464533 0.368423,1.569804 -0.06408,2.114429 -0.881011,1.121287 -2.162484,-0.144167 -1.729987,-1.713969 0.256294,-0.929066 1.153325,-1.137306 1.79406,-0.40046 z"
     id="path8122"
     style="stroke-width:0.0160184" />
  <path
     d="m 77.64817,83.096998 v 3.363864 h 0.640736 0.640736 V 83.096998 79.733135 H 78.288906 77.64817 Z"
     id="path8124"
     style="stroke-width:0.0160184" />
  <path
     d="m 28.631879,80.854423 c 0,0.528608 -0.04806,0.640736 -0.320367,0.640736 -0.256294,0 -0.320368,0.112129 -0.320368,0.480551 0,0.368423 0.06408,0.480553 0.320368,0.480553 0.30435,0 0.320367,0.112129 0.320367,1.746005 0,2.082391 0.09611,2.258594 1.297491,2.258594 0.768882,0 0.784901,-0.01602 0.784901,-0.480552 0,-0.40046 -0.06408,-0.480552 -0.40046,-0.480552 -0.40046,0 -0.40046,0 -0.40046,-1.521748 0,-1.521747 0,-1.521747 0.40046,-1.521747 0.336386,0 0.40046,-0.0801 0.40046,-0.480553 0,-0.400459 -0.06408,-0.480551 -0.40046,-0.480551 -0.352405,0 -0.40046,-0.06408 -0.40046,-0.640736 v -0.640736 h -0.640736 -0.640736 z"
     id="path8174"
     style="stroke-width:0.0160184" />
  <path
     d="m 32.396203,81.655342 c -0.368423,0.176203 -0.784902,0.544627 -0.961104,0.832957 -0.384443,0.672773 -0.400461,2.242577 -0.03204,2.963404 0.496571,0.929067 2.130446,1.457673 3.043494,0.99314 0.512589,-0.272312 1.233418,-0.977122 1.233418,-1.217398 0,-0.30435 -1.185362,-0.272313 -1.441656,0.03204 -0.464534,0.560644 -1.762024,0.112129 -1.762024,-0.608699 0,-0.240277 0.224258,-0.272313 1.69795,-0.272313 h 1.713968 L 35.776078,83.625612 C 35.64793,82.648489 35.247471,82.007754 34.558679,81.63933 33.837852,81.25489 33.197115,81.25489 32.396196,81.65535 Z m 1.713967,1.073233 c 0.544627,0.49657 0.368424,0.688791 -0.672772,0.688791 -0.528607,0 -0.961104,-0.04806 -0.961104,-0.128147 0,-0.06408 0.112129,-0.288331 0.256295,-0.480551 0.28833,-0.416478 0.961104,-0.464535 1.377581,-0.0801 z"
     id="path8220"
     style="stroke-width:0.0160184" />
  <path
     d="m 38.691431,81.623306 c -0.480552,0.256295 -0.608699,0.272313 -0.608699,0.09611 0,-0.160183 -0.192221,-0.224257 -0.640735,-0.224257 h -0.640736 v 2.482851 2.482852 h 0.640736 0.640735 v -1.681931 c 0,-1.489712 0.03204,-1.71397 0.336387,-2.018318 0.432496,-0.432497 1.121288,-0.352406 1.377582,0.176201 0.128147,0.240276 0.208239,1.025178 0.208239,1.954245 v 1.569803 h 0.640736 0.640737 v -1.922207 c 0,-1.041197 -0.0801,-2.082392 -0.176204,-2.290632 -0.368423,-0.800919 -1.505728,-1.089251 -2.418778,-0.624717 z"
     id="path8222"
     style="stroke-width:0.0160184" />
  <path
     d="m 49.055334,81.655342 c -0.368423,0.176203 -0.784901,0.544627 -0.961104,0.832957 -0.384441,0.672773 -0.40046,2.242577 -0.03204,2.963404 0.49657,0.929067 2.130446,1.457673 3.043495,0.99314 0.512589,-0.272312 1.233416,-0.977122 1.233416,-1.217398 0,-0.30435 -1.185361,-0.272313 -1.441655,0.03204 -0.464534,0.560644 -1.762024,0.112129 -1.762024,-0.608699 0,-0.240277 0.224258,-0.272313 1.697951,-0.272313 h 1.713968 l -0.112128,-0.752864 c -0.128148,-0.977123 -0.528608,-1.617858 -1.217399,-1.986282 -0.720829,-0.38444 -1.361563,-0.38444 -2.162484,0.01602 z m 1.713969,1.073233 c 0.544624,0.49657 0.368422,0.688791 -0.672773,0.688791 -0.528607,0 -0.961104,-0.04806 -0.961104,-0.128147 0,-0.06408 0.112128,-0.288331 0.256294,-0.480551 0.288331,-0.416478 0.961104,-0.464535 1.377583,-0.0801 z"
     id="path8224"
     style="stroke-width:0.0160184" />
  <path
     d="m 67.620654,81.559233 c -0.560643,0.240276 -1.025176,0.816937 -1.025176,1.249435 0,0.432496 1.137306,0.400459 1.409617,-0.03203 0.240276,-0.400459 1.265454,-0.448514 1.40962,-0.0801 0.160183,0.416478 -0.224258,0.672772 -1.169344,0.80092 -1.169342,0.144166 -1.810078,0.720828 -1.810078,1.633876 0.01602,1.313508 1.313508,1.906189 2.530907,1.169344 0.448515,-0.272314 0.528606,-0.288332 0.608698,-0.0801 0.06408,0.160185 0.320368,0.240276 0.832958,0.240276 0.576661,0 0.68879,-0.04806 0.544624,-0.192221 -0.128147,-0.128147 -0.192219,-0.832956 -0.192219,-2.082392 0,-2.130446 -0.11213,-2.370721 -1.233418,-2.67507 -0.800919,-0.224259 -1.297489,-0.20824 -1.906189,0.04805 z m 1.69795,3.475991 c -0.30435,0.70481 -1.297489,0.848975 -1.553785,0.208239 -0.160183,-0.432497 0.176203,-0.768882 0.929067,-0.945085 0.816939,-0.208239 0.945086,-0.04806 0.624718,0.736846 z"
     id="path8226"
     style="stroke-width:0.0160184" />
  <path
     d="m 81.092125,81.655342 c -0.368424,0.176203 -0.784902,0.544627 -0.961103,0.832957 -0.384442,0.672773 -0.40046,2.242577 -0.03203,2.963404 0.49657,0.929067 2.130446,1.457673 3.043495,0.99314 0.51259,-0.272312 1.233417,-0.977122 1.233417,-1.217398 0,-0.30435 -1.185362,-0.272313 -1.441655,0.03204 -0.464534,0.560644 -1.762024,0.112129 -1.762024,-0.608699 0,-0.240277 0.224258,-0.272313 1.69795,-0.272313 h 1.713968 l -0.112129,-0.752864 c -0.128147,-0.977123 -0.528607,-1.617858 -1.217398,-1.986282 -0.720828,-0.38444 -1.361563,-0.38444 -2.162483,0.01602 z m 1.713968,1.073233 c 0.544626,0.49657 0.368423,0.688791 -0.672772,0.688791 -0.528608,0 -0.961104,-0.04806 -0.961104,-0.128147 0,-0.06408 0.112128,-0.288331 0.256294,-0.480551 0.288332,-0.416478 0.961104,-0.464535 1.377582,-0.0801 z"
     id="path8228"
     style="stroke-width:0.0160184" />
  <path
     d="m 23.025441,81.559233 c 0,0.04805 0.320367,0.59268 0.720828,1.217398 0.40046,0.624718 0.720828,1.153324 0.720828,1.201379 0,0.04806 -0.240277,0.416478 -0.544626,0.832956 -0.288331,0.432497 -0.656754,0.961104 -0.816938,1.20138 l -0.272312,0.448516 h 0.7849 c 0.752865,0 0.800919,-0.03204 1.153325,-0.640736 0.192221,-0.352405 0.416478,-0.640737 0.49657,-0.640737 0.0801,0 0.30435,0.288332 0.480552,0.640737 0.320368,0.624717 0.352405,0.640736 1.137307,0.640736 h 0.816937 L 27.414481,86.012346 C 27.270315,85.77207 26.885875,85.211427 26.581525,84.746893 l -0.544626,-0.816938 0.816939,-1.217398 0.832956,-1.217398 h -0.784901 c -0.752865,0 -0.784902,0.01602 -1.185361,0.736846 L 25.316071,82.968851 24.93163,82.28006 c -0.368423,-0.656754 -0.432497,-0.704809 -1.153324,-0.752865 -0.416479,-0.03203 -0.752865,-0.01602 -0.752865,0.03204 z"
     id="path8324"
     style="stroke-width:0.0160184" />
  <path
     d="m 34.398501,94.486075 v 3.379879 l 1.986282,-0.06409 c 1.729987,-0.04807 2.050355,-0.09611 2.450814,-0.384435 1.361565,-1.009158 1.729988,-3.620157 0.720829,-5.173941 -0.592682,-0.913054 -1.249435,-1.13731 -3.395901,-1.13731 h -1.762024 z m 3.363863,-2.114422 c 0.544627,0.144162 0.961104,1.025178 0.961104,2.018316 0,0.945083 -0.400459,1.842117 -0.961104,2.114431 -0.224257,0.112123 -0.736846,0.208236 -1.153324,0.208236 h -0.768882 v -2.242581 -2.242571 l 0.768882,0.01599 c 0.416478,0.01599 0.929067,0.06406 1.153324,0.128152 z"
     id="path8380"
     style="stroke-width:0.0160184" />
  <path
     d="m 46.412298,92.227484 c 0,0.528606 -0.04806,0.640739 -0.320368,0.640739 -0.256294,0 -0.320368,0.112124 -0.320368,0.480551 0,0.368418 0.06408,0.48055 0.320368,0.48055 0.304349,0 0.320368,0.112124 0.320368,1.746003 0,2.082392 0.09611,2.258594 1.297491,2.258594 0.768882,0 0.784901,-0.01602 0.784901,-0.480553 0,-0.400456 -0.06408,-0.480551 -0.40046,-0.480551 -0.40046,0 -0.40046,0 -0.40046,-1.521746 0,-1.521747 0,-1.521747 0.40046,-1.521747 0.336386,0 0.40046,-0.08014 0.40046,-0.48055 0,-0.400465 -0.06408,-0.480551 -0.40046,-0.480551 -0.352405,0 -0.40046,-0.06406 -0.40046,-0.640739 v -0.640732 h -0.640736 -0.640736 z"
     id="path8394"
     style="stroke-width:0.0160184" />
  <path
     d="m 65.153822,92.227484 c 0,0.528606 -0.04806,0.640739 -0.320368,0.640739 -0.256294,0 -0.320368,0.112124 -0.320368,0.480551 0,0.368418 0.06408,0.48055 0.320368,0.48055 0.304349,0 0.320368,0.112124 0.320368,1.746003 0,2.082392 0.09611,2.258594 1.297489,2.258594 0.768883,0 0.784902,-0.01602 0.784902,-0.480553 0,-0.400456 -0.06408,-0.480551 -0.40046,-0.480551 -0.40046,0 -0.40046,0 -0.40046,-1.521746 0,-1.521747 0,-1.521747 0.40046,-1.521747 0.336386,0 0.40046,-0.08014 0.40046,-0.48055 0,-0.400465 -0.06408,-0.480551 -0.40046,-0.480551 -0.352405,0 -0.40046,-0.06406 -0.40046,-0.640739 v -0.640732 h -0.640736 -0.640735 z"
     id="path8396"
     style="stroke-width:0.0160184" />
  <path
     d="m 41.991221,92.93229 c -0.560644,0.240276 -1.025177,0.816939 -1.025177,1.249442 0,0.432494 1.137307,0.400456 1.409619,-0.03207 0.240275,-0.400465 1.265452,-0.448522 1.409619,-0.08014 0.160183,0.416476 -0.224258,0.672769 -1.169344,0.800913 -1.169342,0.14417 -1.810078,0.720834 -1.810078,1.633879 0.01602,1.313507 1.313508,1.906191 2.530907,1.169347 0.448515,-0.272314 0.528607,-0.288333 0.608698,-0.08014 0.06408,0.160182 0.320369,0.24028 0.832957,0.24028 0.576663,0 0.688791,-0.04807 0.544625,-0.192231 -0.128147,-0.128143 -0.192221,-0.83295 -0.192221,-2.082392 0,-2.13044 -0.112128,-2.370715 -1.233415,-2.675066 -0.80092,-0.224256 -1.29749,-0.208238 -1.90619,0.04807 z m 1.69795,3.475995 c -0.304349,0.704808 -1.29749,0.848978 -1.553784,0.208238 -0.160184,-0.432493 0.176202,-0.768883 0.929067,-0.945082 0.816937,-0.208238 0.945084,-0.04807 0.624717,0.736844 z"
     id="path8408"
     style="stroke-width:0.0160184" />
  <path
     d="m 50.320787,92.93229 c -0.560644,0.240276 -1.025178,0.816939 -1.025178,1.249442 0,0.432494 1.137306,0.400456 1.40962,-0.03207 0.240276,-0.400465 1.265453,-0.448522 1.409619,-0.08014 0.160183,0.416476 -0.224259,0.672769 -1.169343,0.800913 -1.169343,0.14417 -1.810079,0.720834 -1.810079,1.633879 0.01602,1.313507 1.313508,1.906191 2.530907,1.169347 0.448515,-0.272314 0.528606,-0.288333 0.608698,-0.08014 0.06408,0.160182 0.320368,0.24028 0.832957,0.24028 0.576663,0 0.688791,-0.04807 0.544625,-0.192231 -0.128147,-0.128143 -0.19222,-0.83295 -0.19222,-2.082392 0,-2.13044 -0.112129,-2.370715 -1.233417,-2.675066 -0.800919,-0.224256 -1.297491,-0.208238 -1.906189,0.04807 z m 1.69795,3.475995 c -0.304349,0.704808 -1.29749,0.848978 -1.553784,0.208238 -0.160185,-0.432493 0.176202,-0.768883 0.929066,-0.945082 0.816939,-0.208238 0.945086,-0.04807 0.624718,0.736844 z"
     id="path8410"
     style="stroke-width:0.0160184" />
  <path
     d="m 55.590838,92.884242 c -1.073232,0.304342 -1.537764,1.665909 -0.800919,2.338677 0.192221,0.192228 0.784902,0.464541 1.313508,0.608702 0.528608,0.16019 1.073233,0.384446 1.20138,0.512589 0.20824,0.208237 0.20824,0.256294 -0.06408,0.464532 -0.464532,0.336388 -1.025177,0.272313 -1.473691,-0.1762 -0.496571,-0.512588 -1.50573,-0.576664 -1.50573,-0.09611 0,0.464541 0.59268,1.089253 1.233416,1.313511 0.336387,0.112132 0.945086,0.144166 1.473693,0.09613 0.736846,-0.08001 0.977121,-0.176199 1.345544,-0.592684 0.945086,-1.057215 0.336387,-2.178497 -1.409617,-2.578962 -1.073233,-0.240276 -1.40962,-0.560645 -0.961104,-0.897025 0.368422,-0.256294 1.025177,-0.16019 1.297489,0.208238 0.224258,0.288331 1.345546,0.30435 1.345546,0.01599 0,-0.368426 -0.51259,-0.945091 -1.057214,-1.169347 -0.592681,-0.256294 -1.185362,-0.272313 -1.938227,-0.04806 z"
     id="path8412"
     style="stroke-width:0.0160184" />
  <path
     d="m 60.748762,93.028404 c -0.368422,0.176199 -0.7849,0.544626 -0.961103,0.832959 -0.384442,0.672768 -0.40046,2.242572 -0.03204,2.963398 0.496572,0.929071 2.130448,1.457678 3.043496,0.993138 0.512589,-0.272304 1.233416,-0.97712 1.233416,-1.217395 0,-0.304351 -1.185361,-0.272314 -1.441655,0.03207 -0.464533,0.560645 -1.762024,0.112132 -1.762024,-0.608694 0,-0.240284 0.224258,-0.272313 1.69795,-0.272313 H 64.24077 L 64.128648,94.998705 C 64.0005,94.021584 63.60004,93.380844 62.911249,93.012417 62.190422,92.62798 61.549685,92.62798 60.748766,93.028407 Z m 1.713969,1.073234 c 0.544626,0.496569 0.368423,0.688788 -0.672773,0.688788 -0.528607,0 -0.961104,-0.04806 -0.961104,-0.128143 0,-0.06406 0.112129,-0.288333 0.256295,-0.480551 0.288331,-0.416484 0.961104,-0.46454 1.377582,-0.08005 z"
     id="path8414"
     style="stroke-width:0.0160184" />
</svg>
