<?xml version="1.0" encoding="UTF-8" standalone="no"?>
<!-- Created with Inkscape (http://www.inkscape.org/) -->

<svg
   width="100mm"
   height="100mm"
   viewBox="0 0 100 100"
   version="1.1"
   id="svg26768"
   xmlns="http://www.w3.org/2000/svg"
   xmlns:svg="http://www.w3.org/2000/svg">
  <defs
     id="defs26765" />
  <g
     id="layer1">
    <path
       d="M 48.22936,2.8995725 C 46.536125,3.5152952 45.876425,4.6367878 45.876425,6.923755 v 1.1654725 h 1.429357 1.429351 V 6.7698243 5.4504211 h 9.565681 9.565675 v 1.3194032 1.3194032 h 1.451342 1.451348 L 70.681223,6.461964 C 70.593267,4.7027577 70.285402,4.0430561 69.097938,3.1634539 68.504206,2.7236528 68.21833,2.7016619 58.784598,2.657683 c -7.872447,-0.043988 -9.873543,0 -10.555235,0.2418895 z"
       id="path13648"
       style="stroke-width:0.0219901" />
    <path
       d="m 13.045261,8.2431582 c -0.08797,0.065972 -0.153931,1.3194043 -0.153931,2.7487588 v 2.594827 H 28.064473 43.259605 L 43.193635,10.881966 43.127665,8.1991783 28.15243,8.1332083 C 19.928151,8.1112145 13.111231,8.1552025 13.045261,8.2431582 Z"
       id="path13666"
       style="stroke-width:0.0219901" />
    <path
       d="m 51.527872,8.2431582 c -0.08796,0.065972 -0.153928,1.3194043 -0.153928,2.7487588 v 2.594827 h 6.92687 6.948854 l -0.06597,-2.704778 -0.06597,-2.6827877 -6.728958,-0.065972 c -3.694334,-0.021994 -6.772943,0.021994 -6.860902,0.1099498 z"
       id="path13668"
       style="stroke-width:0.0219901" />
    <path
       d="m 73.517935,8.2431582 c -0.08796,0.065972 -0.153928,1.3194043 -0.153928,2.7487588 v 2.594827 h 9.675627 9.697617 l -0.06597,-2.704778 -0.06597,-2.6827877 -9.477715,-0.065972 c -5.211643,-0.021994 -9.54369,0.021994 -9.609659,0.1099498 z"
       id="path13670"
       style="stroke-width:0.0219901" />
    <path
       d="m 46.030353,13.718685 c -0.08796,0.08796 -0.153928,0.703682 -0.153928,1.385373 0.022,1.583285 0.615724,2.94667 1.583285,3.540401 0.703682,0.417812 1.077512,0.439801 10.863089,0.439801 H 68.46022 l 0.747666,-0.505771 c 1.121489,-0.725672 1.539302,-1.737215 1.473334,-3.45244 l -0.06597,-1.429355 h -1.319399 -1.319406 l -0.109951,1.319404 -0.109951,1.319405 h -9.455724 -9.45573 l -0.109951,-1.319405 -0.109952,-1.319404 -1.209448,-0.06597 c -0.681698,-0.04399 -1.297415,0 -1.38538,0.08796 z"
       id="path13688"
       style="stroke-width:0.0219901" />
    <path
       d="m 9.2189885,16.797294 c -1.1214926,0.549751 -1.6492545,1.627264 -1.7811942,3.51841 l -0.1099508,1.627265 h 1.451345 1.4513445 l 0.06597,-1.385374 0.06597,-1.363384 h 9.455727 9.455727 l 0.06597,1.363384 0.06597,1.385374 h 1.407365 1.429354 v -1.385374 c 0,-1.759206 -0.659703,-3.14458 -1.759206,-3.716321 -0.703681,-0.373831 -1.495324,-0.395822 -10.66518,-0.395822 -8.620105,0 -9.9834887,0.06597 -10.5992115,0.351842 z"
       id="path13690"
       style="stroke-width:0.0219901" />
    <path
       d="m 12.89133,24.691726 v 2.748758 h 6.92687 6.92687 V 24.691726 21.942969 H 19.8182 12.89133 Z"
       id="path13712"
       style="stroke-width:0.0219901" />
    <path
       d="m 34.881393,24.691726 v 2.748758 h 4.178113 4.178114 v -2.748758 -2.748757 h -4.178114 -4.178113 z"
       id="path13714"
       style="stroke-width:0.0219901" />
    <path
       d="m 51.373944,24.691726 v 2.748758 h 9.675626 9.675626 V 24.691726 21.942969 H 61.04957 51.373944 Z"
       id="path13716"
       style="stroke-width:0.0219901" />
    <path
       d="m 78.861521,24.691726 v 2.748758 h 6.926869 6.926869 V 24.691726 21.942969 H 85.78839 78.861521 Z"
       id="path13718"
       style="stroke-width:0.0219901" />
    <path
       d="m 7.4377943,29.11173 c 0.1099497,1.759204 0.4178111,2.396916 1.5832836,3.254529 0.5937318,0.439801 0.9015931,0.461791 10.4892601,0.527761 9.323788,0.04399 9.939509,0.04399 10.841103,-0.35184 1.253433,-0.571743 1.891145,-1.825177 1.891145,-3.738312 v -1.363384 h -1.429354 -1.429355 v 1.319404 1.319404 H 19.8182 10.252523 V 28.759888 27.440484 H 8.8011774 7.3278435 Z"
       id="path13724"
       style="stroke-width:0.0219901" />
    <path
       d="m 13.045261,35.730739 c -0.08797,0.06597 -0.153931,1.319403 -0.153931,2.748757 v 2.594828 h 2.748758 2.748758 v -2.748758 -2.748758 h -2.594828 c -1.429354,0 -2.682787,0.06597 -2.748757,0.153931 z"
       id="path13730"
       style="stroke-width:0.0219901" />
    <path
       d="m 26.74507,38.325566 v 2.748758 h 4.068162 4.068161 V 38.325566 35.576808 H 30.813232 26.74507 Z"
       id="path13732"
       style="stroke-width:0.0219901" />
    <path
       d="m 43.23762,38.325566 v 2.748758 H 59.730164 76.2447 l -0.06597,-2.704779 -0.06597,-2.682787 -16.426576,-0.06597 -16.448569,-0.04399 z"
       id="path13734"
       style="stroke-width:0.0219901" />
    <path
       d="m 84.512967,35.708748 c -0.08796,0.08796 -0.153928,1.341394 -0.153928,2.770748 v 2.594828 h 4.178107 4.200105 l -0.06597,-2.704779 -0.06597,-2.682787 -3.980203,-0.06597 c -2.177016,-0.02199 -4.02418,0.02199 -4.112139,0.08796 z"
       id="path13736"
       style="stroke-width:0.0219901" />
    <path
       d="m 36.706571,44.284873 c -1.121495,0.549752 -1.649258,1.627264 -1.781198,3.518408 l -0.10995,1.627268 h 1.451344 1.451342 l 0.06597,-1.385374 0.06597,-1.363383 h 9.45573 9.455724 l 0.06597,1.363383 0.06597,1.385374 h 1.407365 1.42935 v -1.385374 c 0,-1.759206 -0.6597,-3.14458 -1.759203,-3.716321 -0.703683,-0.373831 -1.495325,-0.395821 -10.665179,-0.395821 -8.620105,0 -9.983494,0.06597 -10.599211,0.35184 z"
       id="path13738"
       style="stroke-width:0.0219901" />
    <path
       d="m 12.89133,52.179305 v 2.748756 h 9.675628 9.675628 V 52.179305 49.430549 H 22.566958 12.89133 Z"
       id="path13740"
       style="stroke-width:0.0219901" />
    <path
       d="m 40.378913,52.179305 v 2.748756 h 6.926869 6.926869 v -2.748756 -2.748756 h -6.926869 -6.926869 z"
       id="path13742"
       style="stroke-width:0.0219901" />
    <path
       d="m 62.368976,52.179305 v 2.748756 H 77.542114 92.715259 V 52.179305 49.430549 H 77.542114 62.368976 Z"
       id="path13744"
       style="stroke-width:0.0219901" />
    <path
       d="m 34.925373,56.599312 c 0.109948,1.759203 0.41781,2.396912 1.583288,3.254528 0.593731,0.439798 0.901593,0.461789 10.48926,0.527758 9.323787,0.04401 9.939504,0.04401 10.841097,-0.351838 1.253438,-0.571741 1.891146,-1.825178 1.891146,-3.738309 v -1.36339 h -1.42935 -1.429357 v 1.319407 1.319405 h -9.565675 -9.565681 v -1.319405 -1.319407 h -1.451342 -1.473336 z"
       id="path13746"
       style="stroke-width:0.0219901" />
    <path
       d="m 13.045261,63.21832 c -0.08797,0.06597 -0.153931,1.319399 -0.153931,2.748756 v 2.594829 h 26.168176 26.190162 l -0.06597,-2.70478 -0.06597,-2.682788 -25.970266,-0.06597 c -14.271552,-0.022 -26.036235,0.022 -26.102205,0.109952 z"
       id="path13748"
       style="stroke-width:0.0219901" />
    <path
       d="m 73.517935,63.21832 c -0.08796,0.06597 -0.153928,1.319399 -0.153928,2.748756 v 2.594829 h 9.675627 9.697617 l -0.06597,-2.70478 -0.06597,-2.682788 -9.477715,-0.06597 c -5.211643,-0.022 -9.54369,0.022 -9.609659,0.109952 z"
       id="path13750"
       style="stroke-width:0.0219901" />
    <path
       d="m 51.659814,87.077536 c -0.989552,1.693234 -1.385373,3.056619 -1.385373,4.903781 0,2.748765 1.495325,6.047268 2.770747,6.047268 0.659699,0 0.659699,-0.131934 0,-1.473335 -1.341397,-2.704776 -1.341397,-6.223189 0,-9.279799 0.28587,-0.637714 0.527758,-1.209457 0.527758,-1.253445 0,-0.04399 -0.285871,-0.08798 -0.615717,-0.08798 -0.505773,0 -0.725674,0.197906 -1.297415,1.143486 z"
       id="path13752"
       style="stroke-width:0.0219901" />
    <path
       d="m 86.997844,86.044 c 0,0.06593 0.241888,0.593737 0.527764,1.165469 0.769651,1.539307 1.077513,3.254536 0.967561,5.453541 -0.08795,1.847172 -0.241893,2.418905 -1.429356,5.101697 -0.08795,0.2199 0.06597,0.285872 0.593731,0.2199 0.637715,-0.06593 0.813634,-0.241894 1.473334,-1.407363 0.395821,-0.725671 0.901593,-2.0011 1.099504,-2.83672 0.483781,-2.00109 0.175919,-3.980196 -0.989553,-6.157217 -0.74766,-1.363385 -0.923578,-1.539307 -1.539302,-1.605269 -0.395821,-0.04399 -0.703683,-0.02204 -0.703683,0.06593 z"
       id="path13754"
       style="stroke-width:0.0219901" />
    <path
       d="m 9.8127203,90.77187 v 4.61791 h 0.9895537 0.989553 v -1.979105 -1.979106 h 2.089056 2.089056 V 90.66192 89.892262 h -2.111046 -2.089056 l 0.06597,-1.05552 0.06597,-1.033536 2.264978,-0.06593 2.242985,-0.06593 V 86.923669 86.154021 H 13.111234 9.8127233 Z"
       id="path13758"
       style="stroke-width:0.0219901" />
    <path
       d="m 17.729144,86.923598 c 0,0.747675 0.02199,0.769659 0.879602,0.769659 0.857613,0 0.879602,-0.02205 0.879602,-0.769659 0,-0.747654 -0.02199,-0.769648 -0.879602,-0.769648 -0.857612,0 -0.879602,0.02204 -0.879602,0.769648 z"
       id="path13760"
       style="stroke-width:0.0219901" />
    <path
       d="m 28.284374,90.77187 v 4.61791 h 0.879603 0.879602 v -4.61791 -4.61792 h -0.879602 -0.879603 z"
       id="path13762"
       style="stroke-width:0.0219901" />
    <path
       d="m 36.420701,87.693257 v 1.539306 l -0.703683,-0.439809 c -0.945575,-0.571743 -1.693237,-0.549749 -2.61682,0.06593 -0.989553,0.659708 -1.517315,1.759206 -1.517315,3.188563 0,2.748754 2.111047,4.354033 4.134135,3.122591 0.571741,-0.351843 0.703683,-0.373837 0.703683,-0.109949 0,0.241893 0.241887,0.329849 0.879602,0.329849 h 0.879602 v -4.61791 -4.617921 h -0.879602 -0.879602 z m -0.461795,2.748754 c 0.175918,0.175921 0.351844,0.769658 0.395821,1.363385 0.08796,0.857614 0.022,1.165469 -0.37383,1.649256 -1.275425,1.649257 -3.14458,-0.153927 -2.418907,-2.352933 0.37383,-1.165479 1.539306,-1.473335 2.396916,-0.659708 z"
       id="path13764"
       style="stroke-width:0.0219901" />
    <path
       d="m 80.400828,90.77187 v 4.61791 h 0.879602 0.879602 V 90.77187 86.15395 H 81.28043 80.400828 Z"
       id="path13766"
       style="stroke-width:0.0219901" />
    <path
       d="m 83.919235,90.77187 v 4.61791 h 0.879602 0.879602 v -4.61791 -4.61792 h -0.879602 -0.879602 z"
       id="path13768"
       style="stroke-width:0.0219901" />
    <path
       d="m 22.457007,88.792754 c -0.505771,0.241894 -1.077513,0.747665 -1.319403,1.143486 -0.527762,0.923586 -0.549752,3.078613 -0.04399,4.068161 0.681693,1.27543 2.924678,2.0011 4.178112,1.363385 0.703682,-0.373827 1.693235,-1.341391 1.693235,-1.67124 0,-0.417815 -1.627265,-0.373827 -1.979106,0.04399 -0.637712,0.769648 -2.418907,0.153928 -2.418907,-0.83563 0,-0.32985 0.307861,-0.373828 2.330947,-0.373828 h 2.352937 l -0.153926,-1.033535 c -0.17592,-1.341392 -0.725672,-2.22099 -1.671245,-2.726761 -0.989552,-0.527765 -1.869155,-0.527765 -2.968658,0.02204 z m 2.352937,1.473345 c 0.747663,0.681693 0.505771,0.94557 -0.923583,0.94557 -0.725671,0 -1.319403,-0.06593 -1.319403,-0.175921 0,-0.08798 0.153931,-0.395822 0.35184,-0.659699 0.395821,-0.571753 1.319404,-0.637715 1.891146,-0.10995 z"
       id="path13900"
       style="stroke-width:0.0219901" />
    <path
       d="m 41.10458,88.594849 c -1.473333,0.417805 -2.111042,2.286961 -1.099504,3.210547 0.263886,0.263877 1.077513,0.637715 1.803186,0.83563 0.725675,0.21989 1.473334,0.527755 1.649254,0.703677 0.285875,0.285871 0.285875,0.351843 -0.08796,0.637714 -0.637708,0.461783 -1.407359,0.373828 -2.023082,-0.241893 -0.681691,-0.703677 -2.067065,-0.791643 -2.067065,-0.131944 0,0.637715 0.813627,1.495329 1.693235,1.803194 0.461789,0.153928 1.297409,0.197906 2.023082,0.131934 1.011545,-0.10995 1.341397,-0.241883 1.847163,-0.813626 1.297414,-1.451351 0.461796,-2.990648 -1.935122,-3.540407 -1.473334,-0.329849 -1.935123,-0.769648 -1.319406,-1.231441 0.505772,-0.351844 1.407365,-0.2199 1.781195,0.285871 0.307862,0.395821 1.847169,0.417815 1.847169,0.02204 0,-0.505771 -0.703682,-1.297414 -1.451348,-1.605279 -0.813627,-0.351843 -1.627261,-0.373827 -2.660797,-0.06593 z"
       id="path13902"
       style="stroke-width:0.0219901" />
    <path
       d="m 56.057824,88.594849 c -1.473334,0.417805 -2.111043,2.286961 -1.099504,3.210547 0.263884,0.263877 1.077512,0.637715 1.803186,0.83563 0.725674,0.21989 1.473333,0.527755 1.649259,0.703677 0.28587,0.285871 0.28587,0.351843 -0.08797,0.637714 -0.637709,0.461783 -1.407359,0.373828 -2.023082,-0.241893 -0.681692,-0.703677 -2.067066,-0.791643 -2.067066,-0.131944 0,0.637715 0.813628,1.495329 1.693236,1.803194 0.461789,0.153928 1.297408,0.197906 2.023083,0.131934 1.011543,-0.10995 1.341397,-0.241883 1.847169,-0.813626 1.297408,-1.451351 0.461789,-2.990648 -1.935129,-3.540407 -1.473334,-0.329849 -1.935123,-0.769648 -1.319407,-1.231441 0.505773,-0.351844 1.407367,-0.2199 1.781196,0.285871 0.307861,0.395821 1.847169,0.417815 1.847169,0.02204 0,-0.505771 -0.703683,-1.297414 -1.451348,-1.605279 -0.813627,-0.351843 -1.627261,-0.373827 -2.660796,-0.06593 z"
       id="path13904"
       style="stroke-width:0.0219901" />
    <path
       d="m 64.524001,88.77077 c -0.659707,0.32985 -0.835626,0.351844 -0.835626,0.10995 0,-0.219899 -0.263878,-0.307855 -0.879602,-0.307855 h -0.879601 v 3.408452 3.408463 h 0.879601 0.879602 v -2.396921 c 0,-2.242983 0.04401,-2.440888 0.483781,-2.748754 0.637715,-0.439809 0.747666,-0.439809 1.275423,0.08798 0.373836,0.373837 0.439804,0.725681 0.439804,2.748764 v 2.308956 h 0.879602 0.879601 v -2.308956 c 0,-2.023083 0.06597,-2.374927 0.439804,-2.748764 1.143481,-1.143475 1.759205,-0.197905 1.759205,2.792742 v 2.264978 h 0.879601 0.879602 V 92.77298 c 0,-3.122591 -0.153928,-3.67234 -1.231441,-4.112139 -0.945576,-0.395821 -1.737218,-0.263888 -2.4409,0.395821 l -0.48378,0.461793 -0.395822,-0.461793 C 66.459124,88.374969 65.491562,88.26502 64.524001,88.77079 Z"
       id="path13906"
       style="stroke-width:0.0219901" />
    <path
       d="m 74.551471,88.660821 c -0.769657,0.329849 -1.407365,1.121491 -1.407365,1.715228 0,0.593727 1.561292,0.549749 1.935123,-0.04399 0.329852,-0.549749 1.737218,-0.615721 1.935128,-0.10995 0.219896,0.571743 -0.307861,0.923586 -1.605276,1.099498 -1.605276,0.197915 -2.484877,0.989558 -2.484877,2.242983 0.022,1.803194 1.803186,2.616821 3.47443,1.605279 0.615723,-0.373827 0.725674,-0.395821 0.835619,-0.10995 0.08797,0.219899 0.439804,0.329849 1.143487,0.329849 0.791642,0 0.94557,-0.06593 0.747659,-0.263877 -0.175919,-0.175922 -0.263878,-1.143486 -0.263878,-2.858714 0,-2.924676 -0.153928,-3.254525 -1.693236,-3.67234 -1.099504,-0.307856 -1.781195,-0.285872 -2.616814,0.06593 z m 2.330944,4.771848 c -0.417812,0.967553 -1.781196,1.165469 -2.133034,0.285871 -0.219901,-0.593737 0.241888,-1.05553 1.275424,-1.297423 1.121488,-0.285862 1.297414,-0.06593 0.85761,1.011552 z"
       id="path13908"
       style="stroke-width:0.0219901" />
    <path
       d="m 17.729144,91.981317 v 3.408463 h 0.879602 0.879602 v -3.408463 -3.408452 h -0.879602 -0.879602 z"
       id="path14036"
       style="stroke-width:0.0219901" />
  </g>
</svg>
