<?xml version="1.0" encoding="UTF-8" standalone="no"?>
<!-- Created with Inkscape (http://www.inkscape.org/) -->

<svg
   width="100mm"
   height="100mm"
   viewBox="0 0 100 100"
   version="1.1"
   id="svg26768"
   xmlns="http://www.w3.org/2000/svg"
   xmlns:svg="http://www.w3.org/2000/svg">
  <defs
     id="defs26765" />
  <g
     id="layer1">
    <path
       d="m 46.999362,8.4311106 c -0.397527,0.3975199 -0.496902,0.8198855 -0.496902,1.9876014 0,1.316786 0.04967,1.490702 0.496902,1.490702 0.397516,0 0.472045,-0.19876 0.546585,-1.441011 l 0.07451,-1.4161669 h 10.80758 10.807592 l 0.07451,1.4161669 c 0.07451,1.242251 0.14907,1.441011 0.546585,1.441011 0.447221,0 0.496915,-0.173916 0.496915,-1.490702 0,-2.6584173 0.795042,-2.4845019 -11.92562,-2.4845019 -10.608829,0 -10.956662,0.024847 -11.428706,0.4969005 z"
       id="path12854"
       style="stroke-width:0.024845" />
    <path
       d="m 7.2473157,13.648565 v 1.490703 H 24.266162 41.28501 V 13.648565 12.157864 H 24.266162 7.2473157 Z"
       id="path12860"
       style="stroke-width:0.024845" />
    <path
       d="m 50.726104,13.648565 v 1.490703 h 7.701964 7.701964 v -1.490703 -1.490701 h -7.701964 -7.701964 z"
       id="path12862"
       style="stroke-width:0.024845" />
    <path
       d="m 75.571138,13.648565 v 1.490703 H 86.37873 97.18631 V 13.648565 12.157864 H 86.37873 75.571138 Z"
       id="path12864"
       style="stroke-width:0.024845" />
    <path
       d="m 46.50246,16.605124 c 0,1.068336 0.124222,1.614926 0.472055,2.037292 l 0.472056,0.59628 h 10.981497 10.981496 l 0.472056,-0.59628 c 0.347833,-0.422366 0.472068,-0.968956 0.472068,-2.037292 0,-1.291942 -0.04967,-1.465856 -0.496915,-1.465856 -0.447209,0 -0.496891,0.173914 -0.496891,1.366475 0,1.068336 -0.09934,1.391321 -0.472056,1.614927 -0.322986,0.149071 -4.049739,0.24845 -10.459758,0.24845 -6.410019,0 -10.136772,-0.09938 -10.459759,-0.24845 -0.372668,-0.223606 -0.472056,-0.546591 -0.472056,-1.614927 0,-1.192561 -0.04967,-1.366475 -0.496891,-1.366475 -0.447209,0 -0.496902,0.173914 -0.496902,1.465856 z"
       id="path12882"
       style="stroke-width:0.024845" />
    <path
       d="m 3.5205624,20.853622 c -0.3975152,0.397521 -0.4969028,0.819887 -0.4969028,1.987603 0,1.316786 0.04967,1.490701 0.4969028,1.490701 0.3975152,0 0.4720559,-0.19876 0.5465965,-1.441011 l 0.074506,-1.416166 h 10.8075911 10.80758 l 0.0745,1.416166 c 0.07451,1.242251 0.14907,1.441011 0.546585,1.441011 0.447209,0 0.496903,-0.173915 0.496903,-1.490701 0,-2.658418 0.795042,-2.484502 -11.925608,-2.484502 -10.6088276,0 -10.9566607,0.02485 -11.4287166,0.496899 z"
       id="path12892"
       style="stroke-width:0.024845" />
    <path
       d="m 7.2473157,26.071078 v 1.490702 h 7.7019633 7.701952 V 26.071078 24.580377 H 14.949279 7.2473157 Z"
       id="path12906"
       style="stroke-width:0.024845" />
    <path
       d="m 32.092337,26.071078 v 1.490702 h 4.596336 4.596337 v -1.490702 -1.490701 h -4.596337 -4.596336 z"
       id="path12908"
       style="stroke-width:0.024845" />
    <path
       d="M 50.726104,26.071078 V 27.56178 H 61.533696 72.341287 V 26.071078 24.580377 H 61.533696 50.726104 Z"
       id="path12910"
       style="stroke-width:0.024845" />
    <path
       d="m 81.782393,26.071078 v 1.490702 h 7.701964 7.701953 v -1.490702 -1.490701 h -7.701953 -7.701964 z"
       id="path12912"
       style="stroke-width:0.024845" />
    <path
       d="m 3.0236596,29.027636 c 0,1.068336 0.1242228,1.614928 0.4720559,2.037293 l 0.4720559,0.59628 H 14.949279 25.930776 l 0.472055,-0.59628 c 0.347834,-0.422365 0.472056,-0.968957 0.472056,-2.037293 0,-1.291941 -0.04967,-1.465856 -0.496902,-1.465856 -0.447209,0 -0.496903,0.173915 -0.496903,1.366477 0,1.068335 -0.09934,1.39132 -0.472045,1.614926 -0.322986,0.14907 -4.049739,0.24845 -10.459758,0.24845 -6.4100184,0 -10.1367717,-0.09938 -10.459758,-0.24845 -0.37268,-0.223606 -0.4720558,-0.546591 -0.4720558,-1.614926 0,-1.192562 -0.04967,-1.366477 -0.4969028,-1.366477 -0.447209,0 -0.4969028,0.173915 -0.4969028,1.465856 z"
       id="path12914"
       style="stroke-width:0.024845" />
    <path
       d="m 7.2473157,38.493591 v 1.490702 h 3.1056273 3.105628 V 38.493591 37.00289 H 10.352943 7.2473157 Z"
       id="path12934"
       style="stroke-width:0.024845" />
    <path
       d="m 22.651231,38.493591 v 1.490702 h 4.720559 4.720547 V 38.493591 37.00289 H 27.37179 22.651231 Z"
       id="path12936"
       style="stroke-width:0.024845" />
    <path
       d="m 41.28501,38.493591 v 1.490702 H 59.918765 78.552543 V 38.493591 37.00289 H 59.918765 41.28501 Z"
       id="path12938"
       style="stroke-width:0.024845" />
    <path
       d="m 87.993649,38.493591 v 1.490702 h 4.596324 4.596337 V 38.493591 37.00289 h -4.596337 -4.596324 z"
       id="path12940"
       style="stroke-width:0.024845" />
    <path
       d="m 34.576851,45.69865 c -0.397527,0.397518 -0.496903,0.819881 -0.496903,1.987601 0,1.316785 0.04967,1.490703 0.496903,1.490703 0.397515,0 0.472044,-0.198758 0.546585,-1.441011 l 0.07451,-1.41617 h 10.807587 10.807592 l 0.07451,1.41617 c 0.07451,1.242253 0.149069,1.441011 0.546585,1.441011 0.447209,0 0.496902,-0.173918 0.496902,-1.490703 0,-2.658418 0.795043,-2.484502 -11.925608,-2.484502 -10.608828,0 -10.956661,0.02485 -11.428705,0.496901 z"
       id="path12948"
       style="stroke-width:0.024845" />
    <path
       d="m 7.2473157,50.791877 v 1.61493 h 10.8075913 10.80758 v -1.61493 -1.614923 H 18.054907 7.2473157 Z"
       id="path12954"
       style="stroke-width:0.024845" />
    <path
       d="m 38.303593,50.791877 v 1.61493 h 7.701964 7.701964 v -1.61493 -1.614923 h -7.701964 -7.701964 z"
       id="path12956"
       style="stroke-width:0.024845" />
    <path
       d="m 63.148627,50.791877 v 1.61493 H 80.167462 97.18631 v -1.61493 -1.614923 H 80.167462 63.148627 Z"
       id="path12958"
       style="stroke-width:0.024845" />
    <path
       d="m 34.079948,53.872664 c 0,1.068334 0.124223,1.614923 0.472056,2.037293 l 0.472056,0.596277 h 10.981497 10.981496 l 0.472056,-0.596277 c 0.347833,-0.42237 0.472056,-0.968959 0.472056,-2.037293 0,-1.291945 -0.04967,-1.465857 -0.496903,-1.465857 -0.397515,0 -0.472044,0.198759 -0.546585,1.416165 l -0.07451,1.441009 H 46.00558 35.197988 l -0.07451,-1.441009 c -0.07451,-1.217406 -0.14907,-1.416165 -0.546585,-1.416165 -0.447209,0 -0.496903,0.173912 -0.496903,1.465857 z"
       id="path12968"
       style="stroke-width:0.024845" />
    <path
       d="M 7.2473157,63.214391 V 64.82932 H 36.688673 66.130032 V 63.214391 61.599468 H 36.688673 7.2473157 Z"
       id="path12974"
       style="stroke-width:0.024845" />
    <path
       d="M 75.571138,63.214391 V 64.82932 H 86.37873 97.18631 V 63.214391 61.599468 H 86.37873 75.571138 Z"
       id="path12976"
       style="stroke-width:0.024845" />
    <path
       d="m 30.104738,89.674344 v 5.21745 h 1.118028 1.118029 v -2.236045 -2.236056 h 2.360279 2.360268 V 89.550121 88.68055 h -2.385115 -2.360279 l 0.0745,-1.192569 0.07451,-1.16771 2.559043,-0.07451 2.534184,-0.0745 V 85.326524 84.456941 H 33.831433 30.10468 Z"
       id="path13066"
       style="stroke-width:0.024845" />
    <path
       d="m 39.048953,85.326465 c 0,0.844736 0.02483,0.869583 0.993794,0.869583 0.968958,0 0.993805,-0.02483 0.993805,-0.869583 0,-0.844736 -0.02483,-0.869582 -0.993805,-0.869582 -0.968947,0 -0.993794,0.02484 -0.993794,0.869582 z"
       id="path13068"
       style="stroke-width:0.024845" />
    <path
       d="m 50.974561,89.674344 v 5.21745 h 0.993806 0.993794 v -5.21745 -5.217461 h -0.993794 -0.993806 z"
       id="path13070"
       style="stroke-width:0.024845" />
    <path
       d="m 59.918765,86.196048 v 1.739142 l -0.795031,-0.496891 c -1.068334,-0.645972 -1.91307,-0.621137 -2.956558,0.07451 -1.118028,0.74536 -1.714307,1.987599 -1.714307,3.60253 0,3.105628 2.385126,4.919311 4.670865,3.52799 0.645973,-0.397515 0.795031,-0.422362 0.795031,-0.124222 0,0.273292 0.273304,0.372668 0.993805,0.372668 h 0.993806 v -5.21745 -5.217462 H 60.91257 59.918765 Z m -0.521738,3.105616 c 0.198763,0.198764 0.397515,0.869583 0.447209,1.540391 0.09934,0.96897 0.02484,1.316791 -0.422363,1.863388 -1.441014,1.863377 -3.552848,-0.173917 -2.732959,-2.658419 0.422362,-1.316792 1.739154,-1.664625 2.708113,-0.74536 z"
       id="path13072"
       style="stroke-width:0.024845" />
    <path
       d="m 44.390626,87.438299 c -0.571432,0.273281 -1.217405,0.844724 -1.490697,1.291933 -0.596279,1.043488 -0.621126,3.478308 -0.04967,4.596337 0.770195,1.441002 3.304391,2.260891 4.720558,1.540378 0.795043,-0.422362 1.913059,-1.515543 1.913059,-1.888212 0,-0.472055 -1.838518,-0.422362 -2.236045,0.04967 -0.720501,0.869571 -2.732948,0.173916 -2.732948,-0.944112 0,-0.372668 0.347833,-0.422362 2.633561,-0.422362 h 2.65843 l -0.173916,-1.16771 C 49.434194,88.978665 48.813069,87.98486 47.744734,87.413428 46.626706,86.817149 45.6329,86.817149 44.390649,87.438268 Z m 2.658418,1.664613 c 0.844736,0.770196 0.571444,1.068335 -1.043487,1.068335 -0.819889,0 -1.490697,-0.07451 -1.490697,-0.198763 0,-0.09934 0.173905,-0.447209 0.397515,-0.745349 0.447209,-0.645972 1.490697,-0.720513 2.136669,-0.124223 z"
       id="path13324"
       style="stroke-width:0.024845" />
    <path
       d="m 65.459212,87.214689 c -1.664613,0.472056 -2.385126,2.583878 -1.242251,3.627366 0.29814,0.298151 1.217405,0.720513 2.037294,0.944123 0.819877,0.248446 1.664613,0.596279 1.863376,0.795042 0.322986,0.322975 0.322986,0.397515 -0.09934,0.720502 -0.720513,0.521749 -1.590084,0.422362 -2.28575,-0.273293 -0.770195,-0.795042 -2.335433,-0.894429 -2.335433,-0.149081 0,0.720513 0.919265,1.689472 1.913071,2.037293 0.521738,0.173917 1.465861,0.22361 2.28575,0.149081 1.142864,-0.124234 1.515532,-0.273304 2.086976,-0.919276 1.465861,-1.639766 0.521738,-3.37892 -2.186363,-4.000046 -1.664625,-0.37268 -2.186363,-0.869583 -1.490697,-1.391321 0.571432,-0.397515 1.590084,-0.248457 2.012446,0.322987 0.347822,0.447209 2.086976,0.472055 2.086976,0.02484 0,-0.571432 -0.795042,-1.465862 -1.639767,-1.813683 -0.919265,-0.397527 -1.838541,-0.422374 -3.006252,-0.07451 z"
       id="path13326"
       style="stroke-width:0.024845" />
    <path
       d="m 39.048953,91.04083 v 3.850964 h 0.993794 0.993805 V 91.04083 87.189842 h -0.993805 -0.993794 z"
       id="path13406"
       style="stroke-width:0.024845" />
  </g>
</svg>
