<?xml version="1.0" encoding="UTF-8" standalone="no"?>
<!-- Created with Inkscape (http://www.inkscape.org/) -->

<svg
   width="100mm"
   height="100mm"
   viewBox="0 0 100 100"
   version="1.1"
   id="svg26768"
   xmlns="http://www.w3.org/2000/svg"
   xmlns:svg="http://www.w3.org/2000/svg">
  <defs
     id="defs26765" />
  <path
     d="m 17.621514,1.1023542 c -0.270625,0.058001 -0.676561,0.231961 -0.927855,0.3866062 -1.082496,0.7152117 -1.024505,-1.50776668 -1.024505,35.8576846 0,33.750682 0.01933,34.485232 0.367276,35.026481 0.212632,0.309285 0.579908,0.676559 0.831202,0.811871 0.347945,0.212634 5.934398,0.251294 27.835615,0.270624 h 27.37169 l 0.599238,-0.502588 c 0.328615,-0.270622 0.676561,-0.811871 0.792543,-1.198477 0.135316,-0.483258 0.193303,-4.310654 0.154642,-11.540182 L 73.56337,49.389409 h -1.159818 -1.159817 l -0.05799,10.863625 -0.03866,10.882953 H 44.567935 17.988788 V 37.307988 3.4799778 H 36.15926 54.329732 v 7.8480962 7.848097 l 0.560577,0.56058 0.560579,0.56058 h 7.848098 7.848096 v 1.256463 1.256463 h 1.2758 1.275798 L 73.62136,21.012543 C 73.466722,17.881036 73.679351,18.151669 65.193357,9.6270044 58.62106,3.0353711 57.596555,2.0881985 56.572049,1.6049339 L 55.392901,1.0636826 36.739173,1.044395 C 26.47479,1.0251074 17.872812,1.0636826 17.621518,1.1023956 Z m 45.986755,10.2063908 6.668951,6.668949 h -6.823592 -6.804262 v -6.668949 c 0,-3.6727581 0.05799,-6.6689487 0.154642,-6.6689487 0.07732,0 3.131507,2.9961906 6.804261,6.6689487 z"
     id="path1470"
     style="stroke-width:0.0193303" />
  <path
     d="m 43.408118,28.802653 1.140487,1.159818 H 67.512989 90.477371 V 28.802653 27.642834 H 66.372502 42.267631 Z"
     id="path1518"
     style="stroke-width:0.0193303" />
  <path
     d="m 42.344953,34.93035 c 0,0.07729 0.502586,0.63791 1.101826,1.256477 l 1.101826,1.121161 H 67.512989 90.477371 V 36.051511 34.795048 H 66.411163 c -13.241248,0 -24.06621,0.058 -24.06621,0.135288 z"
     id="path1546"
     style="stroke-width:0.0193303" />
  <path
     d="m 43.408118,43.300369 1.140487,1.159818 H 67.512989 90.477371 V 43.300369 42.140551 H 66.372502 42.267631 Z"
     id="path1552"
     style="stroke-width:0.0193303" />
  <path
     d="m 28.620447,92.979213 v 4.059361 h 0.869864 0.869862 v -1.739726 -1.739725 h 1.836378 1.836378 v -0.676561 -0.676561 h -1.855708 -1.836378 l 0.05799,-0.927853 0.05799,-0.908523 1.99102,-0.05799 1.971688,-0.05799 v -0.65723 -0.676561 h -2.899543 -2.899543 z"
     id="path1596"
     style="stroke-width:0.0193303" />
  <path
     d="m 35.579351,89.596413 c 0,0.65723 0.01933,0.67656 0.773212,0.67656 0.753881,0 0.773212,-0.01933 0.773212,-0.67656 0,-0.65723 -0.01933,-0.676561 -0.773212,-0.676561 -0.753882,0 -0.773212,0.01933 -0.773212,0.676561 z"
     id="path1598"
     style="stroke-width:0.0193303" />
  <path
     d="m 38.672197,92.979213 v 4.059361 h 0.773212 0.773211 v -4.059361 -4.059361 h -0.773211 -0.773212 z"
     id="path1600"
     style="stroke-width:0.0193303" />
  <path
     d="m 51.236885,92.979213 v 4.059361 h 0.773211 0.773213 v -4.059361 -4.059361 h -0.773213 -0.773211 z"
     id="path1602"
     style="stroke-width:0.0193303" />
  <path
     d="m 75.206443,90.272973 c 0,0.637899 -0.05799,0.773211 -0.386605,0.773211 -0.309285,0 -0.386606,0.135316 -0.386606,0.579909 0,0.444597 0.07731,0.579908 0.386606,0.579908 0.367274,0 0.386605,0.135316 0.386605,2.107002 0,2.512937 0.115987,2.725571 1.565753,2.725571 0.927855,0 0.947185,-0.01933 0.947185,-0.579908 0,-0.483258 -0.07732,-0.579909 -0.483258,-0.579909 -0.483256,0 -0.483256,0 -0.483256,-1.836378 0,-1.836378 0,-1.836378 0.483256,-1.836378 0.405937,0 0.483258,-0.09664 0.483258,-0.579908 0,-0.483257 -0.07732,-0.579909 -0.483258,-0.579909 -0.425265,0 -0.483256,-0.07732 -0.483256,-0.773211 v -0.773212 h -0.773212 -0.773212 z"
     id="path1706"
     style="stroke-width:0.0193303" />
  <path
     d="m 42.82821,91.239487 c -0.444597,0.212634 -0.947185,0.657231 -1.159818,1.005176 -0.463926,0.811872 -0.483258,2.70624 -0.03866,3.576103 0.599239,1.121156 2.570928,1.759056 3.672754,1.198477 0.61857,-0.328615 1.488432,-1.179147 1.488432,-1.469101 0,-0.367276 -1.430441,-0.328616 -1.739726,0.03866 -0.560577,0.676561 -2.126331,0.135317 -2.126331,-0.73455 0,-0.289955 0.270624,-0.328615 2.04901,-0.328615 h 2.068341 l -0.135314,-0.908528 c -0.154642,-1.179147 -0.637899,-1.952358 -1.469102,-2.396955 -0.869862,-0.463927 -1.643075,-0.463927 -2.609589,0.01933 z m 2.06834,1.295129 c 0.657231,0.59924 0.444597,0.831204 -0.811871,0.831204 -0.6379,0 -1.159817,-0.05799 -1.159817,-0.154643 0,-0.07732 0.135316,-0.347945 0.309283,-0.579909 0.347946,-0.502588 1.159819,-0.560578 1.662405,-0.09665 z"
     id="path1736"
     style="stroke-width:0.0193303" />
  <path
     d="m 56.610705,91.200827 c -0.579909,0.309285 -0.73455,0.328615 -0.73455,0.115987 0,-0.193303 -0.231964,-0.270624 -0.773212,-0.270624 h -0.773211 v 2.996194 2.996195 h 0.773211 0.773212 v -2.029681 c 0,-1.797715 0.03866,-2.06834 0.405936,-2.435615 0.521917,-0.521917 1.353119,-0.425266 1.662404,0.212633 0.154642,0.289954 0.251294,1.237138 0.251294,2.358296 v 1.894367 h 0.773212 0.773211 v -2.319635 c 0,-1.256467 -0.09664,-2.512937 -0.212633,-2.76423 -0.444596,-0.966515 -1.817048,-1.314461 -2.918874,-0.753882 z"
     id="path1738"
     style="stroke-width:0.0193303" />
  <path
     d="m 63.801573,91.065514 c -0.251294,0.09665 -0.637899,0.328616 -0.811872,0.502588 -0.328615,0.289955 -0.347946,0.289955 -0.347946,-0.09664 0,-0.347946 -0.115987,-0.425267 -0.676559,-0.425267 h -0.676561 v 4.156012 4.156013 h 0.773211 0.773213 v -1.488432 c 0,-1.430441 0.01933,-1.469103 0.367275,-1.140488 0.908523,0.831203 2.66758,0.405936 3.36347,-0.792541 0.463927,-0.811873 0.502588,-2.841553 0.05799,-3.692085 -0.541247,-1.063167 -1.836376,-1.585084 -2.822222,-1.179149 z m 1.217807,1.759057 c 0.773213,0.889193 0.135317,3.054186 -0.908523,3.054186 -1.101826,0 -1.720396,-1.256469 -1.275798,-2.609589 0.367275,-1.082497 1.430441,-1.314459 2.184321,-0.444597 z"
     id="path1740"
     style="stroke-width:0.0193303" />
  <path
     d="m 35.579351,94.042379 v 2.996195 h 0.773212 0.773212 v -2.996195 -2.996195 h -0.773212 -0.773212 z"
     id="path1864"
     style="stroke-width:0.0193303" />
  <path
     d="m 68.247539,93.346489 c 0,1.275799 0.07732,2.532268 0.193303,2.822222 0.405936,1.063166 2.300305,1.275799 3.30548,0.367276 0.347945,-0.309285 0.367276,-0.309285 0.367276,0.07732 0,0.367276 0.115987,0.425267 0.77321,0.425267 h 0.773213 V 94.042375 91.04618 h -0.869864 -0.869863 v 2.087672 c 0,1.797717 -0.05799,2.145661 -0.347945,2.416285 -0.405936,0.367276 -0.869862,0.405937 -1.411111,0.135317 -0.328615,-0.193303 -0.367276,-0.425267 -0.367276,-2.416286 v -2.222984 h -0.773211 -0.773212 z"
     id="path1866"
     style="stroke-width:0.0193303" />
</svg>
