<?xml version="1.0" encoding="UTF-8" standalone="no"?>
<!-- Created with Inkscape (http://www.inkscape.org/) -->

<svg
   width="100mm"
   height="100mm"
   viewBox="0 0 100 100"
   version="1.1"
   id="svg26768"
   sodipodi:docname="firewall.svg"
   inkscape:version="1.1.1 (3bf5ae0d25, 2021-09-20)"
   xmlns:inkscape="http://www.inkscape.org/namespaces/inkscape"
   xmlns:sodipodi="http://sodipodi.sourceforge.net/DTD/sodipodi-0.dtd"
   xmlns="http://www.w3.org/2000/svg"
   xmlns:svg="http://www.w3.org/2000/svg">
  <sodipodi:namedview
     id="namedview26770"
     pagecolor="#ffffff"
     bordercolor="#666666"
     borderopacity="1.0"
     inkscape:pageshadow="2"
     inkscape:pageopacity="0.0"
     inkscape:pagecheckerboard="0"
     inkscape:document-units="mm"
     showgrid="false"
     width="209mm"
     inkscape:zoom="0.7500982"
     inkscape:cx="13.998167"
     inkscape:cy="241.96832"
     inkscape:window-width="1920"
     inkscape:window-height="1027"
     inkscape:window-x="1912"
     inkscape:window-y="-8"
     inkscape:window-maximized="1"
     inkscape:current-layer="layer1" />
  <defs
     id="defs26765" />
  <g
     inkscape:label="Layer 1"
     inkscape:groupmode="layer"
     id="layer1">
    <path
       d="M 14.264207,4.0423294 C 9.0664687,5.5458076 4.4056872,6.8774626 3.9116875,7.00633 L 2.9881227,7.242588 v 25.881301 25.859822 l 1.0309563,0.300684 c 0.5584353,0.171832 11.104255,3.178787 23.43278,6.701223 l 22.401812,6.422002 22.809911,-6.5294 c 12.521816,-3.565383 23.1106,-6.593825 23.497213,-6.701207 l 0.687302,-0.193302 V 33.145367 7.3070217 L 86.323755,4.3000686 75.777928,1.2716332 62.826543,4.9658945 49.875149,8.6601502 37.224464,5.073285 C 30.265504,3.0758075 24.380469,1.4219818 24.144203,1.3790249 23.907945,1.3360735 19.461941,2.5173733 14.264207,4.0423294 Z m 14.562258,1.3960865 c 2.727734,0.773222 5.047386,1.4820025 5.133299,1.5679141 0.08591,0.064444 -3.866083,1.2672169 -8.763124,2.6633012 L 16.28316,12.204064 11.364642,10.743546 C 8.6369031,9.9488527 6.4246439,9.2400633 6.4246439,9.1756297 c 0,-0.064444 3.8875641,-1.2457391 8.6557341,-2.6203444 4.746696,-1.3746086 8.655735,-2.4914769 8.6987,-2.5129559 0.02145,-0.021481 2.298165,0.622869 5.047387,1.3960865 z M 84.777317,6.619719 c 4.617828,1.3316495 8.419469,2.469998 8.419469,2.5344328 0,0.085914 -2.190777,0.7947009 -4.875555,1.5893942 l -4.89705,1.460518 -8.849035,-2.5129549 C 69.699581,8.2950248 65.704632,7.0922427 65.704632,7.0278079 c 0,-0.1933099 9.944428,-2.9854785 10.309554,-2.8995647 0.171832,0.042951 4.123827,1.1598252 8.763131,2.4914758 z M 42.722896,9.3904175 c 3.715737,1.0524275 6.958952,1.9330415 7.195217,1.9330415 0.236258,0 3.415047,-0.880614 7.087828,-1.9330415 l 6.658251,-1.9115638 8.698698,2.4914769 c 4.789644,1.3531284 8.82756,2.5559104 8.977905,2.6203444 0.171823,0.08591 -6.808605,2.298174 -15.614694,4.939998 L 49.853671,22.298847 33.916807,17.509195 C 25.153683,14.888849 18.108812,12.676586 18.280635,12.63363 18.516902,12.526247 35.549157,7.5432874 35.849849,7.4788537 c 0.06444,0 3.15731,0.837649 6.873047,1.9115638 z M 10.784729,11.452326 c 2.620346,0.794694 4.832606,1.503483 4.939996,1.567917 0.08591,0.08591 0.128868,3.629825 0.107395,7.903997 l -0.06444,7.732166 -5.047386,-1.43904 -5.0473907,-1.43904 -0.064434,-7.88252 c -0.021478,-5.369565 0.021478,-7.861042 0.1718261,-7.861042 0.1288695,0 2.3840855,0.644347 5.0044336,1.417562 z m 83.485972,6.422002 v 7.818086 l -1.116863,0.343647 c -6.379046,1.84713 -9.192692,2.598867 -9.300091,2.512955 -0.06444,-0.06444 -0.107384,-3.565391 -0.107384,-7.796608 v -7.68921 l 1.782697,-0.536957 c 0.966524,-0.300699 3.157302,-0.988003 4.875563,-1.503483 1.718262,-0.51547 3.286169,-0.966516 3.500958,-0.966516 0.343655,-0.02145 0.365125,0.494002 0.365125,7.818086 z m -60.955285,0.343647 16.065731,4.81113 v 7.603307 7.58182 L 48.801234,38.063886 C 48.156896,37.913532 20.643245,30.073977 18.194724,29.343717 L 16.734206,28.91415 v -7.839565 c 0,-6.185736 0.06444,-7.839563 0.279214,-7.753651 0.128876,0.04298 7.474438,2.255219 16.301996,4.897041 z m 49.42147,10.717653 c -0.171832,0.150346 -30.99312,8.977904 -32.024079,9.192692 l -0.472524,0.08591 0.043,-7.58182 0.06444,-7.581829 16.216086,-4.854085 16.216075,-4.854086 0.06444,7.732174 c 0.02154,4.252695 -0.02145,7.796608 -0.107384,7.861042 z m -65.143553,1.159827 11.490867,3.264691 0.06444,7.560342 c 0.04298,5.970965 0,7.56035 -0.21478,7.56035 -0.150345,-0.02154 -5.455476,-1.503474 -11.770079,-3.307656 L 5.6729128,41.887013 5.608479,34.326662 c -0.042956,-5.970947 0,-7.538863 0.214783,-7.538863 0.1503474,0.02145 5.455476,1.503481 11.77008,3.307656 z m 76.677368,4.209738 v 7.495909 l -1.116863,0.343655 c -0.622878,0.171823 -5.992434,1.718262 -11.941911,3.415038 l -10.782086,3.071397 0.04291,-7.624792 0.06444,-7.624776 11.383477,-3.264691 c 6.271647,-1.804175 11.598256,-3.286178 11.877469,-3.307656 l 0.472523,-0.02145 z m -53.609721,2.384088 9.214169,2.598866 9.579304,-2.727743 c 5.262176,-1.503475 9.708171,-2.792168 9.858517,-2.835124 0.19331,-0.08591 0.257744,1.503474 0.257744,7.517385 v 7.646263 l -1.116871,0.322179 c -0.622869,0.171823 -5.068865,1.439039 -9.858517,2.813645 L 49.853671,54.516229 40.33881,51.788495 C 35.098113,50.30649 30.630638,48.97484 30.437336,48.86745 30.072203,48.695618 30.050725,48.115714 30.050725,41.3071 c 0,-4.037906 0.06444,-7.409997 0.128867,-7.495908 0.06444,-0.06444 0.386613,-0.02154 0.687304,0.06444 0.322177,0.107384 4.725218,1.374607 9.794084,2.813654 z m -25.902772,8.677211 1.116871,0.343657 v 7.087826 c 0,6.67973 -0.02145,7.109297 -0.365133,7.023385 -0.21478,-0.06444 -2.534435,-0.730267 -5.154782,-1.460526 L 5.565513,56.986228 V 49.855445 42.74614 l 4.037912,1.138356 c 2.21226,0.644348 4.531914,1.310173 5.154783,1.481996 z m 79.469545,4.553386 -0.06444,7.044872 -4.617819,1.33165 c -2.534441,0.730259 -4.875564,1.396084 -5.197742,1.460526 l -0.601391,0.150346 v -7.109297 -7.087826 l 0.816179,-0.214788 c 0.42956,-0.128869 2.577389,-0.751738 4.768166,-1.396084 2.190785,-0.644347 4.18826,-1.159827 4.467482,-1.181305 l 0.472516,-0.02145 z M 38.89977,52.26101 49.381147,55.246488 v 7.130783 7.130783 L 48.479066,69.228833 C 47.963586,69.099964 40.618023,66.995099 32.15559,64.568056 L 16.734206,60.186485 v -7.109296 -7.109304 l 5.863566,1.653827 c 3.200259,0.902083 10.545821,3.006956 16.301998,4.639298 z m 43.987461,0.794701 v 7.152252 L 66.84298,64.782836 c -8.849045,2.534433 -16.194607,4.639306 -16.344953,4.682253 -0.214788,0.08591 -0.257744,-1.353128 -0.214788,-7.044863 l 0.06444,-7.15226 16.216085,-4.660784 c 8.913479,-2.555903 16.237562,-4.660776 16.280509,-4.682254 0.02154,-0.02145 0.043,3.200258 0.043,7.130783 z"
       id="path1479"
       style="stroke-width:0.0214783" />
    <path
       d="m 27.258549,94.014737 v 4.510446 h 0.966524 0.966516 v -1.933055 -1.933043 h 2.04044 2.040431 V 93.907353 93.15561 h -2.061909 -2.04044 l 0.06444,-1.030955 0.06444,-1.009484 2.212254,-0.06447 2.190786,-0.06447 V 90.25597 89.504227 h -3.221736 -3.221744 z"
       id="path1687"
       style="stroke-width:0.0214783" />
    <path
       d="m 34.990722,90.256044 c 0,0.730262 0.02145,0.751743 0.859127,0.751743 0.837658,0 0.859136,-0.02141 0.859136,-0.751743 0,-0.730251 -0.02145,-0.751743 -0.859136,-0.751743 -0.837648,0 -0.859127,0.02152 -0.859127,0.751743 z"
       id="path1689"
       style="stroke-width:0.0214783" />
    <path
       d="m 66.993317,94.014737 v 4.510446 h 0.859135 0.859135 v -4.510446 -4.510436 h -0.859135 -0.859135 z"
       id="path1691"
       style="stroke-width:0.0214783" />
    <path
       d="m 70.429841,94.014737 v 4.510446 h 0.859135 0.859126 v -4.510446 -4.510436 h -0.859126 -0.859135 z"
       id="path1693"
       style="stroke-width:0.0214783" />
    <path
       d="m 41.069069,91.974309 c -0.386611,0.171827 -0.708781,0.408088 -0.708781,0.536953 0,0.107406 -0.08592,0.21479 -0.21478,0.21479 -0.107395,0 -0.214788,-0.193309 -0.214788,-0.429569 0,-0.343655 -0.150345,-0.429558 -0.751737,-0.429558 h -0.751737 v 3.329124 3.329134 h 0.859127 0.859135 v -1.997487 c 0,-2.29818 0.236258,-2.813641 1.396075,-3.028431 0.70879,-0.150347 0.751747,-0.193309 0.751747,-0.988003 0,-0.945041 -0.150347,-1.009474 -1.224261,-0.536953 z"
       id="path1821"
       style="stroke-width:0.0214783" />
    <path
       d="m 44.54854,92.081693 c -0.493993,0.23626 -1.052428,0.730261 -1.288686,1.116879 -0.51548,0.902078 -0.536958,3.00695 -0.04298,3.973472 0.665825,1.245733 2.85661,1.954525 4.080863,1.331647 0.687311,-0.365125 1.653827,-1.310166 1.653827,-1.63234 0,-0.408088 -1.589394,-0.365136 -1.933041,0.04294 -0.622869,0.751732 -2.36261,0.150336 -2.36261,-0.816186 0,-0.322163 0.300692,-0.365126 2.276698,-0.365126 h 2.298175 l -0.150354,-1.009473 c -0.171823,-1.310177 -0.708781,-2.169304 -1.63235,-2.663306 -0.966517,-0.515482 -1.825651,-0.515482 -2.899558,0.02142 z m 2.298183,1.439042 c 0.73026,0.665829 0.493993,0.923571 -0.90209,0.923571 -0.708782,0 -1.288695,-0.06447 -1.288695,-0.171817 0,-0.08588 0.150345,-0.386618 0.343656,-0.644348 0.386604,-0.558445 1.288685,-0.622878 1.847129,-0.107406 z"
       id="path1823"
       style="stroke-width:0.0214783" />
    <path
       d="m 61.065325,91.952828 c -0.751745,0.322185 -1.374606,1.095398 -1.374606,1.675313 0,0.579915 1.524952,0.536942 1.890086,-0.04294 0.322168,-0.536942 1.696783,-0.601386 1.890085,-0.107406 0.214788,0.558434 -0.3007,0.902089 -1.567917,1.073917 -1.567907,0.193297 -2.427042,0.966522 -2.427042,2.190774 0.02154,1.761216 1.761218,2.555922 3.393568,1.567918 0.601391,-0.365125 0.708781,-0.386617 0.816179,-0.107406 0.08591,0.214779 0.42956,0.322174 1.116862,0.322174 0.773216,0 0.923561,-0.06446 0.730259,-0.257741 -0.171824,-0.171828 -0.257735,-1.116868 -0.257735,-2.792171 0,-2.856603 -0.150347,-3.178788 -1.653828,-3.586876 -1.073915,-0.300693 -1.739741,-0.279212 -2.555911,0.06447 z m 2.276697,4.660793 c -0.40809,0.945029 -1.739739,1.138338 -2.083387,0.279211 -0.214788,-0.579915 0.236257,-1.030965 1.24573,-1.267214 1.095393,-0.279223 1.267225,-0.06447 0.837657,0.988003 z"
       id="path1825"
       style="stroke-width:0.0214783" />
    <path
       d="m 34.990722,95.196049 v 3.329134 h 0.859127 0.859136 v -3.329134 -3.329124 h -0.859136 -0.859127 z"
       id="path1913"
       style="stroke-width:0.0214783" />
    <path
       d="m 49.595936,92.103174 c 0,0.171839 1.138349,4.38157 1.63235,6.035392 0.08591,0.300692 0.343648,0.386617 1.030959,0.386617 h 0.923561 l 0.365124,-1.847141 c 0.644356,-3.24321 0.70879,-3.200258 1.546438,1.13835 0.128869,0.665818 0.193303,0.708791 1.052437,0.708791 h 0.902083 l 0.966525,-3.329134 0.966517,-3.329124 h -0.923561 -0.902092 l -0.236256,1.116857 c -0.83765,3.973483 -0.751738,3.952002 -1.417563,0.751732 l -0.386612,-1.868589 h -0.90209 -0.902083 l -0.386603,2.147812 c -0.214788,1.181312 -0.472524,2.147822 -0.536966,2.147822 -0.08591,0 -0.279213,-0.601385 -0.408082,-1.353128 -0.558435,-2.921036 -0.579913,-2.942506 -1.52496,-2.942506 -0.472515,0 -0.859126,0.107406 -0.859126,0.236249 z"
       id="path1915"
       style="stroke-width:0.0214783" />
  </g>
</svg>
