<?xml version="1.0" encoding="UTF-8" standalone="no"?>
<!-- Created with Inkscape (http://www.inkscape.org/) -->

<svg
   width="100mm"
   height="100mm"
   viewBox="0 0 100 100"
   version="1.1"
   id="svg26768"
   sodipodi:docname="forwarders.svg"
   inkscape:version="1.1.1 (3bf5ae0d25, 2021-09-20)"
   xmlns:inkscape="http://www.inkscape.org/namespaces/inkscape"
   xmlns:sodipodi="http://sodipodi.sourceforge.net/DTD/sodipodi-0.dtd"
   xmlns="http://www.w3.org/2000/svg"
   xmlns:svg="http://www.w3.org/2000/svg">
  <sodipodi:namedview
     id="namedview26770"
     pagecolor="#ffffff"
     bordercolor="#666666"
     borderopacity="1.0"
     inkscape:pageshadow="2"
     inkscape:pageopacity="0.0"
     inkscape:pagecheckerboard="0"
     inkscape:document-units="mm"
     showgrid="false"
     width="209mm"
     inkscape:zoom="0.7500982"
     inkscape:cx="13.998167"
     inkscape:cy="135.31562"
     inkscape:window-width="1920"
     inkscape:window-height="1027"
     inkscape:window-x="1912"
     inkscape:window-y="-8"
     inkscape:window-maximized="1"
     inkscape:current-layer="layer1" />
  <defs
     id="defs26765" />
  <g
     inkscape:label="Layer 1"
     inkscape:groupmode="layer"
     id="layer1">
    <path
       d="m 30.832997,2.3793979 c -2.061342,0.7190726 -3.41959,2.4448475 -3.627323,4.618045 l -0.09588,0.9747437 -1.198454,0.1757737 c -2.109281,0.3355668 -3.659282,1.5340215 -4.346396,3.3396927 -0.319588,0.862888 -0.319588,0.990723 -0.287629,31.814977 l 0.04793,30.952091 0.431443,0.81495 c 0.559278,1.070616 1.837631,2.20515 2.892271,2.572678 0.78299,0.27165 1.997424,0.287634 23.601567,0.287634 H 71.021165 L 71.91601,77.51452 c 1.789693,-0.846909 2.94021,-2.492792 3.131962,-4.506195 l 0.09588,-1.038656 1.054641,-0.06388 c 1.837631,-0.143813 3.515465,-1.278356 4.346396,-2.972165 L 80.9284,68.18255 V 37.022728 5.8629061 L 80.496961,5.0639368 C 79.985619,4.0732143 78.851079,3.0025943 77.844377,2.5391919 L 77.093348,2.1876454 54.322709,2.1556861 C 33.933,2.1237268 31.472173,2.1397106 30.832997,2.3793979 Z m 46.452102,2.0773213 c 0.798971,0.431444 1.390209,1.1664963 1.629902,2.0453628 0.143814,0.4634024 0.17577,6.791244 0.143814,23.889197 l -0.04794,23.25002 -0.351546,0.751032 c -0.575258,1.246392 -1.853609,2.348967 -3.195879,2.764438 l -0.367529,0.09588 -0.03196,-22.57889 L 75.016027,12.09487 74.66448,11.343839 C 74.153137,10.209302 73.0186,9.0907447 71.852103,8.5634246 L 70.861382,8.1000213 49.976311,8.0520866 29.075261,8.0041518 V 7.6526054 c 0,-0.2077322 0.111856,-0.7350523 0.239692,-1.1824751 0.27165,-0.9108259 1.342269,-2.0453628 2.109281,-2.2211365 0.23969,-0.047935 0.52732,-0.111855 0.607216,-0.1438143 0.09588,-0.031959 10.162896,-0.047935 22.371154,-0.031959 l 22.21136,0.031959 z m -5.672685,6.2000058 c 0.367527,0.27165 0.846909,0.78299 1.038661,1.118558 l 0.367526,0.639176 v 23.585587 23.585588 l -0.495361,0.974747 c -0.575258,1.166493 -1.470104,1.981443 -2.652579,2.428865 -0.846908,0.319585 -1.214435,0.319585 -21.763937,0.319585 -23.489712,0 -21.715999,0.09588 -23.186104,-1.230413 -0.447422,-0.399478 -1.006701,-1.102575 -1.246392,-1.549997 l -0.431444,-0.814949 -0.04793,-23.32992 c -0.03196,-16.522695 0,-23.505691 0.127834,-23.937134 0.223712,-0.782991 1.038661,-1.693816 1.837631,-2.045363 0.607217,-0.287629 1.645878,-0.303609 23.202082,-0.255671 l 22.546928,0.03196 z m 7.302587,57.01448 c -0.351551,1.294331 -1.821653,2.348971 -3.291758,2.348971 h -0.52732 v -6.040208 -6.024233 l 0.76701,-0.27165 c 1.086601,-0.399487 2.157219,-1.150518 2.684541,-1.917525 l 0.4634,-0.655153 0.04794,5.94433 c 0.01599,4.01083 -0.01599,6.18403 -0.143814,6.615468 z M 24.441239,62.573783 c 0.367526,0.335569 1.006702,0.767007 1.422166,0.958763 l 0.735052,0.335568 21.236617,0.04793 c 23.409814,0.04794 21.907751,0.09588 23.489712,-0.942778 0.399484,-0.27165 0.942784,-0.782991 1.214433,-1.150519 l 0.479382,-0.655161 v 6.200013 c 0,5.385055 -0.03196,6.247939 -0.25567,6.695361 -0.367526,0.719072 -0.846908,1.214437 -1.534022,1.565981 -0.575258,0.287634 -1.29433,0.303609 -23.106206,0.303609 H 25.607735 l -0.703093,-0.367522 c -0.383506,-0.207732 -0.910826,-0.687113 -1.182475,-1.054641 l -0.479383,-0.687112 -0.04793,-6.407736 c -0.03196,-6.327842 -0.03196,-6.42372 0.25567,-5.944339 0.159793,0.255674 0.607217,0.751031 0.990723,1.102583 z"
       id="path2435"
       style="stroke-width:0.0159794" />
    <path
       d="m 51.238686,20.356218 c 0.175773,0.207733 3.515466,3.898973 7.414439,8.21341 3.898972,4.298457 7.222687,7.989697 7.38248,8.165471 0.303609,0.335567 0.27165,0.383506 -6.935057,8.309286 -3.96289,4.378354 -7.446398,8.197429 -7.718048,8.485059 l -0.495362,0.52732 1.390208,-0.04794 1.374228,-0.04793 7.68609,-8.453101 7.686089,-8.469079 -0.367527,-0.399485 c -0.207732,-0.223712 -3.643302,-4.010828 -7.622172,-8.405162 -3.994848,-4.394334 -7.334542,-8.037636 -7.430418,-8.101554 -0.07989,-0.06392 -0.735052,-0.127835 -1.422166,-0.127835 h -1.262373 z"
       id="path2437"
       style="stroke-width:0.0159794" />
    <path
       d="m 34.188671,25.038181 1.022681,1.038661 h 7.957739 7.957739 v -1.038661 -1.03866 h -8.98042 -8.980421 z"
       id="path2439"
       style="stroke-width:0.0159794" />
    <path
       d="m 28.196396,31.030455 0.942785,0.958763 H 42.13043 55.121678 V 31.030455 30.071691 H 41.187646 27.253613 Z"
       id="path2441"
       style="stroke-width:0.0159794" />
    <path
       d="m 34.188671,37.022728 1.022681,1.038661 H 48.122703 61.034054 V 37.022728 35.984067 H 47.100022 33.165989 Z"
       id="path2443"
       style="stroke-width:0.0159794" />
    <path
       d="m 30.113925,43.015002 0.942784,0.958763 H 44.047957 57.039206 V 43.015002 42.056238 H 43.105173 29.17114 Z"
       id="path2445"
       style="stroke-width:0.0159794" />
    <path
       d="m 35.307228,48.08047 c 0,0.06392 0.415464,0.52732 0.910826,1.03866 l 0.910825,0.926805 h 6.998976 6.998975 v -1.038661 -1.03866 h -7.909801 c -4.346395,0 -7.909801,0.04793 -7.909801,0.111856 z"
       id="path2447"
       style="stroke-width:0.0159794" />
    <path
       d="m 28.64382,68.054716 c -0.495362,0.09588 -1.294331,0.878869 -1.422166,1.390209 -0.159794,0.687113 0.06392,1.438144 0.607217,1.949484 0.447423,0.415463 0.463403,0.415463 0.239691,0.06388 -0.623197,-0.926811 -0.03196,-2.077321 1.086599,-2.077321 1.022681,0 1.597939,0.974738 1.118558,1.9335 l -0.27165,0.5433 0.495361,-0.479381 c 1.166496,-1.134535 0.575258,-3.052059 -1.022681,-3.307734 -0.27165,-0.04794 -0.639176,-0.04794 -0.830929,-0.01595 z"
       id="path2449"
       style="stroke-width:0.0159794" />
    <path
       d="m 26.358767,93.98927 v 3.355677 h 0.719072 0.719073 v -1.438144 -1.438152 h 1.518043 1.518042 v -0.559275 -0.559275 h -1.534022 -1.518043 l 0.04794,-0.767015 0.04794,-0.751032 1.645878,-0.04793 1.629898,-0.04793 v -0.5433 -0.559275 h -2.39691 -2.396909 z"
       id="path2517"
       style="stroke-width:0.0159794" />
    <path
       d="m 60.554673,91.75216 v 1.118551 l -0.51134,-0.319585 c -0.687115,-0.415462 -1.230414,-0.399487 -1.901549,0.04793 -0.719073,0.47939 -1.102578,1.278355 -1.102578,2.31702 0,1.997419 1.534022,3.163921 3.004127,2.269069 0.415463,-0.255666 0.51134,-0.27165 0.51134,-0.07992 0,0.175772 0.175773,0.23969 0.639175,0.23969 h 0.639176 V 93.989239 90.63357 h -0.639176 -0.639175 z m -0.335568,1.997419 c 0.127836,0.127837 0.255671,0.559284 0.287629,0.990722 0.06392,0.623202 0.01598,0.846909 -0.271649,1.198461 -0.926805,1.198453 -2.285053,-0.111861 -1.757734,-1.709793 0.271651,-0.846918 1.118558,-1.070624 1.741754,-0.47939 z"
       id="path2519"
       style="stroke-width:0.0159794" />
    <path
       d="m 32.910319,92.503191 c -0.687115,0.351544 -1.278352,1.45412 -1.278352,2.364947 0,0.351553 0.159794,0.974746 0.367526,1.35825 0.463403,0.942787 1.166496,1.310315 2.317012,1.230412 1.454125,-0.111853 2.317013,-1.070616 2.317013,-2.588662 0,-1.518037 -0.862888,-2.476808 -2.317013,-2.588662 -0.607216,-0.04793 -1.006701,0.01595 -1.406186,0.223715 z m 2.061342,1.262372 c 0.767011,0.974738 0.223711,2.620621 -0.862888,2.620621 -0.591237,0 -0.830928,-0.223715 -1.03866,-0.974746 -0.191753,-0.639178 0.04793,-1.661859 0.447423,-1.885566 0.511341,-0.303609 1.102578,-0.191755 1.454125,0.239691 z"
       id="path2625"
       style="stroke-width:0.0159794" />
    <path
       d="m 39.669603,92.471232 c -0.287629,0.127829 -0.527319,0.303609 -0.527319,0.399479 0,0.07992 -0.06392,0.159796 -0.159794,0.159796 -0.0799,0 -0.159794,-0.143812 -0.159794,-0.319584 0,-0.255675 -0.111856,-0.319593 -0.559279,-0.319593 h -0.55928 v 2.476808 2.476809 h 0.639176 0.639177 V 95.85886 c 0,-1.709794 0.175772,-2.093297 1.03866,-2.253093 0.52732,-0.111854 0.559279,-0.143813 0.559279,-0.735056 0,-0.703088 -0.111856,-0.751023 -0.910826,-0.399479 z"
       id="path2627"
       style="stroke-width:0.0159794" />
    <path
       d="m 49.433013,92.455248 c -0.559278,0.239691 -1.022681,0.81495 -1.022681,1.246396 0,0.431447 1.134537,0.399488 1.406187,-0.03198 0.239691,-0.399487 1.262372,-0.447422 1.406187,-0.07992 0.159794,0.415471 -0.223712,0.671138 -1.166496,0.798975 -1.166496,0.143812 -1.805672,0.719072 -1.805672,1.629899 0.01598,1.310307 1.310311,1.90155 2.524744,1.166494 0.447424,-0.27165 0.52732,-0.287634 0.607218,-0.07992 0.06392,0.159788 0.319588,0.23969 0.830928,0.23969 0.575259,0 0.687115,-0.04793 0.543299,-0.191756 -0.127834,-0.127828 -0.191752,-0.830925 -0.191752,-2.077321 0,-2.125256 -0.111856,-2.364947 -1.230413,-2.668556 -0.79897,-0.223715 -1.294331,-0.207731 -1.901549,0.04794 z m 1.693817,3.467531 c -0.303609,0.703096 -1.294332,0.846909 -1.550002,0.207731 -0.159794,-0.431438 0.175774,-0.767007 0.926805,-0.942787 0.814949,-0.207731 0.942785,-0.04793 0.623197,0.735056 z"
       id="path2629"
       style="stroke-width:0.0159794" />
    <path
       d="m 55.648998,92.471232 c -0.287629,0.127829 -0.52732,0.303609 -0.52732,0.399479 0,0.07992 -0.06392,0.159796 -0.159794,0.159796 -0.07989,0 -0.159794,-0.143812 -0.159794,-0.319584 0,-0.255675 -0.111855,-0.319593 -0.559278,-0.319593 h -0.55928 v 2.476808 2.476809 h 0.639177 0.639175 V 95.85886 c 0,-1.709794 0.175774,-2.093297 1.038661,-2.253093 0.52732,-0.111854 0.559279,-0.143813 0.559279,-0.735056 0,-0.703088 -0.111856,-0.751023 -0.910826,-0.399479 z"
       id="path2631"
       style="stroke-width:0.0159794" />
    <path
       d="m 63.990243,92.551126 c -0.367526,0.175772 -0.78299,0.5433 -0.958764,0.830925 -0.383506,0.671137 -0.399485,2.237118 -0.03196,2.95619 0.495362,0.926803 2.12526,1.454128 3.036085,0.990722 0.511341,-0.27165 1.230413,-0.974738 1.230413,-1.214429 0,-0.303609 -1.182475,-0.27165 -1.438145,0.03199 -0.463402,0.559275 -1.757733,0.111853 -1.757733,-0.607218 0,-0.239691 0.223711,-0.27165 1.693815,-0.27165 h 1.709796 l -0.111854,-0.751048 c -0.127835,-0.974747 -0.52732,-1.613924 -1.214434,-1.981444 -0.719073,-0.383511 -1.358248,-0.383511 -2.157218,0.01595 z m 1.709795,1.070624 c 0.543299,0.495357 0.367527,0.687113 -0.671134,0.687113 -0.52732,0 -0.958764,-0.04793 -0.958764,-0.127837 0,-0.06388 0.111856,-0.287634 0.25567,-0.479382 0.28763,-0.415462 0.958764,-0.463405 1.374228,-0.07992 z"
       id="path2633"
       style="stroke-width:0.0159794" />
    <path
       d="m 70.190248,92.471232 c -0.287629,0.127829 -0.52732,0.303609 -0.52732,0.399479 0,0.07992 -0.06392,0.159796 -0.159793,0.159796 -0.07989,0 -0.159794,-0.143812 -0.159794,-0.319584 0,-0.255675 -0.111856,-0.319593 -0.559279,-0.319593 h -0.559279 v 2.476808 2.476809 h 0.639176 0.639176 V 95.85886 c 0,-1.709794 0.175772,-2.093297 1.03866,-2.253093 0.52732,-0.111854 0.559279,-0.143813 0.559279,-0.735056 0,-0.703088 -0.111856,-0.751023 -0.910826,-0.399479 z"
       id="path2635"
       style="stroke-width:0.0159794" />
    <path
       d="m 72.906745,92.407314 c -1.070619,0.303609 -1.534021,1.661858 -0.798969,2.332987 0.191753,0.191756 0.782991,0.463406 1.310311,0.607218 0.527319,0.159797 1.070619,0.383512 1.198454,0.511341 0.207732,0.207731 0.207732,0.255674 -0.06392,0.463406 -0.463403,0.335568 -1.022682,0.27165 -1.470105,-0.175772 -0.495361,-0.511341 -1.502063,-0.575259 -1.502063,-0.09588 0,0.463406 0.591238,1.086599 1.230413,1.310306 0.335567,0.111853 0.942785,0.143821 1.470105,0.09588 0.735052,-0.07992 0.974743,-0.175772 1.342269,-0.591235 0.942784,-1.05464 0.335568,-2.173199 -1.406187,-2.572686 -1.07062,-0.239691 -1.406187,-0.559275 -0.958763,-0.894844 0.367526,-0.255666 1.022681,-0.159796 1.294331,0.207732 0.223711,0.287625 1.342269,0.303609 1.342269,0.01603 0,-0.367528 -0.51134,-0.942787 -1.05464,-1.166502 -0.591238,-0.255666 -1.182475,-0.27165 -1.933507,-0.04794 z"
       id="path2637"
       style="stroke-width:0.0159794" />
    <path
       d="m 40.900016,92.56711 c 0,0.127829 0.846909,3.259791 1.214435,4.490203 0.06392,0.223715 0.25567,0.287634 0.767011,0.287634 h 0.687114 l 0.271649,-1.374234 c 0.479382,-2.412881 0.52732,-2.38093 1.150517,0.846918 0.09588,0.495356 0.143814,0.527316 0.78299,0.527316 h 0.671135 l 0.719072,-2.476809 0.719073,-2.476808 h -0.687113 -0.671135 l -0.175773,0.830933 c -0.623197,2.956182 -0.559279,2.940206 -1.054641,0.559276 L 45.006721,92.39133 h -0.671134 -0.671135 l -0.287629,1.59794 c -0.159794,0.878868 -0.351547,1.59794 -0.399485,1.59794 -0.06392,0 -0.207732,-0.447422 -0.303608,-1.006697 -0.415464,-2.173199 -0.431444,-2.189183 -1.134537,-2.189183 -0.351547,0 -0.639177,0.07992 -0.639177,0.17578 z"
       id="path2771"
       style="stroke-width:0.0159794" />
  </g>
</svg>
