<?xml version="1.0" encoding="UTF-8" standalone="no"?>
<!-- Created with Inkscape (http://www.inkscape.org/) -->

<svg
   width="100mm"
   height="100mm"
   viewBox="0 0 100 100"
   version="1.1"
   id="svg26768"
   sodipodi:docname="forwarder.svg"
   inkscape:version="1.1.1 (3bf5ae0d25, 2021-09-20)"
   xmlns:inkscape="http://www.inkscape.org/namespaces/inkscape"
   xmlns:sodipodi="http://sodipodi.sourceforge.net/DTD/sodipodi-0.dtd"
   xmlns="http://www.w3.org/2000/svg"
   xmlns:svg="http://www.w3.org/2000/svg">
  <sodipodi:namedview
     id="namedview26770"
     pagecolor="#ffffff"
     bordercolor="#666666"
     borderopacity="1.0"
     inkscape:pageshadow="2"
     inkscape:pageopacity="0.0"
     inkscape:pagecheckerboard="0"
     inkscape:document-units="mm"
     showgrid="false"
     width="209mm"
     inkscape:zoom="0.7500982"
     inkscape:cx="13.998167"
     inkscape:cy="135.31562"
     inkscape:window-width="1920"
     inkscape:window-height="1027"
     inkscape:window-x="1912"
     inkscape:window-y="-8"
     inkscape:window-maximized="1"
     inkscape:current-layer="layer1" />
  <defs
     id="defs26765" />
  <g
     inkscape:label="Layer 1"
     inkscape:groupmode="layer"
     id="layer1">
    <path
       d="m 25.472145,1.6046973 c -1.63439,0.5216111 -3.094902,1.8951951 -3.703452,3.5295752 -0.347734,0.9389018 -0.347734,1.078005 -0.312961,34.5307455 l 0.05218,33.591834 0.469456,0.869355 c 0.573775,1.112779 1.54745,2.086454 2.66022,2.660221 l 0.869355,0.469456 h 25.211265 25.211264 l 0.869355,-0.469456 c 1.147549,-0.591158 2.38203,-1.929969 2.79932,-3.007964 C 79.911109,72.9265 79.9285,72.00498 79.9285,39.26511 V 5.6211101 L 79.545981,4.80392 C 79.02437,3.6563776 77.946374,2.5609905 76.764049,1.9524412 L 75.7556,1.448212 50.979008,1.4134292 C 30.931708,1.3960377 26.063322,1.4308206 25.472164,1.6046878 Z M 75.02532,3.6042127 c 0.938911,0.2260321 1.895196,0.9389018 2.399424,1.8082568 l 0.417291,0.7302517 V 31.70173 57.260738 l -0.452074,0.973676 c -0.573766,1.23449 -1.512668,2.173392 -2.747149,2.747168 l -0.973685,0.452054 H 50.718183 27.767239 L 26.602305,60.859861 C 25.350434,60.25132 24.637564,59.52106 23.994241,58.217032 l -0.3999,-0.782417 -0.05218,-25.47208 -0.03478,-25.4546785 0.452064,-0.9389018 C 24.446286,4.577888 25.315641,3.8650183 26.32409,3.6215947 27.123898,3.4303455 74.208112,3.412954 75.025301,3.6042032 Z M 24.28982,59.973124 c 0.678096,0.851973 1.94736,1.669162 3.060129,1.964742 1.02584,0.278197 2.955808,0.295579 23.802907,0.243414 l 22.690148,-0.05218 1.095387,-0.504228 c 0.747643,-0.347735 1.390966,-0.817191 2.051671,-1.547452 l 0.956293,-1.02584 -0.05218,6.74619 c -0.05218,6.624487 -0.05218,6.780962 -0.434673,7.493832 -0.434682,0.81719 -1.23449,1.460523 -2.121226,1.773483 -0.817191,0.260806 -48.301313,0.278197 -49.29237,0 -0.869355,-0.243414 -2.05168,-1.425739 -2.329868,-2.347249 -0.295589,-1.025841 -0.295589,-13.840123 0.01739,-13.440224 0.121712,0.139103 0.365136,0.452074 0.556394,0.695488 z"
       id="path1459"
       style="stroke-width:0.0173871" />
    <path
       d="m 53.969571,14.540682 c 0.03478,0.06957 3.738226,4.19029 8.224085,9.128222 4.503259,4.955315 8.18932,9.058666 8.224084,9.145605 0.01739,0.06957 -3.686051,4.242444 -8.241466,9.249924 l -8.276259,9.11083 1.425748,0.05218 1.408348,0.05218 0.799809,-0.886737 c 0.434673,-0.486837 4.19028,-4.60758 8.328414,-9.180377 4.155516,-4.555416 7.528606,-8.345806 7.493832,-8.397962 -0.01739,-0.06957 -3.772998,-4.242444 -8.345796,-9.267315 L 56.681956,14.401621 H 55.29099 c -0.765034,0 -1.356193,0.06957 -1.321419,0.139093 z"
       id="path1461"
       style="stroke-width:0.0173871" />
    <path
       d="m 35.417557,19.791586 1.025841,1.043221 h 8.745695 8.745704 v -1.043221 -1.043223 h -9.771535 -9.771545 z"
       id="path1463"
       style="stroke-width:0.0173871" />
    <path
       d="m 28.028045,25.303284 c 0,0.06957 0.452064,0.573776 0.991067,1.130161 l 0.991057,1.008458 h 14.135702 14.135692 v -1.13016 -1.130161 H 43.154804 c -8.311022,0 -15.126759,0.05218 -15.126759,0.121702 z"
       id="path1465"
       style="stroke-width:0.0173871" />
    <path
       d="m 35.417557,32.831891 1.025841,1.043231 h 14.22263 14.222631 V 32.831891 31.788668 H 49.640188 34.391717 Z"
       id="path1467"
       style="stroke-width:0.0173871" />
    <path
       d="m 30.288366,38.343599 c 0,0.06957 0.452064,0.573766 0.991067,1.130161 l 0.991057,1.008448 h 14.153084 14.135702 l -0.05218,-1.095387 -0.05218,-1.077995 -15.074604,-0.05218 c -8.311022,-0.01739 -15.091985,0.01739 -15.091985,0.08696 z"
       id="path1469"
       style="stroke-width:0.0173871" />
    <path
       d="m 37.677878,45.872205 1.025832,1.043222 h 7.615543 7.615544 v -1.043222 -1.043222 h -8.641384 -8.641374 z"
       id="path1471"
       style="stroke-width:0.0173871" />
    <path
       d="m 28.932173,66.910572 c -1.356192,0.834572 -1.3388,2.973191 0.01739,3.668669 0.382516,0.20865 0.382516,0.20865 0.05218,-0.173867 -0.452064,-0.504229 -0.452064,-1.477904 0,-1.929969 0.173877,-0.191258 0.573776,-0.382517 0.886747,-0.452064 0.469446,-0.08696 0.643323,-0.01739 1.095387,0.417291 0.521611,0.539002 0.71287,1.460513 0.347734,1.686545 -0.08696,0.05218 -0.173867,0.191259 -0.173867,0.31297 0,0.104321 0.20865,-0.01739 0.486837,-0.278197 0.399909,-0.3999 0.469456,-0.625932 0.469456,-1.425739 0,-0.834582 -0.06957,-1.008449 -0.539002,-1.495287 -0.730261,-0.71287 -1.808257,-0.851963 -2.642838,-0.330352 z"
       id="path1473"
       style="stroke-width:0.0173871" />
    <path
       d="m 26.463212,94.903769 v 3.651287 h 0.782416 0.782417 V 96.990223 95.42538 h 1.651772 1.651772 v -0.60855 -0.608549 h -1.669154 -1.651772 l 0.05218,-0.834572 0.05218,-0.817199 1.790865,-0.05218 1.773484,-0.05218 V 91.860999 91.25245 h -2.608066 -2.608055 z"
       id="path1695"
       style="stroke-width:0.0173871" />
    <path
       d="m 63.845427,92.46958 v 1.21709 l -0.556384,-0.347744 c -0.747644,-0.452064 -1.338801,-0.434673 -2.069062,0.05218 -0.782418,0.521612 -1.199708,1.390966 -1.199708,2.521127 0,2.173383 1.669163,3.442646 3.26877,2.468962 0.452064,-0.278188 0.556384,-0.295579 0.556384,-0.08696 0,0.191259 0.191259,0.260805 0.695488,0.260805 h 0.695487 v -3.65129 -3.651287 h -0.695487 -0.695488 z m -0.365126,2.173384 c 0.139094,0.139093 0.278188,0.608548 0.312971,1.077994 0.06957,0.678097 0.01739,0.92152 -0.295579,1.304029 -1.008449,1.304037 -2.486353,-0.121702 -1.912587,-1.860413 0.29558,-0.92151 1.217099,-1.164934 1.895195,-0.52161 z"
       id="path1697"
       style="stroke-width:0.0173871" />
    <path
       d="m 33.765786,93.286771 c -0.747653,0.382517 -1.390966,1.582225 -1.390966,2.573282 0,0.382517 0.173867,1.060614 0.399899,1.477904 0.504229,1.02584 1.269254,1.425739 2.521127,1.33881 1.582225,-0.121711 2.521126,-1.164934 2.521126,-2.816714 0,-1.651772 -0.938901,-2.694994 -2.521126,-2.816706 -0.660705,-0.05218 -1.095387,0.01739 -1.53006,0.243424 z m 2.242929,1.373584 c 0.834582,1.060603 0.243424,2.851478 -0.938901,2.851478 -0.643323,0 -0.904129,-0.243423 -1.130161,-1.060613 -0.208641,-0.695478 0.05218,-1.808256 0.486838,-2.05168 0.556384,-0.330353 1.199707,-0.208641 1.582224,0.260815 z"
       id="path1827"
       style="stroke-width:0.0173871" />
    <path
       d="m 41.120515,93.251997 c -0.31297,0.139094 -0.573776,0.330353 -0.573776,0.434673 0,0.08696 -0.06957,0.173876 -0.173867,0.173876 -0.08696,0 -0.173867,-0.156484 -0.173867,-0.347743 0,-0.278197 -0.121712,-0.347744 -0.60855,-0.347744 h -0.608549 v 2.694994 2.695003 h 0.695488 0.695478 v -1.616998 c 0,-1.860422 0.191259,-2.277703 1.130161,-2.45158 0.573775,-0.121712 0.608549,-0.156486 0.608549,-0.799808 0,-0.765026 -0.121712,-0.81719 -0.991067,-0.434673 z"
       id="path1829"
       style="stroke-width:0.0173871" />
    <path
       d="m 51.744024,93.234606 c -0.60855,0.260815 -1.112779,0.886747 -1.112779,1.356202 0,0.469446 1.23449,0.434672 1.53007,-0.03478 0.260805,-0.434673 1.373575,-0.486838 1.530059,-0.08696 0.173877,0.452064 -0.243414,0.730261 -1.269254,0.869354 -1.269264,0.156486 -1.964742,0.782427 -1.964742,1.773484 0.01739,1.425739 1.425739,2.069062 2.747158,1.269254 0.486838,-0.295579 0.573777,-0.312961 0.660715,-0.08696 0.06957,0.173867 0.347734,0.260806 0.904119,0.260806 0.625941,0 0.747652,-0.05218 0.591167,-0.208641 -0.139103,-0.139104 -0.208649,-0.904138 -0.208649,-2.260331 0,-2.312476 -0.121703,-2.573282 -1.338802,-2.903643 -0.869355,-0.243414 -1.408357,-0.226032 -2.069062,0.05218 z m 1.84303,3.772999 c -0.330353,0.765034 -1.408357,0.921519 -1.686545,0.226032 -0.173876,-0.469447 0.191249,-0.834582 1.008449,-1.025841 0.886746,-0.226032 1.025839,-0.05218 0.678096,0.799809 z"
       id="path1831"
       style="stroke-width:0.0173871" />
    <path
       d="m 58.507595,93.251997 c -0.312961,0.139094 -0.573766,0.330353 -0.573766,0.434673 0,0.08696 -0.06957,0.173876 -0.173877,0.173876 -0.08696,0 -0.173867,-0.156484 -0.173867,-0.347743 0,-0.278197 -0.121712,-0.347744 -0.60855,-0.347744 h -0.608549 v 2.694994 2.695003 h 0.695488 0.695478 v -1.616998 c 0,-1.860422 0.191259,-2.277703 1.130161,-2.45158 0.573775,-0.121712 0.608549,-0.156486 0.608549,-0.799808 0,-0.765026 -0.121712,-0.81719 -0.991067,-0.434673 z"
       id="path1833"
       style="stroke-width:0.0173871" />
    <path
       d="m 67.409786,93.338926 c -0.399909,0.191259 -0.851974,0.591168 -1.043232,0.904138 -0.417282,0.730252 -0.434673,2.434189 -0.03478,3.216605 0.539002,1.008448 2.312477,1.582225 3.303543,1.077995 0.556384,-0.295579 1.338801,-1.060604 1.338801,-1.321409 0,-0.330363 -1.286636,-0.295588 -1.564833,0.03478 -0.50422,0.60855 -1.912577,0.121703 -1.912577,-0.660714 0,-0.260805 0.243423,-0.295579 1.84303,-0.295579 h 1.860412 l -0.121701,-0.817191 c -0.139094,-1.060614 -0.573776,-1.756093 -1.32142,-2.156002 -0.782416,-0.417291 -1.477904,-0.417291 -2.347259,0.01739 z m 1.860411,1.164943 c 0.591168,0.538993 0.399909,0.747643 -0.730261,0.747643 -0.573766,0 -1.043222,-0.05218 -1.043222,-0.139102 0,-0.06957 0.121711,-0.312962 0.278197,-0.521602 0.31297,-0.452073 1.043223,-0.50423 1.495286,-0.08696 z"
       id="path1835"
       style="stroke-width:0.0173871" />
    <path
       d="m 74.329841,93.251997 c -0.31297,0.139094 -0.573775,0.330353 -0.573775,0.434673 0,0.08696 -0.06957,0.173876 -0.173868,0.173876 -0.08696,0 -0.173876,-0.156484 -0.173876,-0.347743 0,-0.278197 -0.121702,-0.347744 -0.608549,-0.347744 h -0.608541 v 2.694994 2.695003 h 0.695479 0.695487 v -1.616998 c 0,-1.860422 0.191259,-2.277703 1.130161,-2.45158 0.573766,-0.121712 0.60855,-0.156486 0.60855,-0.799808 0,-0.765026 -0.121722,-0.81719 -0.991068,-0.434673 z"
       id="path1837"
       style="stroke-width:0.0173871" />
    <path
       d="m 42.285449,93.356317 c 0,0.139104 0.92152,3.546968 1.32142,4.885768 0.06957,0.243424 0.278196,0.312971 0.83458,0.312971 h 0.747644 l 0.295579,-1.495287 c 0.521611,-2.625446 0.573776,-2.590682 1.251872,0.921511 0.104321,0.539002 0.156485,0.573776 0.851964,0.573776 h 0.730261 l 0.782416,-2.695003 0.782427,-2.694994 h -0.747653 -0.730252 l -0.191258,0.904128 c -0.678096,3.216614 -0.60855,3.199223 -1.147552,0.60855 l -0.312962,-1.512678 h -0.730261 -0.730261 l -0.31296,1.73871 c -0.173877,0.956284 -0.382518,1.738709 -0.434683,1.738709 -0.06957,0 -0.226032,-0.486837 -0.330353,-1.095386 -0.452064,-2.364651 -0.469455,-2.382033 -1.23448,-2.382033 -0.382518,0 -0.695488,0.08696 -0.695488,0.191258 z"
       id="path1917"
       style="stroke-width:0.0173871" />
  </g>
</svg>
