<?xml version="1.0" encoding="UTF-8" standalone="no"?>
<!-- Created with Inkscape (http://www.inkscape.org/) -->

<svg
   width="100mm"
   height="100mm"
   viewBox="0 0 100 100"
   version="1.1"
   id="svg26768"
   sodipodi:docname="heavy forwarder.svg"
   inkscape:version="1.1.1 (3bf5ae0d25, 2021-09-20)"
   xmlns:inkscape="http://www.inkscape.org/namespaces/inkscape"
   xmlns:sodipodi="http://sodipodi.sourceforge.net/DTD/sodipodi-0.dtd"
   xmlns="http://www.w3.org/2000/svg"
   xmlns:svg="http://www.w3.org/2000/svg">
  <sodipodi:namedview
     id="namedview26770"
     pagecolor="#ffffff"
     bordercolor="#666666"
     borderopacity="1.0"
     inkscape:pageshadow="2"
     inkscape:pageopacity="0.0"
     inkscape:pagecheckerboard="0"
     inkscape:document-units="mm"
     showgrid="false"
     width="209mm"
     inkscape:zoom="0.7500982"
     inkscape:cx="13.998167"
     inkscape:cy="135.31562"
     inkscape:window-width="1920"
     inkscape:window-height="1027"
     inkscape:window-x="1912"
     inkscape:window-y="-8"
     inkscape:window-maximized="1"
     inkscape:current-layer="layer1" />
  <defs
     id="defs26765" />
  <g
     inkscape:label="Layer 1"
     inkscape:groupmode="layer"
     id="layer1">
    <path
       d="m 28.824703,1.3519176 c -0.450674,0.077703 -1.118915,0.279729 -1.476346,0.4662143 -0.94797,0.4817561 -2.051344,1.7094535 -2.439856,2.7195854 -0.31081,0.8547268 -0.31081,0.9013476 -0.27973,30.9566437 l 0.04662,30.101916 0.357431,0.668243 c 0.574999,1.087839 1.491887,1.973647 2.564179,2.455394 l 0.963512,0.45068 H 50.783408 73.0063 l 0.870267,-0.404051 c 1.118915,-0.528376 2.082426,-1.49189 2.610801,-2.610805 l 0.404053,-0.870267 V 35.214633 5.1437963 L 76.456288,4.2579883 C 75.927911,3.185695 74.622511,1.9424569 73.596838,1.5539435 72.881976,1.2742155 71.887385,1.2586749 51.249622,1.2431343 39.205747,1.2275936 29.290917,1.2742134 28.824703,1.3519176 Z M 73.581297,3.745152 c 0.357432,0.2641884 0.839187,0.7925653 1.056753,1.1655371 l 0.388512,0.6993216 v 22.7668083 22.76681 l -0.404051,0.854726 c -0.528376,1.149997 -1.181078,1.864859 -2.191209,2.424317 l -0.823645,0.450674 -20.51344,0.04662 c -23.170863,0.04662 -21.492491,0.124325 -22.937756,-1.181076 -0.435132,-0.388512 -0.96351,-1.056753 -1.196616,-1.491887 l -0.419593,-0.792564 -0.04662,-22.689107 c -0.03109,-16.084401 0,-22.8600524 0.124324,-23.279646 0.217566,-0.7614841 1.01013,-1.647291 1.787155,-1.9891815 0.590538,-0.2797291 1.60067,-0.2952697 22.564783,-0.2486478 l 21.927622,0.03109 z M 27.830112,54.36051 c 0.264188,0.217566 0.808106,0.559457 1.227698,0.761484 l 0.745944,0.37297 20.653304,0.04662 c 22.78235,0.04662 21.306003,0.09325 22.844511,-0.916886 0.388512,-0.264188 0.94797,-0.792565 1.227699,-1.181076 l 0.497294,-0.699323 0.04662,5.563494 c 0.01554,3.449987 -0.03108,5.874304 -0.124323,6.371598 -0.202026,0.932429 -0.870268,1.802694 -1.724995,2.237831 -0.574996,0.310812 -1.01013,0.310812 -22.48708,0.310812 H 28.840248 L 28.156466,66.870606 C 27.705792,66.621957 27.31728,66.248982 27.00647,65.751692 l -0.466214,-0.745946 -0.04662,-6.154032 -0.04662,-6.138491 0.450674,0.621618 c 0.248648,0.341891 0.668241,0.792566 0.93243,1.025673 z"
       id="path2451"
       style="stroke-width:0.0155405" />
    <path
       d="m 53.689478,12.976199 c 0.03109,0.0777 3.372284,3.79188 7.428352,8.251998 4.056066,4.47566 7.366189,8.158754 7.366189,8.189835 -0.01555,0.04662 -3.341205,3.729716 -7.38173,8.174295 -4.056066,4.444578 -7.381729,8.143214 -7.412811,8.220917 -0.03109,0.06216 0.497295,0.124323 1.196618,0.124323 h 1.243238 l 7.428351,-8.174294 c 4.087147,-4.491201 7.428352,-8.251998 7.428352,-8.36078 0,-0.09325 -3.356744,-3.869581 -7.443892,-8.376323 l -7.459433,-8.189834 h -1.227698 c -0.668241,0 -1.196617,0.06216 -1.165536,0.139863 z"
       id="path2453"
       style="stroke-width:0.0155405" />
    <path
       d="m 30.503075,16.83024 c 0,0.06216 0.404052,0.512837 0.885808,1.010132 l 0.885807,0.901348 h 3.85404 3.854041 v -1.010132 -1.010132 h -4.739848 c -2.610801,0 -4.739848,0.04662 -4.739848,0.108784 z"
       id="path2455"
       style="stroke-width:0.0155405" />
    <path
       d="m 42.003034,17.731588 v 1.010132 h 1.28986 1.274319 l 5.827682,5.827681 5.827682,5.827682 h 3.527689 3.543231 v -1.010132 -1.010132 h -3.23242 -3.216881 l -5.827681,-5.827681 -5.827682,-5.827682 h -1.58513 -1.600669 z"
       id="path2457"
       style="stroke-width:0.0155405" />
    <path
       d="m 49.850978,17.343077 -0.606079,0.621618 0.63716,0.652701 c 0.62162,0.621619 0.66824,0.63716 0.947969,0.388512 0.217567,-0.202027 0.590539,-0.264188 1.554049,-0.264188 h 1.27432 v -1.010132 -1.010132 h -1.60067 -1.600669 z"
       id="path2459"
       style="stroke-width:0.0155405" />
    <path
       d="m 44.80032,22.393733 c -0.139863,0.170947 -0.528376,0.233108 -1.491885,0.233108 h -1.305401 v 0.932429 0.932429 h 1.678372 1.678373 l 0.528375,-0.543917 0.528377,-0.543917 -0.606079,-0.621619 C 45.12667,22.082924 45.080049,22.067383 44.80032,22.393733 Z"
       id="path2461"
       style="stroke-width:0.0155405" />
    <path
       d="m 31.357802,23.55927 0.916888,0.932429 h 3.85404 3.854041 V 23.55927 22.626841 h -4.770929 -4.770928 z"
       id="path2463"
       style="stroke-width:0.0155405" />
    <path
       d="m 54.124611,22.751165 c 0,0.06216 0.372972,0.481755 0.823646,0.932428 l 0.823645,0.808106 h 1.818238 1.818236 V 23.55927 22.626841 h -2.641882 c -1.445265,0 -2.641883,0.06216 -2.641883,0.124324 z"
       id="path2465"
       style="stroke-width:0.0155405" />
    <path
       d="m 49.151656,27.677497 -0.683781,0.699322 h -3.23242 -3.232421 v 1.010132 1.010132 h 3.605391 3.605393 l 1.056753,-1.041212 1.056753,-1.041213 -0.6527,-0.668241 c -0.357432,-0.372972 -0.699322,-0.668241 -0.745943,-0.668241 -0.04662,0 -0.404053,0.31081 -0.777025,0.699321 z"
       id="path2467"
       style="stroke-width:0.0155405" />
    <path
       d="m 30.503075,28.485603 c 0,0.06216 0.404052,0.512837 0.885808,1.010132 l 0.885807,0.901348 h 3.85404 3.854041 v -1.010132 -1.010132 h -4.739848 c -2.610801,0 -4.739848,0.04662 -4.739848,0.108784 z"
       id="path2469"
       style="stroke-width:0.0155405" />
    <path
       d="m 31.357802,35.214633 0.916888,0.932429 h 3.85404 3.854041 v -0.932429 -0.932429 h -4.770929 -4.770928 z"
       id="path2471"
       style="stroke-width:0.0155405" />
    <path
       d="m 42.003034,35.214633 v 0.932429 h 1.212158 1.196617 l 2.952692,2.952692 2.952691,2.952692 h 1.662833 1.678372 v -1.010132 -1.010131 h -1.28986 -1.27432 l -2.87499,-2.874989 -2.87499,-2.87499 h -1.662831 -1.678372 z"
       id="path2473"
       style="stroke-width:0.0155405" />
    <path
       d="m 49.773276,34.826121 -0.528377,0.543916 0.683782,0.699323 0.683781,0.699321 0.326351,-0.310809 c 0.310809,-0.29527 0.559457,-0.31081 4.397956,-0.31081 h 4.071607 v -0.932429 -0.932429 h -4.553362 -4.553361 z"
       id="path2475"
       style="stroke-width:0.0155405" />
    <path
       d="m 44.80032,39.799076 c -0.139863,0.170945 -0.528376,0.233107 -1.491885,0.233107 h -1.305401 v 1.010131 1.010132 h 1.678372 1.678373 l 0.497295,-0.512835 c 0.279728,-0.279731 0.497295,-0.574998 0.497295,-0.668242 0,-0.155404 -1.118914,-1.3054 -1.27432,-1.3054 -0.04662,0 -0.170945,0.108783 -0.279729,0.233107 z"
       id="path2477"
       style="stroke-width:0.0155405" />
    <path
       d="m 30.503075,40.140966 c 0,0.06216 0.404052,0.512837 0.885808,1.010132 l 0.885807,0.901348 h 3.85404 3.854041 v -1.010132 -1.010131 h -4.739848 c -2.610801,0 -4.739848,0.04662 -4.739848,0.108783 z"
       id="path2479"
       style="stroke-width:0.0155405" />
    <path
       d="m 31.792935,59.566571 c -0.202026,0.03109 -0.559457,0.27973 -0.808105,0.528378 -0.823645,0.808105 -0.823645,1.94256 0,2.719584 l 0.466215,0.435133 -0.264189,-0.497294 c -0.621618,-1.25878 0.761484,-2.470938 1.911481,-1.662833 0.481755,0.341892 0.621618,1.212158 0.279728,1.756074 -0.264189,0.419594 -0.264189,0.419594 0.217566,-0.04662 1.414185,-1.383102 0.155405,-3.620932 -1.802696,-3.232422 z"
       id="path2481"
       style="stroke-width:0.0155405" />
    <path
       d="m 37.962508,84.788782 v 3.263496 h 0.699321 0.699322 v -1.476346 -1.476346 h 1.243239 1.243239 v 1.476346 1.476346 h 0.699323 0.69932 v -3.263496 -3.263505 h -0.69932 -0.699323 v 1.24324 1.243239 H 40.60439 39.361151 v -1.243239 -1.24324 h -0.699322 -0.699321 z"
       id="path2543"
       style="stroke-width:0.0155405" />
    <path
       d="m 45.344237,83.390132 c -0.35743,0.170944 -0.761483,0.528376 -0.932428,0.808103 -0.372972,0.652701 -0.388512,2.175675 -0.03108,2.874997 0.481755,0.901341 2.066884,1.414184 2.952692,0.963504 0.497295,-0.264183 1.196617,-0.947971 1.196617,-1.181077 0,-0.295261 -1.149997,-0.264184 -1.398643,0.0311 -0.450675,0.543918 -1.709454,0.108781 -1.709454,-0.59054 0,-0.233106 0.217567,-0.264192 1.647291,-0.264192 h 1.662833 L 48.62328,85.30163 c -0.124323,-0.94797 -0.512836,-1.569595 -1.181076,-1.927027 -0.699322,-0.372966 -1.320941,-0.372966 -2.097965,0.01555 z m 1.662833,1.041219 c 0.528375,0.481747 0.357431,0.668235 -0.652701,0.668235 -0.512835,0 -0.932429,-0.04666 -0.932429,-0.124325 0,-0.06212 0.108783,-0.279727 0.248648,-0.466215 0.279729,-0.40405 0.93243,-0.45067 1.336482,-0.07767 z"
       id="path2701"
       style="stroke-width:0.0155405" />
    <path
       d="m 50.301653,83.296893 c -0.543918,0.233107 -0.994592,0.79256 -0.994592,1.212153 0,0.419595 1.103374,0.388518 1.367563,-0.0311 0.233108,-0.388508 1.227698,-0.435137 1.367562,-0.07767 0.155405,0.404061 -0.217566,0.652701 -1.134454,0.777026 -1.134456,0.139859 -1.756076,0.69932 -1.756076,1.585128 0.01554,1.274317 1.274321,1.849322 2.455397,1.134458 0.435133,-0.264193 0.512835,-0.279735 0.590538,-0.07767 0.06216,0.1554 0.31081,0.233107 0.808105,0.233107 0.559458,0 0.668241,-0.04666 0.528377,-0.186488 -0.124324,-0.124316 -0.186485,-0.808102 -0.186485,-2.020257 0,-2.066885 -0.108785,-2.299992 -1.196618,-2.595262 -0.777024,-0.217573 -1.258779,-0.20203 -1.849317,0.04666 z m 1.647291,3.372287 c -0.29527,0.683778 -1.258779,0.823646 -1.507428,0.202022 -0.155405,-0.419595 0.170946,-0.74594 0.901349,-0.916885 0.792565,-0.20203 0.916888,-0.04666 0.606079,0.714863 z"
       id="path2703"
       style="stroke-width:0.0155405" />
    <path
       d="m 54.186773,83.514457 c 0.04662,0.139868 0.435134,1.212162 0.854727,2.362155 l 0.745943,2.097961 0.683782,0.04666 0.68378,0.04666 0.823646,-2.299993 c 0.450674,-1.258782 0.808105,-2.362154 0.808105,-2.424317 0,-0.07767 -0.295269,-0.108782 -0.652699,-0.07767 l -0.63716,0.04666 -0.435135,1.5385 c -0.248646,0.839189 -0.466214,1.616215 -0.497295,1.709464 -0.03108,0.09324 -0.170945,-0.217573 -0.310808,-0.683788 -0.124325,-0.466213 -0.357433,-1.258782 -0.497296,-1.756073 L 55.507714,83.23473 h -0.699322 c -0.606077,0 -0.699321,0.04666 -0.621619,0.279727 z"
       id="path2787"
       style="stroke-width:0.0155405" />
    <path
       d="m 59.097566,83.32797 c 0,0.04666 0.388513,1.181076 0.854726,2.533107 0.699323,1.958095 0.839188,2.486471 0.714864,2.766197 -0.108784,0.233117 -0.29527,0.357432 -0.559458,0.357432 -0.32635,0 -0.388513,0.07767 -0.388513,0.466213 0,0.264193 0.09325,0.512843 0.217568,0.559463 0.372972,0.139861 1.476346,-0.24865 1.662832,-0.574996 0.186485,-0.357432 2.160127,-5.905386 2.160127,-6.091873 0,-0.07767 -0.29527,-0.108783 -0.652701,-0.07767 l -0.6527,0.04666 -0.466214,1.678368 C 61.739449,85.907765 61.475261,86.576 61.428639,86.467218 61.366479,86.358436 61.11783,85.58141 60.884722,84.742231 l -0.435134,-1.507433 h -0.683781 c -0.357431,0 -0.668241,0.04666 -0.668241,0.09324 z"
       id="path2789"
       style="stroke-width:0.0155405" />
    <path
       d="m 29.104432,95.822517 v 3.263509 h 0.699322 0.699321 v -1.398645 -1.398646 h 1.476345 1.476348 v -0.543921 -0.543911 h -1.491887 -1.476347 l 0.04662,-0.745942 0.04662,-0.730407 1.60067,-0.04662 1.585128,-0.04662 V 93.102937 92.559026 H 31.4355 29.104428 Z"
       id="path2859"
       style="stroke-width:0.0155405" />
    <path
       d="m 62.516473,93.646851 v 1.087844 l -0.497295,-0.310813 c -0.668241,-0.40406 -1.196617,-0.388515 -1.849319,0.04662 -0.699322,0.466208 -1.072293,1.243239 -1.072293,2.253369 0,1.942556 1.491887,3.077013 2.921612,2.206756 0.404052,-0.248665 0.497295,-0.2642 0.497295,-0.07767 0,0.17094 0.170945,0.233109 0.621619,0.233109 h 0.62162 V 95.82256 92.559061 h -0.62162 -0.621619 z m -0.32635,1.942556 c 0.124324,0.124328 0.248648,0.543922 0.279729,0.963517 0.06216,0.606069 0.01554,0.823644 -0.264189,1.165536 -0.901348,1.165536 -2.222289,-0.108782 -1.709453,-1.662834 0.264188,-0.823644 1.087834,-1.041209 1.693913,-0.466219 z"
       id="path2861"
       style="stroke-width:0.0155405" />
    <path
       d="m 35.631436,94.377258 c -0.668242,0.341892 -1.24324,1.41418 -1.24324,2.299993 0,0.341892 0.155405,0.947972 0.357432,1.320931 0.450673,0.916893 1.134454,1.274329 2.253369,1.196626 1.414184,-0.108782 2.253371,-1.041208 2.253371,-2.517557 0,-1.476348 -0.839187,-2.408786 -2.253371,-2.517568 -0.590538,-0.04662 -0.979049,0.01558 -1.367561,0.217575 z m 2.004722,1.227694 c 0.745943,0.947972 0.217566,2.548648 -0.839186,2.548648 -0.574999,0 -0.808105,-0.217576 -1.010132,-0.947972 -0.186486,-0.621625 0.04662,-1.616221 0.435133,-1.833785 0.497297,-0.295268 1.072293,-0.186485 1.414185,0.233109 z"
       id="path2931"
       style="stroke-width:0.0155405" />
    <path
       d="m 42.049655,94.346168 c -0.279729,0.124327 -0.512836,0.295279 -0.512836,0.388527 0,0.07767 -0.06216,0.155395 -0.155406,0.155395 -0.0777,0 -0.155404,-0.139861 -0.155404,-0.310812 0,-0.248644 -0.108783,-0.310813 -0.543917,-0.310813 h -0.543917 v 2.408786 2.408775 h 0.62162 0.621618 v -1.445269 c 0,-1.662823 0.170946,-2.035805 1.010132,-2.1912 0.512837,-0.108793 0.543917,-0.139872 0.543917,-0.714862 0,-0.683794 -0.108782,-0.730407 -0.885807,-0.388527 z"
       id="path2933"
       style="stroke-width:0.0155405" />
    <path
       d="m 51.544891,94.330634 c -0.543917,0.233099 -0.994592,0.792565 -0.994592,1.21216 0,0.419595 1.103375,0.388505 1.367563,-0.03105 0.233108,-0.388516 1.227699,-0.43514 1.367563,-0.07767 0.155406,0.40405 -0.217567,0.652704 -1.134455,0.777031 -1.134455,0.139861 -1.756075,0.699317 -1.756075,1.585131 0.01555,1.274318 1.274321,1.849319 2.455396,1.134457 0.435134,-0.264189 0.512836,-0.279734 0.59054,-0.07767 0.06216,0.155406 0.310809,0.233109 0.808104,0.233109 0.559457,0 0.668241,-0.04662 0.528376,-0.186496 -0.124324,-0.124316 -0.186485,-0.808099 -0.186485,-2.020248 0,-2.066895 -0.108783,-2.299993 -1.196617,-2.595261 -0.777024,-0.217575 -1.258779,-0.20203 -1.849318,0.04662 z m 1.647292,3.372281 c -0.29527,0.683794 -1.25878,0.823644 -1.507428,0.20203 -0.155404,-0.419594 0.170946,-0.745952 0.901349,-0.916881 0.792564,-0.202031 0.916889,-0.04662 0.606079,0.714851 z"
       id="path2935"
       style="stroke-width:0.0155405" />
    <path
       d="m 57.745544,94.346168 c -0.279728,0.124327 -0.512836,0.295279 -0.512836,0.388527 0,0.07767 -0.06216,0.155395 -0.155404,0.155395 -0.0777,0 -0.155405,-0.139861 -0.155405,-0.310812 0,-0.248644 -0.108783,-0.310813 -0.543918,-0.310813 h -0.543916 v 2.408786 2.408775 h 0.621618 0.621621 v -1.445269 c 0,-1.662823 0.170945,-2.035805 1.010131,-2.1912 0.512836,-0.108793 0.543917,-0.139872 0.543917,-0.714862 0,-0.683794 -0.108784,-0.730407 -0.885808,-0.388527 z"
       id="path2937"
       style="stroke-width:0.0155405" />
    <path
       d="m 65.702272,94.423882 c -0.357431,0.170941 -0.761483,0.528377 -0.932428,0.8081 -0.372972,0.652704 -0.388513,2.175665 -0.03108,2.874993 0.481756,0.901348 2.066884,1.41418 2.952692,0.963506 0.497296,-0.264188 1.196617,-0.947971 1.196617,-1.181081 0,-0.295267 -1.149996,-0.264177 -1.398644,0.03105 -0.450674,0.543922 -1.709452,0.108782 -1.709452,-0.590535 0,-0.23311 0.217566,-0.264189 1.647291,-0.264189 H 69.0901 l -0.108784,-0.730407 c -0.124324,-0.947961 -0.512836,-1.569585 -1.181077,-1.927011 -0.699321,-0.372982 -1.320941,-0.372982 -2.097964,0.01558 z m 1.662832,1.041209 c 0.528376,0.481753 0.357431,0.668238 -0.6527,0.668238 -0.512836,0 -0.93243,-0.04662 -0.93243,-0.124327 0,-0.06209 0.108784,-0.279722 0.248648,-0.466208 0.279728,-0.40405 0.93243,-0.450674 1.336482,-0.07767 z"
       id="path2939"
       style="stroke-width:0.0155405" />
    <path
       d="m 71.887385,94.346168 c -0.279728,0.124327 -0.512837,0.295279 -0.512837,0.388527 0,0.07767 -0.06216,0.155395 -0.155404,0.155395 -0.0777,0 -0.155405,-0.139861 -0.155405,-0.310812 0,-0.248644 -0.108782,-0.310813 -0.543916,-0.310813 h -0.543917 v 2.408786 2.408775 h 0.621619 0.621619 v -1.445269 c 0,-1.662823 0.170945,-2.035805 1.010131,-2.1912 0.512836,-0.108793 0.543918,-0.139872 0.543918,-0.714862 0,-0.683794 -0.108784,-0.730407 -0.885808,-0.388527 z"
       id="path2941"
       style="stroke-width:0.0155405" />
    <path
       d="m 43.246272,94.439416 c 0,0.124317 0.823647,3.170262 1.181077,4.366877 0.06216,0.217564 0.248647,0.279733 0.745944,0.279733 h 0.668241 l 0.264187,-1.336476 c 0.466215,-2.346628 0.512836,-2.315538 1.118915,0.823644 0.09325,0.481742 0.139865,0.512832 0.761484,0.512832 h 0.6527 l 0.699323,-2.408775 0.699321,-2.408786 h -0.668241 -0.6527 l -0.170946,0.80811 c -0.606079,2.874994 -0.543917,2.859449 -1.025671,0.543922 l -0.279729,-1.352032 h -0.6527 -0.652701 l -0.279729,1.554052 c -0.155405,0.854734 -0.34189,1.554051 -0.388511,1.554051 -0.06216,0 -0.202027,-0.435139 -0.29527,-0.97905 -0.404053,-2.113508 -0.419593,-2.129053 -1.103374,-2.129053 -0.341891,0 -0.62162,0.07767 -0.62162,0.170951 z"
       id="path2979"
       style="stroke-width:0.0155405" />
  </g>
</svg>
