<?xml version="1.0" encoding="UTF-8" standalone="no"?>
<!-- Created with Inkscape (http://www.inkscape.org/) -->

<svg
   width="100mm"
   height="100mm"
   viewBox="0 0 100 100"
   version="1.1"
   id="svg26768"
   sodipodi:docname="heavy forwarders.svg"
   inkscape:version="1.1.1 (3bf5ae0d25, 2021-09-20)"
   xmlns:inkscape="http://www.inkscape.org/namespaces/inkscape"
   xmlns:sodipodi="http://sodipodi.sourceforge.net/DTD/sodipodi-0.dtd"
   xmlns="http://www.w3.org/2000/svg"
   xmlns:svg="http://www.w3.org/2000/svg">
  <sodipodi:namedview
     id="namedview26770"
     pagecolor="#ffffff"
     bordercolor="#666666"
     borderopacity="1.0"
     inkscape:pageshadow="2"
     inkscape:pageopacity="0.0"
     inkscape:pagecheckerboard="0"
     inkscape:document-units="mm"
     showgrid="false"
     width="209mm"
     inkscape:zoom="0.7500982"
     inkscape:cx="13.998167"
     inkscape:cy="135.31562"
     inkscape:window-width="1920"
     inkscape:window-height="1027"
     inkscape:window-x="1912"
     inkscape:window-y="-8"
     inkscape:window-maximized="1"
     inkscape:current-layer="layer1" />
  <defs
     id="defs26765" />
  <g
     inkscape:label="Layer 1"
     inkscape:groupmode="layer"
     id="layer1">
    <path
       d="m 31.63109,2.0394914 c -1.079725,0.2064155 -1.98478,0.7304015 -2.794574,1.5878259 -0.92094,0.9844561 -1.333771,1.9053964 -1.460803,3.2074142 l -0.09527,1.0162008 -0.968571,0.079384 c -1.857757,0.1587852 -3.46146,1.2226252 -4.350647,2.9057297 l -0.428716,0.793908 v 30.962619 30.962618 l 0.428716,0.825671 c 0.55574,1.047964 1.349657,1.841872 2.39762,2.397612 l 0.825671,0.428716 22.737672,0.04765 c 22.642403,0.03174 22.737673,0.03174 23.610983,-0.285808 1.857757,-0.698648 3.223291,-2.524652 3.382067,-4.509432 l 0.09527,-1.000333 0.936817,-0.111146 c 2.588159,-0.269931 4.477679,-2.032419 4.89051,-4.557062 0.206415,-1.365534 0.222292,-58.6860699 0,-60.2262567 C 80.552027,4.6276502 79.488187,3.2144863 77.67806,2.357053 L 76.788873,1.9442219 54.559301,1.9124861 c -12.22626,0 -22.547133,0.047648 -22.928211,0.127023 z m 45.665892,2.3658577 c 0.635124,0.3652008 0.905064,0.6351321 1.222625,1.3179034 l 0.412831,0.8415476 -0.03173,23.3251649 -0.04765,23.34106 -0.428708,0.793909 c -0.666895,1.270264 -2.334113,2.619912 -3.239168,2.619912 -0.174662,0 -0.222301,-3.636122 -0.254054,-22.435987 L 74.883477,11.788748 74.518276,11.04247 C 73.94666,9.9151138 72.993966,8.9147811 71.977756,8.4225574 L 71.072693,7.977964 50.240417,7.9303161 29.392247,7.8985803 V 7.0887861 c 0,-1.3020178 0.809794,-2.4770127 2.064181,-2.9851131 0.254028,-0.095269 8.431336,-0.1587764 22.705892,-0.1587764 l 22.308965,-0.015912 z m -6.224281,5.7479339 c 0.619256,0.333447 1.302018,1.01621 1.635457,1.635465 0.254054,0.444594 0.26994,2.381735 0.26994,23.817398 v 23.341051 l -0.349324,0.746278 c -0.476356,1.047963 -1.651342,2.238835 -2.635798,2.683428 l -0.825662,0.381078 H 48.192121 27.216937 l -1.095603,-0.55574 c -0.77804,-0.396954 -1.254387,-0.778041 -1.683095,-1.349657 -1.143241,-1.508433 -1.079725,0.158785 -1.079725,-25.246438 0,-16.703939 0.04765,-23.039366 0.174662,-23.43632 0.381077,-1.095603 1.174994,-1.857758 2.365857,-2.2229582 0.222301,-0.06347 10.368512,-0.111146 22.547142,-0.09527 20.292422,0.03174 22.19781,0.04765 22.626526,0.3016852 z m 7.780354,56.60602 c -0.206425,1.413164 -1.619589,2.58815 -3.143899,2.58815 h -0.746278 l 0.03174,-5.970217 0.04765,-5.970235 0.698639,-0.238169 c 0.396963,-0.127032 0.968579,-0.396963 1.270264,-0.603379 0.619256,-0.381077 1.746611,-1.540195 1.794242,-1.873634 0.09527,-0.444593 0.127023,11.464106 0.04765,12.067484 z m -54.30367,-4.811117 c 0.254055,0.254055 0.936817,0.682763 1.508433,0.952694 l 1.032087,0.492224 H 48.207998 69.32609 l 1.063849,-0.523977 c 0.730402,-0.349324 1.317895,-0.809794 1.873634,-1.429041 l 0.809785,-0.905064 -0.04765,6.208404 -0.04765,6.208396 -0.476355,0.762155 c -0.349324,0.571625 -0.714525,0.905072 -1.333772,1.222634 l -0.841547,0.444593 H 48.334985 c -16.957985,0 -22.150179,-0.04765 -22.658279,-0.190539 -0.841548,-0.254054 -1.921274,-1.33378 -2.143566,-2.127697 -0.111146,-0.396954 -0.174662,-2.826328 -0.174662,-6.573596 l 0.01591,-5.95435 0.349324,0.476347 c 0.190539,0.254055 0.55574,0.682763 0.825671,0.936817 z"
       id="path3351"
       style="stroke-width:0.0158783" />
    <path
       d="m 51.399526,20.156594 c 0.190548,0.206416 3.572615,3.92193 7.510422,8.288454 3.953692,4.350647 7.224614,8.002645 7.272253,8.113792 0.04765,0.174662 -8.161431,9.384055 -14.703282,16.481637 l -0.412831,0.444594 1.38141,-0.04765 1.365534,-0.04765 7.558052,-8.30433 c 4.160099,-4.572939 7.558052,-8.367847 7.558052,-8.431363 0,-0.06356 -3.41383,-3.858414 -7.573938,-8.431362 l -7.573929,-8.336084 -1.349648,-0.04765 -1.349656,-0.04765 z"
       id="path3353"
       style="stroke-width:0.0158783" />
    <path
       d="m 28.360169,24.729533 0.936817,0.952694 h 4.0172 4.017199 V 24.729533 23.77684 h -4.954016 -4.954017 z"
       id="path3355"
       style="stroke-width:0.0158783" />
    <path
       d="m 39.236782,24.729533 v 0.952694 h 1.238501 1.222626 l 5.954349,5.95435 5.954349,5.954349 h 3.763154 3.779022 V 36.638232 35.685538 H 57.846108 54.559301 L 48.604952,29.731189 42.650602,23.77684 H 40.95163 39.236782 Z"
       id="path3357"
       style="stroke-width:0.0158783" />
    <path
       d="m 47.175911,24.332579 -0.539863,0.55574 0.698648,0.714516 0.69864,0.714524 0.333447,-0.317561 c 0.269931,-0.254055 0.555739,-0.317571 1.556072,-0.317571 H 51.14548 V 24.729533 23.77684 h -1.714857 -1.714849 z"
       id="path3359"
       style="stroke-width:0.0158783" />
    <path
       d="m 42.094863,29.413619 c -0.1429,0.174662 -0.539854,0.238177 -1.52431,0.238177 h -1.333771 v 1.032087 1.032086 h 1.714848 1.714858 l 0.5081,-0.523986 c 0.285809,-0.285808 0.50811,-0.587493 0.50811,-0.682762 0,-0.158785 -1.143242,-1.333772 -1.302018,-1.333772 -0.04765,0 -0.174662,0.111147 -0.285817,0.23817 z"
       id="path3361"
       style="stroke-width:0.0158783" />
    <path
       d="m 27.486859,29.778819 c 0,0.06347 0.41284,0.523986 0.92094,1.032087 l 0.920941,0.905063 3.953692,-0.03174 3.969561,-0.04765 v -0.952693 -0.952694 l -4.874624,-0.04765 c -2.699305,-0.01591 -4.89051,0.01591 -4.89051,0.09527 z"
       id="path3363"
       style="stroke-width:0.0158783" />
    <path
       d="m 51.717097,29.778819 c -0.04765,0.07938 0.333438,0.539863 0.841547,1.047963 l 0.905064,0.905064 1.825995,-0.04765 1.810127,-0.04765 v -0.952694 -0.952694 l -2.651675,-0.04765 c -1.444917,-0.01591 -2.683428,0.01591 -2.731058,0.09527 z"
       id="path3365"
       style="stroke-width:0.0158783" />
    <path
       d="m 46.620172,34.891621 -0.778032,0.793917 h -3.302684 -3.302674 v 0.952694 0.952694 h 3.699629 3.699637 l 1.063849,-1.079717 1.06384,-1.079725 -0.682762,-0.666886 -0.682772,-0.666886 z"
       id="path3367"
       style="stroke-width:0.0158783" />
    <path
       d="m 28.360169,36.638232 0.936817,0.952694 h 4.0172 4.017199 v -0.952694 -0.952694 h -4.954016 -4.954017 z"
       id="path3369"
       style="stroke-width:0.0158783" />
    <path
       d="m 27.486859,41.687518 c 0,0.06347 0.41284,0.523986 0.92094,1.032086 l 0.920941,0.905064 3.953692,-0.03174 3.969561,-0.04765 V 42.59259 41.639897 l -4.874624,-0.04765 c -2.699305,-0.01591 -4.89051,0.01591 -4.89051,0.09527 z"
       id="path3371"
       style="stroke-width:0.0158783" />
    <path
       d="m 39.236782,42.592582 v 1.032086 h 1.317894 1.302018 l 2.937474,2.937483 2.937483,2.937474 h 1.698972 1.714857 v -0.952694 -0.952694 h -1.222625 -1.222634 l -3.032743,-3.016875 -3.032752,-3.016867 h -1.698972 -1.698972 z"
       id="path3373"
       style="stroke-width:0.0158783" />
    <path
       d="m 47.255304,42.195627 -0.619256,0.635132 0.651009,0.666886 c 0.635132,0.635132 0.682763,0.651009 0.96858,0.396954 0.254054,-0.238177 0.825671,-0.269931 4.572939,-0.301685 l 4.271254,-0.04765 V 42.59257 41.639876 l -4.604702,-0.04765 -4.620569,-0.03174 z"
       id="path3375"
       style="stroke-width:0.0158783" />
    <path
       d="m 42.094863,47.356059 c -0.1429,0.174662 -0.539854,0.238178 -1.52431,0.238178 h -1.333771 v 0.952694 0.952694 h 1.714848 1.714858 l 0.539854,-0.555731 0.539863,-0.555748 -0.619247,-0.635132 C 42.42831,47.038498 42.38068,47.022612 42.094863,47.356059 Z"
       id="path3377"
       style="stroke-width:0.0158783" />
    <path
       d="m 28.360169,48.546931 0.936817,0.952694 h 4.0172 4.017199 v -0.952694 -0.952694 h -4.954016 -4.954017 z"
       id="path3379"
       style="stroke-width:0.0158783" />
    <path
       d="m 28.439562,67.632604 c -0.666895,0.365201 -1.143242,1.222626 -1.063849,1.921274 0.09527,0.698648 0.444593,1.302017 0.936817,1.556072 l 0.333447,0.190539 -0.333447,-0.444594 c -0.190539,-0.238178 -0.349315,-0.619255 -0.349315,-0.825671 0,-0.523986 0.809785,-1.317894 1.349648,-1.317894 0.539863,0 1.349657,0.793908 1.349657,1.317894 0,0.206416 -0.158785,0.587493 -0.349324,0.825671 l -0.333447,0.444594 0.349324,-0.190539 c 1.047963,-0.571616 1.254378,-2.191205 0.3652,-3.064515 -0.539862,-0.55573 -1.603702,-0.746269 -2.254711,-0.412831 z"
       id="path3381"
       style="stroke-width:0.0158783" />
    <path
       d="m 11.6086,93.323636 v 3.334437 h 0.714516 0.714525 V 95.14964 93.641207 h 1.270264 1.270255 v 1.508433 1.508433 h 0.714525 0.714525 V 93.323636 89.989208 H 16.292685 15.57816 v 1.270255 1.270265 H 14.307905 13.037641 V 91.259463 89.989208 H 12.323116 11.6086 Z"
       id="path3473"
       style="stroke-width:0.0158783" />
    <path
       d="m 41.45974,93.323636 v 3.334437 h 0.714516 0.714524 v -1.42904 -1.42905 h 1.508434 1.508433 v -0.55574 -0.55573 h -1.52431 -1.508433 l 0.04765,-0.762155 0.04765,-0.746287 1.635457,-0.04765 1.619588,-0.04765 v -0.539854 -0.55574 h -2.381743 -2.381735 z"
       id="path3475"
       style="stroke-width:0.0158783" />
    <path
       d="m 75.439225,91.100678 v 1.111488 l -0.508109,-0.317571 c -0.682763,-0.412831 -1.222625,-0.396954 -1.889511,0.04765 -0.714516,0.476356 -1.095602,1.270265 -1.095602,2.302351 0,1.98478 1.524319,3.143898 2.985113,2.25472 0.41284,-0.254054 0.508109,-0.26994 0.508109,-0.07938 0,0.174653 0.174662,0.238169 0.635132,0.238169 h 0.635132 v -3.334437 -3.334429 h -0.635132 -0.635132 z m -0.333447,1.984789 c 0.127031,0.127023 0.254054,0.55574 0.285808,0.984456 0.06356,0.619247 0.01591,0.841548 -0.269923,1.190863 -0.92094,1.190872 -2.270597,-0.111146 -1.746611,-1.698972 0.269923,-0.841548 1.111479,-1.06384 1.730726,-0.476347 z"
       id="path3477"
       style="stroke-width:0.0158783" />
    <path
       d="m 19.150775,91.894595 c -0.3652,0.174662 -0.77804,0.539863 -0.952693,0.825671 -0.381087,0.666886 -0.396964,2.222958 -0.03174,2.937474 0.492232,0.920949 2.111812,1.444927 3.016875,0.984456 0.508101,-0.269931 1.222625,-0.96857 1.222625,-1.206748 0,-0.301685 -1.174995,-0.269931 -1.42904,0.03174 -0.460471,0.555739 -1.746612,0.111146 -1.746612,-0.60337 0,-0.238178 0.222293,-0.269931 1.683096,-0.269931 h 1.698972 l -0.111146,-0.746279 c -0.127023,-0.96857 -0.523986,-1.603702 -1.206749,-1.968903 -0.714525,-0.381078 -1.349648,-0.381078 -2.143565,0.01591 z m 1.698972,1.06384 c 0.539863,0.492233 0.365201,0.682772 -0.666885,0.682772 -0.523986,0 -0.952694,-0.04765 -0.952694,-0.127032 0,-0.06347 0.111146,-0.285808 0.254046,-0.476347 0.285808,-0.412831 0.952702,-0.46047 1.365533,-0.07938 z"
       id="path3573"
       style="stroke-width:0.0158783" />
    <path
       d="m 24.215938,91.799326 c -0.55574,0.238178 -1.01621,0.809794 -1.01621,1.238502 0,0.428717 1.127356,0.396954 1.397287,-0.03174 0.238178,-0.396954 1.254388,-0.444593 1.397288,-0.07938 0.158785,0.41284 -0.222293,0.666886 -1.15911,0.793909 -1.159118,0.142908 -1.794241,0.714525 -1.794241,1.619588 0.01591,1.302018 1.302018,1.889511 2.508766,1.159118 0.444585,-0.26994 0.523977,-0.285808 0.60337,-0.07938 0.06347,0.158785 0.317562,0.238169 0.825671,0.238169 0.571616,0 0.682762,-0.04765 0.539863,-0.190539 -0.127032,-0.127023 -0.190539,-0.825671 -0.190539,-2.064173 0,-2.111812 -0.111146,-2.349981 -1.222625,-2.651675 -0.793918,-0.222292 -1.286141,-0.206415 -1.88952,0.04765 z m 1.683095,3.445583 c -0.301685,0.698639 -1.286132,0.841548 -1.540187,0.206416 -0.158785,-0.428708 0.174662,-0.762155 0.920941,-0.936817 0.809785,-0.206416 0.936817,-0.04765 0.619246,0.730401 z"
       id="path3575"
       style="stroke-width:0.0158783" />
    <path
       d="m 47.96982,91.846965 c -0.682763,0.349315 -1.270256,1.444918 -1.270256,2.349981 0,0.349324 0.158786,0.968571 0.365201,1.349648 0.46047,0.936817 1.159109,1.302018 2.302351,1.222625 1.444917,-0.111146 2.30235,-1.06384 2.30235,-2.572273 0,-1.508433 -0.857433,-2.461136 -2.30235,-2.572282 -0.603379,-0.04765 -1.000333,0.01591 -1.397296,0.222301 z m 2.048305,1.254379 c 0.762155,0.968579 0.222292,2.604035 -0.857425,2.604035 -0.587502,0 -0.82568,-0.222292 -1.032095,-0.968579 -0.190539,-0.635123 0.04765,-1.651333 0.444593,-1.873634 0.50811,-0.301685 1.095603,-0.190539 1.444927,0.238178 z"
       id="path3577"
       style="stroke-width:0.0158783" />
    <path
       d="m 54.686333,91.815203 c -0.285808,0.127023 -0.523986,0.301685 -0.523986,0.396963 0,0.07938 -0.06347,0.158776 -0.158785,0.158776 -0.07938,0 -0.158777,-0.142908 -0.158777,-0.317561 0,-0.254055 -0.111146,-0.317571 -0.555739,-0.317571 h -0.55574 v 2.461136 2.461127 h 0.635132 0.635124 v -1.47668 c 0,-1.698972 0.174671,-2.080049 1.032095,-2.238834 0.523977,-0.111147 0.55574,-0.1429 0.55574,-0.730393 0,-0.698648 -0.111155,-0.746287 -0.905064,-0.396963 z"
       id="path3579"
       style="stroke-width:0.0158783" />
    <path
       d="m 64.387951,91.799326 c -0.55574,0.238178 -1.01621,0.809794 -1.01621,1.238502 0,0.428717 1.127356,0.396954 1.397287,-0.03174 0.238178,-0.396954 1.254388,-0.444593 1.397287,-0.07938 0.158785,0.41284 -0.222292,0.666886 -1.159109,0.793909 -1.159118,0.142908 -1.79425,0.714525 -1.79425,1.619588 0.01591,1.302018 1.302017,1.889511 2.508766,1.159118 0.444593,-0.26994 0.523986,-0.285808 0.603378,-0.07938 0.06347,0.158785 0.317562,0.238169 0.825671,0.238169 0.571617,0 0.682763,-0.04765 0.539863,-0.190539 -0.127032,-0.127023 -0.190548,-0.825671 -0.190548,-2.064173 0,-2.111812 -0.111146,-2.349981 -1.222625,-2.651675 -0.793908,-0.222292 -1.286141,-0.206415 -1.88951,0.04765 z m 1.683095,3.445583 c -0.301685,0.698639 -1.286141,0.841548 -1.540187,0.206416 -0.158785,-0.428708 0.174653,-0.762155 0.92094,-0.936817 0.809786,-0.206416 0.936817,-0.04765 0.619247,0.730401 z"
       id="path3581"
       style="stroke-width:0.0158783" />
    <path
       d="m 70.723377,91.815203 c -0.285808,0.127023 -0.523977,0.301685 -0.523977,0.396963 0,0.07938 -0.06347,0.158776 -0.158785,0.158776 -0.07938,0 -0.158785,-0.142908 -0.158785,-0.317561 0,-0.254055 -0.111146,-0.317571 -0.55574,-0.317571 h -0.555739 v 2.461136 2.461127 h 0.635132 0.635132 v -1.47668 c 0,-1.698972 0.174662,-2.080049 1.032086,-2.238834 0.523986,-0.111147 0.55574,-0.1429 0.55574,-0.730393 0,-0.698648 -0.111146,-0.746287 -0.905064,-0.396963 z"
       id="path3583"
       style="stroke-width:0.0158783" />
    <path
       d="m 78.853055,91.894595 c -0.365201,0.174662 -0.778041,0.539863 -0.952703,0.825671 -0.381077,0.666886 -0.396954,2.222958 -0.03174,2.937474 0.492224,0.920949 2.111812,1.444927 3.016867,0.984456 0.508109,-0.269931 1.222634,-0.96857 1.222634,-1.206748 0,-0.301685 -1.174995,-0.269931 -1.42905,0.03174 -0.46047,0.555739 -1.746611,0.111146 -1.746611,-0.60337 0,-0.238178 0.222301,-0.269931 1.683104,-0.269931 h 1.698972 l -0.111146,-0.746279 c -0.127032,-0.96857 -0.523986,-1.603702 -1.206748,-1.968903 -0.714525,-0.381078 -1.349657,-0.381078 -2.143566,0.01591 z m 1.698972,1.06384 c 0.539862,0.492233 0.3652,0.682772 -0.666886,0.682772 -0.523986,0 -0.952703,-0.04765 -0.952703,-0.127032 0,-0.06347 0.111155,-0.285808 0.254055,-0.476347 0.285808,-0.412831 0.952703,-0.46047 1.365534,-0.07938 z"
       id="path3585"
       style="stroke-width:0.0158783" />
    <path
       d="m 85.01382,91.815203 c -0.285809,0.127023 -0.523986,0.301685 -0.523986,0.396963 0,0.07938 -0.06347,0.158776 -0.158777,0.158776 -0.07938,0 -0.158785,-0.142908 -0.158785,-0.317561 0,-0.254055 -0.111146,-0.317571 -0.55574,-0.317571 h -0.555739 v 2.461136 2.461127 h 0.635132 0.635132 v -1.47668 c 0,-1.698972 0.174662,-2.080049 1.032087,-2.238834 0.523977,-0.111147 0.555739,-0.1429 0.555739,-0.730393 0,-0.698648 -0.111155,-0.746287 -0.905063,-0.396963 z"
       id="path3587"
       style="stroke-width:0.0158783" />
    <path
       d="m 87.713125,91.751687 c -1.06384,0.301694 -1.524319,1.651342 -0.793918,2.318236 0.190539,0.19053 0.778041,0.460462 1.302027,0.60337 0.523977,0.158785 1.06384,0.381078 1.190863,0.5081 0.206415,0.206416 0.206415,0.254055 -0.06347,0.460471 -0.460479,0.333447 -1.01621,0.269931 -1.460803,-0.174662 -0.492233,-0.508101 -1.492557,-0.571617 -1.492557,-0.09527 0,0.46047 0.587493,1.079726 1.222626,1.302018 0.333438,0.111155 0.936817,0.142908 1.460803,0.09527 0.730392,-0.07938 0.96857,-0.174662 1.333771,-0.587493 0.936817,-1.047963 0.333438,-2.159442 -1.397287,-2.556396 -1.063849,-0.238178 -1.397287,-0.55574 -0.952694,-0.889187 0.365201,-0.254055 1.01621,-0.158785 1.286141,0.206416 0.222292,0.285808 1.333771,0.301684 1.333771,0.01591 0,-0.365201 -0.508109,-0.936817 -1.047963,-1.15911 -0.587502,-0.254054 -1.174995,-0.269931 -1.921273,-0.04765 z"
       id="path3589"
       style="stroke-width:0.0158783" />
    <path
       d="m 28.185507,92.021618 c 0.04765,0.142909 0.444594,1.238511 0.873301,2.413497 l 0.762164,2.143574 0.698639,0.04765 0.698648,0.04765 0.841548,-2.349981 c 0.46047,-1.286141 0.825662,-2.413496 0.825662,-2.477003 0,-0.07938 -0.301685,-0.111155 -0.666886,-0.07938 l -0.651008,0.04765 -0.444594,1.571949 c -0.254046,0.857424 -0.476347,1.651342 -0.5081,1.746611 -0.03174,0.09527 -0.174662,-0.222292 -0.317562,-0.698648 -0.127032,-0.476347 -0.365201,-1.286141 -0.508109,-1.794241 l -0.254055,-0.905074 h -0.714516 c -0.619255,0 -0.714524,0.04765 -0.635132,0.285808 z"
       id="path3743"
       style="stroke-width:0.0158783" />
    <path
       d="m 33.20304,91.83108 c 0,0.04765 0.396954,1.206748 0.873301,2.588158 0.714524,2.000666 0.857424,2.54052 0.730401,2.826328 -0.111146,0.238178 -0.301685,0.365201 -0.571616,0.365201 -0.333447,0 -0.396954,0.07938 -0.396954,0.476347 0,0.26994 0.09527,0.523986 0.222292,0.571625 0.381077,0.1429 1.508433,-0.254055 1.698972,-0.587493 0.190539,-0.365201 2.207081,-6.033742 2.207081,-6.224281 0,-0.07938 -0.301685,-0.111155 -0.666885,-0.07938 l -0.666886,0.04765 -0.476347,1.714858 c -0.254055,0.936817 -0.523986,1.619579 -0.571625,1.508433 -0.06347,-0.111146 -0.317562,-0.905063 -0.55574,-1.762488 L 34.58445,91.735837 h -0.698648 c -0.365201,0 -0.682762,0.04765 -0.682762,0.09527 z"
       id="path3745"
       style="stroke-width:0.0158783" />
    <path
       d="m 55.908958,91.910472 c 0,0.127032 0.841548,3.239168 1.206749,4.461793 0.06347,0.222292 0.254054,0.285808 0.762155,0.285808 h 0.682762 l 0.26994,-1.365533 c 0.476347,-2.397612 0.523977,-2.365858 1.143233,0.841556 0.09527,0.492224 0.142899,0.523977 0.778032,0.523977 h 0.666885 l 0.714525,-2.461127 0.714516,-2.461136 h -0.682763 -0.666885 l -0.174662,0.825671 c -0.619256,2.937483 -0.55574,2.921606 -1.047963,0.55574 L 59.989674,91.73581 h -0.666886 -0.666886 l -0.285817,1.587826 c -0.158776,0.87331 -0.349315,1.587835 -0.396954,1.587835 -0.06347,0 -0.206416,-0.444594 -0.301685,-1.000333 -0.41284,-2.159451 -0.428717,-2.175328 -1.127356,-2.175328 -0.349324,0 -0.635132,0.07938 -0.635132,0.174662 z"
       id="path3747"
       style="stroke-width:0.0158783" />
  </g>
</svg>
