<?xml version="1.0" encoding="UTF-8" standalone="no"?>
<!-- Created with Inkscape (http://www.inkscape.org/) -->

<svg
   width="100mm"
   height="100mm"
   viewBox="0 0 100 100"
   version="1.1"
   id="svg26768"
   xmlns="http://www.w3.org/2000/svg"
   xmlns:svg="http://www.w3.org/2000/svg">
  <defs
     id="defs26765" />
  <path
     d="m 37.360567,3.5909885 c -0.419554,0.1613672 -0.806835,0.5809215 -0.806835,0.887519 0,0.2743241 -0.371144,0.2904603 -9.407696,0.2904603 -10.585672,0 -10.149985,-0.048407 -10.87614,1.2263896 -0.306591,0.5325111 -0.371139,0.8713809 -0.371139,2.3075473 0,2.1300443 0.3066,2.8884693 1.355479,3.3887073 0.661607,0.322734 0.919791,0.338871 9.98862,0.338871 h 9.310876 v 1.452302 c 0,2.065499 0.03227,2.097772 2.743239,2.097772 h 2.097772 v -0.855246 c 0,-0.645467 0.129093,-1.129569 0.500237,-1.85572 0.822971,-1.678217 2.065498,-2.468915 4.066449,-2.581872 1.161842,-0.06455 1.323209,-0.03227 2.291411,0.435691 1.597533,0.790699 2.388231,1.904131 2.694829,3.824398 l 0.177503,1.032749 h 2.04936 c 2.59801,0 2.630283,-0.03227 2.710967,-2.113908 l 0.06455,-1.436166 h 9.294739 9.310877 l 0.629331,-0.371144 C 76.233879,11.06228 76.42752,10.497497 76.379109,8.2383581 76.330702,6.5440047 76.282289,6.2374073 75.975692,5.8017168 75.217267,4.7366945 75.475454,4.7689678 65.228649,4.7689678 H 55.93391 L 55.724133,4.3332773 C 55.320716,3.4780316 55.369126,3.4780316 46.15507,3.4941687 c -4.695779,0 -8.665407,0.048407 -8.794501,0.09682 z M 36.553732,8.3997254 V 9.6099779 H 27.436497 18.319265 V 8.3997254 7.1894728 h 9.117232 9.117235 z m 37.437143,0 V 9.6099779 H 64.954324 55.917772 V 8.3997254 7.1894728 h 9.036552 9.036551 z"
     id="path6594"
     style="stroke-width:0.0161367" />
  <path
     d="m 45.170729,12.837318 c -0.177503,0.06455 -0.548647,0.38728 -0.839107,0.710015 l -0.516375,0.597058 v 1.920267 1.920267 l -8.423357,0.04841 -8.439494,0.04841 -0.774562,0.451828 c -0.419555,0.24205 -0.968202,0.758425 -1.210253,1.113432 l -0.43569,0.677741 -0.04841,25.43144 -0.03227,25.447575 0.371144,0.710015 c 0.209776,0.387281 0.693877,0.919792 1.065021,1.194116 l 0.693879,0.484101 13.603238,0.04841 13.587101,0.03227 0.580921,0.871381 c 2.017087,3.0337 5.518752,5.389658 9.165646,6.148084 1.452303,0.306597 4.324636,0.306597 5.776938,0 6.43854,-1.355487 11.215004,-6.874238 11.586148,-13.393465 0.403417,-7.019464 -4.405319,-13.39346 -11.279553,-14.95872 l -1.581397,-0.355007 v -3.0337 -3.033699 h 8.471767 8.471768 v -1.210253 -1.210252 h -8.471768 -8.471767 v -1.855721 -1.85572 h 8.471767 8.487905 l -0.04841,-1.17798 -0.04841,-1.161842 -8.423358,-0.04841 -8.439493,-0.03227 v -1.775037 -1.775037 h 8.471767 8.471767 V 32.604773 31.39452 h -8.45563 -8.471768 l -0.04841,-5.373521 c -0.04841,-4.857146 -0.08068,-5.405794 -0.355007,-5.922169 -0.419554,-0.790698 -0.887519,-1.274799 -1.629806,-1.66208 -0.629331,-0.355008 -0.806836,-0.355008 -8.972006,-0.403417 l -8.342674,-0.04841 -0.04841,-1.80731 c -0.08067,-2.065496 -0.371131,-2.775511 -1.339333,-3.243475 -0.580922,-0.274324 -1.581397,-0.322734 -2.130045,-0.09682 z m 20.057918,7.955393 c 0.258187,0.258187 0.290462,0.742288 0.338871,5.438068 l 0.04841,5.163744 H 55.352988 c -5.631709,0 -10.246805,0.03227 -10.246805,0.08068 0,0.04841 0.419554,0.597057 0.935928,1.210252 l 0.919792,1.129569 h 9.327013 9.310876 v 1.775037 1.775037 H 55.352988 c -5.631709,0 -10.246805,0.06455 -10.246805,0.129094 0,0.06455 0.403418,0.613194 0.903655,1.210253 l 0.903656,1.081158 h 9.343149 9.343149 v 1.855721 1.85572 H 55.352988 c -5.631709,0 -10.246805,0.03227 -10.246805,0.08068 0,0.04841 0.419554,0.597059 0.935928,1.210253 l 0.919792,1.12957 h 9.327013 9.310876 v 3.049836 3.0337 l -0.952065,0.112956 c -2.581873,0.290461 -5.389659,1.56526 -7.72948,3.469391 -0.919791,0.758424 -2.468915,2.678692 -3.13052,3.888945 l -0.532511,0.968201 H 40.878368 c -8.374948,0 -12.522079,-0.04841 -12.828677,-0.177503 -0.24205,-0.09682 -0.613194,-0.322735 -0.806835,-0.500238 L 26.871712,59.423966 V 40.28584 c 0,-10.521129 0.06455,-19.21881 0.129093,-19.31563 0.355008,-0.532511 0.613195,-0.548648 19.347904,-0.500237 17.605139,0.03227 18.605615,0.04841 18.879938,0.322734 z M 69.4726,54.808874 c 3.42098,0.903656 6.180357,3.17893 7.745616,6.35786 0.952065,1.904131 1.210252,3.049837 1.194115,5.325111 0,2.259138 -0.258187,3.388707 -1.210251,5.341248 -1.532987,3.114383 -4.469866,5.502614 -7.858573,6.373996 -1.662081,0.419555 -4.227816,0.419555 -5.906033,-0.01614 -4.179406,-1.06502 -7.616523,-4.469864 -8.762228,-8.713817 -0.43569,-1.629806 -0.403418,-4.728053 0.09682,-6.293312 1.22639,-3.937354 4.018039,-6.874234 7.761753,-8.149033 2.275275,-0.774562 4.582822,-0.855245 6.938781,-0.225913 z m -41.90701,6.519227 c 0.500238,0.209777 2.323685,0.242051 12.877087,0.242051 11.634561,0 12.280028,0.01614 12.167072,0.274324 -0.790698,2.081634 -0.952066,5.631708 -0.338871,7.987666 l 0.355007,1.420029 H 40.039259 c -11.473194,0 -12.602762,-0.01613 -12.877087,-0.274323 -0.274323,-0.242051 -0.29046,-0.613195 -0.29046,-5.083061 0,-2.646419 0.03227,-4.808736 0.06455,-4.808736 0.03228,0 0.322735,0.112957 0.629331,0.24205 z"
     id="path6700"
     style="stroke-width:0.0161367" />
  <path
     d="m 71.57037,62.247893 c -0.968201,0.500238 -1.290935,1.113433 -1.436165,2.791649 -0.177504,1.791173 0.03227,3.969628 0.419553,4.64737 0.161368,0.290461 0.613195,0.677741 1.016612,0.887518 0.597059,0.306597 0.903656,0.371144 1.678218,0.306597 1.51685,-0.129093 2.259137,-0.935928 2.468915,-2.678692 l 0.09682,-0.822972 h -0.887518 -0.887519 l -0.08068,0.806836 c -0.129093,1.242526 -0.871382,1.80731 -1.645943,1.242526 -0.403417,-0.290461 -0.645468,-2.291412 -0.500238,-4.066449 0.09682,-1.177979 0.177504,-1.484576 0.500238,-1.791174 0.209777,-0.209776 0.451828,-0.387281 0.548647,-0.387281 0.371145,0 0.968203,0.790699 0.968203,1.290937 0,0.4841 0,0.4841 0.887518,0.4841 h 0.887519 v -0.613194 c 0,-0.726151 -0.419554,-1.597533 -0.984339,-2.017087 -0.258188,-0.177505 -0.790698,-0.338871 -1.37162,-0.387281 -0.774561,-0.06455 -1.081158,0 -1.678217,0.306597 z"
     id="path6702"
     style="stroke-width:0.0161367" />
  <path
     d="m 57.370075,66.491845 v 4.276225 h 0.887518 0.887519 v -1.936403 -1.936404 h 0.968202 0.968202 v 1.936404 1.936403 h 0.887519 0.887518 V 66.491845 62.21562 h -0.887518 -0.887519 v 1.61367 1.613669 H 60.113314 59.145112 V 63.82929 62.21562 h -0.887519 -0.887518 z"
     id="path6704"
     style="stroke-width:0.0161367" />
  <path
     d="m 63.986122,66.491845 v 4.276225 h 2.501188 2.501189 v -0.726151 -0.726151 h -1.61367 -1.613669 v -1.129569 -1.12957 h 1.452302 1.452303 V 66.330478 65.604326 H 67.213462 65.76116 v -1.048885 -1.048885 h 1.532986 1.532986 V 62.861088 62.21562 h -2.420505 -2.420505 z"
     id="path6706"
     style="stroke-width:0.0161367" />
  <path
     d="m 30.341102,65.007269 c -0.274324,0.225914 -0.451827,0.58092 -0.516374,1.016612 -0.06455,0.548647 -0.01614,0.726152 0.338871,1.129569 l 0.419554,0.467964 -0.177503,-0.451827 c -0.387281,-0.871382 0.484101,-1.742764 1.387756,-1.403893 0.53251,0.19364 0.774561,0.822971 0.548647,1.403893 -0.161367,0.43569 -0.161367,0.43569 0.161367,0.14523 0.177504,-0.161367 0.371144,-0.532511 0.435691,-0.822972 0.258188,-1.436166 -1.500713,-2.436642 -2.598009,-1.484576 z"
     id="path6708"
     style="stroke-width:0.0161367" />
  <path
     d="m 60.03263,89.486644 c -1.226389,0.387278 -2.017087,1.726625 -2.017087,3.469389 0,1.742764 0.532511,2.694829 1.823447,3.227342 1.597534,0.661605 3.243477,0.01615 3.905082,-1.5814 l 0.24205,-0.597055 h -0.710015 c -0.580922,0 -0.742288,0.06455 -0.822971,0.322732 -0.274325,0.871382 -1.775037,1.129572 -2.468916,0.435691 -0.726152,-0.742289 -0.693877,-3.017561 0.04841,-3.75985 0.548647,-0.54865 1.56526,-0.532512 2.09777,0.01615 0.225914,0.209776 0.403418,0.467961 0.403418,0.564783 0,0.08068 0.338871,0.161368 0.742288,0.161368 0.677742,0 0.726152,-0.01615 0.629331,-0.371145 -0.225913,-0.710023 -0.742288,-1.371628 -1.290935,-1.629818 -0.693878,-0.338868 -1.936404,-0.451828 -2.581872,-0.258185 z"
     id="path6826"
     style="stroke-width:0.0161367" />
  <path
     d="m 2.989395,92.875349 v 3.38871 h 0.7261554 0.7261462 v -1.532987 -1.532987 h 1.2909398 1.2909399 v 1.532987 1.532987 h 0.7261461 0.7261554 v -3.38871 -3.388705 H 7.7497224 7.0235763 v 1.290935 1.290935 H 5.7326364 4.4416966 V 90.777579 89.486644 H 3.7155504 2.989395 Z"
     id="path6884"
     style="stroke-width:0.0161367" />
  <path
     d="m 9.2827141,90.051427 v 0.548646 l 1.0166049,0.04842 1.000481,0.04841 0.04843,2.775513 0.03232,2.791651 h 0.645465 0.645466 l 0.03232,-2.791651 0.04843,-2.775513 1.016614,-0.04841 1.000472,-0.04842 V 90.051427 89.486644 H 12.026084 9.2828522 Z"
     id="path6886"
     style="stroke-width:0.0161367" />
  <path
     d="m 14.930559,90.051427 v 0.548646 l 1.016604,0.04842 1.000482,0.04841 0.04843,2.775513 0.03223,2.791651 h 0.645465 0.645475 l 0.03223,-2.791651 0.04843,-2.775513 1.016614,-0.04841 1.000472,-0.04842 v -0.548646 -0.564783 h -2.743232 -2.743241 z"
     id="path6888"
     style="stroke-width:0.0161367" />
  <path
     d="m 21.38523,92.875349 v 3.38871 h 0.645475 0.645465 v -1.210255 -1.210251 h 1.097295 c 1.339347,0 2.097771,-0.338874 2.485052,-1.129572 0.564785,-1.113429 0.177505,-2.436639 -0.839107,-2.936876 -0.435692,-0.225915 -0.968203,-0.290461 -2.291411,-0.290461 H 21.38523 Z m 3.453258,-1.95254 c 0.322734,0.274323 0.338871,0.984337 0.03227,1.387757 -0.177503,0.242052 -0.43569,0.306598 -1.161846,0.322731 h -0.952065 l -0.04843,-0.790698 c -0.08066,-1.194113 0,-1.274797 1.016604,-1.194113 0.467971,0.04841 0.984347,0.161368 1.11344,0.274323 z"
     id="path6890"
     style="stroke-width:0.0161367" />
  <path
     d="m 30.099053,92.875349 v 3.38871 h 2.598007 2.581872 l -0.04841,-0.613197 -0.04841,-0.597058 -1.887994,-0.04841 -1.904131,-0.04841 v -0.790703 -0.790697 l 1.662081,-0.04841 1.645943,-0.04841 v -0.564796 -0.564783 l -1.66208,-0.04841 -1.66208,-0.04842 0.04841,-0.677738 0.04841,-0.677743 1.742764,-0.04841 1.726627,-0.04842 v -0.548618 -0.564783 h -2.420505 -2.420504 z"
     id="path6892"
     style="stroke-width:0.0161367" />
  <path
     d="m 70.763536,92.875349 v 3.38871 h 0.645468 0.645468 v -3.38871 -3.388705 h -0.645468 -0.645468 z"
     id="path6894"
     style="stroke-width:0.0161367" />
  <path
     d="m 73.345407,92.875349 v 3.38871 h 0.645468 0.645469 v -3.38871 -3.388705 h -0.645469 -0.645468 z"
     id="path6896"
     style="stroke-width:0.0161367" />
  <path
     d="m 52.690432,90.616211 c 0,0.532513 -0.04841,0.645467 -0.322734,0.645467 -0.258187,0 -0.322734,0.112959 -0.322734,0.484104 0,0.371145 0.06455,0.484099 0.322734,0.484099 0.306597,0 0.322734,0.112955 0.322734,1.758902 0,2.097771 0.09682,2.275276 1.307073,2.275276 0.774561,0 0.790698,-0.01615 0.790698,-0.484104 0,-0.403416 -0.06455,-0.4841 -0.403417,-0.4841 -0.403418,0 -0.403418,0 -0.403418,-1.532987 0,-1.532987 0,-1.532987 0.403418,-1.532987 0.33887,0 0.403417,-0.08068 0.403417,-0.484099 0,-0.40342 -0.06455,-0.484104 -0.403417,-0.484104 -0.355008,0 -0.403418,-0.06455 -0.403418,-0.645467 V 89.970744 H 53.3359 52.690432 Z"
     id="path6908"
     style="stroke-width:0.0161367" />
  <path
     d="m 86.577502,90.616211 c 0,0.532513 -0.04841,0.645467 -0.322734,0.645467 -0.258187,0 -0.322734,0.112959 -0.322734,0.484104 0,0.371145 0.06455,0.484099 0.322734,0.484099 0.306597,0 0.322734,0.112955 0.322734,1.758902 0,2.097771 0.09682,2.275276 1.307073,2.275276 0.774561,0 0.790698,-0.01615 0.790698,-0.484104 0,-0.403416 -0.06455,-0.4841 -0.403418,-0.4841 -0.403417,0 -0.403417,0 -0.403417,-1.532987 0,-1.532987 0,-1.532987 0.403417,-1.532987 0.338871,0 0.403418,-0.08068 0.403418,-0.484099 0,-0.40342 -0.06455,-0.484104 -0.403418,-0.484104 -0.355007,0 -0.403417,-0.06455 -0.403417,-0.645467 V 89.970744 H 87.22297 86.577502 Z"
     id="path6910"
     style="stroke-width:0.0161367" />
  <path
     d="m 42.282261,91.423046 c -0.371144,0.177506 -0.790699,0.54865 -0.968202,0.839111 -0.387281,0.677738 -0.403418,2.259134 -0.03227,2.98529 0.500238,0.935928 2.146182,1.468436 3.065973,1.000474 0.516375,-0.274322 1.242527,-0.984341 1.242527,-1.226389 0,-0.306597 -1.194117,-0.274327 -1.452304,0.03225 -0.467964,0.564783 -1.775037,0.112959 -1.775037,-0.613192 0,-0.242052 0.225914,-0.274328 1.71049,-0.274328 h 1.726627 L 45.687108,93.40784 c -0.129094,-0.984341 -0.532511,-1.629809 -1.226389,-2.000953 -0.726151,-0.387278 -1.371619,-0.387278 -2.178454,0.01615 z m 1.726626,1.081159 c 0.548648,0.500237 0.371144,0.69388 -0.677741,0.69388 -0.532511,0 -0.968202,-0.04842 -0.968202,-0.129097 0,-0.06455 0.112957,-0.29046 0.258187,-0.4841 0.290461,-0.419552 0.968202,-0.467961 1.387756,-0.08068 z"
     id="path7020"
     style="stroke-width:0.0161367" />
  <path
     d="m 48.623984,91.390776 c -0.484101,0.258185 -0.613195,0.274322 -0.613195,0.09682 0,-0.161369 -0.193641,-0.225915 -0.645468,-0.225915 h -0.645468 v 2.50119 2.501191 h 0.645468 0.645468 v -1.694355 c 0,-1.500716 0.03227,-1.726626 0.33887,-2.033224 0.435692,-0.435691 1.12957,-0.355007 1.387757,0.177501 0.129093,0.242052 0.209777,1.03275 0.209777,1.968678 v 1.5814 h 0.645468 0.645468 v -1.936407 c 0,-1.048883 -0.08068,-2.097771 -0.177504,-2.307547 -0.371144,-0.806836 -1.516849,-1.097296 -2.436641,-0.629329 z"
     id="path7022"
     style="stroke-width:0.0161367" />
  <path
     d="m 65.922526,91.374637 c -0.693879,0.355007 -1.290936,1.468441 -1.290936,2.388231 0,0.355007 0.161367,0.984337 0.371144,1.371619 0.467964,0.952067 1.177979,1.323211 2.339821,1.242527 1.468441,-0.112955 2.339822,-1.081159 2.339822,-2.614146 0,-1.532987 -0.871381,-2.50119 -2.339822,-2.614144 -0.613195,-0.04841 -1.016612,0.01615 -1.420029,0.225913 z m 2.081634,1.274798 c 0.774561,0.984341 0.225914,2.64642 -0.871382,2.64642 -0.597057,0 -0.839108,-0.225913 -1.048885,-0.984341 -0.19364,-0.645467 0.04841,-1.678217 0.451828,-1.904126 0.516374,-0.306599 1.113432,-0.193644 1.468439,0.242047 z"
     id="path7024"
     style="stroke-width:0.0161367" />
  <path
     d="m 76.814799,91.423046 c -0.371144,0.177506 -0.790699,0.54865 -0.968203,0.839111 -0.387281,0.677738 -0.403417,2.259134 -0.03227,2.98529 0.500238,0.935928 2.146181,1.468436 3.065973,1.000474 0.516374,-0.274322 1.242526,-0.984341 1.242526,-1.226389 0,-0.306597 -1.194116,-0.274327 -1.452304,0.03225 -0.467964,0.564783 -1.775037,0.112959 -1.775037,-0.613192 0,-0.242052 0.225914,-0.274328 1.71049,-0.274328 h 1.726628 L 80.219645,93.40784 c -0.129094,-0.984341 -0.532512,-1.629809 -1.22639,-2.000953 -0.726151,-0.387278 -1.371619,-0.387278 -2.178454,0.01615 z m 1.726626,1.081159 c 0.548648,0.500237 0.371144,0.69388 -0.677741,0.69388 -0.532511,0 -0.968202,-0.04842 -0.968202,-0.129097 0,-0.06455 0.112956,-0.29046 0.258187,-0.4841 0.290461,-0.419552 0.968202,-0.467961 1.387756,-0.08068 z"
     id="path7026"
     style="stroke-width:0.0161367" />
  <path
     d="m 82.494917,91.261678 c -0.645469,0.193644 -0.919792,0.467966 -1.258662,1.210256 -0.387282,0.822968 -0.387282,1.920264 0,2.759375 0.38728,0.871382 1.194115,1.25866 2.323684,1.145705 0.677741,-0.06455 0.903655,-0.161368 1.355483,-0.661605 0.290461,-0.306599 0.532511,-0.726152 0.532511,-0.903653 0,-0.274327 -0.112957,-0.322736 -0.613194,-0.322736 -0.516375,0 -0.661605,0.08068 -0.806835,0.403415 -0.129094,0.290461 -0.306598,0.40342 -0.645469,0.40342 -0.710014,0 -1.000475,-0.43569 -1.000475,-1.500715 0,-1.000475 0.355007,-1.565259 0.952065,-1.565259 0.322735,0 0.822972,0.403416 0.822972,0.661606 0,0.08068 0.322734,0.145231 0.710014,0.145231 h 0.726152 l -0.14523,-0.500238 c -0.209777,-0.726151 -0.564785,-1.048887 -1.37162,-1.258664 -0.806834,-0.209777 -0.952065,-0.209777 -1.581396,-0.01615 z"
     id="path7028"
     style="stroke-width:0.0161367" />
  <path
     d="m 90.611676,91.374637 c -0.693877,0.355007 -1.290936,1.468441 -1.290936,2.388231 0,0.355007 0.161368,0.984337 0.371145,1.371619 0.467964,0.952067 1.177979,1.323211 2.339822,1.242527 1.468439,-0.112955 2.339821,-1.081159 2.339821,-2.614146 0,-1.532987 -0.871382,-2.50119 -2.339821,-2.614144 -0.613195,-0.04841 -1.016612,0.01615 -1.420031,0.225913 z m 2.081635,1.274798 c 0.774562,0.984341 0.225914,2.64642 -0.871382,2.64642 -0.597058,0 -0.839108,-0.225913 -1.048885,-0.984341 -0.193641,-0.645467 0.04841,-1.678217 0.451827,-1.904126 0.516374,-0.306599 1.113433,-0.193644 1.46844,0.242047 z"
     id="path7030"
     style="stroke-width:0.0161367" />
  <path
     d="m 97.276138,91.342362 c -0.290468,0.129093 -0.532511,0.306599 -0.532511,0.40342 0,0.08068 -0.06455,0.161364 -0.161371,0.161364 -0.08066,0 -0.16137,-0.14523 -0.16137,-0.322732 0,-0.25819 -0.112956,-0.322736 -0.564785,-0.322736 h -0.564784 v 2.50119 2.501191 h 0.645474 0.645465 v -1.500716 c 0,-1.726625 0.177504,-2.113908 1.048888,-2.275276 0.532511,-0.112955 0.564785,-0.145231 0.564785,-0.742285 0,-0.710018 -0.112955,-0.758426 -0.919791,-0.40342 z"
     id="path7032"
     style="stroke-width:0.0161367" />
  <path
     d="m 35.811444,91.552139 c 0.04841,0.14523 0.451827,1.258664 0.887519,2.452781 l 0.774561,2.178455 0.710015,0.04841 0.710015,0.04841 0.855245,-2.388231 c 0.467964,-1.307074 0.839108,-2.452778 0.839108,-2.517324 0,-0.08068 -0.306597,-0.11296 -0.677741,-0.08068 l -0.661605,0.04841 -0.451828,1.597532 c -0.258187,0.871382 -0.484101,1.678217 -0.516374,1.77504 -0.03227,0.09682 -0.177503,-0.225915 -0.322734,-0.710015 -0.129094,-0.484103 -0.371144,-1.307072 -0.516375,-1.823447 l -0.258187,-0.919795 h -0.726151 c -0.629331,0 -0.726152,0.04842 -0.645468,0.290461 z"
     id="path7066"
     style="stroke-width:0.0161367" />
</svg>
