<?xml version="1.0" encoding="UTF-8" standalone="no"?>
<!-- Created with Inkscape (http://www.inkscape.org/) -->

<svg
   width="100mm"
   height="100mm"
   viewBox="0 0 100 100"
   version="1.1"
   id="svg26768"
   sodipodi:docname="index.svg"
   inkscape:version="1.1.1 (3bf5ae0d25, 2021-09-20)"
   xmlns:inkscape="http://www.inkscape.org/namespaces/inkscape"
   xmlns:sodipodi="http://sodipodi.sourceforge.net/DTD/sodipodi-0.dtd"
   xmlns="http://www.w3.org/2000/svg"
   xmlns:svg="http://www.w3.org/2000/svg">
  <sodipodi:namedview
     id="namedview26770"
     pagecolor="#ffffff"
     bordercolor="#666666"
     borderopacity="1.0"
     inkscape:pageshadow="2"
     inkscape:pageopacity="0.0"
     inkscape:pagecheckerboard="0"
     inkscape:document-units="mm"
     showgrid="false"
     width="209mm"
     inkscape:zoom="0.7500982"
     inkscape:cx="13.998167"
     inkscape:cy="135.31562"
     inkscape:window-width="1920"
     inkscape:window-height="1027"
     inkscape:window-x="1912"
     inkscape:window-y="-8"
     inkscape:window-maximized="1"
     inkscape:current-layer="layer1" />
  <defs
     id="defs26765" />
  <g
     inkscape:label="Layer 1"
     inkscape:groupmode="layer"
     id="layer1">
    <path
       d="M 35.295705,5.8737172 C 22.027718,10.322055 21.950691,10.360568 21.21893,11.689293 c -0.30811,0.539192 -0.327367,2.753733 -0.327367,26.670771 v 26.093064 l 0.442908,0.712503 c 0.250339,0.404395 0.673991,0.905074 0.92433,1.097643 0.269596,0.211825 6.21997,2.291568 13.248729,4.621649 12.305143,4.101715 12.805821,4.255769 14.269344,4.255769 1.463522,0 1.964201,-0.154054 14.057518,-4.159484 6.874704,-2.291569 12.844335,-4.37131 13.229472,-4.62165 0.404395,-0.250339 0.905073,-0.808789 1.1169,-1.23244 0.385137,-0.751018 0.385137,-1.059128 0.385137,-26.786312 0,-28.6734846 0.07703,-26.728541 -1.174669,-27.787669 C 77.02535,10.245027 72.788839,8.742992 64.084732,5.8352035 51.336681,1.5794343 51.317424,1.5794343 49.680589,1.5986916 c -1.59832,0 -1.867916,0.096284 -14.384884,4.2750256 z m 27.845439,2.1567701 c 6.816934,2.2723107 12.555482,4.2750257 12.748051,4.4483377 0.346624,0.30811 0.365881,0.693247 0.365881,5.700034 V 23.53227 H 49.776874 23.298672 v -5.353411 c 0,-2.984815 0.07703,-5.468951 0.192569,-5.623007 0.09628,-0.154055 5.757806,-2.15677 12.651766,-4.4675946 9.936547,-3.3121825 12.69028,-4.1787418 13.537582,-4.1787418 0.885817,-0.019257 3.042586,0.6354772 13.460555,4.1209717 z M 76.255076,31.138735 v 6.836191 H 49.776874 23.298672 v -6.836191 -6.83619 h 26.478202 26.478202 z m 0,14.442656 v 6.83619 H 49.776874 23.298672 v -6.83619 -6.83619 h 26.478202 26.478202 z m 0,12.959876 c 0,4.871989 -0.03851,5.391924 -0.327367,5.661521 -0.577706,0.519935 -25.284276,8.627079 -26.24712,8.627079 -1.078385,0 -25.611642,-8.1264 -26.073807,-8.646335 -0.269596,-0.288853 -0.30811,-1.020615 -0.30811,-5.661522 v -5.334153 h 26.478202 26.478202 z"
       id="path3449"
       style="stroke-width:0.0192568" />
    <path
       d="m 28.112891,16.69608 v 1.251697 h 3.562521 3.562522 V 16.69608 15.444383 h -3.562522 -3.562521 z"
       id="path3451"
       style="stroke-width:0.0192568" />
    <path
       d="m 37.741328,16.69608 v 1.251697 h 9.628437 9.628437 V 16.69608 15.444383 h -9.628437 -9.628437 z"
       id="path3453"
       style="stroke-width:0.0192568" />
    <path
       d="m 59.386054,15.71398 c -0.05777,0.134798 -0.07703,0.673991 -0.03852,1.193926 l 0.05777,0.943587 6.027402,0.05777 6.008145,0.03852 v -1.251697 -1.251697 h -5.969633 c -4.910503,0 -6.008145,0.03851 -6.085173,0.269596 z"
       id="path3455"
       style="stroke-width:0.0192568" />
    <path
       d="m 28.112891,31.138735 v 1.251697 H 46.118068 64.123245 V 31.138735 29.887038 H 46.118068 28.112891 Z"
       id="path3457"
       style="stroke-width:0.0192568" />
    <path
       d="m 66.626639,31.138735 v 1.251697 h 2.407109 2.40711 v -1.251697 -1.251697 h -2.40711 -2.407109 z"
       id="path3459"
       style="stroke-width:0.0192568" />
    <path
       d="m 28.112891,45.581391 v 1.251697 h 4.814219 4.814218 V 45.581391 44.329694 H 32.92711 28.112891 Z"
       id="path3461"
       style="stroke-width:0.0192568" />
    <path
       d="m 40.12918,44.59929 c -0.05777,0.134798 -0.07703,0.673991 -0.03851,1.193927 l 0.05777,0.943587 3.620292,0.05777 3.601036,0.03852 v -1.251699 -1.251697 h -3.562522 c -2.850018,0 -3.601036,0.05777 -3.678063,0.269596 z"
       id="path3463"
       style="stroke-width:0.0192568" />
    <path
       d="m 49.757617,44.59929 c -0.05777,0.134798 -0.07703,0.673991 -0.03852,1.193927 l 0.05777,0.943587 10.84162,0.05777 10.822364,0.03852 V 45.581393 44.329696 H 60.657007 c -8.99296,0 -10.822363,0.03851 -10.89939,0.269596 z"
       id="path3465"
       style="stroke-width:0.0192568" />
    <path
       d="m 28.112891,60.024046 v 1.251697 h 7.221327 7.221329 v -1.251697 -1.251697 h -7.221329 -7.221327 z"
       id="path3467"
       style="stroke-width:0.0192568" />
    <path
       d="m 44.943399,59.041946 c -0.05777,0.134798 -0.07703,0.673991 -0.03851,1.193926 l 0.05777,0.943587 13.248729,0.05777 13.229473,0.03851 v -1.251691 -1.251697 h -13.19096 c -11.034188,0 -13.210215,0.03851 -13.306499,0.269595 z"
       id="path3469"
       style="stroke-width:0.0192568" />
    <path
       d="m 35.815641,94.590133 v 4.043942 h 0.770274 0.770276 v -4.043942 -4.043942 h -0.770276 -0.770274 z"
       id="path3497"
       style="stroke-width:0.0192568" />
    <path
       d="m 49.680589,91.894175 v 1.347983 L 49.06437,92.857013 c -0.828046,-0.500672 -1.48278,-0.481415 -2.291568,0.05778 -0.866559,0.57771 -1.328724,1.540556 -1.328724,2.792253 0,2.407108 1.848659,3.812855 3.620292,2.734473 0.500678,-0.308108 0.616219,-0.327365 0.616219,-0.09628 0,0.211822 0.211826,0.288842 0.770276,0.288842 h 0.770275 v -4.043939 -4.043934 h -0.770275 -0.770276 z m -0.404394,2.407108 c 0.154055,0.154058 0.308111,0.673995 0.346624,1.193925 0.07703,0.751016 0.01926,1.020618 -0.327366,1.44427 -1.116899,1.444261 -2.753734,-0.134801 -2.118257,-2.060486 0.327367,-1.020618 1.347981,-1.290211 2.098999,-0.577709 z"
       id="path3499"
       style="stroke-width:0.0192568" />
    <path
       d="m 41.169051,92.818498 c -0.577706,0.308117 -0.731761,0.327374 -0.731761,0.115544 0,-0.192573 -0.231083,-0.269593 -0.770274,-0.269593 H 38.89674 v 2.984817 2.984809 h 0.770276 0.770274 v -2.021971 c 0,-1.790892 0.03852,-2.060485 0.404394,-2.426365 0.519936,-0.519929 1.347982,-0.423651 1.656092,0.21183 0.154054,0.28885 0.250339,1.23244 0.250339,2.349336 v 1.88717 h 0.770275 0.770275 v -2.310822 c 0,-1.251697 -0.09628,-2.503394 -0.211826,-2.75373 -0.442907,-0.962846 -1.810146,-1.309469 -2.907788,-0.751025 z"
       id="path3645"
       style="stroke-width:0.0192568" />
    <path
       d="m 53.628248,92.857013 c -0.442908,0.21183 -0.943586,0.654738 -1.155411,1.001361 -0.462165,0.808788 -0.481423,2.695958 -0.03851,3.562518 0.596964,1.116905 2.561164,1.752378 3.658807,1.193934 0.61622,-0.327373 1.482779,-1.174676 1.482779,-1.463527 0,-0.36588 -1.425009,-0.327365 -1.733119,0.03855 -0.55845,0.673988 -2.118256,0.134793 -2.118256,-0.731768 0,-0.28885 0.269597,-0.327365 2.041229,-0.327365 h 2.060485 l -0.134803,-0.905068 c -0.154055,-1.174676 -0.635476,-1.94495 -1.463523,-2.387859 -0.866559,-0.462158 -1.636834,-0.462158 -2.599678,0.01923 z m 2.060486,1.290211 c 0.654734,0.596967 0.442908,0.828054 -0.808789,0.828054 -0.635476,0 -1.155412,-0.05778 -1.155412,-0.154066 0,-0.07701 0.134798,-0.346622 0.308109,-0.577701 0.346625,-0.500681 1.155414,-0.558452 1.656092,-0.09629 z"
       id="path3647"
       style="stroke-width:0.0192568" />
    <path
       d="m 58.538752,92.741469 c 0,0.05778 0.385138,0.712511 0.866559,1.463527 0.481422,0.751017 0.866559,1.38649 0.866559,1.44427 0,0.05778 -0.288853,0.500672 -0.654733,1.001353 -0.346624,0.519937 -0.789532,1.15541 -0.982101,1.444269 l -0.327367,0.539187 h 0.943587 c 0.905073,0 0.962843,-0.03846 1.386495,-0.770274 0.231082,-0.423651 0.500678,-0.770274 0.596963,-0.770274 0.09628,0 0.36588,0.346623 0.577707,0.770274 0.385137,0.751025 0.42365,0.770274 1.367237,0.770274 h 0.982101 L 63.815135,98.094888 C 63.641823,97.806029 63.179658,97.132042 62.813777,96.57359 l -0.654733,-0.982104 0.9821,-1.463519 1.001358,-1.463518 h -0.943587 c -0.905073,0 -0.943587,0.01923 -1.425009,0.885817 l -0.481421,0.885817 -0.462166,-0.828054 c -0.442907,-0.789531 -0.519935,-0.847294 -1.386494,-0.905066 -0.500679,-0.03855 -0.905073,-0.01923 -0.905073,0.03846 z"
       id="path3767"
       style="stroke-width:0.0192568" />
  </g>
</svg>
