<?xml version="1.0" encoding="UTF-8" standalone="no"?>
<!-- Created with Inkscape (http://www.inkscape.org/) -->

<svg
   width="100mm"
   height="100mm"
   viewBox="0 0 100 100"
   version="1.1"
   id="svg26768"
   sodipodi:docname="indexer.svg"
   inkscape:version="1.1.1 (3bf5ae0d25, 2021-09-20)"
   xmlns:inkscape="http://www.inkscape.org/namespaces/inkscape"
   xmlns:sodipodi="http://sodipodi.sourceforge.net/DTD/sodipodi-0.dtd"
   xmlns="http://www.w3.org/2000/svg"
   xmlns:svg="http://www.w3.org/2000/svg">
  <sodipodi:namedview
     id="namedview26770"
     pagecolor="#ffffff"
     bordercolor="#666666"
     borderopacity="1.0"
     inkscape:pageshadow="2"
     inkscape:pageopacity="0.0"
     inkscape:pagecheckerboard="0"
     inkscape:document-units="mm"
     showgrid="false"
     width="209mm"
     inkscape:zoom="0.7500982"
     inkscape:cx="13.998167"
     inkscape:cy="241.96832"
     inkscape:window-width="1920"
     inkscape:window-height="1027"
     inkscape:window-x="1912"
     inkscape:window-y="-8"
     inkscape:window-maximized="1"
     inkscape:current-layer="layer1" />
  <defs
     id="defs26765" />
  <g
     inkscape:label="Layer 1"
     inkscape:groupmode="layer"
     id="layer1">
    <path
       d="m 26.567008,1.5827194 c -0.382601,0.1216903 -0.88694,0.3130335 -1.113024,0.4347729 -0.782596,0.4347729 -1.965188,1.6521419 -2.417356,2.5390827 l -0.46955,0.869558 v 33.912459 33.91246 l 0.46955,0.869545 c 0.573907,1.113025 1.547798,2.086928 2.660822,2.660823 l 0.869558,0.469562 24.903919,0.05214 c 24.799573,0.03484 24.903918,0.03484 25.860425,-0.313035 1.269541,-0.486956 2.573873,-1.669536 3.182557,-2.921695 l 0.486946,-0.991285 V 39.338556 5.6000078 L 80.618254,4.782622 C 80.096519,3.6348201 78.948717,2.4696232 77.800915,1.913111 L 76.827012,1.4261659 52.044821,1.3913271 C 32.46256,1.3739077 27.12352,1.4087465 26.567008,1.5826335 Z m 50.486088,2.365171 c 0.97389,0.5565123 1.721709,1.6869316 1.860831,2.8347336 0.05213,0.50434 0.08697,12.051977 0.05213,25.686515 l -0.05213,24.782191 -0.417378,0.904324 c -0.50434,1.147813 -1.930398,2.486921 -3.060818,2.93909 -0.834768,0.313033 -1.582587,0.330415 -23.738721,0.330415 H 28.827835 l -1.165197,-0.573895 c -1.252146,-0.608684 -1.98257,-1.356503 -2.626044,-2.643438 l -0.382601,-0.782597 -0.05214,-25.303901 c -0.03483,-18.643161 0,-25.4952207 0.139134,-25.9995608 C 25.106196,4.8522259 25.993137,4.0000626 27.34964,3.5826846 27.593107,3.5131293 38.70597,3.4609943 52.044857,3.478291 L 76.305313,3.513007 Z M 25.871362,60.538231 c 0.278256,0.260861 1.026075,0.730411 1.652154,1.043458 l 1.130407,0.539117 H 51.78396 74.914009 l 1.165196,-0.573907 c 0.799979,-0.382601 1.443442,-0.886941 2.052126,-1.56518 l 0.886952,-0.991297 -0.05213,6.799887 -0.05214,6.799885 -0.521723,0.834769 c -0.3826,0.626068 -0.782596,0.991286 -1.460847,1.339108 l -0.921719,0.486946 H 51.92318 c -18.573594,0 -24.260456,-0.05214 -24.816969,-0.208689 -0.921717,-0.278257 -2.104309,-1.460849 -2.347788,-2.330394 -0.12169,-0.434773 -0.191294,-3.095607 -0.191294,-7.199882 l 0.01742,-6.52163 0.382601,0.521735 c 0.208689,0.278256 0.608685,0.747806 0.904323,1.026074 z"
       id="path3405"
       style="stroke-width:0.017391" />
    <path
       d="m 43.958011,14.556402 c -3.634724,1.147814 -7.130315,2.243443 -7.773777,2.43475 -1.373886,0.417378 -2.156482,1.026062 -2.591268,1.999966 -0.295638,0.660856 -0.330427,1.460835 -0.330427,13.791067 0,11.425884 0.03483,13.164988 0.260873,13.738895 0.313034,0.747806 0.869545,1.356491 1.47823,1.68692 0.243479,0.12169 3.860808,1.286935 8.034651,2.591266 6.486841,2.017348 7.756382,2.365171 8.730284,2.365171 0.973891,0 2.243432,-0.347823 8.92158,-2.434737 4.278186,-1.321714 7.982478,-2.573873 8.225944,-2.747784 0.713029,-0.539118 1.182592,-1.391282 1.304331,-2.347776 0.05214,-0.504341 0.08697,-6.625976 0.05214,-13.599774 l -0.05214,-12.695438 -0.399996,-0.643462 c -0.226084,-0.365206 -0.626079,-0.79999 -0.88694,-0.991285 -0.260861,-0.191306 -3.878191,-1.408675 -8.03465,-2.712994 -6.486841,-2.052137 -7.738988,-2.399961 -8.938975,-2.452133 -1.373885,-0.06956 -1.478229,-0.05214 -7.99986,2.017348 z m 16.086683,2.43475 c 4.069485,1.269542 7.530299,2.417344 7.70421,2.57386 0.260874,0.243479 0.295651,0.678252 0.295651,4.417321 v 4.139064 H 51.78396 35.523377 v -4.156459 c 0,-3.304284 0.05214,-4.20862 0.243466,-4.399926 0.191307,-0.191294 6.64337,-2.295603 14.191063,-4.608615 0.747819,-0.226083 1.599982,-0.365206 1.999965,-0.330428 0.382601,0.03471 4.017326,1.095642 8.086823,2.365183 z m 7.999861,15.82581 v 3.999931 H 51.78396 35.523377 v -3.999931 -3.99993 H 51.78396 68.044555 Z m 0,8.852024 c 0,3.547762 -0.03471,4.20862 -0.278256,4.434704 -0.139122,0.156517 -0.295651,0.278255 -0.330429,0.278255 -0.03484,0 -3.443417,1.060853 -7.599865,2.365184 -6.191202,1.930398 -7.669432,2.347776 -8.312906,2.278221 -0.834768,-0.06956 -15.425827,-4.573837 -15.773638,-4.852094 -0.173912,-0.139133 -0.226084,-1.234763 -0.226084,-4.41732 V 37.512539 H 51.78396 68.044555 Z"
       id="path3407"
       style="stroke-width:0.017391" />
    <path
       d="m 39.87113,24.121455 v 1.04347 h 2.173865 2.173878 v -1.04347 -1.043458 H 42.044995 39.87113 Z"
       id="path3409"
       style="stroke-width:0.017391" />
    <path
       d="m 46.305799,24.121455 v 1.04347 h 3.304296 3.304284 v -1.04347 -1.043458 h -3.304284 -3.304296 z"
       id="path3411"
       style="stroke-width:0.017391" />
    <path
       d="m 55.001307,24.121455 v 1.04347 h 4.347741 4.347753 v -1.04347 -1.043458 h -4.347753 -4.347741 z"
       id="path3413"
       style="stroke-width:0.017391" />
    <path
       d="m 39.87113,32.816962 v 1.043457 h 7.565076 7.565101 V 32.816962 31.773505 H 47.436206 39.87113 Z"
       id="path3415"
       style="stroke-width:0.017391" />
    <path
       d="m 57.262133,32.816962 v 1.043457 h 3.217335 3.217333 v -1.043457 -1.043457 h -3.217333 -3.217335 z"
       id="path3417"
       style="stroke-width:0.017391" />
    <path
       d="m 39.87113,41.51247 v 1.043457 h 3.217335 3.217334 V 41.51247 40.469012 H 43.088465 39.87113 Z"
       id="path3419"
       style="stroke-width:0.017391" />
    <path
       d="m 48.566626,41.51247 v 1.043457 h 1.043469 1.043458 V 41.51247 40.469012 h -1.043458 -1.043469 z"
       id="path3421"
       style="stroke-width:0.017391" />
    <path
       d="m 52.914379,41.51247 v 1.043457 h 5.391212 5.39121 V 41.51247 40.469012 h -5.39121 -5.391212 z"
       id="path3423"
       style="stroke-width:0.017391" />
    <path
       d="m 30.132166,66.764211 c -0.730424,0.399983 -1.252159,1.339096 -1.165197,2.104309 0.104394,0.765202 0.486945,1.426059 1.026063,1.704315 l 0.365218,0.208689 -0.365218,-0.486945 c -0.208689,-0.260862 -0.382601,-0.678252 -0.382601,-0.904336 0,-0.573895 0.88694,-1.443452 1.478243,-1.443452 0.59129,0 1.47823,0.869557 1.47823,1.443452 0,0.226084 -0.173912,0.643474 -0.382601,0.904336 l -0.365218,0.486945 0.382613,-0.208689 c 1.147802,-0.626067 1.373886,-2.399961 0.399983,-3.356469 -0.591289,-0.608684 -1.756486,-0.817373 -2.469515,-0.452155 z"
       id="path3425"
       style="stroke-width:0.017391" />
    <path
       d="m 34.306008,94.902857 v 3.652108 h 0.695634 0.695647 v -3.652108 -3.652118 h -0.695647 -0.695634 z"
       id="path3509"
       style="stroke-width:0.017391" />
    <path
       d="m 46.827522,92.468108 v 1.217381 l -0.5565,-0.347824 c -0.747819,-0.452167 -1.339109,-0.434773 -2.069532,0.05214 -0.782596,0.521735 -1.199987,1.39128 -1.199987,2.521688 0,2.173877 1.669537,3.443417 3.269519,2.469528 0.452155,-0.278257 0.5565,-0.295651 0.5565,-0.08697 0,0.191294 0.191306,0.260861 0.695646,0.260861 h 0.695635 v -3.65211 -3.65212 h -0.695635 -0.695646 z m -0.365206,2.173876 c 0.139134,0.139135 0.278256,0.608685 0.313046,1.078248 0.06956,0.678251 0.01742,0.921717 -0.295651,1.304318 -1.00868,1.304331 -2.486923,-0.12169 -1.913016,-1.860831 0.295651,-0.92173 1.21737,-1.165196 1.895621,-0.521735 z"
       id="path3511"
       style="stroke-width:0.017391" />
    <path
       d="m 39.140707,93.302876 c -0.521735,0.278255 -0.660857,0.295651 -0.660857,0.104393 0,-0.173912 -0.208701,-0.243466 -0.695646,-0.243466 h -0.695635 v 2.6956 2.695611 h 0.695635 0.695646 V 96.72896 c 0,-1.617364 0.03484,-1.860843 0.365206,-2.191271 0.469563,-0.46955 1.217369,-0.382601 1.495625,0.191306 0.139135,0.260861 0.226084,1.113025 0.226084,2.121693 v 1.704326 h 0.695647 0.695634 v -2.086927 c 0,-1.130408 -0.08697,-2.260827 -0.191295,-2.486911 -0.399995,-0.869545 -1.634759,-1.182591 -2.626044,-0.678251 z"
       id="path3657"
       style="stroke-width:0.017391" />
    <path
       d="m 50.566591,93.337665 c -0.399995,0.191294 -0.852163,0.59129 -1.043457,0.904324 -0.417378,0.730424 -0.434774,2.43475 -0.03484,3.217334 0.539117,1.008693 2.313011,1.582587 3.304296,1.078247 0.556513,-0.295651 1.339109,-1.060853 1.339109,-1.321714 0,-0.330428 -1.286937,-0.29565 -1.565192,0.03484 -0.504341,0.608685 -1.913016,0.121691 -1.913016,-0.660856 0,-0.260862 0.243478,-0.295652 1.843448,-0.295652 h 1.860831 l -0.12169,-0.817373 c -0.139134,-1.060852 -0.573907,-1.756499 -1.321726,-2.156482 -0.782596,-0.41739 -1.478231,-0.41739 -2.347776,0.01742 z m 1.860844,1.165197 c 0.591289,0.539118 0.399982,0.747807 -0.730425,0.747807 -0.573907,0 -1.043457,-0.05214 -1.043457,-0.139123 0,-0.06956 0.12169,-0.313045 0.278256,-0.521734 0.313033,-0.452168 1.043457,-0.50434 1.495626,-0.08697 z"
       id="path3659"
       style="stroke-width:0.017391" />
    <path
       d="m 61.696836,93.337665 c -0.399995,0.191294 -0.852163,0.59129 -1.043457,0.904324 -0.417391,0.730424 -0.434773,2.43475 -0.03484,3.217334 0.539116,1.008693 2.312998,1.582587 3.304296,1.078247 0.556511,-0.295651 1.339095,-1.060853 1.339095,-1.321714 0,-0.330428 -1.286935,-0.29565 -1.56518,0.03484 -0.504339,0.608685 -1.913015,0.121691 -1.913015,-0.660856 0,-0.260862 0.243479,-0.295652 1.843448,-0.295652 h 1.860831 l -0.12169,-0.817373 c -0.139122,-1.060852 -0.573894,-1.756499 -1.321713,-2.156482 -0.782596,-0.41739 -1.478231,-0.41739 -2.347789,0.01742 z m 1.860843,1.165197 c 0.59129,0.539118 0.399983,0.747807 -0.730423,0.747807 -0.573907,0 -1.04347,-0.05214 -1.04347,-0.139123 0,-0.06956 0.12169,-0.313045 0.278269,-0.521734 0.313033,-0.452168 1.043457,-0.50434 1.495624,-0.08697 z"
       id="path3661"
       style="stroke-width:0.017391" />
    <path
       d="m 68.618462,93.250704 c -0.313045,0.139134 -0.573907,0.330427 -0.573907,0.434785 0,0.08697 -0.06956,0.173899 -0.173912,0.173899 -0.08697,0 -0.173912,-0.156517 -0.173912,-0.347811 0,-0.278268 -0.121689,-0.347824 -0.608684,-0.347824 h -0.608684 v 2.6956 2.695612 h 0.695634 0.695646 v -1.617364 c 0,-1.860832 0.191307,-2.278222 1.13042,-2.452134 0.573907,-0.12169 0.608684,-0.156517 0.608684,-0.799978 0,-0.765214 -0.12169,-0.817386 -0.991285,-0.434785 z"
       id="path3663"
       style="stroke-width:0.017391" />
    <path
       d="m 54.827395,93.233309 c 0,0.05213 0.347823,0.643474 0.782596,1.321726 0.434773,0.678251 0.782584,1.252146 0.782584,1.304318 0,0.05214 -0.260862,0.452168 -0.59129,0.904336 -0.313034,0.469562 -0.713029,1.043457 -0.886941,1.304331 l -0.295638,0.486945 h 0.852151 c 0.817373,0 0.869558,-0.03471 1.252159,-0.695647 0.208689,-0.382601 0.452155,-0.695634 0.539117,-0.695634 0.08697,0 0.330428,0.313033 0.521723,0.695634 0.347823,0.678252 0.3826,0.695647 1.234763,0.695647 H 59.90556 L 59.592526,98.06802 c -0.156517,-0.260874 -0.573907,-0.869558 -0.904335,-1.373899 l -0.591289,-0.88694 0.88694,-1.321714 0.904324,-1.321714 h -0.852152 c -0.817373,0 -0.852163,0.01742 -1.286936,0.799979 l -0.434772,0.799992 -0.417379,-0.747819 c -0.399996,-0.713029 -0.469562,-0.765201 -1.252159,-0.817373 -0.452167,-0.03484 -0.817373,-0.01742 -0.817373,0.03471 z"
       id="path3773"
       style="stroke-width:0.017391" />
  </g>
</svg>
