<?xml version="1.0" encoding="UTF-8" standalone="no"?>
<!-- Created with Inkscape (http://www.inkscape.org/) -->

<svg
   width="100mm"
   height="100mm"
   viewBox="0 0 100 100"
   version="1.1"
   id="svg26768"
   sodipodi:docname="indexers.svg"
   inkscape:version="1.1.1 (3bf5ae0d25, 2021-09-20)"
   xmlns:inkscape="http://www.inkscape.org/namespaces/inkscape"
   xmlns:sodipodi="http://sodipodi.sourceforge.net/DTD/sodipodi-0.dtd"
   xmlns="http://www.w3.org/2000/svg"
   xmlns:svg="http://www.w3.org/2000/svg">
  <sodipodi:namedview
     id="namedview26770"
     pagecolor="#ffffff"
     bordercolor="#666666"
     borderopacity="1.0"
     inkscape:pageshadow="2"
     inkscape:pageopacity="0.0"
     inkscape:pagecheckerboard="0"
     inkscape:document-units="mm"
     showgrid="false"
     width="209mm"
     inkscape:zoom="0.7500982"
     inkscape:cx="13.998167"
     inkscape:cy="241.96832"
     inkscape:window-width="1920"
     inkscape:window-height="1027"
     inkscape:window-x="1912"
     inkscape:window-y="-8"
     inkscape:window-maximized="1"
     inkscape:current-layer="layer1" />
  <defs
     id="defs26765" />
  <g
     inkscape:label="Layer 1"
     inkscape:groupmode="layer"
     id="layer1">
    <path
       d="M 31.320441,2.2450677 C 30.160281,2.50288 29.499642,2.8573684 28.677867,3.6952559 27.743304,4.6137161 27.259904,5.6771813 27.163219,7.0145807 l -0.08061,1.0795871 -1.079587,0.08061 c -0.805662,0.064469 -1.321286,0.209465 -2.078601,0.6123007 -1.16016,0.6284136 -1.836911,1.3374005 -2.416987,2.5781135 l -0.418948,0.886234 V 43.34996 74.448503 l 0.531737,1.079587 c 0.628414,1.289061 1.64355,2.239747 2.884273,2.707024 0.870113,0.322263 1.047362,0.322263 23.94426,0.290037 l 23.074155,-0.04833 0.805662,-0.386714 c 0.950677,-0.483399 2.030264,-1.514648 2.481438,-2.416987 0.193361,-0.354488 0.418939,-1.192385 0.531737,-1.853024 l 0.177249,-1.176263 0.966789,-0.112798 c 1.917474,-0.193352 3.399897,-1.176263 4.318348,-2.868151 l 0.54785,-1.015136 0.04833,-31.017979 C 81.432594,9.9150127 81.416453,6.5473496 81.190839,5.8705889 80.642998,4.2431519 79.498951,3.0346633 77.855401,2.3740153 77.210875,2.1162031 75.470649,2.1000904 54.684569,2.067865 37.395072,2.0517247 31.997137,2.0840054 31.320385,2.2451138 Z m 46.180527,2.1752869 c 0.886226,0.4028265 1.627437,1.3373994 1.836911,2.3364138 0.128902,0.5800845 0.161127,7.7182466 0.128902,23.9442686 -0.04833,25.877856 0.04833,23.831471 -1.208498,25.281668 -0.596179,0.708977 -2.014151,1.627437 -2.497541,1.627437 -0.273925,0 -0.290037,-1.16015 -0.290037,-22.059019 0,-14.244097 -0.06447,-22.349057 -0.161136,-22.91302 -0.354489,-1.836911 -1.401851,-3.2226483 -3.0454,-3.9960853 L 71.361821,8.2230785 50.221262,8.1747497 29.064581,8.1425612 V 7.610824 c 0,-1.3696248 0.805662,-2.6425734 2.01416,-3.1904233 0.612301,-0.2900376 1.724113,-0.3061503 23.203057,-0.3061503 21.607846,0 22.590757,0.01614 23.21917,0.3061503 z m -6.622537,5.8329874 c 0.386714,0.09669 0.999015,0.418949 1.353503,0.725099 1.240723,1.079587 1.16016,-0.902338 1.111822,25.603931 l -0.04833,23.686447 -0.483408,0.870122 c -0.596179,1.0957 -1.643541,2.014151 -2.707015,2.384752 -0.78955,0.273934 -2.014151,0.290038 -22.026794,0.290038 H 26.889303 L 26.148101,63.475355 C 25.036289,62.95973 24.085603,62.009054 23.553866,60.913354 L 23.102701,59.946556 V 36.292334 c 0,-22.961367 0.01614,-23.670343 0.306151,-24.250419 0.435052,-0.837887 1.144038,-1.46631 1.965812,-1.724122 0.580076,-0.17724 4.608386,-0.225578 22.751884,-0.225578 15.581497,-0.01614 22.252381,0.03219 22.751893,0.161127 z m 8.459448,57.637038 c -0.322272,1.498535 -1.659671,2.610348 -3.142085,2.610348 h -0.725089 l 0.03219,-6.058575 0.04833,-6.042461 0.91846,-0.370611 c 1.111813,-0.451173 2.078602,-1.208488 2.578114,-1.998038 l 0.370601,-0.596188 0.04833,5.800762 c 0.03219,3.915513 -0.01614,6.074687 -0.12891,6.654763 z M 24.939594,63.523693 c 0.418948,0.290038 1.031249,0.61231 1.353512,0.725099 0.467287,0.161136 5.204574,0.209474 21.527282,0.257812 23.106381,0.04833 22.026794,0.08061 23.670344,-0.966798 0.435061,-0.273925 1.03124,-0.821775 1.337399,-1.224602 l 0.54785,-0.725098 v 6.187485 c 0,5.639635 -0.03228,6.251936 -0.30615,6.832011 -0.37061,0.821775 -1.272949,1.627437 -2.062498,1.836911 -0.854,0.2417 -44.682001,0.2417 -45.536002,0 -0.757324,-0.209474 -1.853024,-1.16016 -2.159174,-1.869137 -0.161127,-0.402826 -0.209465,-1.885249 -0.209465,-6.735334 v -6.235824 l 0.531728,0.708986 c 0.290047,0.386723 0.870122,0.934564 1.305174,1.208489 z"
       id="path3383"
       style="stroke-width:0.0161132" />
    <path
       d="m 47.030839,18.535551 c -0.08061,0.03219 -3.35155,1.047352 -7.234838,2.25585 -3.899409,1.208489 -7.250959,2.320301 -7.460433,2.449212 -0.209465,0.145014 -0.563963,0.563962 -0.773428,0.934564 l -0.402836,0.67676 v 12.439412 c 0,12.068819 0.01614,12.455533 0.322263,13.067834 0.177249,0.338376 0.531738,0.773437 0.805663,0.966789 0.257812,0.193371 3.72216,1.353521 7.669898,2.594235 6.251936,1.9497 7.331523,2.239738 8.266087,2.239738 0.950685,0 2.030272,-0.290038 8.314434,-2.255851 3.96386,-1.256835 7.412086,-2.416986 7.669898,-2.578122 0.2417,-0.17724 0.596188,-0.644526 0.773437,-1.03124 0.338376,-0.692873 0.338376,-0.773437 0.30615,-13.180623 l -0.04833,-12.471646 -0.402835,-0.596188 c -0.225587,-0.322263 -0.692864,-0.741211 -1.047353,-0.91846 -0.354497,-0.193352 -3.786611,-1.321278 -7.62156,-2.49755 -5.929673,-1.853024 -7.122049,-2.175287 -7.976049,-2.159174 -0.547859,0 -1.063484,0.03219 -1.16016,0.06447 z m 8.701147,4.044414 c 4.882311,1.514648 7.170387,2.304198 7.379861,2.513672 0.2417,0.290037 0.273925,0.741202 0.273925,4.092761 v 3.77049 H 48.239337 33.092892 v -3.77049 c 0,-3.351559 0.03219,-3.802724 0.290037,-4.092761 0.306151,-0.354498 13.905722,-4.688959 14.775835,-4.705072 0.273925,0 3.673822,0.982911 7.573222,2.1914 z m 7.653786,14.727496 v 3.706048 H 48.239337 33.092892 v -3.706048 -3.706038 h 15.146445 15.146435 z m 0,8.121073 c 0,3.35155 -0.03219,3.802724 -0.273925,4.092761 -0.338375,0.402836 -13.986285,4.705063 -14.888632,4.705063 -0.72509,0 -14.469675,-4.286114 -14.840286,-4.624499 -0.257812,-0.241691 -0.290037,-0.644526 -0.290037,-4.108874 v -3.83495 h 15.146445 15.146435 z"
       id="path3385"
       style="stroke-width:0.0161132" />
    <path
       d="m 37.121203,29.250849 v 0.966789 h 2.01415 2.01416 v -0.966789 -0.966798 h -2.01416 -2.01415 z"
       id="path3387"
       style="stroke-width:0.0161132" />
    <path
       d="m 43.244228,29.250849 v 0.966789 h 2.980949 2.980949 v -0.966789 -0.966798 h -2.980949 -2.980949 z"
       id="path3389"
       style="stroke-width:0.0161132" />
    <path
       d="m 51.300849,29.250849 v 0.966789 h 4.028302 4.028311 v -0.966789 -0.966798 h -4.028311 -4.028302 z"
       id="path3391"
       style="stroke-width:0.0161132" />
    <path
       d="m 37.121203,37.307461 v 0.966799 h 7.089823 7.089823 v -0.966799 -0.966789 h -7.089823 -7.089823 z"
       id="path3393"
       style="stroke-width:0.0161132" />
    <path
       d="m 53.234436,37.307461 v 0.966799 h 3.061513 3.061513 v -0.966799 -0.966789 h -3.061513 -3.061513 z"
       id="path3395"
       style="stroke-width:0.0161132" />
    <path
       d="m 37.121203,45.364083 v 0.966789 h 3.061512 3.061513 v -0.966789 -0.966798 h -3.061513 -3.061512 z"
       id="path3397"
       style="stroke-width:0.0161132" />
    <path
       d="m 45.177815,45.364083 v 0.966789 h 1.047362 1.047361 v -0.966789 -0.966798 h -1.047361 -1.047362 z"
       id="path3399"
       style="stroke-width:0.0161132" />
    <path
       d="m 49.206126,45.364083 v 0.966789 h 5.075672 5.075664 v -0.966789 -0.966798 h -5.075664 -5.075672 z"
       id="path3401"
       style="stroke-width:0.0161132" />
    <path
       d="m 28.081679,68.841065 c -1.047361,0.644526 -1.272948,2.094714 -0.467286,2.980949 0.257812,0.290038 0.483399,0.451174 0.483399,0.338376 0,-0.09668 -0.06447,-0.2417 -0.161136,-0.290038 -0.290038,-0.177249 -0.17724,-1.192376 0.161136,-1.530761 0.741211,-0.741202 1.804677,-0.531728 2.1914,0.418949 0.177248,0.435061 0.177248,0.596188 -0.08061,1.079587 l -0.290038,0.580075 0.370601,-0.257812 c 0.209475,-0.128911 0.4834,-0.531737 0.628414,-0.918451 0.225587,-0.563963 0.225587,-0.757324 0.04833,-1.305174 -0.386714,-1.176273 -1.869128,-1.740226 -2.884264,-1.0957 z"
       id="path3403"
       style="stroke-width:0.0161132" />
    <path
       d="m 32.448366,94.831711 v 3.383775 h 0.644526 0.644535 v -3.383775 -3.383777 h -0.644535 -0.644526 z"
       id="path3565"
       style="stroke-width:0.0161132" />
    <path
       d="m 44.04989,92.575861 v 1.127925 l -0.515625,-0.322263 c -0.692864,-0.418949 -1.240714,-0.402827 -1.917474,0.04833 -0.72509,0.483399 -1.111813,1.289061 -1.111813,2.336413 0,2.01416 1.546874,3.190424 3.029287,2.288085 0.418949,-0.257812 0.515625,-0.273925 0.515625,-0.08052 0,0.17724 0.177249,0.24169 0.644535,0.24169 h 0.644526 V 94.831746 91.447969 H 44.694425 44.04989 Z m -0.338376,2.01415 c 0.128911,0.128911 0.257812,0.563963 0.290038,0.999024 0.06447,0.628413 0.01614,0.854 -0.273925,1.208489 -0.934564,1.208497 -2.304189,-0.112789 -1.772451,-1.724114 0.273924,-0.854 1.127925,-1.079587 1.756338,-0.483399 z"
       id="path3567"
       style="stroke-width:0.0161132" />
    <path
       d="m 36.927841,93.349288 c -0.483399,0.257822 -0.612301,0.273934 -0.612301,0.09668 0,-0.161136 -0.193361,-0.225586 -0.644526,-0.225586 h -0.644535 v 2.497549 2.49755 h 0.644535 0.644526 v -1.691887 c 0,-1.498527 0.03219,-1.724114 0.338376,-2.030264 0.435061,-0.435061 1.127925,-0.354488 1.385738,0.17724 0.12891,0.241699 0.209474,1.031249 0.209474,1.965822 v 1.579089 h 0.644526 0.644535 v -1.933587 c 0,-1.047362 -0.08061,-2.094714 -0.177249,-2.304188 -0.370601,-0.805663 -1.514639,-1.0957 -2.433099,-0.628423 z"
       id="path3733"
       style="stroke-width:0.0161132" />
    <path
       d="m 47.514238,93.381523 c -0.370601,0.177248 -0.78955,0.54785 -0.966798,0.837887 -0.386714,0.676752 -0.402827,2.255851 -0.03219,2.980949 0.499512,0.934564 2.143062,1.466301 3.061513,0.999024 0.515624,-0.273934 1.240714,-0.982911 1.240714,-1.224611 0,-0.30615 -1.192376,-0.273925 -1.450188,0.03228 -0.467278,0.563963 -1.772452,0.112789 -1.772452,-0.612301 0,-0.241699 0.225587,-0.273925 1.708001,-0.273925 h 1.724122 l -0.112798,-0.757324 c -0.128911,-0.982911 -0.531737,-1.627437 -1.22461,-1.998038 -0.72509,-0.386713 -1.369625,-0.386713 -2.175287,0.01614 z m 1.724113,1.079587 c 0.54785,0.499502 0.37061,0.692864 -0.676751,0.692864 -0.531738,0 -0.966799,-0.04833 -0.966799,-0.128902 0,-0.06447 0.112798,-0.290037 0.257813,-0.483399 0.290037,-0.418939 0.966798,-0.467286 1.385737,-0.08052 z"
       id="path3735"
       style="stroke-width:0.0161132" />
    <path
       d="m 57.987846,93.381523 c -0.37061,0.177248 -0.789549,0.54785 -0.966798,0.837887 -0.386723,0.676752 -0.402827,2.255851 -0.03228,2.980949 0.499521,0.934564 2.143071,1.466301 3.061522,0.999024 0.515624,-0.273934 1.240714,-0.982911 1.240714,-1.224611 0,-0.30615 -1.192376,-0.273925 -1.450188,0.03228 -0.467278,0.563963 -1.772452,0.112789 -1.772452,-0.612301 0,-0.241699 0.225578,-0.273925 1.708001,-0.273925 h 1.724113 l -0.112789,-0.757324 c -0.128901,-0.982911 -0.531737,-1.627437 -1.22461,-1.998038 -0.72509,-0.386713 -1.369616,-0.386713 -2.175278,0.01614 z m 1.724113,1.079587 c 0.547841,0.499502 0.370601,0.692864 -0.676761,0.692864 -0.531737,0 -0.966789,-0.04833 -0.966789,-0.128902 0,-0.06447 0.112789,-0.290037 0.257813,-0.483399 0.290037,-0.418939 0.966789,-0.467286 1.385737,-0.08052 z"
       id="path3737"
       style="stroke-width:0.0161132" />
    <path
       d="m 64.239773,93.30095 c -0.290038,0.128911 -0.531738,0.30616 -0.531738,0.402836 0,0.08061 -0.06447,0.161127 -0.161127,0.161127 -0.08061,0 -0.161136,-0.145015 -0.161136,-0.322263 0,-0.257813 -0.112789,-0.322263 -0.563962,-0.322263 h -0.563963 v 2.497549 2.49755 h 0.644526 0.644535 V 96.71696 c 0,-1.724113 0.177249,-2.110836 1.047362,-2.271972 0.531728,-0.112789 0.563963,-0.145014 0.563963,-0.741202 0,-0.708986 -0.112798,-0.757324 -0.91846,-0.402836 z"
       id="path3739"
       style="stroke-width:0.0161132" />
    <path
       d="m 66.979022,93.236499 c -1.079578,0.306151 -1.546864,1.675775 -0.805662,2.352536 0.193361,0.193361 0.789549,0.467286 1.321287,0.612301 0.531737,0.161136 1.079587,0.386723 1.208497,0.515624 0.209465,0.209474 0.209465,0.257812 -0.06447,0.467287 -0.467286,0.338375 -1.03124,0.273925 -1.482413,-0.177249 -0.499512,-0.515625 -1.514649,-0.580076 -1.514649,-0.09668 0,0.467277 0.596198,1.095699 1.240724,1.321277 0.338375,0.112798 0.950676,0.145023 1.482422,0.09668 0.741203,-0.08052 0.982902,-0.177248 1.353503,-0.596188 0.950686,-1.063474 0.338376,-2.191399 -1.417963,-2.594235 -1.079587,-0.241699 -1.417962,-0.563962 -0.966789,-0.902338 0.370601,-0.257812 1.031249,-0.161136 1.305165,0.209465 0.225587,0.290047 1.353512,0.306159 1.353512,0.01614 0,-0.37061 -0.515624,-0.950685 -1.063474,-1.176272 -0.596188,-0.257803 -1.192376,-0.273925 -1.9497,-0.04833 z"
       id="path3741"
       style="stroke-width:0.0161132" />
    <path
       d="m 51.461985,93.284837 c 0,0.04833 0.322263,0.596197 0.72509,1.224611 0.402835,0.628413 0.725098,1.16015 0.725098,1.208488 0,0.04833 -0.241699,0.418949 -0.547849,0.837888 -0.290038,0.435061 -0.660648,0.966798 -0.821775,1.208498 l -0.273925,0.451164 h 0.78954 c 0.757324,0 0.805662,-0.03219 1.16016,-0.644526 0.193361,-0.354488 0.418948,-0.644526 0.499512,-0.644526 0.08052,0 0.30615,0.290038 0.483399,0.644526 0.322254,0.628423 0.354488,0.644526 1.144038,0.644526 h 0.821774 L 55.87701,97.764322 c -0.145024,-0.2417 -0.531737,-0.805662 -0.837897,-1.272949 l -0.547841,-0.821775 0.821775,-1.22461 0.837888,-1.224601 h -0.78955 c -0.757324,0 -0.789549,0.01614 -1.192385,0.741211 l -0.402826,0.741211 -0.386723,-0.692873 C 53.00885,93.349288 52.944399,93.30095 52.2193,93.252612 c -0.418939,-0.03228 -0.757315,-0.01614 -0.757315,0.03228 z"
       id="path3803"
       style="stroke-width:0.0161132" />
  </g>
</svg>
