<?xml version="1.0" encoding="UTF-8" standalone="no"?>
<!-- Created with Inkscape (http://www.inkscape.org/) -->

<svg
   width="100mm"
   height="100mm"
   viewBox="0 0 100 100"
   version="1.1"
   id="svg26768"
   xmlns="http://www.w3.org/2000/svg"
   xmlns:svg="http://www.w3.org/2000/svg">
  <defs
     id="defs26765" />
  <path
     d="M 55.83695,1.3054299 C 55.627279,1.3435021 50.919342,3.192419 45.353686,5.4034381 34.927605,9.5586142 34.393916,9.8064047 33.70774,11.121573 c -0.209669,0.40027 -0.266849,1.42954 -0.266849,4.536398 v 4.002697 h 1.143626 1.143625 v -3.697727 c 0,-3.240289 0.03819,-3.735859 0.34309,-4.078948 0.457461,-0.552749 19.651358,-8.1960049 20.928407,-8.3484841 0.895851,-0.1143355 1.867929,0.1715391 13.361402,4.002697 7.395466,2.4588096 12.522733,4.2695461 12.713331,4.4792181 0.26685,0.285898 0.304971,1.010198 0.304971,5.603775 v 5.279758 H 70.227611 c -13.018301,0 -13.151732,0 -13.151732,-0.38121 0,-0.38121 -0.133419,-0.38121 -21.385845,-0.38121 H 14.30417 l 1.124569,1.143629 1.124568,1.143629 h 20.261285 c 20.127868,0 20.261287,0 20.261287,-0.381209 0,-0.381209 0.133431,-0.381209 13.151732,-0.381209 h 13.151732 v 6.766464 6.766465 H 70.227611 c -13.018301,0 -13.151732,0 -13.151732,-0.381197 0,-0.381222 -0.133419,-0.381222 -21.385845,-0.381222 H 14.30417 l 1.124569,1.143629 1.124568,1.143629 h 20.261285 c 20.127868,0 20.261287,0 20.261287,-0.38121 0,-0.381209 0.133431,-0.381209 13.151732,-0.381209 h 13.151732 v 6.766477 6.766465 H 70.227611 c -13.018301,0 -13.151732,0 -13.151732,-0.38121 0,-0.38121 -0.133419,-0.38121 -21.385845,-0.38121 H 14.30417 l 1.124569,1.143629 1.124568,1.143629 h 20.261285 c 20.127868,0 20.261287,0 20.261287,-0.381209 0,-0.38121 0.133431,-0.38121 13.151732,-0.38121 h 13.151732 v 5.279758 c 0,4.593577 -0.03819,5.317865 -0.304971,5.603775 -0.190598,0.209671 -5.317865,2.020408 -12.713331,4.479218 C 58.962868,71.409864 57.89549,71.733895 56.999639,71.638595 55.72259,71.486116 36.528693,63.823801 36.071232,63.271051 35.766274,62.927949 35.728142,62.43238 35.728142,59.192103 v -3.697739 h -1.143625 -1.143626 v 4.059889 c 0,4.040817 0,4.059888 0.495572,4.803236 0.266847,0.41933 0.686177,0.914899 0.933963,1.08645 0.228724,0.171539 4.955724,2.134767 10.50232,4.364846 9.663664,3.869278 10.140173,4.040818 11.626893,4.136128 l 1.543899,0.07627 12.713342,-4.231428 c 8.710634,-2.897187 12.865823,-4.364846 13.247032,-4.688876 1.238929,-1.04833 1.162689,0.876778 1.162689,-27.523333 0,-28.4001119 0.07626,-26.475003 -1.162689,-27.523321 C 84.122703,9.7301889 79.986575,8.2625295 71.31406,5.384402 59.782467,1.5341843 58.581658,1.1720344 57.457088,1.1910943 56.770921,1.2101303 56.04662,1.2483213 55.83695,1.3054299 Z"
     id="path4072"
     style="stroke-width:0.0190605" />
  <path
     d="m 57.266489,16.13448 v 1.238929 h 3.526188 3.526188 V 16.13448 14.895551 h -3.526188 -3.526188 z"
     id="path4124"
     style="stroke-width:0.0190605" />
  <path
     d="m 66.796723,16.13448 v 1.238929 h 5.908745 5.908758 V 16.13448 14.895551 h -5.908758 -5.908745 z"
     id="path4126"
     style="stroke-width:0.0190605" />
  <path
     d="m 33.440891,30.429841 v 3.526188 h 1.143626 1.143625 v -3.526188 -3.526188 h -1.143625 -1.143626 z"
     id="path4142"
     style="stroke-width:0.0190605" />
  <path
     d="m 57.266489,30.429841 v 1.238929 h 2.287259 2.287259 v -1.238929 -1.238929 h -2.287259 -2.287259 z"
     id="path4146"
     style="stroke-width:0.0190605" />
  <path
     d="m 64.318865,30.429841 v 1.238929 h 3.526188 3.526187 v -1.238929 -1.238929 h -3.526187 -3.526188 z"
     id="path4148"
     style="stroke-width:0.0190605" />
  <path
     d="m 73.849097,30.429841 v 1.238929 h 3.5262 3.526188 v -1.238929 -1.238929 h -3.526188 -3.5262 z"
     id="path4150"
     style="stroke-width:0.0190605" />
  <path
     d="m 33.440891,44.725203 v 3.526188 h 1.143626 1.143625 v -3.526188 -3.526188 h -1.143625 -1.143626 z"
     id="path4156"
     style="stroke-width:0.0190605" />
  <path
     d="m 57.266489,44.725203 v 1.238929 h 4.669817 4.669818 v -1.238929 -1.238929 h -4.669818 -4.669817 z"
     id="path4158"
     style="stroke-width:0.0190605" />
  <path
     d="m 69.083982,44.725203 v 1.238929 h 4.765115 4.765129 v -1.238929 -1.238929 h -4.765129 -4.765115 z"
     id="path4160"
     style="stroke-width:0.0190605" />
  <path
     d="m 57.266489,59.020564 v 1.238929 h 2.287259 2.287259 v -1.238929 -1.238941 h -2.287259 -2.287259 z"
     id="path4162"
     style="stroke-width:0.0190605" />
  <path
     d="m 64.318865,59.020564 v 1.238929 h 4.765117 4.765115 v -1.238929 -1.238941 h -4.765115 -4.765117 z"
     id="path4164"
     style="stroke-width:0.0190605" />
  <path
     d="m 76.326967,59.020564 v 1.238929 h 2.287259 2.287259 v -1.238929 -1.238941 h -2.287259 -2.287259 z"
     id="path4166"
     style="stroke-width:0.0190605" />
  <path
     d="m 59.839647,89.307653 c -2.325379,1.01021 -2.973428,4.936668 -1.143618,6.957076 0.991138,1.086449 2.859068,1.486719 4.193297,0.89585 0.51464,-0.22873 0.60994,-0.20967 1.067389,0.190599 l 0.476509,0.45745 0.457449,-0.476509 0.43839,-0.45745 -0.43839,-0.36215 -0.457449,-0.36215 0.36215,-0.74336 c 0.45745,-0.933958 0.590881,-2.859067 0.285911,-3.793037 -0.30497,-0.895839 -1.25799,-1.982289 -2.039469,-2.306319 -0.781479,-0.34309 -2.458798,-0.324018 -3.202169,0 z m 2.573168,1.3533 c 0.781481,0.40027 1.14363,1.200809 1.14363,2.515978 0,1.429539 -0.209671,1.791689 -0.74336,1.31518 -0.381209,-0.34309 -0.40027,-0.34309 -0.762419,0.0953 -0.47651,0.552748 -0.47651,0.66712 -0.114335,0.819598 0.438389,0.15248 0.343089,0.476511 -0.171551,0.609941 -0.667109,0.152479 -1.753558,-0.38121 -2.096649,-1.04833 -0.40027,-0.74336 -0.40027,-2.725648 -0.01904,-3.449948 0.533689,-1.02927 1.715438,-1.391408 2.763769,-0.857719 z"
     id="path4170"
     style="stroke-width:0.0190605" />
  <path
     d="M 9.0434798,93.234123 V 97.23682 H 9.8058994 10.568318 V 93.234123 89.231414 H 9.8058994 9.0434798 Z"
     id="path4210"
     style="stroke-width:0.0190605" />
  <path
     d="m 22.767022,90.565653 v 1.334229 l -0.609935,-0.38121 c -0.819599,-0.495569 -1.467657,-0.476509 -2.268197,0.05723 -0.857721,0.571821 -1.315172,1.524839 -1.315172,2.763768 0,2.382558 1.829806,3.773978 3.583369,2.706588 0.495571,-0.304958 0.609935,-0.32403 0.609935,-0.0953 0,0.209671 0.209668,0.285911 0.76242,0.285911 H 24.29186 V 93.23417 89.231461 h -0.762418 -0.76242 z m -0.400267,2.382559 c 0.152483,0.152479 0.304965,0.667108 0.343088,1.181749 0.07624,0.743348 0.01907,1.010198 -0.324032,1.429528 -1.105507,1.429539 -2.725645,-0.133419 -2.09665,-2.039469 0.324028,-1.010198 1.334232,-1.277048 2.077594,-0.571808 z"
     id="path4212"
     style="stroke-width:0.0190605" />
  <path
     d="m 38.015401,89.898534 c 0,0.64806 0.01904,0.667119 0.762432,0.667119 0.743347,0 0.762407,-0.01904 0.762407,-0.667119 0,-0.648061 -0.01904,-0.66712 -0.762407,-0.66712 -0.743372,0 -0.762432,0.01904 -0.762432,0.66712 z"
     id="path4214"
     style="stroke-width:0.0190605" />
  <path
     d="m 14.342292,91.480553 c -0.571815,0.30497 -0.724299,0.324029 -0.724299,0.114335 0,-0.190599 -0.228726,-0.266839 -0.762419,-0.266839 h -0.762419 v 2.954367 2.954379 h 0.762419 0.762419 v -2.00136 c 0,-1.772618 0.03812,-2.039468 0.400271,-2.401618 0.514632,-0.514629 1.334233,-0.41933 1.639201,0.20967 0.152484,0.285911 0.247786,1.21987 0.247786,2.32538 v 1.867928 h 0.76242 0.762417 v -2.287259 c 0,-1.238929 -0.0953,-2.477869 -0.209664,-2.725648 -0.438391,-0.95303 -1.791685,-1.29612 -2.878132,-0.743359 z"
     id="path4344"
     style="stroke-width:0.0190605" />
  <path
     d="m 26.674423,91.518672 c -0.438392,0.209671 -0.933968,0.648061 -1.143631,0.99115 -0.457453,0.80054 -0.476513,2.668458 -0.03814,3.526188 0.590875,1.105498 2.535047,1.734499 3.621492,1.181749 0.609935,-0.32403 1.467657,-1.162689 1.467657,-1.448599 0,-0.362151 -1.410477,-0.324031 -1.715443,0.03819 -0.552756,0.66712 -2.096655,0.133419 -2.096655,-0.724299 0,-0.285911 0.266848,-0.324031 2.020414,-0.324031 h 2.03947 l -0.133421,-0.895839 c -0.152489,-1.162689 -0.628998,-1.925109 -1.448596,-2.363498 -0.857722,-0.45745 -1.620145,-0.45745 -2.573165,0.01904 z m 2.039471,1.277049 c 0.648053,0.59088 0.438391,0.819599 -0.800543,0.819599 -0.628997,0 -1.14363,-0.05723 -1.14363,-0.152479 0,-0.07626 0.133427,-0.34309 0.304971,-0.571809 0.343088,-0.495581 1.14363,-0.552761 1.639202,-0.0953 z"
     id="path4346"
     style="stroke-width:0.0190605" />
  <path
     d="m 43.314218,91.480553 c -0.57182,0.30497 -0.7243,0.324029 -0.7243,0.114335 0,-0.190599 -0.228719,-0.266839 -0.76242,-0.266839 h -0.762419 v 2.954367 2.954379 h 0.762419 0.76242 v -2.00136 c 0,-1.772618 0.03819,-2.039468 0.40027,-2.401618 0.514629,-0.514629 1.334241,-0.41933 1.639199,0.20967 0.15249,0.285911 0.24779,1.21987 0.24779,2.32538 v 1.867928 h 0.76242 0.762419 v -2.287259 c 0,-1.238929 -0.0953,-2.477869 -0.209671,-2.725648 -0.438389,-0.95303 -1.791677,-1.29612 -2.878127,-0.743359 z"
     id="path4348"
     style="stroke-width:0.0190605" />
  <path
     d="m 49.165785,91.328073 c -0.51463,0.209659 -1.16269,0.933959 -1.41048,1.582007 -0.285899,0.76242 -0.266839,2.11572 0.05723,2.897199 0.552761,1.315169 2.38257,1.84887 3.449948,1.01021 l 0.533701,-0.419329 -0.114336,0.743348 c -0.05723,0.40027 -0.247778,0.85773 -0.381198,0.99115 -0.362149,0.381213 -1.410479,0.362152 -1.810749,0 -0.190611,-0.190599 -0.66712,-0.32403 -1.04833,-0.32403 -0.838659,0 -0.953019,0.457449 -0.26685,1.105513 0.89585,0.838661 3.049677,0.91491 4.231427,0.152487 0.68618,-0.438399 0.857731,-1.410479 0.857731,-4.746068 v -2.992487 h -0.76242 c -0.66712,0 -0.762419,0.05723 -0.762419,0.419329 -0.01904,0.40027 -0.03819,0.419331 -0.26685,0.114336 -0.45745,-0.609928 -1.52484,-0.857731 -2.30632,-0.533689 z m 1.829809,1.334229 c 0.247778,0 0.743359,1.067389 0.743359,1.620138 0,0.533689 -0.30497,1.258001 -0.64806,1.467659 -0.38121,0.266851 -1.200809,0.15248 -1.505779,-0.19061 -0.972079,-1.067378 -0.209671,-3.373697 0.972078,-2.973427 0.152491,0.03819 0.34309,0.07626 0.438402,0.07626 z"
     id="path4350"
     style="stroke-width:0.0190605" />
  <path
     d="m 74.325619,91.518672 c -0.43839,0.209671 -0.93397,0.648061 -1.14363,0.99115 -0.457461,0.80054 -0.476521,2.668458 -0.03819,3.526188 0.590869,1.105498 2.535038,1.734499 3.621487,1.181749 0.609941,-0.32403 1.46766,-1.162689 1.46766,-1.448599 0,-0.362151 -1.41048,-0.324031 -1.71545,0.03819 -0.552749,0.66712 -2.096648,0.133419 -2.096648,-0.724299 0,-0.285911 0.26685,-0.324031 2.020409,-0.324031 h 2.039467 l -0.133419,-0.895839 c -0.152478,-1.162689 -0.628988,-1.925109 -1.448587,-2.363498 -0.857731,-0.45745 -1.620151,-0.45745 -2.573169,0.01904 z m 2.039468,1.277049 c 0.648048,0.59088 0.43839,0.819599 -0.800539,0.819599 -0.629,0 -1.14363,-0.05723 -1.14363,-0.152479 0,-0.07626 0.133419,-0.34309 0.30497,-0.571809 0.34309,-0.495581 1.14363,-0.552761 1.639199,-0.0953 z"
     id="path4352"
     style="stroke-width:0.0190605" />
  <path
     d="m 87.28674,91.518672 c -0.438389,0.209671 -0.933971,0.648061 -1.143629,0.99115 -0.45745,0.80054 -0.47651,2.668458 -0.03819,3.526188 0.590868,1.105498 2.535049,1.734499 3.621486,1.181749 0.609941,-0.32403 1.46766,-1.162689 1.46766,-1.448599 0,-0.362151 -1.41048,-0.324031 -1.715438,0.03819 -0.55276,0.66712 -2.09666,0.133419 -2.09666,-0.724299 0,-0.285911 0.266851,-0.324031 2.020421,-0.324031 h 2.039467 l -0.133419,-0.895839 c -0.152491,-1.162689 -0.629,-1.925109 -1.4486,-2.363498 -0.857718,-0.45745 -1.62015,-0.45745 -2.573168,0.01904 z m 2.039468,1.277049 c 0.648061,0.59088 0.438389,0.819599 -0.800539,0.819599 -0.629,0 -1.143629,-0.05723 -1.143629,-0.152479 0,-0.07626 0.13343,-0.34309 0.30497,-0.571809 0.34309,-0.495581 1.14363,-0.552761 1.639198,-0.0953 z"
     id="path4354"
     style="stroke-width:0.0190605" />
  <path
     d="m 31.534843,91.404313 c 0,0.05723 0.381207,0.70524 0.857721,1.448587 0.47651,0.743361 0.857722,1.37236 0.857722,1.42954 0,0.05723 -0.285908,0.495581 -0.64806,0.99115 -0.343088,0.51463 -0.781474,1.143618 -0.972081,1.429528 l -0.324026,0.533702 h 0.933962 c 0.89584,0 0.953025,-0.03819 1.372355,-0.76242 0.228724,-0.41933 0.495571,-0.76242 0.590874,-0.76242 0.0953,0 0.362152,0.34309 0.571812,0.76242 0.381212,0.743359 0.419331,0.76242 1.35329,0.76242 h 0.97209 l -0.34309,-0.533702 c -0.171539,-0.28591 -0.629,-0.953019 -0.991138,-1.505767 l -0.648063,-0.972091 0.972081,-1.448599 0.99115,-1.448588 h -0.93397 c -0.895834,0 -0.933958,0.01904 -1.410467,0.876779 l -0.476515,0.876779 -0.457453,-0.819599 c -0.438386,-0.781479 -0.514633,-0.838659 -1.372355,-0.895839 -0.495571,-0.03819 -0.895839,-0.01904 -0.895839,0.03819 z"
     id="path4476"
     style="stroke-width:0.0190605" />
  <path
     d="m 38.015401,94.28244 v 2.95438 h 0.762432 0.762407 v -2.95438 -2.954367 h -0.762407 -0.762432 z"
     id="path4478"
     style="stroke-width:0.0190605" />
  <path
     d="m 66.415524,93.596261 c 0,1.258 0.07627,2.496929 0.1906,2.782839 0.400269,1.048318 2.268198,1.257989 3.259337,0.36215 0.34309,-0.30497 0.36215,-0.30497 0.36215,0.07627 0,0.362149 0.114336,0.419329 0.762419,0.419329 h 0.76242 V 94.28247 91.328103 H 70.89473 70.037 v 2.058528 c 0,1.772618 -0.05723,2.115708 -0.343078,2.382559 -0.40027,0.362149 -0.857732,0.400269 -1.391421,0.133419 -0.324029,-0.190603 -0.362149,-0.419334 -0.362149,-2.382562 V 91.3281 h -0.76242 -0.762408 z"
     id="path4480"
     style="stroke-width:0.0190605" />
  <path
     d="m 79.376645,93.596261 c 0,1.258 0.07627,2.496929 0.190599,2.782839 0.40027,1.048318 2.2682,1.257989 3.259338,0.36215 0.343102,-0.30497 0.36215,-0.30497 0.36215,0.07627 0,0.362149 0.114336,0.419329 0.76242,0.419329 h 0.762431 V 94.28247 91.328103 h -0.857731 -0.857719 v 2.058528 c 0,1.772618 -0.05723,2.115708 -0.34309,2.382559 -0.40027,0.362149 -0.85772,0.400269 -1.391408,0.133419 -0.324042,-0.190599 -0.36215,-0.41933 -0.36215,-2.382558 v -2.191948 h -0.76242 -0.76242 z"
     id="path4482"
     style="stroke-width:0.0190605" />
</svg>
