<?xml version="1.0" encoding="UTF-8" standalone="no"?>
<!-- Created with Inkscape (http://www.inkscape.org/) -->

<svg
   width="100mm"
   height="100mm"
   viewBox="0 0 100 100"
   version="1.1"
   id="svg26768"
   sodipodi:docname="indicies.svg"
   inkscape:version="1.1.1 (3bf5ae0d25, 2021-09-20)"
   xmlns:inkscape="http://www.inkscape.org/namespaces/inkscape"
   xmlns:sodipodi="http://sodipodi.sourceforge.net/DTD/sodipodi-0.dtd"
   xmlns="http://www.w3.org/2000/svg"
   xmlns:svg="http://www.w3.org/2000/svg">
  <sodipodi:namedview
     id="namedview26770"
     pagecolor="#ffffff"
     bordercolor="#666666"
     borderopacity="1.0"
     inkscape:pageshadow="2"
     inkscape:pageopacity="0.0"
     inkscape:pagecheckerboard="0"
     inkscape:document-units="mm"
     showgrid="false"
     width="209mm"
     inkscape:zoom="0.7500982"
     inkscape:cx="13.998167"
     inkscape:cy="135.31562"
     inkscape:window-width="1920"
     inkscape:window-height="1027"
     inkscape:window-x="1912"
     inkscape:window-y="-8"
     inkscape:window-maximized="1"
     inkscape:current-layer="layer1" />
  <defs
     id="defs26765" />
  <g
     inkscape:label="Layer 1"
     inkscape:groupmode="layer"
     id="layer1">
    <path
       d="m 51.562566,1.3443595 c -0.19642,0.053524 -5.571129,1.8213235 -11.96363,3.946207 -6.946042,2.303444 -11.82078,4.0176367 -12.160041,4.2676268 -0.874951,0.6428207 -1.196362,1.5177727 -1.303502,3.6247967 l -0.10714,1.839183 -1.392782,0.499971 c -1.464203,0.517831 -2.107024,0.982091 -2.589144,1.874903 -0.285691,0.499971 -0.303551,2.553425 -0.303551,24.730781 v 24.195091 l 0.410691,0.660681 c 0.23213,0.374981 0.62497,0.839242 0.857101,1.017802 0.249981,0.19642 5.767539,2.124884 12.285031,4.285477 11.410089,3.803366 11.87435,3.946207 13.231422,3.946207 1.357062,0 1.821323,-0.142841 13.034992,-3.856927 6.374651,-2.124883 11.91006,-4.053346 12.267181,-4.285477 1.035661,-0.660681 1.285642,-1.303502 1.392782,-3.553376 l 0.0893,-1.964173 1.428493,-0.499981 c 1.535632,-0.535681 2.303444,-1.124932 2.696284,-2.035594 0.374981,-0.892811 0.374981,-48.586611 0,-49.318722 C 78.757511,9.4153431 78.59681,9.3617732 66.258199,5.2369966 55.776641,1.7371906 54.455279,1.3443595 53.258917,1.3086401 52.526816,1.2729574 51.759004,1.2907987 51.562584,1.3443227 Z M 65.57965,7.3440204 c 7.767432,2.5712934 11.445799,3.8569366 11.660069,4.1069266 0.285701,0.339261 0.303561,1.732043 0.303561,23.96296 0,18.606121 -0.05352,23.67727 -0.214271,23.9094 -0.21428,0.267841 -1.535632,0.839242 -1.946323,0.839242 -0.0893,0 -0.16071,-9.178066 -0.16071,-21.088126 0,-23.230868 0.07146,-21.766657 -1.089231,-22.730897 C 73.793483,16.057834 69.865127,14.665052 61.794143,11.968768 50.312634,8.1475514 49.919794,8.0225609 48.527021,8.0225609 c -1.374932,0 -1.785623,0.1249905 -10.767268,3.1069661 l -9.320916,3.106975 V 12.95086 c 0,-1.017802 0.07146,-1.357072 0.321411,-1.571343 0.2857,-0.24999 22.427337,-7.6960033 23.427279,-7.8745637 1.035662,-0.1964201 2.607004,0.2499809 13.392123,3.8390671 z m -4.660458,6.6603506 c 6.32108,2.107024 11.642219,3.964067 11.82078,4.124777 0.32141,0.2857 0.33927,0.642821 0.33927,5.285419 v 4.964018 H 48.527021 23.974799 v -4.964018 c 0,-2.767704 0.07146,-5.071148 0.178561,-5.213998 0.0893,-0.142851 5.338989,-1.999884 11.731499,-4.142628 9.213776,-3.071255 11.76721,-3.874787 12.552881,-3.874787 0.821382,-0.01784 2.821266,0.589252 12.481452,3.821217 z m 12.16005,21.427396 v 6.33894 H 48.527021 23.974799 v -6.33894 -6.33894 h 24.552222 24.552221 z m 0,13.392122 v 6.338932 H 48.527021 23.974799 v -6.338932 -6.33894 h 24.552222 24.552221 z m 0,12.017191 c 0,4.517608 -0.03578,4.999728 -0.30356,5.249709 -0.553541,0.482121 -23.42728,7.999563 -24.337942,7.999563 -0.999951,0 -23.730839,-7.535293 -24.177249,-8.017413 -0.249981,-0.267841 -0.285692,-0.946382 -0.285692,-5.249709 v -4.946159 h 24.552222 24.552221 z"
       id="path3427"
       style="stroke-width:0.0178561" />
    <path
       d="m 28.438837,22.039645 v 1.160652 h 3.303386 3.303395 v -1.160652 -1.160652 h -3.303395 -3.303386 z"
       id="path3429"
       style="stroke-width:0.0178561" />
    <path
       d="m 37.366913,22.039645 v 1.160652 h 8.928084 8.928085 v -1.160652 -1.160652 h -8.928085 -8.928084 z"
       id="path3431"
       style="stroke-width:0.0178561" />
    <path
       d="m 57.437236,21.128983 c -0.05352,0.124991 -0.07146,0.624961 -0.03568,1.107082 l 0.05362,0.874951 5.588979,0.05362 5.571119,0.03568 v -1.160653 -1.160652 h -5.535415 c -4.553327,0 -5.571119,0.03568 -5.642549,0.24999 z"
       id="path3433"
       style="stroke-width:0.0178561" />
    <path
       d="m 28.438837,35.431767 v 1.160652 H 45.134345 61.829854 V 35.431767 34.271115 H 45.134345 28.438837 Z"
       id="path3435"
       style="stroke-width:0.0178561" />
    <path
       d="m 64.151157,35.431767 v 1.160652 h 2.232024 2.232014 v -1.160652 -1.160652 h -2.232014 -2.232024 z"
       id="path3437"
       style="stroke-width:0.0178561" />
    <path
       d="m 28.438837,48.823889 v 1.160652 h 4.464038 4.464038 v -1.160652 -1.160661 h -4.464038 -4.464038 z"
       id="path3439"
       style="stroke-width:0.0178561" />
    <path
       d="m 39.581076,47.913219 c -0.05352,0.124999 -0.07146,0.62497 -0.03568,1.107091 l 0.05352,0.874942 3.356965,0.05362 3.339105,0.03577 v -1.160651 -1.160652 h -3.303395 c -2.642714,0 -3.339105,0.05352 -3.410526,0.249981 z"
       id="path3441"
       style="stroke-width:0.0178561" />
    <path
       d="m 48.509161,47.913219 c -0.05362,0.124999 -0.07146,0.62497 -0.03578,1.107091 l 0.05352,0.874942 10.053026,0.05362 10.035158,0.03577 v -1.160651 -1.160652 h -9.999447 c -8.338834,0 -10.035167,0.03568 -10.106587,0.249981 z"
       id="path3443"
       style="stroke-width:0.0178561" />
    <path
       d="m 28.438837,62.216012 v 1.160642 h 6.696061 6.696061 v -1.160642 -1.160661 h -6.696061 -6.696061 z"
       id="path3445"
       style="stroke-width:0.0178561" />
    <path
       d="m 44.045123,61.305341 c -0.05362,0.12499 -0.07146,0.624961 -0.03577,1.107082 l 0.05352,0.874951 12.28504,0.05352 12.267181,0.03568 V 62.215938 61.055286 H 56.383623 c -10.231577,0 -12.24933,0.03568 -12.338601,0.249981 z"
       id="path3447"
       style="stroke-width:0.0178561" />
    <path
       d="m 32.010073,94.267816 v 3.749787 h 0.714241 0.714251 V 94.267816 90.51802 h -0.714251 -0.714241 z"
       id="path3501"
       style="stroke-width:0.0178561" />
    <path
       d="m 44.866505,91.767952 v 1.249932 l -0.571401,-0.357121 c -0.767811,-0.464261 -1.374922,-0.44641 -2.124883,0.05352 -0.803522,0.53569 -1.232073,1.428502 -1.232073,2.589144 0,2.232024 1.714193,3.535526 3.356956,2.535584 0.464261,-0.28571 0.571401,-0.30356 0.571401,-0.0893 0,0.19642 0.19642,0.267841 0.714241,0.267841 h 0.714251 v -3.749787 -3.749796 h -0.714251 -0.714241 z m -0.374981,2.232014 c 0.14285,0.14286 0.285701,0.624971 0.321411,1.107091 0.07146,0.696382 0.01784,0.946372 -0.303551,1.339212 -1.035661,1.339203 -2.553434,-0.124999 -1.964183,-1.910612 0.303551,-0.946382 1.249932,-1.196363 1.946323,-0.535691 z"
       id="path3503"
       style="stroke-width:0.0178561" />
    <path
       d="m 47.544929,91.142981 c 0,0.607111 0.01784,0.624971 0.714242,0.624971 0.696391,0 0.714251,-0.01784 0.714251,-0.624971 0,-0.607111 -0.01784,-0.624961 -0.714251,-0.624961 -0.696382,0 -0.714242,0.01784 -0.714242,0.624961 z"
       id="path3505"
       style="stroke-width:0.0178561" />
    <path
       d="m 56.294444,91.142981 c 0,0.607111 0.01784,0.624971 0.714251,0.624971 0.696391,0 0.714242,-0.01784 0.714242,-0.624971 0,-0.607111 -0.01784,-0.624961 -0.714242,-0.624961 -0.696391,0 -0.714251,0.01784 -0.714251,0.624961 z"
       id="path3507"
       style="stroke-width:0.0178561" />
    <path
       d="m 36.974082,92.625044 c -0.535682,0.2857 -0.678532,0.30356 -0.678532,0.10714 0,-0.178561 -0.21428,-0.24999 -0.714251,-0.24999 h -0.714241 v 2.767713 2.767696 h 0.714241 0.714251 v -1.874894 c 0,-1.660622 0.03568,-1.910612 0.374981,-2.249874 0.482111,-0.48212 1.249923,-0.392831 1.535623,0.196411 0.14285,0.26785 0.23213,1.142802 0.23213,2.178454 v 1.749903 h 0.714251 0.714242 v -2.142734 c 0,-1.160652 -0.0893,-2.321304 -0.196411,-2.553434 -0.4107,-0.892802 -1.678483,-1.214213 -2.696284,-0.696391 z"
       id="path3649"
       style="stroke-width:0.0178561" />
    <path
       d="m 51.776837,92.482194 c -0.714251,0.214279 -1.017802,0.51783 -1.392783,1.339221 -0.428541,0.910652 -0.428541,2.124874 0,3.053396 0.428551,0.964241 1.321362,1.392782 2.571294,1.267791 0.749952,-0.07146 0.999942,-0.17856 1.499913,-0.732101 0.321411,-0.33927 0.589251,-0.803531 0.589251,-0.999951 0,-0.303551 -0.12499,-0.357121 -0.678531,-0.357121 -0.571401,0 -0.732102,0.0893 -0.892811,0.446401 -0.142851,0.321411 -0.339261,0.44641 -0.714242,0.44641 -0.785671,0 -1.107082,-0.48212 -1.107082,-1.660632 0,-1.107072 0.392831,-1.732043 1.053512,-1.732043 0.357121,0 0.910671,0.446401 0.910671,0.732101 0,0.0893 0.357112,0.16071 0.785662,0.16071 h 0.803531 l -0.16071,-0.553541 c -0.232121,-0.803531 -0.624961,-1.160651 -1.517772,-1.392782 -0.892802,-0.23213 -1.053512,-0.23213 -1.749903,-0.01784 z"
       id="path3651"
       style="stroke-width:0.0178561" />
    <path
       d="m 60.133521,92.660763 c -0.410691,0.19642 -0.874952,0.607102 -1.071372,0.928512 -0.428551,0.749961 -0.446401,2.499864 -0.03568,3.303395 0.553541,1.035662 2.374874,1.624904 3.392666,1.107082 0.571401,-0.30356 1.374932,-1.089231 1.374932,-1.357072 0,-0.339261 -1.321362,-0.30355 -1.607062,0.03578 -0.517831,0.624961 -1.964174,0.12499 -1.964174,-0.678541 0,-0.26784 0.249981,-0.30355 1.892753,-0.30355 h 1.910604 l -0.12499,-0.839242 c -0.14285,-1.089222 -0.589251,-1.803473 -1.357063,-2.214163 -0.803531,-0.428542 -1.517782,-0.428542 -2.410584,0.01784 z m 1.910612,1.196362 c 0.607102,0.553532 0.410691,0.767812 -0.749961,0.767812 -0.58926,0 -1.071371,-0.05362 -1.071371,-0.14285 0,-0.07146 0.12499,-0.321411 0.2857,-0.535682 0.321411,-0.46426 1.071372,-0.51783 1.535632,-0.0893 z"
       id="path3653"
       style="stroke-width:0.0178561" />
    <path
       d="m 66.168901,92.500053 c -1.196362,0.339271 -1.714184,1.857043 -0.892802,2.607004 0.21427,0.214271 0.874951,0.517822 1.464202,0.678532 0.589252,0.17856 1.196363,0.42855 1.339213,0.571391 0.23213,0.23213 0.23213,0.2857 -0.07146,0.517831 -0.51783,0.37498 -1.142801,0.30356 -1.642772,-0.19642 C 65.811741,96.106999 64.6868,96.035569 64.6868,96.57126 c 0,0.517831 0.660681,1.214212 1.374931,1.464203 0.374972,0.124999 1.053512,0.1607 1.642763,0.107139 0.821382,-0.0893 1.089223,-0.19642 1.499923,-0.66068 1.053511,-1.178503 0.374971,-2.428435 -1.571352,-2.874845 -1.196362,-0.267841 -1.571334,-0.624961 -1.071363,-0.999942 0.410691,-0.2857 1.142792,-0.17856 1.446352,0.23213 0.249981,0.321411 1.499913,0.339271 1.499913,0.01784 0,-0.4107 -0.5714,-1.053521 -1.178502,-1.303502 -0.660681,-0.285701 -1.321362,-0.30356 -2.160603,-0.05362 z"
       id="path3655"
       style="stroke-width:0.0178561" />
    <path
       d="m 47.544929,95.249907 v 2.767696 h 0.714242 0.714251 v -2.767696 -2.767713 h -0.714251 -0.714242 z"
       id="path3769"
       style="stroke-width:0.0178561" />
    <path
       d="m 56.294444,95.249907 v 2.767696 h 0.714251 0.714242 v -2.767696 -2.767713 h -0.714242 -0.714251 z"
       id="path3771"
       style="stroke-width:0.0178561" />
  </g>
</svg>
