<?xml version="1.0" encoding="UTF-8" standalone="no"?>
<!-- Created with Inkscape (http://www.inkscape.org/) -->

<svg
   width="100mm"
   height="100mm"
   viewBox="0 0 100 100"
   version="1.1"
   id="svg26768"
   xmlns="http://www.w3.org/2000/svg"
   xmlns:svg="http://www.w3.org/2000/svg">
  <defs
     id="defs26765" />
  <g
     id="layer1">
    <path
       d="M 48.779665,1.9856871 C 47.877447,2.206984 16.861786,14.565586 15.568044,15.212456 c -0.731985,0.391526 -1.44694,1.1916 -1.872513,2.127859 -0.306412,0.646869 -0.32344,1.702287 -0.32344,21.023241 v 20.342329 l 0.408553,0.851143 c 0.800075,1.702286 0.136184,1.395875 18.163394,8.630595 l 16.58028,6.655941 1.957627,0.01702 1.957634,0.01702 16.51218,-6.604872 c 10.332879,-4.136558 16.733476,-6.792125 17.107987,-7.081515 0.323431,-0.255343 0.834119,-0.851142 1.106479,-1.293738 l 0.510686,-0.817097 V 38.465694 c 0,-20.155077 0,-20.631718 -0.340451,-21.295608 C 86.519361,15.518868 87.200275,15.842302 69.087943,8.5905594 52.950258,2.1388926 52.371488,1.9346183 51.060724,1.8495043 c -0.800077,-0.051072 -1.719309,0.01702 -2.281059,0.1361828 z m 4.936628,2.7066359 c 1.038395,0.4085486 1.872514,0.7660294 1.872514,0.8170972 0,0.051072 -7.421971,3.132208 -16.478137,6.8602158 l -16.478137,6.75808 -2.757703,-1.12351 c -1.532054,-0.629845 -2.740683,-1.157555 -2.723662,-1.174579 0.03405,-0.03404 7.251745,-2.927932 16.052572,-6.451666 L 49.205231,3.9773624 h 1.327785 c 1.157558,0 1.566103,0.1021333 3.183277,0.7149606 z m 7.830517,3.132208 c 1.549081,0.6128229 2.859845,1.174577 2.944958,1.2426684 0.119163,0.1191603 -32.49665,13.6353186 -32.939254,13.6353186 -0.221297,0 -5.736704,-2.178927 -5.958001,-2.366179 -0.119156,-0.102133 32.462615,-13.601272 32.888181,-13.6182946 0.153207,-0.01702 1.532062,0.4936627 3.064116,1.1064866 z m 9.20937,3.67694 c 1.463969,0.5958 2.68962,1.140532 2.723662,1.208622 0.03405,0.08511 -7.387921,3.217323 -16.478138,6.962354 l -16.563249,6.809148 -2.99603,-1.24267 C 35.2635,24.336713 34.497473,23.945187 34.6677,23.84305 35.467777,23.332364 67.470769,10.292846 67.760158,10.360937 c 0.187256,0.03405 1.532061,0.561755 2.996022,1.140534 z m 9.720059,3.898236 c 1.940606,0.766029 3.523737,1.42992 3.489688,1.446944 -0.153206,0.153205 -33.194593,13.686387 -33.41589,13.686387 -0.272369,0 -6.877242,-2.672591 -7.081511,-2.859843 -0.136184,-0.136182 33.075438,-13.839592 33.313749,-13.754477 0.102144,0.03404 1.753358,0.697937 3.693964,1.480989 z m -47.817237,10.14563 16.801577,6.911285 v 9.498759 9.515785 L 48.660503,51.14773 c -0.459625,-0.170228 -2.093821,-0.83412 -3.659915,-1.463966 -1.566111,-0.629847 -2.979009,-1.106487 -3.132214,-1.07244 -0.153206,0.03405 -0.442588,0.272365 -0.646872,0.527708 -0.323432,0.442594 -0.323432,0.510687 -0.102133,0.936258 0.221298,0.374503 0.970303,0.731984 4.306786,2.059767 l 4.034425,1.617172 v 4.136559 c 0,2.281063 -0.06811,4.136555 -0.153206,4.136555 -0.06811,0 -0.697942,-0.238319 -1.378855,-0.510686 -1.549083,-0.629845 -2.110841,-0.646868 -2.485343,-0.08511 -0.221297,0.35748 -0.238319,0.510687 -0.08511,0.919234 0.170233,0.391526 0.510686,0.595801 2.110839,1.225647 l 1.906556,0.766029 0.05104,4.221671 0.03405,4.221672 -0.374503,-0.06809 C 48.524302,72.59655 17.13413,60.01665 16.538331,59.676192 c -1.021375,-0.5958 -1.123509,-1.07244 -1.123509,-5.174952 0,-2.042744 0.01706,-3.710986 0.05104,-3.710986 0.01706,0 2.144883,0.851145 4.715339,1.872516 2.570448,1.038396 4.834493,1.855494 5.00472,1.83847 0.170225,-0.03405 0.476636,-0.255343 0.663892,-0.493662 0.28939,-0.40855 0.306411,-0.510688 0.102134,-0.919235 -0.204268,-0.40855 -0.919232,-0.731985 -5.379222,-2.519385 l -5.15793,-2.059768 v -4.119534 -4.119533 l 0.88519,0.03404 c 0.817106,0.01702 0.90221,-0.01702 1.123516,-0.47664 0.221297,-0.425571 0.204268,-0.527709 -0.08512,-0.902211 -0.170227,-0.238323 -0.646873,-0.561758 -1.072437,-0.731987 l -0.766028,-0.306411 -0.05104,-4.187624 c -0.01706,-2.298088 -0.01706,-4.187626 0.01706,-4.187626 0.03405,0 0.714963,0.272366 1.532061,0.5958 0.817099,0.323435 1.600145,0.5958 1.736329,0.5958 0.391525,0 0.936262,-0.629845 0.936262,-1.072441 0,-0.595799 -0.391533,-0.868166 -2.417252,-1.668241 l -1.838463,-0.71496 v -4.323809 c 0,-3.336481 0.05104,-4.306785 0.221297,-4.306785 0.102133,0 7.762424,3.115184 17.022867,6.928307 z m 53.026233,2.706636 -0.05104,9.634943 -1.055415,0.425572 -1.072445,0.425572 v 1.089463 c 0,0.595801 0.06811,1.089464 0.153206,1.089464 0.08511,0 0.510686,-0.153206 0.953281,-0.340457 0.442596,-0.187252 0.868169,-0.340458 0.953282,-0.340458 0.08511,0 0.153205,1.736333 0.153205,4.119534 v 4.136557 l -3.166256,1.259692 c -1.73633,0.680915 -3.200298,1.344807 -3.23434,1.463967 -0.05104,0.119161 -0.06811,0.629847 -0.03405,1.157556 l 0.05105,0.936258 3.149227,-1.259692 c 1.719317,-0.697939 3.166257,-1.259693 3.183278,-1.259693 0.03405,0 0.05105,1.651218 0.05105,3.676939 0,3.489688 -0.01699,3.710986 -0.374502,4.357855 -0.221298,0.374502 -0.595801,0.783052 -0.834119,0.902211 C 83.880777,60.067713 52.575719,72.5625 52.08206,72.68166 l -0.408551,0.102133 0.03405,-4.221672 0.05104,-4.221671 4.221672,-1.685264 4.204644,-1.685264 v -1.089465 c 0,-0.595799 -0.05104,-1.089463 -0.136185,-1.089463 -0.06811,0 -1.940605,0.731985 -4.170601,1.617172 -2.212974,0.88519 -4.068468,1.617173 -4.11953,1.617173 -0.05104,0 -0.08512,-1.855492 -0.08512,-4.136556 v -4.136558 l 5.277088,-2.110835 5.277089,-2.110836 v -1.140533 -1.14053 l -5.226017,2.09381 -5.243039,2.093813 -0.05104,-4.10251 c -0.01706,-2.247019 0.01706,-4.15358 0.08511,-4.221672 0.08511,-0.06809 1.038395,-0.47664 2.144882,-0.919234 l 1.99167,-0.800075 V 40.30416 c 0,-0.595801 -0.06811,-1.089464 -0.136177,-1.089464 -0.06811,0 -0.987324,0.340457 -2.042748,0.766028 -1.038394,0.425573 -1.940605,0.766031 -1.991669,0.766031 -0.05104,0 -0.08512,-1.872516 -0.08512,-4.153581 v -4.136557 l 16.733495,-6.911284 c 9.192351,-3.7961 16.85264,-6.911285 17.022866,-6.911285 0.272369,-0.01702 0.289389,0.510686 0.25534,9.617921 z"
       id="path16220"
       style="stroke-width:0.0170229" />
    <path
       d="m 24.164593,31.639524 c -0.221297,0.35748 -0.238317,0.510686 -0.08511,0.902213 0.187248,0.442593 1.021366,0.817097 9.924327,4.374875 5.362202,2.144882 9.907314,3.915261 10.111582,3.96633 0.834127,0.153206 1.429927,-1.140533 0.800076,-1.71931 -0.442597,-0.391526 -19.457139,-7.94968 -20.001868,-7.94968 -0.306411,0 -0.561758,0.136183 -0.749007,0.425572 z"
       id="path16222"
       style="stroke-width:0.0170229" />
    <path
       d="m 22.25803,41.189353 c -0.391524,0.272366 -0.493657,0.970303 -0.221298,1.395875 0.187257,0.306412 4.545106,2.07679 5.123883,2.07679 0.800078,0 1.242673,-0.800074 0.851141,-1.532058 -0.153205,-0.272366 -4.647238,-2.212973 -5.157925,-2.212973 -0.119163,0 -0.391525,0.119161 -0.595801,0.272366 z"
       id="path16224"
       style="stroke-width:0.0170229" />
    <path
       d="m 32.795186,45.615298 c -0.442595,0.544733 -0.442595,0.783053 -0.05104,1.225646 0.340452,0.425572 2.281057,1.225647 2.927929,1.225647 0.834118,0 1.293735,-0.919235 0.817098,-1.583126 -0.238318,-0.306412 -2.553436,-1.310762 -3.047093,-1.310762 -0.153205,0 -0.459616,0.204276 -0.646871,0.442595 z"
       id="path16226"
       style="stroke-width:0.0170229" />
    <path
       d="m 30.684354,55.35238 c -0.408553,0.459616 -0.357481,1.174578 0.102133,1.463966 0.510686,0.340457 8.902962,3.67694 9.226393,3.67694 0.391532,0 0.936261,-0.629846 0.936261,-1.072441 0,-0.221298 -0.136185,-0.527709 -0.28939,-0.680915 -0.408545,-0.35748 -8.800827,-3.693962 -9.311506,-3.693962 -0.204276,0 -0.510687,0.136183 -0.663892,0.306412 z"
       id="path16228"
       style="stroke-width:0.0170229" />
    <path
       d="m 75.011903,31.469295 c -4.528083,1.821446 -8.307162,3.370529 -8.392275,3.455643 -0.08512,0.08511 -0.136184,0.612823 -0.102144,1.191599 l 0.05104,1.021373 8.426324,-3.370528 8.426316,-3.370527 0.05104,-1.12351 c 0.03405,-0.612822 -0.01706,-1.123508 -0.08511,-1.106487 -0.06811,0 -3.847179,1.48099 -8.375253,3.302437 z"
       id="path16230"
       style="stroke-width:0.0170229" />
    <path
       d="m 61.03613,37.052796 -2.979002,1.225646 -0.05104,1.157556 -0.05104,1.140532 0.817097,-0.323434 c 0.442596,-0.17023 1.906556,-0.76603 3.251371,-1.293739 l 2.417242,-0.970304 v -1.089462 c 0,-0.76603 -0.06811,-1.089464 -0.204268,-1.072442 -0.119164,0 -1.566111,0.561754 -3.200299,1.225647 z"
       id="path16232"
       style="stroke-width:0.0170229" />
    <path
       d="m 79.080362,40.491416 -1.787392,0.731982 -0.05104,1.123509 c -0.03398,0.612824 0.01706,1.12351 0.08512,1.12351 0.06811,-0.01702 1.021373,-0.374503 2.09381,-0.817098 l 1.957627,-0.800075 0.05105,-1.07244 c 0.06811,-1.293738 0.102133,-1.293738 -2.34916,-0.289388 z"
       id="path16234"
       style="stroke-width:0.0170229" />
    <path
       d="m 69.717794,44.236446 -5.191984,2.093813 -0.05104,1.140532 c -0.05105,1.038395 -0.01706,1.140533 0.255339,1.038395 0.170227,-0.06809 2.553427,-1.004349 5.294118,-2.093813 l 4.970678,-1.991674 v -1.157557 c 0,-0.629845 -0.01706,-1.157554 -0.03405,-1.140532 -0.03405,0 -2.38321,0.953281 -5.243047,2.110836 z"
       id="path16236"
       style="stroke-width:0.0170229" />
    <path
       d="m 73.803274,53.224521 -2.979001,1.225646 -0.05104,1.157556 -0.05105,1.140532 0.817099,-0.323435 c 0.442594,-0.170228 1.906564,-0.766029 3.251362,-1.293738 l 2.417249,-0.970304 v -1.089463 c 0,-0.766028 -0.06811,-1.089464 -0.204268,-1.07244 -0.119163,0 -1.56611,0.561755 -3.200306,1.225646 z"
       id="path16238"
       style="stroke-width:0.0170229" />
    <path
       d="m 65.291844,56.629094 -2.979001,1.225647 -0.05105,1.157555 -0.05104,1.140533 0.817097,-0.323435 c 0.442595,-0.170229 1.906565,-0.766029 3.25137,-1.293738 l 2.417251,-0.970304 v -1.089464 c 0,-0.766028 -0.06811,-1.089463 -0.204277,-1.072439 -0.119163,0 -1.566103,0.561755 -3.200298,1.225645 z"
       id="path16240"
       style="stroke-width:0.0170229" />
    <path
       d="m 65.206723,88.751248 c -1.957626,0.970302 -2.434264,4.306787 -0.885181,6.077166 0.663883,0.766029 1.395876,1.072444 2.502355,1.072444 1.106488,0 1.838472,-0.306415 2.502365,-1.072444 1.515039,-1.736336 1.038394,-5.140908 -0.85114,-6.060143 -0.970311,-0.459616 -2.349158,-0.476641 -3.268399,-0.01703 z m 2.468322,1.106484 c 0.272369,0.153206 0.612821,0.493665 0.766026,0.766029 0.32344,0.629847 0.32344,2.212976 0,2.996025 -0.527707,1.259695 -2.434271,1.378852 -3.149227,0.187254 -0.425573,-0.680915 -0.459623,-2.451294 -0.08511,-3.183279 0.476644,-0.919235 1.53206,-1.242666 2.468322,-0.766029 z"
       id="path16346"
       style="stroke-width:0.0170229" />
    <path
       d="m 7.9247754,92.155824 v 3.574801 h 0.6809133 0.6809215 v -1.157556 c 0,-1.00435 0.051046,-1.225647 0.3915237,-1.549084 l 0.4085451,-0.374501 1.072437,1.549083 1.072445,1.532058 h 0.902211 c 0.510687,0 0.91924,-0.03406 0.91924,-0.08511 0,-0.05106 -0.646872,-0.970303 -1.446947,-2.042742 -0.800078,-1.072442 -1.446949,-2.0087 -1.446949,-2.076792 0,-0.06809 0.629849,-0.766028 1.395877,-1.532058 l 1.412906,-1.412899 H 13.031638 L 12.095377,88.56399 10.6995,90.062003 9.3036231,91.560014 9.2865541,90.062003 V 88.581012 H 8.6056402 7.9247187 Z"
       id="path16390"
       style="stroke-width:0.0170229" />
    <path
       d="m 34.820913,92.155824 v 3.574801 h 0.680914 0.680913 v -3.574801 -3.574805 h -0.680913 -0.680914 z"
       id="path16392"
       style="stroke-width:0.0170229" />
    <path
       d="m 46.566682,89.772621 v 1.191599 l -0.544729,-0.340459 c -0.731984,-0.442594 -1.310754,-0.425569 -2.025718,0.05107 -0.766026,0.510684 -1.17458,1.361828 -1.17458,2.468316 0,2.127858 1.634195,3.370529 3.200298,2.417245 0.442596,-0.272364 0.544729,-0.289387 0.544729,-0.08511 0,0.187254 0.187255,0.255346 0.680922,0.255346 h 0.680914 v -3.574804 -3.574805 h -0.680914 -0.680922 z m -0.357473,2.127859 c 0.136177,0.136181 0.272369,0.595798 0.306411,1.055416 0.06811,0.66389 0.01706,0.90221 -0.28939,1.276714 -0.987323,1.276718 -2.434272,-0.119159 -1.872513,-1.821446 0.289389,-0.90221 1.1916,-1.140532 1.855492,-0.510684 z"
       id="path16394"
       style="stroke-width:0.0170229" />
    <path
       d="m 71.249847,92.155824 v 3.574801 h 0.595799 c 0.408546,0 0.595801,-0.08511 0.595801,-0.255346 0,-0.323434 0.153205,-0.323434 0.527707,0.01704 0.170235,0.153207 0.595801,0.306412 0.953283,0.34046 1.361826,0.170225 2.315117,-0.987331 2.315117,-2.8258 0,-1.66824 -0.834127,-2.655566 -2.212983,-2.621518 -0.442595,0.01704 -0.868161,0.136181 -1.072437,0.323431 -0.340461,0.306412 -0.340461,0.289393 -0.340461,-0.902211 v -1.225653 h -0.680914 -0.680912 z m 3.285411,-0.136187 c 0.408552,0.493665 0.391532,1.668246 -0.06811,2.24702 -0.93626,1.191599 -2.298087,-0.153206 -1.838472,-1.821446 0.272362,-0.987325 1.225644,-1.208622 1.906556,-0.425574 z"
       id="path16396"
       style="stroke-width:0.0170229" />
    <path
       d="m 77.378082,89.176817 c 0,0.578781 0.01706,0.595804 0.680914,0.595804 0.663893,0 0.680913,-0.01703 0.680913,-0.595804 0,-0.578775 -0.01706,-0.595798 -0.680913,-0.595798 -0.663892,0 -0.680914,0.01703 -0.680914,0.595798 z"
       id="path16398"
       style="stroke-width:0.0170229" />
    <path
       d="m 91.336838,89.772621 c 0,0.561752 -0.05105,0.680915 -0.340461,0.680915 -0.272369,0 -0.340461,0.119157 -0.340461,0.510684 0,0.391526 0.06811,0.510685 0.340461,0.510685 0.323432,0 0.340461,0.119163 0.340461,1.855494 0,2.212972 0.102134,2.400226 1.378847,2.400226 0.817097,0 0.834119,-0.01703 0.834119,-0.510685 0,-0.425575 -0.06811,-0.510689 -0.425566,-0.510689 -0.425573,0 -0.425573,0 -0.425573,-1.617173 0,-1.617173 0,-1.617173 0.425573,-1.617173 0.357474,0 0.425566,-0.0851 0.425566,-0.510685 0,-0.425569 -0.06811,-0.510684 -0.425566,-0.510684 -0.374502,0 -0.425573,-0.06809 -0.425573,-0.680915 V 89.091703 H 92.01775 91.336838 Z"
       id="path16442"
       style="stroke-width:0.0170229" />
    <path
       d="m 17.083076,90.589718 c -0.510679,0.272363 -0.646872,0.289388 -0.646872,0.102133 0,-0.17023 -0.204268,-0.238321 -0.680913,-0.238321 h -0.680913 v 2.638543 2.638546 h 0.680913 0.680913 v -1.787403 c 0,-1.583125 0.03405,-1.821446 0.357491,-2.144882 0.459615,-0.459616 1.191592,-0.374501 1.463961,0.187254 0.136184,0.25534 0.221298,1.089465 0.221298,2.07679 v 1.668241 h 0.680912 0.680922 v -2.042742 c 0,-1.10649 -0.08512,-2.212977 -0.187255,-2.434274 -0.391525,-0.851145 -1.600154,-1.157557 -2.570457,-0.663891 z"
       id="path16530"
       style="stroke-width:0.0170229" />
    <path
       d="m 22.053753,90.572693 c -0.731975,0.374503 -1.361826,1.549082 -1.361826,2.519385 0,0.374502 0.170226,1.038397 0.391524,1.446943 0.493667,1.00435 1.242671,1.395871 2.468322,1.310765 1.549073,-0.119161 2.468314,-1.140535 2.468314,-2.757708 0,-1.617173 -0.919241,-2.638542 -2.468314,-2.757705 -0.646872,-0.05106 -1.072445,0.01703 -1.49802,0.23832 z m 2.195954,1.34481 c 0.817098,1.038393 0.238319,2.791748 -0.919231,2.791748 -0.629851,0 -0.88519,-0.238321 -1.106487,-1.038393 -0.204277,-0.680914 0.05104,-1.770378 0.476636,-2.0087 0.544738,-0.323435 1.174579,-0.204272 1.549082,0.255345 z"
       id="path16532"
       style="stroke-width:0.0170229" />
    <path
       d="m 38.480828,90.623761 c -0.391532,0.187253 -0.834119,0.578781 -1.021374,0.885193 -0.408545,0.71496 -0.425573,2.3832 -0.03398,3.149229 0.527708,0.987326 2.264037,1.549085 3.234339,1.055418 0.54473,-0.289388 1.310757,-1.038394 1.310757,-1.293738 0,-0.323435 -1.259685,-0.289388 -1.532054,0.03406 -0.493666,0.5958 -1.872514,0.119158 -1.872514,-0.646871 0,-0.255345 0.238319,-0.289388 1.804422,-0.289388 h 1.821451 l -0.11916,-0.800074 c -0.136185,-1.038392 -0.561759,-1.719307 -1.293735,-2.110834 -0.766035,-0.408549 -1.446947,-0.408549 -2.298088,0.01704 z m 1.821443,1.140537 c 0.578778,0.527708 0.391522,0.73198 -0.714956,0.73198 -0.561758,0 -1.021374,-0.05106 -1.021374,-0.136182 0,-0.06809 0.119155,-0.306411 0.272361,-0.510684 0.30641,-0.442598 1.021374,-0.493666 1.463969,-0.08511 z"
       id="path16534"
       style="stroke-width:0.0170229" />
    <path
       d="m 50.396832,90.453536 c -0.459616,0.187249 -1.038395,0.834121 -1.259693,1.412895 -0.25534,0.680914 -0.238319,1.889541 0.05104,2.58748 0.493665,1.174575 2.127862,1.651214 3.081135,0.902211 l 0.476645,-0.374503 -0.102145,0.66389 c -0.05105,0.357482 -0.221298,0.766026 -0.340451,0.885186 -0.323433,0.340459 -1.259695,0.323439 -1.617175,0 -0.170227,-0.170223 -0.595801,-0.289383 -0.936261,-0.289383 -0.748997,0 -0.85114,0.408543 -0.238318,0.987325 0.800075,0.749007 2.72366,0.8171 3.779077,0.136185 0.612829,-0.391524 0.766035,-1.259697 0.766035,-4.238697 v -2.672589 h -0.680917 c -0.5958,0 -0.680913,0.05106 -0.680913,0.374502 -0.01706,0.357479 -0.03405,0.374504 -0.238319,0.102144 -0.408552,-0.544732 -1.361834,-0.766033 -2.059769,-0.476641 z m 1.634195,1.191599 c 0.221297,0 0.663892,0.953283 0.663892,1.446943 0,0.476641 -0.272369,1.123512 -0.578779,1.310761 -0.340453,0.23832 -1.072437,0.136182 -1.344806,-0.170229 -0.868161,-0.953279 -0.187247,-3.013046 0.868169,-2.655567 0.136184,0.03406 0.306411,0.06809 0.391524,0.06809 z"
       id="path16536"
       style="stroke-width:0.0170229" />
    <path
       d="m 56.184607,90.623761 c -0.391523,0.187253 -0.834118,0.578781 -1.021374,0.885193 -0.408545,0.71496 -0.425566,2.3832 -0.03405,3.149229 0.527707,0.987326 2.264037,1.549085 3.234349,1.055418 0.544729,-0.289388 1.310755,-1.038394 1.310755,-1.293738 0,-0.323435 -1.259693,-0.289388 -1.532053,0.03406 -0.493665,0.5958 -1.872522,0.119158 -1.872522,-0.646871 0,-0.255345 0.238326,-0.289388 1.804422,-0.289388 h 1.82145 L 59.776417,92.71759 c -0.136176,-1.038392 -0.561751,-1.719307 -1.293735,-2.110834 -0.766026,-0.408549 -1.44694,-0.408549 -2.298087,0.01704 z m 1.821443,1.140537 c 0.578786,0.527708 0.391531,0.73198 -0.714955,0.73198 -0.561759,0 -1.021375,-0.05106 -1.021375,-0.136182 0,-0.06809 0.119163,-0.306411 0.272369,-0.510684 0.306411,-0.442598 1.021373,-0.493666 1.463961,-0.08511 z"
       id="path16538"
       style="stroke-width:0.0170229" />
    <path
       d="m 81.037997,90.623761 c -0.391525,0.187253 -0.834118,0.578781 -1.021374,0.885193 -0.408545,0.71496 -0.425566,2.3832 -0.03398,3.149229 0.527708,0.987326 2.264038,1.549085 3.234341,1.055418 0.544737,-0.289388 1.310764,-1.038394 1.310764,-1.293738 0,-0.323435 -1.259692,-0.289388 -1.532062,0.03406 -0.493657,0.5958 -1.872513,0.119158 -1.872513,-0.646871 0,-0.255345 0.238318,-0.289388 1.804421,-0.289388 h 1.821454 L 84.629884,92.71759 c -0.136185,-1.038392 -0.56175,-1.719307 -1.293735,-2.110834 -0.766027,-0.408549 -1.446948,-0.408549 -2.298087,0.01704 z m 1.821443,1.140537 c 0.578778,0.527708 0.391532,0.73198 -0.714956,0.73198 -0.561757,0 -1.021374,-0.05106 -1.021374,-0.136182 0,-0.06809 0.119155,-0.306411 0.272368,-0.510684 0.306411,-0.442598 1.021367,-0.493666 1.463962,-0.08511 z"
       id="path16540"
       style="stroke-width:0.0170229" />
    <path
       d="m 86.859814,90.453536 c -0.680913,0.204273 -0.970302,0.49366 -1.327784,1.276713 -0.408546,0.868169 -0.408546,2.025723 0,2.91091 0.408553,0.919235 1.259693,1.327787 2.451293,1.208627 0.714963,-0.0681 0.953282,-0.170229 1.429926,-0.697941 0.306411,-0.323431 0.561751,-0.766031 0.561751,-0.953278 0,-0.289389 -0.119155,-0.340461 -0.646864,-0.340461 -0.544737,0 -0.697942,0.08511 -0.851148,0.425575 -0.136184,0.306412 -0.323431,0.42557 -0.680913,0.42557 -0.749006,0 -1.055416,-0.459619 -1.055416,-1.583126 0,-1.055416 0.374503,-1.65122 1.004345,-1.65122 0.340461,0 0.868169,0.425575 0.868169,0.697938 0,0.08511 0.340461,0.153206 0.749006,0.153206 h 0.766029 L 89.975,91.79834 c -0.221298,-0.766029 -0.595801,-1.106484 -1.446941,-1.327785 -0.851148,-0.221296 -1.004352,-0.221296 -1.668245,-0.01703 z"
       id="path16542"
       style="stroke-width:0.0170229" />
    <path
       d="m 26.649929,90.640785 c 0,0.136186 0.902211,3.472666 1.293735,4.783428 0.06811,0.23832 0.272368,0.306412 0.817105,0.306412 h 0.731977 l 0.28939,-1.463968 c 0.510695,-2.570451 0.561757,-2.536408 1.225649,0.90221 0.102133,0.527709 0.153207,0.561758 0.834127,0.561758 h 0.714957 l 0.766025,-2.638547 0.766027,-2.638542 h -0.731977 -0.714962 l -0.187248,0.885187 c -0.6639,3.149231 -0.595809,3.132207 -1.123517,0.595798 l -0.30641,-1.480985 h -0.714963 -0.714956 l -0.306411,1.702288 c -0.170226,0.936254 -0.374503,1.702282 -0.425574,1.702282 -0.06811,0 -0.221298,-0.476636 -0.323431,-1.07244 -0.442595,-2.315111 -0.459615,-2.33213 -1.20863,-2.33213 -0.374502,0 -0.680913,0.08511 -0.680913,0.187249 z"
       id="path16658"
       style="stroke-width:0.0170229" />
    <path
       d="m 77.378082,93.534675 c 0,2.927932 -0.01706,3.081136 -0.340461,3.166252 -0.238317,0.06813 -0.340452,0.23833 -0.340452,0.561762 0,0.544729 0.204269,0.663883 0.987324,0.56175 0.987325,-0.153206 1.055416,-0.425576 1.055416,-4.08549 v -3.285413 h -0.680913 -0.680914 z"
       id="path16660"
       style="stroke-width:0.0170229" />
  </g>
</svg>
