<?xml version="1.0" encoding="UTF-8" standalone="no"?>
<!-- Created with Inkscape (http://www.inkscape.org/) -->

<svg
   width="100mm"
   height="100mm"
   viewBox="0 0 100 100"
   version="1.1"
   id="svg26768"
   sodipodi:docname="KV Store.svg"
   inkscape:version="1.1.1 (3bf5ae0d25, 2021-09-20)"
   xmlns:inkscape="http://www.inkscape.org/namespaces/inkscape"
   xmlns:sodipodi="http://sodipodi.sourceforge.net/DTD/sodipodi-0.dtd"
   xmlns="http://www.w3.org/2000/svg"
   xmlns:svg="http://www.w3.org/2000/svg">
  <sodipodi:namedview
     id="namedview26770"
     pagecolor="#ffffff"
     bordercolor="#666666"
     borderopacity="1.0"
     inkscape:pageshadow="2"
     inkscape:pageopacity="0.0"
     inkscape:pagecheckerboard="0"
     inkscape:document-units="mm"
     showgrid="false"
     width="209mm"
     inkscape:zoom="0.7500982"
     inkscape:cx="13.998167"
     inkscape:cy="135.31562"
     inkscape:window-width="1920"
     inkscape:window-height="1009"
     inkscape:window-x="1912"
     inkscape:window-y="-8"
     inkscape:window-maximized="1"
     inkscape:current-layer="layer1" />
  <defs
     id="defs26765" />
  <g
     inkscape:label="Layer 1"
     inkscape:groupmode="layer"
     id="layer1">
    <path
       d="M 46.331376,0.88850021 C 34.11542,1.2553462 25.01765,3.2913382 21.899462,6.3911842 c -0.513583,0.513583 -0.935455,1.137221 -1.045509,1.559093 -0.275134,1.008825 -0.275134,56.9160848 0,57.9432528 0.440214,1.632462 2.879738,3.283267 6.584878,4.457173 10.253332,3.264925 30.961763,3.63177 43.287773,0.752033 3.815193,-0.880429 6.84167,-2.219415 8.254024,-3.63177 0.715349,-0.715349 0.917114,-1.063853 1.082195,-1.870913 0.146738,-0.715348 0.201765,-8.932689 0.16508,-29.237589 L 80.172877,8.1153572 79.677635,7.2532702 C 77.164743,2.9795202 63.554773,0.39325921 46.331376,0.88850021 Z M 61.372042,3.8782912 c 9.372904,1.063852 15.884412,3.063161 16.10452,4.952415 0.09171,0.678665 -0.183423,0.953798 -1.595778,1.6508048 -4.5122,2.2561 -12.417721,3.521718 -23.221323,3.723482 C 42.002598,14.406758 33.510124,13.489644 27.512199,11.490336 23.825402,10.261404 22.724865,9.2525792 23.80706,8.0786732 c 0.843744,-0.935456 4.090327,-2.164389 7.758783,-2.971449 3.081502,-0.678664 6.346428,-1.100537 12.014191,-1.559094 2.32947,-0.183423 15.297459,0.05503 17.792008,0.330161 z m -33.19952,9.1527968 c 5.924555,1.779201 14.325317,2.622945 24.395227,2.457865 11.702374,-0.201766 19.442814,-1.540751 24.817102,-4.310436 0.07337,-0.03669 0.128395,12.142588 0.128395,27.054859 v 27.128227 l -0.495241,0.4769 c -1.999308,1.870912 -9.171139,3.631771 -17.847036,4.402146 -3.430005,0.293477 -14.141895,0.293477 -17.608585,0 C 33.161621,69.506958 26.485032,67.91118 24.008825,66.040268 L 23.403529,65.600053 V 38.380114 11.160175 l 1.338987,0.623638 c 0.733691,0.330161 2.274442,0.898771 3.430006,1.247275 z"
       id="path8008"
       style="stroke-width:0.0183423" />
    <path
       d="m 33.858628,39.480651 v 8.896004 h 2.01765 2.01765 v -2.714657 -2.714657 l 1.063852,-1.045509 1.063852,-1.04551 2.732999,3.851878 2.751342,3.833536 2.439523,0.01834 h 2.42118 l -1.522408,-2.072677 c -0.843745,-1.118879 -2.512892,-3.374979 -3.705141,-4.9891 -1.192248,-1.61412 -2.237757,-3.026476 -2.329468,-3.154872 -0.110054,-0.146737 0.917114,-1.338986 3.411663,-3.87022 1.980966,-2.01765 3.595086,-3.723482 3.595086,-3.778509 0,-0.05502 -1.045509,-0.110054 -2.329469,-0.110054 h -2.347812 l -3.576743,3.870221 -3.576744,3.851878 -0.05502,-3.87022 -0.03668,-3.851879 h -2.01765 -2.01765 z"
       id="path8010"
       style="stroke-width:0.0183423" />
    <path
       d="m 50.458388,30.804754 c 0.05502,0.128396 1.705832,4.200381 3.650113,9.042743 l 3.558402,8.804293 h 1.797543 1.797543 l 3.631771,-8.987716 c 1.999308,-4.934073 3.631771,-9.006058 3.631771,-9.042742 0,-0.01834 -0.972141,-0.01834 -2.146046,0 l -2.127705,0.05502 -2.274442,5.961241 c -1.228933,3.283267 -2.292785,6.089635 -2.366154,6.236374 -0.09171,0.238449 -0.110054,0.238449 -0.256792,0 -0.07337,-0.146739 -1.155563,-2.971449 -2.384495,-6.291401 l -2.237758,-5.997925 h -2.182732 c -1.669147,0 -2.146046,0.05502 -2.091019,0.220107 z"
       id="path8012"
       style="stroke-width:0.0183423" />
    <path
       d="m 47.431912,91.077481 c -0.843744,0.44021 -1.338986,1.37566 -1.21059,2.31112 0.128396,1.04551 0.715349,1.54075 2.402838,1.96263 0.80706,0.20176 1.595779,0.45856 1.779201,0.55027 0.495242,0.25679 0.421872,1.02716 -0.128395,1.37566 -0.825404,0.55027 -2.659631,0 -2.659631,-0.78871 0,-0.16508 -0.256792,-0.23845 -0.80706,-0.23845 -0.770376,0 -0.788718,0.0184 -0.697007,0.49524 0.256792,1.39401 1.632463,2.20107 3.521717,2.01765 1.797543,-0.16509 2.861396,-1.17391 2.677973,-2.58626 -0.128396,-1.0822 -0.733691,-1.55909 -2.622946,-2.05434 -1.999308,-0.53192 -2.439523,-0.99048 -1.705831,-1.72417 0.531925,-0.53193 1.540751,-0.49524 2.109362,0.0917 0.256791,0.23845 0.458556,0.53192 0.458556,0.64198 0,0.0917 0.330161,0.18342 0.733692,0.18342 0.623637,0 0.733691,-0.055 0.733691,-0.36684 0,-0.67867 -0.550269,-1.44904 -1.28396,-1.83423 -0.917114,-0.4769 -2.439523,-0.49524 -3.30161,-0.0367 z"
       id="path8108"
       style="stroke-width:0.0183423" />
    <path
       d="m 28.72279,94.782621 v 3.85187 h 0.733691 0.733691 v -1.24727 c 0,-1.0822 0.05502,-1.32064 0.421873,-1.66915 l 0.440215,-0.40353 1.155562,1.66914 1.155564,1.65081 h 0.97214 c 0.550269,0 0.990483,-0.0367 0.990483,-0.0917 0,-0.055 -0.697006,-1.04551 -1.559093,-2.20107 -0.862087,-1.15557 -1.559094,-2.16439 -1.559094,-2.23776 0,-0.0734 0.678665,-0.82541 1.504067,-1.65081 l 1.522409,-1.52241 h -1.008825 l -1.008826,-0.0184 -1.504066,1.61412 -1.504067,1.61412 -0.01834,-1.61412 v -1.59578 h -0.733691 -0.733691 z"
       id="path8162"
       style="stroke-width:0.0183423" />
    <path
       d="m 35.876278,91.059131 c 0,0.0734 0.550268,1.81589 1.228933,3.85188 l 1.247274,3.72348 h 0.752034 0.752033 l 1.247275,-3.63177 c 0.697007,-1.98097 1.283959,-3.72348 1.338986,-3.85187 0.05502,-0.14675 -0.16508,-0.22012 -0.770376,-0.22012 h -0.825402 l -0.366845,1.22894 c -0.201766,0.697 -0.550269,1.9076 -0.770377,2.71466 -0.220107,0.80706 -0.458556,1.5224 -0.513583,1.59577 -0.05502,0.0734 -0.476899,-1.13722 -0.917114,-2.69631 l -0.80706,-2.84306 h -0.788718 c -0.440215,0 -0.80706,0.055 -0.80706,0.1284 z"
       id="path8164"
       style="stroke-width:0.0183423" />
    <path
       d="m 53.668286,92.214691 c 0,0.6053 -0.05502,0.7337 -0.366845,0.7337 -0.293477,0 -0.366846,0.1284 -0.366846,0.55027 0,0.42186 0.07337,0.55026 0.366846,0.55026 0.348504,0 0.366845,0.1284 0.366845,1.99931 0,2.38449 0.110054,2.58626 1.485725,2.58626 0.880429,0 0.898771,-0.0184 0.898771,-0.55026 0,-0.45857 -0.07337,-0.55028 -0.458557,-0.55028 -0.458556,0 -0.458556,0 -0.458556,-1.74251 0,-1.74252 0,-1.74252 0.458556,-1.74252 0.385189,0 0.458557,-0.0917 0.458557,-0.55026 0,-0.45856 -0.07337,-0.55027 -0.458557,-0.55027 -0.40353,0 -0.458556,-0.0734 -0.458556,-0.7337 v -0.73369 h -0.733691 -0.733692 z"
       id="path8184"
       style="stroke-width:0.0183423" />
    <path
       d="m 58.070433,93.076791 c -0.788718,0.40352 -1.467382,1.66914 -1.467382,2.71465 0,0.40353 0.183423,1.11887 0.421872,1.55909 0.531926,1.08219 1.338986,1.50407 2.65963,1.41236 1.669147,-0.1284 2.65963,-1.22894 2.65963,-2.97145 0,-1.74252 -0.990483,-2.84305 -2.65963,-2.97145 -0.697006,-0.055 -1.155563,0.0184 -1.61412,0.2568 z m 2.366153,1.44904 c 0.88043,1.11887 0.256793,3.00812 -0.990482,3.00812 -0.678664,0 -0.953799,-0.25679 -1.192249,-1.11887 -0.220107,-0.73369 0.05502,-1.9076 0.513585,-2.16439 0.586952,-0.3485 1.265617,-0.22011 1.669146,0.27514 z"
       id="path8304"
       style="stroke-width:0.0183423" />
    <path
       d="m 65.829217,93.040101 c -0.330162,0.14673 -0.605296,0.3485 -0.605296,0.45856 0,0.0917 -0.07337,0.18342 -0.183423,0.18342 -0.09171,0 -0.183423,-0.16508 -0.183423,-0.36685 0,-0.29348 -0.128396,-0.36684 -0.641979,-0.36684 h -0.641979 v 2.84305 2.84305 h 0.73369 0.733691 v -1.70583 c 0,-1.96262 0.201765,-2.40283 1.192248,-2.58626 0.605295,-0.1284 0.64198,-0.16508 0.64198,-0.84374 0,-0.80706 -0.128396,-0.8621 -1.045509,-0.45856 z"
       id="path8306"
       style="stroke-width:0.0183423" />
    <path
       d="m 68.800665,93.131811 c -0.421872,0.20177 -0.898771,0.62364 -1.100537,0.9538 -0.440214,0.77037 -0.458557,2.56791 -0.03668,3.39332 0.568611,1.06385 2.439523,1.66915 3.485033,1.13721 0.586953,-0.31181 1.412355,-1.11887 1.412355,-1.394 0,-0.34851 -1.357328,-0.31183 -1.650805,0.0367 -0.531925,0.64198 -2.01765,0.1284 -2.01765,-0.697 0,-0.27514 0.256792,-0.31182 1.944281,-0.31182 h 1.962623 l -0.128396,-0.86206 c -0.146738,-1.11888 -0.605294,-1.85258 -1.394013,-2.27444 -0.825402,-0.44022 -1.559093,-0.44022 -2.476207,0.0184 z m 1.962624,1.22894 c 0.623637,0.5686 0.421872,0.78871 -0.770376,0.78871 -0.605295,0 -1.100536,-0.055 -1.100536,-0.14674 0,-0.0734 0.128395,-0.33016 0.293476,-0.55026 0.330161,-0.4769 1.100536,-0.53194 1.577436,-0.0917 z"
       id="path8308"
       style="stroke-width:0.0183423" />
  </g>
</svg>
