<?xml version="1.0" encoding="UTF-8" standalone="no"?>
<!-- Created with Inkscape (http://www.inkscape.org/) -->

<svg
   width="100mm"
   height="100mm"
   viewBox="0 0 100 100"
   version="1.1"
   id="svg26768"
   sodipodi:docname="laptop.svg"
   inkscape:version="1.1.1 (3bf5ae0d25, 2021-09-20)"
   xmlns:inkscape="http://www.inkscape.org/namespaces/inkscape"
   xmlns:sodipodi="http://sodipodi.sourceforge.net/DTD/sodipodi-0.dtd"
   xmlns="http://www.w3.org/2000/svg"
   xmlns:svg="http://www.w3.org/2000/svg">
  <sodipodi:namedview
     id="namedview26770"
     pagecolor="#ffffff"
     bordercolor="#666666"
     borderopacity="1.0"
     inkscape:pageshadow="2"
     inkscape:pageopacity="0.0"
     inkscape:pagecheckerboard="0"
     inkscape:document-units="mm"
     showgrid="false"
     width="209mm"
     inkscape:zoom="0.7500982"
     inkscape:cx="13.998167"
     inkscape:cy="241.96832"
     inkscape:window-width="1920"
     inkscape:window-height="1027"
     inkscape:window-x="1912"
     inkscape:window-y="-8"
     inkscape:window-maximized="1"
     inkscape:current-layer="layer1" />
  <defs
     id="defs26765" />
  <g
     inkscape:label="Layer 1"
     inkscape:groupmode="layer"
     id="layer1">
    <path
       d="M 11.003097,2.0506915 C 10.508176,2.3187734 9.8276601,2.9374239 9.4770909,3.4117228 L 8.8584408,4.2984558 8.7965756,32.529551 8.7553263,60.760646 H 7.4149168 6.0745064 v 3.237605 c 0,1.794089 0.1031079,3.608795 0.2268387,4.041849 0.2680819,1.010462 1.2991664,2.165279 2.3508729,2.639578 0.7836246,0.371191 2.639577,0.391814 42.542554,0.391814 37.180901,0 41.800163,-0.04127 42.480675,-0.309327 0.969228,-0.412431 1.629118,-1.031086 2.165289,-2.06217 0.412422,-0.742381 0.453672,-1.154812 0.453672,-4.330554 v -3.505686 l -1.278545,-0.06186 -1.29917,-0.06186 V 32.859497 c 0,-26.7257109 -0.02063,-27.9217689 -0.391808,-28.7053934 C 92.829966,3.0611541 92.190694,2.4425038 91.159609,1.9682048 90.334737,1.5970144 88.911838,1.5763925 51.112283,1.5763925 H 11.910451 Z m 79.620349,1.5466264 c 0.412436,0.2062171 0.866113,0.6598943 1.072325,1.0723283 0.350574,0.6805159 0.371197,2.4539813 0.371197,28.3960688 V 60.760646 H 51.236016 10.405068 V 33.024471 c 0,-30.6438328 -0.103109,-28.54042 1.299167,-29.3859094 0.639272,-0.412434 1.340409,-0.412434 39.428672,-0.412434 36.500393,0 38.810021,0.020623 39.490539,0.3711903 z M 42.203713,63.688924 c 0.08248,0.866112 0.226841,1.175439 0.763004,1.649734 l 0.639272,0.577408 h 7.588786 c 6.681427,0 7.630021,-0.04122 8.06308,-0.329944 0.577404,-0.412437 1.051703,-1.484762 1.051703,-2.350874 v -0.61865 h 17.116006 17.116004 v 2.57771 2.57771 l -0.701141,0.783628 -0.701135,0.763004 -41.593949,0.06186 C 12.941536,69.421729 9.9101464,69.401148 9.2296311,69.071187 8.0954383,68.535025 7.7242481,67.524562 7.7242481,64.823121 V 62.616598 H 24.922738 42.100604 Z m 17.074759,-0.206219 c 0,1.670357 0.288704,1.608495 -8.042456,1.608495 -5.732829,0 -7.423809,-0.06186 -7.712514,-0.268082 -0.226834,-0.164972 -0.41243,-0.639272 -0.474299,-1.237303 l -0.123726,-0.969217 h 8.186806 8.166189 z"
       id="path4103"
       style="stroke-width:0.0206217" />
    <path
       d="m 15.065569,7.1236275 c -0.329946,0.2268384 -0.721758,0.6186501 -0.86611,0.886732 -0.226838,0.3711902 -0.268082,5.0935575 -0.288704,23.1169165 0,24.869759 -0.06186,23.488107 1.237302,24.168624 0.536164,0.268081 4.784233,0.309322 36.211691,0.309322 h 35.59304 L 87.757032,54.800978 88.561276,53.996734 88.52006,31.065411 88.458196,8.1340899 87.695198,7.4329525 86.911571,6.7318153 H 51.297878 c -34.871276,0 -35.654901,0.020623 -36.232309,0.3918122 z m 71.866596,0.7011373 c 0.804244,0.618651 0.804244,0.4536766 0.804244,23.3437542 0,23.591212 0.02063,23.116913 -0.927976,23.488104 -0.185595,0.06186 -16.249893,0.123732 -35.69615,0.123732 H 15.746085 l -0.49492,-0.515539 -0.515542,-0.494923 V 31.168519 8.5671455 l 0.515542,-0.4949208 0.49492,-0.5155418 h 35.428067 c 27.529955,0.020625 35.510548,0.061865 35.758013,0.2680819 z"
       id="path4105"
       style="stroke-width:0.0206217" />
    <path
       d="m 80.931249,65.503636 c 0,0.391808 0.144356,0.41243 3.815014,0.41243 3.670664,0 3.815013,-0.02063 3.815013,-0.41243 0,-0.391813 -0.144349,-0.412436 -3.815013,-0.412436 -3.670658,0 -3.815014,0.02063 -3.815014,0.412436 z"
       id="path4107"
       style="stroke-width:0.0206217" />
    <path
       d="m 31.851626,91.899402 v 4.330555 h 3.093253 3.093254 V 95.405085 94.580222 H 35.872857 33.707578 V 91.07453 87.568839 h -0.927976 -0.927976 z"
       id="path4233"
       style="stroke-width:0.0206217" />
    <path
       d="m 53.504404,89.012363 c 0,0.680518 -0.06186,0.824872 -0.412436,0.824872 -0.329945,0 -0.412431,0.144347 -0.412431,0.618644 0,0.474305 0.08248,0.618651 0.412431,0.618651 0.391813,0 0.412436,0.144355 0.412436,2.247763 0,2.680819 0.123726,2.907664 1.670357,2.907664 0.989839,0 1.010462,-0.02061 1.010462,-0.618652 0,-0.515546 -0.08248,-0.618652 -0.515546,-0.618652 -0.515539,0 -0.515539,0 -0.515539,-1.959062 0,-1.959061 0,-1.959061 0.515539,-1.959061 0.433059,0 0.515546,-0.103109 0.515546,-0.618651 0,-0.515538 -0.08248,-0.618644 -0.515546,-0.618644 -0.453676,0 -0.515539,-0.08246 -0.515539,-0.824872 V 88.187491 H 54.32927 53.504404 Z"
       id="path4277"
       style="stroke-width:0.0206217" />
    <path
       d="m 40.389008,89.919716 c -0.721758,0.309326 -1.31979,1.051708 -1.31979,1.608495 0,0.556787 1.464138,0.515537 1.814712,-0.04123 0.309321,-0.515538 1.629111,-0.577411 1.814706,-0.10312 0.206218,0.536163 -0.288705,0.866114 -1.505385,1.031093 -1.505384,0.185595 -2.33025,0.92797 -2.33025,2.103408 0.02062,1.690976 1.690978,2.453983 3.258226,1.50538 0.577409,-0.350566 0.680517,-0.371191 0.783627,-0.103109 0.08248,0.206221 0.412431,0.309326 1.072326,0.309326 0.74238,0 0.886735,-0.06185 0.70114,-0.247461 -0.164979,-0.16497 -0.247464,-1.072323 -0.247464,-2.680818 0,-2.742685 -0.144349,-3.052011 -1.587871,-3.443826 -1.031079,-0.288702 -1.670357,-0.268077 -2.453977,0.06185 z m 2.185896,4.474909 c -0.391808,0.907354 -1.670358,1.092949 -2.000302,0.268086 -0.206217,-0.556786 0.226835,-0.989851 1.196057,-1.216688 1.051709,-0.268076 1.216681,-0.06185 0.804245,0.948602 z"
       id="path4377"
       style="stroke-width:0.0206217" />
    <path
       d="m 48.555196,89.857851 c -0.268081,0.103109 -0.680517,0.350575 -0.866113,0.536171 -0.350567,0.309317 -0.37119,0.309317 -0.37119,-0.103109 0,-0.371192 -0.123726,-0.453673 -0.721758,-0.453673 h -0.721757 v 4.433661 4.43366 h 0.824866 0.824868 v -1.58787 c 0,-1.526006 0.02063,-1.567246 0.391813,-1.21668 0.969216,0.886737 2.84579,0.433057 3.588172,-0.845487 0.494922,-0.866113 0.536162,-3.031386 0.06186,-3.93874 -0.577407,-1.134197 -1.95906,-1.690984 -3.010768,-1.257928 z m 1.299167,1.876571 c 0.824866,0.948603 0.144348,3.258231 -0.969222,3.258231 -1.175434,0 -1.83533,-1.34041 -1.361029,-2.783933 0.391813,-1.154805 1.526007,-1.402275 2.330251,-0.474298 z"
       id="path4379"
       style="stroke-width:0.0206217" />
    <path
       d="m 58.453606,89.981582 c -0.886731,0.453672 -1.649735,1.876571 -1.649735,3.052009 0,0.453672 0.206219,1.257929 0.4743,1.752842 0.598031,1.216679 1.505385,1.690984 2.990146,1.58787 1.876575,-0.144346 2.990147,-1.38165 2.990147,-3.340712 0,-1.959061 -1.113572,-3.196356 -2.990147,-3.34071 -0.783627,-0.06185 -1.299166,0.02061 -1.814711,0.288701 z m 2.660201,1.629119 c 0.98984,1.25792 0.288705,3.381952 -1.113571,3.381952 -0.763004,0 -1.072331,-0.288702 -1.340412,-1.25792 -0.247459,-0.824871 0.06186,-2.144657 0.577408,-2.433358 0.659895,-0.391816 1.422898,-0.24746 1.876575,0.309326 z"
       id="path4381"
       style="stroke-width:0.0206217" />
    <path
       d="m 67.320935,89.857851 c -0.268081,0.103109 -0.680517,0.350575 -0.866113,0.536171 -0.350567,0.309317 -0.37119,0.309317 -0.37119,-0.103109 0,-0.371192 -0.123726,-0.453673 -0.721758,-0.453673 h -0.721758 v 4.433661 4.43366 h 0.824867 0.824868 v -1.58787 c 0,-1.526006 0.02063,-1.567246 0.391813,-1.21668 0.969216,0.886737 2.845791,0.433057 3.588172,-0.845487 0.494922,-0.866113 0.536162,-3.031386 0.06186,-3.93874 -0.577403,-1.134197 -1.959055,-1.690984 -3.010764,-1.257928 z m 1.299167,1.876571 c 0.824867,0.948603 0.144349,3.258231 -0.969222,3.258231 -1.175435,0 -1.835329,-1.34041 -1.361029,-2.783933 0.391813,-1.154805 1.526007,-1.402275 2.330251,-0.474298 z"
       id="path4383"
       style="stroke-width:0.0206217" />
  </g>
</svg>
