<?xml version="1.0" encoding="UTF-8" standalone="no"?>
<!-- Created with Inkscape (http://www.inkscape.org/) -->

<svg
   width="100mm"
   height="100mm"
   viewBox="0 0 100 100"
   version="1.1"
   id="svg26768"
   sodipodi:docname="lincense server.svg"
   inkscape:version="1.1.1 (3bf5ae0d25, 2021-09-20)"
   xmlns:inkscape="http://www.inkscape.org/namespaces/inkscape"
   xmlns:sodipodi="http://sodipodi.sourceforge.net/DTD/sodipodi-0.dtd"
   xmlns="http://www.w3.org/2000/svg"
   xmlns:svg="http://www.w3.org/2000/svg">
  <sodipodi:namedview
     id="namedview26770"
     pagecolor="#ffffff"
     bordercolor="#666666"
     borderopacity="1.0"
     inkscape:pageshadow="2"
     inkscape:pageopacity="0.0"
     inkscape:pagecheckerboard="0"
     inkscape:document-units="mm"
     showgrid="false"
     width="209mm"
     inkscape:zoom="0.7500982"
     inkscape:cx="13.998167"
     inkscape:cy="241.96832"
     inkscape:window-width="1920"
     inkscape:window-height="1027"
     inkscape:window-x="1912"
     inkscape:window-y="-8"
     inkscape:window-maximized="1"
     inkscape:current-layer="layer1" />
  <defs
     id="defs26765" />
  <g
     inkscape:label="Layer 1"
     inkscape:groupmode="layer"
     id="layer1">
    <path
       d="M 26.247323,1.970942 C 24.428192,2.5773223 22.851621,4.3617922 22.45314,6.2502261 22.331869,6.8565966 22.297217,17.407533 22.314543,40.051336 l 0.05198,32.917549 0.45045,0.970199 c 0.623696,1.316696 1.559245,2.304222 2.720028,2.875951 l 0.987527,0.4851 h 25.034653 25.034664 l 0.918223,-0.4851 c 1.160774,-0.606371 2.113649,-1.559255 2.650726,-2.650725 l 0.415794,-0.848931 V 39.531594 5.7478 L 80.180116,4.9335211 C 79.643039,3.8420405 78.516916,2.7505696 77.373459,2.2134922 L 76.420584,1.7630433 51.732425,1.7283919 c -21.881501,-0.034652 -24.774777,0 -25.485102,0.2425501 z m 49.636184,1.9750527 c 0.9702,0.2425502 1.975052,1.0741549 2.373523,1.957727 0.311854,0.6756734 0.32918,1.7671539 0.32918,25.9528863 0,24.861406 0,25.259878 -0.346495,26.178101 -0.502427,1.316705 -1.368682,2.252255 -2.737355,2.927928 l -1.160774,0.571728 H 51.472559 28.603522 l -0.987526,-0.4851 c -1.247403,-0.606371 -2.442828,-1.90575 -2.858625,-3.1185 -0.294528,-0.848931 -0.311853,-2.165626 -0.311853,-26.02219 0,-19.81982 0.05198,-25.2598771 0.225224,-25.7449774 0.277202,-0.7969533 1.368682,-1.8537825 2.217603,-2.1483001 0.571729,-0.2078987 4.66043,-0.2425501 24.462934,-0.2598758 16.597375,0 24.012486,0.051977 24.532228,0.190573 z M 24.895966,59.645941 c 0.381156,0.727651 1.66321,1.749829 2.737355,2.182952 l 0.970201,0.398472 22.505207,0.05198 c 25.034653,0.05198 23.752599,0.103954 25.537079,-1.126122 0.4851,-0.329179 1.143448,-0.93555 1.42065,-1.316706 l 0.519752,-0.710324 v 6.670134 c 0,6.063754 -0.03465,6.722102 -0.32918,7.345807 -0.398471,0.883573 -1.385997,1.749829 -2.252244,1.99238 -0.467775,0.12127 -8.281367,0.155921 -24.826764,0.138595 -26.62855,-0.05198 -24.514902,0.03465 -25.675675,-1.126122 -1.039504,-1.022178 -1.056829,-1.074155 -1.108807,-8.333334 -0.03465,-3.81151 0,-6.618157 0.103954,-6.618157 0.08663,0 0.259877,0.207898 0.398472,0.450448 z"
       id="path4011"
       style="stroke-width:0.0173251" />
    <path
       d="m 36.486407,10.564152 c -0.225225,0.12128 -0.60638,0.4851 -0.814279,0.796953 l -0.398472,0.589045 v 19.941109 c 0,22.279973 -0.08663,20.755369 1.212751,21.448368 0.571729,0.294527 1.368682,0.311854 14.951491,0.311854 15.557871,0 15.090096,0.03465 15.852398,-0.952875 l 0.381156,-0.485101 V 31.960553 c 0,-18.520451 -0.01732,-20.287595 -0.277201,-20.686077 -0.641031,-0.9702 -0.03465,-0.935548 -15.869725,-0.935548 -11.330564,0 -14.70894,0.05198 -15.038119,0.225224 z m 22.69578,5.14553 v 1.039503 h -9.788634 -9.788636 v -1.039503 -1.039504 h 9.788636 9.788634 z m 6.410258,20.530154 v 15.15939 H 51.472559 37.352663 V 36.361107 c 0,-8.281357 0.05198,-15.107413 0.12127,-15.15939 0.05198,-0.0693 6.410259,-0.12128 14.119896,-0.12128 h 13.998616 z"
       id="path4013"
       style="stroke-width:0.0173251" />
    <path
       d="m 39.604917,26.53782 v 1.126133 h 6.496877 6.496887 V 26.53782 25.411698 h -6.496887 -6.496877 z"
       id="path4015"
       style="stroke-width:0.0173251" />
    <path
       d="m 58.177335,26.018069 c -0.173248,0.381156 -0.259876,0.415807 -0.554404,0.259875 -0.433122,-0.225224 -0.692999,-0.08663 -0.692999,0.381157 0,0.294527 -0.08663,0.346494 -0.485099,0.259866 -0.467775,-0.08663 -0.485101,-0.0693 -0.415799,0.398481 0.05198,0.415797 0,0.519751 -0.363829,0.60638 -0.398472,0.103945 -0.433124,0.155922 -0.259876,0.537078 0.173257,0.36382 0.138606,0.467774 -0.207899,0.710325 l -0.398472,0.277191 0.415798,0.311854 c 0.381156,0.294527 0.398481,0.311852 0.103954,0.641031 -0.381156,0.433124 -0.381156,0.502416 0.138596,0.623696 0.381156,0.103945 0.398482,0.155922 0.259876,0.554403 -0.24255,0.606371 -0.24255,0.589045 0.346504,0.589045 0.485101,0 0.502426,0.03465 0.398472,0.519752 -0.08663,0.519751 -0.08663,0.519751 0.381156,0.346505 0.502417,-0.190574 0.762292,-0.03465 0.779617,0.467774 0,0.12128 0.03465,0.225225 0.08663,0.225225 0.05198,0 0.242551,-0.103945 0.450449,-0.225225 0.294528,-0.173247 0.381156,-0.155922 0.658358,0.190573 l 0.294517,0.415797 0.277201,-0.415797 c 0.242551,-0.36382 0.311854,-0.381146 0.658358,-0.173247 0.329169,0.207899 0.415797,0.207899 0.537068,0 0.08663,-0.121281 0.155931,-0.329179 0.155931,-0.450449 0,-0.259876 0.03465,-0.259876 0.589045,-0.03465 0.415807,0.155921 0.450459,0.138595 0.450459,-0.346505 0,-0.433123 0.0693,-0.519752 0.433123,-0.519752 0.467775,0 0.537077,-0.173247 0.259876,-0.692999 -0.155922,-0.277201 -0.103955,-0.363821 0.259866,-0.450448 0.519762,-0.121281 0.537077,-0.190573 0.138606,-0.623697 -0.294528,-0.329179 -0.277202,-0.346504 0.103954,-0.641031 l 0.415797,-0.311854 -0.415797,-0.294517 C 62.629867,28.911355 62.595216,28.824727 62.785799,28.5302 63.06299,28.079751 63.06299,28.062426 62.543248,27.941145 62.144767,27.8372 62.09279,27.750572 62.196744,27.317449 c 0.08663,-0.4851 0.0693,-0.502426 -0.415797,-0.398481 -0.467775,0.08663 -0.519752,0.05198 -0.519752,-0.363821 0,-0.485101 -0.173257,-0.554403 -0.675683,-0.277201 -0.259876,0.12128 -0.36382,0.0693 -0.519743,-0.294528 l -0.207908,-0.450449 -0.381146,0.363831 -0.398481,0.381146 -0.346495,-0.363821 -0.346504,-0.346504 z"
       id="path4017"
       style="stroke-width:0.0173251" />
    <path
       d="m 39.604917,33.034708 v 1.039502 h 6.496877 6.496887 v -1.039502 -1.039504 h -6.496887 -6.496877 z"
       id="path4019"
       style="stroke-width:0.0173251" />
    <path
       d="m 39.604917,39.531594 v 1.126123 H 50.433055 61.261194 V 39.531594 38.405462 H 50.433055 39.604917 Z"
       id="path4021"
       style="stroke-width:0.0173251" />
    <path
       d="m 39.604917,46.028472 v 1.039503 h 8.662512 8.662503 v -1.039503 -1.039504 h -8.662503 -8.662512 z"
       id="path4023"
       style="stroke-width:0.0173251" />
    <path
       d="m 29.86825,66.922446 c -0.623697,0.329179 -1.004853,1.091481 -1.004853,1.957727 0,0.554403 0.121281,0.831605 0.537078,1.264728 0.363831,0.398472 0.467775,0.45045 0.346504,0.190573 -0.329178,-0.641021 -0.225224,-1.420649 0.242551,-1.871098 1.178099,-1.195426 2.910601,0.311852 2.148299,1.871098 -0.121279,0.259877 -0.01732,0.207899 0.346505,-0.190573 0.935549,-0.970201 0.658348,-2.6334 -0.519751,-3.257106 -0.623707,-0.311844 -1.489953,-0.294518 -2.096333,0.03465 z"
       id="path4025"
       style="stroke-width:0.0173251" />
    <path
       d="m 57.622931,91.38538 c -0.796942,0.415797 -1.264717,1.29938 -1.143447,2.182951 0.121279,0.987527 0.675674,1.455302 2.26958,1.853783 0.762302,0.190573 1.507278,0.433123 1.680525,0.519742 0.467774,0.242551 0.398482,0.97021 -0.12128,1.299381 -0.779628,0.519752 -2.512121,0 -2.512121,-0.744977 0,-0.155923 -0.242549,-0.225225 -0.762301,-0.225225 -0.727651,0 -0.744976,0.01733 -0.658348,0.467774 0.242551,1.316708 1.54192,2.079009 3.326399,1.905752 1.697852,-0.155921 2.702704,-1.108797 2.529456,-2.442819 -0.121279,-1.022178 -0.692999,-1.472627 -2.477478,-1.940411 -1.888425,-0.502426 -2.304231,-0.935549 -1.611232,-1.628548 0.502426,-0.502426 1.455311,-0.467775 1.992378,0.08663 0.24255,0.225224 0.433123,0.502435 0.433123,0.60638 0,0.08663 0.311853,0.173248 0.693009,0.173248 0.589045,0 0.692999,-0.05198 0.692999,-0.346495 0,-0.641032 -0.519752,-1.368682 -1.212751,-1.732503 -0.866256,-0.450448 -2.304231,-0.467774 -3.118511,-0.03465 z"
       id="path4181"
       style="stroke-width:0.0173251" />
    <path
       d="m 16.216138,94.885037 v 3.638254 h 2.598749 2.598749 V 97.830293 97.13729 h -1.819121 -1.819132 v -2.945262 -2.945253 h -0.779627 -0.779618 z"
       id="path4239"
       style="stroke-width:0.0173251" />
    <path
       d="m 22.279892,91.853155 c 0,0.589054 0.01733,0.60638 0.692999,0.60638 0.675674,0 0.692999,-0.01733 0.692999,-0.60638 0,-0.589055 -0.01732,-0.60638 -0.692999,-0.60638 -0.675674,0 -0.692999,0.01732 -0.692999,0.60638 z"
       id="path4241"
       style="stroke-width:0.0173251" />
    <path
       d="m 26.559176,93.152534 c -0.693009,0.207899 -0.987527,0.502426 -1.351356,1.29937 -0.415798,0.883581 -0.415798,2.061681 0,2.962581 0.415797,0.935559 1.282054,1.351356 2.494804,1.230076 0.72765,-0.0693 0.9702,-0.173247 1.455301,-0.710325 0.311853,-0.329169 0.571729,-0.779629 0.571729,-0.970203 0,-0.294516 -0.12128,-0.346503 -0.658358,-0.346503 -0.554393,0 -0.710325,0.08663 -0.866246,0.433132 -0.138606,0.311856 -0.329179,0.433126 -0.692999,0.433126 -0.762302,0 -1.074155,-0.467777 -1.074155,-1.611225 0,-1.074154 0.381156,-1.680535 1.022178,-1.680535 0.346495,0 0.883572,0.433133 0.883572,0.710325 0,0.08663 0.346505,0.155931 0.762302,0.155931 h 0.779628 l -0.155922,-0.537077 c -0.225225,-0.779628 -0.60638,-1.126122 -1.472627,-1.351357 -0.866255,-0.225224 -1.022178,-0.225224 -1.697851,-0.01733 z"
       id="path4395"
       style="stroke-width:0.0173251" />
    <path
       d="m 31.722032,93.325782 c -0.398481,0.190573 -0.84893,0.589054 -1.039503,0.900898 -0.415808,0.72766 -0.433123,2.425511 -0.03465,3.20513 0.537078,1.004852 2.304223,1.576581 3.291748,1.074155 0.554403,-0.294527 1.334031,-1.056829 1.334031,-1.316704 0,-0.329171 -1.282054,-0.29452 -1.559255,0.03465 -0.502426,0.60638 -1.90575,0.12128 -1.90575,-0.658349 0,-0.259877 0.242551,-0.294528 1.836447,-0.294528 h 1.853782 l -0.121279,-0.814279 c -0.138596,-1.056819 -0.571729,-1.749819 -1.316696,-2.1483 -0.779627,-0.415797 -1.472626,-0.415797 -2.338883,0.01733 z m 1.853773,1.160773 c 0.589045,0.537078 0.398481,0.744976 -0.72765,0.744976 -0.57172,0 -1.039504,-0.05198 -1.039504,-0.138595 0,-0.0693 0.121279,-0.311853 0.277202,-0.519753 0.311852,-0.450448 1.039503,-0.502426 1.489952,-0.08663 z"
       id="path4397"
       style="stroke-width:0.0173251" />
    <path
       d="m 38.530762,93.29113 c -0.519751,0.277201 -0.658348,0.294528 -0.658348,0.103955 0,-0.173248 -0.207898,-0.242551 -0.692999,-0.242551 h -0.693008 v 2.685377 2.68538 h 0.693008 0.692999 v -1.819133 c 0,-1.611222 0.03465,-1.853773 0.363821,-2.182951 0.467775,-0.467775 1.212751,-0.381147 1.489952,0.190582 0.138596,0.259866 0.225225,1.108797 0.225225,2.113649 v 1.697853 h 0.692999 0.693008 v -2.078999 c 0,-1.126132 -0.08663,-2.252264 -0.190582,-2.477489 -0.398472,-0.866246 -1.628548,-1.178099 -2.616075,-0.675673 z"
       id="path4399"
       style="stroke-width:0.0173251" />
    <path
       d="m 43.641641,93.16985 c -1.160773,0.329179 -1.663199,1.801805 -0.866246,2.529456 0.207899,0.207899 0.84892,0.502436 1.420649,0.658358 0.571729,0.173247 1.160775,0.415797 1.29938,0.554402 0.225225,0.225224 0.225225,0.277195 -0.0693,0.502419 -0.502426,0.36383 -1.108807,0.294527 -1.593897,-0.190573 -0.537088,-0.554395 -1.628559,-0.623698 -1.628559,-0.103947 0,0.502418 0.641022,1.178101 1.334021,1.420652 0.36383,0.12127 1.022178,0.155921 1.593907,0.103944 0.796953,-0.08663 1.056829,-0.190572 1.455301,-0.641022 1.022178,-1.143449 0.36383,-2.356201 -1.524594,-2.789333 -1.160784,-0.259866 -1.524614,-0.606371 -1.039503,-0.970201 0.398471,-0.277202 1.108796,-0.173248 1.403324,0.225224 0.242549,0.311854 1.4553,0.32918 1.4553,0.01733 0,-0.398482 -0.554403,-1.022179 -1.143448,-1.264728 -0.641032,-0.277211 -1.282053,-0.294528 -2.096333,-0.05198 z"
       id="path4401"
       style="stroke-width:0.0173251" />
    <path
       d="m 49.220305,93.325782 c -0.398481,0.190573 -0.848931,0.589054 -1.039504,0.900898 -0.415807,0.72766 -0.433132,2.425511 -0.03465,3.20513 0.537068,1.004852 2.304231,1.576581 3.291748,1.074155 0.554403,-0.294527 1.334031,-1.056829 1.334031,-1.316704 0,-0.329171 -1.282054,-0.29452 -1.559255,0.03465 -0.502426,0.60638 -1.90575,0.12128 -1.90575,-0.658349 0,-0.259877 0.24255,-0.294528 1.836456,-0.294528 h 1.853773 l -0.12127,-0.814279 c -0.138606,-1.056819 -0.571729,-1.749819 -1.316706,-2.1483 -0.779627,-0.415797 -1.472625,-0.415797 -2.338872,0.01733 z m 1.853772,1.160773 c 0.589056,0.537078 0.398482,0.744976 -0.72765,0.744976 -0.571729,0 -1.039503,-0.05198 -1.039503,-0.138595 0,-0.0693 0.12128,-0.311853 0.277201,-0.519753 0.311853,-0.450448 1.039504,-0.502426 1.489952,-0.08663 z"
       id="path4403"
       style="stroke-width:0.0173251" />
    <path
       d="m 64.293066,93.325782 c -0.398472,0.190573 -0.848921,0.589054 -1.039494,0.900898 -0.415807,0.72766 -0.433132,2.425511 -0.03465,3.20513 0.537067,1.004852 2.304231,1.576581 3.291748,1.074155 0.554403,-0.294527 1.334031,-1.056829 1.334031,-1.316704 0,-0.329171 -1.282054,-0.29452 -1.559255,0.03465 -0.502426,0.60638 -1.90575,0.12128 -1.90575,-0.658349 0,-0.259877 0.24255,-0.294528 1.836456,-0.294528 h 1.853773 l -0.12127,-0.814279 c -0.138606,-1.056819 -0.571729,-1.749819 -1.316706,-2.1483 -0.779626,-0.415797 -1.472625,-0.415797 -2.338882,0.01733 z m 1.853783,1.160773 c 0.589044,0.537078 0.398471,0.744976 -0.727651,0.744976 -0.571729,0 -1.039503,-0.05198 -1.039503,-0.138595 0,-0.0693 0.121279,-0.311853 0.277202,-0.519753 0.311852,-0.450448 1.039493,-0.502426 1.489952,-0.08663 z"
       id="path4405"
       style="stroke-width:0.0173251" />
    <path
       d="m 71.188424,93.239162 c -0.311843,0.138596 -0.571728,0.329169 -0.571728,0.433124 0,0.08663 -0.0693,0.173247 -0.173238,0.173247 -0.08663,0 -0.173257,-0.155921 -0.173257,-0.346504 0,-0.277192 -0.121279,-0.346495 -0.606371,-0.346495 h -0.606379 v 2.685377 2.68538 h 0.692999 0.693008 v -1.611225 c 0,-1.853782 0.190573,-2.26958 1.126122,-2.442837 0.571729,-0.12127 0.606371,-0.155921 0.606371,-0.796943 0,-0.762302 -0.12127,-0.814279 -0.987527,-0.433124 z"
       id="path4407"
       style="stroke-width:0.0173251" />
    <path
       d="m 79.539084,93.325782 c -0.398471,0.190573 -0.84892,0.589054 -1.039503,0.900898 -0.415788,0.72766 -0.433123,2.425511 -0.03465,3.20513 0.537077,1.004852 2.304231,1.576581 3.291757,1.074155 0.554404,-0.294527 1.334031,-1.056829 1.334031,-1.316704 0,-0.329171 -1.282054,-0.29452 -1.559255,0.03465 -0.502426,0.60638 -1.905751,0.12128 -1.905751,-0.658349 0,-0.259877 0.242551,-0.294528 1.836448,-0.294528 h 1.853783 l -0.121281,-0.814279 c -0.138596,-1.056819 -0.571718,-1.749819 -1.316704,-2.1483 -0.779619,-0.415797 -1.472627,-0.415797 -2.338874,0.01733 z m 1.853782,1.160773 c 0.589055,0.537078 0.398472,0.744976 -0.72765,0.744976 -0.571729,0 -1.039504,-0.05198 -1.039504,-0.138595 0,-0.0693 0.121271,-0.311853 0.277202,-0.519753 0.311844,-0.450448 1.039504,-0.502426 1.489952,-0.08663 z"
       id="path4409"
       style="stroke-width:0.0173251" />
    <path
       d="m 86.261195,93.239162 c -0.311852,0.138596 -0.571729,0.329169 -0.571729,0.433124 0,0.08663 -0.0693,0.173247 -0.173246,0.173247 -0.08663,0 -0.173248,-0.155921 -0.173248,-0.346504 0,-0.277192 -0.12128,-0.346495 -0.60638,-0.346495 h -0.606371 v 2.685377 2.68538 h 0.693 0.692999 v -1.611225 c 0,-1.853782 0.190573,-2.26958 1.126131,-2.442837 0.57172,-0.12127 0.606371,-0.155921 0.606371,-0.796943 0,-0.762302 -0.12127,-0.814279 -0.987527,-0.433124 z"
       id="path4411"
       style="stroke-width:0.0173251" />
    <path
       d="m 22.279892,95.837911 v 2.68538 h 0.692999 0.692999 v -2.68538 -2.685377 h -0.692999 -0.692999 z"
       id="path4497"
       style="stroke-width:0.0173251" />
    <path
       d="m 72.418502,93.464387 c 0.05198,0.155922 0.4851,1.351347 0.952874,2.633401 l 0.831605,2.338874 0.762301,0.05198 0.762302,0.05198 0.918224,-2.564109 c 0.502426,-1.403324 0.900908,-2.633401 0.900908,-2.702703 0,-0.08663 -0.329179,-0.12127 -0.727651,-0.08663 l -0.710334,0.05198 -0.485101,1.715177 c -0.277192,0.93555 -0.519742,1.801795 -0.554403,1.90575 -0.03465,0.103944 -0.190573,-0.24256 -0.346494,-0.762302 -0.138596,-0.519751 -0.398472,-1.403334 -0.554404,-1.957727 l -0.277202,-0.987525 h -0.779626 c -0.675674,0 -0.779619,0.05198 -0.692999,0.311852 z"
       id="path4499"
       style="stroke-width:0.0173251" />
  </g>
</svg>
