<?xml version="1.0" encoding="UTF-8" standalone="no"?>
<!-- Created with Inkscape (http://www.inkscape.org/) -->

<svg
   width="100mm"
   height="100mm"
   viewBox="0 0 100 100"
   version="1.1"
   id="svg26768"
   sodipodi:docname="linux.svg"
   inkscape:version="1.1.1 (3bf5ae0d25, 2021-09-20)"
   xmlns:inkscape="http://www.inkscape.org/namespaces/inkscape"
   xmlns:sodipodi="http://sodipodi.sourceforge.net/DTD/sodipodi-0.dtd"
   xmlns="http://www.w3.org/2000/svg"
   xmlns:svg="http://www.w3.org/2000/svg">
  <sodipodi:namedview
     id="namedview26770"
     pagecolor="#ffffff"
     bordercolor="#666666"
     borderopacity="1.0"
     inkscape:pageshadow="2"
     inkscape:pageopacity="0.0"
     inkscape:pagecheckerboard="0"
     inkscape:document-units="mm"
     showgrid="false"
     width="209mm"
     inkscape:zoom="0.7500982"
     inkscape:cx="13.998167"
     inkscape:cy="135.31562"
     inkscape:window-width="1920"
     inkscape:window-height="1027"
     inkscape:window-x="1912"
     inkscape:window-y="-8"
     inkscape:window-maximized="1"
     inkscape:current-layer="layer1" />
  <defs
     id="defs26765" />
  <g
     inkscape:label="Layer 1"
     inkscape:groupmode="layer"
     id="layer1">
    <path
       d="M 43.158376,2.902709 C 25.120478,5.9459197 10.29179,18.72736 4.703357,36.101292 c -7.4143442,22.907014 3.5411849,47.97193 25.507576,58.374146 7.02702,3.375197 11.785483,4.371154 20.583109,4.31582 6.197065,0 8.631623,-0.221322 12.117474,-1.21728 17.097275,-4.592475 30.100052,-17.705906 34.747847,-34.8585 1.659923,-6.086412 1.604605,-17.927229 -0.05537,-24.068975 C 92.790215,20.66394 78.45949,7.1631992 60.310939,3.4006923 55.054496,2.3494007 47.916809,2.1280755 43.158345,2.902709 Z m 17.318581,7.580338 c 1.991915,0.44266 5.975743,1.936595 8.852961,3.319862 4.537127,2.213236 5.920409,3.209193 10.512869,7.856988 6.031078,6.031078 9.129618,11.453523 11.066198,19.08919 2.37924,9.406258 1.106626,19.919142 -3.430516,29.104079 -1.88126,3.817841 -3.319862,5.699086 -7.635682,10.014906 -4.537126,4.537141 -5.975742,5.643752 -10.512869,7.801669 C 62.468872,91.044923 58.097733,92.04088 50.683374,92.04088 40.779136,91.985514 31.870856,88.88702 24.511832,82.855943 9.4618204,70.517132 5.035348,48.9934 13.998962,31.785472 22.907242,14.688197 41.609106,6.1119073 60.476957,10.483047 Z"
       id="path9257"
       style="stroke-width:0.055331" />
    <path
       d="m 40.723802,17.012102 c -4.703129,1.051291 -10.346881,3.817841 -12.947442,6.418388 -5.588418,5.588433 -7.193023,13.666759 -6.307719,32.257953 l 0.387309,8.742293 1.493937,-1.604605 c 0.774635,-0.885288 2.047248,-1.991914 2.766548,-2.489893 1.161945,-0.829953 1.21728,-1.051275 0.663967,-2.821868 -2.877202,-8.742292 -0.940622,-16.211971 4.149832,-16.045983 4.315804,0.110732 7.414344,4.537142 7.414344,10.512885 0,3.485849 0,3.485849 1.604605,3.485849 0.829953,0 2.766533,0.165989 4.205151,0.38731 l 2.600545,0.331991 -0.38731,-2.268571 c -0.829968,-4.979786 1.549271,-10.623537 5.311762,-12.560132 5.920424,-3.098525 12.726121,3.209208 12.726121,11.896166 0.05537,3.375181 -0.829954,5.643752 -2.766534,7.414344 -1.051292,0.995957 -1.106626,1.161945 -0.331991,2.323905 0.940623,1.438602 1.051291,3.928495 0.331991,5.975743 -0.44266,1.106611 -0.331991,1.493937 0.774619,2.213237 0.719316,0.442644 1.825926,2.213236 2.434574,3.87316 0.995957,2.711215 4.094482,9.018948 4.758464,9.627596 0.497979,0.497978 5.699086,-3.319863 8.963614,-6.639725 l 3.48585,-3.48585 -1.16196,-3.043206 C 78.736177,65.814003 77.629551,59.45095 77.629551,52.147259 77.574185,36.101292 72.151786,25.201081 61.583583,19.94464 54.335227,16.348136 47.91684,15.462832 40.723802,17.012102 Z"
       id="path9259"
       style="stroke-width:0.055331" />
    <path
       d="m 29.214976,49.104053 c -1.604604,1.54927 -1.825926,4.260485 -0.608648,7.193038 0.940623,2.213237 0.940623,2.213237 4.371155,1.051276 2.600546,-0.885289 2.600546,-0.885289 2.600546,-3.375181 0,-2.213236 -0.110575,-2.489893 -1.106611,-2.213236 -1.715273,0.442643 -2.987871,-0.82997 -2.545227,-2.545228 0.442644,-1.93658 -0.885304,-1.991914 -2.711215,-0.110731 z"
       id="path9261"
       style="stroke-width:0.055331" />
    <path
       d="m 52.564635,48.882732 c -3.375197,2.600561 -2.932538,8.576304 0.7193,9.848918 2.711215,0.940623 3.762507,0.774635 5.256443,-0.82997 1.106625,-1.161945 1.383267,-2.102567 1.383267,-4.20515 0,-2.434559 -0.110575,-2.655882 -1.051277,-2.157903 -1.54927,0.885288 -3.09854,-0.497979 -2.600561,-2.323905 0.331991,-1.327948 0.165987,-1.493935 -0.940623,-1.493935 -0.774635,0 -1.991914,0.497978 -2.766549,1.161945 z"
       id="path9263"
       style="stroke-width:0.055331" />
    <path
       d="m 34.471418,58.952971 c -9.627596,3.48585 -12.504798,7.248357 -9.24027,12.006821 1.327932,2.047232 1.217279,1.991914 9.793568,2.545212 6.473721,0.387325 10.346896,-0.276642 16.156636,-2.932538 2.545227,-1.161945 3.375197,-1.327932 3.92851,-0.774635 0.829954,0.82997 -0.387325,1.881261 -4.039163,3.48585 -4.481807,1.936596 -9.295605,2.76655 -15.382001,2.545228 -6.418403,-0.165988 -6.473722,0.05537 -0.110732,3.043206 2.545228,1.217279 4.315819,1.715257 6.197065,1.659923 7.635682,-0.110574 19.587168,-10.568204 17.816575,-15.547989 -0.995957,-2.76655 -10.07024,-6.307734 -18.314554,-7.027034 -2.545227,-0.276657 -3.983828,-0.05537 -6.805696,0.995956 z"
       id="path9265"
       style="stroke-width:0.055331" />
    <path
       d="m 22.741255,74.94362 c -0.166003,2.489893 0,2.877202 1.82591,4.647795 l 1.991915,1.93658 0.387325,-2.268571 c 0.331975,-2.157902 0.221323,-2.489893 -1.825927,-4.703129 l -2.157901,-2.379224 z"
       id="path9267"
       style="stroke-width:0.055331" />
  </g>
</svg>
