<?xml version="1.0" encoding="UTF-8" standalone="no"?>
<!-- Created with Inkscape (http://www.inkscape.org/) -->

<svg
   width="100mm"
   height="100mm"
   viewBox="0 0 100 100"
   version="1.1"
   id="svg26768"
   sodipodi:docname="load balancer.svg"
   inkscape:version="1.1.1 (3bf5ae0d25, 2021-09-20)"
   xmlns:inkscape="http://www.inkscape.org/namespaces/inkscape"
   xmlns:sodipodi="http://sodipodi.sourceforge.net/DTD/sodipodi-0.dtd"
   xmlns="http://www.w3.org/2000/svg"
   xmlns:svg="http://www.w3.org/2000/svg">
  <sodipodi:namedview
     id="namedview26770"
     pagecolor="#ffffff"
     bordercolor="#666666"
     borderopacity="1.0"
     inkscape:pageshadow="2"
     inkscape:pageopacity="0.0"
     inkscape:pagecheckerboard="0"
     inkscape:document-units="mm"
     showgrid="false"
     width="209mm"
     inkscape:zoom="0.7500982"
     inkscape:cx="13.998167"
     inkscape:cy="241.96832"
     inkscape:window-width="1920"
     inkscape:window-height="1027"
     inkscape:window-x="1912"
     inkscape:window-y="-8"
     inkscape:window-maximized="1"
     inkscape:current-layer="layer1" />
  <defs
     id="defs26765" />
  <g
     inkscape:label="Layer 1"
     inkscape:groupmode="layer"
     id="layer1">
    <path
       d="m 25.493409,1.9542288 c -1.025294,0.4623865 -2.050587,1.6284064 -2.211421,2.4727654 -0.06029,0.3618678 -0.08039,12.3035178 -0.06029,26.5369948 0.06029,25.773053 0.06029,25.873577 0.482495,26.416375 0.221137,0.301554 0.743837,0.844352 1.166013,1.166021 l 0.763952,0.623216 26.074608,0.06029 26.054501,0.0402 0.904672,-0.442283 c 0.522692,-0.281448 1.145915,-0.824254 1.507788,-1.326856 l 0.603104,-0.884564 V 30.421183 4.225956 L 80.175722,3.361493 C 79.854053,2.8991057 79.170527,2.2959927 78.68804,2.0346436 L 77.803475,1.5722563 H 52.05052 c -24.466304,0 -25.793152,0.020106 -26.557095,0.3819725 z m 52.31005,2.5129724 0.562896,0.4824912 V 30.421183 55.892682 l -0.562896,0.482495 -0.562913,0.482487 H 51.909784 26.579013 L 26.096518,56.355071 25.593924,55.872575 V 30.521706 c 0,-17.550608 0.06029,-25.4714949 0.221145,-25.7529479 C 25.935691,4.547616 26.217139,4.2862669 26.458391,4.1857482 26.699635,4.0852295 38.078377,4.0048139 52.07061,4.0048139 l 25.169936,-0.020106 z"
       id="path4135"
       style="stroke-width:0.0201038" />
    <path
       d="m 48.311204,12.830378 v 3.819717 h 3.719193 3.719202 V 12.830378 9.0106531 h -3.719202 -3.719193 z"
       id="path4137"
       style="stroke-width:0.0201038" />
    <path
       d="m 30.619875,20.369297 v 3.719201 h 3.719194 3.719201 v -3.719201 -3.719202 h -3.719201 -3.719194 z"
       id="path4139"
       style="stroke-width:0.0201038" />
    <path
       d="m 65.801493,20.369297 v 3.719201 h 3.719202 3.719201 v -3.719201 -3.719202 h -3.719201 -3.719202 z"
       id="path4141"
       style="stroke-width:0.0201038" />
    <path
       d="m 50.020023,22.279155 -1.809343,1.809343 h 1.266545 1.246431 v 6.332685 6.352799 l -1.246431,-0.06029 -1.266545,-0.0603 -0.100515,-1.809343 c -0.140728,-2.251617 -0.5227,-3.015561 -2.512976,-5.10636 l -1.487674,-1.547993 0.743837,-0.743837 0.743837,-0.743837 H 43.124426 40.67177 v 2.452656 2.452665 l 0.804148,-0.78405 0.804148,-0.784049 1.407265,1.387166 c 1.708827,1.70882 2.010382,2.291831 2.010382,4.00065 v 1.326848 h -1.206226 -1.206226 v 7.538919 7.538926 h 8.745136 8.745153 v -7.538926 -7.518813 l -1.24643,-0.06029 -1.266546,-0.06029 -0.06029,-0.844361 c -0.120622,-1.588198 0.281456,-2.432558 1.929965,-4.121271 l 1.527887,-1.5681 0.763943,0.743845 0.763943,0.743837 v -2.452673 -2.452657 h -2.452668 -2.452657 l 0.78405,0.804148 0.763935,0.78405 -1.608296,1.688713 c -1.929965,2.010382 -2.472771,3.196502 -2.472771,5.387817 v 1.407265 l -1.24643,-0.06029 -1.266537,-0.0603 V 30.42128 24.189111 l 1.186119,-0.06029 1.186128,-0.06029 -1.789237,-1.809344 c -0.985088,-0.98508 -1.829449,-1.789236 -1.88976,-1.789236 -0.06029,0 -0.92477,0.804156 -1.909859,1.809343 z"
       id="path4143"
       style="stroke-width:0.0201038" />
    <path
       d="m 38.661388,79.574944 v 4.221795 h 3.015569 3.015561 v -0.804156 -0.804148 h -2.11089 -2.110906 v -3.417647 -3.417647 h -0.904663 -0.904671 z"
       id="path4243"
       style="stroke-width:0.0201038" />
    <path
       d="m 63.59008,76.760414 v 1.407265 l -0.643321,-0.402078 c -0.864467,-0.5227 -1.547994,-0.502594 -2.392354,0.06029 -0.904672,0.603109 -1.387159,1.608304 -1.387159,2.915054 0,2.512967 1.929965,3.980543 3.779513,2.854735 0.522699,-0.321661 0.643321,-0.341768 0.643321,-0.100524 0,0.221145 0.221137,0.301563 0.804148,0.301563 h 0.804156 V 79.574928 75.353124 H 64.394228 63.59008 Z m -0.422184,2.512967 c 0.160834,0.160835 0.321669,0.703633 0.361873,1.246439 0.08039,0.784041 0.0201,1.065498 -0.341767,1.50778 -1.166021,1.507789 -2.874841,-0.140728 -2.211413,-2.151102 0.341767,-1.065498 1.407265,-1.346954 2.191307,-0.603117 z"
       id="path4245"
       style="stroke-width:0.0201038" />
    <path
       d="m 47.104978,77.70529 c -0.864467,0.442282 -1.608304,1.829441 -1.608304,2.975356 0,0.442283 0.201039,1.226333 0.462381,1.70882 0.583018,1.186128 1.467584,1.648516 2.915053,1.547993 1.829441,-0.14072 2.915046,-1.346954 2.915046,-3.256813 0,-1.909858 -1.085605,-3.116084 -2.915046,-3.256812 -0.763943,-0.06029 -1.266537,0.0201 -1.76913,0.281456 z m 2.593384,1.588198 c 0.964983,1.226332 0.281457,3.297017 -1.085604,3.297017 -0.743837,0 -1.045391,-0.281448 -1.306749,-1.226325 -0.241244,-0.804156 0.06029,-2.090799 0.562912,-2.372247 0.643322,-0.381972 1.387159,-0.241244 1.829441,0.301555 z"
       id="path4413"
       style="stroke-width:0.0201038" />
    <path
       d="m 54.020673,77.644979 c -0.703632,0.301554 -1.286635,1.025293 -1.286635,1.568099 0,0.542798 1.427363,0.502586 1.76913,-0.04028 0.301555,-0.502594 1.588198,-0.562905 1.769131,-0.100516 0.201039,0.522692 -0.281448,0.844361 -1.467576,1.005187 -1.467576,0.180933 -2.271724,0.904672 -2.271724,2.050587 0.0201,1.648509 1.648509,2.392346 3.176395,1.467576 0.562905,-0.341767 0.66342,-0.361873 0.763944,-0.100524 0.08039,0.201039 0.402078,0.301563 1.045399,0.301563 0.723739,0 0.864459,-0.06029 0.683527,-0.241244 -0.160827,-0.160834 -0.241244,-1.045399 -0.241244,-2.613499 0,-2.673802 -0.140728,-2.975356 -1.547993,-3.357328 -1.005187,-0.281448 -1.628402,-0.26135 -2.392354,0.06029 z m 2.131004,4.362523 c -0.381972,0.884565 -1.628402,1.065498 -1.950071,0.26135 -0.201031,-0.542806 0.221145,-0.964991 1.166021,-1.186128 1.025294,-0.26135 1.186128,-0.06029 0.78405,0.924778 z"
       id="path4415"
       style="stroke-width:0.0201038" />
    <path
       d="m 28.207415,93.647586 v 4.221803 h 2.311937 c 3.357336,0 4.302212,-0.502601 4.483145,-2.392354 0.08039,-0.904671 0.0402,-1.065497 -0.5227,-1.608304 -0.583011,-0.58301 -0.583011,-0.623215 -0.221137,-0.944876 0.562904,-0.502593 0.683526,-1.527887 0.281448,-2.291838 -0.502594,-0.964974 -1.326848,-1.206218 -4.020756,-1.206218 h -2.311937 z m 4.322319,-2.613491 c 0.442282,0.160834 0.5227,0.301563 0.462381,0.844361 -0.06029,0.743837 -0.442283,0.904671 -2.11089,0.944876 l -1.065506,0.0201 v -1.005187 -1.005187 h 1.085604 c 0.603118,0 1.346955,0.08039 1.628411,0.201039 z m 0.462381,3.457852 c 0.140728,0.140728 0.241251,0.482487 0.241251,0.784049 0,0.824255 -0.663428,1.18612 -2.15111,1.18612 h -1.266537 v -1.10571 -1.105703 h 1.467576 c 0.864467,0 1.5681,0.100516 1.70882,0.241244 z"
       id="path4525"
       style="stroke-width:0.0201038" />
    <path
       d="m 42.883175,93.647586 v 4.221803 h 0.804156 0.804156 v -4.221803 -4.221787 h -0.804156 -0.804156 z"
       id="path4527"
       style="stroke-width:0.0201038" />
    <path
       d="m 37.535571,91.717621 c -0.703633,0.301563 -1.286636,1.025294 -1.286636,1.5681 0,0.542798 1.427364,0.502601 1.769131,-0.0402 0.301554,-0.502601 1.588198,-0.562912 1.769138,-0.100523 0.201031,0.522699 -0.281456,0.844352 -1.467584,1.005187 -1.467576,0.18094 -2.271724,0.904671 -2.271724,2.050586 0.0201,1.648509 1.648509,2.392354 3.176396,1.467576 0.562912,-0.341767 0.66342,-0.361865 0.763943,-0.100515 0.08039,0.201039 0.402078,0.301554 1.0454,0.301554 0.723739,0 0.864459,-0.06029 0.683526,-0.241243 -0.160826,-0.160835 -0.241243,-1.0454 -0.241243,-2.613491 0,-2.673802 -0.140729,-2.975365 -1.547994,-3.357337 -1.005187,-0.281456 -1.62841,-0.26135 -2.392353,0.06029 z m 2.131004,4.362523 c -0.381972,0.884566 -1.628403,1.065498 -1.950072,0.26135 -0.201031,-0.542806 0.221146,-0.964982 1.166022,-1.186127 1.025293,-0.261342 1.186119,-0.06029 0.78405,0.924777 z"
       id="path4537"
       style="stroke-width:0.0201038" />
    <path
       d="m 47.185395,91.717621 c -0.703633,0.301563 -1.286643,1.025294 -1.286643,1.5681 0,0.542798 1.427363,0.502601 1.76913,-0.0402 0.301555,-0.502601 1.588198,-0.562912 1.769131,-0.100523 0.201039,0.522699 -0.281449,0.844352 -1.467576,1.005187 -1.467576,0.18094 -2.271724,0.904671 -2.271724,2.050586 0.0201,1.648509 1.648508,2.392354 3.176395,1.467576 0.562905,-0.341767 0.663428,-0.361865 0.763944,-0.100515 0.08039,0.201039 0.402078,0.301554 1.045399,0.301554 0.723731,0 0.864459,-0.06029 0.683526,-0.241243 -0.160834,-0.160835 -0.241243,-1.0454 -0.241243,-2.613491 0,-2.673802 -0.140728,-2.975365 -1.547993,-3.357337 -1.005195,-0.281456 -1.628411,-0.26135 -2.392346,0.06029 z m 2.130996,4.362523 c -0.381972,0.884566 -1.628411,1.065498 -1.950063,0.26135 -0.201039,-0.542806 0.221137,-0.964982 1.166013,-1.186127 1.025301,-0.261342 1.186128,-0.06029 0.78405,0.924777 z"
       id="path4539"
       style="stroke-width:0.0201038" />
    <path
       d="m 55.106277,91.798047 c -0.603109,0.321652 -0.763935,0.341759 -0.763935,0.120613 0,-0.201039 -0.241252,-0.281448 -0.804156,-0.281448 h -0.804148 v 3.116085 3.116092 h 0.804148 0.804156 v -2.110897 c 0,-1.869662 0.0402,-2.151111 0.422176,-2.533082 0.542798,-0.542798 1.407265,-0.442283 1.728926,0.221137 0.160826,0.301563 0.26135,1.286643 0.26135,2.452665 v 1.970177 h 0.804148 0.804148 v -2.41246 c 0,-1.306741 -0.100516,-2.613491 -0.221137,-2.874841 -0.462389,-1.005187 -1.889752,-1.36706 -3.035676,-0.784041 z"
       id="path4541"
       style="stroke-width:0.0201038" />
    <path
       d="m 61.318356,91.637212 c -0.804156,0.241244 -1.145923,0.583011 -1.568099,1.507781 -0.482496,1.025293 -0.482496,2.392353 0,3.437753 0.482487,1.085604 1.487682,1.568091 2.894947,1.427363 0.844361,-0.08039 1.125809,-0.201039 1.688713,-0.824254 0.361866,-0.381972 0.663428,-0.904672 0.663428,-1.125817 0,-0.341759 -0.140728,-0.40207 -0.763943,-0.40207 -0.643322,0 -0.824255,0.100524 -1.005187,0.502594 -0.160835,0.361865 -0.381972,0.502593 -0.804156,0.502593 -0.884565,0 -1.246439,-0.542798 -1.246439,-1.869654 0,-1.24643 0.442283,-1.950063 1.186128,-1.950063 0.402078,0 1.025293,0.502594 1.025293,0.824254 0,0.100524 0.40207,0.180933 0.884565,0.180933 h 0.904672 L 64.997345,93.22541 c -0.26135,-0.904672 -0.703632,-1.30675 -1.708819,-1.5681 -1.005195,-0.261342 -1.186128,-0.261342 -1.97017,-0.0201 z"
       id="path4543"
       style="stroke-width:0.0201038" />
    <path
       d="m 67.510313,91.838251 c -0.462389,0.221137 -0.985081,0.683526 -1.206218,1.0454 -0.482495,0.844352 -0.502602,2.814522 -0.0402,3.719193 0.623216,1.166022 2.67381,1.829442 3.819717,1.246439 0.643322,-0.341767 1.547994,-1.226332 1.547994,-1.527887 0,-0.381972 -1.487683,-0.341767 -1.809335,0.0402 -0.583019,0.703632 -2.211422,0.140736 -2.211422,-0.763936 0,-0.301562 0.281457,-0.341775 2.131004,-0.341775 h 2.151103 l -0.140721,-0.944868 c -0.160834,-1.22634 -0.663427,-2.030488 -1.527894,-2.492877 -0.904672,-0.482488 -1.70882,-0.482488 -2.714015,0.0201 z m 2.15111,1.346946 c 0.683526,0.623224 0.462389,0.864467 -0.844361,0.864467 -0.663428,0 -1.206226,-0.06029 -1.206226,-0.160834 0,-0.08039 0.140728,-0.361866 0.321661,-0.603109 0.361865,-0.5227 1.206226,-0.583011 1.728926,-0.100524 z"
       id="path4545"
       style="stroke-width:0.0201038" />
    <path
       d="m 75.310581,91.737728 c -0.361865,0.160826 -0.66342,0.381971 -0.66342,0.502601 0,0.100516 -0.08039,0.201031 -0.201039,0.201031 -0.100515,0 -0.201039,-0.180933 -0.201039,-0.40207 0,-0.321669 -0.14072,-0.402078 -0.703632,-0.402078 h -0.703633 v 3.116085 3.116092 h 0.804156 0.804148 v -1.869654 c 0,-2.15111 0.221138,-2.633597 1.306742,-2.834636 0.663428,-0.140728 0.703641,-0.180941 0.703641,-0.92477 0,-0.884573 -0.140729,-0.944884 -1.145924,-0.502601 z"
       id="path4547"
       style="stroke-width:0.0201038" />
  </g>
</svg>
