<?xml version="1.0" encoding="UTF-8" standalone="no"?>
<!-- Created with Inkscape (http://www.inkscape.org/) -->

<svg
   width="100mm"
   height="100mm"
   viewBox="0 0 100 100"
   version="1.1"
   id="svg26768"
   xmlns="http://www.w3.org/2000/svg"
   xmlns:svg="http://www.w3.org/2000/svg">
  <defs
     id="defs26765" />
  <path
     d="M 16.875993,2.5758658 C 14.812783,3.43553 13.763989,4.398365 12.869932,6.2896342 L 12.336937,7.4243941 V 33.644288 59.864181 l 0.498611,1.031605 c 0.275095,0.567379 0.945637,1.461437 1.461436,1.994432 0.532995,0.515799 1.427052,1.186342 1.994432,1.461437 l 1.031605,0.49861 29.3147,0.05158 29.314701,0.03444 -1.203538,-1.203538 -1.186341,-1.20353 H 59.842229 46.121915 V 59.00457 55.479931 h 2.424272 c 1.32389,0 2.389879,-0.05159 2.355486,-0.137548 -0.01722,-0.0688 -0.343865,-0.636151 -0.704919,-1.289504 l -0.670552,-1.151961 h -1.702139 -1.702148 v -3.610605 -3.610614 h 0.859672 0.859672 v -0.670534 c 0,-0.361063 0.05159,-0.911246 0.103155,-1.203538 l 0.120352,-0.532996 H 47.08475 46.121915 v -3.610599 -3.610613 h 1.856884 l 1.839695,-0.01722 0.722117,-1.151956 0.722125,-1.151957 -2.57901,-0.05159 -2.561811,-0.05159 V 29.947735 26.251163 H 66.668 87.214078 v 3.696572 3.69658 l -3.868513,0.03436 -3.868505,0.05159 0.773698,1.151956 0.773706,1.169153 h 3.094807 3.094807 v 3.610606 3.610606 h -2.183553 -2.200758 l 0.08597,1.151956 0.08597,1.169145 2.114792,0.05159 2.097587,0.05159 v 3.593417 3.610605 h -2.957265 -2.974456 l -0.498601,0.945638 c -0.481414,0.928442 -0.481414,0.962827 -0.18913,1.289504 0.292285,0.32667 0.550192,0.343867 3.559024,0.343867 h 3.232355 v 1.341077 c 0,0.73932 -0.120351,1.788114 -0.257899,2.355495 l -0.275096,1.014416 0.876868,0.859664 c 0.980016,0.980023 0.945631,0.99722 1.581781,-0.584576 l 0.395455,-0.945631 0.05158,-25.188296 c 0.03436,-18.345328 0,-25.4633841 -0.137556,-26.2198939 -0.447021,-2.286736 -1.994424,-4.315553 -4.09202,-5.2955766 L 84.37717,2.266393 51.107999,2.232032 17.83882,2.1804505 Z M 84.06769,4.8110006 c 1.117571,0.4126436 2.046013,1.2551193 2.561812,2.2867243 0.481422,0.9800235 0.49861,1.100375 0.550191,4.0576351 l 0.0688,3.060421 H 50.953287 14.658078 V 11.15536 c 0,-2.6821641 0.05159,-3.129193 0.361062,-3.8169323 0.567381,-1.2551113 1.63337,-2.2007499 2.905678,-2.596197 0.240711,-0.068802 15.095785,-0.1203514 33.01128,-0.1203514 24.517745,0 32.71898,0.034361 33.131624,0.1891213 z M 21.879265,20.233463 v 3.610605 h -3.610613 -3.610606 v -3.610605 -3.610614 h 3.610606 3.610613 z m 21.663649,0 v 3.610605 h -9.628286 -9.628295 v -3.610605 -3.610614 h 9.628295 9.628286 z m 43.671164,0 v 3.610605 H 66.668 46.121915 V 20.233463 16.622849 H 66.668 87.214078 Z m -65.420787,9.714253 v 3.610606 l -3.559024,0.05158 -3.576221,0.03436 V 29.94769 26.25111 l 3.576221,0.03436 3.559024,0.05158 z m 21.749623,0 v 3.696572 h -9.628286 -9.628295 v -3.696572 -3.696572 h 9.628295 9.628286 z m -21.663649,9.714253 v 3.610606 h -3.610613 -3.610606 v -3.610606 -3.610606 h 3.610606 3.610613 z m 21.663649,0 v 3.610606 h -9.628286 -9.628295 v -3.610606 -3.610606 h 9.628295 9.628286 z M 21.879265,49.290264 V 52.90087 H 18.268652 14.658046 V 49.290264 45.67965 h 3.610606 3.610613 z m 21.663649,0 V 52.90087 H 33.914628 24.286333 V 49.290264 45.67965 h 9.628295 9.628286 z M 21.879265,59.10768 v 3.64499 L 20.039569,62.6667 c -2.149167,-0.08597 -3.07761,-0.412642 -4.040437,-1.409854 -1.048802,-1.06599 -1.237923,-1.667755 -1.306701,-3.851316 l -0.0688,-1.925654 h 3.627802 3.627802 z m 21.663649,-0.01722 v 3.610606 H 33.914628 24.286333 V 59.09046 55.479855 h 9.628295 9.628286 z"
     id="path7344"
     style="stroke-width:0.0171934" />
  <path
     d="m 63.831093,29.621039 c -0.240703,0.03436 -0.894057,0.154744 -1.461437,0.257907 -4.195183,0.756501 -8.338783,4.109215 -10.247249,8.321586 -1.598984,3.524639 -1.598984,8.321593 -0.01722,11.829044 1.87408,4.109216 5.347138,7.03209 9.748637,8.218432 1.06599,0.292284 1.874081,0.37825 3.524639,0.37825 2.664976,0 4.178002,-0.37825 6.671036,-1.616173 2.080399,-1.048802 2.303913,-0.997213 2.149177,0.429832 -0.0688,0.636158 -0.01722,1.048801 0.171925,1.409855 0.154744,0.275097 2.802522,3.026038 5.914526,6.120844 4.77975,4.762562 5.742585,5.639423 6.327154,5.794167 0.962834,0.257899 1.822506,-0.01722 2.475846,-0.756509 0.636157,-0.722124 0.790901,-1.237923 0.61896,-2.114783 -0.103155,-0.550184 -0.876852,-1.409856 -5.811355,-6.344359 -3.129192,-3.14638 -5.948911,-5.84574 -6.275581,-6.000484 -0.429832,-0.18913 -0.825278,-0.240703 -1.37547,-0.171933 -1.341086,0.189129 -1.375471,-0.103164 -0.154744,-1.495823 2.750948,-3.163584 3.885709,-6.413128 3.696579,-10.659891 -0.27509,-6.103647 -4.487469,-11.347631 -10.539527,-13.101352 -1.478634,-0.429832 -4.349926,-0.687731 -5.415924,-0.49861 z m 5.158009,2.991652 c 4.109223,1.392659 7.083671,4.556244 8.166849,8.682648 0.361071,1.341085 0.361071,4.1436 0.01722,5.605038 -0.928443,3.954479 -3.954472,7.341578 -7.788591,8.665467 -7.788599,2.716549 -16.041423,-3.094807 -16.041423,-11.296049 0,-5.65662 3.644998,-10.3676 9.112488,-11.829037 1.753729,-0.464225 4.882921,-0.378258 6.533488,0.171933 z"
     id="path7416"
     style="stroke-width:0.0171934" />
  <path
     d="m 13.970315,93.8211 v 3.610605 h 2.579001 2.579008 v -0.687731 -0.68774 H 17.323021 15.517719 V 93.13336 90.210486 h -0.773706 -0.773698 z"
     id="path7740"
     style="stroke-width:0.0171934" />
  <path
     d="m 32.367224,93.8211 v 3.610605 h 0.687732 0.68773 v -0.928442 c 0,-0.56738 0.08598,-0.997212 0.240712,-1.117571 0.275095,-0.223514 0.361062,-0.137548 1.06599,1.134768 0.49861,0.911245 0.49861,0.911245 1.323889,0.911245 0.464217,0 0.790894,-0.05158 0.756509,-0.137548 -0.03436,-0.0688 -0.481421,-0.80809 -0.980024,-1.63337 l -0.894056,-1.530207 0.87686,-0.894057 c 0.481422,-0.481421 0.876868,-0.945639 0.876868,-1.014409 0,-0.0688 -0.361069,-0.120351 -0.808091,-0.120351 -0.790901,0.01723 -0.859671,0.0688 -1.598984,0.962819 l -0.773697,0.945639 -0.05159,-1.89127 -0.05159,-1.908465 h -0.670535 -0.687732 z"
     id="path7742"
     style="stroke-width:0.0171934" />
  <path
     d="m 52.999268,93.838288 v 3.627802 l 2.13198,-0.0688 c 1.856884,-0.05159 2.20075,-0.103155 2.630582,-0.412635 1.461437,-1.083179 1.856884,-3.885701 0.773706,-5.553465 -0.636158,-0.980017 -1.341086,-1.220727 -3.644998,-1.220727 h -1.89127 z m 3.610606,-2.26952 c 0.584576,0.154737 1.031605,1.100375 1.031605,2.166365 0,1.014408 -0.429833,1.977236 -1.031605,2.26952 -0.240703,0.12036 -0.790895,0.223515 -1.237923,0.223515 h -0.82528 V 93.8211 91.414024 l 0.82528,0.01721 c 0.447028,0.01723 0.99722,0.0688 1.237923,0.137548 z"
     id="path7744"
     style="stroke-width:0.0171934" />
  <path
     d="m 66.066236,91.414024 c 0,0.56738 -0.05159,0.687739 -0.343874,0.687739 -0.275088,0 -0.343866,0.120351 -0.343866,0.515799 0,0.395447 0.0688,0.515798 0.343866,0.515798 0.326677,0 0.343874,0.120352 0.343874,1.874081 0,2.235134 0.103155,2.424264 1.392659,2.424264 0.825279,0 0.842475,-0.01722 0.842475,-0.515799 0,-0.429839 -0.0688,-0.515806 -0.42984,-0.515806 -0.429831,0 -0.429831,0 -0.429831,-1.63337 0,-1.63337 0,-1.63337 0.429831,-1.63337 0.36107,0 0.42984,-0.08597 0.42984,-0.515798 0,-0.429833 -0.0688,-0.515799 -0.42984,-0.515799 -0.37825,0 -0.429831,-0.0688 -0.429831,-0.687739 v -0.687732 h -0.687732 -0.687731 z"
     id="path7762"
     style="stroke-width:0.0171934" />
  <path
     d="m 86.010541,91.414024 c 0,0.56738 -0.05158,0.687739 -0.343867,0.687739 -0.275095,0 -0.343865,0.120351 -0.343865,0.515799 0,0.395447 0.0688,0.515798 0.343865,0.515798 0.326678,0 0.343867,0.120352 0.343867,1.874081 0,2.235134 0.103162,2.424264 1.392667,2.424264 0.825278,0 0.842476,-0.01722 0.842476,-0.515799 0,-0.429839 -0.0688,-0.515806 -0.429833,-0.515806 -0.42984,0 -0.42984,0 -0.42984,-1.63337 0,-1.63337 0,-1.63337 0.42984,-1.63337 0.361054,0 0.429833,-0.08597 0.429833,-0.515798 0,-0.429833 -0.0688,-0.515799 -0.429833,-0.515799 -0.378258,0 -0.42984,-0.0688 -0.42984,-0.687739 v -0.687732 h -0.687732 -0.687738 z"
     id="path7764"
     style="stroke-width:0.0171934" />
  <path
     d="m 21.191526,92.222114 c -0.739313,0.378252 -1.375471,1.564593 -1.375471,2.544616 0,0.378259 0.171933,1.048801 0.395447,1.461438 0.498611,1.014407 1.255119,1.409855 2.493042,1.323889 1.564593,-0.120352 2.493034,-1.151957 2.493034,-2.785327 0,-1.63337 -0.928441,-2.664967 -2.493034,-2.785326 -0.653346,-0.05159 -1.083185,0.01722 -1.513018,0.24071 z m 2.217946,1.358274 c 0.825288,1.048794 0.240703,2.819712 -0.928442,2.819712 -0.63615,0 -0.894056,-0.240711 -1.117572,-1.048793 -0.206317,-0.687732 0.05158,-1.788115 0.481422,-2.028818 0.550184,-0.326677 1.186334,-0.206317 1.564592,0.257899 z"
     id="path7818"
     style="stroke-width:0.0171934" />
  <path
     d="m 27.38114,92.222114 c -0.739313,0.378252 -1.375471,1.564593 -1.375471,2.544616 0,0.378259 0.171941,1.048801 0.395456,1.461438 0.498602,1.014407 1.25511,1.409855 2.493033,1.323889 1.564593,-0.120352 2.493034,-1.151957 2.493034,-2.785327 0,-1.63337 -0.928441,-2.664967 -2.493034,-2.785326 -0.653346,-0.05159 -1.083178,0.01722 -1.513018,0.24071 z m 2.217946,1.358274 c 0.825288,1.048794 0.240703,2.819712 -0.928442,2.819712 -0.63615,0 -0.894056,-0.240711 -1.117572,-1.048793 -0.206317,-0.687732 0.05159,-1.788115 0.481422,-2.028818 0.550184,-0.326677 1.186334,-0.206317 1.564592,0.257899 z"
     id="path7820"
     style="stroke-width:0.0171934" />
  <path
     d="m 46.293856,92.118951 c -0.223515,0.08597 -0.567388,0.292293 -0.722125,0.44703 -0.292292,0.257899 -0.30948,0.257899 -0.30948,-0.08597 0,-0.309481 -0.103163,-0.378251 -0.601766,-0.378251 h -0.601772 v 3.696572 3.696571 h 0.687739 0.687732 v -1.323888 c 0,-1.272308 0.01722,-1.306693 0.326676,-1.014409 0.808084,0.739313 2.372683,0.361063 2.991645,-0.704927 0.412643,-0.722125 0.447028,-2.527427 0.05159,-3.283937 -0.481406,-0.945631 -1.633361,-1.409855 -2.510222,-1.048794 z m 1.083178,1.564592 c 0.687732,0.790903 0.120351,2.716557 -0.80809,2.716557 -0.980024,0 -1.530207,-1.117563 -1.13476,-2.321101 0.326676,-0.962827 1.272307,-1.169153 1.94285,-0.395456 z"
     id="path7822"
     style="stroke-width:0.0171934" />
  <path
     d="m 61.14893,92.170533 c -0.601774,0.257899 -1.100383,0.876861 -1.100383,1.341085 0,0.464218 1.220734,0.429833 1.513018,-0.03444 0.257899,-0.429832 1.358274,-0.481413 1.513018,-0.08597 0.171933,0.44702 -0.24071,0.722124 -1.255119,0.859664 -1.255111,0.154744 -1.942842,0.773705 -1.942842,1.753721 0.01722,1.409863 1.409848,2.046013 2.716548,1.255119 0.481413,-0.292284 0.56738,-0.30948 0.653346,-0.08597 0.0688,0.171933 0.343874,0.257899 0.894057,0.257899 0.618962,0 0.739314,-0.05159 0.584577,-0.206318 -0.137548,-0.137547 -0.206318,-0.894057 -0.206318,-2.235135 0,-2.286724 -0.12036,-2.544623 -1.32389,-2.871292 -0.859671,-0.240711 -1.392666,-0.223514 -2.046012,0.05159 z m 1.822498,3.730965 c -0.326676,0.756501 -1.392667,0.911246 -1.667762,0.223515 -0.171933,-0.464226 0.189129,-0.825288 0.997211,-1.014417 0.876869,-0.223506 1.014417,-0.05159 0.670551,0.790902 z"
     id="path7824"
     style="stroke-width:0.0171934" />
  <path
     d="m 70.089485,92.170533 c -0.601774,0.257899 -1.100383,0.876861 -1.100383,1.341085 0,0.464218 1.220734,0.429833 1.513018,-0.03444 0.257899,-0.429832 1.358282,-0.481413 1.513018,-0.08597 0.171934,0.44702 -0.24071,0.722124 -1.255119,0.859664 -1.255111,0.154744 -1.94285,0.773705 -1.94285,1.753721 0.01721,1.409863 1.409856,2.046013 2.716556,1.255119 0.481413,-0.292284 0.56738,-0.30948 0.653347,-0.08597 0.0688,0.171933 0.343866,0.257899 0.894056,0.257899 0.618962,0 0.739314,-0.05159 0.58457,-0.206318 -0.13754,-0.137547 -0.206318,-0.894057 -0.206318,-2.235135 0,-2.286724 -0.120352,-2.544623 -1.32389,-2.871292 -0.859672,-0.240711 -1.392659,-0.223514 -2.046005,0.05159 z m 1.822491,3.730965 c -0.326677,0.756501 -1.392659,0.911246 -1.667755,0.223515 -0.171933,-0.464226 0.189129,-0.825288 0.99722,-1.014417 0.876852,-0.223506 1.014409,-0.05159 0.670535,0.790902 z"
     id="path7826"
     style="stroke-width:0.0171934" />
  <path
     d="m 75.746104,92.118951 c -1.151965,0.32667 -1.650567,1.788115 -0.859672,2.510231 0.206318,0.206327 0.842475,0.498611 1.409855,0.653355 0.56738,0.171932 1.151957,0.412635 1.289505,0.550183 0.223514,0.223514 0.223514,0.275096 -0.0688,0.49861 -0.498609,0.361062 -1.100383,0.292284 -1.581796,-0.189129 -0.532995,-0.550184 -1.616173,-0.618962 -1.616173,-0.103163 0,0.49861 0.636157,1.169152 1.323889,1.409864 0.361062,0.120351 1.014408,0.154736 1.581788,0.103155 0.790894,-0.08597 1.048794,-0.189121 1.444249,-0.636151 1.014409,-1.134768 0.361054,-2.338298 -1.513026,-2.768137 -1.151949,-0.257899 -1.513011,-0.601766 -1.031598,-0.962827 0.395447,-0.275096 1.100375,-0.171933 1.392667,0.223514 0.240703,0.309481 1.444241,0.326677 1.444241,0.01722 0,-0.395447 -0.550191,-1.014408 -1.13476,-1.255119 -0.636157,-0.275088 -1.272316,-0.292284 -2.080398,-0.05158 z"
     id="path7828"
     style="stroke-width:0.0171934" />
  <path
     d="m 81.282364,92.273696 c -0.395447,0.189121 -0.842476,0.584569 -1.031606,0.894049 -0.412635,0.722125 -0.429831,2.407076 -0.03436,3.180774 0.532987,0.99722 2.286715,1.5646 3.266739,1.065989 0.550183,-0.292284 1.323889,-1.048793 1.323889,-1.306692 0,-0.326678 -1.272315,-0.292285 -1.547403,0.03444 -0.498611,0.601764 -1.891277,0.120351 -1.891277,-0.653355 0,-0.257899 0.240711,-0.292284 1.822499,-0.292284 h 1.839695 l -0.120359,-0.808091 c -0.137548,-1.048794 -0.567379,-1.736524 -1.306693,-2.13198 -0.773706,-0.412635 -1.461436,-0.412635 -2.321109,0.01722 z m 1.839695,1.151956 c 0.584577,0.532996 0.395447,0.739313 -0.722124,0.739313 -0.567381,0 -1.031605,-0.05159 -1.031605,-0.137547 0,-0.0688 0.120351,-0.309481 0.275095,-0.5158 0.309481,-0.447036 1.031605,-0.498609 1.478634,-0.08597 z"
     id="path7830"
     style="stroke-width:0.0171934" />
  <path
     d="m 38.041032,94.147769 c 0,1.134768 0.0688,2.252331 0.171933,2.51023 0.361061,0.945639 2.046013,1.134768 2.94007,0.326677 0.309481,-0.275095 0.32667,-0.275095 0.32667,0.0688 0,0.32667 0.103162,0.378251 0.687738,0.378251 h 0.687732 v -2.664974 -2.664967 h -0.773698 -0.773706 v 1.856884 c 0,1.598978 -0.05159,1.908458 -0.30948,2.149169 -0.361054,0.326677 -0.773698,0.361054 -1.25512,0.120351 -0.292284,-0.171933 -0.326669,-0.378258 -0.326669,-2.149169 v -1.977235 h -0.687731 -0.687739 z"
     id="path7852"
     style="stroke-width:0.0171934" />
</svg>
