<?xml version="1.0" encoding="UTF-8" standalone="no"?>
<!-- Created with Inkscape (http://www.inkscape.org/) -->

<svg
   width="100mm"
   height="100mm"
   viewBox="0 0 100 100"
   version="1.1"
   id="svg26768"
   sodipodi:docname="Lookup.svg"
   inkscape:version="1.1.1 (3bf5ae0d25, 2021-09-20)"
   xmlns:inkscape="http://www.inkscape.org/namespaces/inkscape"
   xmlns:sodipodi="http://sodipodi.sourceforge.net/DTD/sodipodi-0.dtd"
   xmlns="http://www.w3.org/2000/svg"
   xmlns:svg="http://www.w3.org/2000/svg">
  <sodipodi:namedview
     id="namedview26770"
     pagecolor="#ffffff"
     bordercolor="#666666"
     borderopacity="1.0"
     inkscape:pageshadow="2"
     inkscape:pageopacity="0.0"
     inkscape:pagecheckerboard="0"
     inkscape:document-units="mm"
     showgrid="false"
     width="209mm"
     inkscape:zoom="0.7500982"
     inkscape:cx="13.998167"
     inkscape:cy="135.31562"
     inkscape:window-width="1920"
     inkscape:window-height="1009"
     inkscape:window-x="1912"
     inkscape:window-y="-8"
     inkscape:window-maximized="1"
     inkscape:current-layer="layer1" />
  <defs
     id="defs26765" />
  <g
     inkscape:label="Layer 1"
     inkscape:groupmode="layer"
     id="layer1">
    <path
       d="M 6.7241663,2.502771 6.1913191,2.9126583 V 36.584361 70.256075 l 0.4713673,0.430381 0.4713567,0.450863 H 50.909318 c 42.791564,0 43.775275,0 44.246642,-0.389383 l 0.491861,-0.389384 0.06147,-33.28233 c 0.02052,-18.280688 0,-33.46677 -0.06147,-33.7331936 C 95.586351,3.0970981 95.360904,2.7077147 95.135467,2.4822777 94.72559,2.0724009 94.274716,2.0724009 50.991302,2.0724009 H 7.2775068 Z M 32.7516,5.3514468 c 0.307411,0.4508634 0.594327,0.7787669 0.676301,0.7377803 0.06147,-0.040944 0.655817,-0.1844398 1.291131,-0.3279035 C 35.784716,5.5563799 35.887193,5.4949 35.702743,5.1465031 35.579783,4.9415594 35.497799,4.716133 35.497799,4.6546425 c 0,-0.061469 12.952237,-0.1229598 28.794137,-0.1229598 h 28.794126 v 6.0457383 6.045748 H 74.0471 55.008128 l 0.471367,1.393598 c 0.266424,0.758274 0.573834,2.090392 0.717287,2.971636 l 0.266424,1.578038 h 15.739433 15.759916 v 0.819764 0.819764 H 72.202639 56.463206 l -0.12296,1.47556 c -0.12297,1.332118 -0.389384,2.582253 -0.840257,3.996344 l -0.143464,0.471367 h 18.854522 18.875015 v 6.045738 6.045748 h -29.12203 c -16.005856,0 -29.06056,-0.08199 -28.99908,-0.163957 0.06147,-0.102413 -0.49185,-0.30741 -1.229631,-0.471356 -1.291131,-0.307421 -1.311624,-0.307421 -1.762488,0.163946 l -0.43038,0.471367 H 20.08628 8.6506115 V 36.194978 30.14924 h 6.1482045 c 5.799818,0 6.148215,-0.02052 5.984268,-0.36889 -0.266423,-0.471367 -0.778777,-2.93066 -0.963228,-4.40622 l -0.122959,-1.168161 h -2.971636 -2.951142 v -0.819764 -0.799271 l 3.012622,-0.06147 3.033115,-0.06147 0.143464,-1.229651 c 0.143453,-1.045191 0.696794,-3.197062 1.106681,-4.303743 0.10252,-0.266424 -0.594327,-0.307411 -6.148215,-0.307411 H 8.6506115 V 10.577442 4.5317038 H 20.434677 32.218753 Z m 1.168161,40.6806792 2.192869,2.971636 -2.192869,2.971625 -2.192868,2.971636 H 20.188757 8.6506115 V 49.003762 43.06048 H 20.209251 31.747396 Z m 59.166301,2.971636 v 5.943261 H 63.984525 34.882979 l 2.151882,-2.930639 c 1.188654,-1.598541 2.110885,-3.012622 2.069887,-3.156086 -0.06147,-0.12297 -1.024697,-1.475571 -2.151861,-3.012622 L 34.882979,43.06048 h 29.101546 29.101537 z m -59.227781,9.734661 c 1.188655,1.639528 2.172365,3.033115 2.192859,3.135592 0.04105,0.082 -0.819765,1.619035 -1.864955,3.42251 L 32.280233,68.57556 20.455181,68.63703 8.6506115,68.67797 V 62.222349 55.766723 H 20.188757 31.706399 Z m 59.227781,3.483989 v 6.455625 H 64.189469 c -15.882886,0 -28.896603,-0.04094 -28.896603,-0.102519 0,-0.06147 0.881244,-1.639518 1.946938,-3.483979 L 39.207226,61.710016 37.2193,59.004804 c -1.086177,-1.496065 -2.069898,-2.848665 -2.192858,-2.992129 -0.143463,-0.18444 5.656355,-0.24593 28.93759,-0.24593 h 29.12203 z"
       id="path4102"
       style="stroke-width:0.020494" />
    <path
       d="m 34.985456,7.482825 c -6.045749,1.1886543 -10.861846,5.574381 -12.808784,11.702103 -0.573834,1.803475 -0.778767,5.553877 -0.43037,7.582789 0.98371,5.553888 5.246477,10.656902 10.533931,12.562854 2.295335,0.840247 4.467711,1.147667 6.763036,1.004204 7.152429,-0.49185 12.97273,-5.103014 15.022135,-11.92753 0.737791,-2.459292 0.799271,-6.312172 0.12297,-8.75096 C 53.286637,16.356746 51.298712,13.20066 48.736953,11.048788 47.158915,9.7166804 44.228266,8.2206053 42.260834,7.708262 40.436866,7.2573881 36.78893,7.1344282 34.985456,7.482825 Z m 3.668429,8.62799 c 2.889662,3.934853 5.205491,7.27539 5.164494,7.398349 -0.06147,0.163958 -10.226521,14.140892 -10.923315,15.022136 -0.204944,0.266424 -4.570177,-1.987925 -4.570177,-2.377309 0,-0.06147 2.049405,-2.889662 4.549684,-6.271175 2.500268,-3.402016 4.549673,-6.332665 4.549673,-6.496611 0,-0.163957 -1.967432,-2.971636 -4.34474,-6.230189 -3.463496,-4.693137 -4.303743,-5.963764 -4.119303,-6.189201 0.327914,-0.389394 3.893866,-2.1518825 4.201287,-2.090392 0.143453,0.040944 2.623228,3.279046 5.492397,7.234392 z m -12.17346,7.172912 v 2.561759 H 24.43102 22.381615 v -1.926434 c 0,-1.045201 0.06147,-2.213362 0.12296,-2.561759 l 0.143464,-0.635314 h 1.905941 1.926445 z m 27.339049,-0.881244 c 0.08199,0.881244 0.102519,2.008419 0.04105,2.520773 l -0.143464,0.92223 h -2.049405 -2.028912 v -2.561759 -2.582241 l 2.008419,0.06147 1.987925,0.06147 z"
       id="path4104"
       style="stroke-width:0.020494" />
    <path
       d="m 13.774119,10.577421 v 0.922241 h 5.38993 5.389931 l 0.901738,-0.922241 0.901737,-0.9222311 h -6.291668 -6.291668 z"
       id="path4106"
       style="stroke-width:0.020494" />
    <path
       d="m 50.048578,9.757667 c 0,0.040944 0.389383,0.450863 0.881233,0.901738 l 0.860762,0.819764 18.096237,0.02053 H 87.962555 V 10.577463 9.6552217 H 69.005556 c -10.431465,0 -18.956978,0.04105 -18.956978,0.1025194 z"
       id="path4108"
       style="stroke-width:0.020494" />
    <path
       d="m 13.774119,36.194978 v 0.922231 h 5.738327 c 3.156086,0 5.738339,-0.08199 5.738339,-0.163947 0,-0.08199 -0.348397,-0.512354 -0.778778,-0.92223 L 23.69323,35.272747 h -4.959551 -4.95956 z"
       id="path4110"
       style="stroke-width:0.020494" />
    <path
       d="m 51.626615,36.194978 -0.778777,0.922231 H 69.415443 87.962555 V 36.194978 35.272747 H 70.173727 52.384889 Z"
       id="path4112"
       style="stroke-width:0.020494" />
    <path
       d="m 13.774119,49.003762 v 0.819753 h 7.685266 7.685266 v -0.819753 -0.819775 h -7.685266 -7.685266 z"
       id="path4114"
       style="stroke-width:0.020494" />
    <path
       d="m 44.515183,49.003762 v 0.819753 H 66.238864 87.962555 V 49.003762 48.183987 H 66.238864 44.515183 Z"
       id="path4116"
       style="stroke-width:0.020494" />
    <path
       d="m 13.774119,61.812535 v 0.922231 h 7.685266 7.685266 v -0.922231 -0.92223 h -7.685266 -7.685266 z"
       id="path4118"
       style="stroke-width:0.020494" />
    <path
       d="m 44.515183,61.812535 v 0.922231 h 21.723681 21.723691 v -0.922231 -0.92223 H 66.238864 44.515183 Z"
       id="path4120"
       style="stroke-width:0.020494" />
    <path
       d="m 29.964404,91.836313 v 4.303743 h 3.074113 3.074113 v -0.819764 -0.819764 h -2.151882 -2.151872 v -3.48399 -3.483979 h -0.92223 -0.922242 z"
       id="path4248"
       style="stroke-width:0.020494" />
    <path
       d="m 51.893039,91.836313 v 4.303743 h 0.819764 0.819754 v -1.106681 c 0,-0.6763 0.102519,-1.188654 0.286917,-1.332118 0.327903,-0.266413 0.43038,-0.163947 1.270638,1.352611 0.594327,1.086188 0.594327,1.086188 1.578037,1.086188 0.553341,0 0.942724,-0.06147 0.901738,-0.163957 -0.04094,-0.08199 -0.573834,-0.963217 -1.168161,-1.946928 l -1.065684,-1.823968 1.045191,-1.065694 c 0.573833,-0.573834 1.045201,-1.127175 1.045201,-1.209148 0,-0.08199 -0.430381,-0.143464 -0.963228,-0.143464 -0.942724,0.02053 -1.024697,0.082 -1.905941,1.147668 l -0.922231,1.127174 -0.06147,-2.254348 -0.06147,-2.274832 h -0.79926 -0.819764 z"
       id="path4250"
       style="stroke-width:0.020494" />
    <path
       d="m 38.571912,89.930361 c -0.881244,0.450863 -1.639528,1.864955 -1.639528,3.033116 0,0.450863 0.204943,1.250134 0.471367,1.741994 0.594327,1.209148 1.496064,1.680515 2.971636,1.578038 1.864954,-0.143453 2.971635,-1.373094 2.971635,-3.320032 0,-1.946939 -1.106681,-3.17658 -2.971635,-3.320033 -0.778778,-0.06147 -1.291121,0.02053 -1.803475,0.286917 z m 2.643721,1.619035 c 0.983722,1.250124 0.286928,3.361019 -1.10667,3.361019 -0.758274,0 -1.065694,-0.286917 -1.332108,-1.250134 -0.24593,-0.819764 0.06147,-2.131389 0.573834,-2.418306 0.655807,-0.389383 1.414081,-0.24592 1.864944,0.307421 z"
       id="path4416"
       style="stroke-width:0.020494" />
    <path
       d="m 45.949768,89.930361 c -0.881244,0.450863 -1.639529,1.864955 -1.639529,3.033116 0,0.450863 0.204944,1.250134 0.471368,1.741994 0.594327,1.209148 1.496064,1.680515 2.971635,1.578038 1.864955,-0.143453 2.971636,-1.373094 2.971636,-3.320032 0,-1.946939 -1.106681,-3.17658 -2.971636,-3.320033 -0.778777,-0.06147 -1.29112,0.02053 -1.803474,0.286917 z m 2.643732,1.619035 c 0.98371,1.250124 0.286906,3.361019 -1.106681,3.361019 -0.758274,0 -1.065695,-0.286917 -1.332118,-1.250134 -0.24592,-0.819764 0.06147,-2.131389 0.573844,-2.418306 0.655807,-0.389383 1.414081,-0.24592 1.864955,0.307421 z"
       id="path4418"
       style="stroke-width:0.020494" />
    <path
       d="m 68.493212,89.807391 c -0.266423,0.102519 -0.6763,0.348407 -0.86075,0.532847 -0.348397,0.30741 -0.368891,0.30741 -0.368891,-0.10252 0,-0.36889 -0.122959,-0.450874 -0.717297,-0.450874 h -0.717287 v 4.406221 4.40622 h 0.819764 0.819753 v -1.578038 c 0,-1.516558 0.02053,-1.557555 0.389395,-1.209158 0.963217,0.881255 2.828171,0.430381 3.565962,-0.840247 0.491861,-0.860751 0.532837,-3.012622 0.06147,-3.914359 -0.573834,-1.127175 -1.946928,-1.680515 -2.992129,-1.250145 z m 1.291121,1.864965 c 0.819764,0.942724 0.143464,3.238059 -0.963217,3.238059 -1.168161,0 -1.823968,-1.332118 -1.352612,-2.766702 0.389395,-1.147658 1.516569,-1.393598 2.315829,-0.471357 z"
       id="path4420"
       style="stroke-width:0.020494" />
    <path
       d="m 58.656075,92.225686 c 0,1.352611 0.08199,2.684729 0.204933,2.992139 0.43038,1.127175 2.438799,1.352601 3.504483,0.389384 0.36889,-0.327904 0.389383,-0.327904 0.389383,0.08199 0,0.389394 0.12297,0.450874 0.819764,0.450874 h 0.819764 v -3.176579 -3.17658 h -0.92223 -0.922231 v 2.213363 c 0,1.905941 -0.06147,2.274831 -0.368901,2.561748 -0.43037,0.389394 -0.92223,0.430381 -1.496054,0.143464 -0.348407,-0.20494 -0.389394,-0.45087 -0.389394,-2.561755 v -2.356816 h -0.819753 -0.819764 z"
       id="path4496"
       style="stroke-width:0.020494" />
  </g>
</svg>
