<?xml version="1.0" encoding="UTF-8" standalone="no"?>
<!-- Created with Inkscape (http://www.inkscape.org/) -->

<svg
   width="100mm"
   height="100mm"
   viewBox="0 0 100 100"
   version="1.1"
   id="svg26768"
   sodipodi:docname="master cluster node.svg"
   inkscape:version="1.1.1 (3bf5ae0d25, 2021-09-20)"
   xmlns:inkscape="http://www.inkscape.org/namespaces/inkscape"
   xmlns:sodipodi="http://sodipodi.sourceforge.net/DTD/sodipodi-0.dtd"
   xmlns="http://www.w3.org/2000/svg"
   xmlns:svg="http://www.w3.org/2000/svg">
  <sodipodi:namedview
     id="namedview26770"
     pagecolor="#ffffff"
     bordercolor="#666666"
     borderopacity="1.0"
     inkscape:pageshadow="2"
     inkscape:pageopacity="0.0"
     inkscape:pagecheckerboard="0"
     inkscape:document-units="mm"
     showgrid="false"
     width="209mm"
     inkscape:zoom="0.7500982"
     inkscape:cx="13.998167"
     inkscape:cy="348.62102"
     inkscape:window-width="1920"
     inkscape:window-height="1027"
     inkscape:window-x="1912"
     inkscape:window-y="-8"
     inkscape:window-maximized="1"
     inkscape:current-layer="layer1" />
  <defs
     id="defs26765" />
  <g
     inkscape:label="Layer 1"
     inkscape:groupmode="layer"
     id="layer1">
    <path
       d="m 26.514249,1.2705682 c -1.462236,0.4617586 -2.724377,1.6623316 -3.263096,3.0783921 l -0.323231,0.8773417 0.03078,29.737269 0.04618,29.737266 0.415583,0.769599 c 0.554111,1.077435 1.7239,2.108696 2.785945,2.524279 l 0.892734,0.323234 h 21.764235 c 21.57953,0 21.779625,0 22.610791,-0.323234 1.12361,-0.415583 2.27801,-1.477625 2.816723,-2.570458 l 0.430976,-0.87734 V 34.686516 4.826111 L 74.383243,4.1026887 C 73.921486,3.0868195 72.905614,2.0555578 71.889746,1.5630155 L 71.027794,1.1320405 49.094253,1.1012547 C 31.347326,1.0858617 27.037574,1.1166476 26.514247,1.2705664 Z m 44.775216,2.1394823 c 0.47715,0.2770553 0.87734,0.6772462 1.154396,1.1543973 l 0.430975,0.723422 v 22.6261822 22.62618 l -0.400194,0.846559 c -0.507932,1.077435 -1.369883,1.939387 -2.447319,2.447323 l -0.846558,0.40019 H 48.863376 28.545988 l -0.86195,-0.40019 c -1.092829,-0.507936 -1.923995,-1.339102 -2.43193,-2.43193 L 24.851917,50.540232 24.805741,28.067972 24.774956,5.5803171 25.190538,4.7491512 C 25.43681,4.2873925 25.806217,3.7948498 26.021704,3.625538 27.052966,2.8867241 26.175624,2.9175078 49.094257,2.9482919 l 21.471784,0.030786 z m -43.86709,50.9935625 0.969694,0.446369 h 20.471307 20.471309 l 1.031261,-0.507936 c 0.708031,-0.354016 1.27753,-0.784987 1.816252,-1.385276 l 0.784987,-0.877341 -0.04617,6.018256 -0.04617,6.018256 -0.461761,0.754205 c -0.307837,0.477155 -0.72342,0.892738 -1.154396,1.139007 L 70.56605,66.39395 49.171226,66.44013 c -16.530967,0.03076 -21.548747,0 -22.087465,-0.15392 -0.86195,-0.230881 -1.862428,-1.200575 -2.124091,-2.062522 -0.123136,-0.461762 -0.184704,-2.27801 -0.184704,-6.356883 v -5.725807 l 0.846558,0.908126 c 0.569503,0.631071 1.139005,1.046654 1.80086,1.35449 z"
       id="path4027"
       style="stroke-width:0.015392" />
    <path
       d="m 36.626765,12.90689 c -0.292444,0.292448 -0.307837,0.507935 -0.307837,5.818162 v 5.525714 l -0.569503,0.369407 c -0.32323,0.200095 -0.738813,0.646462 -0.923519,0.985085 -0.72342,1.262141 -0.307837,2.970648 0.923519,3.755639 l 0.569503,0.369407 v 7.449709 c 0,7.234222 0.0154,7.449705 0.307837,7.742153 0.354016,0.354016 0.892738,0.40019 1.323709,0.09235 0.277055,-0.215488 0.292448,-0.523329 0.369409,-7.772939 l 0.07696,-7.542061 0.538718,-0.354016 c 0.661856,-0.430974 1.231355,-1.523804 1.231355,-2.339577 0,-0.86195 -0.538717,-1.877819 -1.246748,-2.35497 l -0.600285,-0.400191 v -5.371795 c 0,-5.325618 -0.04617,-5.848945 -0.523325,-6.156784 -0.307841,-0.215484 -0.861952,-0.123132 -1.169793,0.184707 z m 1.970173,12.267393 c 1.308316,0.954302 1.215967,2.893689 -0.153921,3.740247 -1.015867,0.615678 -2.401144,0.246271 -3.047608,-0.800382 -0.615677,-1.015869 -0.261662,-2.385754 0.800385,-3.063 0.631071,-0.3848 1.785466,-0.323232 2.401144,0.123135 z"
       id="path4029"
       style="stroke-width:0.015392" />
    <path
       d="m 48.170738,12.90689 c -0.307841,0.30784 -0.307841,0.507935 -0.307841,9.666152 v 9.373704 l -0.569499,0.369407 c -0.323234,0.200096 -0.738817,0.646463 -0.923519,0.985087 -0.723424,1.262141 -0.307842,2.970647 0.923519,3.755639 l 0.569499,0.369404 v 3.601718 c 0,3.386234 0.0154,3.601717 0.307841,3.894165 0.354015,0.354016 0.892733,0.40019 1.323709,0.09235 0.277055,-0.200095 0.292448,-0.492543 0.369408,-3.924951 l 0.07696,-3.694068 0.538722,-0.354015 c 0.661853,-0.430976 1.231356,-1.523804 1.231356,-2.339577 0,-0.861952 -0.538717,-1.877821 -1.246749,-2.354972 l -0.600285,-0.400191 v -9.219784 c 0,-9.219785 -0.0308,-9.681544 -0.523329,-10.004775 -0.307836,-0.215488 -0.861947,-0.123136 -1.169788,0.184703 z m 1.970173,19.963374 c 1.308316,0.9543 1.215963,2.893687 -0.153921,3.740246 -1.015872,0.615678 -2.401149,0.246274 -3.047608,-0.80038 -0.615678,-1.015872 -0.261662,-2.385756 0.80038,-3.063002 0.631071,-0.384799 1.785466,-0.323231 2.401149,0.123136 z"
       id="path4031"
       style="stroke-width:0.015392" />
    <path
       d="m 59.714706,12.90689 c -0.277055,0.277056 -0.307836,0.507935 -0.307836,3.001433 0,1.631548 -0.06157,2.693593 -0.153921,2.693593 -0.277055,0 -1.27753,1.000478 -1.47763,1.49302 -0.47715,1.139005 -0.169309,2.416538 0.769599,3.247704 0.307841,0.261663 0.631071,0.492543 0.708031,0.492543 0.09235,0 0.153921,3.817206 0.153921,10.389571 0,10.189481 0,10.389576 0.307836,10.697412 0.354016,0.354016 0.892738,0.40019 1.323709,0.09235 0.277056,-0.215488 0.292449,-0.523329 0.338627,-10.666627 l 0.03076,-10.435751 0.446369,-0.246271 c 0.230876,-0.138527 0.631071,-0.507935 0.87734,-0.831166 0.384797,-0.523326 0.446369,-0.723422 0.446369,-1.616155 0,-0.892735 -0.06157,-1.09283 -0.446369,-1.616156 -0.246269,-0.323232 -0.646464,-0.692639 -0.87734,-0.831166 l -0.446369,-0.246272 v -2.508889 c 0,-2.43193 -0.09235,-3.016825 -0.523325,-3.29388 -0.307841,-0.215488 -0.861951,-0.123136 -1.169792,0.184703 z m 1.87782,6.43384 c 0.523329,0.307839 1.046654,1.246749 1.046654,1.87782 0,1.046653 -0.769599,1.954779 -1.893208,2.231834 -0.584897,0.153919 -1.723904,-0.30784 -2.108701,-0.846558 -1.446844,-2.031739 0.784991,-4.525237 2.955255,-3.263096 z"
       id="path4033"
       style="stroke-width:0.015392" />
    <path
       d="m 29.761951,58.928851 c -0.461757,0.184702 -0.9543,0.861952 -1.077436,1.462237 -0.107743,0.63107 0.277056,1.493022 0.831166,1.862426 l 0.415583,0.261663 -0.292448,-0.338623 c -0.461758,-0.507932 -0.40019,-1.354491 0.123135,-1.800859 0.461761,-0.40019 0.861951,-0.461758 1.369888,-0.184702 0.784987,0.415583 0.938907,1.185181 0.384797,1.893212 l -0.32323,0.430972 0.338622,-0.184702 c 0.507937,-0.277056 0.938908,-1.092829 0.938908,-1.770074 0,-0.47715 -0.107742,-0.692638 -0.600285,-1.185181 -0.492543,-0.492543 -0.692638,-0.60029 -1.185181,-0.584897 -0.338623,0 -0.754206,0.06157 -0.923519,0.138528 z"
       id="path4035"
       style="stroke-width:0.015392" />
    <path
       d="m 51.480008,80.631516 c -1.169788,0.369408 -1.923994,1.646939 -1.923994,3.30927 0,1.662332 0.507936,2.570458 1.739292,3.078394 1.523804,0.631071 3.093783,0.0154 3.724854,-1.508411 l 0.23088,-0.569504 h -0.677245 c -0.55411,0 -0.708031,0.06157 -0.784991,0.307842 -0.261663,0.831165 -1.693118,1.077435 -2.35497,0.415583 -0.692638,-0.708032 -0.661857,-2.878299 0.04617,-3.58633 0.523329,-0.523325 1.493023,-0.507932 2.000955,0.0154 0.215488,0.200095 0.384801,0.446369 0.384801,0.538718 0,0.07696 0.32323,0.15392 0.708031,0.15392 0.64646,0 0.692638,-0.0154 0.600285,-0.354015 -0.215488,-0.677245 -0.708031,-1.308316 -1.231356,-1.554586 -0.661856,-0.323234 -1.847038,-0.430976 -2.462716,-0.246274 z"
       id="path4183"
       style="stroke-width:0.015392" />
    <path
       d="m 18.156414,83.86383 v 3.23231 h 0.615679 0.615678 l 0.01539,-2.58585 c 0,-1.431451 0.06157,-2.43193 0.123135,-2.262617 0.07696,0.169309 0.354016,1.323709 0.631071,2.570458 l 0.507935,2.278009 h 0.661854 0.646462 l 0.30784,-1.354495 c 0.169311,-0.738812 0.430975,-1.893208 0.600286,-2.570453 l 0.277055,-1.23136 0.04618,2.570458 0.03078,2.58585 h 0.615679 0.615678 v -3.23231 -3.232314 h -1.000477 c -0.554111,0 -1.000478,0.04617 -1.000478,0.107746 -0.01539,0.230876 -1.062045,4.694547 -1.108221,4.756114 -0.04618,0.0308 -0.261663,-0.784991 -0.492543,-1.831645 -0.230879,-1.031261 -0.492542,-2.139482 -0.569502,-2.462712 l -0.15392,-0.569503 H 19.15689 18.156412 Z"
       id="path4259"
       style="stroke-width:0.015392" />
    <path
       d="m 56.174559,83.86383 v 3.23231 h 0.615678 0.615678 v -3.23231 -3.232314 h -0.615678 -0.615678 z"
       id="path4261"
       style="stroke-width:0.015392" />
    <path
       d="m 35.857171,81.708955 c 0,0.507932 -0.04618,0.615678 -0.307841,0.615678 -0.246269,0 -0.307841,0.107742 -0.307841,0.461758 0,0.354015 0.06157,0.461757 0.307841,0.461757 0.292448,0 0.307841,0.107746 0.307841,1.677725 0,2.000954 0.09235,2.170267 1.246749,2.170267 0.738813,0 0.754205,-0.0154 0.754205,-0.461757 0,-0.384801 -0.06157,-0.461762 -0.384801,-0.461762 -0.384797,0 -0.384797,0 -0.384797,-1.462236 0,-1.462237 0,-1.462237 0.384797,-1.462237 0.323234,0 0.384801,-0.07696 0.384801,-0.461757 0,-0.384797 -0.06157,-0.461758 -0.384801,-0.461758 -0.338623,0 -0.384797,-0.06157 -0.384797,-0.615678 v -0.615682 h -0.615678 -0.615678 z"
       id="path4279"
       style="stroke-width:0.015392" />
    <path
       d="m 69.257725,81.708955 c 0,0.507932 -0.04617,0.615678 -0.307841,0.615678 -0.24627,0 -0.307837,0.107742 -0.307837,0.461758 0,0.354015 0.06157,0.461757 0.307837,0.461757 0.292448,0 0.307841,0.107746 0.307841,1.677725 0,2.000954 0.09235,2.170267 1.246749,2.170267 0.738812,0 0.754205,-0.0154 0.754205,-0.461757 0,-0.384801 -0.06157,-0.461762 -0.384797,-0.461762 -0.384801,0 -0.384801,0 -0.384801,-1.462236 0,-1.462237 0,-1.462237 0.384801,-1.462237 0.32323,0 0.384797,-0.07696 0.384797,-0.461757 0,-0.384797 -0.06157,-0.461758 -0.384797,-0.461758 -0.338627,0 -0.384801,-0.06157 -0.384801,-0.615678 v -0.615682 h -0.615678 -0.615678 z"
       id="path4281"
       style="stroke-width:0.015392" />
    <path
       d="m 26.529641,82.386201 c -0.538719,0.230881 -0.985086,0.784991 -0.985086,1.200574 0,0.415583 1.09283,0.384797 1.354493,-0.0308 0.23088,-0.384797 1.215965,-0.430976 1.354492,-0.07696 0.15392,0.40019 -0.215487,0.646464 -1.123612,0.769599 -1.123614,0.138527 -1.739292,0.692638 -1.739292,1.569978 0.01539,1.262142 1.26214,1.831645 2.43193,1.123614 0.430974,-0.261662 0.507934,-0.277055 0.584894,-0.07696 0.06157,0.153921 0.30784,0.230881 0.800382,0.230881 0.554109,0 0.661855,-0.04618 0.523327,-0.184702 -0.123135,-0.123143 -0.184702,-0.800388 -0.184702,-2.000963 0,-2.047129 -0.107746,-2.278009 -1.185183,-2.570458 -0.769598,-0.215483 -1.246748,-0.200095 -1.831643,0.04618 z m 1.631548,3.340056 c -0.292447,0.677245 -1.246749,0.815773 -1.493021,0.200095 -0.153919,-0.415583 0.169312,-0.738817 0.892734,-0.908126 0.78499,-0.200095 0.908126,-0.04618 0.600287,0.708031 z"
       id="path4429"
       style="stroke-width:0.015392" />
    <path
       d="m 31.593596,82.340022 c -1.031261,0.292448 -1.47763,1.600764 -0.769599,2.247228 0.184707,0.184702 0.754206,0.446369 1.262142,0.584896 0.507936,0.153917 1.031261,0.369404 1.154396,0.492544 0.200095,0.200095 0.200095,0.246269 -0.06157,0.446364 -0.446365,0.32323 -0.985087,0.261662 -1.416058,-0.169309 -0.477151,-0.492543 -1.446844,-0.554111 -1.446844,-0.09235 0,0.446364 0.569499,1.046653 1.185177,1.262141 0.323234,0.107742 0.908126,0.138528 1.416062,0.09235 0.708031,-0.07696 0.938908,-0.169309 1.292923,-0.569499 0.908126,-1.015876 0.323234,-2.093311 -1.35449,-2.478113 -1.031261,-0.230876 -1.354495,-0.538718 -0.92352,-0.861947 0.354016,-0.246274 0.985087,-0.153921 1.246749,0.200095 0.215488,0.277055 1.292928,0.292448 1.292928,0.0154 0,-0.354015 -0.492543,-0.908126 -1.015872,-1.123614 -0.569504,-0.246273 -1.139003,-0.261662 -1.862427,-0.04618 z"
       id="path4431"
       style="stroke-width:0.015392" />
    <path
       d="m 39.474278,82.478549 c -0.354011,0.169314 -0.754205,0.52333 -0.923515,0.800385 -0.369408,0.646464 -0.384801,2.154875 -0.0308,2.847513 0.47715,0.892733 2.047133,1.400669 2.924474,0.9543 0.492543,-0.261662 1.185181,-0.938907 1.185181,-1.169788 0,-0.292448 -1.139007,-0.261662 -1.385276,0.0308 -0.446369,0.538718 -1.693118,0.107742 -1.693118,-0.584896 0,-0.230881 0.215488,-0.261662 1.63155,-0.261662 h 1.646939 l -0.107745,-0.723422 c -0.123139,-0.938907 -0.507936,-1.554585 -1.169793,-1.908601 -0.692638,-0.369408 -1.308316,-0.369408 -2.077914,0.0154 z m 1.646943,1.031266 c 0.523325,0.47715 0.354016,0.661852 -0.646464,0.661852 -0.507936,0 -0.923519,-0.04617 -0.923519,-0.123135 0,-0.06157 0.107747,-0.277055 0.246274,-0.461757 0.277056,-0.400194 0.923515,-0.446369 1.323709,-0.07696 z"
       id="path4433"
       style="stroke-width:0.015392" />
    <path
       d="m 45.60028,82.401594 c -0.277055,0.123134 -0.507936,0.292443 -0.507936,0.384797 0,0.07696 -0.06157,0.15392 -0.153916,0.15392 -0.07696,0 -0.153921,-0.138527 -0.153921,-0.307841 0,-0.246269 -0.107746,-0.307837 -0.538717,-0.307837 h -0.538722 v 2.385752 2.385755 h 0.615678 0.615682 v -1.43145 c 0,-1.646944 0.169309,-2.016348 1.000475,-2.170268 0.507936,-0.107746 0.538717,-0.138528 0.538717,-0.708031 0,-0.677246 -0.107741,-0.723424 -0.87734,-0.384797 z"
       id="path4435"
       style="stroke-width:0.015392" />
    <path
       d="m 65.14807,82.340022 c -1.031261,0.292448 -1.477629,1.600764 -0.769598,2.247228 0.184706,0.184702 0.754205,0.446369 1.262141,0.584896 0.507936,0.153917 1.031261,0.369404 1.154396,0.492544 0.200095,0.200095 0.200095,0.246269 -0.06157,0.446364 -0.446364,0.32323 -0.985086,0.261662 -1.416057,-0.169309 -0.477151,-0.492543 -1.446844,-0.554111 -1.446844,-0.09235 0,0.446364 0.569499,1.046653 1.185177,1.262141 0.323234,0.107742 0.908126,0.138528 1.416062,0.09235 0.708031,-0.07696 0.938908,-0.169309 1.292923,-0.569499 0.908126,-1.015872 0.323234,-2.093307 -1.35449,-2.478109 -1.031261,-0.230876 -1.354495,-0.538718 -0.923519,-0.861947 0.354015,-0.246274 0.985086,-0.153921 1.246748,0.200095 0.215488,0.277055 1.292928,0.292448 1.292928,0.0154 0,-0.354015 -0.492543,-0.908126 -1.015872,-1.123614 -0.569504,-0.246273 -1.139003,-0.261662 -1.862427,-0.04618 z"
       id="path4437"
       style="stroke-width:0.015392" />
    <path
       d="m 72.874836,82.478549 c -0.354015,0.169314 -0.754205,0.52333 -0.923519,0.800385 -0.369408,0.646464 -0.384797,2.154875 -0.0308,2.847513 0.477155,0.892733 2.047133,1.400669 2.924473,0.9543 0.492544,-0.261662 1.185182,-0.938907 1.185182,-1.169788 0,-0.292448 -1.139003,-0.261662 -1.385277,0.0308 -0.446364,0.538718 -1.693113,0.107742 -1.693113,-0.584896 0,-0.230881 0.215484,-0.261662 1.631546,-0.261662 h 1.646939 l -0.107745,-0.723422 c -0.123135,-0.938907 -0.507936,-1.554585 -1.169788,-1.908601 -0.692639,-0.369408 -1.308317,-0.369408 -2.077915,0.0154 z m 1.646939,1.031266 c 0.523325,0.47715 0.354016,0.661852 -0.646464,0.661852 -0.507931,0 -0.923514,-0.04617 -0.923514,-0.123135 0,-0.06157 0.107741,-0.277055 0.246269,-0.461757 0.277055,-0.400194 0.923519,-0.446369 1.323709,-0.07696 z"
       id="path4439"
       style="stroke-width:0.015392" />
    <path
       d="m 79.000834,82.401594 c -0.277055,0.123134 -0.507932,0.292443 -0.507932,0.384797 0,0.07696 -0.06157,0.15392 -0.15392,0.15392 -0.07696,0 -0.153921,-0.138527 -0.153921,-0.307841 0,-0.246269 -0.107742,-0.307837 -0.538718,-0.307837 h -0.538717 v 2.385752 2.385755 h 0.615678 0.615678 v -1.43145 c 0,-1.646944 0.169309,-2.016348 1.000475,-2.170268 0.507936,-0.107746 0.538722,-0.138528 0.538722,-0.708031 0,-0.677246 -0.107747,-0.723424 -0.877345,-0.384797 z"
       id="path4441"
       style="stroke-width:0.015392" />
    <path
       d="m 58.637271,84.156274 c 0,1.015872 0.06157,2.016347 0.153921,2.247228 0.323229,0.846559 1.83164,1.015868 2.632025,0.292448 0.277055,-0.246273 0.292448,-0.246273 0.292448,0.06157 0,0.292448 0.09235,0.338622 0.615678,0.338622 h 0.615678 v -2.385755 -2.385752 h -0.692638 -0.692639 v 1.662332 c 0,1.431451 -0.04617,1.708506 -0.277055,1.923994 -0.323234,0.292448 -0.692638,0.32323 -1.123614,0.107742 -0.261662,-0.153918 -0.292448,-0.338625 -0.292448,-1.923996 v -1.770074 h -0.615678 -0.615678 z"
       id="path4505"
       style="stroke-width:0.015392" />
    <path
       d="m 38.165962,94.6382 v 3.23231 h 0.615678 0.615682 v -2.278009 c 0.0154,-2.647414 -0.107746,-2.662807 1.585372,0.307841 l 1.108221,1.970168 h 0.661852 0.646464 V 94.6382 91.40589 h -0.615678 -0.600289 l -0.04617,2.170264 -0.04617,2.170267 -1.23136,-2.170267 -1.231356,-2.170264 h -0.72342 -0.738817 z"
       id="path4529"
       style="stroke-width:0.015392" />
    <path
       d="m 53.250086,92.483325 v 1.07744 l -0.492543,-0.307841 c -0.661857,-0.40019 -1.185181,-0.384797 -1.831645,0.04617 -0.692638,0.461762 -1.062043,1.23136 -1.062043,2.231835 0,1.923994 1.477626,3.047608 2.893688,2.185661 0.40019,-0.246274 0.492543,-0.261667 0.492543,-0.07696 0,0.169309 0.169309,0.230876 0.615678,0.230876 h 0.615678 V 94.6382 91.40589 h -0.615678 -0.615678 z m -0.323234,1.923994 c 0.123139,0.123139 0.246274,0.538722 0.277055,0.954305 0.06157,0.600285 0.0154,0.815773 -0.261662,1.154396 -0.892733,1.154395 -2.201049,-0.107742 -1.693113,-1.646939 0.261662,-0.815773 1.077435,-1.031261 1.67772,-0.461762 z"
       id="path4531"
       style="stroke-width:0.015392" />
    <path
       d="m 45.554106,93.206749 c -0.661857,0.338623 -1.23136,1.40067 -1.23136,2.27801 0,0.338623 0.15392,0.938908 0.354015,1.308316 0.446369,0.908126 1.123614,1.262142 2.231835,1.185181 1.40067,-0.107746 2.231835,-1.03126 2.231835,-2.493497 0,-1.462237 -0.831165,-2.385756 -2.231835,-2.493498 -0.584892,-0.04617 -0.969693,0.0154 -1.35449,0.215488 z m 1.985561,1.215963 c 0.738813,0.938912 0.215488,2.524284 -0.831166,2.524284 -0.569503,0 -0.80038,-0.215488 -1.000475,-0.938912 -0.184706,-0.615678 0.04618,-1.600765 0.430972,-1.816248 0.492543,-0.292448 1.062046,-0.184707 1.400669,0.230876 z"
       id="path4549"
       style="stroke-width:0.015392" />
    <path
       d="m 56.405436,93.252924 c -0.354016,0.169313 -0.754206,0.523329 -0.923515,0.800384 -0.369408,0.64646 -0.384801,2.154871 -0.0308,2.847509 0.47715,0.892737 2.047129,1.400669 2.924473,0.954305 0.492543,-0.261667 1.185182,-0.938912 1.185182,-1.169789 0,-0.292448 -1.139007,-0.261666 -1.385277,0.03076 -0.446368,0.538718 -1.693117,0.107746 -1.693117,-0.584892 0,-0.230881 0.215488,-0.261667 1.63155,-0.261667 h 1.646939 l -0.107746,-0.723419 c -0.123135,-0.938912 -0.507932,-1.55459 -1.169789,-1.908606 -0.692638,-0.369404 -1.308316,-0.369404 -2.077915,0.0154 z m 1.646939,1.031261 c 0.523329,0.47715 0.354015,0.661856 -0.64646,0.661856 -0.507936,0 -0.923519,-0.04618 -0.923519,-0.123139 0,-0.06157 0.107746,-0.277055 0.246274,-0.461757 0.277055,-0.40019 0.923515,-0.446364 1.323705,-0.07696 z"
       id="path4551"
       style="stroke-width:0.015392" />
  </g>
</svg>
