<?xml version="1.0" encoding="UTF-8" standalone="no"?>
<!-- Created with Inkscape (http://www.inkscape.org/) -->

<svg
   width="100mm"
   height="100mm"
   viewBox="0 0 100 100"
   version="1.1"
   id="svg26768"
   xmlns="http://www.w3.org/2000/svg"
   xmlns:svg="http://www.w3.org/2000/svg">
  <defs
     id="defs26765" />
  <g
     id="layer1">
    <path
       d="M 48.171576,1.9329567 C 47.344847,2.0601457 26.899205,9.516605 25.7704,10.104854 c -0.79493,0.397466 -1.84424,1.573965 -2.353,2.591478 l -0.44516,0.906222 v 22.337582 22.337582 l 0.492855,1.033412 c 0.54056,1.128802 1.542176,2.241707 2.44839,2.702767 0.31797,0.158988 5.294245,2.035026 11.06545,4.149545 l 10.477203,3.863368 h 2.146316 l 2.146315,0.01589 10.334113,-3.783875 c 5.691711,-2.09862 10.636187,-3.926963 11.001855,-4.085949 0.826729,-0.365669 1.987331,-1.414978 2.496087,-2.273505 0.938019,-1.62166 0.906222,-0.397466 0.858526,-24.213621 L 76.391655,13.920523 76.025987,13.0143 C 75.628521,12.028585 74.547414,10.708998 73.704786,10.200243 72.830361,9.6596886 52.098541,2.1078372 51.001534,1.9170543 49.872731,1.7421682 49.411671,1.7421682 48.171577,1.9329489 Z M 61.98749,8.1652209 c 5.803002,2.1463161 10.747477,4.0382531 10.970058,4.2131381 0.222581,0.158986 0.635947,0.651844 0.890325,1.065208 l 0.476959,0.763135 0.04769,21.479056 c 0.0318,16.518682 0,21.638042 -0.158987,22.178596 -0.127189,0.476959 -0.429263,0.969816 -0.906222,1.446776 -0.731337,0.731336 -0.779033,0.747235 -11.303929,4.578807 -5.8189,2.114518 -10.985957,3.926963 -11.478815,4.006456 -0.588249,0.111295 -1.208296,0.111295 -1.828343,0.01589 C 47.53563,67.721508 27.217175,60.265048 26.422245,59.740393 26.08837,59.517812 25.627315,58.993157 25.357041,58.5003 L 24.880069,57.641773 V 36.019629 14.397486 l 0.429266,-0.810831 C 25.86579,12.521447 26.43814,12.060386 27.853126,11.55163 28.489065,11.313151 33.30635,9.564301 38.552901,7.6405659 l 9.539181,-3.4818012 1.669357,0.047695 1.669356,0.047695 z"
       id="path20128"
       style="stroke-width:0.0158986" />
    <path
       d="m 52.702687,10.486422 c -0.174885,0.0795 -0.46106,0.302074 -0.635945,0.492857 -0.302074,0.333872 -0.317973,0.635946 -0.397466,7.853926 l -0.0795,7.488257 -3.434105,-5.882496 c -4.56291,-7.806229 -4.27673,-7.361067 -4.88088,-7.647243 -0.651845,-0.302074 -1.446775,-0.09539 -1.93963,0.524655 -0.302075,0.397467 -0.317981,0.635946 -0.317981,7.806231 0,4.578807 -0.0636,7.345169 -0.143084,7.249777 -0.07953,-0.07949 -1.796545,-2.973044 -3.81567,-6.423048 -2.019125,-3.450005 -3.847471,-6.438948 -4.07005,-6.64563 -0.620045,-0.524655 -1.558071,-0.476959 -2.162221,0.111296 L 30.3651,15.876065 v 15.02421 c 0,14.881122 0,15.024209 0.31797,15.421675 0.190791,0.23848 0.60415,0.492858 0.92212,0.58825 0.874425,0.238479 16.804859,0.206682 17.504399,-0.0477 0.715438,-0.254379 1.192397,-0.922121 1.176499,-1.621661 l -0.01589,-0.556452 h 4.801388 c 4.181341,0 4.849083,-0.0318 5.167056,-0.254378 0.445162,-0.317973 0.858526,-1.255992 0.731337,-1.669357 -0.09539,-0.286175 0.0318,-0.302074 4.737793,-0.302074 4.562909,0 4.864983,-0.01589 5.230652,-0.317973 0.492858,-0.381567 0.826729,-1.144701 0.69954,-1.62166 C 71.59027,40.312267 67.7269,33.571247 63.052701,25.526537 56.788639,14.731364 54.435642,10.8203 54.10177,10.629516 53.624811,10.327442 53.211447,10.279746 52.70269,10.486429 Z m 1.255992,1.717052 c 0.461062,0.715439 15.994027,27.568233 16.375595,28.29957 0.254378,0.508756 0.254378,0.524655 -0.111295,0.763134 -0.333871,0.206684 -1.065208,0.238481 -5.135259,0.206684 l -4.753692,-0.04769 -0.747236,-1.255992 c -0.429264,-0.69954 -0.763135,-1.319588 -0.763135,-1.399081 0,-0.06359 1.494472,-0.127189 3.322815,-0.127189 2.909451,0 3.338714,-0.0318 3.418207,-0.254377 0.143088,-0.36567 -8.648858,-15.548866 -9.030425,-15.61246 -0.620047,-0.127189 -0.651844,0.143088 -0.731337,5.548623 l -0.0795,5.24655 -1.462675,-2.543782 -1.478573,-2.543781 v -8.330885 c 0,-4.578807 0.0477,-8.378581 0.111295,-8.426277 0.254378,-0.270277 0.715438,-0.06359 1.065208,0.476959 z M 51.3831,28.388285 c 4.610605,7.949317 8.39448,14.626744 8.39448,14.801629 0,0.190784 -0.111285,0.397466 -0.254378,0.445162 -0.143088,0.0477 -2.416592,0.09539 -5.055767,0.09539 h -4.801387 l -0.747236,-1.319587 c -0.413364,-0.731337 -0.747236,-1.383181 -0.747236,-1.430877 0,-0.06359 1.462675,-0.111284 3.243322,-0.111284 2.67097,0 3.275118,-0.04769 3.434106,-0.23848 0.158986,-0.190783 -0.572351,-1.542168 -4.229038,-7.901622 -4.022355,-6.963602 -4.483409,-7.67904 -4.880885,-7.726736 -0.238475,-0.0318 -0.44516,-0.0318 -0.461055,0 -0.01593,0.0318 -0.07953,2.464288 -0.12719,5.405536 l -0.07953,5.35784 -1.462669,-2.527884 -1.478575,-2.527883 v -8.330884 c 0,-4.578807 0.04767,-8.37858 0.111273,-8.442176 0.47696,-0.461059 0.810835,0.0636 9.14172,14.45186 z M 32.638611,16.655092 c 1.97143,3.163828 16.391492,28.363165 16.40739,28.665239 v 0.397466 H 40.301751 31.5575 L 31.50983,31.091053 c -0.01593,-8.044709 0,-14.722137 0.04767,-14.833427 0.143085,-0.397466 0.715446,-0.190784 1.081111,0.397466 z m 26.296342,12.00347 c 0.969816,1.685255 2.511984,4.372124 3.434105,5.977886 l 1.685255,2.893551 -3.036639,-0.0318 -3.036639,-0.04769 -0.524655,-0.953918 -0.540554,-0.953919 v -4.97627 c 0,-2.718667 0.04769,-4.960374 0.127189,-4.960374 0.0636,0 0.906222,1.383181 1.891938,3.052539 z M 48.219272,30.77308 c 0.906222,1.573965 2.44839,4.244935 3.418206,5.93019 l 1.780649,3.052538 -3.052539,-0.0318 -3.036639,-0.04769 -0.524655,-0.953918 -0.540558,-0.953918 v -5.087563 c 0,-3.084335 0.0636,-5.00807 0.143092,-4.928577 0.0795,0.09539 0.890323,1.446776 1.812444,3.020741 z"
       id="path20130"
       style="stroke-width:0.0158986" />
    <path
       d="m 34.689536,27.386671 c -0.270275,0.270277 -0.286181,15.230893 0,15.517068 0.143084,0.143088 1.414974,0.190783 4.753695,0.190783 3.767975,0 4.594706,-0.0318 4.73779,-0.22258 0.15898,-0.190784 -0.63595,-1.685257 -4.244935,-7.917521 -4.467515,-7.726736 -4.721895,-8.092405 -5.24655,-7.56775 z m 4.483409,8.442175 c 1.812451,3.13203 3.338721,5.803002 3.386416,5.93019 0.0636,0.190785 -0.461065,0.222582 -3.43411,0.222582 h -3.513595 v -6.073279 c 0,-3.4977 0.0636,-6.009684 0.143084,-5.930191 0.07953,0.09539 1.62166,2.718667 3.418205,5.850698 z"
       id="path20132"
       style="stroke-width:0.0158986" />
    <path
       d="m 52.066742,46.989688 c -0.333872,0.317973 -0.397466,0.540554 -0.397466,1.351384 v 0.953918 h -4.928577 -4.944478 l -0.38156,0.397466 c -0.333875,0.317972 -0.397476,0.540553 -0.397476,1.351384 v 0.953918 H 36.10451 c -4.721895,0 -4.912674,0.0159 -5.326045,0.333871 l -0.41336,0.317973 v 2.67097 c 0,2.575579 0.01593,2.670971 0.365665,3.004842 l 0.365676,0.34977 h 9.268905 9.253001 l 0.381567,-0.397466 c 0.333871,-0.317973 0.397466,-0.540553 0.397466,-1.351384 v -0.953918 h 4.928578 4.944475 l 0.381567,-0.397466 c 0.333872,-0.317972 0.397466,-0.540553 0.397466,-1.351383 v -0.953919 h 4.928577 4.944475 l 0.381567,-0.397465 c 0.381567,-0.365669 0.397466,-0.445162 0.397466,-2.782261 0,-2.416593 -0.09539,-2.877653 -0.620047,-3.291018 -0.190783,-0.143087 -2.464288,-0.190784 -9.443788,-0.206682 h -9.189412 z m 18.490113,2.973045 -0.0477,2.114518 h -1.112904 -1.112904 l -0.04769,-0.604148 c -0.0636,-0.779033 -0.413366,-0.69954 -0.476959,0.09539 l -0.04769,0.588249 H 66.455012 65.19902 l -0.0477,-0.604148 c -0.03179,-0.397466 -0.127189,-0.588249 -0.286176,-0.588249 -0.158986,0 -0.254378,0.190783 -0.286175,0.588249 l -0.0477,0.604148 H 63.275287 62.019295 L 61.9716,51.552594 c -0.0318,-0.397466 -0.127189,-0.588249 -0.286176,-0.588249 -0.158986,0 -0.254378,0.190783 -0.286175,0.588249 -0.0795,0.953918 -0.34977,0.69954 -0.34977,-0.333871 0,-0.69954 -0.0795,-1.033411 -0.333871,-1.351384 l -0.317973,-0.413363 h -3.815673 -3.799774 v -0.794932 -0.794931 h 8.903236 8.919134 z m -10.652086,2.702768 -0.0477,2.114518 -1.144702,0.04769 -1.144702,0.04769 -0.04769,-0.572351 c -0.06359,-0.731338 -0.34977,-0.731338 -0.413364,0 l -0.04769,0.556452 h -1.255992 -1.255992 l -0.04769,-0.604148 c -0.0318,-0.397466 -0.127189,-0.58825 -0.286176,-0.58825 -0.158986,0 -0.254378,0.190784 -0.286175,0.58825 l -0.0477,0.604148 h -1.255992 -1.255992 l -0.04769,-0.604148 c -0.0318,-0.397466 -0.127189,-0.58825 -0.286175,-0.58825 -0.158987,0 -0.254379,0.190784 -0.286176,0.58825 -0.0795,0.953918 -0.34977,0.69954 -0.34977,-0.333872 0,-0.699539 -0.0795,-1.033411 -0.333871,-1.351383 l -0.317973,-0.413365 h -3.815676 -3.799775 v -0.794931 -0.794932 h 8.903241 8.919133 z m -10.620288,2.750463 v 2.146316 h -1.192398 -1.192397 v -0.556453 c 0,-0.381567 -0.0795,-0.556452 -0.23848,-0.556452 -0.158986,0 -0.238479,0.174885 -0.238479,0.556452 v 0.556453 h -1.255996 -1.27189 l -0.04767,-0.524655 c -0.03175,-0.317973 -0.12719,-0.508757 -0.286169,-0.508757 -0.158991,0 -0.254381,0.190784 -0.286181,0.508757 l -0.04767,0.524655 h -1.27189 -1.255996 v -0.556453 c 0,-0.381567 -0.07953,-0.556452 -0.238474,-0.556452 -0.158991,0 -0.238486,0.174885 -0.238486,0.556452 V 57.56228 H 38.87092 37.519546 v -0.556453 c 0,-0.381567 -0.07953,-0.556452 -0.238486,-0.556452 -0.15899,0 -0.238474,0.174885 -0.238474,0.556452 V 57.56228 H 35.78659 34.5147 l -0.04767,-0.508757 c -0.0636,-0.731337 -0.44516,-0.779033 -0.44516,-0.06359 v 0.572351 h -1.27189 -1.271901 v -2.146322 -2.146315 h 8.903241 8.903235 z"
       id="path20134"
       style="stroke-width:0.0158986" />
    <path
       d="m 26.549435,94.924073 v 3.338712 h 0.63594 0.63595 l 0.01593,-2.670972 c 0,-1.478572 0.0636,-2.511981 0.127191,-2.337098 0.07953,0.174887 0.365664,1.367283 0.651845,2.655072 l 0.524655,2.352998 h 0.683634 0.667751 l 0.31797,-1.399078 c 0.174885,-0.763137 0.445159,-1.955533 0.620044,-2.655072 l 0.286181,-1.27189 0.04767,2.655068 0.03186,2.670972 h 0.63595 0.63594 V 94.924073 91.585357 H 32.03453 c -0.57235,0 -1.033404,0.0477 -1.033404,0.111295 -0.01593,0.238481 -1.097005,4.849082 -1.1447,4.912676 -0.04767,0.03182 -0.270275,-0.810826 -0.508761,-1.891935 -0.238474,-1.065208 -0.50876,-2.209909 -0.588244,-2.543783 L 28.60043,91.585359 h -1.017509 -1.033416 z"
       id="path20512"
       style="stroke-width:0.0158986" />
    <path
       d="m 46.104756,92.141813 c 0,0.540551 0.01593,0.556451 0.635943,0.556451 0.620047,0 0.635945,-0.01591 0.635945,-0.556451 0,-0.540556 -0.01589,-0.556456 -0.635945,-0.556456 -0.620048,0 -0.635943,0.01591 -0.635943,0.556456 z"
       id="path20514"
       style="stroke-width:0.0158986" />
    <path
       d="m 56.438867,94.924073 v 3.338712 h 0.635945 0.635946 v -3.338712 -3.338716 h -0.635946 -0.635945 z"
       id="path20516"
       style="stroke-width:0.0158986" />
    <path
       d="m 67.885884,92.698264 v 1.112902 l -0.508756,-0.31797 c -0.683642,-0.413364 -1.224195,-0.397468 -1.891938,0.0477 -0.715438,0.476957 -1.097006,1.271889 -1.097006,2.305302 0,1.987329 1.526269,3.14793 2.988944,2.257604 0.413364,-0.254376 0.508756,-0.270275 0.508756,-0.07949 0,0.174887 0.174885,0.238481 0.635945,0.238481 h 0.635946 v -3.338712 -3.338717 h -0.635946 -0.635945 z m -0.333872,1.987328 c 0.127189,0.127188 0.254379,0.556451 0.286176,0.985715 0.06359,0.620049 0.0159,0.84263 -0.270277,1.1924 -0.922121,1.192396 -2.273505,-0.111295 -1.74885,-1.701157 0.270277,-0.842627 1.112905,-1.065208 1.732951,-0.476958 z"
       id="path20518"
       style="stroke-width:0.0158986" />
    <path
       d="m 39.586316,92.698264 c 0,0.524656 -0.04767,0.635945 -0.31797,0.635945 -0.25438,0 -0.317981,0.111284 -0.317981,0.476957 0,0.365669 0.0636,0.476962 0.317981,0.476962 0.302064,0 0.31797,0.111285 0.31797,1.732948 0,2.066826 0.09535,2.241709 1.287785,2.241709 0.76314,0 0.779035,-0.01591 0.779035,-0.476958 0,-0.397468 -0.0636,-0.476962 -0.397465,-0.476962 -0.397465,0 -0.397465,0 -0.397465,-1.510366 0,-1.510371 0,-1.510371 0.397465,-1.510371 0.333875,0 0.397465,-0.07949 0.397465,-0.476962 0,-0.397464 -0.0636,-0.476957 -0.397465,-0.476957 -0.34977,0 -0.397465,-0.06359 -0.397465,-0.635945 v -0.635945 h -0.635951 -0.635939 z"
       id="path20524"
       style="stroke-width:0.0158986" />
    <path
       d="m 35.214191,93.493196 c -0.365676,0.174883 -0.779035,0.540552 -0.95392,0.826727 -0.381571,0.667744 -0.397465,2.225809 -0.03175,2.941248 0.492855,0.92212 2.114515,1.446776 3.02074,0.985714 0.50876,-0.270276 1.224195,-0.969815 1.224195,-1.208296 0,-0.302074 -1.1765,-0.270275 -1.43088,0.03182 -0.461055,0.556451 -1.748839,0.111284 -1.748839,-0.604151 0,-0.238476 0.22258,-0.270276 1.685249,-0.270276 h 1.701155 l -0.111273,-0.747238 c -0.12719,-0.969814 -0.524655,-1.605759 -1.208289,-1.971428 -0.715446,-0.381569 -1.351385,-0.381569 -2.146315,0.01591 z m 1.701155,1.065208 c 0.54055,0.492857 0.365665,0.683639 -0.667751,0.683639 -0.524655,0 -0.953909,-0.04769 -0.953909,-0.127188 0,-0.06359 0.111273,-0.286175 0.254369,-0.476957 0.286181,-0.413364 0.95392,-0.461063 1.367291,-0.07949 z"
       id="path20530"
       style="stroke-width:0.0158986" />
    <path
       d="m 44.403601,93.413702 c -0.28618,0.127189 -0.524655,0.302075 -0.524655,0.397464 0,0.07949 -0.0636,0.158988 -0.15899,0.158988 -0.07953,0 -0.15898,-0.143088 -0.15898,-0.317971 0,-0.25438 -0.111273,-0.317974 -0.556455,-0.317974 h -0.556455 v 2.46429 2.464286 h 0.63595 0.63594 v -1.478572 c 0,-1.701153 0.174885,-2.082721 1.033415,-2.241709 0.524655,-0.111284 0.556456,-0.143087 0.556456,-0.731338 0,-0.699539 -0.111274,-0.747233 -0.906226,-0.397464 z"
       id="path20532"
       style="stroke-width:0.0158986" />
    <path
       d="m 49.87273,93.334209 c -0.635945,0.190782 -0.906222,0.461062 -1.240093,1.192396 -0.381568,0.810832 -0.381568,1.891939 0,2.718666 0.381567,0.858526 1.176499,1.240095 2.289403,1.128806 0.667743,-0.0636 0.890324,-0.158987 1.335485,-0.651844 0.286176,-0.302075 0.524655,-0.715439 0.524655,-0.890325 0,-0.270276 -0.111284,-0.317971 -0.604148,-0.317971 -0.508756,0 -0.651844,0.0795 -0.794932,0.397464 -0.127189,0.286176 -0.302074,0.397464 -0.635945,0.397464 -0.69954,0 -0.985715,-0.429263 -0.985715,-1.478571 0,-0.985715 0.34977,-1.542166 0.938019,-1.542166 0.317973,0 0.81083,0.397464 0.81083,0.651845 0,0.07948 0.317973,0.143087 0.699541,0.143087 h 0.715438 L 52.78218,94.590199 C 52.575498,93.874761 52.225728,93.55679 51.430796,93.350108 50.635865,93.143427 50.492777,93.143427 49.87273,93.334202 Z"
       id="path20534"
       style="stroke-width:0.0158986" />
    <path
       d="m 60.858688,93.461397 c -0.47696,0.25438 -0.604149,0.270276 -0.604149,0.09539 0,-0.158987 -0.190783,-0.222581 -0.635945,-0.222581 h -0.635945 v 2.46429 2.464286 h 0.635945 0.635945 v -1.669358 c 0,-1.478572 0.0318,-1.701153 0.333872,-2.003228 0.429263,-0.429263 1.112904,-0.349769 1.367282,0.174887 0.127189,0.238481 0.206683,1.017513 0.206683,1.939634 v 1.558065 h 0.635945 0.635945 V 96.35495 c 0,-1.033413 -0.0795,-2.066822 -0.174885,-2.273504 -0.365668,-0.794932 -1.494471,-1.081107 -2.400693,-0.620049 z"
       id="path20536"
       style="stroke-width:0.0158986" />
    <path
       d="m 71.145104,93.493196 c -0.365669,0.174883 -0.779033,0.540552 -0.953918,0.826727 -0.381567,0.667744 -0.397466,2.225809 -0.0318,2.941248 0.492857,0.92212 2.114518,1.446776 3.02074,0.985714 0.508757,-0.270276 1.224195,-0.969815 1.224195,-1.208296 0,-0.302074 -1.176499,-0.270275 -1.430877,0.03182 -0.46106,0.556451 -1.74885,0.111284 -1.74885,-0.604151 0,-0.238476 0.222581,-0.270276 1.685256,-0.270276 h 1.701153 l -0.111295,-0.747238 c -0.127189,-0.969814 -0.524655,-1.605759 -1.208296,-1.971428 -0.715439,-0.381569 -1.351384,-0.381569 -2.146317,0.01591 z m 1.701154,1.065208 c 0.540553,0.492857 0.365668,0.683639 -0.667743,0.683639 -0.524655,0 -0.953918,-0.04769 -0.953918,-0.127188 0,-0.06359 0.111296,-0.286175 0.254378,-0.476957 0.286176,-0.413364 0.953918,-0.461063 1.367283,-0.07949 z"
       id="path20538"
       style="stroke-width:0.0158986" />
    <path
       d="m 46.104756,95.798499 v 2.464286 h 0.635943 0.635945 v -2.464286 -2.46429 h -0.635945 -0.635943 z"
       id="path20542"
       style="stroke-width:0.0158986" />
    <path
       d="m 75.199257,93.397803 c 0,0.0477 0.317972,0.58825 0.715438,1.208296 0.397466,0.620049 0.715439,1.144701 0.715439,1.1924 0,0.04769 -0.23848,0.413363 -0.540554,0.826727 -0.286175,0.429263 -0.651844,0.953919 -0.81083,1.192396 l -0.270277,0.445163 h 0.779033 c 0.747236,0 0.794932,-0.03177 1.144702,-0.635945 0.190783,-0.34977 0.413364,-0.635945 0.492857,-0.635945 0.07949,0 0.302074,0.286175 0.476959,0.635945 0.317973,0.620045 0.34977,0.635945 1.128803,0.635945 h 0.810831 L 79.555482,97.817622 C 79.412395,97.579145 79.030827,97.02269 78.728753,96.561632 L 78.1882,95.7508 l 0.81083,-1.208296 0.826729,-1.208295 h -0.779033 c -0.747236,0 -0.779033,0.01591 -1.176499,0.731338 l -0.397466,0.731338 -0.381567,-0.683644 c -0.365669,-0.651844 -0.429263,-0.699539 -1.144702,-0.747233 -0.413364,-0.03182 -0.747235,-0.0159 -0.747235,0.03178 z"
       id="path20544"
       style="stroke-width:0.0158986" />
  </g>
</svg>
