<?xml version="1.0" encoding="UTF-8" standalone="no"?>
<!-- Created with Inkscape (http://www.inkscape.org/) -->

<svg
   width="100mm"
   height="100mm"
   viewBox="0 0 100 100"
   version="1.1"
   id="svg26768"
   xmlns="http://www.w3.org/2000/svg"
   xmlns:svg="http://www.w3.org/2000/svg">
  <defs
     id="defs26765" />
  <g
     id="layer1">
    <path
       d="m 24.976449,1.5593461 c -0.833717,0.154393 -1.8064,0.8954795 -2.223254,1.6828819 L 22.398093,3.9215573 V 35.97351 c 0,30.84769 0.0154,32.082832 0.293341,32.684965 0.339667,0.741085 1.266025,1.559367 2.022545,1.760078 0.29335,0.09263 2.423972,0.154392 4.708986,0.154392 4.060535,0 4.184047,-0.01544 4.956012,-0.370542 0.833717,-0.385983 1.451289,-1.065311 1.744639,-1.929911 0.123513,-0.385982 0.169829,-8.970223 0.169829,-32.345299 V 4.106828 L 35.922907,3.3039862 C 35.490599,2.3930684 34.749515,1.8218142 33.668773,1.5747854 32.881363,1.3895147 25.887371,1.3740754 24.976449,1.5593404 Z m 8.831272,2.5629221 0.324231,0.4168602 -0.03089,31.6196526 c -0.04629,30.122043 -0.06178,31.635094 -0.324231,31.897561 -0.247025,0.247029 -0.648443,0.277907 -4.446507,0.277907 h -4.184047 l -0.29335,-0.370543 c -0.216145,-0.262467 -0.293351,-0.602132 -0.293351,-1.266021 v -0.910917 h 2.161502 c 1.868161,0 2.192383,-0.03088 2.26958,-0.247029 0.04629,-0.138953 0.03089,-0.370542 -0.06178,-0.509496 -0.123522,-0.200711 -0.52494,-0.247029 -2.269579,-0.293347 l -2.099751,-0.04632 v -1.91447 -1.929911 h 0.910922 c 0.941803,0 1.374102,-0.247029 1.188829,-0.694769 -0.06178,-0.169831 -0.339667,-0.231588 -1.096187,-0.231588 H 24.559548 V 57.91273 55.905624 h 2.161502 c 1.868161,0 2.192383,-0.03088 2.269579,-0.247029 0.04629,-0.138953 0.03089,-0.370543 -0.06178,-0.509496 -0.123522,-0.200711 -0.52494,-0.247028 -2.269579,-0.293346 l -2.09975,-0.04632 V 52.894961 50.98049 l 1.04988,-0.04632 c 0.910913,-0.04632 1.034435,-0.0772 1.034435,-0.355104 0,-0.277907 -0.123522,-0.308785 -1.034435,-0.355103 l -1.04988,-0.04632 v -1.991652 -1.991668 l 2.09975,-0.04632 c 1.744639,-0.04632 2.146057,-0.09263 2.269579,-0.293346 0.09267,-0.138953 0.108068,-0.370543 0.06178,-0.509497 -0.07718,-0.216149 -0.401418,-0.247028 -2.269579,-0.247028 h -2.161502 v -1.92991 -1.929911 h 1.003564 c 0.75652,0 1.034426,-0.06176 1.096187,-0.23159 0.185273,-0.447738 -0.247026,-0.694767 -1.188829,-0.694767 h -0.910922 v -1.92991 -1.914471 l 2.099751,-0.04632 c 1.744639,-0.04632 2.146057,-0.09263 2.269579,-0.293347 0.09267,-0.138954 0.108067,-0.370542 0.06178,-0.509496 -0.07718,-0.21615 -0.401419,-0.247029 -2.26958,-0.247029 H 24.559576 V 33.44147 31.511561 h 0.910923 c 0.941803,0 1.374101,-0.247029 1.188828,-0.694769 -0.06178,-0.169831 -0.339667,-0.231589 -1.096187,-0.231589 h -1.003564 v -1.929914 -1.929911 h 2.146067 c 2.03798,0 2.161502,-0.01544 2.254134,-0.308786 0.216154,-0.663889 -0.123512,-0.771964 -2.331331,-0.771964 h -2.06887 v -1.92991 -1.92991 h 1.003564 c 0.75652,0 1.034426,-0.06176 1.096187,-0.23159 C 26.8446,21.105479 26.412302,20.85845 25.470499,20.85845 h -0.910923 v -1.92991 -1.914472 l 2.099751,-0.04632 c 1.744639,-0.04632 2.146057,-0.09263 2.269579,-0.293346 0.09267,-0.138954 0.108068,-0.370544 0.06178,-0.509497 -0.07718,-0.21615 -0.401418,-0.247028 -2.269579,-0.247028 H 24.559605 V 13.91077 11.919102 l 1.04988,-0.04632 c 0.910913,-0.04632 1.034435,-0.0772 1.034435,-0.355103 0,-0.277907 -0.123522,-0.308786 -1.034435,-0.355104 l -1.04988,-0.04632 V 9.1246083 7.1175011 h 2.161502 c 1.868161,0 2.192382,-0.03088 2.269579,-0.2470288 0.04629,-0.1389528 0.03089,-0.3705423 -0.06178,-0.509496 C 28.805384,6.1602654 28.403966,6.1139475 26.659327,6.0676296 L 24.559576,6.0213135 V 5.1875922 c 0,-0.6484496 0.07718,-0.9263571 0.308796,-1.1579466 0.293341,-0.2933458 0.509495,-0.3087851 4.461952,-0.3087851 h 4.168602 z"
       id="path20598"
       style="stroke-width:0.0154393" />
    <path
       d="m 42.19125,1.8835714 c -0.802836,0.4014219 -1.374092,1.1116288 -1.667442,2.0843038 -0.324222,1.0961885 -0.324222,62.9459608 0,64.0421498 0.29335,0.957235 0.880042,1.71376 1.682887,2.14606 l 0.648443,0.339665 h 18.990324 18.990319 l 0.63301,-0.339665 c 1.543929,-0.833721 2.269576,-2.532042 1.7292,-4.075971 C 82.981841,65.431664 47.085511,3.5510141 46.49881,2.7944893 45.572452,1.5902247 43.611668,1.1888038 42.19125,1.8835714 Z m 2.53205,2.346771 c 0.385982,0.3859825 36.14336,61.8497716 36.374949,62.4982216 0.185271,0.540375 -0.185271,1.327778 -0.741086,1.543928 -0.262467,0.09263 -7.148388,0.123515 -18.666094,0.108075 L 43.426394,68.334247 43.024976,67.963704 C 42.68531,67.63948 42.623549,67.454208 42.623549,66.697683 v -0.895478 l 2.207818,-0.04632 c 2.176947,-0.04632 2.192383,-0.04632 2.238699,-0.41686 0.03089,-0.200712 -0.03089,-0.432301 -0.154393,-0.494058 -0.108077,-0.0772 -1.127067,-0.138954 -2.238699,-0.138954 h -2.053425 v -1.92991 -1.92991 h 0.895487 c 1.003545,0 1.312331,-0.138954 1.235135,-0.555814 -0.04629,-0.247029 -0.216145,-0.293347 -1.096187,-0.339665 l -1.034435,-0.04632 v -1.991668 -1.991668 l 2.207818,-0.04632 c 2.176947,-0.04632 2.192383,-0.04632 2.238699,-0.41686 0.03089,-0.200711 -0.03089,-0.432299 -0.154393,-0.494057 -0.108077,-0.0772 -1.127067,-0.138953 -2.238699,-0.138953 h -2.053425 v -1.929895 -1.914471 l 1.049871,-0.04632 c 0.941803,-0.04632 1.034435,-0.0772 1.080751,-0.401421 0.04629,-0.324226 0,-0.339665 -1.034426,-0.339665 h -1.096196 v -2.007103 -1.991668 l 2.207818,-0.04632 2.192383,-0.04632 v -0.463179 -0.463178 l -2.192383,-0.04632 -2.207818,-0.04632 v -1.914472 -1.914471 l 1.049871,-0.04632 c 0.988119,-0.04632 1.034435,-0.06176 1.034435,-0.4323 0,-0.370543 -0.04629,-0.385982 -1.034435,-0.4323 l -1.049871,-0.04632 v -1.914471 -1.92991 h 2.053425 c 1.111632,0 2.130622,-0.06176 2.238699,-0.138954 0.123512,-0.06176 0.185273,-0.293347 0.154393,-0.494058 -0.04629,-0.370542 -0.06178,-0.370542 -2.238699,-0.41686 l -2.207818,-0.04632 v -1.914471 -1.92991 h 0.895487 c 1.003545,0 1.312331,-0.138954 1.235135,-0.555815 -0.04629,-0.247029 -0.216145,-0.293346 -1.096187,-0.339664 l -1.034435,-0.04632 v -1.914439 -1.914471 l 2.207818,-0.04632 2.192383,-0.04632 v -0.463179 -0.463179 l -2.192383,-0.04632 -2.207818,-0.04632 v -1.91447 -1.914472 l 1.034435,-0.04632 c 0.880042,-0.04632 1.049871,-0.09263 1.096187,-0.339664 0.07718,-0.41686 -0.23159,-0.555814 -1.235135,-0.555814 h -0.895487 v -1.929918 -1.929911 h 2.053425 c 1.111632,0 2.130622,-0.06176 2.238699,-0.138954 0.123512,-0.06175 0.185273,-0.293346 0.154393,-0.494056 -0.04629,-0.370543 -0.06178,-0.370543 -2.238699,-0.416861 l -2.207818,-0.04632 v -1.991643 -1.991668 l 1.034435,-0.04632 c 0.880042,-0.04632 1.049871,-0.09263 1.096187,-0.339664 0.07718,-0.416861 -0.23159,-0.555815 -1.235135,-0.555815 H 42.623549 V 7.6887713 c 0,-2.9489027 0.03089,-3.3348852 0.277915,-3.5355962 0.586691,-0.5094959 1.28146,-0.4940566 1.821836,0.077197 z"
       id="path20600"
       style="stroke-width:0.0154393" />
    <path
       d="m 50.21968,28.608971 c -0.138952,0.138954 -0.18527,3.720868 -0.18527,16.442838 0,15.902463 0,16.257566 0.293346,16.411959 0.20071,0.09263 3.489278,0.154393 9.618674,0.154393 10.066412,0 9.989216,0 9.819385,-0.787403 -0.04632,-0.200711 -4.276682,-7.56525 -9.417964,-16.350202 -6.70065,-11.455949 -9.433402,-15.995099 -9.634113,-16.025978 -0.169832,-0.01544 -0.385982,0.04632 -0.494058,0.154393 z m 9.587797,17.322877 c 4.492831,7.719642 8.198259,14.126946 8.244577,14.25046 0.06176,0.169832 -1.358658,0.20071 -8.352653,0.20071 H 51.269552 V 45.823773 c 0.01544,-10.900134 0.04632,-14.466609 0.185271,-14.23502 0.09263,0.169832 3.844383,6.623453 8.352654,14.343095 z"
       id="path20602"
       style="stroke-width:0.0154393" />
    <path
       d="m 41.6972,94.349442 v 3.242249 h 0.617563 0.617572 l 0.0154,-2.593797 c 0,-1.435856 0.06178,-2.439408 0.123512,-2.269577 0.07718,0.169834 0.355102,1.327779 0.633008,2.57836 l 0.509504,2.285014 h 0.663888 0.648443 l 0.308786,-1.358656 c 0.169838,-0.741083 0.432299,-1.899033 0.602137,-2.57836 l 0.277905,-1.235142 0.04629,2.578361 0.03089,2.593797 h 0.617572 0.617572 v -3.242249 -3.242247 h -1.003554 c -0.555811,0 -1.003555,0.04632 -1.003555,0.108073 -0.0154,0.23159 -1.065306,4.70898 -1.111622,4.770736 -0.04629,0.0309 -0.26247,-0.7874 -0.49406,-1.837272 -0.231589,-1.034431 -0.494059,-2.14606 -0.571256,-2.470288 l -0.154393,-0.571249 h -0.988109 -1.003555 z"
       id="path20604"
       style="stroke-width:0.0154393" />
    <path
       d="m 60.687515,91.647568 c 0,0.524934 0.01544,0.540374 0.617572,0.540374 0.602132,0 0.617571,-0.01544 0.617571,-0.540374 0,-0.524938 -0.01544,-0.540373 -0.617571,-0.540373 -0.602133,0 -0.617572,0.01544 -0.617572,0.540373 z"
       id="path20606"
       style="stroke-width:0.0154393" />
    <path
       d="m 54.357409,92.187942 c 0,0.509498 -0.04632,0.617571 -0.308786,0.617571 -0.247029,0 -0.308786,0.108078 -0.308786,0.463182 0,0.355099 0.06176,0.463176 0.308786,0.463176 0.293347,0 0.308786,0.108073 0.308786,1.682883 0,2.007106 0.09263,2.176937 1.250582,2.176937 0.741085,0 0.756525,-0.01546 0.756525,-0.463177 0,-0.385981 -0.06176,-0.463178 -0.385982,-0.463178 -0.385983,0 -0.385983,0 -0.385983,-1.466732 0,-1.466733 0,-1.466733 0.385983,-1.466733 0.324224,0 0.385982,-0.0772 0.385982,-0.463176 0,-0.385984 -0.06176,-0.463182 -0.385982,-0.463182 -0.339665,0 -0.385983,-0.06175 -0.385983,-0.617571 v -0.61757 H 54.97498 54.357409 Z"
       id="path20608"
       style="stroke-width:0.0154393" />
    <path
       d="m 49.957213,92.959907 c -0.355108,0.169834 -0.756526,0.524933 -0.926354,0.802841 -0.370547,0.648451 -0.385983,2.1615 -0.03089,2.856268 0.478614,0.895482 2.053426,1.404975 2.933465,0.957238 0.494057,-0.262471 1.188825,-0.941798 1.188825,-1.173388 0,-0.293343 -1.142507,-0.262468 -1.389536,0.0309 -0.447738,0.540374 -1.698321,0.108073 -1.698321,-0.586694 0,-0.231587 0.21615,-0.262468 1.636564,-0.262468 h 1.652003 l -0.108075,-0.725643 c -0.123514,-0.941799 -0.509496,-1.559369 -1.173385,-1.914474 -0.694768,-0.37054 -1.312339,-0.37054 -2.084303,0.01545 z m 1.652003,1.034431 c 0.524936,0.478618 0.355103,0.663892 -0.648449,0.663892 -0.509497,0 -0.926357,-0.04632 -0.926357,-0.123518 0,-0.06175 0.108075,-0.277906 0.247027,-0.463176 0.277908,-0.401421 0.926358,-0.447742 1.327779,-0.0772 z"
       id="path20610"
       style="stroke-width:0.0154393" />
    <path
       d="m 59.035512,92.882711 c -0.277907,0.123512 -0.509496,0.293346 -0.509496,0.385984 0,0.0772 -0.06176,0.154389 -0.154393,0.154389 -0.0772,0 -0.154393,-0.138953 -0.154393,-0.308783 0,-0.247031 -0.108075,-0.308788 -0.540375,-0.308788 h -0.540374 v 2.393091 2.393087 h 0.617571 0.617571 v -1.435852 c 0,-1.652003 0.169832,-2.022547 1.003553,-2.176941 0.509496,-0.108073 0.540375,-0.138954 0.540375,-0.710203 0,-0.679332 -0.108074,-0.725649 -0.880039,-0.385984 z"
       id="path20612"
       style="stroke-width:0.0154393" />
    <path
       d="m 64.346626,92.805513 c -0.617572,0.185275 -0.88004,0.447742 -1.204265,1.15795 -0.370542,0.7874 -0.370542,1.837272 0,2.640117 0.370543,0.833721 1.142507,1.204261 2.223257,1.096188 0.64845,-0.06176 0.8646,-0.154394 1.2969,-0.633012 0.277907,-0.293346 0.509497,-0.694767 0.509497,-0.864601 0,-0.262467 -0.108075,-0.308784 -0.586694,-0.308784 -0.494056,0 -0.63301,0.0772 -0.771964,0.385981 -0.123513,0.277907 -0.293346,0.385984 -0.617571,0.385984 -0.679328,0 -0.957236,-0.416861 -0.957236,-1.435855 0,-0.957235 0.339665,-1.49761 0.910918,-1.49761 0.308786,0 0.787404,0.385981 0.787404,0.633012 0,0.0772 0.308786,0.138953 0.679329,0.138953 h 0.694768 l -0.138954,-0.478617 c -0.200711,-0.694768 -0.540376,-1.003556 -1.31234,-1.204266 -0.771964,-0.20071 -0.910918,-0.20071 -1.513049,-0.01544 z"
       id="path20614"
       style="stroke-width:0.0154393" />
    <path
       d="m 60.687515,95.198604 v 2.393087 h 0.617572 0.617571 v -2.393087 -2.393091 h -0.617571 -0.617572 z"
       id="path20616"
       style="stroke-width:0.0154393" />
  </g>
</svg>
