<?xml version="1.0" encoding="UTF-8" standalone="no"?>
<!-- Created with Inkscape (http://www.inkscape.org/) -->

<svg
   width="100mm"
   height="100mm"
   viewBox="0 0 100 100"
   version="1.1"
   id="svg26768"
   xmlns="http://www.w3.org/2000/svg"
   xmlns:svg="http://www.w3.org/2000/svg">
  <defs
     id="defs26765" />
  <path
     d="m 36.865777,0.73585458 c -0.312652,0.1214738 -0.7295,0.99001202 -0.7295,1.51107742 V 2.6985193 L 25.69767,2.7331963 15.259043,2.7853153 14.842195,3.2716417 c -0.399489,0.4689465 -0.416848,0.6079028 -0.416848,2.7268831 0,2.1189803 0.01642,2.2579365 0.416848,2.7268831 l 0.416848,0.4863264 10.421248,0.052119 10.403888,0.034677 0.104237,0.7468597 c 0.173593,1.215805 0.451588,1.337382 3.265329,1.337382 h 2.414252 v -0.434207 c 0,-0.677381 0.434207,-1.5458168 0.955273,-1.9626855 0.451587,-0.3473701 0.677381,-0.3821092 2.987436,-0.3821092 2.779002,0 3.317427,0.1563566 3.786373,1.0421309 0.138915,0.2778924 0.260533,0.7815988 0.260533,1.1289688 v 0.607903 h 2.48373 c 2.379534,0 2.50111,-0.01642 2.86586,-0.399469 0.243153,-0.260533 0.382109,-0.625282 0.382109,-1.0421314 V 9.298531 l 10.525465,-0.034678 10.525456,-0.052119 0.330007,-0.4168483 c 0.295269,-0.3473701 0.330006,-0.6947402 0.330006,-2.7095238 0,-1.267904 -0.0521,-2.4489912 -0.104217,-2.6053067 C 76.90076,2.7158376 76.674967,2.6984578 65.836863,2.6984578 H 55.589311 v -0.677381 c 0,-0.5384247 -0.104237,-0.7642184 -0.451587,-1.04213092 -0.451587,-0.36472932 -0.607903,-0.36472932 -9.25754,-0.34737004 -4.828525,0 -8.89281,0.0521188 -9.014387,0.10423774 z m -0.7295,5.26273212 V 7.0407176 H 26.40979 16.683284 V 5.9985867 4.9564559 h 9.726506 9.726487 z m 39.079698,0 v 1.0421309 h -9.81334 -9.813344 V 5.9985867 4.9564559 h 9.813344 9.81334 z"
     id="path4030"
     style="stroke-width:0.0173688" />
  <path
     d="m 43.187999,9.6633836 -0.451587,0.3473914 v 2.84848 2.848459 l -8.649637,0.05212 -8.632278,0.05212 -1.163707,0.573164 c -1.389501,0.677381 -2.414252,1.77161 -2.917938,3.109012 -0.347391,0.937914 -0.347391,1.111609 -0.312652,26.938934 l 0.05212,26.001019 0.468947,0.868438 c 0.573184,1.111601 1.545816,2.084249 2.657425,2.657419 l 0.868436,0.468957 20.529863,0.0521 c 20.373548,0.03474 20.529863,0.03474 21.485136,-0.312637 1.267929,-0.486324 2.570584,-1.667399 3.178491,-2.91795 l 0.486325,-0.990018 0.05212,-10.907576 0.0521,-10.890208 h -1.059494 -1.042125 v 2.310045 c 0,2.709524 -0.208424,4.099025 -0.781592,5.089043 -0.538433,0.920545 -1.65004,1.927932 -2.674791,2.396889 L 64.5342,60.623325 H 45.932262 27.330324 L 26.131878,60.015418 C 25.280822,59.5812 24.759757,59.16435 24.29079,58.539075 23.057604,56.923781 23.109723,57.913799 23.109723,38.443436 c 0,-15.440826 0.03468,-17.594546 0.277892,-18.167709 0.330011,-0.816338 1.007392,-1.528458 1.841088,-1.962665 0.625283,-0.312652 1.302664,-0.330011 20.634081,-0.330011 21.676207,0 20.65144,-0.05212 21.676207,0.920534 0.990018,0.920554 1.146338,1.545816 1.215812,4.759046 l 0.06948,3.004796 h 1.042125 1.042124 l -0.06948,-3.265328 c -0.05212,-3.091633 -0.06948,-3.300068 -0.503696,-4.203242 -0.816331,-1.684773 -2.101617,-2.744263 -3.890611,-3.21321 -0.851055,-0.208434 -2.396872,-0.260532 -9.153322,-0.260532 h -8.128572 v -2.779002 c 0,-2.726904 -0.01642,-2.796382 -0.434228,-3.2132304 -0.399468,-0.4168487 -0.503685,-0.4342079 -2.744263,-0.4342079 -2.101621,0 -2.379513,0.034678 -2.796361,0.3647289 z m 3.855851,3.9253504 0.05212,2.13636 h -1.146349 -1.128968 v -2.171099 -2.188458 l 1.094229,0.05212 1.07687,0.05212 z M 24.412387,59.737503 c 0.277892,0.260533 1.024751,0.729488 1.650013,1.042125 l 1.128968,0.538433 h 18.758253 18.758253 l 1.163708,-0.57317 c 0.798957,-0.382111 1.44162,-0.885805 2.049516,-1.563188 l 0.885807,-0.990018 -0.0521,6.773814 -0.0521,6.773811 -0.486325,0.816333 c -0.312637,0.538431 -0.764224,0.990018 -1.302651,1.302656 l -0.816337,0.486324 -19.800364,0.0521 c -15.249771,0.03474 -19.974079,0 -20.581982,-0.173695 C 24.742393,73.962497 23.561327,72.81616 23.300794,71.895615 23.179115,71.461396 23.10976,68.803978 23.10976,64.704951 l 0.01642,-6.513281 0.38211,0.521064 c 0.208434,0.2779 0.607903,0.746855 0.903174,1.024755 z"
     id="path4068"
     style="stroke-width:0.0173688" />
  <path
     d="m 28.667727,65.972886 c -0.7295,0.364744 -1.250565,1.320025 -1.163707,2.08425 0.104237,0.764224 0.486326,1.424238 1.024751,1.702138 l 0.36475,0.208424 -0.36475,-0.486324 c -0.208435,-0.260531 -0.382109,-0.677381 -0.382109,-0.903175 0,-0.57317 0.885794,-1.441607 1.476338,-1.441607 0.590544,0 1.476338,0.868437 1.476338,1.441607 0,0.225794 -0.173592,0.642644 -0.382109,0.903175 l -0.364729,0.486324 0.382109,-0.208424 c 0.677381,-0.364744 1.094229,-1.233181 1.007371,-2.101619 -0.156356,-1.476345 -1.75423,-2.36215 -3.074253,-1.684769 z"
     id="path4070"
     style="stroke-width:0.0173688" />
  <path
     d="m 45.949621,32.051715 1.024772,1.042131 H 67.608461 88.242537 V 32.051715 31.009584 H 66.583702 44.92487 Z"
     id="path4140"
     style="stroke-width:0.0173688" />
  <path
     d="m 44.994348,37.5576 c 0,0.06956 0.451588,0.573185 0.990012,1.128968 l 0.990033,1.007392 H 67.608461 88.242537 V 38.564992 37.436024 H 66.618441 c -11.897586,0 -21.624093,0.05212 -21.624093,0.121474 z"
     id="path4152"
     style="stroke-width:0.0173688" />
  <path
     d="m 45.949621,45.078279 1.024772,1.042123 H 67.608461 88.242537 V 45.078279 44.036152 H 66.583702 44.92487 Z"
     id="path4154"
     style="stroke-width:0.0173688" />
  <path
     d="m 18.24648,94.058155 v 3.647438 h 0.69474 0.69474 v -2.570574 c 0.01642,-2.987426 -0.121679,-3.004794 1.78899,0.347374 l 1.250545,2.2232 h 0.746859 0.7295 v -3.647438 -3.647437 h -0.694761 -0.677381 l -0.05212,2.448995 -0.05212,2.448993 -1.389501,-2.448993 -1.389501,-2.448995 h -0.816314 -0.833697 z"
     id="path4256"
     style="stroke-width:0.0173688" />
  <path
     d="m 52.462919,94.058155 v 3.647438 h 0.69474 0.694761 v -0.937912 c 0,-0.573168 0.0868,-1.007388 0.243153,-1.128968 0.277892,-0.225794 0.364749,-0.138956 1.07687,1.146338 0.503685,0.920542 0.503685,0.920542 1.337382,0.920542 0.468967,0 0.798957,-0.0521 0.764239,-0.138956 -0.03468,-0.06948 -0.486327,-0.816334 -0.990033,-1.650032 l -0.903175,-1.545821 0.885816,-0.903174 c 0.486326,-0.486325 0.885795,-0.955282 0.885795,-1.024756 0,-0.06948 -0.36473,-0.121576 -0.816317,-0.121576 -0.798978,0.01744 -0.868436,0.06948 -1.615295,0.972651 l -0.781598,0.955281 -0.05212,-1.910562 -0.05212,-1.927932 h -0.677381 -0.69474 z"
     id="path4258"
     style="stroke-width:0.0173688" />
  <path
     d="m 60.973599,94.058155 v 3.647438 h 0.694741 0.69476 v -3.647438 -3.647437 h -0.69476 -0.694741 z"
     id="path4260"
     style="stroke-width:0.0173688" />
  <path
     d="m 31.273034,91.626532 c 0,0.573167 -0.05212,0.694748 -0.34737,0.694748 -0.277913,0 -0.347371,0.121576 -0.347371,0.521063 0,0.399481 0.06956,0.521064 0.347371,0.521064 0.33001,0 0.34737,0.121576 0.34737,1.893193 0,2.257938 0.104237,2.448993 1.40686,2.448993 0.833717,0 0.851076,-0.01744 0.851076,-0.521062 0,-0.434219 -0.06956,-0.521063 -0.434207,-0.521063 -0.434228,0 -0.434228,0 -0.434228,-1.650032 0,-1.650029 0,-1.650029 0.434228,-1.650029 0.364729,0 0.434207,-0.08684 0.434207,-0.521064 0,-0.434219 -0.06956,-0.521063 -0.434207,-0.521063 -0.38213,0 -0.434228,-0.06948 -0.434228,-0.694748 v -0.694751 h -0.694741 -0.69476 z"
     id="path4276"
     style="stroke-width:0.0173688" />
  <path
     d="m 82.51085,91.626532 c 0,0.573167 -0.0521,0.694748 -0.347376,0.694748 -0.2779,0 -0.347374,0.121576 -0.347374,0.521063 0,0.399481 0.06948,0.521064 0.347374,0.521064 0.330007,0 0.347376,0.121576 0.347376,1.893193 0,2.257938 0.104218,2.448993 1.406869,2.448993 0.8337,0 0.851068,-0.01744 0.851068,-0.521062 0,-0.434219 -0.06948,-0.521063 -0.434218,-0.521063 -0.43422,0 -0.43422,0 -0.43422,-1.650032 0,-1.650029 0,-1.650029 0.43422,-1.650029 0.364744,0 0.434218,-0.08684 0.434218,-0.521064 0,-0.434219 -0.06948,-0.521063 -0.434218,-0.521063 -0.382113,0 -0.43422,-0.06948 -0.43422,-0.694748 v -0.694751 h -0.69475 -0.694749 z"
     id="path4278"
     style="stroke-width:0.0173688" />
  <path
     d="m 26.496628,92.494969 c -0.399489,0.191055 -0.851076,0.590538 -1.042131,0.903175 -0.416848,0.729487 -0.434208,2.431626 -0.03468,3.213218 0.538446,1.007387 2.310056,1.580557 3.300068,1.076863 0.555804,-0.295269 1.337403,-1.059494 1.337403,-1.320025 0,-0.330006 -1.285284,-0.295269 -1.563197,0.03474 -0.503685,0.607907 -1.910566,0.121577 -1.910566,-0.660013 0,-0.260531 0.243173,-0.295268 1.841088,-0.295268 h 1.858468 l -0.121472,-0.816332 c -0.138915,-1.059494 -0.573184,-1.754245 -1.320043,-2.153725 -0.781578,-0.416851 -1.476338,-0.416851 -2.344774,0.01744 z m 1.858447,1.163705 c 0.590544,0.538431 0.399489,0.746858 -0.729479,0.746858 -0.573164,0 -1.042131,-0.0521 -1.042131,-0.138957 0,-0.06948 0.121679,-0.312637 0.277913,-0.521063 0.312631,-0.451587 1.04211,-0.503694 1.493697,-0.08684 z"
     id="path4436"
     style="stroke-width:0.0173688" />
  <path
     d="m 43.431152,92.442863 c -0.746839,0.382111 -1.389501,1.580555 -1.389501,2.570573 0,0.382114 0.173593,1.059495 0.399489,1.476345 0.503686,1.024757 1.267924,1.424238 2.518469,1.337394 1.580556,-0.121576 2.518469,-1.163707 2.518469,-2.813739 0,-1.650029 -0.937913,-2.692156 -2.518469,-2.813737 -0.660021,-0.0521 -1.094229,0.01744 -1.528457,0.243164 z m 2.240577,1.372131 c 0.833697,1.059494 0.243153,2.848474 -0.937913,2.848474 -0.642642,0 -0.903175,-0.243161 -1.128969,-1.059492 -0.208434,-0.694751 0.05212,-1.806351 0.486327,-2.049513 0.555804,-0.330006 1.198446,-0.208426 1.580555,0.260531 z"
     id="path4438"
     style="stroke-width:0.0173688" />
  <path
     d="m 50.778146,92.408124 c -0.312652,0.138956 -0.573164,0.330006 -0.573164,0.434219 0,0.08684 -0.06956,0.173696 -0.173593,0.173696 -0.0868,0 -0.173798,-0.156316 -0.173798,-0.347374 0,-0.277901 -0.121473,-0.347377 -0.607902,-0.347377 h -0.607903 v 2.692157 2.692156 h 0.69474 0.694761 v -1.615293 c 0,-1.858455 0.191034,-2.275306 1.128968,-2.448995 0.573164,-0.121576 0.607903,-0.156315 0.607903,-0.798961 0,-0.764225 -0.121679,-0.816331 -0.990012,-0.43422 z"
     id="path4440"
     style="stroke-width:0.0173688" />
  <path
     d="m 65.802104,92.46023 c -0.521045,0.2779 -0.660002,0.29527 -0.660002,0.104217 0,-0.173695 -0.208434,-0.243163 -0.69476,-0.243163 h -0.694741 v 2.692157 2.692156 h 0.694741 0.69476 v -1.823719 c 0,-1.615292 0.03468,-1.858456 0.36475,-2.188462 0.468947,-0.468955 1.215806,-0.382112 1.493698,0.191054 0.138915,0.260531 0.225794,1.111601 0.225794,2.118989 v 1.702136 h 0.694754 0.694751 v -2.08425 c 0,-1.128968 -0.08684,-2.257936 -0.191055,-2.48373 -0.399481,-0.868437 -1.632658,-1.181077 -2.62269,-0.677385 z"
     id="path4442"
     style="stroke-width:0.0173688" />
  <path
     d="m 72.263286,92.33865 c -0.225793,0.08684 -0.573168,0.295269 -0.729487,0.451587 -0.295268,0.260531 -0.312638,0.260531 -0.312638,-0.08684 0,-0.312637 -0.104217,-0.382113 -0.607906,-0.382113 H 70.00535 v 3.734283 3.734288 h 0.694748 0.694751 v -1.337401 c 0,-1.285288 0.01744,-1.320025 0.330006,-1.024755 0.816331,0.746855 2.396889,0.364744 3.022163,-0.71212 0.416851,-0.729488 0.451588,-2.553207 0.0521,-3.317431 -0.486327,-0.955281 -1.650032,-1.424238 -2.535839,-1.059494 z m 1.094231,1.580555 c 0.694751,0.798964 0.121577,2.744263 -0.816331,2.744263 -0.990018,0 -1.545818,-1.128968 -1.146337,-2.34478 0.330006,-0.972651 1.285288,-1.181075 1.962668,-0.399483 z"
     id="path4444"
     style="stroke-width:0.0173688" />
  <path
     d="m 34.052036,92.512337 c 0,0.138956 0.920534,3.543226 1.320023,4.880619 0.06956,0.243163 0.277892,0.312637 0.833696,0.312637 h 0.746859 l 0.295272,-1.493712 c 0.521065,-2.622681 0.573164,-2.587944 1.250545,0.920544 0.104237,0.538431 0.156356,0.573168 0.851076,0.573168 h 0.729479 l 0.781598,-2.692157 0.781599,-2.692156 h -0.74686 -0.729479 l -0.191034,0.903177 c -0.677381,3.213217 -0.607903,3.19585 -1.146327,0.607905 L 38.515851,92.32128 h -0.729499 -0.72948 l -0.312631,1.736875 c -0.173592,0.955281 -0.382129,1.736875 -0.434228,1.736875 -0.06956,0 -0.225793,-0.486324 -0.330011,-1.094231 -0.451587,-2.362149 -0.468946,-2.379519 -1.233185,-2.379519 -0.382109,0 -0.69474,0.08684 -0.69474,0.191055 z"
     id="path4500"
     style="stroke-width:0.0173688" />
  <path
     d="m 76.084413,94.388162 c 0,1.146338 0.06948,2.275306 0.173695,2.535839 0.364744,0.955281 2.06688,1.146336 2.970057,0.330004 0.312637,-0.2779 0.330004,-0.2779 0.330004,0.06948 0,0.330006 0.104218,0.382111 0.694751,0.382111 h 0.69475 v -2.692157 -2.692156 h -0.781594 -0.781594 v 1.875825 c 0,1.615295 -0.0521,1.927932 -0.312637,2.171095 -0.364744,0.330007 -0.781594,0.364744 -1.267918,0.121577 -0.29527,-0.173695 -0.330007,-0.382113 -0.330007,-2.171093 v -1.997408 h -0.69475 -0.694749 z"
     id="path4502"
     style="stroke-width:0.0173688" />
</svg>
