<?xml version="1.0" encoding="UTF-8" standalone="no"?>
<!-- Created with Inkscape (http://www.inkscape.org/) -->

<svg
   width="100mm"
   height="100mm"
   viewBox="0 0 100 100"
   version="1.1"
   id="svg26768"
   xmlns="http://www.w3.org/2000/svg"
   xmlns:svg="http://www.w3.org/2000/svg">
  <defs
     id="defs26765" />
  <path
     d="m 37.064816,1.6676866 c -0.18849,0.068577 -0.565464,0.3769746 -0.805359,0.6854135 L 35.796806,2.9014259 V 15.050319 27.199213 h 1.028117 1.028115 V 15.461566 3.7239189 h 2.141906 2.141905 V 16.575357 29.426796 H 28.308703 14.480555 l 1.01098,1.028116 1.01098,1.028117 h 12.817167 12.817167 v 3.255691 3.2557 H 28.308703 14.480555 l 1.01098,1.028116 1.01098,1.028116 h 12.817167 12.817167 v 3.255699 3.255692 H 28.308703 14.480555 l 1.01098,1.028116 1.01098,1.028116 H 29.319682 42.136849 V 61.469714 74.321153 H 39.994944 37.853038 V 62.583506 50.845858 h -1.028115 -1.028117 v 12.063218 12.046078 l 0.394111,0.582599 c 0.582601,0.873904 1.319415,1.045255 4.181002,0.976712 2.70737,-0.05137 3.101482,-0.205624 3.684077,-1.353688 0.291303,-0.548325 0.308435,-2.638829 0.308435,-36.223917 0,-34.2533688 -0.01715,-35.6755913 -0.308435,-36.2410572 -0.548328,-1.0281162 -1.130924,-1.1994675 -4.061052,-1.1823274 -1.405091,0 -2.724506,0.068577 -2.930128,0.1542112 z"
     id="path4622"
     style="stroke-width:0.0171353" />
  <path
     d="m 46.420665,13.319658 v 1.028116 h 6.425711 6.425724 v -1.028116 -1.028117 h -6.425724 -6.425711 z"
     id="path4660"
     style="stroke-width:0.0171353" />
  <path
     d="m 61.499683,13.319658 v 1.028116 h 10.709532 10.70953 V 13.319658 12.291541 H 72.209215 61.499683 Z"
     id="path4662"
     style="stroke-width:0.0171353" />
  <path
     d="m 46.420665,21.887281 v 1.028116 h 3.255696 3.2557 v -1.028116 -1.028108 h -3.2557 -3.255696 z"
     id="path4680"
     style="stroke-width:0.0171353" />
  <path
     d="m 54.988292,21.887281 v 1.028116 h 6.425715 6.425716 v -1.028116 -1.028108 h -6.425716 -6.425715 z"
     id="path4682"
     style="stroke-width:0.0171353" />
  <path
     d="m 70.067307,21.887281 v 1.028116 h 7.453839 7.453832 v -1.028116 -1.028108 h -7.453832 -7.453839 z"
     id="path4684"
     style="stroke-width:0.0171353" />
  <path
     d="m 46.420665,30.454912 v 1.028117 h 5.397604 5.397599 v -1.028117 -1.028116 h -5.397599 -5.397604 z"
     id="path4708"
     style="stroke-width:0.0171353" />
  <path
     d="m 59.2721,30.454912 v 1.028117 h 2.141907 2.141909 V 30.454912 29.426796 H 61.414007 59.2721 Z"
     id="path4710"
     style="stroke-width:0.0171353" />
  <path
     d="m 65.783499,30.454912 v 1.028117 h 6.425716 6.425715 v -1.028117 -1.028116 h -6.425715 -6.425716 z"
     id="path4712"
     style="stroke-width:0.0171353" />
  <path
     d="m 80.691163,30.454912 v 1.028117 h 3.255699 3.255699 v -1.028117 -1.028116 h -3.255699 -3.255699 z"
     id="path4714"
     style="stroke-width:0.0171353" />
  <path
     d="m 35.796806,34.73872 v 1.028116 h 1.028117 1.028115 V 34.73872 33.710603 h -1.028115 -1.028117 z"
     id="path4716"
     style="stroke-width:0.0171353" />
  <path
     d="m 46.420665,39.022536 v 1.028116 h 2.141904 2.141908 V 39.022536 37.99442 h -2.141908 -2.141904 z"
     id="path4730"
     style="stroke-width:0.0171353" />
  <path
     d="m 52.932061,39.022536 v 1.028116 h 9.595738 9.59574 V 39.022536 37.99442 h -9.59574 -9.595738 z"
     id="path4732"
     style="stroke-width:0.0171353" />
  <path
     d="m 74.351123,39.022536 v 1.028116 h 7.45383 7.453841 V 39.022536 37.99442 h -7.453841 -7.45383 z"
     id="path4734"
     style="stroke-width:0.0171353" />
  <path
     d="m 35.796806,43.306351 v 1.028109 h 1.028117 1.028115 v -1.028109 -1.028115 h -1.028115 -1.028117 z"
     id="path4736"
     style="stroke-width:0.0171353" />
  <path
     d="m 46.420665,47.590159 v 1.028116 H 60.385891 74.351123 V 47.590159 46.562043 H 60.385891 46.420665 Z"
     id="path4738"
     style="stroke-width:0.0171353" />
  <path
     d="m 76.407354,47.590159 v 1.028116 h 5.397599 5.397608 v -1.028116 -1.028116 h -5.397608 -5.397599 z"
     id="path4740"
     style="stroke-width:0.0171353" />
  <path
     d="m 46.420665,56.157782 v 1.028116 h 7.539512 7.539506 v -1.028116 -1.028116 h -7.539506 -7.539512 z"
     id="path4752"
     style="stroke-width:0.0171353" />
  <path
     d="m 63.555916,56.157782 v 1.028116 h 2.141908 2.141899 v -1.028116 -1.028116 h -2.141899 -2.141908 z"
     id="path4754"
     style="stroke-width:0.0171353" />
  <path
     d="m 70.067307,56.157782 v 1.028116 h 7.453839 7.453832 v -1.028116 -1.028116 h -7.453832 -7.453839 z"
     id="path4756"
     style="stroke-width:0.0171353" />
  <path
     d="m 46.420665,64.725413 v 1.028117 h 8.567627 8.567624 v -1.028117 -1.028116 h -8.567624 -8.567627 z"
     id="path4760"
     style="stroke-width:0.0171353" />
  <path
     d="m 65.783499,64.725413 v 1.028117 h 4.283808 4.283816 v -1.028117 -1.028116 h -4.283816 -4.283808 z"
     id="path4762"
     style="stroke-width:0.0171353" />
  <path
     d="m 76.407354,64.725413 v 1.028117 h 3.255692 3.255699 v -1.028117 -1.028116 h -3.255699 -3.255692 z"
     id="path4764"
     style="stroke-width:0.0171353" />
  <path
     d="m 58.32966,90.154124 c -2.090496,0.908169 -2.673094,4.438027 -1.028109,6.254365 0.891029,0.976712 2.570278,1.336547 3.769754,0.80536 0.46265,-0.205623 0.548326,-0.188491 0.959572,0.171352 l 0.428379,0.411246 0.411246,-0.428386 0.394115,-0.411238 -0.394115,-0.325571 -0.411246,-0.325571 0.325571,-0.668273 c 0.411246,-0.839625 0.531193,-2.570295 0.257027,-3.409919 -0.274159,-0.805361 -1.130924,-1.782065 -1.83347,-2.073365 -0.702545,-0.30843 -2.210443,-0.291299 -2.878724,0 z m 2.313259,1.2166 c 0.702545,0.359843 1.028116,1.079528 1.028116,2.261855 0,1.285143 -0.188483,1.610714 -0.668274,1.182336 -0.342702,-0.308439 -0.359842,-0.308439 -0.685405,0.08567 -0.428387,0.496922 -0.428387,0.59973 -0.102816,0.736818 0.394115,0.13708 0.308431,0.428378 -0.154219,0.548325 -0.59973,0.13708 -1.576442,-0.342702 -1.884881,-0.94244 -0.359835,-0.668274 -0.359835,-2.450339 -0.01712,-3.10148 0.479782,-0.9253 1.542171,-1.250871 2.484603,-0.771089 z"
     id="path4766"
     style="stroke-width:0.0171353" />
  <path
     d="m 17.290736,93.683983 v 3.598402 h 0.68541 0.685411 v -1.285143 -1.285143 h 1.165197 c 1.422225,0 2.227581,-0.359843 2.638828,-1.199467 0.599734,-1.182328 0.188488,-2.587418 -0.891034,-3.118612 -0.462651,-0.239896 -1.028114,-0.308431 -2.433204,-0.308431 h -1.850608 z m 3.666944,-2.073364 c 0.342705,0.291299 0.35984,1.045248 0.03427,1.473634 -0.188488,0.257028 -0.462652,0.325571 -1.233738,0.342703 h -1.010979 l -0.0514,-0.839625 c -0.08568,-1.268011 0,-1.353686 1.07952,-1.268011 0.496922,0.05137 1.04525,0.171351 1.182332,0.291299 z"
     id="path4794"
     style="stroke-width:0.0171353" />
  <path
     d="m 38.881151,90.685318 c 0,0.582598 0.01715,0.59973 0.685414,0.59973 0.668274,0 0.685409,-0.01712 0.685409,-0.59973 0,-0.582605 -0.01715,-0.599729 -0.685409,-0.599729 -0.668278,0 -0.685414,0.01712 -0.685414,0.599729 z"
     id="path4796"
     style="stroke-width:0.0171353" />
  <path
     d="m 24.727435,92.038997 c -0.599734,0.257035 -1.096656,0.873905 -1.096656,1.336555 0,0.462651 1.216603,0.428379 1.507902,-0.03433 0.257029,-0.428378 1.353685,-0.479782 1.507902,-0.08567 0.171353,0.445519 -0.239894,0.719677 -1.250873,0.856757 -1.250874,0.154219 -1.936284,0.771089 -1.936284,1.747802 0.01714,1.40509 1.405091,2.039091 2.70737,1.25087 0.479787,-0.291298 0.565463,-0.30843 0.65114,-0.08568 0.06854,0.171351 0.342705,0.257027 0.891033,0.257027 0.616869,0 0.736816,-0.05137 0.582598,-0.205624 -0.137082,-0.137079 -0.205623,-0.891028 -0.205623,-2.227583 0,-2.278987 -0.119946,-2.536014 -1.319414,-2.861585 -0.856763,-0.239895 -1.387955,-0.222755 -2.039095,0.05137 z m 1.816337,3.718351 c -0.32557,0.753956 -1.387956,0.908167 -1.662119,0.222763 -0.171353,-0.462651 0.188487,-0.822493 0.993844,-1.010985 0.873897,-0.222755 1.010979,-0.05137 0.668275,0.788222 z"
     id="path4882"
     style="stroke-width:0.0171353" />
  <path
     d="m 31.393048,92.056137 c -0.308435,0.13708 -0.565464,0.325571 -0.565464,0.428386 0,0.08567 -0.06854,0.171344 -0.171352,0.171344 -0.08567,0 -0.171353,-0.154211 -0.171353,-0.342703 0,-0.274167 -0.119947,-0.342703 -0.599734,-0.342703 h -0.599733 v 2.655963 2.655961 h 0.68541 0.68541 v -1.593574 c 0,-1.833468 0.188487,-2.244724 1.113791,-2.416075 0.565463,-0.119939 0.599734,-0.154219 0.599734,-0.788213 0,-0.753956 -0.119947,-0.805361 -0.976709,-0.428386 z"
     id="path4884"
     style="stroke-width:0.0171353" />
  <path
     d="m 34.306041,91.987593 c -1.148063,0.325571 -1.644985,1.782065 -0.856763,2.501751 0.205623,0.205623 0.839627,0.496922 1.405093,0.651142 0.565459,0.171351 1.148061,0.411246 1.285142,0.548325 0.222758,0.222755 0.222758,0.274159 -0.06855,0.496922 -0.496924,0.359843 -1.096657,0.2913 -1.576444,-0.188491 -0.531194,-0.548325 -1.610714,-0.61687 -1.610714,-0.102808 0,0.496922 0.634005,1.165196 1.319415,1.405091 0.359839,0.119948 1.01098,0.154212 1.576445,0.102808 0.788217,-0.08568 1.045248,-0.188484 1.439359,-0.634001 1.010981,-1.130924 0.35984,-2.3304 -1.507904,-2.758778 -1.148061,-0.257027 -1.5079,-0.59973 -1.028112,-0.959572 0.394111,-0.274159 1.096657,-0.171352 1.387955,0.222754 0.239894,0.308439 1.43936,0.325571 1.43936,0.01712 0,-0.394116 -0.548329,-1.010986 -1.130926,-1.250872 -0.634005,-0.274167 -1.26801,-0.291299 -2.073365,-0.05137 z"
     id="path4886"
     style="stroke-width:0.0171353" />
  <path
     d="m 43.644754,92.107541 c -0.514061,0.274167 -0.651142,0.291299 -0.651142,0.102816 0,-0.17136 -0.205621,-0.239896 -0.68541,-0.239896 h -0.685409 v 2.655963 2.655961 h 0.685409 0.68541 v -1.799197 c 0,-1.593582 0.0343,-1.833477 0.359839,-2.159039 0.462651,-0.46265 1.19947,-0.376975 1.473632,0.188483 0.137086,0.257026 0.222762,1.096659 0.222762,2.090504 v 1.679249 h 0.685409 0.685411 v -2.056224 c 0,-1.1138 -0.08568,-2.227583 -0.18849,-2.450338 -0.394112,-0.856765 -1.610713,-1.165204 -2.587421,-0.668282 z"
     id="path4888"
     style="stroke-width:0.0171353" />
  <path
     d="m 48.73392,91.970461 c -0.46265,0.188492 -1.045248,0.839625 -1.268011,1.422223 -0.257019,0.685413 -0.239887,1.902013 0.05137,2.604558 0.496922,1.182336 2.141908,1.662118 3.10148,0.908169 l 0.479782,-0.376975 -0.102808,0.668273 c -0.05137,0.359844 -0.222763,0.77109 -0.342702,0.891038 -0.325571,0.342702 -1.268012,0.32557 -1.627854,0 -0.171352,-0.171352 -0.59973,-0.2913 -0.942441,-0.2913 -0.753948,0 -0.856756,0.411246 -0.239895,0.99384 0.805361,0.753949 2.741646,0.822493 3.804034,0.137079 0.61687,-0.394102 0.771081,-1.268006 0.771081,-4.26667 v -2.690235 h -0.685405 c -0.599738,0 -0.685413,0.05137 -0.685413,0.376976 -0.01712,0.359842 -0.03433,0.376974 -0.239896,0.102815 -0.411246,-0.548334 -1.370818,-0.77109 -2.073364,-0.479791 z m 1.644986,1.199468 c 0.222763,0 0.668273,0.959573 0.668273,1.456495 0,0.479789 -0.274167,1.130924 -0.582598,1.319415 -0.342702,0.239894 -1.079519,0.137079 -1.353686,-0.171351 -0.873897,-0.959573 -0.188483,-3.032946 0.873904,-2.673095 0.13708,0.03424 0.308431,0.06849 0.394107,0.06849 z"
     id="path4890"
     style="stroke-width:0.0171353" />
  <path
     d="m 71.352458,92.141813 c -0.394115,0.188491 -0.839633,0.582598 -1.028124,0.891029 -0.411246,0.719685 -0.428379,2.398935 -0.03425,3.170023 0.531194,0.993844 2.278987,1.559311 3.2557,1.062389 0.548325,-0.291299 1.319414,-1.045249 1.319414,-1.302284 0,-0.325562 -1.268003,-0.291299 -1.54217,0.03433 -0.496922,0.599729 -1.88488,0.119939 -1.88488,-0.651142 0,-0.257026 0.239894,-0.291299 1.816336,-0.291299 h 1.833469 L 74.968014,94.249506 C 74.830926,93.20425 74.402548,92.518837 73.66573,92.12473 72.894642,91.713484 72.209236,91.713484 71.352471,92.14185 Z m 1.833469,1.148063 c 0.582598,0.531195 0.394106,0.736818 -0.719686,0.736818 -0.565457,0 -1.028107,-0.05137 -1.028107,-0.137088 0,-0.06849 0.119939,-0.308431 0.274159,-0.514054 0.308438,-0.445518 1.028116,-0.496922 1.473634,-0.08568 z"
     id="path4892"
     style="stroke-width:0.0171353" />
  <path
     d="m 83.004422,92.141813 c -0.394107,0.188491 -0.839625,0.582598 -1.028117,0.891029 -0.411246,0.719685 -0.428378,2.398935 -0.03424,3.170023 0.531194,0.993844 2.278987,1.559311 3.255691,1.062389 0.548326,-0.291299 1.319415,-1.045249 1.319415,-1.302284 0,-0.325562 -1.268003,-0.291299 -1.542169,0.03433 -0.496923,0.599729 -1.884873,0.119939 -1.884873,-0.651142 0,-0.257026 0.239886,-0.291299 1.816328,-0.291299 h 1.833469 L 86.619987,94.249506 C 86.482908,93.20425 86.054521,92.518837 85.317704,92.12473 84.546623,91.713484 83.86121,91.713484 83.004444,92.14185 Z m 1.833477,1.148063 c 0.582589,0.531195 0.394105,0.736818 -0.719686,0.736818 -0.565458,0 -1.028108,-0.05137 -1.028108,-0.137088 0,-0.06849 0.119939,-0.308431 0.274159,-0.514054 0.308431,-0.445518 1.028116,-0.496922 1.473635,-0.08568 z"
     id="path4894"
     style="stroke-width:0.0171353" />
  <path
     d="m 38.881151,94.626424 v 2.655961 h 0.685414 0.685409 v -2.655961 -2.655963 h -0.685409 -0.685414 z"
     id="path4990"
     style="stroke-width:0.0171353" />
  <path
     d="m 64.412681,94.009554 c 0,1.130932 0.06849,2.244723 0.171343,2.50175 0.35985,0.942433 2.0391,1.130924 2.930128,0.325571 0.30844,-0.274167 0.325571,-0.274167 0.325571,0.06849 0,0.325571 0.102815,0.376975 0.685414,0.376975 h 0.685405 v -2.655962 -2.655961 h -0.771081 -0.771089 v 1.850608 c 0,1.593574 -0.05137,1.902013 -0.308431,2.1419 -0.359842,0.325571 -0.771089,0.359843 -1.250871,0.119948 -0.291307,-0.171352 -0.325571,-0.376975 -0.325571,-2.1419 v -1.970556 h -0.685413 -0.685405 z"
     id="path4992"
     style="stroke-width:0.0171353" />
  <path
     d="m 76.064652,94.009554 c 0,1.130932 0.06849,2.244723 0.171343,2.50175 0.359843,0.942433 2.039101,1.130924 2.930129,0.325571 0.308439,-0.274167 0.32557,-0.274167 0.32557,0.06849 0,0.325571 0.102817,0.376975 0.685414,0.376975 h 0.685414 v -2.655962 -2.655961 h -0.771089 -0.77109 v 1.850608 c 0,1.593574 -0.05137,1.902013 -0.308439,2.1419 -0.359834,0.325571 -0.77108,0.359843 -1.250862,0.119948 -0.291307,-0.171352 -0.325571,-0.376975 -0.325571,-2.1419 v -1.970556 h -0.685414 -0.685405 z"
     id="path4994"
     style="stroke-width:0.0171353" />
</svg>
