<?xml version="1.0" encoding="UTF-8" standalone="no"?>
<!-- Created with Inkscape (http://www.inkscape.org/) -->

<svg
   width="100mm"
   height="100mm"
   viewBox="0 0 100 100"
   version="1.1"
   id="svg26768"
   sodipodi:docname="people.svg"
   inkscape:version="1.1.1 (3bf5ae0d25, 2021-09-20)"
   xmlns:inkscape="http://www.inkscape.org/namespaces/inkscape"
   xmlns:sodipodi="http://sodipodi.sourceforge.net/DTD/sodipodi-0.dtd"
   xmlns="http://www.w3.org/2000/svg"
   xmlns:svg="http://www.w3.org/2000/svg">
  <sodipodi:namedview
     id="namedview26770"
     pagecolor="#ffffff"
     bordercolor="#666666"
     borderopacity="1.0"
     inkscape:pageshadow="2"
     inkscape:pageopacity="0.0"
     inkscape:pagecheckerboard="0"
     inkscape:document-units="mm"
     showgrid="false"
     width="209mm"
     inkscape:zoom="0.7500982"
     inkscape:cx="13.998167"
     inkscape:cy="241.96832"
     inkscape:window-width="1920"
     inkscape:window-height="1027"
     inkscape:window-x="1912"
     inkscape:window-y="-8"
     inkscape:window-maximized="1"
     inkscape:current-layer="layer1" />
  <defs
     id="defs26765" />
  <g
     inkscape:label="Layer 1"
     inkscape:groupmode="layer"
     id="layer1">
    <path
       d="m 18.088322,13.350145 c -0.179236,0.08962 -1.321877,0.851379 -2.531729,1.725161 -1.613138,1.14264 -2.397302,1.881995 -2.979824,2.755777 -0.71695,1.142639 -0.761759,1.366686 -0.896188,3.763988 -0.112023,1.680352 -0.06721,3.024633 0.134429,4.032844 0.224047,1.232258 0.224047,1.613137 0,2.061231 -0.246452,0.448094 -0.246452,0.828973 0.06721,2.285281 0.403284,1.837179 0.896187,2.710966 1.702756,3.069439 0.33607,0.13443 0.806569,0.85138 1.344281,2.016421 1.837184,3.92082 5.063459,6.071672 7.931262,5.287509 2.10604,-0.604926 4.279292,-2.979827 5.332315,-5.870029 0.268854,-0.716951 0.604926,-1.321877 0.761756,-1.321877 1.075429,0 2.464519,-4.010438 1.926804,-5.511553 -0.179236,-0.515308 -0.201642,-0.985806 -0.04477,-1.680352 0.134424,-0.537712 0.246448,-1.725161 0.246448,-2.621349 0,-1.030615 0.112024,-1.814779 0.336072,-2.128445 0.448091,-0.694545 0.134431,-1.859589 -0.87378,-3.405512 -0.918593,-1.344282 -2.061234,-2.352492 -2.755779,-2.352492 -0.224048,0 -0.716951,-0.313666 -1.097829,-0.694546 -0.358478,-0.38088 -0.963405,-0.851378 -1.366689,-1.008211 -0.739351,-0.313666 -6.631786,-0.649736 -7.236713,-0.403285 z m 4.749795,1.837185 c 1.590731,0.156833 1.814779,0.224047 2.576536,0.985807 0.470503,0.448093 1.165047,0.896187 1.523519,0.985806 0.784169,0.179237 1.613138,0.873782 1.994022,1.657947 0.448091,0.918592 0.336067,6.362931 -0.156836,7.774426 -0.380878,1.120235 -0.403284,1.209853 -0.02242,1.814779 0.560121,0.985805 0.201643,2.352495 -0.672138,2.509325 -0.582521,0.112024 -0.716951,0.313666 -1.344283,2.128446 -1.433896,4.077655 -3.65196,6.094077 -6.049266,5.466745 -0.649733,-0.179236 -1.299471,-0.627333 -2.26287,-1.613138 -1.120235,-1.165041 -1.501113,-1.769967 -2.262876,-3.629559 -0.806568,-1.97161 -0.963401,-2.24047 -1.501114,-2.307682 -0.470498,-0.06721 -0.649736,-0.246455 -0.828973,-0.896187 -0.291261,-1.075429 -0.291261,-1.165047 0.134428,-1.635544 0.313666,-0.358475 0.313666,-0.560117 -0.134428,-2.374897 -0.492903,-1.904399 -0.515308,-3.091847 -0.156833,-6.026861 0.156833,-1.187449 1.4339,-2.486921 4.324106,-4.458534 0.896186,-0.604926 1.613137,-0.67214 4.839412,-0.380879 z"
       id="path4725"
       style="stroke-width:0.0224047" />
    <path
       d="m 45.534066,13.641406 c -0.492903,0.224047 -1.94921,1.209854 -3.226275,2.173255 -2.890203,2.19566 -4.032844,3.786393 -4.256892,5.982052 -0.246448,2.53173 -0.112025,6.676594 0.29126,7.886447 0.224048,0.739357 0.26886,1.142641 0.112024,1.20986 -0.604927,0.201642 -0.672138,1.232253 -0.201642,3.271081 0.560121,2.486918 1.097829,3.427917 2.038828,3.629559 0.515308,0.08962 0.761756,0.313666 0.940999,0.828975 1.209853,3.495129 3.719177,6.699004 6.161289,7.908857 1.68035,0.828969 3.898414,0.873781 5.444339,0.112018 2.330089,-1.142635 4.480934,-3.831202 5.578763,-6.923046 0.448097,-1.23226 0.739357,-1.769968 1.030617,-1.81478 0.784163,-0.15683 1.433902,-1.008211 1.881998,-2.464518 0.694545,-2.195658 0.806569,-3.763984 0.358472,-4.279292 -0.336072,-0.380878 -0.336072,-0.515309 -0.02242,-1.837186 0.179236,-0.784162 0.336072,-2.464515 0.336072,-3.696773 0,-1.81478 0.06721,-2.330088 0.358472,-2.576539 0.649739,-0.537713 0.29126,-2.195659 -0.873781,-3.943225 -1.232257,-1.904399 -2.128443,-2.688563 -3.450321,-3.047038 -0.627332,-0.156833 -1.165041,-0.492904 -1.433901,-0.873783 -0.806569,-1.120235 -1.769968,-1.523519 -4.279292,-1.747566 -3.719177,-0.33607 -5.758005,-0.268856 -6.788622,0.201642 z m 6.138883,1.635543 2.598942,0.246451 0.963405,0.985806 c 0.649739,0.649737 1.277066,1.053021 1.926804,1.209854 1.030617,0.246451 1.94921,1.075425 2.778179,2.464515 0.26886,0.448095 0.403284,0.873784 0.313666,0.963402 -0.08962,0.08962 -0.15683,1.792375 -0.15683,3.786393 -0.02242,3.114251 -0.08962,3.831204 -0.515309,5.085863 -0.42569,1.299471 -0.448096,1.501113 -0.13443,1.94921 0.179236,0.29126 0.403285,0.515308 0.515309,0.515308 0.201642,0 0.112024,0.492903 -0.425691,2.486918 -0.201642,0.716951 -0.29126,0.784163 -0.851374,0.694545 -0.806569,-0.112024 -0.940999,0.08962 -1.680356,2.442112 -1.389089,4.368916 -4.055243,7.236713 -6.766216,7.236713 -2.218064,0 -4.772194,-2.038822 -6.161284,-4.906625 -0.358478,-0.739356 -0.963405,-2.128446 -1.366689,-3.091844 -0.672139,-1.702762 -0.739357,-1.769974 -1.366683,-1.680356 -0.761763,0.112024 -0.918593,-0.08962 -1.277072,-1.81478 -0.246448,-1.120235 -0.224048,-1.254659 0.201643,-1.635543 0.537714,-0.492903 0.56012,-0.940993 0.13443,-2.128446 -0.694545,-1.97161 -0.873781,-4.167269 -0.582521,-6.766213 0.358473,-3.181466 0.828969,-3.920821 3.62956,-6.026861 3.405511,-2.53173 3.360699,-2.509325 8.222517,-2.016422 z"
       id="path4727"
       style="stroke-width:0.0224047" />
    <path
       d="m 74.839397,13.41736 c -0.26886,0.134428 -1.41149,0.896187 -2.55413,1.747565 -1.4115,1.053021 -2.26288,1.859589 -2.80059,2.710968 -0.73935,1.142639 -0.78416,1.299471 -0.91859,3.92082 -0.0896,1.747566 -0.0448,3.159061 0.13443,3.943225 0.20164,0.918593 0.20164,1.366686 0,1.926804 -0.56012,1.501116 0.85137,5.489148 1.9268,5.489148 0.17924,0 0.71695,0.851381 1.20985,1.904397 1.47871,3.181469 3.71918,5.108273 6.25091,5.421933 2.66616,0.313667 5.64599,-2.26287 7.03507,-6.049265 0.24645,-0.694545 0.58252,-1.277065 0.73935,-1.277065 1.07543,0 2.46452,-4.010438 1.92681,-5.511553 -0.17924,-0.515308 -0.20164,-0.985806 -0.0448,-1.680352 0.13443,-0.537712 0.24645,-1.725161 0.24645,-2.621349 0,-1.030615 0.11203,-1.814779 0.33607,-2.128445 0.4481,-0.694545 0.13444,-1.859589 -0.87378,-3.383108 -0.91859,-1.366686 -1.72516,-2.10604 -2.57654,-2.285278 -0.31366,-0.08962 -0.94099,-0.470499 -1.36668,-0.896187 -0.42569,-0.403285 -1.07543,-0.851379 -1.4115,-0.963402 -0.85138,-0.336071 -6.63179,-0.537713 -7.25911,-0.268856 z m 4.90663,1.76997 c 1.59073,0.156833 1.81478,0.224047 2.57654,0.985807 0.4705,0.448093 1.16504,0.896187 1.52351,0.985806 0.71695,0.156832 1.56833,0.828973 1.94921,1.523518 0.13443,0.224047 0.26886,1.590733 0.31367,3.024633 0.0896,2.128446 0.0224,2.935014 -0.33607,4.368914 -0.42569,1.635543 -0.44809,1.792376 -0.11203,2.374899 0.56012,0.940993 0.17925,2.307683 -0.67214,2.464513 -0.56011,0.08962 -0.69454,0.313666 -1.36668,2.150852 -1.12023,3.136657 -2.57654,4.951436 -4.39132,5.466745 -1.27707,0.380878 -2.3973,-0.08962 -3.89841,-1.635544 -1.14265,-1.165041 -1.50112,-1.747568 -2.26288,-3.629559 -0.82898,-2.038828 -0.9634,-2.24047 -1.56833,-2.352494 -0.56012,-0.08962 -0.67214,-0.246448 -0.85138,-1.075423 -0.15683,-0.784163 -0.13442,-1.030617 0.17924,-1.36669 0.38088,-0.403281 0.38088,-0.537709 -0.0896,-2.419703 -0.42568,-1.613138 -0.47049,-2.307683 -0.35847,-3.876011 0.17924,-2.442111 0.17924,-2.442111 0.64973,-3.293489 0.33607,-0.627332 3.02463,-2.867801 4.30171,-3.607155 0.4929,-0.291261 1.85958,-0.313666 4.41372,-0.08962 z"
       id="path4729"
       style="stroke-width:0.0224047" />
    <path
       d="m 14.055479,39.74287 c -0.42569,0.29126 -2.755777,1.433901 -5.1530788,2.576536 -4.548152,2.128446 -5.668386,2.912609 -6.519764,4.548152 -0.582522,1.165047 -0.963402,3.651966 -0.71695,4.884225 0.246451,1.232259 0.918592,1.680349 4.324105,2.778178 4.3689138,1.433902 9.3651588,2.150852 14.7870918,2.150852 3.069445,0 3.091851,0 3.226275,-0.537714 0.06722,-0.291261 0.201642,-0.694545 0.26886,-0.896187 0.112024,-0.313666 -0.201642,-0.358472 -2.778185,-0.358472 -6.36293,0 -13.8909048,-1.299471 -17.0947748,-2.935015 -0.851378,-0.42569 -0.873783,-0.448097 -0.873783,-1.725162 0,-1.523519 0.537713,-2.800584 1.590733,-3.763989 0.448094,-0.403285 2.688562,-1.613138 5.2426968,-2.800585 5.01865,-2.352494 5.870025,-2.935014 5.623577,-3.853607 -0.179238,-0.761757 -0.828974,-0.784163 -1.926803,-0.06721 z"
       id="path4751"
       style="stroke-width:0.0224047" />
    <path
       d="m 27.587911,39.787676 c -0.112024,0.42569 -0.02242,0.694544 0.313666,1.030617 0.246449,0.268854 2.598943,1.568331 5.242697,2.890209 l 4.772201,2.442105 0.851374,-0.380878 c 0.448097,-0.201642 0.828975,-0.42569 0.828975,-0.492902 0,-0.29126 -1.994016,-1.433902 -5.153079,-2.957421 -1.792373,-0.873781 -3.808795,-1.926804 -4.50334,-2.352488 -1.545925,-0.940999 -2.150852,-0.985811 -2.352494,-0.179242 z"
       id="path4753"
       style="stroke-width:0.0224047" />
    <path
       d="m 70.963387,39.74287 c -0.42569,0.268854 -2.68856,1.411495 -5.018649,2.486918 -2.330088,1.097829 -4.436128,2.150852 -4.682582,2.352494 -0.425691,0.358472 -0.425691,0.380878 0.380878,0.851375 l 0.828975,0.492909 4.749798,-2.240471 c 5.13067,-2.419706 5.91484,-2.95742 5.66838,-3.898419 -0.17923,-0.739351 -0.85138,-0.761757 -1.9268,-0.04477 z"
       id="path4755"
       style="stroke-width:0.0224047" />
    <path
       d="m 84.495817,39.765276 c -0.0896,0.403284 -0.0224,0.716944 0.26886,1.030611 0.22404,0.246454 2.50932,1.501119 5.06346,2.80059 2.55413,1.277065 4.99625,2.643749 5.42193,3.024633 1.00821,0.873781 1.52352,2.240464 1.4339,3.786389 l -0.0672,1.23226 -1.47871,0.604926 c -3.58475,1.501114 -8.62581,2.374894 -14.71988,2.576536 -3.45032,0.112025 -4.07765,0.179243 -3.96563,0.448097 0.0672,0.179236 0.17924,0.58252 0.24645,0.896187 l 0.15684,0.58252 4.27929,-0.134424 c 4.59296,-0.13443 8.37935,-0.672145 11.76246,-1.635543 2.35249,-0.694545 5.06346,-1.792374 5.42193,-2.24047 0.40329,-0.492903 0.33608,-3.584747 -0.11202,-4.973843 -0.67214,-1.994016 -1.9044,-2.979821 -6.54217,-5.265097 -2.19566,-1.097835 -4.48094,-2.285282 -5.08586,-2.643754 -1.32188,-0.806569 -1.9044,-0.828975 -2.08364,-0.08962 z"
       id="path4757"
       style="stroke-width:0.0224047" />
    <path
       d="m 41.277174,46.48668 c -0.358473,0.29126 -2.419707,1.366683 -4.592958,2.374894 -8.491378,3.965632 -9.297947,4.503346 -10.575012,7.079882 -0.627333,1.299472 -0.716951,1.702756 -0.806569,3.89842 -0.06722,1.81478 -0.02242,2.531731 0.201642,2.800585 1.030611,1.254659 7.303925,3.315893 12.748264,4.21208 7.079882,1.165047 17.072374,1.165047 24.197062,0 5.421944,-0.873781 11.717654,-2.957421 12.748274,-4.21208 0.22404,-0.268854 0.26885,-0.985805 0.20164,-2.778185 -0.0896,-1.97161 -0.20164,-2.621348 -0.69455,-3.696771 -1.05302,-2.307682 -2.26287,-3.203869 -8.40176,-6.250908 -3.002223,-1.501113 -5.892426,-3.002227 -6.43014,-3.360705 -0.806569,-0.537708 -1.075423,-0.604927 -1.456308,-0.403285 -0.649732,0.336073 -0.58252,1.209854 0.156837,1.79238 0.336072,0.268855 3.203868,1.769968 6.340525,3.360699 3.136656,1.590732 6.138886,3.226275 6.631786,3.674372 1.29947,1.120235 1.9044,2.53173 2.06123,4.7722 l 0.11203,1.83718 -1.27707,0.56012 c -3.18147,1.411496 -8.356951,2.688561 -13.353193,3.315893 -1.433901,0.179236 -4.839412,0.291261 -8.737832,0.291261 -3.898414,0 -7.303925,-0.112025 -8.737826,-0.291261 C 36.616997,64.836119 31.441519,63.559054 28.26005,62.147558 l -1.277065,-0.56012 0.112024,-1.83718 c 0.15683,-2.24047 0.515308,-3.181469 1.837185,-4.592964 0.851375,-0.918593 1.590732,-1.366683 4.346511,-2.621349 5.870023,-2.710966 8.939468,-4.324103 9.43237,-4.951436 0.42569,-0.537715 0.448097,-0.672139 0.15683,-1.075423 -0.425684,-0.649739 -0.806569,-0.649739 -1.590731,-0.02242 z"
       id="path4765"
       style="stroke-width:0.0224047" />
    <path
       d="m 29.738763,90.287844 v 4.704982 h 0.896187 0.896187 v -1.68035 -1.680349 h 1.523519 c 1.859586,0 2.912609,-0.470503 3.450323,-1.568332 0.784163,-1.545919 0.246448,-3.383105 -1.165047,-4.077649 -0.604926,-0.313667 -1.344283,-0.403285 -3.181463,-0.403285 h -2.419706 z m 4.7946,-2.710967 c 0.448097,0.380878 0.470497,1.366683 0.04484,1.926804 -0.246454,0.336066 -0.604926,0.42569 -1.613137,0.44809 h -1.321878 l -0.06722,-1.097829 c -0.112024,-1.657943 0,-1.769967 1.411495,-1.657943 0.649739,0.06721 1.36669,0.224042 1.545926,0.380878 z"
       id="path4805"
       style="stroke-width:0.0224047" />
    <path
       d="m 61.329374,90.287844 v 4.704982 h 0.896187 0.896187 v -4.704982 -4.704983 h -0.896187 -0.896187 z"
       id="path4807"
       style="stroke-width:0.0224047" />
    <path
       d="m 39.4848,88.271422 c -0.515308,0.246454 -1.097829,0.761756 -1.344283,1.165041 -0.537709,0.940999 -0.560115,3.136657 -0.04477,4.144867 0.694544,1.299472 2.97982,2.038828 4.256892,1.389096 0.716944,-0.380885 1.725161,-1.366689 1.725161,-1.702762 0,-0.425684 -1.65795,-0.380878 -2.016428,0.04484 -0.649732,0.784162 -2.464512,0.15683 -2.464512,-0.851381 0,-0.336066 0.313666,-0.380878 2.374894,-0.380878 h 2.397306 l -0.156836,-1.053017 c -0.179236,-1.36669 -0.739357,-2.262876 -1.702755,-2.778185 -1.008211,-0.537708 -1.904398,-0.537708 -3.024633,0.02242 z m 2.3973,1.501113 c 0.761763,0.694545 0.515309,0.963405 -0.940992,0.963405 -0.739357,0 -1.344284,-0.06722 -1.344284,-0.179242 0,-0.08962 0.15683,-0.403285 0.358472,-0.672139 0.403285,-0.58252 1.344284,-0.649739 1.926804,-0.112024 z"
       id="path4903"
       style="stroke-width:0.0224047" />
    <path
       d="m 46.766325,88.20421 c -0.963405,0.492902 -1.792374,2.038821 -1.792374,3.315893 0,0.492902 0.224042,1.366683 0.515309,1.904397 0.649732,1.321878 1.635537,1.837186 3.248674,1.725162 2.038828,-0.156836 3.248681,-1.501113 3.248681,-3.629559 0,-2.128446 -1.209853,-3.47273 -3.248681,-3.62956 -0.851374,-0.06722 -1.411495,0.02242 -1.971609,0.313667 z m 2.890202,1.769967 c 1.075429,1.36669 0.313667,3.674372 -1.209853,3.674372 -0.828975,0 -1.165041,-0.313667 -1.456301,-1.36669 -0.26886,-0.896186 0.06721,-2.330088 0.627326,-2.643754 0.716951,-0.425684 1.545926,-0.268854 2.038828,0.336072 z"
       id="path4905"
       style="stroke-width:0.0224047" />
    <path
       d="m 56.400337,88.06978 c -0.29126,0.112024 -0.73935,0.380878 -0.940992,0.58252 -0.380885,0.336072 -0.403285,0.336072 -0.403285,-0.112024 0,-0.403285 -0.13443,-0.492903 -0.784169,-0.492903 h -0.784162 v 4.817007 4.817012 h 0.896187 0.896193 v -1.725161 c 0,-1.65795 0.02242,-1.702756 0.425684,-1.321877 1.053023,0.963398 3.091851,0.470496 3.89842,-0.918593 0.537708,-0.940999 0.58252,-3.293487 0.06721,-4.279298 -0.627333,-1.232253 -2.128446,-1.83718 -3.271088,-1.366683 z m 1.411496,2.038827 c 0.896193,1.030617 0.156836,3.539942 -1.053017,3.539942 -1.277065,0 -1.994016,-1.456308 -1.478707,-3.024633 0.425684,-1.254665 1.657943,-1.523519 2.531724,-0.515309 z"
       id="path4907"
       style="stroke-width:0.0224047" />
    <path
       d="m 66.370427,88.271422 c -0.515307,0.246454 -1.097833,0.761756 -1.344282,1.165041 -0.537714,0.940999 -0.56012,3.136657 -0.04484,4.144867 0.694544,1.299472 2.979832,2.038828 4.256892,1.389096 0.71695,-0.380885 1.72516,-1.366689 1.72516,-1.702762 0,-0.425684 -1.65794,-0.380878 -2.01642,0.04484 -0.64973,0.784162 -2.46452,0.15683 -2.46452,-0.851381 0,-0.336066 0.31367,-0.380878 2.3749,-0.380878 h 2.3973 l -0.15683,-1.053017 c -0.17923,-1.36669 -0.73935,-2.262876 -1.70275,-2.778185 -1.00821,-0.537708 -1.9044,-0.537708 -3.02463,0.02242 z m 2.3973,1.501113 c 0.76176,0.694545 0.51531,0.963405 -0.941,0.963405 -0.73935,0 -1.34428,-0.06722 -1.34428,-0.179242 0,-0.08962 0.15684,-0.403285 0.35848,-0.672139 0.40328,-0.58252 1.34428,-0.649739 1.9268,-0.112024 z"
       id="path4909"
       style="stroke-width:0.0224047" />
  </g>
</svg>
