<?xml version="1.0" encoding="UTF-8" standalone="no"?>
<!-- Created with Inkscape (http://www.inkscape.org/) -->

<svg
   width="100mm"
   height="100mm"
   viewBox="0 0 100 100"
   version="1.1"
   id="svg26768"
   sodipodi:docname="person.svg"
   inkscape:version="1.1.1 (3bf5ae0d25, 2021-09-20)"
   xmlns:inkscape="http://www.inkscape.org/namespaces/inkscape"
   xmlns:sodipodi="http://sodipodi.sourceforge.net/DTD/sodipodi-0.dtd"
   xmlns="http://www.w3.org/2000/svg"
   xmlns:svg="http://www.w3.org/2000/svg">
  <sodipodi:namedview
     id="namedview26770"
     pagecolor="#ffffff"
     bordercolor="#666666"
     borderopacity="1.0"
     inkscape:pageshadow="2"
     inkscape:pageopacity="0.0"
     inkscape:pagecheckerboard="0"
     inkscape:document-units="mm"
     showgrid="false"
     width="209mm"
     inkscape:zoom="0.7500982"
     inkscape:cx="13.998167"
     inkscape:cy="241.96832"
     inkscape:window-width="1920"
     inkscape:window-height="1027"
     inkscape:window-x="1912"
     inkscape:window-y="-8"
     inkscape:window-maximized="1"
     inkscape:current-layer="layer1" />
  <defs
     id="defs26765" />
  <g
     inkscape:label="Layer 1"
     inkscape:groupmode="layer"
     id="layer1">
    <path
       d="M 44.696247,1.3828926 C 43.400908,1.7110453 41.12111,3.1963677 36.406076,6.823318 36.112465,7.0478432 35.317991,8.1013858 34.627143,9.1894712 33.556329,10.864775 33.383618,11.244742 33.383618,11.93559 c 0,0.431779 -0.120899,1.623491 -0.259068,2.677035 -0.449052,3.419695 -0.259069,6.511237 0.604491,9.723678 l 0.345424,1.260798 -0.518136,0.43178 c -0.673576,0.56995 -0.673576,1.295339 -0.06909,4.024186 0.587221,2.590679 1.00173,3.678765 1.692578,4.421425 0.466322,0.483594 0.708119,0.604492 1.260796,0.604492 0.656305,0 0.673577,0.01728 0.984459,0.898102 1.260797,3.575135 2.072542,5.388611 3.074271,6.787577 1.74439,2.45251 3.903289,4.265985 6.183087,5.198628 1.502593,0.621763 3.955101,0.759933 5.457695,0.328154 1.727119,-0.500865 2.987915,-1.278068 4.576865,-2.849747 2.659764,-2.625222 3.92056,-4.974103 5.146814,-9.637324 0.189984,-0.690848 0.241797,-0.72539 0.829017,-0.72539 1.260798,0 2.107086,-1.468051 2.936103,-5.095001 0.604491,-2.677034 0.58722,-3.298797 -0.08636,-3.903289 l -0.535407,-0.483593 0.414509,-1.640764 c 0.639034,-2.504322 0.829018,-4.404152 0.72539,-6.960288 l -0.08636,-2.262527 0.414508,-0.103627 c 0.259068,-0.06908 0.449051,-0.276339 0.518136,-0.552678 0.172712,-0.708118 -0.259068,-2.763391 -0.72539,-3.385152 C 65.698011,9.8975893 65.38713,9.4312676 64.506299,8.0841147 64.074519,7.4278092 63.349129,6.598792 62.882806,6.218826 62.088333,5.5970637 60.689365,5.0271139 59.929433,5.0271139 c -0.189983,0 -0.898101,-0.5872208 -1.658034,-1.3644238 C 57.166042,2.5055202 56.803349,2.2637231 56.026144,2.0219268 55.508009,1.866486 54.730805,1.7455882 54.299025,1.7455882 c -0.431779,0 -1.796203,-0.1208985 -3.039729,-0.2590681 C 48.910415,1.2274519 45.577075,1.1756385 44.696244,1.3828926 Z m 6.217629,2.17617 c 1.139897,0.1381696 2.521593,0.2590682 3.074271,0.2590682 1.381695,0 1.986186,0.3108808 3.039729,1.5198647 1.157169,1.3298817 1.519865,1.5544069 2.746119,1.7789321 1.364424,0.2417972 2.158899,0.8462883 3.143357,2.383424 0.449051,0.7253904 1.036271,1.5544074 1.278068,1.8480174 0.500864,0.621763 0.552678,0.759933 0.224526,0.759933 -0.13817,0 -0.379967,0.15544 -0.552679,0.345423 -0.27634,0.310882 -0.29361,0.431781 -0.06909,1.761662 0.13817,0.794474 0.241796,2.573408 0.224526,4.024187 0,2.728848 -0.172713,3.868747 -1.036272,6.68395 -0.44905,1.433509 -0.44905,1.519865 -0.172712,1.951645 0.155442,0.241797 0.483594,0.518135 0.72539,0.604491 0.224526,0.08636 0.414509,0.207255 0.414509,0.259068 0,0.379967 -0.794474,3.62695 -1.070814,4.369611 l -0.345423,0.898101 -0.43178,-0.345423 C 61.052062,31.832 60.706637,32.246509 59.72218,35.683475 c -0.43178,1.519865 -1.105356,3.402424 -1.468052,4.179628 -0.777203,1.58895 -2.297068,3.592407 -3.557864,4.680493 -2.072543,1.796204 -4.542323,2.366153 -6.856662,1.60622 -2.694308,-0.898101 -5.630411,-3.834204 -6.94302,-6.943018 -0.259068,-0.604491 -0.898103,-2.262525 -1.398967,-3.678763 -1.174441,-3.281526 -1.519865,-3.661492 -2.538866,-2.867018 l -0.431778,0.345423 -0.259069,-0.656304 c -0.224526,-0.56995 -0.759932,-2.642492 -1.070814,-4.127814 -0.103627,-0.500865 -0.05181,-0.58722 0.328152,-0.742662 0.241798,-0.08636 0.56995,-0.362694 0.725391,-0.604491 0.27634,-0.414509 0.259068,-0.518136 -0.241798,-2.297068 -0.293609,-1.019001 -0.639033,-2.31434 -0.759931,-2.884289 -0.310881,-1.485322 -0.259068,-6.217629 0.08636,-7.84112 0.155441,-0.708119 0.241798,-1.45078 0.189983,-1.658035 -0.138168,-0.569949 1.72712,-3.4715081 2.677036,-4.1278134 0.414508,-0.2936107 1.830746,-1.3471531 3.160628,-2.331611 1.329881,-0.984458 2.76339,-1.9343737 3.212441,-2.1070848 1.03627,-0.3972378 3.488779,-0.4317801 6.338527,-0.069088 z"
       id="path4657"
       style="stroke-width:0.0172712" />
    <path
       d="m 37.148736,46.978833 c -0.967186,0.829018 -1.89983,1.347153 -8.86012,4.905019 -3.696035,1.899831 -7.167544,3.713306 -7.68568,4.058729 -0.518135,0.328153 -1.46805,1.122627 -2.089813,1.761662 -1.381696,1.398966 -2.435238,3.402424 -2.849747,5.354069 -0.31088,1.468051 -0.379965,5.682221 -0.103626,6.407611 0.483592,1.260797 8.048374,4.024186 14.54234,5.319528 5.215901,1.036268 9.499155,1.502591 15.682242,1.727115 14.214188,0.518139 27.841158,-1.606219 36.304039,-5.647677 2.245254,-1.053542 2.158903,-0.898101 2.158903,-4.50778 -0.01728,-2.884289 -0.03456,-3.108814 -0.500868,-4.421425 -0.777203,-2.227984 -1.675303,-3.48878 -3.523323,-4.991374 -1.31261,-1.053542 -2.556135,-1.761661 -8.497424,-4.853203 -5.526781,-2.867018 -7.772036,-4.127816 -8.86012,-4.939561 -1.00173,-0.759933 -1.347154,-0.829017 -1.848019,-0.328153 -0.414507,0.414509 -0.44905,0.984458 -0.08636,1.502593 0.379966,0.535407 2.711577,1.951645 6.82212,4.110544 10.984476,5.785848 10.656324,5.595865 12.124375,7.133001 1.744391,1.813476 2.279796,3.385153 2.279796,6.649408 0.01728,1.778933 -0.03456,2.227985 -0.241795,2.366153 -0.138169,0.08636 -1.191713,0.552678 -2.331611,1.019001 -5.233171,2.158895 -11.882579,3.644218 -19.948224,4.455967 -2.31434,0.224525 -4.594137,0.29361 -9.758222,0.29361 -7.063917,0 -9.930934,-0.172714 -15.112292,-0.949917 -6.183085,-0.932645 -13.07429,-2.849746 -16.597612,-4.66322 L 17.494123,68.41238 v -1.778932 c 0.01727,-3.523323 0.898102,-5.889475 2.936102,-7.772036 1.260796,-1.17444 3.022458,-2.17617 9.810036,-5.544051 7.150273,-3.575137 8.842849,-4.697764 8.842849,-5.889476 0,-0.362696 -0.621763,-0.949916 -1.036271,-0.949916 -0.172712,0 -0.587221,0.224526 -0.898103,0.500864 z"
       id="path4749"
       style="stroke-width:0.0172712" />
    <path
       d="m 33.556329,93.973741 v 3.626953 h 0.690848 0.690848 v -1.295345 -1.295333 h 1.17444 c 1.433509,0 2.245255,-0.362698 2.659764,-1.208985 0.604492,-1.19171 0.189982,-2.607951 -0.898102,-3.14336 -0.466322,-0.24179 -1.036272,-0.310878 -2.45251,-0.310878 h -1.865288 z m 3.696035,-2.089816 c 0.345424,0.29361 0.362694,1.053542 0.03454,1.485328 -0.189983,0.259058 -0.466322,0.328154 -1.243525,0.345422 H 35.02438 l -0.05181,-0.846288 c -0.08636,-1.278065 0,-1.364428 1.088085,-1.278065 0.500865,0.05184 1.053544,0.172703 1.191713,0.293603 z"
       id="path4809"
       style="stroke-width:0.0172712" />
    <path
       d="m 41.069296,92.419334 c -0.397237,0.189987 -0.846287,0.58722 -1.03627,0.898099 -0.414509,0.725396 -0.431781,2.417971 -0.03454,3.195171 0.535406,1.001731 2.297067,1.571677 3.281525,1.070819 0.552677,-0.293619 1.329881,-1.053543 1.329881,-1.312618 0,-0.328146 -1.278067,-0.29361 -1.554407,0.03453 -0.500864,0.604488 -1.899831,0.1209 -1.899831,-0.656308 0,-0.259059 0.241797,-0.293603 1.830746,-0.293603 h 1.848018 L 44.71352,94.54368 c -0.13817,-1.053542 -0.56995,-1.744395 -1.31261,-2.141628 -0.777203,-0.414509 -1.468052,-0.414509 -2.331612,0.01731 z m 1.848019,1.157165 c 0.587219,0.53541 0.397236,0.742665 -0.725391,0.742665 -0.569949,0 -1.036271,-0.05184 -1.036271,-0.138167 0,-0.06908 0.120899,-0.310887 0.276339,-0.518134 0.310882,-0.449054 1.036271,-0.500873 1.485323,-0.08637 z"
       id="path4911"
       style="stroke-width:0.0172712" />
    <path
       d="m 47.770519,92.332978 c -0.310882,0.138168 -0.569949,0.328155 -0.569949,0.431786 0,0.08635 -0.06909,0.172703 -0.172713,0.172703 -0.08636,0 -0.172712,-0.155443 -0.172712,-0.345422 0,-0.276342 -0.120898,-0.345423 -0.604491,-0.345423 h -0.604491 v 2.677038 2.677034 h 0.690847 0.690847 v -1.606223 c 0,-1.848018 0.189983,-2.262528 1.122628,-2.435239 0.569949,-0.1209 0.604491,-0.155443 0.604491,-0.794468 0,-0.75994 -0.120898,-0.811752 -0.984457,-0.431786 z"
       id="path4913"
       style="stroke-width:0.0172712" />
    <path
       d="m 50.706621,92.263891 c -1.15717,0.328154 -1.658034,1.796206 -0.863559,2.521594 0.207254,0.207255 0.846288,0.500866 1.416237,0.656309 0.569949,0.172711 1.15717,0.41451 1.295338,0.552677 0.224527,0.224522 0.224527,0.276334 -0.06909,0.500865 -0.500865,0.36269 -1.105356,0.29361 -1.58895,-0.189987 -0.535406,-0.552677 -1.623491,-0.621756 -1.623491,-0.103623 0,0.500865 0.639034,1.174441 1.329882,1.416229 0.362695,0.120909 1.019,0.155442 1.58895,0.103638 0.794473,-0.08641 1.053541,-0.18999 1.450779,-0.639036 1.019,-1.139898 0.362695,-2.348884 -1.519864,-2.780662 -1.15717,-0.259066 -1.519865,-0.604488 -1.036273,-0.967186 0.397238,-0.276343 1.105358,-0.172719 1.398967,0.224523 0.241796,0.310878 1.45078,0.328154 1.45078,0.01731 0,-0.397241 -0.552679,-1.018998 -1.139899,-1.260796 -0.639034,-0.276343 -1.278068,-0.293611 -2.089814,-0.05184 z"
       id="path4915"
       style="stroke-width:0.0172712" />
    <path
       d="m 56.354299,92.367522 c -0.742661,0.379966 -1.381695,1.571676 -1.381695,2.556138 0,0.379966 0.172713,1.053535 0.397238,1.468045 0.500864,1.019006 1.260797,1.416244 2.504322,1.329888 1.571679,-0.120899 2.504322,-1.157169 2.504322,-2.797933 0,-1.640763 -0.932643,-2.677038 -2.504322,-2.797936 -0.656305,-0.05184 -1.088085,0.01731 -1.519865,0.241798 z m 2.227984,1.364421 c 0.829017,1.053542 0.241796,2.832481 -0.932644,2.832481 -0.639034,0 -0.898102,-0.241799 -1.122627,-1.053551 -0.207254,-0.690844 0.05181,-1.796198 0.483593,-2.037996 0.552678,-0.328156 1.191712,-0.207256 1.571678,0.259066 z"
       id="path4917"
       style="stroke-width:0.0172712" />
    <path
       d="m 63.400945,92.38479 c -0.518136,0.276343 -0.656305,0.29361 -0.656305,0.103631 0,-0.172718 -0.207254,-0.241799 -0.690848,-0.241799 h -0.690847 v 2.677038 2.677034 h 0.690847 0.690848 v -1.813478 c 0,-1.606219 0.03454,-1.848018 0.362695,-2.176164 0.466322,-0.466331 1.208984,-0.379966 1.485323,0.189979 0.138168,0.259066 0.224524,1.105354 0.224524,2.107084 v 1.692579 h 0.690848 0.690848 V 95.52815 c 0,-1.122631 -0.08636,-2.245253 -0.189983,-2.469784 -0.397237,-0.863555 -1.623492,-1.174441 -2.60795,-0.673576 z"
       id="path4919"
       style="stroke-width:0.0172712" />
  </g>
</svg>
