<?xml version="1.0" encoding="UTF-8" standalone="no"?>
<!-- Created with Inkscape (http://www.inkscape.org/) -->

<svg
   width="100mm"
   height="100mm"
   viewBox="0 0 100 100"
   version="1.1"
   id="svg26768"
   xmlns="http://www.w3.org/2000/svg"
   xmlns:svg="http://www.w3.org/2000/svg">
  <defs
     id="defs26765" />
  <path
     d="M 45.17153,1.3469934 C 34.108538,3.1465209 24.804173,9.5879963 19.242005,19.342247 c -1.758628,3.067367 -3.312764,7.443487 -4.048933,11.410628 -0.429432,2.372097 -0.49078,9.099874 -0.102248,11.390176 1.492788,8.465949 5.296331,15.520909 11.431077,21.103524 4.907797,4.498819 11.369728,7.607088 18.158845,8.752239 2.331205,0.388527 3.169621,0.449882 6.748221,0.347635 6.032507,-0.163591 9.876949,-1.104258 15.132382,-3.721743 C 76.070202,63.8805 83.022914,55.005572 85.354118,44.556052 87.214991,36.233243 86.131184,27.930885 82.184494,20.262452 81.509676,18.974161 80.344074,17.031494 79.58745,15.968138 77.931073,13.616482 74.107083,9.7106951 71.898576,8.0952107 67.338413,4.761995 62.226122,2.512596 56.847991,1.510585 54.43499,1.0607031 47.523177,0.95845582 45.171528,1.3469934 Z M 56.704851,4.1076288 C 67.01123,6.1320921 75.62032,12.716718 80.262279,22.06198 c 1.267839,2.556151 1.983569,4.601065 2.69929,7.607088 0.613473,2.637947 0.879313,8.425056 0.490775,11.308381 -0.368087,2.699291 -1.308743,6.175646 -2.331205,8.588647 C 76.806374,59.749778 67.910983,67.009222 56.847991,69.360868 53.923763,69.994793 47.748123,70.035695 44.680749,69.463125 32.6362,67.234167 22.820606,58.727325 19.017063,47.275795 18.587631,45.967052 18.076403,44.208427 17.91281,43.349566 15.213521,30.098508 21.000631,16.295332 32.309013,8.9540817 36.726031,6.0911993 41.204394,4.4552737 46.623418,3.69865 48.852374,3.3919184 54.210053,3.5963925 56.704851,4.1076391 Z"
     id="path4672"
     style="stroke-width:0.0204492" />
  <path
     d="m 47.441384,11.448868 c -1.901769,0.613474 -3.169616,1.758634 -4.008031,3.578603 -0.470331,1.063356 -0.531676,1.370098 -0.449881,2.862883 0.06134,1.186054 0.224937,1.922226 0.552127,2.576593 0.286288,0.57258 1.942669,2.392548 4.273869,4.744206 l 3.803542,3.82399 -9.611101,0.06133 c -9.508855,0.06133 -9.59065,0.06133 -10.613109,0.531688 -2.985576,1.370086 -4.498812,4.887346 -3.476355,8.036509 0.327186,1.042903 1.002009,1.758624 11.431074,12.208144 8.261462,8.302358 11.328834,11.247036 12.085448,11.635574 1.370097,0.715721 3.496808,0.858861 4.989593,0.368086 1.411,-0.470334 3.087829,-2.024474 3.701302,-3.415012 0.695269,-1.615484 0.674818,-3.558152 -0.06133,-5.173636 -0.490775,-1.042904 -1.349635,-2.004012 -5.582615,-6.236991 -2.740184,-2.760636 -4.989593,-5.091841 -4.989593,-5.173637 0,-0.08185 4.314775,-0.14315 9.570208,-0.14315 h 9.590648 l 1.247399,-0.633915 C 72.614322,39.750488 73.984408,36.478615 73.105096,33.43169 72.777909,32.225198 72.696113,32.143403 62.819163,22.266464 55.518827,14.945665 52.635493,12.164579 51.940224,11.857847 50.938212,11.367062 48.361621,11.142126 47.441404,11.448858 Z m 3.374109,2.658398 c 1.145152,0.531678 19.385803,18.854115 19.835675,19.897018 0.57258,1.411001 0.28629,2.842432 -0.797506,4.028486 -1.186055,1.26785 -0.899764,1.247398 -12.535338,1.247398 H 46.705215 l -1.206501,-1.226947 c -1.492784,-1.513236 -2.310749,-1.635936 -2.944678,-0.470333 -0.184042,0.368086 -0.184042,0.572581 0.06135,1.022463 0.163591,0.327182 2.637938,2.903775 5.521269,5.766658 l 5.214533,5.214529 -1.002011,0.327193 c -2.044914,0.695269 -3.39456,2.065366 -4.089829,4.089829 l -0.347635,1.002012 -8.690887,-8.731789 c -6.911815,-6.93227 -8.752239,-8.895389 -8.95673,-9.529314 -0.572577,-1.758625 0.286287,-3.844432 1.94267,-4.703303 0.797516,-0.42943 1.124702,-0.42943 14.416651,-0.531678 l 13.598687,-0.102257 0.265839,-0.55213 c 0.204495,-0.449871 0.204495,-0.654365 0.02041,-1.022452 -0.388538,-0.736172 -0.552129,-0.777064 -2.944689,-0.777064 h -2.249399 l -4.641959,-4.662411 c -2.53569,-2.556141 -4.764649,-4.928249 -4.948692,-5.296324 -0.449881,-0.899764 -0.408985,-2.208517 0.102248,-3.271873 0.879311,-1.840419 3.108261,-2.597043 4.989594,-1.717721 z m 5.0714,38.342155 c 1.370086,0.57258 2.188055,1.901774 2.188055,3.517259 0,2.821979 -2.883335,4.580604 -5.480379,3.333216 -2.188055,-1.063365 -2.740183,-4.008045 -1.104257,-5.950711 0.28629,-0.347635 0.817977,-0.756625 1.165612,-0.899764 0.817968,-0.347635 2.392549,-0.368087 3.230969,0 z"
     id="path4674"
     style="stroke-width:0.0204492" />
  <path
     d="m 28.628164,93.061446 v 4.294314 h 0.817967 0.817966 v -1.533679 -1.533689 h 1.390542 c 1.697281,0 2.658391,-0.42944 3.149173,-1.431441 0.715719,-1.410989 0.224937,-3.087818 -1.063358,-3.721744 -0.552127,-0.28629 -1.22695,-0.368085 -2.90378,-0.368085 h -2.20851 z m 4.37612,-2.474356 c 0.408983,0.347635 0.429432,1.247399 0.0409,1.758635 -0.224941,0.306731 -0.552127,0.388537 -1.472338,0.408979 h -1.206503 l -0.06134,-1.002012 c -0.102247,-1.513236 0,-1.615473 1.288297,-1.513236 0.593026,0.06133 1.247399,0.204494 1.410992,0.347634 z"
     id="path4804"
     style="stroke-width:0.0204492" />
  <path
     d="m 36.19435,89.482842 c 0,0.695269 0.02046,0.715721 0.81797,0.715721 0.797515,0 0.817966,-0.02041 0.817966,-0.715721 0,-0.695279 -0.02047,-0.71572 -0.817966,-0.71572 -0.797521,0 -0.81797,0.02041 -0.81797,0.71572 z"
     id="path4806"
     style="stroke-width:0.0204492" />
  <path
     d="m 53.576129,93.061446 v 4.294314 h 0.817968 0.817968 v -4.294314 -4.294324 h -0.817968 -0.817968 z"
     id="path4808"
     style="stroke-width:0.0204492" />
  <path
     d="m 56.847991,89.482842 c 0,0.695269 0.02051,0.715721 0.817967,0.715721 0.797527,0 0.817969,-0.02041 0.817969,-0.715721 0,-0.695279 -0.02041,-0.71572 -0.817969,-0.71572 -0.797516,0 -0.817967,0.02041 -0.817967,0.71572 z"
     id="path4810"
     style="stroke-width:0.0204492" />
  <path
     d="m 42.329098,91.036972 c -0.265838,0.102258 -0.674823,0.347635 -0.858866,0.531678 -0.347633,0.306742 -0.368084,0.306742 -0.368084,-0.102258 0,-0.368086 -0.122691,-0.449882 -0.71572,-0.449882 h -0.715719 v 4.396571 4.396572 h 0.817966 0.817965 v -1.574581 c 0,-1.513247 0.02047,-1.554141 0.388535,-1.206506 0.961107,0.879313 2.821982,0.429431 3.558151,-0.838419 0.490781,-0.858861 0.531676,-3.006024 0.06134,-3.905787 -0.572572,-1.124699 -1.942665,-1.676828 -2.985573,-1.247398 z m 1.288297,1.860882 c 0.817966,0.940656 0.143141,3.230959 -0.961113,3.230959 -1.1656,0 -1.819973,-1.329194 -1.349642,-2.760635 0.388535,-1.145152 1.513239,-1.390539 2.310755,-0.470324 z"
     id="path4914"
     style="stroke-width:0.0204492" />
  <path
     d="m 47.952616,91.221015 c -0.470331,0.224947 -1.002008,0.695269 -1.226951,1.063356 -0.490782,0.85887 -0.511226,2.862883 -0.04086,3.783098 0.633923,1.186043 2.719731,1.860871 3.885334,1.267849 0.654366,-0.347645 1.574581,-1.247399 1.574581,-1.55414 0,-0.388528 -1.513236,-0.347634 -1.84042,0.04092 -0.593022,0.71572 -2.249403,0.14314 -2.249403,-0.777076 0,-0.306731 0.286284,-0.347634 2.167607,-0.347634 h 2.188056 l -0.14314,-0.961109 c -0.163591,-1.247399 -0.674828,-2.065366 -1.55414,-2.53569 -0.920205,-0.490785 -1.738173,-0.490785 -2.760628,0.02041 z m 2.18806,1.370097 c 0.695269,0.633926 0.470333,0.879313 -0.858872,0.879313 -0.674817,0 -1.226942,-0.06133 -1.226942,-0.163592 0,-0.08175 0.143141,-0.368087 0.32718,-0.613474 0.368085,-0.531677 1.226957,-0.593032 1.758634,-0.102257 z"
     id="path4916"
     style="stroke-width:0.0204492" />
  <path
     d="m 62.532863,91.180112 c -0.613473,0.327193 -0.777065,0.347645 -0.777065,0.122699 0,-0.204494 -0.245398,-0.286291 -0.817968,-0.286291 h -0.817968 v 3.169625 3.169615 h 0.817968 0.817968 v -2.147153 c 0,-1.901774 0.04092,-2.188064 0.42943,-2.576591 0.552119,-0.55213 1.431441,-0.449882 1.758625,0.224935 0.163591,0.306732 0.265838,1.308742 0.265838,2.494796 v 2.004013 h 0.817969 0.817967 v -2.453894 c 0,-1.329195 -0.102257,-2.658389 -0.224945,-2.924227 -0.470334,-1.022462 -1.922216,-1.390549 -3.087819,-0.797527 z"
     id="path4918"
     style="stroke-width:0.0204492" />
  <path
     d="m 68.606263,91.221015 c -0.470333,0.224947 -1.002011,0.695269 -1.226957,1.063356 -0.490775,0.85887 -0.511227,2.862883 -0.04092,3.783098 0.633925,1.186043 2.719743,1.860871 3.885345,1.267849 0.654377,-0.347645 1.574582,-1.247399 1.574582,-1.55414 0,-0.388528 -1.513227,-0.347634 -1.84042,0.04092 -0.593032,0.71572 -2.24941,0.14314 -2.24941,-0.777076 0,-0.306731 0.28629,-0.347634 2.167614,-0.347634 h 2.188055 l -0.143145,-0.961103 c -0.163592,-1.247399 -0.674828,-2.065366 -1.55413,-2.53569 -0.920215,-0.490785 -1.738183,-0.490785 -2.760636,0.02041 z m 2.188055,1.370097 c 0.695269,0.633926 0.470333,0.879313 -0.858861,0.879313 -0.674828,0 -1.226957,-0.06133 -1.226957,-0.163592 0,-0.08175 0.14315,-0.368087 0.327193,-0.613474 0.368087,-0.531677 1.226948,-0.593032 1.758625,-0.102257 z"
     id="path4920"
     style="stroke-width:0.0204492" />
  <path
     d="m 36.19435,94.186145 v 3.169615 h 0.81797 0.817966 V 94.186145 91.01652 H 37.01232 36.19435 Z"
     id="path4996"
     style="stroke-width:0.0204492" />
  <path
     d="m 56.847991,94.186145 v 3.169615 h 0.817967 0.817969 V 94.186145 91.01652 h -0.817969 -0.817967 z"
     id="path4998"
     style="stroke-width:0.0204492" />
</svg>
