<?xml version="1.0" encoding="UTF-8" standalone="no"?>
<!-- Created with Inkscape (http://www.inkscape.org/) -->

<svg
   width="100mm"
   height="100mm"
   viewBox="0 0 100 100"
   version="1.1"
   id="svg26768"
   xmlns="http://www.w3.org/2000/svg"
   xmlns:svg="http://www.w3.org/2000/svg">
  <defs
     id="defs26765" />
  <path
     d="m 31.752773,1.233804 c -1.933812,0.6798519 -3.323742,2.5834473 -3.323742,4.5625856 v 0.7251779 l -0.997115,0.090651 C 25.513212,6.7935129 23.957097,7.8812793 23.15638,9.5733632 l -0.392804,0.8460378 -0.04533,21.710044 c -0.03019,19.398544 -0.06043,21.725154 -0.271941,21.725154 -0.423021,0 -1.117984,0.45324 -1.344603,0.906472 -0.196403,0.377706 -0.226618,1.948921 -0.226618,11.844595 0,7.689917 0.04533,11.542433 0.166187,11.829479 0.196403,0.513666 0.830934,1.208635 1.374818,1.495681 0.347484,0.181294 2.583453,0.211512 13.944583,0.211512 13.279842,0 13.551788,0 14.12588,-0.302155 0.332372,-0.166194 0.785612,-0.589217 1.012232,-0.936698 0.423023,-0.619417 0.423023,-0.664743 0.468349,-3.47481 l 0.06043,-2.840285 h 8.8079 c 8.671939,0 8.838125,0 9.699271,-0.332372 1.707193,-0.634534 2.870502,-2.251084 3.127339,-4.366182 l 0.105752,-0.846046 0.982015,-0.09064 c 0.679852,-0.07554 1.253952,-0.241729 1.888487,-0.574101 1.027332,-0.558991 1.616541,-1.163309 2.220858,-2.296401 L 79.2671,63.297036 V 33.987715 4.6784061 L 78.934736,3.968337 C 78.496604,3.0165393 77.484381,1.943873 76.547683,1.4604241 L 75.792289,1.0525096 54.112461,1.0222924 C 34.698818,0.99207526 32.357099,1.0071839 31.752782,1.233804 Z m 43.525841,1.722301 c 0.770503,0.2719459 1.465464,0.8309376 1.843161,1.5410067 l 0.332372,0.6345261 V 27.340248 49.54885 l -0.423015,0.861147 c -0.513666,1.042449 -1.661867,2.115107 -2.598564,2.43237 L 73.767825,53.084095 73.722495,31.827291 73.677165,10.570487 73.239042,9.6337982 C 72.740484,8.5309144 71.682935,7.4733652 70.625385,6.9748077 L 69.900208,6.6424276 50.078642,6.5971018 30.241984,6.5668847 v -0.498566 c 0,-1.2841696 0.755394,-2.477696 1.888487,-2.9913621 0.5741,-0.2719373 1.616541,-0.2870459 21.619393,-0.2870459 15.319406,0 21.151053,0.045326 21.52875,0.1661858 z m -5.106469,5.9222981 c 0.392806,0.2266117 0.906472,0.7100691 1.133092,1.0424411 l 0.407915,0.6345338 V 32.9906 55.440931 l -0.407915,0.770503 c -0.483457,0.906472 -1.405029,1.782727 -2.371935,2.235967 -0.679861,0.317264 -0.861155,0.317264 -10.243155,0.362589 l -9.563295,0.04533 v -1.767631 c 0,-1.964021 -0.181294,-2.553238 -0.891372,-2.976253 -0.407914,-0.241729 -1.374812,-0.256837 -12.010773,-0.256837 H 24.652057 V 32.325848 c 0,-19.549611 0.03022,-21.589175 0.241729,-22.027307 0.498558,-0.9669058 1.269069,-1.556115 2.326619,-1.7827267 0.287046,-0.060434 9.910774,-0.090651 21.377664,-0.075543 l 20.848899,0.015109 z m 7.327328,48.1035349 c -0.04533,6.420847 -0.01511,6.148909 -1.012224,7.191358 -0.528783,0.558992 -1.601441,1.012224 -2.387053,1.012224 h -0.34748 l 0.03022,-5.756104 0.04533,-5.756112 0.679852,-0.22662 c 0.936689,-0.317263 1.903595,-1.027332 2.387044,-1.722292 0.22662,-0.317272 0.468349,-0.574109 0.528775,-0.589218 0.06043,0 0.10576,2.628782 0.07554,5.846764 z m -5.861864,11.572641 c -0.211503,0.740295 -0.982006,1.601441 -1.737401,1.933813 -0.559,0.256837 -1.253961,0.287054 -10.681287,0.287054 H 49.126852 v -5.665469 -5.665461 h 9.336675 c 10.303589,0 10.18272,0.01511 11.602867,-0.951797 0.407914,-0.256829 0.936689,-0.755395 1.193518,-1.087767 l 0.45324,-0.604317 0.04533,5.589926 c 0.03022,3.716539 -0.01511,5.786321 -0.120869,6.164018 z M 41.572905,58.46251 v 0.982006 h -8.46042 -8.460428 V 58.46251 57.480495 h 8.460428 8.46042 z M 47.3139,70.775446 v 7.553948 H 35.303127 c -11.814375,0 -12.010777,0 -12.312936,-0.302163 -0.287047,-0.287055 -0.302156,-0.498558 -0.302156,-7.553948 V 63.221499 H 35.000972 47.3139 Z"
     id="path4556"
     style="stroke-width:0.0151079" />
  <path
     d="m 47.238365,16.296373 c -0.07554,0.03022 -3.172656,0.997124 -6.874095,2.145324 -5.907189,1.843162 -6.783444,2.160425 -7.266893,2.583448 -0.302163,0.271946 -0.634535,0.694969 -0.725186,0.92158 -0.12086,0.287055 -0.166186,3.671222 -0.135969,12.207185 l 0.04533,11.799261 0.423023,0.543883 c 0.226612,0.302163 0.619417,0.664752 0.846038,0.785612 0.241728,0.12086 3.399276,1.133092 7.040281,2.281293 5.997832,1.85827 6.707901,2.054673 7.689916,2.039564 0.936689,-0.01511 1.903596,-0.271937 7.780568,-2.115098 3.701431,-1.16331 6.889195,-2.235976 7.100707,-2.387053 0.211511,-0.166186 0.543883,-0.589209 0.740286,-0.951798 l 0.332372,-0.664752 V 33.942398 c 0,-11.028767 -0.01511,-11.542433 -0.287046,-12.086316 -0.574101,-1.117983 -0.664752,-1.1482 -7.750351,-3.384167 -5.151794,-1.61655 -6.934521,-2.115107 -7.75035,-2.160433 -0.5741,-0.04533 -1.117984,-0.04533 -1.208627,-0.01511 z m 8.309343,3.958268 c 4.184879,1.299278 6.556824,2.099999 6.677684,2.281293 0.151086,0.181295 0.196403,1.178418 0.196403,3.776974 v 3.520145 H 48.22038 34.018957 v -3.520145 c 0,-2.643882 0.04533,-3.595679 0.196403,-3.792082 0.135969,-0.181295 2.402153,-0.951798 6.632367,-2.281293 3.550354,-1.102875 6.60215,-2.039564 6.798544,-2.08489 0.649644,-0.12086 1.405038,0.07554 7.901437,2.099998 z m 6.84387,13.687757 0.03022,3.444594 H 48.22038 34.018957 v -3.474811 -3.474819 l 14.171206,0.03022 14.156097,0.04532 z m 0,7.614373 c 0.03022,3.157556 0.01511,3.520137 -0.226612,3.8223 -0.347489,0.423023 -12.917254,4.381291 -13.929486,4.396399 -0.861146,0 -13.748182,-3.988485 -14.02012,-4.351074 -0.151077,-0.181294 -0.196403,-1.193526 -0.196403,-3.837408 v -3.595679 l 14.171206,0.03022 14.156097,0.04533 z"
     id="path4558"
     style="stroke-width:0.0151079" />
  <path
     d="m 37.795931,26.358233 v 0.906472 h 1.888487 1.888487 v -0.906472 -0.906472 h -1.888487 -1.888487 z"
     id="path4560"
     style="stroke-width:0.0151079" />
  <path
     d="m 43.536926,26.358233 v 0.906472 h 2.794959 2.794967 v -0.906472 -0.906472 h -2.794967 -2.794959 z"
     id="path4562"
     style="stroke-width:0.0151079" />
  <path
     d="m 51.090874,26.358233 v 0.906472 h 3.776973 3.792083 l -0.04533,-0.876254 -0.04533,-0.861155 -3.731648,-0.04533 -3.746756,-0.03022 z"
     id="path4564"
     style="stroke-width:0.0151079" />
  <path
     d="m 37.795931,33.912181 v 0.906472 h 6.647467 6.662584 l -0.04533,-0.876255 -0.04533,-0.861155 -6.602142,-0.04533 -6.617258,-0.03022 z"
     id="path4566"
     style="stroke-width:0.0151079" />
  <path
     d="m 52.903826,33.912181 v 0.906472 h 2.870502 2.885602 l -0.04533,-0.876255 -0.04533,-0.861155 -2.825167,-0.04533 -2.840285,-0.03022 z"
     id="path4568"
     style="stroke-width:0.0151079" />
  <path
     d="M 37.795931,41.466128 V 42.3726 h 2.870502 2.885602 l -0.04533,-0.876255 -0.04533,-0.861154 -2.825167,-0.04533 -2.840285,-0.03022 z"
     id="path4570"
     style="stroke-width:0.0151079" />
  <path
     d="M 45.349879,41.466128 V 42.3726 h 0.982006 0.997123 l -0.04533,-0.876255 -0.04533,-0.861154 -0.936689,-0.04533 -0.951798,-0.04533 z"
     id="path4572"
     style="stroke-width:0.0151079" />
  <path
     d="M 49.126852,41.466128 V 42.3726 h 4.75898 4.774098 l -0.04533,-0.876255 -0.04533,-0.861154 -4.713654,-0.04533 -4.728772,-0.03022 z"
     id="path4574"
     style="stroke-width:0.0151079" />
  <path
     d="m 24.652057,67.904944 v 0.906472 h 5.66547 5.68056 l -0.04532,-0.876254 -0.04533,-0.861155 -5.620135,-0.04533 -5.635244,-0.03022 z"
     id="path4576"
     style="stroke-width:0.0151079" />
  <path
     d="m 40.81751,67.37617 c 0,0.317263 -0.362589,0.438123 -0.740295,0.226611 -0.287045,-0.151077 -0.317263,-0.12086 -0.317263,0.302163 0,0.453232 -0.03022,0.468341 -0.46834,0.377689 -0.45324,-0.105751 -0.468349,-0.09064 -0.362589,0.362598 0.09064,0.407914 0.06043,0.46834 -0.211511,0.46834 -0.392806,0 -0.543883,0.256837 -0.302155,0.558992 0.166178,0.196403 0.151069,0.271945 -0.166194,0.528774 l -0.377697,0.302163 0.347488,0.241729 0.347472,0.226612 -0.332372,0.347488 -0.332371,0.347481 0.392806,0.151077 c 0.34748,0.135968 0.392806,0.22662 0.317271,0.619417 -0.09065,0.407915 -0.06043,0.453241 0.302155,0.453241 0.317263,0 0.392806,0.07554 0.392806,0.392806 0,0.34748 0.04532,0.377697 0.453231,0.287054 0.377698,-0.09065 0.453241,-0.06043 0.453241,0.196403 0,0.423023 0.166185,0.513666 0.543883,0.256829 0.317271,-0.211512 0.362589,-0.196403 0.589209,0.12086 l 0.241728,0.33238 0.256829,-0.34748 c 0.241729,-0.317272 0.287055,-0.317272 0.604318,-0.10576 0.317271,0.22662 0.34748,0.22662 0.483449,-0.151078 0.120868,-0.317263 0.211511,-0.362588 0.528774,-0.287045 0.33238,0.07554 0.377706,0.04532 0.377706,-0.302163 0,-0.332372 0.06043,-0.392806 0.46834,-0.392806 0.362589,0 0.453241,-0.06044 0.377698,-0.226621 -0.04533,-0.12086 -0.135969,-0.332371 -0.181295,-0.453231 -0.06043,-0.151078 0.04533,-0.271946 0.317272,-0.377698 0.407914,-0.151077 0.407914,-0.166185 0.151077,-0.45324 -0.256837,-0.287046 -0.256837,-0.317263 0.01511,-0.619417 0.271937,-0.302163 0.271937,-0.317272 -0.06043,-0.559001 -0.317264,-0.24172 -0.317264,-0.287046 -0.09065,-0.604309 0.22662,-0.317263 0.211512,-0.33238 -0.226612,-0.423023 -0.407914,-0.09064 -0.438131,-0.135969 -0.362588,-0.543883 0.07554,-0.407915 0.06043,-0.438132 -0.347489,-0.392806 -0.377689,0.04533 -0.438132,-0.01511 -0.483449,-0.362589 -0.04533,-0.377697 -0.07554,-0.392806 -0.438132,-0.22662 -0.256837,0.105752 -0.423014,0.12086 -0.453231,0.03022 -0.181295,-0.528774 -0.332381,-0.5892 -0.634535,-0.317263 -0.302155,0.271946 -0.332372,0.271946 -0.589209,0.04533 -0.34748,-0.317263 -0.483449,-0.317263 -0.483449,-0.03022 z"
     id="path4578"
     style="stroke-width:0.0151079" />
  <path
     d="m 24.652057,73.645939 v 0.906472 h 5.66547 5.665452 v -0.906472 -0.906472 h -5.665452 -5.66547 z"
     id="path4580"
     style="stroke-width:0.0151079" />
  <path
     d="m 41.270742,95.40131 v 3.172656 h 0.604317 0.604318 v -1.133092 -1.133092 h 1.02734 c 1.253953,0 1.964022,-0.317263 2.326611,-1.05755 0.528774,-1.04244 0.166185,-2.281292 -0.785612,-2.749633 -0.407915,-0.211511 -0.906472,-0.271946 -2.145316,-0.271946 h -1.631658 z m 3.23309,-1.828053 c 0.302163,0.256829 0.317272,0.921581 0.03022,1.299278 -0.166186,0.226612 -0.407915,0.287046 -1.087767,0.302155 h -0.891363 l -0.04533,-0.740287 c -0.07554,-1.117983 0,-1.193518 0.951798,-1.117983 0.438131,0.04533 0.921589,0.151077 1.042449,0.256837 z"
     id="path4812"
     style="stroke-width:0.0151079" />
  <path
     d="m 57.738349,95.40131 v 3.172656 h 0.604318 0.604317 V 95.40131 92.228653 h -0.604317 -0.604318 z"
     id="path4814"
     style="stroke-width:0.0151079" />
  <path
     d="m 47.918217,93.99628 c -0.649634,0.332372 -1.208626,1.374813 -1.208626,2.235967 0,0.332372 0.151077,0.921581 0.34748,1.28417 0.438123,0.891363 1.102875,1.238843 2.190641,1.163309 1.374821,-0.10576 2.190642,-1.012232 2.190642,-2.447479 0,-1.435255 -0.815821,-2.341727 -2.190642,-2.447478 -0.5741,-0.04533 -0.951797,0.01511 -1.329495,0.211511 z m 1.948922,1.193518 c 0.725177,0.921581 0.211503,2.477696 -0.81583,2.477696 -0.558991,0 -0.785611,-0.211512 -0.982014,-0.921581 -0.181295,-0.604317 0.04533,-1.571223 0.423023,-1.782735 0.483449,-0.287046 1.04244,-0.181294 1.374821,0.22662 z"
     id="path4922"
     style="stroke-width:0.0151079" />
  <path
     d="m 53.205981,93.99628 c -0.649635,0.332372 -1.208635,1.374813 -1.208635,2.235967 0,0.332372 0.151085,0.921581 0.347488,1.28417 0.438132,0.891363 1.102875,1.238843 2.190642,1.163309 1.37482,-0.10576 2.19065,-1.012232 2.19065,-2.447479 0,-1.435255 -0.81583,-2.341727 -2.19065,-2.447478 -0.574101,-0.04533 -0.951798,0.01511 -1.329495,0.211511 z m 1.948921,1.193518 c 0.725177,0.921581 0.211511,2.477696 -0.815829,2.477696 -0.558992,0 -0.785612,-0.211512 -0.982015,-0.921581 -0.181295,-0.604317 0.04533,-1.571223 0.423023,-1.782735 0.483457,-0.287046 1.042449,-0.181294 1.374821,0.22662 z"
     id="path4924"
     style="stroke-width:0.0151079" />
</svg>
