<?xml version="1.0" encoding="UTF-8" standalone="no"?>
<!-- Created with Inkscape (http://www.inkscape.org/) -->

<svg
   width="100mm"
   height="100mm"
   viewBox="0 0 100 100"
   version="1.1"
   id="svg26768"
   xmlns="http://www.w3.org/2000/svg"
   xmlns:svg="http://www.w3.org/2000/svg">
  <defs
     id="defs26765" />
  <path
     d="M 45.052049,1.3234926 C 38.815343,2.3320704 32.640388,5.028461 27.885676,8.8157703 26.547771,9.8860883 23.707293,12.74715 22.45172,14.290892 c -9.98284,12.226404 -10.765,29.557437 -1.893653,42.730669 5.289876,7.88336 13.255566,13.193811 22.764988,15.231547 2.017156,0.432243 2.778731,0.493993 7.101205,0.493993 4.240133,-0.02062 5.104619,-0.08238 6.998274,-0.473413 C 68.784451,69.803709 77.923371,62.681934 82.842749,52.431505 86.280146,45.28915 87.226973,37.46754 85.62148,29.60477 85.003986,26.579046 84.118909,24.088477 82.534007,20.877502 77.552878,10.853506 68.372778,3.855222 57.299033,1.6116547 54.417391,1.0353304 47.78961,0.87065895 45.052049,1.3234926 Z M 56.660958,4.102224 c 6.792442,1.3379001 12.658647,4.4871243 17.475114,9.385922 2.799312,2.861062 4.466544,5.166379 6.195528,8.644936 2.264157,4.528295 3.210974,8.418515 3.375646,13.873057 0.1029,3.272725 0.04114,4.157802 -0.329333,6.360199 C 81.010855,56.198234 70.739846,66.798566 56.805039,69.783129 53.635224,70.462374 47.419107,70.482954 44.105221,69.80375 35.254452,68.013016 27.556347,62.908387 22.575219,55.49845 21.319645,53.625386 19.323077,49.570495 18.623248,47.471008 16.832513,42.078217 16.462016,35.718018 17.614673,30.242896 18.088086,27.916998 19.405409,24.150279 20.434568,22.071373 25.539195,11.944455 34.945709,5.2960845 46.51345,3.6906023 48.757017,3.3818498 54.149808,3.5877021 56.660958,4.1022655 Z"
     id="path4676"
     style="stroke-width:0.0205832" />
  <path
     d="m 44.866797,13.961559 c 0,0.164672 1.132069,3.499137 1.543742,4.590046 0.144071,0.349912 -0.267582,0.370503 -6.977702,0.370503 -3.910804,0 -7.121777,0.02062 -7.121777,0.06176 0,0.02062 0.41166,1.173239 0.905658,2.57289 l 0.88508,2.511149 h -4.692966 c -2.737562,0 -4.713546,0.08238 -4.713546,0.185252 0,0.1029 0.967408,2.902222 2.161232,6.236698 1.193825,3.313895 2.161233,6.174957 2.161233,6.339619 0,0.164671 -0.967408,3.087473 -2.161233,6.463119 -1.193824,3.396216 -2.161232,6.236698 -2.161232,6.339619 0,0.08238 2.120066,0.164661 4.713546,0.164661 h 4.692966 l -0.88508,2.51115 c -0.493998,1.399661 -0.905658,2.552309 -0.905658,2.5729 0,0.04114 3.190394,0.06176 7.101193,0.06176 3.910802,0 7.101197,0.04114 7.101197,0.08238 0,0.04124 -0.411664,1.193829 -0.905657,2.57291 l -0.905667,2.490559 h 11.670659 11.65008 L 72.098336,48.500208 76.173808,36.932469 72.098336,25.36472 68.022865,13.776391 H 56.455126 c -6.771862,0 -11.588329,0.08238 -11.588329,0.185251 z m 21.509415,2.984563 c 0.164672,0.370493 1.831905,5.022289 3.704979,10.33275 l 3.396216,9.653514 -3.519717,9.982837 c -1.934825,5.495712 -3.602058,10.147498 -3.704979,10.332749 -0.185241,0.349923 -0.823326,0.370493 -9.036009,0.370493 -4.878218,0 -8.850768,-0.04114 -8.850768,-0.1029 0,-0.04114 1.626072,-4.692967 3.622638,-10.33275 L 55.590629,36.932396 51.988572,26.681967 c -1.996566,-5.639783 -3.622638,-10.291579 -3.622638,-10.332749 0,-0.06176 3.993141,-0.1029 8.871348,-0.1029 h 8.850768 z m -16.198954,12.267575 2.716981,7.718689 -2.716981,7.718689 -2.737561,7.71869 -5.701545,0.06176 c -4.507713,0.04124 -5.722121,0 -5.722121,-0.205822 0,-0.144091 1.214408,-3.643228 2.675811,-7.780439 l 2.655228,-7.512858 -2.675812,-7.554028 c -1.461404,-4.137222 -2.655227,-7.636359 -2.655227,-7.75986 0,-0.164661 1.667237,-0.226412 5.722121,-0.185241 l 5.701545,0.06176 z M 35.17212,27.09362 c 0.802743,2.037736 3.355059,9.509434 3.355059,9.838766 0,0.329322 -2.552316,7.80102 -3.355059,9.818176 l -0.226411,0.576324 h -3.375643 c -1.852487,0 -3.375641,-0.04114 -3.375641,-0.08228 0,-0.06176 0.782161,-2.346478 1.749569,-5.084049 0.96741,-2.737561 1.749573,-5.14579 1.749573,-5.331041 0,-0.185252 -0.782163,-2.511149 -1.72899,-5.16638 -0.946826,-2.65522 -1.68782,-4.878207 -1.62607,-4.981128 0.04116,-0.08238 1.543738,-0.144081 3.334476,-0.144081 h 3.272726 z"
     id="path4678"
     style="stroke-width:0.0205832" />
  <path
     d="m 34.678123,89.398889 c -2.511149,1.090909 -3.210974,5.331041 -1.234987,7.512869 1.070322,1.173238 3.087472,1.605482 4.528297,0.967397 0.555746,-0.246992 0.658662,-0.226412 1.152655,0.205841 l 0.514582,0.493994 0.493999,-0.514584 0.473407,-0.493994 -0.473407,-0.391083 -0.493999,-0.391072 0.391082,-0.802747 c 0.493991,-1.008578 0.638078,-3.087473 0.308743,-4.096051 -0.329327,-0.967418 -1.358487,-2.140657 -2.202398,-2.49057 -0.84391,-0.370492 -2.655227,-0.349912 -3.457974,0 z m 2.778728,1.461412 c 0.84391,0.432243 1.234991,1.29674 1.234991,2.716981 0,1.543731 -0.226411,1.934815 -0.802741,1.42023 -0.411666,-0.370492 -0.43225,-0.370492 -0.823326,0.102901 -0.514583,0.596914 -0.514583,0.720405 -0.123501,0.885077 0.473414,0.164661 0.370497,0.514573 -0.185248,0.658665 -0.720411,0.164661 -1.893655,-0.411674 -2.264152,-1.132079 -0.432245,-0.802746 -0.432245,-2.943393 -0.0206,-3.725559 0.576325,-1.111488 1.852486,-1.502572 2.984556,-0.926237 z"
     id="path4768"
     style="stroke-width:0.0205832" />
  <path
     d="m 50.321339,91.786538 c -0.473414,0.226422 -1.008578,0.699825 -1.234989,1.070328 -0.494005,0.864497 -0.514585,2.881642 -0.04124,3.807889 0.638074,1.193819 2.737561,1.873065 3.9108,1.27616 0.658665,-0.349923 1.584902,-1.255579 1.584902,-1.564332 0,-0.391073 -1.523152,-0.349913 -1.852485,0.04114 -0.596904,0.720416 -2.264147,0.144081 -2.264147,-0.782155 0,-0.308743 0.288162,-0.349913 2.181817,-0.349913 h 2.202397 l -0.144081,-0.967408 c -0.164661,-1.255579 -0.679246,-2.078906 -1.564322,-2.552319 -0.926237,-0.493994 -1.749564,-0.493994 -2.778722,0.02062 z m 2.202397,1.37907 c 0.699825,0.638085 0.473414,0.885087 -0.864497,0.885087 -0.679235,0 -1.234979,-0.06176 -1.234979,-0.164671 0,-0.08238 0.144071,-0.370503 0.329322,-0.617495 0.370503,-0.535164 1.23499,-0.596914 1.770154,-0.1029 z"
     id="path4926"
     style="stroke-width:0.0205832" />
  <path
     d="m 64.317897,91.786538 c -0.473414,0.226422 -1.008578,0.699825 -1.23499,1.070328 -0.494004,0.864497 -0.514584,2.881642 -0.04124,3.807889 0.638075,1.193819 2.737561,1.873065 3.9108,1.27616 0.658665,-0.349923 1.584902,-1.255579 1.584902,-1.564332 0,-0.391073 -1.523151,-0.349913 -1.852484,0.04114 -0.596904,0.720416 -2.264147,0.144081 -2.264147,-0.782155 0,-0.308743 0.288162,-0.349913 2.181816,-0.349913 h 2.202397 L 68.66087,94.318247 c -0.164661,-1.255579 -0.679245,-2.078906 -1.564322,-2.552319 -0.926237,-0.493994 -1.749563,-0.493994 -2.778721,0.02062 z m 2.202396,1.37907 c 0.699826,0.638085 0.473414,0.885087 -0.864496,0.885087 -0.679235,0 -1.234979,-0.06176 -1.234979,-0.164671 0,-0.08238 0.14407,-0.370503 0.329322,-0.617495 0.370503,-0.535164 1.234989,-0.596914 1.770153,-0.1029 z"
     id="path4928"
     style="stroke-width:0.0205832" />
  <path
     d="m 41.77932,94.030105 c 0,1.358491 0.08233,2.696401 0.205834,3.005143 0.432244,1.132079 2.449389,1.358491 3.519718,0.391083 0.370503,-0.329332 0.391083,-0.329332 0.391083,0.08228 0,0.391083 0.123501,0.452834 0.823326,0.452834 h 0.823327 v -3.190396 -3.190395 h -0.926237 -0.926248 v 2.222988 c 0,1.914234 -0.06176,2.284737 -0.370492,2.572889 -0.432254,0.391083 -0.926248,0.432254 -1.502572,0.144092 -0.349913,-0.205832 -0.391083,-0.452834 -0.391083,-2.5729 V 91.580654 H 42.60265 41.77932 Z"
     id="path5000"
     style="stroke-width:0.0205832" />
  <path
     d="m 55.775881,94.030105 c 0,1.358491 0.08228,2.696401 0.205832,3.005143 0.432243,1.132079 2.449388,1.358491 3.519716,0.391083 0.370503,-0.329332 0.391084,-0.329332 0.391084,0.08228 0,0.391083 0.123501,0.452834 0.823326,0.452834 h 0.823326 v -3.190396 -3.190395 h -0.926237 -0.926247 v 2.222988 c 0,1.914234 -0.06176,2.284737 -0.370493,2.572889 -0.432253,0.391083 -0.926247,0.432254 -1.502571,0.144092 -0.349913,-0.205832 -0.391083,-0.452834 -0.391083,-2.5729 v -2.367069 h -0.823327 -0.823326 z"
     id="path5002"
     style="stroke-width:0.0205832" />
</svg>
