<?xml version="1.0" encoding="UTF-8" standalone="no"?>
<!-- Created with Inkscape (http://www.inkscape.org/) -->

<svg
   width="100mm"
   height="100mm"
   viewBox="0 0 100 100"
   version="1.1"
   id="svg26768"
   xmlns="http://www.w3.org/2000/svg"
   xmlns:svg="http://www.w3.org/2000/svg">
  <defs
     id="defs26765" />
  <path
     d="m 29.083962,1.4004142 c -1.409935,0.35999 -2.684875,1.36494 -3.344844,2.63988 l -0.404982,0.74997 -0.045,29.0536428 -0.03,29.053644 0.314985,0.86996 c 0.449979,1.169945 1.559927,2.279894 2.729873,2.714874 l 0.869959,0.329984 h 21.404002 21.404002 l 0.899958,-0.43498 c 1.034952,-0.479977 2.054904,-1.49993 2.519882,-2.534881 L 75.731782,63.13754 V 34.113894 5.0902442 L 75.3418,4.2502842 c -0.509976,-1.07995 -1.439933,-2.0099 -2.519882,-2.51988 l -0.839961,-0.38998 -21.22401,-0.03 c -11.669456,0 -21.419001,0.03 -21.673989,0.09 z m 43.09299,2.09991 c 0.64497,0.32998 1.079949,0.77996 1.469931,1.51493 0.269987,0.50997 0.284987,1.31993 0.284987,22.0489698 0,20.489043 -0.015,21.568993 -0.269988,22.318958 -0.374982,1.049951 -1.514929,2.279893 -2.534881,2.744872 l -0.794963,0.359983 H 50.457965 30.583892 l -0.689968,-0.344984 c -1.07995,-0.539975 -1.874913,-1.304939 -2.339891,-2.249895 l -0.419981,-0.85496 V 27.139224 5.2402442 l 0.359984,-0.58498 c 0.19499,-0.31498 0.674968,-0.76496 1.049951,-1.00495 l 0.674968,-0.43498 h 21.194012 c 20.549041,0 21.22401,0.015 21.763985,0.28499 z M 28.813974,52.233049 c 1.559927,0.989954 0.329985,0.944956 22.033972,0.899958 l 19.634085,-0.045 1.004953,-0.494977 c 0.689968,-0.329985 1.244942,-0.764964 1.769917,-1.349937 l 0.764965,-0.85496 -0.045,6.149713 -0.045,6.149714 -0.419981,0.719966 c -0.224989,0.389982 -0.704967,0.899958 -1.034951,1.124947 l -0.629971,0.404981 -20.999021,0.045 c -14.849307,0.03 -21.179012,0 -21.583993,-0.119994 -0.734966,-0.20999 -1.589926,-0.974955 -1.919911,-1.72492 -0.254988,-0.554974 -0.284986,-1.124947 -0.284986,-6.659689 v -6.059718 l 0.509976,0.674969 c 0.284987,0.374983 0.839961,0.884959 1.244942,1.139947 z"
     id="path4624"
     style="stroke-width:0.0149993" />
  <path
     d="m 36.508615,15.244774 v 2.72987 l 0.674969,-0.65997 0.674968,-0.65997 3.149853,3.13486 3.149854,3.14985 1.27494,-1.27494 c 0.704967,-0.68997 1.27494,-1.33494 1.27494,-1.42493 0,-0.09 -1.379935,-1.52993 -3.074856,-3.22485 l -3.074857,-3.07486 0.704967,-0.70497 0.704968,-0.71996 h -2.729873 -2.729873 z"
     id="path4626"
     style="stroke-width:0.0149993" />
  <path
     d="m 59.682534,13.264864 0.749965,0.74997 -3.119854,3.11985 -3.104855,3.10486 1.304939,1.31994 1.319938,1.30493 3.104856,-3.10485 3.119854,-3.11985 0.749965,0.74996 0.749965,0.73497 v -2.80487 -2.80487 h -2.804869 -2.804869 z"
     id="path4628"
     style="stroke-width:0.0149993" />
  <path
     d="m 40.978407,35.26884 -3.119855,3.119855 -0.674968,-0.674969 -0.674969,-0.659969 v 2.729872 2.729873 h 2.729873 2.729873 l -0.704968,-0.719966 -0.704967,-0.704967 3.074857,-3.074857 c 1.694921,-1.694921 3.074856,-3.134854 3.074856,-3.224849 0,-0.149993 -2.414887,-2.624879 -2.54988,-2.624879 -0.045,0 -1.469932,1.39494 -3.179852,3.104856 z"
     id="path4630"
     style="stroke-width:0.0149993" />
  <path
     d="m 55.512729,33.468924 -1.304939,1.319939 3.104855,3.104855 3.119854,3.119854 -0.749965,0.749965 -0.734965,0.749965 h 2.804869 2.804869 v -2.804869 -2.804869 l -0.749965,0.734966 -0.749965,0.749965 -3.119854,-3.119855 -3.104856,-3.104856 z"
     id="path4632"
     style="stroke-width:0.0149993" />
  <path
     d="m 38.308531,56.612845 v 0.899958 h -0.899958 -0.899958 v 2.849867 2.849867 l 4.619785,-0.03 4.604785,-0.045 0.045,-2.819869 0.03,-2.804869 h -0.974954 -0.974955 v -0.899958 -0.899958 h -2.77487 -2.774871 z"
     id="path4634"
     style="stroke-width:0.0149993" />
  <path
     d="m 57.057657,56.612845 v 0.899958 h -0.899958 -0.899958 v 2.849867 2.849867 l 4.619784,-0.03 4.604786,-0.045 0.045,-2.819868 0.03,-2.804869 h -0.974954 -0.974955 v -0.899958 -0.899958 h -2.774871 -2.77487 z"
     id="path4636"
     style="stroke-width:0.0149993" />
  <path
     d="m 37.108587,81.946663 v 3.164853 h 0.599972 0.599972 v -1.199944 -1.199944 h 1.049951 c 1.199944,0 1.349937,0.134993 1.349937,1.259941 0,1.049951 0.075,1.139947 0.929957,1.139947 0.584973,0 0.719966,-0.045 0.599972,-0.194991 -0.075,-0.09 -0.179992,-0.64497 -0.20999,-1.214944 -0.045,-0.83996 -0.119995,-1.079949 -0.404981,-1.304939 l -0.344984,-0.284986 0.434979,-0.359984 c 0.359984,-0.314985 0.419981,-0.479977 0.419981,-1.124947 0,-0.659969 -0.06,-0.824962 -0.494977,-1.244942 l -0.479978,-0.494977 -2.024905,-0.045 -2.024906,-0.06 z m 3.419841,-1.844914 c 0.389981,0.269988 0.449979,0.974955 0.09,1.274941 -0.134994,0.104995 -0.64497,0.194991 -1.229943,0.194991 l -1.004953,0.015 -0.045,-0.869959 -0.045,-0.85496 h 0.944956 c 0.614971,0 1.06495,0.075 1.28994,0.239989 z"
     id="path4820"
     style="stroke-width:0.0149993" />
  <path
     d="m 54.057797,79.861761 c 0,0.494976 -0.045,0.599972 -0.299986,0.599972 -0.239989,0 -0.299986,0.104994 -0.299986,0.449978 0,0.344984 0.06,0.44998 0.299986,0.44998 0.284987,0 0.299986,0.104995 0.299986,1.634923 0,1.949909 0.09,2.114902 1.214943,2.114902 0.719966,0 0.734966,-0.015 0.734966,-0.449979 0,-0.374983 -0.06,-0.449979 -0.374983,-0.449979 -0.374982,0 -0.374982,0 -0.374982,-1.424934 0,-1.424933 0,-1.424933 0.374982,-1.424933 0.314986,0 0.374983,-0.075 0.374983,-0.44998 0,-0.374982 -0.06,-0.449978 -0.374983,-0.449978 -0.329984,0 -0.374982,-0.06 -0.374982,-0.599972 v -0.599973 h -0.599972 -0.599972 z"
     id="path4846"
     style="stroke-width:0.0149993" />
  <path
     d="m 44.158259,80.566727 c -0.644971,0.329985 -1.199945,1.364937 -1.199945,2.219897 0,0.329985 0.149993,0.914957 0.344984,1.274941 0.43498,0.884958 1.094949,1.229942 2.174899,1.154946 1.364936,-0.104995 2.174898,-1.004953 2.174898,-2.429887 0,-1.424933 -0.809962,-2.324891 -2.174898,-2.429887 -0.569973,-0.045 -0.944956,0.015 -1.319938,0.20999 z m 1.934909,1.184945 c 0.719967,0.914957 0.20999,2.459886 -0.809962,2.459886 -0.554974,0 -0.779964,-0.209991 -0.974955,-0.914958 -0.179991,-0.599972 0.045,-1.559927 0.419981,-1.769917 0.479977,-0.284987 1.034952,-0.179992 1.364936,0.224989 z"
     id="path4948"
     style="stroke-width:0.0149993" />
  <path
     d="m 57.732626,80.611726 c -0.344984,0.164992 -0.734967,0.509976 -0.899959,0.779963 -0.359983,0.629971 -0.374982,2.099902 -0.03,2.77487 0.464978,0.86996 1.994907,1.364937 2.849867,0.929957 0.479978,-0.254988 1.154946,-0.914957 1.154946,-1.139946 0,-0.284987 -1.109948,-0.254989 -1.349937,0.03 -0.434979,0.524975 -1.649923,0.104995 -1.649923,-0.569974 0,-0.224989 0.20999,-0.254988 1.589926,-0.254988 h 1.604925 l -0.104995,-0.704966 c -0.119994,-0.914958 -0.494977,-1.51493 -1.139947,-1.859914 -0.674968,-0.359983 -1.27494,-0.359983 -2.024905,0.015 z m 1.604924,1.004953 c 0.509977,0.464978 0.344984,0.644969 -0.62997,0.644969 -0.494977,0 -0.899958,-0.045 -0.899958,-0.119994 0,-0.06 0.104995,-0.269987 0.239989,-0.449979 0.269987,-0.389982 0.899958,-0.43498 1.289939,-0.075 z"
     id="path4950"
     style="stroke-width:0.0149993" />
  <path
     d="m 63.552354,80.536729 c -0.269988,0.119994 -0.494977,0.284987 -0.494977,0.374982 0,0.075 -0.06,0.149993 -0.149993,0.149993 -0.075,0 -0.149993,-0.134993 -0.149993,-0.299986 0,-0.239988 -0.104995,-0.299985 -0.524976,-0.299985 H 61.70744 v 2.324891 2.324892 h 0.599972 0.599972 v -1.394935 c 0,-1.604925 0.164992,-1.964909 0.974955,-2.114902 0.494976,-0.104995 0.524975,-0.134993 0.524975,-0.689968 0,-0.659969 -0.104995,-0.704966 -0.85496,-0.374982 z"
     id="path4952"
     style="stroke-width:0.0149993" />
  <path
     d="m 48.508056,82.246649 c 0,0.989954 0.06,1.964909 0.149993,2.189898 0.314985,0.824961 1.784916,0.989954 2.56488,0.284987 0.269987,-0.239989 0.284987,-0.239989 0.284987,0.06 0,0.284987 0.09,0.329985 0.599972,0.329985 h 0.599972 v -2.324892 -2.324891 h -0.674969 -0.674968 v 1.619924 c 0,1.394935 -0.045,1.664922 -0.269988,1.874913 -0.314985,0.284986 -0.674968,0.314985 -1.094949,0.104995 -0.254988,-0.149993 -0.284987,-0.329985 -0.284987,-1.874913 v -1.724919 h -0.599971 -0.599972 z"
     id="path5004"
     style="stroke-width:0.0149993" />
  <path
     d="m 31.153865,90.091284 c -0.674969,1.154946 -0.944956,2.084902 -0.944956,3.344843 0,1.874913 1.019952,4.124808 1.889912,4.124808 0.449979,0 0.449979,-0.09 0,-1.004953 -0.914957,-1.844914 -0.914957,-4.244802 0,-6.329705 0.194991,-0.43498 0.359983,-0.824961 0.359983,-0.85496 0,-0.03 -0.194991,-0.06 -0.419981,-0.06 -0.344983,0 -0.494976,0.134993 -0.884958,0.779964 z"
     id="path5020"
     style="stroke-width:0.0149993" />
  <path
     d="m 68.307132,89.386316 c 0,0.045 0.164992,0.404981 0.359983,0.794963 0.524976,1.049951 0.734966,2.219897 0.659969,3.719827 -0.06,1.259941 -0.164992,1.649923 -0.974954,3.479838 -0.06,0.149992 0.045,0.19499 0.404981,0.149992 0.43498,-0.045 0.554974,-0.164992 1.004953,-0.959955 0.269988,-0.494977 0.614972,-1.364936 0.749965,-1.93491 0.329985,-1.364936 0.119995,-2.714873 -0.674968,-4.199804 -0.509977,-0.929956 -0.629971,-1.049951 -1.049951,-1.094948 -0.269988,-0.03 -0.479978,-0.015 -0.479978,0.045 z"
     id="path5022"
     style="stroke-width:0.0149993" />
  <path
     d="m 33.358762,92.611166 v 3.149853 h 0.599972 0.599972 v -1.124948 -1.124947 h 1.019952 c 1.244942,0 1.94991,-0.314985 2.309893,-1.049951 0.524975,-1.034952 0.164992,-2.264895 -0.779964,-2.729873 -0.404981,-0.20999 -0.899958,-0.269987 -2.129901,-0.269987 h -1.619924 z m 3.20985,-1.814916 c 0.299987,0.254988 0.314986,0.914958 0.03,1.28994 -0.164992,0.22499 -0.404981,0.284987 -1.07995,0.299986 h -0.884959 l -0.045,-0.734965 c -0.075,-1.109949 0,-1.184945 0.944955,-1.109949 0.43498,0.045 0.914958,0.149994 1.034952,0.254988 z"
     id="path5040"
     style="stroke-width:0.0149993" />
  <path
     d="m 39.058496,92.611166 v 3.149853 h 0.599972 0.599972 v -1.574927 c 0,-1.379935 0.045,-1.619924 0.299986,-1.874912 0.164993,-0.164993 0.464979,-0.299986 0.65997,-0.299986 0.614971,0 0.749965,0.359983 0.809962,2.114901 l 0.06,1.634924 h 0.599972 0.599972 l -0.06,-1.949909 c -0.045,-1.859913 -0.06,-1.964908 -0.43498,-2.324892 -0.539975,-0.539975 -1.334938,-0.644969 -2.009906,-0.254988 l -0.524976,0.314985 v -1.034951 -1.049951 h -0.599972 -0.599972 z"
     id="path5042"
     style="stroke-width:0.0149993" />
  <path
     d="m 54.20779,89.986288 c 0,0.509977 0.015,0.524976 0.599972,0.524976 0.584973,0 0.599972,-0.015 0.599972,-0.524976 0,-0.509976 -0.015,-0.524975 -0.599972,-0.524975 -0.584973,0 -0.599972,0.015 -0.599972,0.524975 z"
     id="path5044"
     style="stroke-width:0.0149993" />
  <path
     d="m 66.357223,92.611166 v 3.149853 h 0.599972 0.599972 v -3.149853 -3.149853 h -0.599972 -0.599972 z"
     id="path5046"
     style="stroke-width:0.0149993" />
  <path
     d="m 50.202977,91.126235 c -1.004954,0.284987 -1.439933,1.559928 -0.749966,2.189898 0.179992,0.179992 0.734966,0.43498 1.229943,0.569973 0.494977,0.149994 1.004953,0.359984 1.124947,0.479978 0.194992,0.194991 0.194992,0.239989 -0.06,0.43498 -0.434979,0.314985 -0.959955,0.254988 -1.379935,-0.164993 -0.464979,-0.479977 -1.409935,-0.539974 -1.409935,-0.09 0,0.434979 0.554975,1.019952 1.154947,1.229942 0.314985,0.104996 0.884958,0.134994 1.379935,0.09 0.689968,-0.075 0.914958,-0.164992 1.259942,-0.554974 0.884958,-0.989954 0.314985,-2.039905 -1.319939,-2.414888 -1.004953,-0.224989 -1.319938,-0.524975 -0.899958,-0.83996 0.344984,-0.239989 0.959955,-0.149993 1.214943,0.194991 0.209991,0.269987 1.259942,0.284986 1.259942,0.015 0,-0.344984 -0.479978,-0.884959 -0.989954,-1.094949 -0.554974,-0.239989 -1.109948,-0.254988 -1.814915,-0.045 z"
     id="path5074"
     style="stroke-width:0.0149993" />
  <path
     d="m 57.762624,91.111236 c -0.599972,0.179991 -0.85496,0.434979 -1.169946,1.124947 -0.359983,0.764965 -0.359983,1.784917 0,2.564881 0.359984,0.809962 1.109949,1.169945 2.1599,1.06495 0.62997,-0.06 0.83996,-0.149993 1.259941,-0.614971 0.269987,-0.284987 0.494977,-0.674969 0.494977,-0.839961 0,-0.254988 -0.104995,-0.299986 -0.569973,-0.299986 -0.479978,0 -0.614972,0.075 -0.749966,0.374982 -0.119994,0.269988 -0.284986,0.374983 -0.599972,0.374983 -0.659969,0 -0.929956,-0.404981 -0.929956,-1.394935 0,-0.929957 0.329985,-1.454932 0.884959,-1.454932 0.299985,0 0.764964,0.374982 0.764964,0.614971 0,0.075 0.299986,0.134994 0.659969,0.134994 H 60.64249 L 60.507496,92.29618 c -0.194991,-0.674968 -0.524976,-0.974954 -1.27494,-1.169945 -0.749965,-0.194991 -0.88496,-0.194991 -1.469932,-0.015 z"
     id="path5076"
     style="stroke-width:0.0149993" />
  <path
     d="m 62.217416,91.171233 c -0.524975,0.224989 -0.959955,0.764965 -0.959955,1.169946 0,0.404981 1.06495,0.374982 1.319938,-0.03 0.22499,-0.374982 1.184945,-0.41998 1.319939,-0.075 0.149993,0.389981 -0.20999,0.62997 -1.094949,0.749965 -1.094949,0.134993 -1.694921,0.674968 -1.694921,1.529928 0.015,1.229943 1.229943,1.784917 2.369889,1.094949 0.419981,-0.254988 0.494977,-0.269987 0.569974,-0.075 0.06,0.149993 0.299986,0.224989 0.779963,0.224989 0.539975,0 0.64497,-0.045 0.509977,-0.179991 -0.119995,-0.119995 -0.179992,-0.779964 -0.179992,-1.949909 0,-1.994907 -0.104995,-2.219897 -1.154946,-2.504884 -0.749965,-0.20999 -1.214943,-0.194991 -1.784917,0.045 z m 1.589926,3.254848 c -0.284987,0.659969 -1.214943,0.794963 -1.454932,0.194991 -0.149993,-0.404981 0.164992,-0.719966 0.869959,-0.884959 0.764965,-0.19499 0.884959,-0.045 0.584973,0.689968 z"
     id="path5078"
     style="stroke-width:0.0149993" />
  <path
     d="m 44.008265,91.201231 c 0,0.045 0.374983,1.139948 0.824962,2.444886 0.674969,1.889913 0.809962,2.399889 0.689968,2.669876 -0.104995,0.22499 -0.284987,0.344984 -0.539975,0.344984 -0.314985,0 -0.374983,0.075 -0.374983,0.449979 0,0.254988 0.09,0.494977 0.209991,0.539975 0.359983,0.134994 1.424933,-0.239989 1.604925,-0.554974 0.179991,-0.344984 2.084903,-5.699735 2.084903,-5.879726 0,-0.075 -0.284987,-0.104995 -0.629971,-0.075 l -0.629971,0.045 -0.449979,1.619924 c -0.239989,0.884959 -0.494977,1.529928 -0.539974,1.424933 -0.06,-0.104995 -0.299987,-0.85496 -0.524976,-1.664922 l -0.41998,-1.454932 h -0.65997 c -0.344984,0 -0.64497,0.045 -0.64497,0.09 z"
     id="path5094"
     style="stroke-width:0.0149993" />
  <path
     d="m 54.20779,93.436127 v 2.324892 h 0.599972 0.599972 V 93.436127 91.111236 H 54.807762 54.20779 Z"
     id="path5096"
     style="stroke-width:0.0149993" />
</svg>
