<?xml version="1.0" encoding="UTF-8" standalone="no"?>
<!-- Created with Inkscape (http://www.inkscape.org/) -->

<svg
   width="100mm"
   height="100mm"
   viewBox="0 0 100 100"
   version="1.1"
   id="svg26768"
   xmlns="http://www.w3.org/2000/svg"
   xmlns:svg="http://www.w3.org/2000/svg">
  <defs
     id="defs26765" />
  <path
     d="m 20.815516,2.1942574 c -1.092966,0.325564 -2.278955,1.3952757 -2.74404,2.4649865 -0.441835,0.953439 -0.441835,1.9998949 -0.395333,31.0681351 l 0.06975,30.091444 0.581368,0.837164 c 0.302311,0.465092 0.976693,1.116223 1.488299,1.441786 l 0.93018,0.604619 h 30.068185 c 24.742894,0 30.207711,-0.04651 30.835592,-0.325564 0.976691,-0.395329 2.16268,-1.767348 2.488241,-2.860315 0.186035,-0.627874 0.232547,-9.650655 0.186035,-30.696061 L 84.254045,5.0313169 83.556401,4.0313705 C 83.18433,3.4965142 82.440185,2.8221313 81.928588,2.566331 80.998399,2.0779846 80.928636,2.0779846 51.232522,2.0314761 34.861291,2.0082153 21.164337,2.0779775 20.815516,2.1942574 Z m 60.275905,3.3951707 0.488346,0.6278734 -0.0465,29.3938055 -0.06975,29.41706 -0.558109,0.441837 c -0.534855,0.418583 -1.348771,0.441837 -29.951919,0.441837 H 21.55965 l -0.558109,-0.581365 -0.581358,-0.55811 V 35.494834 c 0,-29.2775325 0,-29.2775325 0.488335,-29.9054059 l 0.465096,-0.6046196 h 29.626362 29.62635 z"
     id="path4692"
     style="stroke-width:0.0232546" />
  <path
     d="m 26.233832,14.984284 c 0,2.302203 0.06974,4.185826 0.162785,4.185826 0.09301,0 0.651131,-0.465092 1.23249,-1.046456 l 1.069715,-1.046458 6.836851,6.999634 6.813602,6.999632 2.116158,-2.116167 2.116169,-2.116169 -6.929865,-6.929869 -6.906615,-6.906614 1.092967,-1.116221 1.116215,-1.092965 h -4.371861 -4.348611 z"
     id="path4694"
     style="stroke-width:0.0232546" />
  <path
     d="m 68.161862,11.914677 1.092975,1.092966 -6.860112,6.860105 c -3.767242,3.767244 -6.860103,6.953122 -6.860103,7.092651 0,0.116272 0.860418,1.092966 1.906873,2.139424 l 1.930132,1.930129 6.976376,-6.976377 6.976387,-6.976379 1.046453,1.046458 c 0.558108,0.581364 1.116218,1.046456 1.20924,1.046456 0.09301,0 0.186037,-1.883623 0.186037,-4.185826 v -4.185827 h -4.348613 -4.3486 z"
     id="path4696"
     style="stroke-width:0.0232546" />
  <path
     d="m 35.489162,46.773311 -6.929865,6.92987 -1.162738,-1.16273 -1.162727,-1.139476 v 4.34861 4.348608 h 4.348611 4.34861 l -1.139476,-1.16273 -1.162728,-1.162729 6.976375,-6.976378 6.976378,-6.976378 -1.976634,-1.976639 c -1.069715,-1.092967 -2.023157,-1.976641 -2.092917,-1.976641 -0.06976,0 -3.232386,3.116116 -7.022889,6.906613 z"
     id="path4698"
     style="stroke-width:0.0232546" />
  <path
     d="m 57.441495,41.796829 c -1.046455,1.046457 -1.906873,2.023149 -1.906873,2.185931 0,0.139528 3.092861,3.302154 6.883364,7.046141 l 6.906614,6.790343 -1.139478,1.139474 -1.116215,1.139475 h 4.3486 4.348613 v -4.348608 -4.34861 l -1.162729,1.139476 -1.162728,1.16273 -6.929875,-6.92987 c -3.790502,-3.790497 -6.953125,-6.906613 -7.022887,-6.906613 -0.06976,0 -0.976693,0.86042 -2.046406,1.930131 z"
     id="path4700"
     style="stroke-width:0.0232546" />
  <path
     d="m 30.18712,92.166275 v 4.90672 h 0.930179 0.930181 v -1.860369 -1.860365 h 1.627823 c 1.86037,0 2.092919,0.20929 2.092919,1.953384 0,1.627823 0.116272,1.76735 1.441786,1.76735 0.906928,0 1.116215,-0.06976 0.930179,-0.302311 -0.116272,-0.139527 -0.279059,-0.999946 -0.325559,-1.883621 -0.06976,-1.302257 -0.186037,-1.67433 -0.627881,-2.02315 l -0.534857,-0.441837 0.674391,-0.558111 c 0.558109,-0.488346 0.651122,-0.744147 0.651122,-1.744094 0,-1.023202 -0.09301,-1.279002 -0.767395,-1.930131 l -0.744154,-0.7674 -3.139362,-0.06976 -3.139372,-0.09303 z m 5.302042,-2.860314 c 0.604619,0.418583 0.697632,1.511547 0.139534,1.976639 -0.209296,0.162783 -0.999952,0.302311 -1.906881,0.302311 l -1.558061,0.02325 -0.06975,-1.348767 -0.06975,-1.325512 h 1.465037 c 0.95344,0 1.651074,0.116272 1.999895,0.372074 z"
     id="path4822"
     style="stroke-width:0.0232546" />
  <path
     d="m 56.464802,88.933887 c 0,0.767401 -0.06975,0.930184 -0.465094,0.930184 -0.372062,0 -0.465086,0.162783 -0.465086,0.697638 0,0.534856 0.09301,0.697637 0.465086,0.697637 0.441844,0 0.465094,0.162782 0.465094,2.534752 0,3.023095 0.139525,3.278897 1.883631,3.278897 1.116217,0 1.139468,-0.02324 1.139468,-0.697639 0,-0.581365 -0.09301,-0.697637 -0.581358,-0.697637 -0.58137,0 -0.58137,0 -0.58137,-2.209186 0,-2.209187 0,-2.209187 0.58137,-2.209187 0.488345,0 0.581358,-0.116272 0.581358,-0.697637 0,-0.581365 -0.09301,-0.697638 -0.581358,-0.697638 -0.511608,0 -0.58137,-0.09303 -0.58137,-0.930184 v -0.930184 h -0.93018 -0.930191 z"
     id="path4848"
     style="stroke-width:0.0232546" />
  <path
     d="m 41.116774,90.026854 c -0.999942,0.511599 -1.860369,2.116167 -1.860369,3.441679 0,0.5116 0.232546,1.41853 0.534856,1.97664 0.674392,1.37202 1.697586,1.906877 3.37192,1.790604 2.116169,-0.162782 3.371919,-1.558058 3.371919,-3.767244 0,-2.209187 -1.25575,-3.604462 -3.371919,-3.767245 -0.883679,-0.06976 -1.465037,0.02325 -2.046407,0.325566 z m 2.999849,1.837111 c 1.116215,1.418531 0.325559,3.813754 -1.255752,3.813754 -0.860418,0 -1.20924,-0.325565 -1.511549,-1.418531 -0.279059,-0.930183 0.06976,-2.418477 0.651131,-2.744041 0.744144,-0.441838 1.604562,-0.279054 2.11617,0.348818 z"
     id="path4954"
     style="stroke-width:0.0232546" />
  <path
     d="m 62.162177,90.096617 c -0.534847,0.2558 -1.139477,0.790656 -1.395275,1.209239 -0.558108,0.976692 -0.581358,3.255642 -0.0465,4.3021 0.720893,1.348767 3.092861,2.116167 4.418374,1.441784 0.744144,-0.395327 1.790598,-1.418529 1.790598,-1.767349 0,-0.441838 -1.720836,-0.395328 -2.092909,0.0465 -0.674381,0.81391 -2.558012,0.162783 -2.558012,-0.883675 0,-0.348818 0.32557,-0.395328 2.46499,-0.395328 h 2.488241 l -0.16278,-1.092961 c -0.186047,-1.418529 -0.767405,-2.348713 -1.767358,-2.883568 -1.046454,-0.558112 -1.976634,-0.558112 -3.139372,0.02325 z m 2.488251,1.558059 c 0.790646,0.720891 0.534858,0.999945 -0.976701,0.999945 -0.767407,0 -1.395276,-0.06976 -1.395276,-0.186035 0,-0.09303 0.162786,-0.418583 0.372083,-0.697638 0.418572,-0.60462 1.395264,-0.674383 1.999894,-0.116272 z"
     id="path4956"
     style="stroke-width:0.0232546" />
  <path
     d="m 71.18496,89.980344 c -0.418584,0.186037 -0.767395,0.441837 -0.767395,0.581365 0,0.116272 -0.09301,0.232545 -0.232547,0.232545 -0.116272,0 -0.232548,-0.209291 -0.232548,-0.465092 0,-0.372074 -0.162786,-0.465091 -0.813906,-0.465091 h -0.813917 v 3.604462 3.604462 h 0.93019 0.930181 v -2.162677 c 0,-2.488242 0.255798,-3.046353 1.511538,-3.278898 0.767405,-0.162782 0.813918,-0.209292 0.813918,-1.069711 0,-1.023203 -0.162786,-1.092966 -1.325514,-0.581365 z"
     id="path4958"
     style="stroke-width:0.0232546" />
  <path
     d="m 48.093151,92.631368 c 0,1.534803 0.09301,3.046351 0.232547,3.39517 0.488346,1.279002 2.7673,1.534803 3.97654,0.441837 0.418583,-0.372073 0.441834,-0.372073 0.441834,0.09303 0,0.441837 0.139524,0.511603 0.93018,0.511603 h 0.93019 V 93.468541 89.86408 h -1.046454 -1.046464 v 2.511495 c 0,2.162678 -0.06974,2.581261 -0.418584,2.906824 -0.488346,0.441837 -1.046453,0.488347 -1.697584,0.162783 -0.395324,-0.232547 -0.441835,-0.511601 -0.441835,-2.906825 v -2.674281 h -0.93018 -0.93019 z"
     id="path5006"
     style="stroke-width:0.0232546" />
</svg>
