<?xml version="1.0" encoding="UTF-8" standalone="no"?>
<!-- Created with Inkscape (http://www.inkscape.org/) -->

<svg
   width="100mm"
   height="100mm"
   viewBox="0 0 100 100"
   version="1.1"
   id="svg26768"
   xmlns="http://www.w3.org/2000/svg"
   xmlns:svg="http://www.w3.org/2000/svg">
  <defs
     id="defs26765" />
  <path
     d="m 26.572923,1.7547665 c -1.61623,0.412662 -3.077713,1.5646515 -3.834245,3.0261347 l -0.464237,0.859702 -0.05158,33.3046338 -0.03439,33.304635 0.361072,0.997248 c 0.515818,1.341126 1.788168,2.613477 3.129295,3.112101 l 0.997247,0.378266 h 24.535734 24.535734 l 1.031636,-0.498624 c 1.186381,-0.550205 2.355567,-1.719393 2.888579,-2.905773 l 0.378263,-0.808115 V 39.254727 5.9844749 L 79.598988,5.0216159 C 79.014395,3.7836528 77.948371,2.7176369 76.710409,2.1330391 l -0.96286,-0.44704 -24.329406,-0.03439 c -13.376876,0 -24.552928,0.03439 -24.845224,0.1031684 z m 49.398152,2.4071589 c 0.739339,0.3782611 1.237962,0.89408 1.685004,1.7365873 0.30949,0.5845864 0.326685,1.5130559 0.326685,25.2750703 0,23.486902 -0.0172,24.724865 -0.309491,25.584561 -0.429848,1.203575 -1.736587,2.613476 -2.905773,3.146489 l -0.911278,0.412654 H 51.074269 28.292316 l -0.790921,-0.39546 c -1.237963,-0.618982 -2.149241,-1.495872 -2.682253,-2.579089 l -0.48143,-0.980054 V 31.259556 6.1564222 l 0.412655,-0.6705715 c 0.22352,-0.3610664 0.773726,-0.8768853 1.203575,-1.1519895 L 26.727668,3.835237 h 24.295019 c 23.555679,0 24.329406,0.017195 24.948388,0.3266884 z M 26.263432,60.02499 c 1.788168,1.1348 0.378267,1.083218 25.257878,1.031636 l 22.506851,-0.05158 1.151993,-0.5674 c 0.790921,-0.378267 1.427096,-0.87689 2.028883,-1.547453 l 0.876891,-0.980054 -0.05158,7.04951 -0.05159,7.049511 -0.48143,0.825308 c -0.257908,0.447042 -0.808115,1.031635 -1.18638,1.289544 l -0.722146,0.464236 -24.071498,0.05158 c -17.021987,0.03439 -24.277824,0 -24.74206,-0.137551 -0.842503,-0.240715 -1.822556,-1.117606 -2.200823,-1.977302 -0.292297,-0.636175 -0.326684,-1.289544 -0.326684,-7.634103 v -6.946347 l 0.584594,0.773727 c 0.326685,0.429848 0.962861,1.014442 1.427096,1.306738 z"
     id="path4624"
     style="stroke-width:0.0171939" />
  <path
     d="m 35.083916,17.624767 v 3.129291 l 0.773728,-0.756533 0.773726,-0.756534 3.610724,3.593538 3.610726,3.610721 1.461483,-1.461483 c 0.808114,-0.790923 1.461483,-1.530262 1.461483,-1.633419 0,-0.103169 -1.58184,-1.753782 -3.524754,-3.696695 l -3.524756,-3.524759 0.808115,-0.808118 0.808115,-0.825301 h -3.129295 -3.129295 z"
     id="path4626"
     style="stroke-width:0.0171939" />
  <path
     d="m 61.648533,15.355166 0.859696,0.859702 -3.576336,3.576331 -3.559143,3.559149 1.495872,1.513067 1.513065,1.495861 3.559144,-3.559137 3.576336,-3.576331 0.859696,0.85969 0.859697,0.842508 V 17.71074 14.495475 h -3.215265 -3.215264 z"
     id="path4628"
     style="stroke-width:0.0171939" />
  <path
     d="m 40.207707,40.578659 -3.576337,3.576337 -0.773726,-0.773727 -0.773728,-0.756532 v 3.129293 3.129295 h 3.129295 3.129295 l -0.808115,-0.825308 -0.808115,-0.808114 3.524756,-3.524755 c 1.942914,-1.942914 3.524754,-3.593531 3.524754,-3.696694 0,-0.171939 -2.768222,-3.008939 -2.922966,-3.008939 -0.05158,0 -1.685006,1.599041 -3.645113,3.559144 z"
     id="path4630"
     style="stroke-width:0.0171939" />
  <path
     d="m 56.868622,38.515388 -1.495872,1.513066 3.559143,3.559143 3.576336,3.576336 -0.859696,0.859696 -0.842502,0.859696 h 3.215264 3.215265 v -3.215264 -3.215264 l -0.859697,0.842503 -0.859696,0.859696 -3.576336,-3.576337 -3.559144,-3.559144 z"
     id="path4632"
     style="stroke-width:0.0171939" />
  <path
     d="m 37.147187,65.045617 v 1.031636 h -1.031635 -1.031636 v 3.266846 3.266846 l 5.29573,-0.03439 5.278536,-0.05158 0.05158,-3.232459 0.03439,-3.215264 h -1.117601 -1.117606 v -1.031635 -1.031636 h -3.180876 -3.180877 z"
     id="path4634"
     style="stroke-width:0.0171939" />
  <path
     d="m 58.639596,65.045617 v 1.031636 h -1.031635 -1.031636 v 3.266846 3.266846 l 5.295729,-0.03439 5.278537,-0.05158 0.05158,-3.232457 0.03439,-3.215265 H 66.11896 65.001354 v -1.031639 -1.031636 h -3.180877 -3.180876 z"
     id="path4636"
     style="stroke-width:0.0171939" />
  <path
     d="m 35.771673,94.086159 v 3.627919 h 0.687757 0.687757 V 96.338564 94.96305 h 1.203575 c 1.375514,0 1.547454,0.154745 1.547454,1.44429 0,1.203575 0.08597,1.306738 1.066024,1.306738 0.670563,0 0.825308,-0.05158 0.687757,-0.223521 -0.08597,-0.103168 -0.206328,-0.739339 -0.240715,-1.392709 -0.05158,-0.962859 -0.137552,-1.237962 -0.464236,-1.495871 l -0.39546,-0.326684 0.498623,-0.412655 c 0.412655,-0.361072 0.48143,-0.550205 0.48143,-1.289544 0,-0.756532 -0.06878,-0.945666 -0.567399,-1.427096 l -0.550207,-0.5674 -2.321179,-0.05158 -2.321181,-0.06878 z m 3.920216,-2.114853 c 0.447041,0.309491 0.515818,1.117606 0.103169,1.461484 -0.154746,0.120358 -0.739339,0.223522 -1.409903,0.223522 l -1.151993,0.01719 -0.05158,-0.997247 -0.05158,-0.980054 h 1.083217 c 0.704951,0 1.220769,0.08597 1.478678,0.275103 z"
     id="path4820"
     style="stroke-width:0.0171939" />
  <path
     d="m 55.200811,91.696204 c 0,0.567399 -0.05158,0.687757 -0.343878,0.687757 -0.275103,0 -0.343879,0.120356 -0.343879,0.515817 0,0.39546 0.06878,0.515819 0.343879,0.515819 0.326685,0 0.343878,0.120357 0.343878,1.874137 0,2.23521 0.103169,2.424344 1.392708,2.424344 0.825308,0 0.842503,-0.01719 0.842503,-0.515817 0,-0.429849 -0.06878,-0.515818 -0.429849,-0.515818 -0.429848,0 -0.429848,0 -0.429848,-1.633424 0,-1.633422 0,-1.633422 0.429848,-1.633422 0.361073,0 0.429849,-0.08597 0.429849,-0.515819 0,-0.429848 -0.06878,-0.515817 -0.429849,-0.515817 -0.378266,0 -0.429848,-0.06878 -0.429848,-0.687757 v -0.687758 h -0.687757 -0.687757 z"
     id="path4846"
     style="stroke-width:0.0171939" />
  <path
     d="m 43.85282,92.504317 c -0.73934,0.378267 -1.375515,1.564649 -1.375515,2.544702 0,0.378267 0.171939,1.048829 0.39546,1.461485 0.498624,1.01444 1.255157,1.409901 2.49312,1.323932 1.564647,-0.120358 2.493119,-1.151993 2.493119,-2.785417 0,-1.633422 -0.928472,-2.665058 -2.493119,-2.785416 -0.653369,-0.05158 -1.083218,0.01719 -1.513065,0.240714 z m 2.218016,1.358321 c 0.825309,1.048829 0.240714,2.819805 -0.928472,2.819805 -0.636175,0 -0.894085,-0.240716 -1.117606,-1.048831 -0.206326,-0.687757 0.05158,-1.788168 0.481431,-2.028882 0.550205,-0.326685 1.186381,-0.206328 1.564647,0.257908 z"
     id="path4948"
     style="stroke-width:0.0171939" />
  <path
     d="m 59.413324,92.5559 c -0.395461,0.189133 -0.842504,0.584594 -1.031637,0.894084 -0.412654,0.722145 -0.429848,2.40715 -0.03439,3.180876 0.533011,0.997248 2.286792,1.564648 3.266845,1.066024 0.550207,-0.292297 1.323933,-1.04883 1.323933,-1.306738 0,-0.326685 -1.272351,-0.292298 -1.547454,0.03439 -0.498623,0.601786 -1.891332,0.120357 -1.891332,-0.65337 0,-0.257909 0.240715,-0.292297 1.822557,-0.292297 h 1.83975 l -0.120358,-0.808113 c -0.13755,-1.04883 -0.567399,-1.736588 -1.306738,-2.132048 -0.773726,-0.412654 -1.461483,-0.412654 -2.32118,0.0172 z m 1.839749,1.151993 c 0.584594,0.533012 0.39546,0.739338 -0.722145,0.739338 -0.567399,0 -1.031635,-0.05158 -1.031635,-0.137551 0,-0.06878 0.120357,-0.30949 0.275103,-0.515817 0.30949,-0.447043 1.031635,-0.498625 1.478677,-0.08597 z"
     id="path4950"
     style="stroke-width:0.0171939" />
  <path
     d="m 66.084567,92.46993 c -0.309492,0.137551 -0.5674,0.326685 -0.5674,0.429848 0,0.08597 -0.06878,0.171939 -0.171939,0.171939 -0.08597,0 -0.17194,-0.154744 -0.17194,-0.343878 0,-0.275102 -0.120357,-0.343878 -0.601788,-0.343878 h -0.601786 v 2.665058 2.665059 h 0.687757 0.687757 v -1.599035 c 0,-1.83975 0.189133,-2.252405 1.117605,-2.424344 0.567399,-0.120358 0.601787,-0.154745 0.601787,-0.790921 0,-0.756533 -0.120357,-0.808113 -0.980053,-0.429848 z"
     id="path4952"
     style="stroke-width:0.0171939" />
  <path
     d="m 48.839058,94.430038 c 0,1.134799 0.06878,2.252405 0.17194,2.510313 0.361072,0.945665 2.046076,1.134799 2.940161,0.326685 0.30949,-0.275103 0.326685,-0.275103 0.326685,0.06878 0,0.326685 0.103168,0.378267 0.687757,0.378267 h 0.687757 v -2.66506 -2.665058 h -0.773727 -0.773727 v 1.856943 c 0,1.599036 -0.05158,1.908526 -0.309491,2.149242 -0.361072,0.326683 -0.773726,0.361072 -1.255157,0.120357 -0.292296,-0.171939 -0.326685,-0.378267 -0.326685,-2.149241 v -1.977301 h -0.687755 -0.687758 z"
     id="path5004"
     style="stroke-width:0.0171939" />
</svg>
