<?xml version="1.0" encoding="UTF-8" standalone="no"?>
<!-- Created with Inkscape (http://www.inkscape.org/) -->

<svg
   width="100mm"
   height="100mm"
   viewBox="0 0 100 100"
   version="1.1"
   id="svg26768"
   xmlns="http://www.w3.org/2000/svg"
   xmlns:svg="http://www.w3.org/2000/svg">
  <defs
     id="defs26765" />
  <path
     d="M 24.445856,1.4873311 C 23.513369,1.765093 22.501517,2.6777405 22.10472,3.5903871 21.727759,4.403834 21.727759,5.2966403 21.767433,30.096832 l 0.05951,25.673159 0.496007,0.714245 c 0.257923,0.396803 0.833286,0.952329 1.269774,1.23009 l 0.793603,0.515844 h 25.653316 c 21.109929,0 25.772355,-0.03968 26.308045,-0.277762 0.833285,-0.337283 1.845137,-1.507851 2.122896,-2.440339 0.15872,-0.535684 0.198403,-8.233663 0.15872,-26.189002 L 78.569795,3.9078292 77.974585,3.0547035 C 77.657145,2.5983794 77.022262,2.0230152 76.585782,1.8047737 75.792171,1.3881305 75.732651,1.3881305 50.396776,1.3484508 36.42931,1.3286053 24.74346,1.3881244 24.445856,1.4873311 Z m 51.425679,2.8966626 0.416643,0.5356836 -0.03967,25.0779547 -0.05951,25.097794 -0.476162,0.376963 c -0.456325,0.357123 -1.150735,0.376963 -25.554123,0.376963 H 25.08073 L 24.604567,55.353348 24.108569,54.877184 V 29.898431 c 0,-24.9787537 0,-24.9787537 0.416634,-25.5144373 l 0.396806,-0.5158442 h 25.276365 25.276355 z"
     id="path4692"
     style="stroke-width:0.0198402" />
  <path
     d="m 29.068608,12.399416 c 0,1.964174 0.0595,3.571227 0.138884,3.571227 0.07935,0 0.555526,-0.396803 1.051525,-0.892806 l 0.91265,-0.892808 5.833006,5.971887 5.813171,5.971886 1.805445,-1.805453 1.805455,-1.805455 -5.912363,-5.912366 -5.892526,-5.892526 0.932488,-0.9523271 0.952323,-0.9324866 h -3.729947 -3.710111 z"
     id="path4694"
     style="stroke-width:0.0198402" />
  <path
     d="m 64.840405,9.7805147 0.932495,0.9324873 -5.852852,5.852846 c -3.214103,3.214105 -5.852843,5.932205 -5.852843,6.051247 0,0.0992 0.734084,0.932487 1.626889,1.825295 l 1.646734,1.646731 5.952044,-5.952045 5.952054,-5.952047 0.892804,0.892808 c 0.476162,0.496003 0.952325,0.892806 1.031689,0.892806 0.07935,0 0.158721,-1.607053 0.158721,-3.571227 V 8.8281883 h -3.710112 -3.710101 z"
     id="path4696"
     style="stroke-width:0.0198402" />
  <path
     d="m 36.964991,39.520905 -5.912362,5.912367 -0.992015,-0.992008 -0.992006,-0.972168 v 3.710109 3.710108 h 3.710111 3.71011 l -0.972169,-0.992008 -0.992006,-0.992007 5.952044,-5.952046 5.952046,-5.952046 -1.686408,-1.686412 c -0.91265,-0.932488 -1.726099,-1.686414 -1.785617,-1.686414 -0.05952,0 -2.757779,2.658581 -5.991728,5.892525 z"
     id="path4698"
     style="stroke-width:0.0198402" />
  <path
     d="m 55.694094,35.275113 c -0.892805,0.892807 -1.626889,1.726093 -1.626889,1.864974 0,0.119041 2.63874,2.817303 5.872689,6.011566 l 5.892526,5.793326 -0.97217,0.972167 -0.952323,0.972167 h 3.710101 3.710112 v -3.710108 -3.710109 l -0.992007,0.972168 -0.992006,0.992008 -5.912371,-5.912367 c -3.233948,-3.233944 -5.932208,-5.892525 -5.991727,-5.892525 -0.05952,0 -0.833286,0.734086 -1.745935,1.646733 z"
     id="path4700"
     style="stroke-width:0.0198402" />
  <path
     d="m 32.441441,78.248884 v 4.186273 h 0.793602 0.793604 v -1.587213 -1.587211 h 1.388812 c 1.587214,0 1.785618,0.178561 1.785618,1.666572 0,1.388812 0.0992,1.507852 1.230091,1.507852 0.773765,0 0.952323,-0.05952 0.793602,-0.257923 -0.0992,-0.11904 -0.238085,-0.853125 -0.277758,-1.607051 -0.05952,-1.111049 -0.158721,-1.428491 -0.53569,-1.726094 l -0.456324,-0.376963 0.575371,-0.476164 c 0.476162,-0.416643 0.555518,-0.634885 0.555518,-1.488011 0,-0.872967 -0.07935,-1.091208 -0.654719,-1.646733 l -0.634891,-0.654724 -2.678414,-0.05952 -2.678422,-0.07937 z m 4.52355,-2.440338 c 0.515844,0.357123 0.5952,1.289609 0.119047,1.686412 -0.178566,0.138882 -0.853131,0.257923 -1.626897,0.257923 l -1.329293,0.01984 -0.05951,-1.150729 -0.05951,-1.130889 h 1.249928 c 0.813448,0 1.408649,0.0992 1.706253,0.317443 z"
     id="path4822"
     style="stroke-width:0.0198402" />
  <path
     d="m 54.860808,75.491103 c 0,0.654725 -0.05951,0.793606 -0.396805,0.793606 -0.317433,0 -0.396798,0.138882 -0.396798,0.595205 0,0.456324 0.07935,0.595204 0.396798,0.595204 0.376968,0 0.396805,0.138881 0.396805,2.162578 0,2.579218 0.119038,2.797461 1.60706,2.797461 0.952324,0 0.972161,-0.01983 0.972161,-0.595205 0,-0.496004 -0.07935,-0.595204 -0.495998,-0.595204 -0.496008,0 -0.496008,0 -0.496008,-1.884815 0,-1.884815 0,-1.884815 0.496008,-1.884815 0.416642,0 0.495998,-0.0992 0.495998,-0.595204 0,-0.496004 -0.07935,-0.595205 -0.495998,-0.595205 -0.436489,0 -0.496008,-0.07937 -0.496008,-0.793606 V 74.697497 H 55.65442 54.860808 Z"
     id="path4848"
     style="stroke-width:0.0198402" />
  <path
     d="m 41.766309,76.423591 c -0.853122,0.436482 -1.587214,1.805453 -1.587214,2.936342 0,0.436483 0.198402,1.21025 0.456324,1.686413 0.575372,1.170568 1.448332,1.626893 2.876826,1.527692 1.805455,-0.138881 2.876825,-1.32929 2.876825,-3.214105 0,-1.884815 -1.07137,-3.075224 -2.876825,-3.214105 -0.75393,-0.05952 -1.249928,0.01984 -1.745936,0.277763 z m 2.559385,1.567371 c 0.952323,1.21025 0.277758,3.253786 -1.071371,3.253786 -0.734084,0 -1.031689,-0.277763 -1.289611,-1.21025 -0.238085,-0.793606 0.05952,-2.063376 0.555527,-2.341138 0.634882,-0.376963 1.368966,-0.238081 1.805455,0.297602 z"
     id="path4954"
     style="stroke-width:0.0198402" />
  <path
     d="m 59.721645,76.483111 c -0.456316,0.218241 -0.972169,0.674565 -1.190409,1.031688 -0.476161,0.833286 -0.495998,2.777621 -0.03967,3.670429 0.615045,1.150729 2.63874,1.805453 3.76963,1.230089 0.634882,-0.337282 1.527687,-1.210249 1.527687,-1.507852 0,-0.376963 -1.468168,-0.337282 -1.78561,0.03967 -0.575363,0.694405 -2.182423,0.138882 -2.182423,-0.753926 0,-0.297602 0.277767,-0.337283 2.103059,-0.337283 h 2.122896 L 63.907926,78.923443 C 63.749196,77.713195 63.253198,76.919588 62.400067,76.463265 61.507262,75.9871 60.713659,75.9871 59.721644,76.483097 Z m 2.122905,1.329291 c 0.674556,0.615044 0.456325,0.853125 -0.833294,0.853125 -0.654729,0 -1.190409,-0.05952 -1.190409,-0.15872 0,-0.07937 0.138884,-0.357123 0.31745,-0.595205 0.357114,-0.515844 1.1904,-0.575364 1.706253,-0.0992 z"
     id="path4956"
     style="stroke-width:0.0198402" />
  <path
     d="m 67.419626,76.38391 c -0.357124,0.158722 -0.65472,0.376963 -0.65472,0.496004 0,0.0992 -0.07935,0.198401 -0.198402,0.198401 -0.0992,0 -0.198404,-0.178561 -0.198404,-0.396803 0,-0.317443 -0.138884,-0.396803 -0.694401,-0.396803 h -0.694411 v 3.075224 3.075224 h 0.793612 0.793604 v -1.845134 c 0,-2.122897 0.218239,-2.599061 1.289601,-2.797462 0.654728,-0.138881 0.694411,-0.178562 0.694411,-0.912647 0,-0.872967 -0.138884,-0.932487 -1.13089,-0.496004 z"
     id="path4958"
     style="stroke-width:0.0198402" />
  <path
     d="m 47.718354,78.645688 c 0,1.30945 0.07935,2.59906 0.198403,2.896662 0.416643,1.091208 2.360981,1.30945 3.39267,0.376963 0.357123,-0.317442 0.37696,-0.317442 0.37696,0.07937 0,0.376963 0.119038,0.436485 0.793603,0.436485 h 0.793612 V 79.35994 76.284717 h -0.892805 -0.892813 v 2.142736 c 0,1.845135 -0.0595,2.202258 -0.357124,2.480019 -0.416643,0.376963 -0.892804,0.416644 -1.44833,0.138882 -0.337279,-0.198403 -0.376961,-0.436484 -0.376961,-2.48002 v -2.28162 h -0.793603 -0.793612 z"
     id="path5006"
     style="stroke-width:0.0198402" />
  <path
     d="m 24.564894,89.022088 c -0.892804,1.527692 -1.249928,2.757782 -1.249928,4.424355 0,2.480019 1.34913,5.456043 2.499865,5.456043 0.5952,0 0.5952,-0.119051 0,-1.329293 -1.210255,-2.440338 -1.210255,-5.614762 0,-8.372543 0.257922,-0.575365 0.476162,-1.091209 0.476162,-1.130889 0,-0.03967 -0.257931,-0.07937 -0.555527,-0.07937 -0.456325,0 -0.654727,0.178561 -1.170572,1.031688 z"
     id="path5024"
     style="stroke-width:0.0198402" />
  <path
     d="m 73.708958,88.089602 c 0,0.05952 0.218239,0.535683 0.476161,1.051527 0.69441,1.388811 0.972169,2.936343 0.872968,4.920358 -0.07935,1.666572 -0.21824,2.182417 -1.289611,4.602917 -0.07935,0.198398 0.05952,0.257914 0.535682,0.198398 0.575371,-0.05948 0.734092,-0.21824 1.329292,-1.269768 0.357124,-0.65472 0.813449,-1.805453 0.992006,-2.559379 0.436489,-1.805454 0.15873,-3.591067 -0.892805,-5.555244 -0.674564,-1.230089 -0.833285,-1.388809 -1.388812,-1.44833 -0.357123,-0.03968 -0.634881,-0.01984 -0.634881,0.05952 z"
     id="path5026"
     style="stroke-width:0.0198402" />
  <path
     d="m 28.51309,92.216353 c -0.773767,2.202257 -1.428494,4.087072 -1.428494,4.166432 0,0.07936 0.376961,0.138881 0.853131,0.138881 0.813439,0 0.853122,-0.03968 1.150726,-0.853126 l 0.317442,-0.833286 1.488013,-0.05952 1.50785,-0.05952 0.277759,0.853128 c 0.277767,0.833286 0.317441,0.853126 1.249928,0.912646 0.714247,0.03967 0.91265,0 0.853131,-0.198401 -0.05952,-0.138881 -0.714247,-2.023696 -1.468167,-4.166433 l -1.368976,-3.928356 h -0.992006 -0.992014 z m 3.333141,0.972168 c 0,0.0992 -0.456325,0.15872 -1.011843,0.15872 -0.734092,0 -0.992006,-0.07937 -0.932495,-0.257921 0.05952,-0.119042 0.31745,-0.872967 0.555527,-1.626892 l 0.476171,-1.388811 0.456315,1.488011 c 0.257931,0.813445 0.456325,1.547532 0.456325,1.626893 z"
     id="path5048"
     style="stroke-width:0.0198402" />
  <path
     d="m 35.814265,92.355234 v 4.166432 h 0.694401 c 0.47617,0 0.694411,-0.0992 0.694411,-0.297603 0,-0.376963 0.178557,-0.376963 0.615045,0.01984 0.198394,0.178562 0.694401,0.357122 1.111045,0.396811 1.587214,0.198398 2.698258,-1.150737 2.698258,-3.293473 0,-1.944335 -0.97216,-3.095064 -2.579211,-3.055384 -0.515845,0.01984 -1.011852,0.158722 -1.249937,0.376963 -0.396798,0.357123 -0.396798,0.337283 -0.396798,-1.051529 v -1.42849 h -0.793612 -0.793602 z m 3.829148,-0.158721 c 0.476162,0.575365 0.456325,1.944334 -0.07935,2.6189 -1.091209,1.388811 -2.678414,-0.178562 -2.142733,-2.122896 0.317441,-1.150729 1.428493,-1.408652 2.222097,-0.496004 z"
     id="path5050"
     style="stroke-width:0.0198402" />
  <path
     d="m 49.503972,89.577612 c 0,0.654725 -0.05951,0.793606 -0.396806,0.793606 -0.317441,0 -0.396798,0.138882 -0.396798,0.595205 0,0.456324 0.07935,0.595205 0.396798,0.595205 0.37696,0 0.396806,0.138881 0.396806,2.162575 0,2.579222 0.119038,2.797463 1.607051,2.797463 0.952325,0 0.97217,-0.01984 0.97217,-0.595204 0,-0.496005 -0.07935,-0.595204 -0.496007,-0.595204 -0.496007,0 -0.496007,0 -0.496007,-1.884815 0,-1.884815 0,-1.884815 0.496007,-1.884815 0.416642,0 0.496007,-0.0992 0.496007,-0.595205 0,-0.496003 -0.07935,-0.595205 -0.496007,-0.595205 -0.436489,0 -0.496007,-0.07937 -0.496007,-0.793606 v -0.793606 h -0.793604 -0.793603 z"
     id="path5052"
     style="stroke-width:0.0198402" />
  <path
     d="m 70.73293,89.577612 c 0,0.654725 -0.05951,0.793606 -0.396797,0.793606 -0.31745,0 -0.396805,0.138882 -0.396805,0.595205 0,0.456324 0.07935,0.595205 0.396805,0.595205 0.376961,0 0.396797,0.138881 0.396797,2.162575 0,2.579222 0.119047,2.797463 1.607053,2.797463 0.952332,0 0.972169,-0.01984 0.972169,-0.595204 0,-0.496005 -0.07935,-0.595204 -0.495999,-0.595204 -0.496007,0 -0.496007,0 -0.496007,-1.884815 0,-1.884815 0,-1.884815 0.496007,-1.884815 0.416642,0 0.495999,-0.0992 0.495999,-0.595205 0,-0.496003 -0.07935,-0.595205 -0.495999,-0.595205 -0.436489,0 -0.496007,-0.07937 -0.496007,-0.793606 V 88.784006 H 71.526534 70.73293 Z"
     id="path5054"
     style="stroke-width:0.0198402" />
  <path
     d="m 44.008243,90.391059 c -1.329283,0.376963 -1.904647,2.063376 -0.992006,2.896662 0.238086,0.238083 0.972169,0.575365 1.626898,0.753926 0.654719,0.198402 1.329283,0.476163 1.488013,0.634885 0.257922,0.257922 0.257922,0.317442 -0.07935,0.575364 -0.575364,0.416644 -1.269765,0.337284 -1.825292,-0.218241 -0.615046,-0.634885 -1.864974,-0.714245 -1.864974,-0.119041 0,0.575364 0.734075,1.34913 1.527688,1.626893 0.416643,0.138883 1.170563,0.178557 1.825291,0.119041 0.91265,-0.0992 1.210255,-0.218243 1.666579,-0.734086 1.170564,-1.30945 0.416644,-2.698261 -1.745935,-3.194265 -1.329292,-0.297602 -1.745935,-0.694406 -1.190409,-1.111049 0.456325,-0.317442 1.269765,-0.198401 1.607052,0.257922 0.277758,0.357123 1.66657,0.376963 1.66657,0.01983 0,-0.456323 -0.634882,-1.170569 -1.309447,-1.44833 -0.734083,-0.317444 -1.468168,-0.337284 -2.400663,-0.05952 z"
     id="path5080"
     style="stroke-width:0.0198402" />
  <path
     d="m 55.515536,90.47042 c -0.357124,0.15872 -0.654728,0.376962 -0.654728,0.496003 0,0.0992 -0.07935,0.198402 -0.198403,0.198402 -0.0992,0 -0.198402,-0.178562 -0.198402,-0.396803 0,-0.317442 -0.138876,-0.396804 -0.694403,-0.396804 h -0.694401 v 3.075225 3.075223 h 0.793603 0.793603 v -1.845134 c 0,-2.122897 0.218248,-2.59906 1.28962,-2.797462 0.654718,-0.138881 0.694401,-0.178561 0.694401,-0.912647 0,-0.872966 -0.138884,-0.932487 -1.13089,-0.496003 z"
     id="path5082"
     style="stroke-width:0.0198402" />
  <path
     d="m 58.709803,90.45058 c -0.694402,0.297601 -1.269774,1.011848 -1.269774,1.547531 0,0.535685 1.408648,0.496004 1.745936,-0.03968 0.297603,-0.496003 1.567369,-0.555525 1.745935,-0.0992 0.198403,0.515844 -0.277768,0.833288 -1.448332,0.992008 -1.44833,0.178562 -2.241942,0.892807 -2.241942,2.023696 0.01984,1.626893 1.626897,2.360981 3.134747,1.448332 0.555527,-0.337284 0.654728,-0.357123 0.75393,-0.0992 0.07935,0.198402 0.396797,0.297603 1.03168,0.297603 0.714246,0 0.85313,-0.05952 0.674572,-0.238082 -0.158728,-0.158721 -0.238085,-1.031689 -0.238085,-2.579219 0,-2.638741 -0.138883,-2.936344 -1.527695,-3.313307 -0.992006,-0.277763 -1.607051,-0.257922 -2.360972,0.05952 z m 2.10305,4.305312 c -0.37696,0.872967 -1.607051,1.051528 -1.924493,0.257922 -0.198403,-0.535685 0.218239,-0.952327 1.150735,-1.170569 1.011843,-0.257921 1.170564,-0.05951 0.773758,0.912647 z"
     id="path5084"
     style="stroke-width:0.0198402" />
  <path
     d="m 65.514978,90.371218 c -0.793612,0.238082 -1.130898,0.575365 -1.547533,1.488012 -0.47617,1.011848 -0.47617,2.360978 0,3.392666 0.476163,1.071369 1.468169,1.547535 2.856981,1.408652 0.833285,-0.07937 1.111053,-0.198402 1.66657,-0.813448 0.357124,-0.376963 0.654728,-0.892805 0.654728,-1.111048 0,-0.337282 -0.138884,-0.396802 -0.753929,-0.396802 -0.634883,0 -0.81344,0.0992 -0.992006,0.496004 -0.158721,0.357122 -0.37696,0.496004 -0.793612,0.496004 -0.872959,0 -1.230083,-0.535685 -1.230083,-1.845135 0,-1.23009 0.43648,-1.924495 1.170564,-1.924495 0.396806,0 1.011852,0.496004 1.011852,0.813445 0,0.0992 0.396797,0.178562 0.872968,0.178562 h 0.892804 l -0.178558,-0.615044 c -0.257922,-0.892807 -0.69441,-1.28961 -1.686415,-1.547532 -0.992007,-0.257922 -1.170573,-0.257922 -1.944331,-0.01984 z"
     id="path5086"
     style="stroke-width:0.0198402" />
</svg>
