<?xml version="1.0" encoding="UTF-8" standalone="no"?>
<!-- Created with Inkscape (http://www.inkscape.org/) -->

<svg
   width="100mm"
   height="100mm"
   viewBox="0 0 100 100"
   version="1.1"
   id="svg26768"
   sodipodi:docname="saved search.svg"
   inkscape:version="1.1.1 (3bf5ae0d25, 2021-09-20)"
   xmlns:inkscape="http://www.inkscape.org/namespaces/inkscape"
   xmlns:sodipodi="http://sodipodi.sourceforge.net/DTD/sodipodi-0.dtd"
   xmlns="http://www.w3.org/2000/svg"
   xmlns:svg="http://www.w3.org/2000/svg">
  <sodipodi:namedview
     id="namedview26770"
     pagecolor="#ffffff"
     bordercolor="#666666"
     borderopacity="1.0"
     inkscape:pageshadow="2"
     inkscape:pageopacity="0.0"
     inkscape:pagecheckerboard="0"
     inkscape:document-units="mm"
     showgrid="false"
     width="209mm"
     inkscape:zoom="0.7500982"
     inkscape:cx="13.998167"
     inkscape:cy="241.96832"
     inkscape:window-width="1920"
     inkscape:window-height="1027"
     inkscape:window-x="1912"
     inkscape:window-y="-8"
     inkscape:window-maximized="1"
     inkscape:current-layer="layer1" />
  <defs
     id="defs26765" />
  <g
     inkscape:label="Layer 1"
     inkscape:groupmode="layer"
     id="layer1">
    <path
       d="m 48.293149,1.9689932 c -0.2422,0.0427 -6.32547,6.02629 -19.04764,18.7484598 -16.66847,16.66846 -18.69148,18.74846 -18.77696,19.2186 -0.057,0.29917 -0.057,0.71232 -0.0142,0.92602 0.12822,0.49863 36.9698,37.39719 37.66788,37.73911 1.09698,0.51288 0.78356,0.78356 9.64491,-8.07779 l 8.12054,-8.10629 9.11779,9.11779 c 6.05478,6.06904 9.31724,9.21752 9.7019,9.40273 0.75507,0.37041 2.17972,0.38466 2.97753,0.0143 1.16822,-0.52711 2.06575,-1.93752 2.06575,-3.21971 0,-1.42466 0.34191,-1.04 -9.60218,-11.01259 l -9.2745,-9.28875 8.16327,-8.16327 8.14903,-8.14903 v -0.78357 -0.78356 L 68.566029,20.916953 C 57.610429,9.9613532 49.746329,2.1827432 49.475649,2.0687632 c -0.47013,-0.19945 -0.54137,-0.21369 -1.18246,-0.0997 z m 17.66572,21.3413298 17.02463,17.02463 -7.90684,7.90683 -7.90683,7.90684 -1.01151,-1.0115 -1.02575,-1.02576 0.68383,-0.86904 c 4.03178,-5.15725 5.35671,-12.33751 3.49041,-18.91942 -1.69534,-5.94081 -6.35396,-11.18354 -12.03834,-13.59121 -2.89205,-1.21095 -5.21424,-1.68109 -8.40546,-1.68109 -3.67561,0 -6.18301,0.56986 -9.33149,2.10849 -6.18301,3.03452 -10.18629,8.22026 -11.69642,15.18682 -0.2137,0.95452 -0.27069,1.80932 -0.27069,4.06027 0.0143,2.60712 0.0427,2.99178 0.41315,4.5589 1.98028,8.50519 8.46246,14.73093 17.03888,16.39778 1.02575,0.19945 1.98027,0.25644 3.9178,0.25644 2.76383,-0.0143 4.24547,-0.22795 6.56766,-0.99726 1.59562,-0.51288 4.3452,-1.90904 5.67013,-2.87781 0.6126,-0.44164 1.21095,-0.86903 1.31068,-0.95452 0.14246,-0.0997 0.4274,0.0997 1.12548,0.78357 0.51287,0.49862 0.92603,0.98301 0.92603,1.06849 0,0.1852 -15.55724,15.74244 -15.74244,15.74244 -0.0712,0 -7.79287,-7.6504 -17.12436,-16.9819 l -16.99613,-16.99613 17.05312,-17.05312 c 9.38848,-9.38848 17.09586,-17.0673698 17.1386,-17.0673698 0.0427,0 7.73587,7.6646498 17.09586,17.0246298 z m -14.48874,-0.56986 c 5.3567,0.81205 10.07231,4.04602 12.82189,8.83286 5.05753,8.74738 1.62411,20.05914 -7.47944,24.66078 -2.4504,1.2252 -4.5304,1.75232 -7.37971,1.8663 -5.88382,0.21369 -11.41149,-2.45041 -14.94463,-7.20876 -3.33369,-4.50191 -4.31671,-10.41423 -2.64986,-15.89915 1.21096,-3.98903 4.27397,-7.80711 8.0493,-10.05806 3.3337,-1.98027 7.63615,-2.79233 11.58245,-2.19397 z"
       id="path4561"
       style="stroke-width:0.0142466" />
    <path
       d="m 24.216479,92.733763 c -0.65535,0.34192 -1.04,1.06849 -0.94028,1.79507 0.0997,0.81205 0.55562,1.19671 1.8663,1.52438 0.62685,0.15671 1.23945,0.35616 1.38192,0.42739 0.38465,0.19946 0.32767,0.79781 -0.0997,1.0685 -0.64109,0.42739 -2.06575,0 -2.06575,-0.61261 0,-0.12822 -0.19945,-0.1852 -0.62685,-0.1852 -0.59835,0 -0.6126,0.0143 -0.54137,0.38466 0.19946,1.08273 1.26795,1.70958 2.73534,1.56712 1.39616,-0.12822 2.22246,-0.91178 2.08,-2.00877 -0.0997,-0.84054 -0.56986,-1.21095 -2.03726,-1.59561 -1.55287,-0.41315 -1.89479,-0.76931 -1.32493,-1.33918 0.41315,-0.41315 1.19671,-0.38465 1.63836,0.0712 0.19945,0.1852 0.35616,0.41315 0.35616,0.49863 0,0.0712 0.25644,0.14246 0.56986,0.14246 0.48438,0 0.56986,-0.0427 0.56986,-0.28493 0,-0.52712 -0.42739,-1.12548 -0.99726,-1.42466 -0.71232,-0.37041 -1.89479,-0.38465 -2.56437,-0.0285 z"
       id="path4777"
       style="stroke-width:0.0142466" />
    <path
       d="m 50.999989,92.733763 c -0.65534,0.34192 -1.04,1.06849 -0.94027,1.79507 0.0997,0.81205 0.55562,1.19671 1.8663,1.52438 0.62684,0.15671 1.23945,0.35616 1.38191,0.42739 0.38466,0.19946 0.32767,0.79781 -0.0997,1.0685 -0.6411,0.42739 -2.06576,0 -2.06576,-0.61261 0,-0.12822 -0.19945,-0.1852 -0.62684,-0.1852 -0.59836,0 -0.6126,0.0143 -0.54137,0.38466 0.19945,1.08273 1.26794,1.70958 2.73534,1.56712 1.39616,-0.12822 2.22246,-0.91178 2.07999,-2.00877 -0.0997,-0.84054 -0.56986,-1.21095 -2.03725,-1.59561 -1.55288,-0.41315 -1.89479,-0.76931 -1.32493,-1.33918 0.41315,-0.41315 1.19671,-0.38465 1.63835,0.0712 0.19945,0.1852 0.35617,0.41315 0.35617,0.49863 0,0.0712 0.25643,0.14246 0.56986,0.14246 0.48438,0 0.56986,-0.0427 0.56986,-0.28493 0,-0.52712 -0.4274,-1.12548 -0.99726,-1.42466 -0.71233,-0.37041 -1.89479,-0.38465 -2.56438,-0.0285 z"
       id="path4779"
       style="stroke-width:0.0142466" />
    <path
       d="m 45.586299,93.617053 v 0.99726 l -0.45589,-0.28493 c -0.6126,-0.37041 -1.09698,-0.35617 -1.69534,0.0427 -0.64109,0.4274 -0.98301,1.13973 -0.98301,2.06575 0,1.78082 1.36767,2.82082 2.67835,2.02302 0.37041,-0.22795 0.45589,-0.2422 0.45589,-0.0712 0,0.15671 0.15671,0.2137 0.56986,0.2137 h 0.56986 v -2.99177 -2.99178 h -0.56986 -0.56986 z m -0.29917,1.78082 c 0.11397,0.11397 0.22794,0.49863 0.25643,0.88328 0.057,0.55562 0.0143,0.75507 -0.24219,1.06849 -0.8263,1.06849 -2.03726,-0.0997 -1.56712,-1.52438 0.24219,-0.75507 0.99726,-0.95451 1.55288,-0.42739 z"
       id="path4831"
       style="stroke-width:0.0142466" />
    <path
       d="m 72.797209,95.611573 v 2.99177 h 0.56987 0.56986 v -1.49589 c 0,-1.31068 0.0427,-1.53862 0.28493,-1.78082 0.15671,-0.15671 0.44164,-0.28493 0.62685,-0.28493 0.58411,0 0.71232,0.34192 0.76931,2.00877 l 0.057,1.55287 h 0.56986 0.56986 l -0.057,-1.85205 c -0.0427,-1.76657 -0.057,-1.8663 -0.41314,-2.20821 -0.51288,-0.51288 -1.26795,-0.61261 -1.90904,-0.2422 l -0.49863,0.29918 v -0.98301 -0.99726 h -0.56986 -0.56987 z"
       id="path4833"
       style="stroke-width:0.0142466" />
    <path
       d="m 29.687149,94.243903 c -0.49863,0.21369 -0.91178,0.72657 -0.91178,1.11123 0,0.38465 1.01151,0.35616 1.2537,-0.0285 0.2137,-0.35617 1.12548,-0.3989 1.25369,-0.0712 0.14247,0.37041 -0.19945,0.59835 -1.03999,0.71232 -1.04,0.12822 -1.60986,0.6411 -1.60986,1.45315 0.0142,1.16822 1.16821,1.69534 2.25095,1.04 0.3989,-0.24219 0.47014,-0.25644 0.54137,-0.0712 0.057,0.14246 0.28493,0.21369 0.74082,0.21369 0.51288,0 0.6126,-0.0427 0.48438,-0.17095 -0.11397,-0.11398 -0.17096,-0.74082 -0.17096,-1.85206 0,-1.89479 -0.0997,-2.10848 -1.09698,-2.37917 -0.71233,-0.19945 -1.15397,-0.1852 -1.69534,0.0427 z m 1.51014,3.0915 c -0.27069,0.62684 -1.15398,0.75506 -1.38192,0.1852 -0.14247,-0.38465 0.15671,-0.68383 0.8263,-0.84054 0.72657,-0.18521 0.84055,-0.0427 0.55562,0.65534 z"
       id="path4967"
       style="stroke-width:0.0142466" />
    <path
       d="m 38.961649,94.329383 c -0.32767,0.15671 -0.69808,0.48438 -0.85479,0.74081 -0.34191,0.59836 -0.35616,1.99452 -0.0285,2.63562 0.44164,0.8263 1.89479,1.29643 2.70685,0.88329 0.45589,-0.2422 1.09698,-0.86905 1.09698,-1.08275 0,-0.27068 -1.05425,-0.24219 -1.28219,0.0285 -0.41315,0.49862 -1.56712,0.0997 -1.56712,-0.54138 0,-0.21369 0.19945,-0.24219 1.51013,-0.24219 h 1.52438 l -0.0997,-0.66958 c -0.11398,-0.86904 -0.47014,-1.4389 -1.08274,-1.76658 -0.6411,-0.34191 -1.21096,-0.34191 -1.92329,0.0143 z m 1.52438,0.95451 c 0.48439,0.44165 0.32768,0.61261 -0.59835,0.61261 -0.47014,0 -0.85479,-0.0427 -0.85479,-0.11398 0,-0.057 0.0997,-0.25644 0.22794,-0.42739 0.25644,-0.37041 0.8548,-0.41315 1.2252,-0.0712 z"
       id="path4969"
       style="stroke-width:0.0142466" />
    <path
       d="m 56.484909,94.329383 c -0.32767,0.15671 -0.69808,0.48438 -0.85479,0.74081 -0.34192,0.59836 -0.35616,1.99452 -0.0285,2.63562 0.44164,0.8263 1.89479,1.29643 2.70684,0.88329 0.45589,-0.2422 1.09699,-0.86905 1.09699,-1.08275 0,-0.27068 -1.05425,-0.24219 -1.28219,0.0285 -0.41315,0.49862 -1.56712,0.0997 -1.56712,-0.54138 0,-0.21369 0.19945,-0.24219 1.51013,-0.24219 h 1.52438 l -0.0997,-0.66958 c -0.11397,-0.86904 -0.47013,-1.4389 -1.08273,-1.76658 -0.6411,-0.34191 -1.21096,-0.34191 -1.92329,0.0143 z m 1.52438,0.95451 c 0.48439,0.44165 0.32767,0.61261 -0.59835,0.61261 -0.47014,0 -0.85479,-0.0427 -0.85479,-0.11398 0,-0.057 0.0997,-0.25644 0.22794,-0.42739 0.25644,-0.37041 0.85479,-0.41315 1.2252,-0.0712 z"
       id="path4971"
       style="stroke-width:0.0142466" />
    <path
       d="m 61.029559,94.243903 c -0.49863,0.21369 -0.91178,0.72657 -0.91178,1.11123 0,0.38465 1.01151,0.35616 1.2537,-0.0285 0.2137,-0.35617 1.12548,-0.3989 1.25369,-0.0712 0.14247,0.37041 -0.19945,0.59835 -1.03999,0.71232 -1.04,0.12822 -1.60986,0.6411 -1.60986,1.45315 0.0143,1.16822 1.16821,1.69534 2.25095,1.04 0.3989,-0.24219 0.47014,-0.25644 0.54137,-0.0712 0.057,0.14246 0.28493,0.21369 0.74082,0.21369 0.51288,0 0.6126,-0.0427 0.48438,-0.17095 -0.11397,-0.11398 -0.17095,-0.74082 -0.17095,-1.85206 0,-1.89479 -0.0997,-2.10848 -1.09699,-2.37917 -0.71233,-0.19945 -1.15397,-0.1852 -1.69534,0.0427 z m 1.51014,3.0915 c -0.27069,0.62684 -1.15397,0.75506 -1.38192,0.1852 -0.14247,-0.38465 0.15671,-0.68383 0.8263,-0.84054 0.72658,-0.18521 0.84055,-0.0427 0.55562,0.65534 z"
       id="path4973"
       style="stroke-width:0.0142466" />
    <path
       d="m 66.713939,94.258143 c -0.25644,0.11397 -0.47014,0.27069 -0.47014,0.35617 0,0.0712 -0.057,0.14246 -0.14247,0.14246 -0.0712,0 -0.14246,-0.12822 -0.14246,-0.28493 0,-0.22794 -0.0997,-0.28493 -0.49863,-0.28493 h -0.49863 v 2.20822 2.20821 h 0.56986 0.56986 v -1.32493 c 0,-1.52438 0.15672,-1.8663 0.92603,-2.00876 0.47013,-0.0997 0.49863,-0.12822 0.49863,-0.65534 0,-0.62685 -0.0997,-0.66959 -0.81205,-0.35617 z"
       id="path4975"
       style="stroke-width:0.0142466" />
    <path
       d="m 69.192839,94.186913 c -0.56987,0.17096 -0.81206,0.41315 -1.11124,1.06849 -0.34191,0.72657 -0.34191,1.69534 0,2.43616 0.34192,0.76932 1.05425,1.11123 2.05151,1.01151 0.59835,-0.057 0.79781,-0.14247 1.19671,-0.58411 0.25644,-0.27069 0.47013,-0.6411 0.47013,-0.79781 0,-0.24219 -0.0997,-0.28493 -0.54136,-0.28493 -0.45589,0 -0.58411,0.0712 -0.71233,0.35616 -0.11397,0.25644 -0.27069,0.35617 -0.56986,0.35617 -0.62685,0 -0.88329,-0.38466 -0.88329,-1.32493 0,-0.88329 0.31343,-1.38192 0.84055,-1.38192 0.28493,0 0.72657,0.35617 0.72657,0.58411 0,0.0712 0.28493,0.12822 0.62685,0.12822 h 0.64109 l -0.12822,-0.44164 c -0.1852,-0.6411 -0.49863,-0.92603 -1.21095,-1.11123 -0.71233,-0.18521 -0.84055,-0.18521 -1.39616,-0.0143 z"
       id="path4977"
       style="stroke-width:0.0142466" />
    <path
       d="m 33.106319,94.443353 c 0.0427,0.12822 0.39891,1.11123 0.78356,2.16547 l 0.68384,1.92329 0.62685,0.0427 0.62684,0.0427 0.75507,-2.10849 c 0.41315,-1.15397 0.74082,-2.16548 0.74082,-2.22246 0,-0.0712 -0.27068,-0.0997 -0.59835,-0.0712 l -0.58411,0.0427 -0.39891,1.41041 c -0.22794,0.76931 -0.42739,1.48164 -0.45588,1.56712 -0.0285,0.0855 -0.15672,-0.19945 -0.28494,-0.62685 -0.11397,-0.42739 -0.32767,-1.15397 -0.45589,-1.60985 l -0.22794,-0.81206 h -0.64109 c -0.55562,0 -0.6411,0.0427 -0.56987,0.25644 z"
       id="path5015"
       style="stroke-width:0.0142466" />
  </g>
</svg>
