<?xml version="1.0" encoding="UTF-8" standalone="no"?>
<!-- Created with Inkscape (http://www.inkscape.org/) -->

<svg
   width="100mm"
   height="100mm"
   viewBox="0 0 100 100"
   version="1.1"
   id="svg26768"
   xmlns="http://www.w3.org/2000/svg"
   xmlns:svg="http://www.w3.org/2000/svg">
  <defs
     id="defs26765" />
  <path
     d="M 21.333996,2.1394671 C 20.315699,2.6486159 19.925353,3.5141632 19.925353,5.2961839 V 6.67088 l -1.697161,0.067895 -1.69716,0.050945 -0.62795,0.6449205 -0.64492,0.6279515 -0.05092,34.248694 c -0.03394,33.926241 -0.03394,34.231733 0.305489,34.791798 0.186688,0.305482 0.577035,0.695837 0.882524,0.882526 0.560063,0.339429 0.831608,0.339429 28.393494,0.305481 l 27.833432,-0.05095 1.493508,-0.47521 c 3.411291,-1.069205 6.143714,-3.071862 8.0106,-5.88915 2.630589,-3.954387 3.088821,-9.198606 1.204976,-13.458476 -1.035267,-2.342086 -3.343405,-5.125426 -5.22725,-6.313443 l -0.81464,-0.509149 V 27.562931 3.5311323 L 76.899032,2.9540976 C 76.695374,2.6316374 76.254111,2.2412912 75.931651,2.0885504 75.371586,1.8000283 73.725346,1.7830592 48.692221,1.7830592 c -26.645419,0 -26.645419,0 -27.358226,0.3564079 z M 74.913354,27.427159 c 0,18.414183 -0.05095,23.081377 -0.203658,23.013491 -0.118803,-0.05094 -0.66189,-0.186679 -1.188017,-0.305491 l -0.98435,-0.220627 V 29.327973 c 0,-22.9625842 0.0679,-21.5539405 -1.171038,-22.3176637 L 70.755308,6.6199632 46.536828,6.569018 22.301377,6.5351177 V 5.4319651 4.3288126 h 26.305988 26.305989 z m -4.752049,1.917793 v 20.24712 l -1.510478,0.203658 c -1.714125,0.220636 -3.445229,0.712806 -4.633246,1.30681 -0.441254,0.220636 -0.848578,0.407324 -0.882526,0.407324 -0.05094,0 -0.101824,-2.155397 -0.135772,-4.802965 l -0.05094,-4.819935 -0.458232,-0.594004 c -0.933442,-1.238934 0.288513,-1.154069 -18.66877,-1.154069 H 26.798853 l -0.678864,0.390346 c -0.441262,0.237605 -0.814638,0.627951 -1.05224,1.1371 l -0.390347,0.746745 v 10.878803 10.878804 l 0.390347,0.746744 c 0.271545,0.560056 0.577035,0.865548 1.137097,1.137101 l 0.746752,0.390346 h 14.527696 14.527694 l 0.305489,1.188007 c 0.678864,2.681516 2.7494,5.906119 4.735076,7.450534 0.526118,0.407315 0.96738,0.763723 0.96738,0.797671 0,0.034 -9.996273,0.0679 -22.232801,0.0679 H 17.549327 V 42.514925 9.0808616 h 26.305987 26.305991 z m -33.468007,26.866045 -0.05092,7.772994 -4.650221,0.05094 c -3.614952,0.034 -4.684163,-0.01695 -4.802964,-0.16971 -0.06789,-0.118803 -0.135772,-3.631927 -0.135772,-7.823911 V 48.455 h 4.836906 4.836909 z m 11.914067,0.05094 v 7.806942 H 43.855314 39.103268 V 56.261942 48.455 h 4.752046 4.752051 z m 11.880122,-5.295146 v 2.511797 l -0.610973,0.594013 c -2.104484,2.002647 -3.682841,5.430917 -3.937416,8.4858 l -0.1188,1.425613 -2.409971,0.05094 -2.426938,0.05095 v -7.823911 -7.806942 h 4.752051 4.752047 z M 72.961623,52.4603 c 3.954378,0.96738 7.212928,4.005294 8.519739,7.959682 0.407324,1.204986 0.458232,1.629271 0.458232,3.648897 0,2.070533 -0.0339,2.426931 -0.475202,3.648887 -1.391665,4.056221 -4.429588,6.85653 -8.4858,7.891806 -2.732432,0.695828 -5.566689,0.356398 -8.248205,-0.950412 -2.681515,-1.323789 -4.88782,-3.818616 -5.872172,-6.669841 -1.137098,-3.258551 -0.865549,-6.53407 0.814642,-9.741704 0.763723,-1.493498 3.241571,-3.92044 4.802965,-4.73508 2.698476,-1.408643 5.583658,-1.765042 8.485801,-1.052235 z"
     id="path7968"
     style="stroke-width:0.0169717" />
  <path
     d="m 48.641309,20.112397 c -0.797667,0.49217 -1.238928,1.289841 -1.188015,2.172367 0.03397,0.712806 -0.01698,0.780692 -3.343404,4.701132 -3.597981,4.2429 -3.377351,4.056212 -4.769018,4.039243 -0.101832,0 -1.56139,-1.035267 -3.24158,-2.308139 -2.987002,-2.240253 -3.054888,-2.308138 -3.156718,-3.003976 -0.118801,-0.882526 -0.797665,-1.62927 -1.680189,-1.866876 -2.12145,-0.577034 -3.818611,1.815959 -2.596655,3.682835 0.407318,0.610982 1.629274,1.120131 2.376024,0.967381 0.560063,-0.101824 0.763722,0.01695 3.733753,2.240253 2.868203,2.138428 3.139746,2.393003 3.139746,2.868204 0,1.238924 1.272874,2.240253 2.664542,2.070533 1.238928,-0.135771 2.155395,-1.255893 2.070536,-2.511796 -0.05092,-0.644921 0.06789,-0.81464 3.326437,-4.650215 3.122775,-3.665876 3.445236,-3.988336 3.93741,-3.988336 0.305489,0 0.74675,-0.08484 0.984353,-0.203657 0.373374,-0.16971 0.746754,-0.05095 3.309465,1.035266 2.359052,1.018298 2.885171,1.30682 2.885171,1.578363 0,0.186689 0.288521,0.644921 0.661896,1.001329 0.610978,0.610973 0.729777,0.661889 1.629272,0.661889 0.899494,0 1.018297,-0.05094 1.62927,-0.661889 0.594013,-0.594013 0.661899,-0.729785 0.661899,-1.544416 0,-1.154069 -0.458241,-1.917792 -1.357727,-2.2742 C 59.46919,23.778263 59.078844,23.778263 58.4509,24.100742 57.958721,24.355316 57.856889,24.321369 55.090521,23.15033 52.307176,21.962313 52.222317,21.911406 51.899856,21.232538 51.288878,19.908749 49.812352,19.3996 48.641309,20.112416 Z"
     id="path7970"
     style="stroke-width:0.0169717" />
  <path
     d="m 68.633858,61.149734 v 4.870852 l 2.29117,2.291169 2.29116,2.274191 0.848587,-0.831599 0.848579,-0.831619 -1.951731,-1.9687 -1.95174,-1.95174 v -4.378672 -4.361703 h -1.188008 -1.188017 z"
     id="path7972"
     style="stroke-width:0.0169717" />
  <path
     d="m 9.0635246,90.171177 c -0.7806942,0.407325 -1.2389271,1.272872 -1.1201264,2.138429 0.1188017,0.967381 0.6618934,1.425613 2.2232808,1.815959 0.74675,0.186688 1.47653,0.424294 1.646246,0.509149 0.458234,0.237605 0.390347,0.950411 -0.118801,1.272872 -0.763723,0.509148 -2.4608828,0 -2.4608828,-0.729776 0,-0.15275 -0.2376034,-0.220636 -0.7467513,-0.220636 -0.7128073,0 -0.7297793,0.01695 -0.6449205,0.458232 0.2376024,1.289841 1.5104725,2.036595 3.2585476,1.866876 1.663218,-0.152741 2.647571,-1.086174 2.477855,-2.392994 -0.118801,-1.001329 -0.678864,-1.442582 -2.42694,-1.900814 -1.849905,-0.49218 -2.257224,-0.916473 -1.5783596,-1.595342 0.4921766,-0.49217 1.4256156,-0.458232 1.9517346,0.08485 0.237604,0.220627 0.42429,0.49218 0.42429,0.594004 0,0.08485 0.30549,0.169719 0.678866,0.169719 0.577033,0 0.678863,-0.05095 0.678863,-0.339429 0,-0.627952 -0.509148,-1.340768 -1.188012,-1.697166 -0.84858,-0.441263 -2.2572242,-0.458232 -3.0548894,-0.034 z"
     id="path8102"
     style="stroke-width:0.0169717" />
  <path
     d="m 20.264785,93.599447 v 3.564032 h 0.678864 0.678864 v -1.782011 c 0,-1.561394 0.05092,-1.832938 0.339432,-2.12145 0.186688,-0.186698 0.52612,-0.339439 0.74675,-0.339439 0.695837,0 0.848581,0.407324 0.916467,2.393003 l 0.06789,1.849897 h 0.678864 0.678865 l -0.06789,-2.206305 c -0.05092,-2.104481 -0.06789,-2.223284 -0.492177,-2.630599 -0.610977,-0.610982 -1.510473,-0.729776 -2.274195,-0.288513 l -0.594006,0.356399 v -1.171039 -1.188017 h -0.678864 -0.678864 z"
     id="path8140"
     style="stroke-width:0.0169717" />
  <path
     d="m 35.199798,91.223422 v 1.188008 l -0.543091,-0.339429 c -0.72978,-0.441263 -1.306814,-0.424294 -2.019623,0.05094 -0.763722,0.509148 -1.17104,1.357727 -1.17104,2.460879 0,2.12145 1.629274,3.360384 3.190663,2.409972 0.441261,-0.271543 0.543091,-0.288522 0.543091,-0.08485 0,0.186688 0.186686,0.254574 0.678865,0.254574 h 0.678863 v -3.564032 -3.564041 h -0.678863 -0.678865 z m -0.356406,2.12145 c 0.135777,0.135772 0.271549,0.594004 0.305489,1.052236 0.06789,0.661899 0.01698,0.899495 -0.288517,1.272872 -0.984351,1.272872 -2.426938,-0.118802 -1.866875,-1.815959 0.288517,-0.899495 1.188012,-1.1371 1.849903,-0.509149 z"
     id="path8142"
     style="stroke-width:0.0169717" />
  <path
     d="m 43.855314,93.599447 v 3.564032 h 0.678869 0.678863 v -3.564032 -3.564042 h -0.678863 -0.678869 z"
     id="path8144"
     style="stroke-width:0.0169717" />
  <path
     d="m 55.565722,91.223422 v 1.188008 l -0.543091,-0.339429 c -0.729777,-0.441263 -1.306814,-0.424294 -2.019619,0.05094 -0.763722,0.509148 -1.171042,1.357727 -1.171042,2.460879 0,2.12145 1.629276,3.360384 3.190661,2.409972 0.441265,-0.271543 0.543091,-0.288522 0.543091,-0.08485 0,0.186688 0.18669,0.254574 0.678864,0.254574 h 0.678869 v -3.564022 -3.564041 h -0.678869 -0.678864 z m -0.356402,2.12145 c 0.135772,0.135772 0.271544,0.594004 0.305489,1.052236 0.06789,0.661899 0.01698,0.899495 -0.288516,1.272872 -0.984353,1.272872 -2.426943,-0.118802 -1.866878,-1.815959 0.288516,-0.899495 1.188015,-1.1371 1.849905,-0.509149 z"
     id="path8146"
     style="stroke-width:0.0169717" />
  <path
     d="m 60.996636,93.582478 v 3.581001 h 0.678868 0.678859 v -1.357727 -1.357727 h 1.188017 c 1.357727,0 1.527446,0.15275 1.527446,1.425613 0,1.188017 0.08485,1.289841 1.052236,1.289841 0.661899,0 0.81464,-0.05094 0.678859,-0.220627 -0.08485,-0.101833 -0.203658,-0.729785 -0.237596,-1.374696 -0.05094,-0.950412 -0.135772,-1.221955 -0.458232,-1.476539 l -0.390346,-0.32246 0.49217,-0.407315 c 0.407325,-0.356408 0.47521,-0.543087 0.47521,-1.272872 0,-0.746745 -0.0679,-0.933433 -0.560065,-1.408635 l -0.543097,-0.560065 -2.29116,-0.05094 -2.291169,-0.0679 z m 3.869533,-2.087512 c 0.441253,0.305491 0.509139,1.103152 0.101824,1.442582 -0.152741,0.118812 -0.729776,0.220636 -1.391666,0.220636 l -1.137109,0.01695 -0.05094,-0.98435 -0.05095,-0.967381 h 1.069214 c 0.695837,0 1.204986,0.08485 1.45956,0.271544 z"
     id="path8148"
     style="stroke-width:0.0169717" />
  <path
     d="m 89.678649,91.223422 c 0,0.560056 -0.05094,0.678869 -0.339429,0.678869 -0.271543,0 -0.339429,0.118793 -0.339429,0.509139 0,0.390346 0.0679,0.509149 0.339429,0.509149 0.32246,0 0.339429,0.118802 0.339429,1.849906 0,2.206305 0.101834,2.392994 1.374706,2.392994 0.81463,0 0.8316,-0.01695 0.8316,-0.509139 0,-0.424294 -0.0679,-0.509159 -0.424285,-0.509159 -0.424294,0 -0.424294,0 -0.424294,-1.612301 0,-1.612301 0,-1.612301 0.424294,-1.612301 0.356399,0 0.424285,-0.08485 0.424285,-0.509149 0,-0.424284 -0.0679,-0.509139 -0.424285,-0.509139 -0.373377,0 -0.424294,-0.0679 -0.424294,-0.678869 v -0.678858 h -0.678858 -0.678869 z"
     id="path8182"
     style="stroke-width:0.0169717" />
  <path
     d="m 15.970968,91.902291 c -0.678863,0.203657 -0.967381,0.49217 -1.323785,1.272862 -0.407318,0.865557 -0.407318,2.019626 0,2.902142 0.407318,0.916474 1.255899,1.323789 2.443911,1.204987 0.712808,-0.0679 0.95041,-0.16971 1.425615,-0.695828 0.305489,-0.322461 0.560063,-0.763723 0.560063,-0.950412 0,-0.288522 -0.118801,-0.339439 -0.644921,-0.339439 -0.543091,0 -0.695836,0.08485 -0.848581,0.424294 -0.135772,0.305491 -0.322459,0.424284 -0.678863,0.424284 -0.74675,0 -1.05224,-0.458232 -1.05224,-1.578353 0,-1.052236 0.373375,-1.646249 1.001325,-1.646249 0.339432,0 0.865552,0.424293 0.865552,0.695837 0,0.08485 0.339432,0.152741 0.74675,0.152741 h 0.763723 L 19.076772,93.243039 C 18.856141,92.479316 18.482766,92.139886 17.634186,91.91926 16.785605,91.698623 16.632862,91.698623 15.970968,91.90231 Z"
     id="path8266"
     style="stroke-width:0.0169717" />
  <path
     d="m 27.138284,92.072001 c -0.390346,0.186688 -0.831608,0.577034 -1.018295,0.882525 -0.407319,0.712807 -0.42429,2.376025 -0.03395,3.139748 0.526119,0.98435 2.257223,1.544416 3.224604,1.052236 0.543092,-0.288513 1.306814,-1.035267 1.306814,-1.289841 0,-0.322461 -1.255899,-0.288513 -1.527444,0.034 -0.492177,0.594004 -1.866877,0.118793 -1.866877,-0.644921 0,-0.254584 0.237603,-0.288522 1.79899,-0.288522 h 1.815962 L 30.719289,94.15956 c -0.135773,-1.035267 -0.560064,-1.714135 -1.289842,-2.104481 -0.763722,-0.407325 -1.442587,-0.407325 -2.291167,0.01695 z m 1.815963,1.1371 c 0.577034,0.526118 0.390346,0.729775 -0.712808,0.729775 -0.560063,0 -1.018296,-0.05094 -1.018296,-0.135771 0,-0.0679 0.118801,-0.305492 0.271545,-0.509149 0.30549,-0.441263 1.018297,-0.49218 1.459559,-0.08485 z"
     id="path8268"
     style="stroke-width:0.0169717" />
  <path
     d="m 47.504213,92.072001 c -0.390348,0.186688 -0.831608,0.577034 -1.018299,0.882525 -0.40732,0.712807 -0.424287,2.376025 -0.03392,3.139748 0.52612,0.98435 2.257222,1.544416 3.224602,1.052236 0.543092,-0.288513 1.306814,-1.035267 1.306814,-1.289841 0,-0.322461 -1.255896,-0.288513 -1.527445,0.034 -0.492174,0.594004 -1.866873,0.118793 -1.866873,-0.644921 0,-0.254584 0.237602,-0.288522 1.798987,-0.288522 H 51.20404 L 51.085242,94.15956 C 50.94947,93.124293 50.525177,92.445425 49.7954,92.055079 c -0.763722,-0.407325 -1.442585,-0.407325 -2.291166,0.01695 z m 1.81596,1.1371 c 0.577033,0.526118 0.390348,0.729775 -0.712808,0.729775 -0.56006,0 -1.018294,-0.05094 -1.018294,-0.135771 0,-0.0679 0.1188,-0.305492 0.271543,-0.509149 0.30549,-0.441263 1.018299,-0.49218 1.459559,-0.08485 z"
     id="path8270"
     style="stroke-width:0.0169717" />
  <path
     d="m 69.058152,92.072001 c -0.390346,0.186688 -0.831609,0.577034 -1.018298,0.882525 -0.407324,0.712807 -0.424284,2.376025 -0.0339,3.139748 0.526118,0.98435 2.257222,1.544416 3.224603,1.052236 0.543096,-0.288513 1.30681,-1.035267 1.30681,-1.289841 0,-0.322461 -1.255893,-0.288513 -1.527437,0.034 -0.49218,0.594004 -1.866876,0.118793 -1.866876,-0.644921 0,-0.254584 0.237606,-0.288522 1.79899,-0.288522 h 1.815959 L 72.6392,94.15956 c -0.135771,-1.035267 -0.560065,-1.714135 -1.289841,-2.104481 -0.763723,-0.407325 -1.442581,-0.407325 -2.291169,0.01695 z m 1.815959,1.1371 c 0.577035,0.526118 0.390346,0.729775 -0.712806,0.729775 -0.560066,0 -1.018298,-0.05094 -1.018298,-0.135771 0,-0.0679 0.118803,-0.305492 0.271543,-0.509149 0.305492,-0.441263 1.018298,-0.49218 1.459561,-0.08485 z"
     id="path8272"
     style="stroke-width:0.0169717" />
  <path
     d="m 75.761932,91.91926 c -0.220627,0.08485 -0.560066,0.288512 -0.712807,0.441263 -0.288512,0.254565 -0.305491,0.254565 -0.305491,-0.08485 0,-0.305482 -0.101824,-0.373367 -0.594004,-0.373367 h -0.594003 v 3.648887 3.648896 h 0.678858 0.678869 v -1.30681 c 0,-1.255903 0.01695,-1.289841 0.32246,-1.001329 0.797671,0.729785 2.342077,0.356408 2.953059,-0.695827 0.407315,-0.712816 0.441263,-2.494837 0.05095,-3.241582 -0.475201,-0.933442 -1.612301,-1.391674 -2.477858,-1.035266 z m 1.069214,1.544415 c 0.678859,0.780692 0.118803,2.681506 -0.797661,2.681506 -0.967391,0 -1.510478,-1.103143 -1.120131,-2.29116 0.32246,-0.950411 1.255902,-1.154069 1.917792,-0.390346 z"
     id="path8274"
     style="stroke-width:0.0169717" />
  <path
     d="m 80.6837,92.021084 c -0.729785,0.373377 -1.357727,1.544415 -1.357727,2.511796 0,0.373387 0.16971,1.035276 0.390346,1.442591 0.49218,1.001319 1.238925,1.391666 2.46088,1.306811 1.544415,-0.118803 2.460889,-1.137101 2.460889,-2.749402 0,-1.612301 -0.916474,-2.630589 -2.460889,-2.749402 -0.644921,-0.05094 -1.069205,0.01695 -1.493499,0.237606 z m 2.189336,1.340758 c 0.81464,1.035266 0.237605,2.783339 -0.916464,2.783339 -0.627951,0 -0.882526,-0.237595 -1.103152,-1.035257 -0.203668,-0.678868 0.05095,-1.765052 0.475201,-2.002657 0.543087,-0.32246 1.171038,-0.203657 1.544415,0.254575 z"
     id="path8276"
     style="stroke-width:0.0169717" />
  <path
     d="m 87.692971,91.987146 c -0.305491,0.135771 -0.560066,0.32246 -0.560066,0.424284 0,0.08485 -0.0679,0.169719 -0.169709,0.169719 -0.08485,0 -0.16972,-0.152741 -0.16972,-0.339429 0,-0.271544 -0.118803,-0.339429 -0.594004,-0.339429 h -0.594003 v 2.630589 2.630599 h 0.678858 0.678869 v -1.578354 c 0,-1.815968 0.186688,-2.223283 1.103152,-2.392993 0.560066,-0.118812 0.594004,-0.152751 0.594004,-0.780702 0,-0.746745 -0.118803,-0.797661 -0.967381,-0.424284 z"
     id="path8278"
     style="stroke-width:0.0169717" />
  <path
     d="m 37.745537,93.921907 c 0,1.120131 0.0679,2.223274 0.169716,2.477858 0.356407,0.933433 2.019623,1.120122 2.902145,0.32246 0.305489,-0.271552 0.322462,-0.271552 0.322462,0.0679 0,0.32246 0.10183,0.373367 0.678863,0.373367 h 0.678864 V 94.532889 91.9023 h -0.763723 -0.763722 v 1.832928 c 0,1.578363 -0.05092,1.883845 -0.305489,2.12145 -0.356401,0.32246 -0.763722,0.356399 -1.238928,0.118803 -0.288516,-0.16972 -0.322457,-0.373377 -0.322457,-2.12145 V 91.9023 h -0.678863 -0.678868 z"
     id="path8326"
     style="stroke-width:0.0169717" />
</svg>
