<?xml version="1.0" encoding="UTF-8" standalone="no"?>
<!-- Created with Inkscape (http://www.inkscape.org/) -->

<svg
   width="100mm"
   height="100mm"
   viewBox="0 0 100 100"
   version="1.1"
   id="svg26768"
   xmlns="http://www.w3.org/2000/svg"
   xmlns:svg="http://www.w3.org/2000/svg">
  <defs
     id="defs26765" />
  <path
     d="M 42.422374,1.155968 C 31.544079,2.2981924 22.170615,9.8223412 18.725822,20.211113 c -1.142221,3.408532 -1.305396,4.532622 -1.305396,8.865809 0,3.426663 0.05439,4.133752 0.417002,5.783627 2.502007,11.11399 10.860164,19.399625 22.046677,21.810981 1.541091,0.326348 2.411355,0.398871 5.457277,0.398871 3.045924,0 3.916187,-0.07252 5.457278,-0.398871 3.807403,-0.815872 7.324718,-2.320703 10.479424,-4.460101 l 1.704265,-1.160351 1.015309,1.033437 1.033437,1.033438 -0.181304,0.815872 c -0.217567,0.942786 -0.03626,1.885571 0.489523,2.737705 0.217565,0.326348 3.988708,4.188142 8.412547,8.593851 6.835195,6.798935 8.14059,8.013678 8.775158,8.194983 2.338833,0.670829 4.315057,-0.580176 4.677667,-2.955271 0.235696,-1.631744 0.145044,-1.740526 -8.684505,-10.678858 -5.620453,-5.674844 -8.376287,-8.340026 -8.82955,-8.539461 -0.779611,-0.308219 -1.722396,-0.34448 -2.429485,-0.09066 -0.471393,0.181305 -0.580176,0.126913 -1.504831,-0.797742 l -0.997177,-0.997176 1.087829,-1.142222 C 69.65437,44.270269 72.210769,39.030557 73.117294,33.337583 73.498035,30.871836 73.352991,25.505211 72.827206,23.2389 71.956943,19.467757 70.343329,15.823529 68.222061,12.813868 66.735361,10.728861 63.70757,7.7191987 61.568172,6.1962421 56.038372,2.2800568 49.112525,0.44887865 42.422374,1.155968 Z m 7.360979,2.8283576 c 5.022146,0.8521344 9.844856,3.3722665 13.507215,7.0527584 3.771142,3.789272 5.964931,7.850502 7.107152,13.144606 0.471394,2.193789 0.453263,7.777981 -0.01814,9.97177 -1.10596,5.094668 -3.390402,9.282811 -7.070892,12.981432 -3.69862,3.698619 -7.669197,5.838017 -12.94517,6.998369 -2.502007,0.562045 -7.506023,0.562045 -10.044292,0 -9.246548,-2.030615 -16.553136,-8.630114 -19.327101,-17.441532 -0.870264,-2.810226 -1.033439,-3.970578 -1.033439,-7.614807 0,-2.556399 0.07252,-3.71675 0.326349,-4.895232 1.051569,-4.931494 3.444793,-9.427855 6.835195,-12.872648 6.001193,-6.1099793 14.232436,-8.7570307 22.663114,-7.3247164 z"
     id="path7996"
     style="stroke-width:0.0181305" />
  <path
     d="m 33.973565,10.656344 c -3.481054,2.085006 -6.581368,5.5298 -8.321895,9.24655 -1.178482,2.538269 -1.976225,5.747366 -1.976225,8.031808 v 1.14222 h 0.616438 0.598306 l 0.108782,-1.686135 c 0.380741,-6.019323 3.934318,-11.929863 9.21029,-15.338396 l 1.577353,-1.033437 -0.253827,-0.489524 c -0.145044,-0.271957 -0.326348,-0.489523 -0.398871,-0.489523 -0.09065,0 -0.598306,0.271957 -1.160351,0.616437 z"
     id="path7998"
     style="stroke-width:0.0181305" />
  <path
     d="m 43.999726,20.863811 0.01813,8.847679 4.496361,4.260665 c 2.483878,2.338833 4.587014,4.260665 4.659536,4.260665 0.07252,0 0.507654,-0.398871 0.960917,-0.870263 l 0.797741,-0.888395 -1.160351,-1.10596 c -0.652698,-0.616436 -2.502008,-2.411355 -4.115622,-3.970577 l -2.95527,-2.828356 v -8.267504 -8.267504 h -1.359786 -1.359787 z"
     id="path8000"
     style="stroke-width:0.0181305" />
  <path
     d="m 11.346712,90.865634 c -0.834002,0.435132 -1.323526,1.359788 -1.196612,2.284443 0.126913,1.033438 0.707089,1.522961 2.375094,1.939962 0.797742,0.199436 1.577353,0.453263 1.758657,0.543915 0.489524,0.253827 0.417002,1.015307 -0.126912,1.359787 -0.815872,0.543915 -2.628922,0 -2.628922,-0.779611 0,-0.163175 -0.253827,-0.235697 -0.797741,-0.235697 -0.7614809,0 -0.7796115,0.01814 -0.688959,0.489524 0.253826,1.377917 1.613613,2.175655 3.481054,1.994349 1.776788,-0.16317 2.828357,-1.160348 2.647051,-2.556395 -0.126913,-1.069699 -0.725219,-1.541091 -2.592659,-2.030615 -1.976223,-0.525784 -2.411355,-0.979046 -1.686136,-1.704266 0.525784,-0.525784 1.522961,-0.489523 2.085007,0.09066 0.253826,0.235697 0.453262,0.525784 0.453262,0.634567 0,0.09065 0.326348,0.181305 0.725219,0.181305 0.616437,0 0.72522,-0.05439 0.72522,-0.36261 0,-0.670828 -0.543915,-1.432309 -1.269135,-1.81305 -0.906524,-0.471392 -2.411355,-0.489522 -3.263488,-0.03626 z"
     id="path8104"
     style="stroke-width:0.0181305" />
  <path
     d="m 61.386866,90.865634 c -0.834001,0.435132 -1.323525,1.359788 -1.196612,2.284443 0.126913,1.033438 0.707089,1.522961 2.375095,1.939962 0.797742,0.199436 1.577353,0.453263 1.758657,0.543915 0.489524,0.253827 0.417001,1.015307 -0.126913,1.359787 -0.815872,0.543915 -2.628921,0 -2.628921,-0.779611 0,-0.163175 -0.253827,-0.235697 -0.797742,-0.235697 -0.76148,0 -0.779611,0.01814 -0.688959,0.489524 0.253827,1.377917 1.613614,2.175655 3.481055,1.994349 1.776788,-0.16317 2.828356,-1.160348 2.647051,-2.556395 -0.126913,-1.069699 -0.725219,-1.541091 -2.59266,-2.030615 -1.976223,-0.525784 -2.411355,-0.979046 -1.686136,-1.704266 0.525784,-0.525784 1.522962,-0.489523 2.085007,0.09066 0.253827,0.235697 0.453262,0.525784 0.453262,0.634567 0,0.09065 0.326349,0.181305 0.72522,0.181305 0.616436,0 0.72522,-0.05439 0.72522,-0.36261 0,-0.670828 -0.543916,-1.432309 -1.269135,-1.81305 C 63.743831,90.43051 62.239,90.41238 61.386866,90.865642 Z"
     id="path8106"
     style="stroke-width:0.0181305" />
  <path
     d="m 23.131532,94.527994 v 3.807403 h 0.725219 0.72522 v -1.903702 c 0,-1.668004 0.05439,-1.958092 0.362609,-2.266311 0.199436,-0.199435 0.562046,-0.362609 0.797742,-0.362609 0.743349,0 0.906524,0.435132 0.979047,2.556399 l 0.07252,1.976223 h 0.72522 0.725219 l -0.07252,-2.356964 c -0.05439,-2.248181 -0.07252,-2.375094 -0.525784,-2.810226 -0.652698,-0.652698 -1.613614,-0.779611 -2.429486,-0.308218 l -0.634567,0.38074 v -1.251004 -1.269134 h -0.72522 -0.725219 z"
     id="path8150"
     style="stroke-width:0.0181305" />
  <path
     d="m 39.086363,91.989725 v 1.269135 l -0.580176,-0.36261 c -0.77961,-0.471393 -1.396048,-0.453262 -2.157528,0.05439 -0.815872,0.543915 -1.251004,1.45044 -1.251004,2.628921 0,2.266312 1.740527,3.589837 3.408532,2.57453 0.471393,-0.290087 0.580176,-0.308218 0.580176,-0.09065 0,0.199436 0.199435,0.271957 0.72522,0.271957 h 0.72522 v -3.807403 -3.807403 h -0.72522 -0.72522 z m -0.380741,2.266311 c 0.145044,0.145045 0.290088,0.634568 0.32635,1.124091 0.07252,0.70709 0.01812,0.960916 -0.308219,1.359787 -1.051568,1.359787 -2.59266,-0.126913 -1.994354,-1.939963 0.308219,-0.960916 1.269135,-1.214743 1.976223,-0.543915 z"
     id="path8152"
     style="stroke-width:0.0181305" />
  <path
     d="m 48.514218,94.527994 v 3.807403 h 0.72522 0.725219 v -3.807403 -3.807403 h -0.725219 -0.72522 z"
     id="path8154"
     style="stroke-width:0.0181305" />
  <path
     d="m 88.945213,94.527994 v 3.807403 h 0.72522 0.725219 v -1.903702 c 0,-1.668004 0.05439,-1.958092 0.362609,-2.266311 0.199436,-0.199435 0.562048,-0.362609 0.797744,-0.362609 0.743351,0 0.906524,0.435132 0.979046,2.556399 l 0.07252,1.976223 h 0.725219 0.725219 l -0.07252,-2.356964 c -0.05439,-2.248181 -0.07252,-2.375094 -0.525786,-2.810226 -0.652698,-0.652698 -1.613613,-0.779611 -2.429485,-0.308218 l -0.634566,0.38074 v -1.251004 -1.269134 h -0.725219 -0.72522 z"
     id="path8156"
     style="stroke-width:0.0181305" />
  <path
     d="m 18.725822,92.714945 c -0.725219,0.217566 -1.033438,0.525784 -1.414178,1.359787 -0.435132,0.924655 -0.435132,2.157528 0,3.100314 0.435132,0.979046 1.341656,1.414179 2.610791,1.28726 0.76148,-0.07251 1.015307,-0.181301 1.52296,-0.743346 0.32635,-0.344479 0.598307,-0.815871 0.598307,-1.015307 0,-0.308219 -0.126913,-0.36261 -0.688959,-0.36261 -0.580176,0 -0.743349,0.09065 -0.906524,0.453263 -0.145045,0.326348 -0.34448,0.453262 -0.72522,0.453262 -0.797742,0 -1.124091,-0.489523 -1.124091,-1.686137 0,-1.124089 0.398871,-1.758656 1.069699,-1.758656 0.362611,0 0.924656,0.453261 0.924656,0.743349 0,0.09065 0.36261,0.163175 0.797741,0.163175 h 0.815872 L 22.043702,94.147254 C 21.808005,93.331382 21.409134,92.968772 20.50261,92.733076 19.596086,92.49738 19.432911,92.49738 18.725822,92.71494 Z"
     id="path8280"
     style="stroke-width:0.0181305" />
  <path
     d="m 30.655685,92.89625 c -0.417001,0.199435 -0.888394,0.616437 -1.087829,0.942785 -0.435132,0.761481 -0.453263,2.53827 -0.03626,3.354142 0.562045,1.051568 2.411355,1.649877 3.444793,1.12409 0.580176,-0.308219 1.396048,-1.105961 1.396048,-1.377918 0,-0.344479 -1.341657,-0.308219 -1.631745,0.03626 -0.525784,0.634568 -1.994353,0.126915 -1.994353,-0.688958 0,-0.271957 0.253826,-0.308218 1.921831,-0.308218 h 1.939963 L 34.481218,95.1263 c -0.145044,-1.10596 -0.598305,-1.831179 -1.377917,-2.24818 -0.815872,-0.435132 -1.541091,-0.435132 -2.447616,0.01814 z m 1.939962,1.214742 c 0.616438,0.562046 0.417002,0.779612 -0.761481,0.779612 -0.598306,0 -1.087828,-0.05439 -1.087828,-0.145044 0,-0.07252 0.126913,-0.326349 0.290088,-0.543915 0.326348,-0.471393 1.087829,-0.525784 1.559221,-0.09065 z"
     id="path8282"
     style="stroke-width:0.0181305" />
  <path
     d="m 52.412274,92.89625 c -0.417001,0.199435 -0.888394,0.616437 -1.08783,0.942785 -0.435131,0.761481 -0.453262,2.53827 -0.03626,3.354142 0.562046,1.051568 2.411356,1.649877 3.444794,1.12409 0.580176,-0.308219 1.396048,-1.105961 1.396048,-1.377918 0,-0.344479 -1.341656,-0.308219 -1.631745,0.03626 -0.525784,0.634568 -1.994353,0.126915 -1.994353,-0.688958 0,-0.271957 0.253826,-0.308218 1.921831,-0.308218 h 1.939963 L 56.237806,95.1263 c -0.145044,-1.10596 -0.598307,-1.831179 -1.377918,-2.24818 -0.815872,-0.435132 -1.541091,-0.435132 -2.447616,0.01814 z m 1.939963,1.214742 c 0.616436,0.562046 0.417001,0.779612 -0.761482,0.779612 -0.598305,0 -1.087828,-0.05439 -1.087828,-0.145044 0,-0.07252 0.126913,-0.326349 0.290087,-0.543915 0.326349,-0.471393 1.087829,-0.525784 1.559223,-0.09065 z"
     id="path8284"
     style="stroke-width:0.0181305" />
  <path
     d="m 68.1858,92.89625 c -0.417,0.199435 -0.888394,0.616437 -1.087828,0.942785 -0.435132,0.761481 -0.453263,2.53827 -0.03626,3.354142 0.562046,1.051568 2.411356,1.649877 3.444793,1.12409 0.580176,-0.308219 1.396048,-1.105961 1.396048,-1.377918 0,-0.344479 -1.341656,-0.308219 -1.631744,0.03626 -0.525784,0.634568 -1.994354,0.126915 -1.994354,-0.688958 0,-0.271957 0.253827,-0.308218 1.921833,-0.308218 H 72.13825 L 72.011334,95.1263 C 71.86629,94.02034 71.413028,93.295121 70.633417,92.87812 69.817545,92.442988 69.092325,92.442988 68.1858,92.896255 Z m 1.939963,1.214742 c 0.616436,0.562046 0.417001,0.779612 -0.76148,0.779612 -0.598307,0 -1.08783,-0.05439 -1.08783,-0.145044 0,-0.07252 0.126914,-0.326349 0.290088,-0.543915 0.326349,-0.471393 1.087829,-0.525784 1.559222,-0.09065 z"
     id="path8286"
     style="stroke-width:0.0181305" />
  <path
     d="m 74.150732,92.787467 c -0.634567,0.271957 -1.160351,0.924655 -1.160351,1.414178 0,0.489523 1.287264,0.453262 1.595483,-0.03626 0.271957,-0.453262 1.432309,-0.507653 1.595483,-0.09065 0.181305,0.471392 -0.253827,0.76148 -1.323526,0.906524 -1.323525,0.163175 -2.048745,0.815872 -2.048745,1.84931 0.01814,1.4867 1.4867,2.157529 2.864618,1.323526 0.507653,-0.308218 0.598305,-0.326348 0.688958,-0.09065 0.07252,0.181305 0.36261,0.271957 0.942786,0.271957 0.652697,0 0.779611,-0.0544 0.616436,-0.217565 -0.145044,-0.145044 -0.217565,-0.942786 -0.217565,-2.356965 0,-2.411355 -0.126915,-2.683312 -1.396048,-3.027791 -0.906525,-0.253827 -1.46857,-0.235697 -2.157529,0.05439 z m 1.921832,3.934316 c -0.344479,0.797742 -1.468569,0.960917 -1.758657,0.235697 -0.181306,-0.489523 0.199436,-0.870263 1.051568,-1.069699 0.924655,-0.235696 1.069699,-0.05439 0.707089,0.834002 z"
     id="path8288"
     style="stroke-width:0.0181305" />
  <path
     d="m 81.203493,92.805597 c -0.326349,0.145044 -0.598306,0.34448 -0.598306,0.453263 0,0.09065 -0.07252,0.181304 -0.181304,0.181304 -0.09065,0 -0.181306,-0.163173 -0.181306,-0.362609 0,-0.290088 -0.126913,-0.36261 -0.634567,-0.36261 h -0.634567 v 2.810226 2.810226 h 0.72522 0.72522 v -1.686136 c 0,-1.939962 0.199435,-2.375094 1.178481,-2.556399 0.598306,-0.126913 0.634567,-0.163174 0.634567,-0.834002 0,-0.797742 -0.126913,-0.852134 -1.033438,-0.453263 z"
     id="path8290"
     style="stroke-width:0.0181305" />
  <path
     d="m 84.539504,92.714945 c -0.72522,0.217566 -1.033439,0.525784 -1.414179,1.359787 -0.435132,0.924655 -0.435132,2.157528 0,3.100314 0.435132,0.979046 1.341656,1.414179 2.610791,1.28726 0.76148,-0.07251 1.015307,-0.181301 1.522962,-0.743346 0.326348,-0.344479 0.598305,-0.815871 0.598305,-1.015307 0,-0.308219 -0.126913,-0.36261 -0.688959,-0.36261 -0.580176,0 -0.743349,0.09065 -0.906524,0.453263 -0.145044,0.326348 -0.34448,0.453262 -0.72522,0.453262 -0.797741,0 -1.124091,-0.489523 -1.124091,-1.686137 0,-1.124089 0.398872,-1.758656 1.0697,-1.758656 0.36261,0 0.924655,0.453261 0.924655,0.743349 0,0.09065 0.36261,0.163175 0.797742,0.163175 h 0.815872 L 87.857383,94.147254 C 87.621687,93.331382 87.222816,92.968772 86.316291,92.733076 85.409767,92.49738 85.246592,92.49738 84.539504,92.71495 Z"
     id="path8292"
     style="stroke-width:0.0181305" />
  <path
     d="m 41.987242,94.872474 c 0,1.196612 0.07252,2.375094 0.181305,2.647051 0.38074,0.997177 2.157528,1.196609 3.100313,0.34448 0.326349,-0.290088 0.34448,-0.290088 0.34448,0.07252 0,0.344479 0.108783,0.398871 0.725219,0.398871 h 0.72522 V 95.52517 92.714944 h -0.815872 -0.815872 v 1.958093 c 0,1.686136 -0.05439,2.012484 -0.326349,2.266311 -0.38074,0.34448 -0.815872,0.38074 -1.323525,0.126913 -0.308219,-0.181305 -0.34448,-0.398871 -0.34448,-2.266312 v -2.085006 h -0.725219 -0.72522 z"
     id="path8328"
     style="stroke-width:0.0181305" />
</svg>
