<?xml version="1.0" encoding="UTF-8" standalone="no"?>
<!-- Created with Inkscape (http://www.inkscape.org/) -->

<svg
   width="100mm"
   height="100mm"
   viewBox="0 0 100 100"
   version="1.1"
   id="svg26768"
   xmlns="http://www.w3.org/2000/svg"
   xmlns:svg="http://www.w3.org/2000/svg">
  <defs
     id="defs26765" />
  <path
     d="M 28.112845,2.168282 C 26.302413,2.5952738 24.679857,3.9445527 23.82588,5.737909 l -0.529466,1.110174 -0.0854,24.25295 -0.0854,24.252957 -4.218647,0.05124 -4.235727,0.03416 v 8.334817 c 0,9.308353 0,9.376671 1.14433,10.862592 0.375749,0.478226 1.041851,1.058932 1.588397,1.366363 l 0.939375,0.529466 25.87551,0.05124 c 23.2965,0.03416 25.94383,0.01708 26.678251,-0.239113 1.11017,-0.358672 2.544852,-1.690876 3.057239,-2.835205 l 0.409908,-0.905218 0.05124,-8.591011 0.05124,-8.573932 h -1.127251 -1.11017 v 8.368977 c 0,7.89075 -0.01708,8.420216 -0.324511,9.018 -0.39283,0.785659 -0.785659,1.144329 -1.605478,1.485921 -0.546545,0.222034 -3.279272,0.256192 -23.330658,0.256192 H 24.252872 l 0.461148,-0.819818 0.461149,-0.802738 0.0854,-32.792727 c 0.0854,-29.56469 0.119557,-32.8439637 0.358672,-33.390508 1.263886,-2.7839701 4.85059,-3.4842301 6.968454,-1.3492866 1.229727,1.2126408 1.212648,1.0247694 1.212648,9.9232166 v 7.993222 H 53.014831 72.22932 v 4.269887 4.269887 h 1.11017 1.110171 v -4.269887 -4.269887 h 4.269886 4.269887 v -7.73703 c 0,-8.3860592 -0.05124,-8.9155178 -0.956455,-10.4697615 C 81.418112,4.0812063 80.068828,2.919791 78.924498,2.4586436 L 77.950964,2.0658152 53.356418,2.0315971 c -13.953988,0 -24.867818,0.051249 -25.243568,0.136638 z m 49.086614,2.0324689 c 1.280966,0.2391126 2.339898,0.9564582 2.971841,1.9470721 l 0.512387,0.836898 0.05124,7.156324 0.05124,7.139254 H 58.394879 36.020675 v -6.712262 c 0,-7.3783668 -0.06832,-8.0103078 -1.024773,-9.5645437 -0.290352,-0.4611474 -0.512386,-0.8539758 -0.512386,-0.9052248 0,-0.1537158 41.827807,-0.06828 42.715943,0.1024824 z"
     id="path5534"
     style="stroke-width:0.0170795" />
  <path
     d="m 43.450277,37.164274 1.007694,1.024773 H 64.74847 85.038971 V 37.164274 36.139501 H 63.740777 42.442584 Z"
     id="path5586"
     style="stroke-width:0.0170795" />
  <path
     d="m 43.450277,43.654501 1.007694,1.024773 H 64.74847 85.038971 V 43.654501 42.629729 H 63.740777 42.442584 Z"
     id="path5588"
     style="stroke-width:0.0170795" />
  <path
     d="m 43.450277,49.973933 1.007694,1.024773 H 64.74847 85.038971 V 49.973933 48.94916 H 63.740777 42.442584 Z"
     id="path5590"
     style="stroke-width:0.0170795" />
  <path
     d="m 18.087153,90.418297 c -0.78566,0.409909 -1.246807,1.280966 -1.127251,2.152023 0.119557,0.973534 0.666103,1.434682 2.237422,1.827511 0.751499,0.187875 1.48592,0.426988 1.656715,0.512386 0.461148,0.239114 0.39283,0.956455 -0.119557,1.280966 -0.768579,0.512386 -2.476533,0 -2.476533,-0.73442 0,-0.153716 -0.239115,-0.222034 -0.751501,-0.222034 -0.71734,0 -0.73442,0.01708 -0.649023,0.461147 0.239115,1.298046 1.52008,2.049546 3.279273,1.87875 1.673795,-0.153716 2.664409,-1.093091 2.493613,-2.408215 -0.119556,-1.007694 -0.683181,-1.451762 -2.442374,-1.912909 -1.86167,-0.495307 -2.271579,-0.922296 -1.588398,-1.605478 0.495307,-0.495307 1.434682,-0.461147 1.964148,0.0854 0.239114,0.222034 0.426988,0.495307 0.426988,0.597784 0,0.0854 0.307432,0.170795 0.683182,0.170795 0.580705,0 0.683182,-0.05124 0.683182,-0.341591 0,-0.631942 -0.512387,-1.349283 -1.195568,-1.707954 -0.853977,-0.444068 -2.27158,-0.461148 -3.074318,-0.03416 z"
     id="path5592"
     style="stroke-width:0.0170795" />
  <path
     d="m 33.117152,90.879444 c 0,0.580705 0.01708,0.597785 0.683182,0.597785 0.666102,0 0.683182,-0.01708 0.683182,-0.597785 0,-0.580704 -0.01708,-0.597784 -0.683182,-0.597784 -0.666102,0 -0.683182,0.01708 -0.683182,0.597784 z"
     id="path5622"
     style="stroke-width:0.0170795" />
  <path
     d="m 54.124993,91.477229 v 1.195568 l -0.546546,-0.341591 c -0.73442,-0.444069 -1.315124,-0.426988 -2.032465,0.05124 -0.768579,0.512387 -1.178489,1.366364 -1.178489,2.476535 0,2.134944 1.639636,3.381749 3.210954,2.425295 0.444069,-0.273273 0.546546,-0.290351 0.546546,-0.0854 0,0.187875 0.187875,0.256194 0.683182,0.256194 h 0.683182 V 93.868365 90.28166 h -0.683182 -0.683182 z m -0.35867,2.134943 c 0.136636,0.136636 0.273273,0.597783 0.307431,1.058932 0.06832,0.666102 0.01708,0.905216 -0.290352,1.280966 -0.990614,1.280965 -2.442375,-0.119557 -1.87875,-1.827511 0.290352,-0.905217 1.195569,-1.14433 1.861671,-0.512387 z"
     id="path5624"
     style="stroke-width:0.0170795" />
  <path
     d="m 59.590448,93.868365 v 3.586705 h 0.683181 0.683183 V 93.868365 90.28166 h -0.683183 -0.683181 z"
     id="path5626"
     style="stroke-width:0.0170795" />
  <path
     d="m 41.998516,91.477229 c 0,0.563624 -0.05124,0.683181 -0.341591,0.683181 -0.273273,0 -0.341591,0.119557 -0.341591,0.512387 0,0.39283 0.06832,0.512387 0.341591,0.512387 0.324511,0 0.341591,0.119556 0.341591,1.86167 0,2.220341 0.102477,2.408216 1.383443,2.408216 0.819818,0 0.836897,-0.01708 0.836897,-0.512386 0,-0.426989 -0.06832,-0.512387 -0.426988,-0.512387 -0.426988,0 -0.426988,0 -0.426988,-1.622557 0,-1.622556 0,-1.622556 0.426988,-1.622556 0.358671,0 0.426988,-0.0854 0.426988,-0.512387 0,-0.426988 -0.06832,-0.512387 -0.426988,-0.512387 -0.375749,0 -0.426988,-0.06832 -0.426988,-0.683181 v -0.683182 h -0.683183 -0.683181 z"
     id="path5708"
     style="stroke-width:0.0170795" />
  <path
     d="m 80.769084,91.477229 c 0,0.563624 -0.05124,0.683181 -0.34159,0.683181 -0.273273,0 -0.341592,0.119557 -0.341592,0.512387 0,0.39283 0.06832,0.512387 0.341592,0.512387 0.324511,0 0.34159,0.119556 0.34159,1.86167 0,2.220341 0.102478,2.408216 1.383444,2.408216 0.819818,0 0.836898,-0.01708 0.836898,-0.512386 0,-0.426989 -0.06832,-0.512387 -0.42699,-0.512387 -0.426988,0 -0.426988,0 -0.426988,-1.622557 0,-1.622556 0,-1.622556 0.426988,-1.622556 0.358672,0 0.42699,-0.0854 0.42699,-0.512387 0,-0.426988 -0.06832,-0.512387 -0.42699,-0.512387 -0.37575,0 -0.426988,-0.06832 -0.426988,-0.683181 v -0.683182 h -0.683182 -0.683182 z"
     id="path5710"
     style="stroke-width:0.0170795" />
  <path
     d="m 24.867731,92.16041 c -0.683181,0.204955 -0.973533,0.495307 -1.332204,1.280966 -0.409909,0.871057 -0.409909,2.032466 0,2.920603 0.409909,0.922295 1.263886,1.332204 2.459455,1.212647 0.717341,-0.06832 0.956454,-0.170795 1.434681,-0.700261 0.307432,-0.324511 0.563625,-0.768579 0.563625,-0.956455 0,-0.290352 -0.119556,-0.34159 -0.649022,-0.34159 -0.546546,0 -0.700261,0.0854 -0.853977,0.426988 -0.136637,0.307432 -0.324512,0.426989 -0.683183,0.426989 -0.751499,0 -1.058931,-0.461148 -1.058931,-1.588398 0,-1.058931 0.37575,-1.656715 1.007693,-1.656715 0.341592,0 0.871057,0.426988 0.871057,0.700261 0,0.0854 0.34159,0.153716 0.7515,0.153716 h 0.76858 l -0.153717,-0.529466 c -0.222034,-0.76858 -0.597784,-1.110171 -1.451761,-1.332205 -0.853977,-0.222034 -1.007693,-0.222034 -1.673796,-0.01708 z"
     id="path5718"
     style="stroke-width:0.0170795" />
  <path
     d="m 31.289641,92.245809 c -0.307432,0.136635 -0.563626,0.324511 -0.563626,0.426988 0,0.0854 -0.06832,0.170796 -0.170795,0.170796 -0.0854,0 -0.170796,-0.153716 -0.170796,-0.341592 0,-0.273272 -0.119556,-0.341591 -0.597784,-0.341591 h -0.597783 v 2.64733 2.64733 h 0.683182 0.683181 v -1.588398 c 0,-1.827511 0.187876,-2.23742 1.110171,-2.408216 0.563625,-0.119557 0.597784,-0.153716 0.597784,-0.785659 0,-0.7515 -0.119557,-0.802738 -0.973534,-0.426988 z"
     id="path5720"
     style="stroke-width:0.0170795" />
  <path
     d="m 38.07022,92.17749 c -0.222034,0.0854 -0.563624,0.290353 -0.71734,0.444068 -0.290353,0.256194 -0.307432,0.256194 -0.307432,-0.0854 0,-0.307432 -0.102477,-0.375751 -0.597784,-0.375751 h -0.597785 v 3.672103 3.672102 h 0.683182 0.683182 v -1.315125 c 0,-1.263887 0.01708,-1.298045 0.324511,-1.007693 0.802739,0.73442 2.356978,0.35867 2.971841,-0.700262 0.40991,-0.717341 0.444068,-2.510693 0.05124,-3.262193 -0.478227,-0.939375 -1.622557,-1.400523 -2.493614,-1.041852 z m 1.076012,1.554239 c 0.683182,0.785659 0.119557,2.698568 -0.802739,2.698568 -0.973534,0 -1.520079,-1.110171 -1.12725,-2.305738 0.324511,-0.956456 1.263886,-1.16141 1.929989,-0.39283 z"
     id="path5722"
     style="stroke-width:0.0170795" />
  <path
     d="m 46.183005,92.331206 c -0.39283,0.187875 -0.836898,0.580705 -1.024774,0.888136 -0.409908,0.717341 -0.426988,2.391137 -0.03416,3.159716 0.529466,0.990614 2.271579,1.554239 3.245113,1.058933 0.546546,-0.290353 1.315125,-1.041853 1.315125,-1.298046 0,-0.324512 -1.263886,-0.290353 -1.537159,0.03416 -0.495307,0.597784 -1.87875,0.119557 -1.87875,-0.649023 0,-0.256194 0.239114,-0.290352 1.810432,-0.290352 h 1.827511 l -0.119552,-0.802743 c -0.136636,-1.041853 -0.563624,-1.725034 -1.298045,-2.117864 -0.768579,-0.409909 -1.451761,-0.409909 -2.305738,0.01708 z m 1.827511,1.14433 c 0.580704,0.529466 0.392829,0.734419 -0.717341,0.734419 -0.563625,0 -1.024773,-0.05124 -1.024773,-0.136635 0,-0.06832 0.119557,-0.307432 0.273273,-0.512387 0.307432,-0.444068 1.024773,-0.495306 1.468841,-0.0854 z"
     id="path5724"
     style="stroke-width:0.0170795" />
  <path
     d="m 64.338561,92.297047 c -0.512386,0.273273 -0.649023,0.290352 -0.649023,0.102477 0,-0.170795 -0.204954,-0.239114 -0.683181,-0.239114 h -0.683182 v 2.64733 2.64733 h 0.683182 0.683181 v -1.793353 c 0,-1.588397 0.03416,-1.827511 0.358672,-2.152022 0.461147,-0.461149 1.195567,-0.37575 1.46884,0.187875 0.136637,0.256193 0.222034,1.093091 0.222034,2.083704 v 1.673796 h 0.683182 0.683182 v -2.049546 c 0,-1.11017 -0.0854,-2.22034 -0.187875,-2.442375 -0.39283,-0.853978 -1.605478,-1.161409 -2.579012,-0.666102 z"
     id="path5726"
     style="stroke-width:0.0170795" />
  <path
     d="m 70.692152,92.17749 c -0.222034,0.0854 -0.563625,0.290353 -0.717341,0.444068 -0.290352,0.256194 -0.307432,0.256194 -0.307432,-0.0854 0,-0.307432 -0.102477,-0.375751 -0.597784,-0.375751 h -0.597783 v 3.672103 3.672102 h 0.683181 0.683182 v -1.315125 c 0,-1.263887 0.01708,-1.298045 0.324511,-1.007693 0.802739,0.73442 2.356978,0.35867 2.971842,-0.700262 0.409908,-0.717341 0.444068,-2.510693 0.05124,-3.262193 -0.478228,-0.939375 -1.622556,-1.400523 -2.493614,-1.041852 z m 1.076011,1.554239 c 0.683183,0.785659 0.119557,2.698568 -0.802738,2.698568 -0.973534,0 -1.52008,-1.110171 -1.12725,-2.305738 0.324511,-0.956456 1.263886,-1.16141 1.929988,-0.39283 z"
     id="path5728"
     style="stroke-width:0.0170795" />
  <path
     d="m 33.117152,94.80774 v 2.64733 h 0.683182 0.683182 v -2.64733 -2.64733 h -0.683182 -0.683182 z"
     id="path5912"
     style="stroke-width:0.0170795" />
  <path
     d="m 74.620448,94.192877 c 0,1.127249 0.06832,2.23742 0.170795,2.493613 0.358671,0.939375 2.032466,1.12725 2.920603,0.324511 0.307432,-0.273272 0.324511,-0.273272 0.324511,0.06832 0,0.324512 0.102477,0.375751 0.683182,0.375751 h 0.683182 v -2.64733 -2.64733 h -0.76858 -0.768579 v 1.844591 c 0,1.588398 -0.05124,1.89583 -0.307432,2.134944 -0.358671,0.324511 -0.768579,0.35867 -1.246807,0.119556 -0.290352,-0.170795 -0.324512,-0.37575 -0.324512,-2.134943 V 92.160412 H 75.30363 74.620448 Z"
     id="path5914"
     style="stroke-width:0.0170795" />
</svg>
