<?xml version="1.0" encoding="UTF-8" standalone="no"?>
<!-- Created with Inkscape (http://www.inkscape.org/) -->

<svg
   width="100mm"
   height="100mm"
   viewBox="0 0 100 100"
   version="1.1"
   id="svg26768"
   xmlns="http://www.w3.org/2000/svg"
   xmlns:svg="http://www.w3.org/2000/svg">
  <defs
     id="defs26765" />
  <path
     d="m 30.543507,1.8571491 c -1.789811,0.4261431 -3.477336,1.8068462 -4.329615,3.5284635 l -0.477277,0.971606 -0.08521,24.2901454 -0.0852,24.290147 -4.227339,0.05113 -4.227338,0.03409 0.05113,8.744453 c 0.05113,8.693316 0.05113,8.727406 0.443189,9.443327 0.5966,1.142063 1.346611,1.875029 2.454585,2.437538 l 1.039788,0.511371 h 25.687902 c 29.267485,0 26.642457,0.136365 28.312931,-1.517069 1.755709,-1.772754 1.602301,0.869331 1.653434,-27.170873 l 0.03412,-24.494695 h 4.261431 4.261431 v -7.380796 c 0,-4.244384 -0.0852,-7.8239833 -0.170459,-8.454675 C 84.834186,5.266287 83.828489,3.7151263 82.277332,2.7094294 80.572765,1.6185037 81.885279,1.6696406 55.311007,1.6866865 41.998304,1.7037374 30.901536,1.7719114 30.543576,1.8571432 Z m 49.995087,2.3011721 c 0.971595,0.4431891 2.130711,1.7045714 2.369354,2.5568576 0.119317,0.4261431 0.187501,3.1534573 0.187501,7.4319322 v 6.784196 H 60.765556 38.435664 v -6.443282 c 0,-3.852331 -0.06815,-6.8523781 -0.187491,-7.4660238 C 38.145897,6.4765383 37.804978,5.5390243 37.48111,4.9424236 37.157241,4.3628698 36.901557,3.8344519 36.901557,3.783315 c 0,-0.034092 9.647875,-0.051133 21.443512,-0.034092 21.341237,0.051133 21.426462,0.051133 22.193525,0.4090982 z m -46.790496,0.051133 c 0.86933,0.3920522 2.011394,1.6704804 2.267079,2.5398116 0.153408,0.47728 0.204551,2.9830007 0.204551,8.4546762 v 7.772846 h 19.176425 19.176434 v 24.324238 24.324237 l -0.35796,0.750012 c -0.221593,0.443188 -0.647737,0.920469 -1.05683,1.193199 l -0.698879,0.460235 -22.858303,0.05113 -22.875354,0.03409 0.443185,-0.886377 0.443195,-0.903423 0.08521,-32.642547 0.08521,-32.6425477 0.375001,-0.7841024 c 0.460236,-0.920469 1.107973,-1.5682067 2.011394,-2.0113947 0.903421,-0.4602341 2.642089,-0.4602341 3.579602,-0.034092 z"
     id="path4638"
     style="stroke-width:0.0170458" />
  <path
     d="M 36.219728,30.476907 V 31.49965 H 51.134732 66.049735 V 30.476907 29.454165 H 51.134732 36.219728 Z"
     id="path4640"
     style="stroke-width:0.0170458" />
  <path
     d="m 36.219728,38.999765 v 1.022743 H 47.981273 59.742818 V 38.999765 37.977023 H 47.981273 36.219728 Z"
     id="path4642"
     style="stroke-width:0.0170458" />
  <path
     d="m 36.219728,47.522624 v 1.022743 H 51.134732 66.049735 V 47.522624 46.49988 H 51.134732 36.219728 Z"
     id="path4644"
     style="stroke-width:0.0170458" />
  <path
     d="m 36.219728,56.045482 v 1.022743 H 47.981273 59.742818 V 56.045482 55.022739 H 47.981273 36.219728 Z"
     id="path4646"
     style="stroke-width:0.0170458" />
  <path
     d="m 36.219728,64.56834 v 1.022743 H 51.134732 66.049735 V 64.56834 63.545597 H 51.134732 36.219728 Z"
     id="path4648"
     style="stroke-width:0.0170458" />
  <path
     d="m 38.776583,89.932367 c -0.784104,0.409093 -1.24434,1.278432 -1.125014,2.147761 0.119317,0.971605 0.664778,1.431841 2.232986,1.823893 0.750013,0.187501 1.482974,0.426144 1.653434,0.511369 0.460236,0.238643 0.392052,0.954564 -0.119317,1.278432 -0.767063,0.511369 -2.47163,0 -2.47163,-0.732971 0,-0.153409 -0.238643,-0.221593 -0.750012,-0.221593 -0.71592,0 -0.732961,0.01706 -0.647737,0.460236 0.238644,1.295474 1.517066,2.045486 3.272776,1.875026 1.670484,-0.153408 2.65914,-1.090921 2.48868,-2.403446 -0.119327,-1.005696 -0.681828,-1.448882 -2.437538,-1.909118 -1.857985,-0.494327 -2.267088,-0.920472 -1.585259,-1.6023 0.494328,-0.494328 1.431851,-0.460236 1.960261,0.08521 0.238643,0.221593 0.426144,0.494318 0.426144,0.596594 0,0.08521 0.306817,0.17046 0.681828,0.17046 0.579553,0 0.681829,-0.05118 0.681829,-0.34092 0,-0.630685 -0.511369,-1.346606 -1.193198,-1.704566 -0.852288,-0.443185 -2.267088,-0.460236 -3.068233,-0.03412 z"
     id="path4774"
     style="stroke-width:0.0170458" />
  <path
     d="m 53.776821,90.392603 c 0,0.579552 0.01706,0.596603 0.681829,0.596603 0.664777,0 0.681828,-0.01706 0.681828,-0.596603 0,-0.579553 -0.01706,-0.596604 -0.681828,-0.596604 -0.664788,0 -0.681829,0.01706 -0.681829,0.596604 z"
     id="path4828"
     style="stroke-width:0.0170458" />
  <path
     d="m 62.640582,90.989206 c 0,0.562502 -0.05118,0.681819 -0.340909,0.681819 -0.272735,0 -0.340909,0.119327 -0.340909,0.511379 0,0.392042 0.06814,0.511369 0.340909,0.511369 0.323868,0 0.340909,0.119316 0.340909,1.857985 0,2.215945 0.102276,2.403446 1.380708,2.403446 0.818197,0 0.835238,-0.01706 0.835238,-0.511369 0,-0.426144 -0.06815,-0.511379 -0.426135,-0.511379 -0.426154,0 -0.426154,0 -0.426154,-1.619342 0,-1.619341 0,-1.619341 0.426154,-1.619341 0.357951,0 0.426135,-0.0852 0.426135,-0.511369 0,-0.426144 -0.06815,-0.511379 -0.426135,-0.511379 -0.375011,0 -0.426154,-0.06815 -0.426154,-0.681819 v -0.681838 h -0.681828 -0.681829 z"
     id="path4850"
     style="stroke-width:0.0170458" />
  <path
     d="m 45.543735,91.671025 c -0.681828,0.204551 -0.971604,0.494328 -1.329565,1.278432 -0.409103,0.869329 -0.409103,2.028445 0,2.914825 0.409093,0.920462 1.261382,1.329555 2.454579,1.210238 0.715921,-0.06814 0.954564,-0.170459 1.431841,-0.698869 0.306818,-0.323869 0.562512,-0.767063 0.562512,-0.954564 0,-0.289777 -0.119317,-0.340909 -0.647737,-0.340909 -0.545461,0 -0.698879,0.08521 -0.852288,0.426134 -0.136368,0.306827 -0.323868,0.426144 -0.681829,0.426144 -0.750012,0 -1.056839,-0.460226 -1.056839,-1.58525 0,-1.05683 0.375011,-1.653433 1.005697,-1.653433 0.340919,0 0.869339,0.426144 0.869339,0.698879 0,0.08521 0.340909,0.153409 0.750012,0.153409 h 0.767054 l -0.153409,-0.52842 c -0.221593,-0.767053 -0.596604,-1.107973 -1.448892,-1.329565 -0.852278,-0.221593 -1.005697,-0.221593 -1.670475,-0.01706 z"
     id="path4972"
     style="stroke-width:0.0170458" />
  <path
     d="m 51.952918,91.75626 c -0.306817,0.136367 -0.562502,0.323868 -0.562502,0.426144 0,0.0852 -0.06814,0.170449 -0.17046,0.170449 -0.0852,0 -0.170459,-0.153408 -0.170459,-0.340909 0,-0.272735 -0.119317,-0.340919 -0.596594,-0.340919 h -0.596604 v 2.642089 2.64209 h 0.681829 0.681828 v -1.58525 c 0,-1.823893 0.187501,-2.232996 1.107973,-2.403456 0.562512,-0.119317 0.596604,-0.153409 0.596604,-0.784094 0,-0.750013 -0.119327,-0.801156 -0.971615,-0.426144 z"
     id="path4974"
     style="stroke-width:0.0170458" />
  <path
     d="m 58.720071,91.688076 c -0.221593,0.08521 -0.562512,0.289776 -0.715921,0.443185 -0.289776,0.255694 -0.306827,0.255694 -0.306827,-0.08521 0,-0.306828 -0.102266,-0.375011 -0.596594,-0.375011 h -0.596604 v 3.664827 3.664837 h 0.681829 0.681828 V 97.68818 c 0,-1.261382 0.01706,-1.295473 0.323869,-1.005697 0.801155,0.732961 2.352313,0.35796 2.965957,-0.69887 0.409103,-0.71592 0.443195,-2.505721 0.05118,-3.255734 -0.477287,-0.937513 -1.619342,-1.397749 -2.488681,-1.039788 z m 1.07388,1.551158 c 0.681829,0.784104 0.119327,2.693222 -0.801145,2.693222 -0.971605,0 -1.517076,-1.107973 -1.125024,-2.30117 0.323869,-0.954564 1.261392,-1.159106 1.926169,-0.392052 z"
     id="path4976"
     style="stroke-width:0.0170458" />
  <path
     d="m 53.776821,94.313114 v 2.64209 h 0.681829 0.681828 v -2.64209 -2.642089 H 54.45865 53.776821 Z"
     id="path5010"
     style="stroke-width:0.0170458" />
</svg>
