<?xml version="1.0" encoding="UTF-8" standalone="no"?>
<!-- Created with Inkscape (http://www.inkscape.org/) -->

<svg
   width="100mm"
   height="100mm"
   viewBox="0 0 100 100"
   version="1.1"
   id="svg26768"
   xmlns="http://www.w3.org/2000/svg"
   xmlns:svg="http://www.w3.org/2000/svg">
  <defs
     id="defs26765" />
  <path
     d="m 25.116177,1.437383 c -1.028058,0.5056068 -1.26401,1.0280674 -1.365136,2.8651043 l -0.08427,1.6347945 -1.735913,0.084266 -1.752773,0.084266 -0.573015,0.6235818 -0.573022,0.640435 0.03364,34.1958584 0.05054,34.212712 0.50561,0.522463 c 0.26965,0.26965 0.77526,0.589868 1.112331,0.674142 0.404483,0.117971 9.893036,0.151678 27.066808,0.134825 26.089295,-0.05054 26.426365,-0.05054 26.999388,-0.38763 0.910085,-0.539316 1.196596,-1.264017 1.196596,-2.983084 v -1.483108 h 1.516822 c 1.752766,0 2.359494,-0.219099 2.865104,-1.061771 0.337071,-0.522463 0.337071,-1.112338 0.337071,-34.43181 V 2.8699352 L 80.345194,2.3137682 C 80.126095,2.0104039 79.687906,1.6227723 79.367688,1.4542369 78.811519,1.1508734 77.749748,1.1340195 52.233468,1.1340195 c -24.94325,0 -26.578052,0.016853 -27.117368,0.3033635 z M 78.272279,36.77928 v 33.2015 H 77.092536 75.912785 L 75.828519,38.633172 C 75.7274,3.8980017 75.845342,6.8136685 74.615062,6.1732335 74.008333,5.8698692 73.317339,5.853016 50.042581,5.853016 H 26.110543 V 4.673265 3.4935162 l 26.089295,0.033706 26.072441,0.05056 z m -4.634723,4.718996 V 74.784042 H 47.514548 21.391546 V 41.498276 8.2125105 h 26.123002 26.123008 z"
     id="path6626"
     style="stroke-width:0.0168535" />
  <path
     d="m 55.351453,19.757194 c -0.792113,0.421336 -7.331296,7.027931 -7.331296,7.398708 0,0.185393 0.134833,0.471904 0.286512,0.640435 0.269658,0.303365 0.252804,0.337071 -0.134826,0.724701 L 47.767352,28.942382 45.862901,27.03793 C 44.042722,25.217744 43.97531,25.116625 44.143841,24.661575 45.171906,21.948157 42.18883,18.89766 39.441705,19.858313 l -0.556169,0.202245 1.112331,1.112339 c 0.640435,0.640435 1.112338,1.264009 1.112338,1.466254 0,0.370777 -1.146044,1.584235 -1.499968,1.584235 -0.117972,0 -0.741562,-0.50561 -1.381989,-1.129184 -0.640435,-0.606729 -1.213457,-1.061779 -1.28087,-0.994367 -0.06744,0.05054 -0.151686,0.556169 -0.185392,1.112339 -0.185392,2.56174 2.140403,4.601017 4.634731,4.044855 l 0.792113,-0.185392 1.904452,1.904451 1.904451,1.904452 -2.561739,2.56174 c -2.207817,2.224669 -2.595447,2.528033 -2.881958,2.393201 -0.640435,-0.353924 -1.028065,-0.03372 -2.089836,1.702214 -0.589883,0.926938 -1.061779,1.752765 -1.061779,1.820178 0,0.219099 0.741554,0.876387 0.977505,0.876387 0.353924,0 3.50554,-2.123551 3.623512,-2.426915 0.06744,-0.168532 0.03364,-0.455043 -0.06744,-0.640435 -0.168531,-0.320218 0.06744,-0.606721 2.393201,-2.932517 l 2.595454,-2.595446 1.904452,1.904452 c 1.499961,1.483115 1.887591,1.955011 1.803325,2.224669 -0.438189,1.466262 -0.202238,2.730279 0.724708,3.808904 0.792114,0.910093 1.702207,1.331429 2.983077,1.331429 1.651647,0 1.685353,-0.168532 0.38763,-1.449402 C 54.08741,38.835418 53.5818,38.211836 53.5818,38.06015 c 0,-0.337071 1.179751,-1.533675 1.516822,-1.533675 0.134833,0 0.758407,0.50561 1.381989,1.129192 0.623581,0.623581 1.196604,1.078624 1.264024,1.011211 0.219091,-0.235951 0.252797,-2.106689 0.05054,-2.747124 -0.337078,-1.01122 -1.398849,-2.039285 -2.477474,-2.376355 -0.77526,-0.235952 -1.044926,-0.252805 -1.870745,-0.08427 l -0.960653,0.202245 -1.887599,-1.887598 -1.904451,-1.904452 0.421336,-0.404491 c 0.387638,-0.38763 0.421344,-0.404483 0.724708,-0.134825 0.168532,0.151679 0.421337,0.286511 0.556162,0.286511 0.404491,0 7.499835,-7.263883 7.634668,-7.786338 0.337063,-1.415703 -1.39885,-2.747132 -2.67972,-2.072991 z"
     id="path6628"
     style="stroke-width:0.0168535" />
  <path
     d="m 32.380068,49.6554 c -2.325796,0.808966 -3.320155,3.252734 -2.207817,5.443689 0.421337,0.842681 1.466255,1.415703 3.707777,2.072991 2.157257,0.640435 2.67972,0.943799 2.67972,1.533667 0,1.449409 -1.837039,1.820186 -4.028002,0.808974 -0.50561,-0.21909 -1.078625,-0.556169 -1.247164,-0.707847 -0.303364,-0.269658 -0.353924,-0.235952 -1.146045,0.640435 -0.438189,0.50561 -0.808966,0.994359 -0.825819,1.095478 0,0.303364 1.61794,1.280869 2.713418,1.634801 1.432548,0.455043 3.623519,0.505602 4.803262,0.08427 2.410062,-0.842681 3.387568,-3.977443 1.803333,-5.848181 -0.573022,-0.690994 -1.634793,-1.213457 -3.724638,-1.820186 -1.988717,-0.573022 -2.3932,-0.859533 -2.3932,-1.651654 0,-1.247156 1.786472,-1.483108 3.825756,-0.505603 l 1.196605,0.573023 0.7247,-1.011212 c 0.690995,-0.994359 0.707848,-1.028073 0.38763,-1.264017 -1.6685,-1.264017 -4.398779,-1.719067 -6.269516,-1.078624 z"
     id="path6630"
     style="stroke-width:0.0168535" />
  <path
     d="m 41.025932,49.722812 c -0.05054,0.101119 -0.06744,3.016783 -0.05054,6.438056 l 0.05054,6.235811 2.190963,0.05054 c 4.129121,0.08427 6.303231,-0.455043 7.820053,-1.971864 2.44376,-2.443768 2.426907,-6.808833 -0.05054,-9.084062 -1.601087,-1.483115 -3.117909,-1.887599 -7.145911,-1.887599 -2.039277,0 -2.763985,0.05054 -2.814545,0.219099 z m 6.926813,2.83139 c 1.179751,0.606729 1.803333,1.668501 1.887598,3.202175 0.06744,0.994359 0,1.297723 -0.370777,2.072991 -0.573022,1.179744 -1.398849,1.752766 -2.848251,1.971865 -0.589875,0.101126 -1.466262,0.151686 -1.904451,0.117972 l -0.825828,-0.05054 -0.05054,-3.707777 c -0.0169,-2.039285 0,-3.808904 0.05054,-3.926876 0.06744,-0.185392 0.421344,-0.219099 1.6685,-0.168539 1.264017,0.05054 1.735921,0.151678 2.393209,0.488749 z"
     id="path6632"
     style="stroke-width:0.0168535" />
  <path
     d="m 54.761578,55.992329 v 6.488623 h 1.348282 1.348283 V 60.492227 58.50351 l 0.808974,-0.792121 0.792113,-0.792114 1.938166,2.780839 1.938158,2.763977 1.735913,0.0169 h 1.735912 l -0.370777,-0.55617 C 65.817511,61.63831 64.722026,60.138342 63.609695,58.604674 62.480504,57.070999 61.435585,55.62159 61.267046,55.368786 l -0.303364,-0.455043 2.662866,-2.713418 2.646006,-2.696573 h -1.752773 -1.769619 l -2.595446,2.797691 -2.6123,2.797692 -0.05054,-2.797692 -0.03372,-2.797691 h -1.348282 -1.348283 z"
     id="path6634"
     style="stroke-width:0.0168535" />
  <path
     d="m 40.436064,91.603883 c -0.775268,0.404491 -1.23031,1.264017 -1.112338,2.12355 0.117979,0.960653 0.657288,1.415695 2.207816,1.803325 0.741554,0.185393 1.466262,0.421344 1.634794,0.50561 0.45505,0.235952 0.387637,0.9438 -0.117972,1.264017 -0.758415,0.505602 -2.443768,0 -2.443768,-0.724701 0,-0.151678 -0.235952,-0.219098 -0.741554,-0.219098 -0.707855,0 -0.724701,0.0169 -0.640435,0.455042 0.235944,1.280878 1.499968,2.022432 3.235881,1.853893 1.651647,-0.151679 2.629152,-1.078625 2.460621,-2.376348 -0.11798,-0.994359 -0.674149,-1.432556 -2.410062,-1.887599 -1.837039,-0.488749 -2.241522,-0.910093 -1.567381,-1.584234 0.488749,-0.488756 1.415695,-0.455043 1.938158,0.08427 0.235952,0.219099 0.421344,0.488757 0.421344,0.589875 0,0.08427 0.303357,0.16854 0.674142,0.16854 0.573014,0 0.674141,-0.05054 0.674141,-0.337079 0,-0.623574 -0.50561,-1.331421 -1.179751,-1.685345 -0.842681,-0.438197 -2.241523,-0.455051 -3.033636,-0.03372 z"
     id="path7068"
     style="stroke-width:0.0168535" />
  <path
     d="m 45.997733,95.025156 v 3.556099 l 2.089837,-0.06744 c 1.820186,-0.05054 2.157257,-0.101127 2.578601,-0.404491 1.432548,-1.061771 1.820178,-3.808896 0.758407,-5.44369 -0.623582,-0.960652 -1.314577,-1.196604 -3.572952,-1.196604 h -1.853893 z m 3.539246,-2.224669 c 0.573022,0.151678 1.011212,1.078625 1.011212,2.123543 0,0.994366 -0.421336,1.938165 -1.011212,2.224677 -0.235952,0.117972 -0.77526,0.219091 -1.213457,0.219091 h -0.808974 v -2.359495 -2.359502 l 0.808974,0.0169 c 0.438197,0.0169 0.977505,0.06744 1.213457,0.134825 z"
     id="path7082"
     style="stroke-width:0.0168535" />
  <path
     d="m 53.244764,95.008303 v 3.539246 h 0.674141 0.674141 v -1.146037 c 0,-0.994367 0.05054,-1.213458 0.38763,-1.533675 l 0.404484,-0.370777 1.061779,1.533675 1.061771,1.516814 h 0.89324 c 0.505602,0 0.910085,-0.03372 0.910085,-0.08427 0,-0.05054 -0.640435,-0.960653 -1.432548,-2.022432 -0.792121,-1.061771 -1.432548,-1.988717 -1.432548,-2.05613 0,-0.06744 0.623574,-0.758414 1.381981,-1.516821 l 1.398849,-1.398842 h -0.926946 l -0.926946,-0.0169 -1.381989,1.483107 -1.381989,1.483116 -0.0169,-1.483116 v -1.466254 h -0.674141 -0.674141 z"
     id="path7084"
     style="stroke-width:0.0168535" />
</svg>
