<?xml version="1.0" encoding="UTF-8" standalone="no"?>
<!-- Created with Inkscape (http://www.inkscape.org/) -->

<svg
   width="100mm"
   height="100mm"
   viewBox="0 0 100 100"
   version="1.1"
   id="svg26768"
   sodipodi:docname="search heads.svg"
   inkscape:version="1.1.1 (3bf5ae0d25, 2021-09-20)"
   xmlns:inkscape="http://www.inkscape.org/namespaces/inkscape"
   xmlns:sodipodi="http://sodipodi.sourceforge.net/DTD/sodipodi-0.dtd"
   xmlns="http://www.w3.org/2000/svg"
   xmlns:svg="http://www.w3.org/2000/svg">
  <sodipodi:namedview
     id="namedview26770"
     pagecolor="#ffffff"
     bordercolor="#666666"
     borderopacity="1.0"
     inkscape:pageshadow="2"
     inkscape:pageopacity="0.0"
     inkscape:pagecheckerboard="0"
     inkscape:document-units="mm"
     showgrid="false"
     width="209mm"
     inkscape:zoom="0.7500982"
     inkscape:cx="13.998167"
     inkscape:cy="241.96832"
     inkscape:window-width="1920"
     inkscape:window-height="1027"
     inkscape:window-x="1912"
     inkscape:window-y="-8"
     inkscape:window-maximized="1"
     inkscape:current-layer="layer1" />
  <defs
     id="defs26765" />
  <g
     inkscape:label="Layer 1"
     inkscape:groupmode="layer"
     id="layer1">
    <path
       d="M 28.830153,0.86665614 C 26.675626,1.5409645 25.096743,3.4816816 24.915826,5.7513299 l -0.08229,1.0032505 -1.069034,0.098676 C 22.317191,7.0012815 21.149481,7.5933599 20.129784,8.6952862 18.567347,10.405748 18.715362,7.0177276 18.715362,42.904459 v 31.57769 l 0.54274,1.101927 c 0.641427,1.315746 1.67757,2.286106 2.943967,2.763051 0.888117,0.328942 1.069035,0.328942 24.522055,0.296039 l 23.633928,-0.04939 0.707211,-0.378269 c 1.759789,-0.937467 2.894619,-2.615037 3.091971,-4.588635 l 0.115133,-0.986805 1.036143,-0.09867 c 2.088731,-0.197364 3.947217,-1.59534 4.670865,-3.503154 0.32893,-0.904575 0.32893,-0.937466 0.29605,-32.679628 L 80.226031,4.5835524 79.765521,3.711881 C 79.206323,2.6428464 78.235964,1.6889338 77.216279,1.1790855 L 76.443283,0.80081647 52.842237,0.76792441 C 39.865786,0.75153417 29.060297,0.80081647 28.830041,0.8666004 Z M 76.295369,3.0047253 c 0.822334,0.3782803 1.611776,1.3157357 1.858477,2.2203103 0.148025,0.4934022 0.180917,7.1049834 0.148025,24.5220434 l -0.04939,23.847748 -0.394726,0.871671 c -0.476957,1.069035 -1.858476,2.368325 -2.878173,2.713713 l -0.75655,0.263148 -0.03289,-23.222767 -0.04939,-23.222766 -0.46051,-0.937455 C 73.088155,8.8433118 72.10135,7.8565069 70.966531,7.3302128 L 70.029065,6.8861484 48.418085,6.8367547 26.807094,6.8038627 26.90577,5.9979753 c 0.180906,-1.4966529 1.134819,-2.7630506 2.368325,-3.1413309 0.2467,-0.065783 10.789043,-0.148014 23.403671,-0.148014 21.972814,-0.01639 22.976065,0 23.617492,0.2960391 z m -6.101733,6.2168555 c 0.75655,0.3947255 1.249952,0.9045742 1.628232,1.6446772 0.246701,0.476957 0.263136,2.746605 0.263136,24.604286 0,21.676764 -0.03289,24.143775 -0.263136,24.850986 -0.361833,1.05259 -1.644677,2.417663 -2.730158,2.911065 l -0.871672,0.394727 H 46.428141 24.636233 L 23.879684,63.281933 C 22.827095,62.788531 21.823845,61.83463 21.29755,60.847825 l -0.444053,-0.838779 -0.04939,-24.094438 c -0.03289,-16.808547 0,-24.275354 0.131579,-24.702973 0.328931,-1.134818 1.348627,-2.022946 2.631471,-2.2860933 0.312486,-0.06579 10.789044,-0.098674 23.272104,-0.082288 l 22.696472,0.016498 z m 8.108235,53.8301082 -0.04939,5.016242 -0.46051,0.772995 c -0.542741,0.937467 -1.496653,1.529545 -2.713713,1.694016 l -0.855225,0.115123 0.0329,-6.28264 0.04939,-6.299097 0.657874,-0.197351 c 0.361822,-0.09867 0.953911,-0.378281 1.33218,-0.608536 0.657874,-0.427618 1.84203,-1.661124 1.907815,-2.006501 0.09867,-0.493403 0.148025,3.322237 0.09867,7.795749 z m -55.655682,0.296039 c 1.628221,1.085481 0.263147,1.036143 24.12733,0.986793 l 21.61098,-0.04939 1.101926,-0.542741 c 0.707211,-0.345376 1.365085,-0.838779 1.858487,-1.381519 l 0.75655,-0.838791 -0.04928,6.49646 -0.04939,6.480003 -0.444054,0.674319 c -0.279604,0.427607 -0.740102,0.822334 -1.2993,1.101926 l -0.871672,0.427619 H 46.477493 c -20.344594,0 -22.992511,-0.03289 -23.535252,-0.263148 -0.772994,-0.312484 -1.447315,-0.953912 -1.858486,-1.743353 -0.29604,-0.575632 -0.312486,-1.036143 -0.312486,-6.956959 v -6.36488 l 0.542741,0.723657 c 0.29605,0.394715 0.888128,0.953913 1.332192,1.249952 z"
       id="path5505"
       style="stroke-width:0.0164468" />
    <path
       d="m 38.714622,17.428491 c -1.29929,0.345389 -2.2203,0.789452 -3.388021,1.628232 -2.68081,1.907814 -4.243246,4.934011 -4.259704,8.223356 0,1.84203 0.246702,2.911065 1.085492,4.670865 1.217049,2.549241 3.799182,4.654418 6.628028,5.361629 1.266398,0.328943 3.799193,0.312486 5.065591,-0.0165 0.921009,-0.230255 2.565677,-0.986805 3.601819,-1.661113 l 0.460511,-0.279604 0.805887,0.789453 c 0.707211,0.690754 0.805887,0.888117 0.871682,1.611774 l 0.08218,0.822334 4.60508,4.60508 c 4.457067,4.457067 4.637972,4.605081 5.328738,4.687323 0.92101,0.08217 1.710462,-0.378281 2.055839,-1.217061 0.526295,-1.249952 0.444065,-1.365085 -4.341933,-6.200409 -2.417674,-2.417673 -4.621527,-4.506404 -4.917566,-4.637983 -0.296039,-0.131568 -0.740103,-0.230256 -0.986804,-0.230256 -0.328932,0 -0.690766,-0.24669 -1.29929,-0.838779 l -0.855226,-0.83878 0.641416,-0.986805 c 1.233506,-1.924271 1.710462,-3.716963 1.59533,-6.118178 -0.131568,-2.68081 -1.118373,-4.835336 -3.059091,-6.759596 -1.184156,-1.200614 -3.059089,-2.253203 -4.654418,-2.631472 -1.315736,-0.312495 -3.897869,-0.29605 -5.06559,0.0165 z m 4.506404,1.957163 c 3.947208,1.019697 6.628028,4.73666 6.266194,8.667421 -0.526294,5.805694 -6.74315,9.259498 -11.940308,6.628027 -0.444065,-0.230255 -1.282844,-0.855236 -1.858477,-1.397976 -1.677569,-1.562438 -2.582144,-3.618277 -2.582144,-5.838576 0,-2.203864 0.707211,-4.013002 2.203864,-5.624776 2.072286,-2.220311 5.098483,-3.157777 7.910871,-2.43412 z"
       id="path5507"
       style="stroke-width:0.0164468" />
    <path
       d="m 35.885788,22.230934 c -0.723646,0.772996 -1.792692,2.51635 -1.792692,2.89462 0,0.04939 2.072284,0.09867 4.60508,0.09867 h 4.60508 V 23.25062 21.277011 H 40.030358 36.75747 Z"
       id="path5509"
       style="stroke-width:0.0164468" />
    <path
       d="m 37.21797,31.473988 v 1.973609 h 4.276149 4.27615 l 0.70721,-0.641416 c 0.740093,-0.690766 1.67756,-2.121634 1.842031,-2.861738 l 0.115121,-0.444065 H 42.8263 37.21797 Z"
       id="path5511"
       style="stroke-width:0.0164468" />
    <path
       d="m 24.882934,24.237435 v 0.986805 h 2.121634 2.121624 l 0.180917,-0.723657 c 0.09868,-0.394716 0.213798,-0.838779 0.279593,-0.986805 0.08218,-0.230255 -0.148025,-0.263147 -2.30254,-0.263147 h -2.401228 z"
       id="path5513"
       style="stroke-width:0.0164468" />
    <path
       d="m 55.638292,24.237435 v 0.986805 h 6.167516 6.167529 v -0.986805 -0.986804 h -6.167529 -6.167516 z"
       id="path5515"
       style="stroke-width:0.0164468" />
    <path
       d="m 24.882934,30.487183 v 0.986805 h 0.986805 0.986805 v -0.986805 -0.986805 h -0.986805 -0.986805 z"
       id="path5517"
       style="stroke-width:0.0164468" />
    <path
       d="m 53.417993,29.697742 c -0.115134,0.394726 -0.411173,1.529545 -0.411173,1.644678 0,0.08218 1.069034,0.131568 2.384781,0.131568 h 2.384771 v -0.986805 -0.986805 h -2.13808 c -1.578883,0 -2.170962,0.04939 -2.220299,0.197364 z"
       id="path5519"
       style="stroke-width:0.0164468" />
    <path
       d="m 61.888049,30.487183 v 0.986805 h 3.042644 3.042644 v -0.986805 -0.986805 h -3.042644 -3.042644 z"
       id="path5521"
       style="stroke-width:0.0164468" />
    <path
       d="m 24.882934,36.572471 v 0.986804 h 4.720214 c 2.582133,0 4.670864,-0.03289 4.637972,-0.06579 -0.03289,-0.0165 -0.559186,-0.46051 -1.167721,-0.986805 L 31.971472,35.58566 H 28.41898 24.882934 Z"
       id="path5523"
       style="stroke-width:0.0164468" />
    <path
       d="m 56.378394,36.572471 0.97036,0.986804 h 5.312291 5.312292 v -0.986804 -0.986805 h -6.28265 -6.28264 z"
       id="path5525"
       style="stroke-width:0.0164468" />
    <path
       d="m 24.882934,42.822229 v 0.986794 h 9.210162 9.21016 v -0.986794 -0.986804 h -9.21016 -9.210162 z"
       id="path5527"
       style="stroke-width:0.0164468" />
    <path
       d="m 47.414935,42.822229 v 0.986794 h 2.253202 2.253203 l -0.970359,-0.986794 -0.970359,-0.986804 h -1.282843 -1.282844 z"
       id="path5529"
       style="stroke-width:0.0164468" />
    <path
       d="m 62.578815,42.822229 0.871672,0.986794 h 2.269648 2.253202 v -0.986794 -0.986804 h -3.14133 -3.124874 z"
       id="path5531"
       style="stroke-width:0.0164468" />
    <path
       d="m 24.882934,48.907516 v 0.986794 h 4.111679 4.111678 v -0.986794 -0.986804 h -4.111678 -4.111679 z"
       id="path5533"
       style="stroke-width:0.0164468" />
    <path
       d="m 37.21797,48.907516 v 0.986794 h 8.223367 8.223357 V 48.907516 47.920712 H 45.441337 37.21797 Z"
       id="path5535"
       style="stroke-width:0.0164468" />
    <path
       d="m 65.999728,48.907516 v 0.986794 h 0.986805 0.986804 v -0.986794 -0.986804 h -0.986804 -0.986805 z"
       id="path5537"
       style="stroke-width:0.0164468" />
    <path
       d="m 25.853293,68.857373 c -0.740103,0.493402 -1.00325,1.036141 -0.921009,1.907813 0.06578,0.542751 0.213798,0.83879 0.62497,1.233517 0.509848,0.493392 0.526294,0.493392 0.263147,0.06578 -0.608525,-0.986804 -0.01639,-2.170973 1.101926,-2.170973 1.151276,0 1.7598,1.348629 1.003251,2.220311 -0.328931,0.361823 -0.328931,0.361823 0.03289,0.164472 1.282844,-0.657874 1.29929,-2.697267 0.01639,-3.470263 -0.7072,-0.427618 -1.430858,-0.411172 -2.121622,0.04939 z"
       id="path5539"
       style="stroke-width:0.0164468" />
    <path
       d="m 19.291049,91.965005 c -0.756538,0.394726 -1.200602,1.233505 -1.085481,2.072286 0.115134,0.937466 0.641428,1.38153 2.154527,1.75981 0.723646,0.180906 1.430857,0.411162 1.595329,0.493392 0.444064,0.230255 0.378269,0.92102 -0.115134,1.233505 -0.740091,0.493403 -2.38477,0 -2.38477,-0.707211 0,-0.148014 -0.230255,-0.213798 -0.723657,-0.213798 -0.690754,0 -0.707201,0.0165 -0.62497,0.444053 0.230255,1.249952 1.46376,1.973609 3.157766,1.809138 1.611774,-0.148014 2.565687,-1.052588 2.401227,-2.318987 -0.115134,-0.970347 -0.657874,-1.397965 -2.351889,-1.84203 -1.792692,-0.476956 -2.187407,-0.888128 -1.529546,-1.545991 0.476957,-0.476955 1.381531,-0.444063 1.89138,0.08218 0.230255,0.213809 0.411161,0.476957 0.411161,0.575632 0,0.08229 0.296051,0.164471 0.657873,0.164471 0.559187,0 0.657874,-0.04939 0.657874,-0.328931 0,-0.608524 -0.493403,-1.29929 -1.151276,-1.644666 -0.822333,-0.427618 -2.187418,-0.444065 -2.960414,-0.0329 z"
       id="path5615"
       style="stroke-width:0.0164468" />
    <path
       d="m 44.454532,95.287241 v 3.453817 h 0.657863 0.657874 V 97.01415 c 0,-1.513099 0.04939,-1.776246 0.32893,-2.055839 0.180918,-0.180918 0.509849,-0.328931 0.723658,-0.328931 0.674308,0 0.822333,0.394715 0.888117,2.318986 l 0.06579,1.792692 h 0.657862 0.657874 l -0.06579,-2.138069 c -0.04939,-2.039405 -0.06578,-2.154527 -0.476955,-2.549242 -0.59209,-0.592089 -1.463761,-0.707211 -2.203865,-0.279593 l -0.575632,0.345378 v -1.134819 -1.151276 h -0.657862 -0.657863 z"
       id="path5675"
       style="stroke-width:0.0164468" />
    <path
       d="m 53.00682,95.287241 v 3.453817 h 0.740103 0.740104 v -1.562437 -1.562437 h 1.315736 1.315735 v 1.562437 1.562437 h 0.740104 0.740103 v -3.453817 -3.453804 h -0.740103 -0.740104 v 1.315735 1.315737 H 55.802763 54.487027 V 93.149172 91.833437 H 53.746923 53.00682 Z"
       id="path5677"
       style="stroke-width:0.0164468" />
    <path
       d="m 73.894154,92.984713 v 1.151264 l -0.526295,-0.328942 c -0.707212,-0.427607 -1.266397,-0.411161 -1.957163,0.04939 -0.740103,0.493402 -1.134819,1.315736 -1.134819,2.38477 0,2.055839 1.578883,3.256453 3.091982,2.335432 0.427607,-0.263147 0.526295,-0.279593 0.526295,-0.08218 0,0.180917 0.180916,0.246701 0.657862,0.246701 h 0.657873 v -3.453816 -3.453804 h -0.657873 -0.657862 z m -0.345388,2.055828 c 0.131579,0.131579 0.263147,0.575643 0.29605,1.019696 0.06578,0.641427 0.0165,0.871683 -0.279605,1.233506 -0.953912,1.233506 -2.351878,-0.115122 -1.809137,-1.7598 0.279592,-0.871671 1.151275,-1.101927 1.792692,-0.493402 z"
       id="path5679"
       style="stroke-width:0.0164468" />
    <path
       d="m 25.623038,93.807035 c -0.378269,0.180917 -0.805887,0.559198 -0.986805,0.855237 -0.394715,0.690765 -0.411161,2.30254 -0.03289,3.042643 0.509848,0.953913 2.187417,1.496653 3.124873,1.019697 0.526294,-0.279593 1.266398,-1.003251 1.266398,-1.249952 0,-0.312484 -1.21706,-0.279593 -1.480207,0.03289 -0.476945,0.575632 -1.809138,0.115122 -1.809138,-0.624981 0,-0.246701 0.230254,-0.279593 1.743354,-0.279593 h 1.7598 l -0.115122,-0.772995 c -0.131579,-1.003252 -0.542752,-1.661113 -1.249952,-2.039394 -0.740104,-0.394715 -1.397976,-0.394715 -2.22031,0.0165 z m 1.7598,1.101938 c 0.559187,0.509848 0.37828,0.707211 -0.690765,0.707211 -0.542741,0 -0.986794,-0.04928 -0.986794,-0.131579 0,-0.06578 0.115122,-0.296039 0.263147,-0.493403 0.29604,-0.427618 0.986794,-0.476956 1.414412,-0.08218 z"
       id="path5821"
       style="stroke-width:0.0164468" />
    <path
       d="m 31.034006,93.708359 c -0.575632,0.246702 -1.052589,0.83878 -1.052589,1.282843 0,0.444065 1.167722,0.411173 1.447315,-0.03289 0.246701,-0.411172 1.29929,-0.46051 1.447315,-0.08229 0.16446,0.427607 -0.230256,0.690765 -1.200614,0.822333 -1.200614,0.148025 -1.858475,0.740104 -1.858475,1.677571 0.01639,1.348627 1.348627,1.957151 2.598579,1.200602 0.46051,-0.279593 0.54274,-0.296039 0.62497,-0.08218 0.06579,0.164472 0.328931,0.246702 0.855236,0.246702 0.592078,0 0.707201,-0.04939 0.559187,-0.197364 -0.13158,-0.131568 -0.197363,-0.855225 -0.197363,-2.138069 0,-2.187418 -0.115123,-2.434119 -1.266398,-2.746605 -0.822333,-0.230254 -1.332181,-0.213809 -1.957163,0.04939 z m 1.743353,3.568938 c -0.312484,0.723658 -1.33218,0.871682 -1.595328,0.213809 -0.164471,-0.444064 0.180917,-0.789442 0.953912,-0.970358 0.83878,-0.213809 0.970348,-0.04939 0.641416,0.756549 z"
       id="path5823"
       style="stroke-width:0.0164468" />
    <path
       d="m 37.431779,93.724805 c -0.29604,0.131579 -0.542741,0.312486 -0.542741,0.411172 0,0.08218 -0.06578,0.164471 -0.16446,0.164471 -0.08229,0 -0.164471,-0.148025 -0.164471,-0.328942 0,-0.263147 -0.115133,-0.328931 -0.575633,-0.328931 h -0.575643 v 2.549241 2.549242 h 0.657873 0.657874 v -1.529545 c 0,-1.7598 0.180906,-2.154515 1.069035,-2.318986 0.54274,-0.115134 0.575632,-0.148025 0.575632,-0.75655 0,-0.723657 -0.115134,-0.772996 -0.937466,-0.411172 z"
       id="path5825"
       style="stroke-width:0.0164468" />
    <path
       d="m 40.457976,93.642575 c -0.657874,0.197363 -0.937466,0.476957 -1.282843,1.233506 -0.394716,0.838779 -0.394716,1.957163 0,2.812388 0.394726,0.888117 1.217059,1.282844 2.368323,1.167711 0.690766,-0.06579 0.921021,-0.16446 1.381531,-0.674308 0.296039,-0.312486 0.54274,-0.740104 0.54274,-0.921021 0,-0.279593 -0.115132,-0.328931 -0.624981,-0.328931 -0.526294,0 -0.674308,0.08218 -0.822333,0.411172 -0.131568,0.296039 -0.312485,0.411162 -0.657862,0.411162 -0.723657,0 -1.019697,-0.444065 -1.019697,-1.529546 0,-1.019696 0.361823,-1.595328 0.970359,-1.595328 0.328931,0 0.838779,0.411161 0.838779,0.674308 0,0.08229 0.328931,0.148025 0.723657,0.148025 h 0.740104 l -0.148026,-0.509849 c -0.213809,-0.740102 -0.575643,-1.069034 -1.397965,-1.282843 -0.822345,-0.21381 -0.970358,-0.21381 -1.611786,-0.0165 z"
       id="path5827"
       style="stroke-width:0.0164468" />
    <path
       d="m 60.819005,93.807035 c -0.37827,0.180917 -0.805889,0.559198 -0.986794,0.855237 -0.394726,0.690765 -0.411173,2.30254 -0.0329,3.042643 0.509849,0.953913 2.187419,1.496653 3.124874,1.019697 0.526295,-0.279593 1.266399,-1.003251 1.266399,-1.249952 0,-0.312484 -1.217061,-0.279593 -1.480208,0.03289 -0.476956,0.575632 -1.809137,0.115122 -1.809137,-0.624981 0,-0.246701 0.230254,-0.279593 1.743354,-0.279593 h 1.7598 L 64.28927,95.829981 c -0.131579,-1.003252 -0.542751,-1.661113 -1.249951,-2.039394 -0.740104,-0.394715 -1.397978,-0.394715 -2.220311,0.0165 z m 1.75981,1.101938 c 0.559186,0.509848 0.378269,0.707211 -0.690766,0.707211 -0.542751,0 -0.986803,-0.04928 -0.986803,-0.131579 0,-0.06578 0.115121,-0.296039 0.263146,-0.493403 0.296039,-0.427618 0.986805,-0.476956 1.414423,-0.08218 z"
       id="path5829"
       style="stroke-width:0.0164468" />
    <path
       d="m 66.229983,93.708359 c -0.575644,0.246702 -1.052588,0.83878 -1.052588,1.282843 0,0.444065 1.16771,0.411173 1.447304,-0.03289 0.246701,-0.411172 1.2993,-0.46051 1.447314,-0.08229 0.16446,0.427607 -0.230255,0.690765 -1.200613,0.822333 -1.200603,0.148025 -1.858477,0.740104 -1.858477,1.677571 0.0165,1.348627 1.348628,1.957151 2.59858,1.200602 0.46051,-0.279593 0.54274,-0.296039 0.62497,-0.08218 0.06578,0.164472 0.328942,0.246702 0.855237,0.246702 0.592078,0 0.707211,-0.04939 0.559186,-0.197364 -0.131568,-0.131568 -0.197363,-0.855225 -0.197363,-2.138069 0,-2.187418 -0.115122,-2.434119 -1.266398,-2.746605 -0.822334,-0.230254 -1.332182,-0.213809 -1.957152,0.04939 z m 1.743354,3.568938 c -0.312496,0.723658 -1.332193,0.871682 -1.59534,0.213809 -0.16446,-0.444064 0.180917,-0.789442 0.953913,-0.970358 0.83878,-0.213809 0.970358,-0.04939 0.641427,0.756549 z"
       id="path5831"
       style="stroke-width:0.0164468" />
    <path
       d="m 77.561768,93.659021 c -1.101938,0.312485 -1.578883,1.710462 -0.822334,2.401216 0.197363,0.197364 0.805887,0.476956 1.348628,0.624982 0.54274,0.16446 1.101938,0.394714 1.233506,0.526294 0.213809,0.213809 0.213809,0.263147 -0.06579,0.476956 -0.476956,0.345377 -1.052588,0.279594 -1.513098,-0.180917 -0.509848,-0.526294 -1.545991,-0.592078 -1.545991,-0.09868 0,0.476946 0.608524,1.118373 1.266397,1.348628 0.345378,0.115122 0.970347,0.148025 1.513088,0.09867 0.756549,-0.08229 1.00325,-0.180906 1.381531,-0.608525 0.970359,-1.08548 0.345377,-2.236756 -1.447315,-2.647928 -1.101926,-0.24669 -1.447304,-0.575632 -0.986794,-0.921009 0.37827,-0.263147 1.052578,-0.164472 1.332182,0.213809 0.230256,0.296039 1.38152,0.312485 1.38152,0.0165 0,-0.37828 -0.526294,-0.970358 -1.085481,-1.200613 -0.608534,-0.263148 -1.217059,-0.279593 -1.990054,-0.04939 z"
       id="path5833"
       style="stroke-width:0.0164468" />
  </g>
</svg>
