<?xml version="1.0" encoding="UTF-8" standalone="no"?>
<!-- Created with Inkscape (http://www.inkscape.org/) -->

<svg
   width="100mm"
   height="100mm"
   viewBox="0 0 100 100"
   version="1.1"
   id="svg26768"
   sodipodi:docname="search head.svg"
   inkscape:version="1.1.1 (3bf5ae0d25, 2021-09-20)"
   xmlns:inkscape="http://www.inkscape.org/namespaces/inkscape"
   xmlns:sodipodi="http://sodipodi.sourceforge.net/DTD/sodipodi-0.dtd"
   xmlns="http://www.w3.org/2000/svg"
   xmlns:svg="http://www.w3.org/2000/svg">
  <sodipodi:namedview
     id="namedview26770"
     pagecolor="#ffffff"
     bordercolor="#666666"
     borderopacity="1.0"
     inkscape:pageshadow="2"
     inkscape:pageopacity="0.0"
     inkscape:pagecheckerboard="0"
     inkscape:document-units="mm"
     showgrid="false"
     width="209mm"
     inkscape:zoom="0.7500982"
     inkscape:cx="13.998167"
     inkscape:cy="241.96832"
     inkscape:window-width="1920"
     inkscape:window-height="1027"
     inkscape:window-x="1912"
     inkscape:window-y="-8"
     inkscape:window-maximized="1"
     inkscape:current-layer="layer1" />
  <defs
     id="defs26765" />
  <g
     inkscape:label="Layer 1"
     inkscape:groupmode="layer"
     id="layer1">
    <path
       d="m 25.604346,2.0180083 c -2.049204,0.4862504 -3.646901,2.1013046 -4.20261,4.2547102 -0.243132,0.9377719 -0.260505,4.7062465 -0.22576,34.0377435 l 0.05218,32.978382 0.451507,0.972516 c 0.607824,1.267735 1.476138,2.222863 2.622299,2.865417 l 0.920415,0.503622 H 50.49018 75.757982 l 0.920415,-0.503622 c 1.146161,-0.642554 2.014475,-1.597682 2.622284,-2.865417 l 0.451522,-0.972516 0.05218,-32.978382 C 79.83906,10.978965 79.821719,7.2104904 79.578617,6.2727185 79.109738,4.4666324 78.050392,3.181541 76.36588,2.3653278 L 75.410736,1.9138063 50.837573,1.8791234 c -13.97978,0 -24.85101,0.052178 -25.233074,0.1388849 z m 49.979897,2.3617942 c 0.868314,0.4688937 1.389293,1.0072451 1.736613,1.8234582 0.22576,0.5730803 0.260505,3.5079703 0.260505,25.9624573 0,23.704849 -0.01734,25.372004 -0.295234,26.170845 -0.416777,1.163533 -1.719256,2.552826 -2.865417,3.073806 l -0.920415,0.416792 H 50.57693 c -22.124524,0 -22.95811,-0.01734 -23.774307,-0.329963 -1.094075,-0.416777 -2.257608,-1.49348 -2.84806,-2.622283 L 23.485669,58.0066 23.433489,32.565138 c -0.03468,-17.748255 0,-25.632494 0.138885,-26.0840155 0.347335,-1.1982769 1.424038,-2.1360488 2.778602,-2.4139106 0.329948,-0.069519 11.39221,-0.104202 24.573149,-0.086861 l 23.965339,0.017341 z M 25.378585,61.514571 c 1.701884,1.163532 0.295234,1.094075 25.111515,1.094075 24.816281,0 23.409631,0.06952 25.111515,-1.094075 0.468878,-0.295219 1.094059,-0.903043 1.40665,-1.319821 l 0.590452,-0.746755 -0.05218,6.92911 -0.05203,6.946483 -0.503622,0.712011 c -0.312591,0.451522 -0.816213,0.885671 -1.371937,1.163533 l -0.885671,0.434149 H 50.4901 26.246899 L 25.361228,75.199132 C 24.805505,74.92127 24.301882,74.487121 23.989292,74.035599 l -0.503623,-0.712011 -0.05218,-6.946483 -0.05202,-6.92911 0.590452,0.746755 c 0.312591,0.416778 0.937772,1.024602 1.406651,1.319821 z"
       id="path5545"
       style="stroke-width:0.0173661" />
    <path
       d="m 42.327984,13.045541 c -2.917518,0.764112 -5.644004,2.986976 -6.911739,5.644004 -0.885671,1.840815 -1.14616,2.986991 -1.14616,4.845163 0,1.858187 0.260489,3.004363 1.14616,4.845178 1.285092,2.691757 4.011593,4.914635 6.998568,5.661375 1.337208,0.34732 4.011593,0.329963 5.348801,-0.01734 1.09406,-0.277862 2.795944,-1.076703 3.629529,-1.684512 l 0.48625,-0.364692 0.937772,0.9204 c 0.798841,0.781484 0.937772,1.041974 1.024602,1.701884 0.08686,0.781485 0.225761,0.920415 4.949365,5.644019 4.688875,4.706247 4.879907,4.862535 5.60929,4.949365 0.972501,0.08686 1.806071,-0.399421 2.170762,-1.285091 0.555724,-1.319836 0.468894,-1.441395 -4.584673,-6.547063 -2.552826,-2.552826 -4.879891,-4.758332 -5.192482,-4.897263 -0.312591,-0.138885 -0.781484,-0.243133 -1.041974,-0.243133 -0.347319,0 -0.729383,-0.26049 -1.371936,-0.885671 l -0.903028,-0.885671 0.677267,-1.041974 c 3.473241,-5.400886 1.528239,-12.590486 -4.219982,-15.525376 -0.65991,-0.329963 -1.667155,-0.712011 -2.257607,-0.850942 -1.371922,-0.329963 -4.098408,-0.312591 -5.348785,0.01734 z m 4.775704,2.066576 c 3.438513,0.885671 5.939238,3.629529 6.547063,7.154871 0.434149,2.587555 -0.538352,5.487716 -2.518098,7.415361 -3.438512,3.369039 -8.578909,3.403768 -12.034778,0.06952 -3.5948,-3.455869 -3.577428,-9.065144 0.03468,-12.451555 2.257608,-2.118677 5.157753,-2.900146 7.971084,-2.188135 z"
       id="path5547"
       style="stroke-width:0.0173661" />
    <path
       d="m 39.323636,18.151193 c -0.781469,0.833586 -1.858172,2.604928 -1.858172,3.02172 0,0.05218 2.188135,0.104202 4.86252,0.104202 h 4.862534 V 19.193167 17.10922 H 43.734649 40.27878 Z"
       id="path5549"
       style="stroke-width:0.0173661" />
    <path
       d="m 40.76503,27.876263 v 2.083948 h 4.549944 4.549945 l 0.816213,-0.850942 c 0.885671,-0.920415 1.632411,-2.083948 1.806086,-2.84806 l 0.121543,-0.468894 h -5.921865 -5.921881 z"
       id="path5551"
       style="stroke-width:0.0173661" />
    <path
       d="m 27.740395,20.235141 v 1.041974 h 2.240235 2.240236 l 0.191031,-0.764112 c 0.104202,-0.416793 0.225761,-0.885686 0.295219,-1.041974 0.08686,-0.243133 -0.156288,-0.277862 -2.431267,-0.277862 h -2.535454 z"
       id="path5553"
       style="stroke-width:0.0173661" />
    <path
       d="m 60.215169,20.235141 v 1.041974 h 6.512318 6.512318 v -1.041974 -1.041974 h -6.512318 -6.512318 z"
       id="path5555"
       style="stroke-width:0.0173661" />
    <path
       d="m 27.740395,26.834289 v 1.041974 h 1.041974 1.041958 v -1.041974 -1.041974 h -1.041958 -1.041974 z"
       id="path5557"
       style="stroke-width:0.0173661" />
    <path
       d="m 57.870732,26.000719 c -0.121543,0.416777 -0.434165,1.615054 -0.434165,1.736613 0,0.08686 1.128804,0.138885 2.518097,0.138885 h 2.518113 v -1.041974 -1.041974 h -2.257608 c -1.667155,0 -2.292336,0.05218 -2.344437,0.208404 z"
       id="path5559"
       style="stroke-width:0.0173661" />
    <path
       d="m 66.814317,26.834289 v 1.041974 h 3.212737 3.212751 v -1.041974 -1.041974 h -3.212751 -3.212737 z"
       id="path5561"
       style="stroke-width:0.0173661" />
    <path
       d="m 27.740395,33.259777 v 1.041974 h 4.949364 4.966722 l -1.215634,-1.041974 -1.215634,-1.041974 h -3.733731 -3.751087 z"
       id="path5563"
       style="stroke-width:0.0173661" />
    <path
       d="m 60.996638,33.259777 1.024618,1.041974 h 5.609274 5.609275 v -1.041974 -1.041974 h -6.633876 -6.633892 z"
       id="path5565"
       style="stroke-width:0.0173661" />
    <path
       d="m 27.740395,39.85894 v 1.041959 h 9.725069 9.725054 V 39.85894 38.816966 h -9.725054 -9.725069 z"
       id="path5567"
       style="stroke-width:0.0173661" />
    <path
       d="m 51.532074,39.85894 v 1.041959 h 2.379166 2.379167 L 55.265805,39.85894 54.241203,38.816966 h -1.354565 -1.354564 z"
       id="path5569"
       style="stroke-width:0.0173661" />
    <path
       d="m 67.5437,39.85894 0.903044,1.041959 h 2.396523 2.396538 V 39.85894 38.816966 h -3.316938 -3.299582 z"
       id="path5571"
       style="stroke-width:0.0173661" />
    <path
       d="m 27.740395,46.284428 v 1.041959 h 4.34154 4.341555 v -1.041959 -1.041974 h -4.341555 -4.34154 z"
       id="path5573"
       style="stroke-width:0.0173661" />
    <path
       d="m 40.76503,46.284428 v 1.041959 h 8.683096 8.683096 V 46.284428 45.242454 H 49.448126 40.76503 Z"
       id="path5575"
       style="stroke-width:0.0173661" />
    <path
       d="m 71.155873,46.284428 v 1.041959 h 1.041958 1.041974 v -1.041959 -1.041974 h -1.041974 -1.041958 z"
       id="path5577"
       style="stroke-width:0.0173661" />
    <path
       d="m 29.025486,67.106489 c -0.712011,0.31259 -1.285091,1.198261 -1.285091,2.031847 0,0.642538 0.104202,0.868298 0.625181,1.424022 0.364692,0.382048 0.503622,0.468878 0.347319,0.208389 -0.382048,-0.573081 -0.347319,-1.250363 0.06952,-1.788714 0.677282,-0.850943 1.840815,-0.746741 2.344422,0.22576 0.295234,0.573081 0.22576,1.094075 -0.243118,1.632427 -0.260489,0.31259 -0.260489,0.31259 0.104202,0.121543 1.285092,-0.65991 1.371922,-2.778587 0.156288,-3.577428 C 30.62323,67.037 29.529155,66.898069 29.025532,67.106473 Z"
       id="path5579"
       style="stroke-width:0.0173661" />
    <path
       d="m 21.488566,91.74911 c -0.798856,0.416793 -1.267734,1.302464 -1.146176,2.188134 0.121544,0.989873 0.677283,1.458767 2.27498,1.858188 0.764112,0.191031 1.510852,0.434149 1.684512,0.520979 0.468894,0.243133 0.399421,0.972516 -0.121543,1.302463 -0.781485,0.520995 -2.518098,0 -2.518098,-0.74674 0,-0.156287 -0.243132,-0.22576 -0.764112,-0.22576 -0.729383,0 -0.746755,0.01734 -0.65991,0.468893 0.243118,1.319821 1.545581,2.083933 3.334295,1.910273 1.7019,-0.156288 2.709129,-1.111432 2.53547,-2.448624 -0.121544,-1.024617 -0.694655,-1.476139 -2.483369,-1.945017 -1.892916,-0.503623 -2.309693,-0.937772 -1.615054,-1.632426 0.503623,-0.503623 1.458767,-0.468894 1.997118,0.08686 0.243118,0.225761 0.434149,0.503623 0.434149,0.607825 0,0.08686 0.312591,0.173659 0.694655,0.173659 0.590452,0 0.694639,-0.05202 0.694639,-0.347319 0,-0.642554 -0.520979,-1.371937 -1.215634,-1.736628 -0.868299,-0.451522 -2.309693,-0.468879 -3.125906,-0.03468 z"
       id="path5603"
       style="stroke-width:0.0173661" />
    <path
       d="m 48.058833,95.25708 v 3.646901 h 0.694639 0.694654 v -1.823458 c 0,-1.597682 0.05218,-1.875544 0.347319,-2.170762 0.191032,-0.191032 0.538352,-0.347335 0.764113,-0.347335 0.712026,0 0.868314,0.416792 0.937772,2.448639 l 0.06952,1.892916 h 0.694639 0.694654 l -0.06952,-2.257607 c -0.05218,-2.153406 -0.06952,-2.274965 -0.503622,-2.691757 -0.625182,-0.625182 -1.545597,-0.74674 -2.327066,-0.295234 l -0.607824,0.364691 v -1.198261 -1.215634 h -0.694655 -0.694639 z"
       id="path5637"
       style="stroke-width:0.0173661" />
    <path
       d="m 57.089248,95.25708 v 3.646901 h 0.781484 0.781484 V 97.254198 95.6044 h 1.389294 1.389293 v 1.649798 1.649783 h 0.781469 0.781484 V 95.25708 91.610179 h -0.781484 -0.781469 v 1.389294 1.389293 H 60.04151 58.652216 v -1.389293 -1.389294 h -0.781484 -0.781484 z"
       id="path5639"
       style="stroke-width:0.0173661" />
    <path
       d="m 79.144314,92.825813 v 1.215633 L 78.58859,93.694127 c -0.74674,-0.451522 -1.337192,-0.434165 -2.066575,0.05218 -0.781485,0.520979 -1.198262,1.389293 -1.198262,2.518097 0,2.170762 1.667155,3.438497 3.264837,2.465996 0.451522,-0.277862 0.555724,-0.295234 0.555724,-0.08686 0,0.191016 0.191032,0.260489 0.694639,0.260489 h 0.694654 v -3.646903 -3.646901 h -0.694654 -0.694639 z m -0.364692,2.170777 c 0.138885,0.138885 0.277862,0.60781 0.312591,1.076703 0.06952,0.677283 0.01734,0.9204 -0.295219,1.302464 -1.007245,1.302463 -2.483368,-0.121544 -1.910288,-1.858187 0.295234,-0.9204 1.215634,-1.163533 1.892916,-0.52098 z"
       id="path5641"
       style="stroke-width:0.0173661" />
    <path
       d="m 28.174544,93.694127 c -0.399421,0.191016 -0.850942,0.590452 -1.041974,0.903043 -0.416777,0.729383 -0.434149,2.431267 -0.03468,3.212736 0.538352,1.007245 2.309709,1.580326 3.299582,1.076703 0.555708,-0.295218 1.337192,-1.059331 1.337192,-1.31982 0,-0.329963 -1.285107,-0.295234 -1.562953,0.03468 -0.503623,0.607824 -1.910288,0.121543 -1.910288,-0.659911 0,-0.260505 0.243133,-0.295233 1.840815,-0.295233 h 1.858187 l -0.121543,-0.816214 c -0.138885,-1.05933 -0.573081,-1.753969 -1.319821,-2.153405 -0.781484,-0.416778 -1.476123,-0.416778 -2.344437,0.01734 z m 1.858187,1.163533 c 0.590453,0.538351 0.399421,0.74674 -0.729383,0.74674 -0.57308,0 -1.041974,-0.05218 -1.041974,-0.138885 0,-0.06952 0.121543,-0.312591 0.277862,-0.520979 0.31259,-0.451522 1.041974,-0.503623 1.493495,-0.08686 z"
       id="path5745"
       style="stroke-width:0.0173661" />
    <path
       d="m 33.714361,93.589925 c -0.607824,0.26049 -1.111432,0.885671 -1.111432,1.354564 0,0.468879 1.232991,0.43415 1.528225,-0.03468 0.260489,-0.43415 1.371921,-0.486251 1.528224,-0.08686 0.17366,0.451522 -0.243133,0.729383 -1.267735,0.868314 -1.267734,0.156288 -1.962389,0.781485 -1.962389,1.771342 0.01734,1.424038 1.424038,2.066591 2.743858,1.267735 0.486266,-0.295219 0.573096,-0.312591 0.659926,-0.08686 0.06952,0.17366 0.347319,0.260505 0.903043,0.260505 0.625181,0 0.74674,-0.05202 0.590452,-0.208404 -0.138885,-0.138885 -0.208404,-0.903043 -0.208404,-2.257607 0,-2.309694 -0.121543,-2.570199 -1.337192,-2.900146 -0.868314,-0.243133 -1.406666,-0.225761 -2.066576,0.05218 z m 1.840815,3.76846 c -0.329963,0.764112 -1.406666,0.920415 -1.684527,0.225761 -0.17366,-0.468879 0.191032,-0.83357 1.007245,-1.024602 0.885671,-0.225761 1.024602,-0.05218 0.677282,0.798841 z"
       id="path5747"
       style="stroke-width:0.0173661" />
    <path
       d="m 40.643472,93.607297 c -0.312591,0.138885 -0.573081,0.329947 -0.573081,0.434149 0,0.08686 -0.06952,0.17366 -0.173675,0.17366 -0.08686,0 -0.17366,-0.156287 -0.17366,-0.347319 0,-0.277862 -0.121543,-0.34732 -0.607809,-0.34732 h -0.607824 v 2.691757 2.691757 h 0.694654 0.694639 v -1.615054 c 0,-1.858187 0.191032,-2.27498 1.128804,-2.44864 0.573096,-0.121543 0.607825,-0.156287 0.607825,-0.798841 0,-0.764112 -0.121544,-0.816213 -0.989873,-0.434149 z"
       id="path5749"
       style="stroke-width:0.0173661" />
    <path
       d="m 43.665191,93.520467 c -0.694654,0.208389 -0.989873,0.503607 -1.354564,1.302464 -0.416793,0.885671 -0.416793,2.066575 0,2.969619 0.416792,0.937771 1.285091,1.354564 2.500725,1.23299 0.729383,-0.06952 0.972516,-0.17366 1.458767,-0.712011 0.31259,-0.329963 0.57308,-0.781484 0.57308,-0.972501 0,-0.295234 -0.121544,-0.347335 -0.65991,-0.347335 -0.555724,0 -0.712027,0.08686 -0.868315,0.434165 -0.138884,0.312591 -0.329962,0.434149 -0.694654,0.434149 -0.764112,0 -1.076703,-0.468893 -1.076703,-1.615054 0,-1.076703 0.382064,-1.684527 1.024617,-1.684527 0.34732,0 0.885671,0.434164 0.885671,0.712011 0,0.08686 0.34732,0.156303 0.764113,0.156303 h 0.781484 l -0.156303,-0.538352 c -0.225761,-0.781484 -0.607825,-1.128803 -1.476124,-1.354564 -0.868314,-0.225761 -1.024601,-0.225761 -1.701884,-0.01734 z"
       id="path5751"
       style="stroke-width:0.0173661" />
    <path
       d="m 65.338194,93.694127 c -0.399421,0.191016 -0.850942,0.590452 -1.041974,0.903043 -0.416793,0.729383 -0.434149,2.431267 -0.03468,3.212736 0.538351,1.007245 2.309709,1.580326 3.299582,1.076703 0.555723,-0.295218 1.337192,-1.059331 1.337192,-1.31982 0,-0.329963 -1.285091,-0.295234 -1.562953,0.03468 -0.503623,0.607824 -1.910273,0.121543 -1.910273,-0.659911 0,-0.260505 0.243118,-0.295233 1.840815,-0.295233 h 1.858172 l -0.121544,-0.816214 c -0.138884,-1.05933 -0.57308,-1.753969 -1.319835,-2.153405 -0.781469,-0.416778 -1.476124,-0.416778 -2.344438,0.01734 z m 1.858172,1.163533 c 0.590452,0.538351 0.399435,0.74674 -0.729368,0.74674 -0.573096,0 -1.041974,-0.05218 -1.041974,-0.138885 0,-0.06952 0.121543,-0.312591 0.277862,-0.520979 0.31259,-0.451522 1.041958,-0.503623 1.49348,-0.08686 z"
       id="path5753"
       style="stroke-width:0.0173661" />
    <path
       d="m 70.878011,93.589925 c -0.607825,0.26049 -1.111447,0.885671 -1.111447,1.354564 0,0.468879 1.233006,0.43415 1.528224,-0.03468 0.260505,-0.43415 1.371937,-0.486251 1.52824,-0.08686 0.173644,0.451522 -0.243133,0.729383 -1.267735,0.868314 -1.267734,0.156288 -1.962389,0.781485 -1.962389,1.771342 0.01734,1.424038 1.424038,2.066591 2.743858,1.267735 0.486266,-0.295219 0.57308,-0.312591 0.65991,-0.08686 0.06952,0.17366 0.347335,0.260505 0.903059,0.260505 0.625181,0 0.74674,-0.05202 0.590437,-0.208404 -0.138885,-0.138885 -0.208389,-0.903043 -0.208389,-2.257607 0,-2.309694 -0.121543,-2.570199 -1.337192,-2.900146 -0.868314,-0.243133 -1.406666,-0.225761 -2.066576,0.05218 z m 1.840815,3.76846 c -0.329963,0.764112 -1.406666,0.920415 -1.684527,0.225761 -0.17366,-0.468879 0.191031,-0.83357 1.007245,-1.024602 0.885671,-0.225761 1.024601,-0.05218 0.677282,0.798841 z"
       id="path5755"
       style="stroke-width:0.0173661" />
  </g>
</svg>
