<?xml version="1.0" encoding="UTF-8" standalone="no"?>
<!-- Created with Inkscape (http://www.inkscape.org/) -->

<svg
   width="100mm"
   height="100mm"
   viewBox="0 0 100 100"
   version="1.1"
   id="svg26768"
   sodipodi:docname="search head cluster.svg"
   inkscape:version="1.1.1 (3bf5ae0d25, 2021-09-20)"
   xmlns:inkscape="http://www.inkscape.org/namespaces/inkscape"
   xmlns:sodipodi="http://sodipodi.sourceforge.net/DTD/sodipodi-0.dtd"
   xmlns="http://www.w3.org/2000/svg"
   xmlns:svg="http://www.w3.org/2000/svg">
  <sodipodi:namedview
     id="namedview26770"
     pagecolor="#ffffff"
     bordercolor="#666666"
     borderopacity="1.0"
     inkscape:pageshadow="2"
     inkscape:pageopacity="0.0"
     inkscape:pagecheckerboard="0"
     inkscape:document-units="mm"
     showgrid="false"
     width="209mm"
     inkscape:zoom="0.7500982"
     inkscape:cx="13.998167"
     inkscape:cy="135.31562"
     inkscape:window-width="1920"
     inkscape:window-height="1027"
     inkscape:window-x="1912"
     inkscape:window-y="-8"
     inkscape:window-maximized="1"
     inkscape:current-layer="layer1" />
  <defs
     id="defs26765" />
  <g
     inkscape:label="Layer 1"
     inkscape:groupmode="layer"
     id="layer1">
    <path
       d="M 38.667478,1.9751229 C 38.132655,2.2425341 37.647973,2.6603642 37.347136,3.094907 l -0.484683,0.6852404 -0.08356,11.0474176 -0.08357,11.047417 -5.013956,7.80506 -5.013957,7.805059 -4.278577,0.05013 -4.278576,0.05013 -0.802233,0.501397 c -0.601674,0.367689 -0.952652,0.752093 -1.286916,1.403907 l -0.467969,0.902511 0.03342,15.075297 0.05013,15.058583 0.46797,0.701953 c 0.250697,0.384405 0.768806,0.902514 1.15321,1.153209 l 0.701954,0.467972 11.364968,0.05011 c 7.922051,0.03343 11.565526,0 12.016782,-0.133708 0.818946,-0.233982 1.771598,-1.086353 2.139288,-1.922011 0.284125,-0.618389 0.317551,-1.286916 0.317551,-8.740998 v -8.055757 h 7.103104 7.103104 v 8.022331 c 0,8.757711 0,8.724284 0.969365,9.760502 0.250698,0.267411 0.752095,0.618387 1.119784,0.785514 0.6351,0.284127 1.320343,0.317554 11.883077,0.317554 7.955478,0 11.381681,-0.05011 11.782797,-0.183845 0.93594,-0.317554 1.671319,-0.986076 2.089149,-1.888589 l 0.401116,-0.852338 V 59.384926 c 0,-9.793928 -0.06685,-14.841312 -0.183844,-15.259141 C 85.848792,43.340264 84.94628,42.304048 84.110621,41.902931 83.5758,41.618806 82.9407,41.568668 79.247085,41.501815 L 74.985236,41.418251 70.004707,33.646618 65.040889,25.874986 64.990753,15.011413 64.940617,4.1478403 64.522788,3.3957464 C 64.288802,2.9946299 63.770694,2.4263819 63.386291,2.1422571 L 62.65091,1.6408616 51.102097,1.5907254 39.536571,1.5572982 Z m 23.532169,2.2395673 0.401116,0.3175503 0.05013,12.2173425 0.03342,12.234053 -0.401116,0.401117 -0.41783,0.417829 H 50.934958 c -10.813433,0 -10.947139,0 -11.381682,-0.350976 L 39.118733,29.117342 V 16.883287 4.6659466 l 0.36769,-0.3844038 0.350978,-0.3844038 h 10.997278 c 10.562735,0 10.997278,0.016718 11.364968,0.3175512 z M 37.146577,34.900105 c 0.384405,0.701954 1.103071,1.353769 1.838452,1.654605 0.551534,0.233984 2.072434,0.267411 11.799511,0.267411 7.92205,0 11.348254,-0.05013 11.74937,-0.183845 1.688033,-0.568248 2.339847,-1.671318 2.473552,-4.161584 l 0.100276,-1.754885 3.610049,5.348221 3.610048,5.34822 -5.949895,0.08357 -5.949895,0.08356 -0.78552,0.467971 c -0.518109,0.300836 -0.952652,0.735379 -1.25349,1.253488 l -0.467969,0.78552 -0.05013,5.816189 -0.05013,5.799476 -6.969399,-0.03342 -6.9694,-0.05013 -0.08357,-5.849616 c -0.08356,-6.384437 -0.08356,-6.317585 -1.119784,-7.303663 -0.986078,-0.935938 -1.203349,-0.969365 -7.504221,-0.969365 -3.175506,0 -5.749338,-0.06685 -5.715911,-0.133706 0.03342,-0.08357 1.671319,-2.540404 3.643475,-5.465212 l 3.593336,-5.314794 0.08357,1.905303 c 0.05013,1.337056 0.167132,2.055723 0.36769,2.4067 z M 50.901532,30.88894 c 5.983321,0 11.06413,-0.05013 11.331542,-0.133706 l 0.451256,-0.116992 v 1.337055 c 0,1.403907 -0.250698,2.206141 -0.752093,2.406699 -0.150419,0.05013 -5.147663,0.100276 -11.097558,0.100276 -12.919295,0 -11.715946,0.233985 -11.715946,-2.272993 v -1.57104 l 0.46797,0.116992 c 0.250698,0.08357 5.348221,0.133706 11.314829,0.133706 z m -9.860782,13.370551 0.417829,0.401116 v 12.200628 12.200627 l -0.434542,0.334264 c -0.434543,0.350976 -0.568249,0.350976 -11.381681,0.350976 H 18.711931 l -0.401116,-0.417829 -0.41783,-0.401117 V 56.794382 44.660607 l 0.41783,-0.401116 0.401116,-0.41783 h 10.963851 10.963852 z m 42.267654,-0.06685 0.434543,0.334263 v 12.284195 c 0,12.050208 0,12.267479 -0.334264,12.601743 -0.334263,0.334263 -0.551535,0.334263 -11.298115,0.334263 -6.818982,0 -11.064131,-0.06685 -11.26469,-0.167131 -0.167132,-0.08356 -0.384403,-0.401116 -0.484682,-0.68524 -0.250698,-0.718668 -0.267411,-23.498744 -0.01671,-24.150557 0.350976,-0.919227 -0.100276,-0.8858 11.632379,-0.902513 10.763293,0 10.896999,0 11.331541,0.350977 z M 29.675782,70.917026 c 7.353804,0 11.247977,-0.06685 11.465248,-0.167132 0.300837,-0.167131 0.317549,-0.116992 0.317549,1.420621 0,2.506979 1.320343,2.25628 -11.766083,2.25628 H 18.578225 l -0.334263,-0.434543 c -0.300838,-0.384402 -0.350977,-0.68524 -0.350977,-1.938729 0,-1.420621 0.01672,-1.47076 0.317549,-1.303629 0.217272,0.100276 4.111445,0.167132 11.465248,0.167132 z m 54.067165,1.337055 c 0,1.019505 -0.06685,1.537614 -0.267411,1.805024 l -0.250698,0.36769 h -11.16441 c -13.086427,0 -11.766084,0.233985 -11.849651,-2.156001 L 60.143927,70.83346 H 71.943439 83.74295 Z"
       id="path6643"
       style="stroke-width:0.0167132" />
    <path
       d="M 46.556102,8.7941038 C 44.851357,9.3623525 43.848565,10.131159 42.92934,11.518355 l -0.701953,1.069643 h -1.052931 -1.052931 v 0.668527 0.668529 h 0.885799 0.869086 v 1.169923 1.169923 h -0.952651 -0.969365 v 0.584962 0.584961 h 1.136497 1.136496 l 0.284124,0.601675 c 0.451256,0.935938 1.855164,2.30642 2.908095,2.841242 0.885798,0.451256 1.119783,0.484682 2.740963,0.484682 1.721458,0 1.821737,-0.01672 2.958235,-0.601674 1.253488,-0.651815 1.387194,-0.635101 1.587752,0.183845 0.06685,0.233985 1.036218,1.353768 2.189427,2.490264 2.122575,2.122576 2.557118,2.373273 3.19222,1.855165 0.618387,-0.518109 0.31755,-1.019505 -1.88859,-3.225646 -1.387195,-1.370481 -2.25628,-2.122575 -2.473552,-2.122575 -0.735381,0 -0.78552,-0.401116 -0.150419,-1.337055 0.31755,-0.467969 0.584962,-0.935939 0.584962,-1.019504 0,-0.08357 1.052931,-0.150419 2.339846,-0.150419 h 2.339847 V 16.849862 16.2649 h -2.105863 -2.105861 l 0.08357,-0.635101 C 55.029686,13.122821 53.324941,10.248152 50.884815,9.1283685 49.748319,8.6102586 47.609031,8.4431273 46.556099,8.7941038 Z m 3.208933,1.2033501 c 1.002791,0.3008381 2.222854,1.1866361 2.724249,2.0055831 l 0.36769,0.601675 -0.434542,0.401117 c -0.752094,0.701954 -0.434543,1.78831 0.584962,2.005581 0.501396,0.116993 0.518109,0.133706 0.417829,0.802234 -0.401116,2.490265 -2.356559,4.261863 -4.880251,4.428995 -1.754885,0.116992 -2.72425,-0.250698 -4.011164,-1.537614 -1.286916,-1.286916 -1.654606,-2.25628 -1.537614,-4.011164 0.233984,-3.442917 3.45963,-5.682485 6.768841,-4.6964071 z"
       id="path6645"
       style="stroke-width:0.0167132" />
    <path
       d="m 45.636877,12.704991 c -0.518108,0.183845 -0.835659,0.618387 -0.835659,1.119784 0,1.052931 0.484683,1.270202 2.824529,1.270202 2.055722,0 2.607257,-0.133706 2.874668,-0.735381 0.300837,-0.635101 0.05013,-1.253489 -0.601674,-1.537613 -0.568249,-0.233985 -3.710329,-0.31755 -4.261864,-0.116992 z"
       id="path6647"
       style="stroke-width:0.0167132" />
    <path
       d="m 47.308196,16.716156 c -0.41783,0.534822 -0.334263,1.153209 0.200558,1.587753 0.518109,0.451256 2.289708,0.41783 2.874669,-0.05013 0.534821,-0.417829 0.584961,-1.169922 0.100275,-1.654604 -0.267412,-0.267412 -0.551536,-0.334265 -1.57104,-0.334265 -1.15321,0 -1.270202,0.03343 -1.604466,0.451258 z"
       id="path6649"
       style="stroke-width:0.0167132" />
    <path
       d="m 55.063115,13.106107 c 0.05013,0.284124 0.100276,0.601676 0.100276,0.668527 0,0.100276 1.286915,0.133706 2.974947,0.116993 l 2.958234,-0.05013 V 13.25653 12.671568 l -3.075226,-0.05013 -3.075227,-0.03342 z"
       id="path6651"
       style="stroke-width:0.0167132" />
    <path
       d="m 25.932028,48.705198 c -1.805024,0.300838 -3.844033,1.821738 -4.596127,3.409491 -0.284123,0.584962 -0.284123,0.584962 -1.353768,0.584962 h -1.086357 v 0.584961 0.584962 h 0.885799 0.869086 v 1.169923 1.169923 h -0.952652 -0.969365 v 0.584962 0.584961 h 1.136496 1.119785 l 0.401116,0.73538 c 1.654606,3.158793 5.582204,4.29529 8.80785,2.590545 1.002792,-0.551536 1.403908,-0.467969 1.403908,0.250698 0,0.451256 4.128157,4.61284 4.5627,4.61284 0.601676,0 0.952652,-0.334265 0.952652,-0.8858 0,-0.484682 -0.267411,-0.818945 -2.172714,-2.690823 -1.387195,-1.387194 -2.239569,-2.105862 -2.4067,-2.055722 -0.300837,0.116992 -0.869085,-0.467969 -0.601674,-0.635101 0.100275,-0.06685 0.417829,-0.518108 0.685241,-1.019504 l 0.518109,-0.902513 h 2.239566 2.239568 V 56.794382 56.20942 H 35.525398 33.43625 v -1.136497 c 0,-1.454047 -0.317551,-2.523691 -1.10307,-3.660188 -1.387195,-2.022296 -3.977739,-3.125366 -6.401152,-2.707537 z m 2.874669,1.387196 c 0.952652,0.350977 1.83845,1.019503 2.456838,1.871877 0.284124,0.417829 0.518109,0.768806 0.484683,0.785519 -0.986079,0.518109 -1.20335,1.069644 -0.701954,1.754884 0.183845,0.250699 0.534821,0.46797 0.768806,0.501397 0.401117,0.05013 0.451256,0.133705 0.451256,0.668528 0,0.885798 -0.835659,2.506977 -1.671319,3.275784 -1.069643,0.969365 -2.022294,1.337054 -3.509769,1.337054 -2.105862,0.01672 -3.693614,-0.919224 -4.696406,-2.774388 -0.501396,-0.935938 -0.551536,-1.186636 -0.551536,-2.389986 -0.01672,-1.052931 0.06685,-1.5209 0.384405,-2.222854 0.484682,-1.052931 1.88859,-2.406699 2.891381,-2.757676 0.902512,-0.317551 2.857955,-0.334263 3.693615,-0.05013 z"
       id="path6653"
       style="stroke-width:0.0167132" />
    <path
       d="m 23.909733,53.033914 c -0.200559,0.200559 -0.334264,0.551535 -0.334264,0.902513 0,0.952652 0.384404,1.10307 2.941521,1.10307 2.189428,0 2.222854,0 2.557117,-0.434543 0.451257,-0.584962 0.434544,-0.986078 -0.06685,-1.487474 -0.384405,-0.401116 -0.484683,-0.417829 -2.590546,-0.417829 -1.955442,0 -2.206141,0.03342 -2.506977,0.334263 z"
       id="path6655"
       style="stroke-width:0.0167132" />
    <path
       d="m 26.349858,56.560397 c -0.317551,0.250699 -0.434544,0.501396 -0.434544,0.885799 0,0.869086 0.401118,1.103071 1.871878,1.103071 1.420621,0 1.805024,-0.233985 1.805024,-1.136498 0,-0.785519 -0.635101,-1.203349 -1.83845,-1.203349 -0.718668,0 -1.069645,0.08357 -1.403908,0.350977 z"
       id="path6657"
       style="stroke-width:0.0167132" />
    <path
       d="m 33.837367,53.067341 c 0.05013,0.217271 0.100275,0.484682 0.100275,0.584962 0,0.167131 0.718667,0.217271 3.008375,0.217271 h 3.008373 v -0.584962 -0.584961 h -3.108653 -3.108653 z"
       id="path6659"
       style="stroke-width:0.0167132" />
    <path
       d="m 68.40024,48.705198 c -1.83845,0.300838 -3.894173,1.805025 -4.66298,3.392777 l -0.284123,0.601676 h -1.136498 -1.136496 v 0.584961 0.584962 h 0.919225 0.919224 v 1.169923 1.169923 h -0.919224 -0.919225 v 0.584962 0.568249 l 1.119783,0.05013 1.136497,0.05013 0.401117,0.752093 c 0.618387,1.119784 1.738171,2.139289 2.99166,2.72425 1.002792,0.484682 1.286915,0.534822 2.640684,0.534822 1.403908,0 1.587753,-0.03343 2.791102,-0.6351 0.701954,-0.350978 1.353769,-0.601676 1.437334,-0.551537 0.08357,0.05013 0.183846,0.334265 0.250698,0.635101 0.150419,0.785521 4.027879,4.646267 4.646267,4.646267 0.568249,0 0.969365,-0.401117 0.969365,-0.969365 0,-0.635101 -4.161585,-4.796685 -4.646267,-4.646266 -0.183844,0.06685 -0.401116,0.01672 -0.518109,-0.133706 -0.150418,-0.18384 -0.05013,-0.45125 0.518109,-1.33705 l 0.701954,-1.10307 h 2.222854 2.222854 v -0.584954 -0.584962 h -2.072434 -2.055723 l -0.08356,-1.387194 c -0.08357,-1.654606 -0.584962,-2.891382 -1.671319,-4.061306 -1.537613,-1.671318 -3.610049,-2.4067 -5.782763,-2.055722 z m 2.874668,1.420621 c 0.818947,0.284124 2.523693,1.688032 2.690824,2.239568 0.06685,0.200558 -0.05013,0.451255 -0.334264,0.73538 -0.233984,0.233985 -0.41783,0.584962 -0.41783,0.78552 0,0.518109 0.635102,1.15321 1.136497,1.15321 0.401116,0 0.401116,0.03342 0.300837,0.78552 -0.233985,1.754885 -1.370481,3.242359 -3.09194,4.078018 -1.186636,0.584962 -3.125366,0.551535 -4.395568,-0.06685 -1.186636,-0.584961 -2.172715,-1.688032 -2.657397,-2.941522 -0.451257,-1.203349 -0.384403,-2.94152 0.167133,-4.078018 0.518107,-1.069642 1.73817,-2.222854 2.757675,-2.607256 1.052931,-0.41783 2.757676,-0.451256 3.844033,-0.08357 z"
       id="path6661"
       style="stroke-width:0.0167132" />
    <path
       d="m 66.277665,53.11748 c -0.501396,0.501396 -0.518109,0.902512 -0.06685,1.487474 0.334264,0.434543 0.367691,0.434543 2.590545,0.434543 2.022296,0 2.272992,-0.03342 2.57383,-0.334263 0.484683,-0.484684 0.434544,-1.236776 -0.100276,-1.654607 -0.401116,-0.31755 -0.668527,-0.350976 -2.523691,-0.350976 -1.972156,0 -2.089149,0.01671 -2.473551,0.417829 z"
       id="path6663"
       style="stroke-width:0.0167132" />
    <path
       d="m 68.634224,56.593824 c -0.518109,0.518109 -0.551534,1.169922 -0.100275,1.621179 0.267411,0.267411 0.551535,0.334264 1.587753,0.334264 1.036217,0 1.320342,-0.06685 1.587752,-0.334264 0.41783,-0.417829 0.434543,-1.019505 0.01672,-1.520901 -0.267411,-0.317549 -0.501396,-0.401116 -1.487474,-0.451256 -1.086356,-0.06685 -1.220062,-0.03342 -1.604466,0.350978 z"
       id="path6665"
       style="stroke-width:0.0167132" />
    <path
       d="m 76.255439,53.234473 0.05013,0.551534 3.058514,0.05013 3.0418,0.03342 v -0.584956 -0.584962 h -3.10865 -3.091939 z"
       id="path6667"
       style="stroke-width:0.0167132" />
    <path
       d="m 4.8566972,91.273695 c -0.7688066,0.401117 -1.2200621,1.253488 -1.1030696,2.105859 0.1169916,0.952653 0.6518142,1.403906 2.1894275,1.788305 0.7353795,0.183855 1.4540472,0.417836 1.6211786,0.5014 0.4512564,0.23399 0.3844039,0.935943 -0.1169915,1.253488 -0.7520941,0.501399 -2.4234126,0 -2.4234126,-0.718662 0,-0.150418 -0.2339849,-0.217273 -0.7353813,-0.217273 -0.7019531,0 -0.7186667,0.01676 -0.6351005,0.451254 0.233985,1.270207 1.4874734,2.005587 3.2089328,1.838451 C 8.5001728,98.1261 9.4695373,97.206874 9.3024058,95.919959 9.1854133,94.933879 8.6338779,94.499333 6.9124195,94.04808 5.0906823,93.563399 4.6895657,93.145573 5.3580926,92.477038 c 0.4846826,-0.484681 1.4039082,-0.451253 1.9220171,0.08354 0.2339851,0.217272 0.4178301,0.484681 0.4178301,0.584963 0,0.08354 0.3008377,0.167126 0.6685269,0.167126 0.5682489,0 0.6685278,-0.05011 0.6685278,-0.334263 0,-0.618389 -0.5013954,-1.320342 -1.1699232,-1.671315 C 7.0294121,90.872545 5.6422175,90.855836 4.8566972,91.27366 Z"
       id="path7077"
       style="stroke-width:0.0167132" />
    <path
       d="m 67.447588,91.139986 c -1.270203,0.401118 -2.089148,1.788314 -2.089148,3.593339 0,1.805023 0.551536,2.791103 1.88859,3.342638 1.654605,0.685235 3.359351,0.01676 4.044592,-1.637897 l 0.250697,-0.618389 h -0.73538 c -0.601675,0 -0.768807,0.06687 -0.852373,0.334262 -0.284124,0.902517 -1.838451,1.169926 -2.557118,0.451263 -0.752093,-0.768807 -0.718667,-3.125366 0.05013,-3.894174 0.568247,-0.568253 1.621179,-0.551535 2.172715,0.01667 0.233984,0.217272 0.417829,0.484681 0.417829,0.584963 0,0.08354 0.350977,0.167135 0.768806,0.167135 0.701954,0 0.752094,-0.01676 0.651814,-0.384409 -0.233985,-0.73537 -0.768807,-1.420615 -1.337054,-1.688032 -0.718668,-0.350972 -2.005584,-0.467972 -2.67411,-0.267408 z"
       id="path7079"
       style="stroke-width:0.0167132" />
    <path
       d="m 30.427876,94.649752 v 3.509774 h 0.668528 0.668526 V 96.40464 c 0,-1.537616 0.05013,-1.805025 0.334265,-2.089143 0.183844,-0.183853 0.518109,-0.334272 0.73538,-0.334272 0.685241,0 0.835659,0.401118 0.902512,2.356569 l 0.06685,1.821732 h 0.668527 0.668527 l -0.06685,-2.172714 c -0.05013,-2.072432 -0.06685,-2.189422 -0.484683,-2.59054 -0.601675,-0.601681 -1.487474,-0.718671 -2.239568,-0.284127 l -0.584962,0.350973 v -1.153207 -1.169925 h -0.668526 -0.668528 z"
       id="path7105"
       style="stroke-width:0.0167132" />
    <path
       d="m 38.951602,94.649752 v 3.509774 h 0.752093 0.752093 v -1.587751 -1.587751 h 1.337056 1.337055 v 1.587751 1.587751 h 0.752093 0.752094 v -3.509774 -3.509766 h -0.752094 -0.752093 v 1.337052 1.33706 h -1.337055 -1.337056 v -1.33706 -1.337052 h -0.752093 -0.752093 z"
       id="path7107"
       style="stroke-width:0.0167132" />
    <path
       d="m 60.177351,92.309911 v 1.169925 l -0.534822,-0.334263 c -0.718668,-0.434545 -1.286915,-0.417835 -1.988869,0.05011 -0.752093,0.501399 -1.15321,1.337052 -1.15321,2.423413 0,2.08915 1.604466,3.309212 3.142079,2.373268 0.434544,-0.267408 0.534822,-0.284118 0.534822,-0.08354 0,0.183845 0.183845,0.250699 0.668527,0.250699 h 0.668529 v -3.509775 -3.509765 h -0.668529 -0.668527 z m -0.350976,2.08915 c 0.133705,0.1337 0.26741,0.584963 0.300836,1.036217 0.06685,0.651816 0.01672,0.885798 -0.284123,1.253487 -0.969365,1.253489 -2.389987,-0.11699 -1.838452,-1.788313 0.284125,-0.885799 1.169924,-1.119781 1.821739,-0.501391 z"
       id="path7109"
       style="stroke-width:0.0167132" />
    <path
       d="m 72.54511,94.649752 v 3.509774 h 0.668528 0.668528 V 94.649752 91.139986 H 73.213638 72.54511 Z"
       id="path7111"
       style="stroke-width:0.0167132" />
    <path
       d="m 86.918453,92.309911 c 0,0.551535 -0.05013,0.668526 -0.334264,0.668526 -0.267411,0 -0.334264,0.11699 -0.334264,0.501399 0,0.384399 0.06685,0.501389 0.334264,0.501389 0.31755,0 0.334264,0.117 0.334264,1.821742 0,2.172714 0.100275,2.356559 1.353768,2.356559 0.802233,0 0.818947,-0.01667 0.818947,-0.501399 0,-0.417826 -0.06685,-0.501389 -0.41783,-0.501389 -0.417831,0 -0.417831,0 -0.417831,-1.587752 0,-1.587761 0,-1.587761 0.417831,-1.587761 0.350976,0 0.41783,-0.08354 0.41783,-0.501389 0,-0.417836 -0.06685,-0.501399 -0.41783,-0.501399 -0.367691,0 -0.417831,-0.06687 -0.417831,-0.668526 V 91.641385 H 87.58698 86.918453 Z"
       id="path7131"
       style="stroke-width:0.0167132" />
    <path
       d="m 11.291275,93.145573 c -0.384404,0.183844 -0.818946,0.568244 -1.002791,0.86908 -0.4011167,0.701953 -0.4178303,2.33985 -0.03343,3.091948 0.518108,0.969362 2.222854,1.520888 3.175506,1.036217 0.534821,-0.284127 1.286916,-1.019507 1.286916,-1.270207 0,-0.317554 -1.236777,-0.284127 -1.504188,0.03343 -0.484682,0.584962 -1.838451,0.117 -1.838451,-0.635098 0,-0.250701 0.233985,-0.284127 1.771598,-0.284127 h 1.788312 l -0.116993,-0.785513 c -0.133705,-1.019507 -0.551536,-1.688033 -1.270203,-2.072442 -0.752092,-0.401108 -1.420621,-0.401108 -2.25628,0.01676 z m 1.788311,1.119779 c 0.568248,0.518108 0.384404,0.718672 -0.701954,0.718672 -0.551534,0 -1.002792,-0.05011 -1.002792,-0.133709 0,-0.06687 0.116993,-0.300836 0.267412,-0.501399 0.300838,-0.434536 1.002791,-0.484681 1.437334,-0.08354 z"
       id="path7155"
       style="stroke-width:0.0167132" />
    <path
       d="m 16.622782,93.045292 c -0.584962,0.250699 -1.069644,0.85237 -1.069644,1.303624 0,0.451254 1.186636,0.417835 1.470761,-0.03343 0.250697,-0.417826 1.320342,-0.467972 1.47076,-0.08354 0.167132,0.434545 -0.233984,0.701954 -1.220063,0.835663 -1.220062,0.150417 -1.88859,0.752089 -1.88859,1.704742 0.01672,1.370479 1.370481,1.988868 2.640684,1.220061 0.467969,-0.284126 0.551535,-0.300836 0.635101,-0.08354 0.06685,0.167127 0.334264,0.250699 0.869087,0.250699 0.601673,0 0.718666,-0.05011 0.568247,-0.200563 -0.133705,-0.133709 -0.200558,-0.86908 -0.200558,-2.172713 0,-2.222851 -0.116992,-2.47355 -1.286915,-2.791104 -0.83566,-0.233982 -1.353769,-0.217273 -1.98887,0.05011 z m 1.771599,3.626755 c -0.317551,0.73539 -1.353769,0.885808 -1.62118,0.217273 -0.167132,-0.451254 0.183845,-0.802226 0.969364,-0.986071 0.852374,-0.217281 0.986079,-0.05011 0.651816,0.768798 z"
       id="path7157"
       style="stroke-width:0.0167132" />
    <path
       d="m 23.124213,93.062 c -0.300838,0.133709 -0.551536,0.317554 -0.551536,0.417836 0,0.08354 -0.06685,0.167127 -0.167131,0.167127 -0.08357,0 -0.167133,-0.150418 -0.167133,-0.334264 0,-0.267407 -0.116992,-0.334262 -0.584961,-0.334262 H 21.06849 v 2.590549 2.59054 h 0.668528 0.668528 v -1.554324 c 0,-1.788314 0.183844,-2.189431 1.086356,-2.356558 0.551536,-0.117 0.584962,-0.150419 0.584962,-0.768808 0,-0.73539 -0.116991,-0.785526 -0.952651,-0.417836 z"
       id="path7159"
       style="stroke-width:0.0167132" />
    <path
       d="m 26.199439,92.978437 c -0.668527,0.200563 -0.952651,0.484681 -1.303628,1.253489 -0.401117,0.85237 -0.401117,1.988868 0,2.857957 0.401116,0.902508 1.236776,1.303625 2.406699,1.186634 0.701954,-0.06687 0.935938,-0.167136 1.403908,-0.685243 0.300837,-0.317546 0.551535,-0.75209 0.551535,-0.935935 0,-0.284127 -0.116993,-0.334263 -0.635102,-0.334263 -0.534821,0 -0.68524,0.08354 -0.835659,0.417826 -0.133705,0.300836 -0.317551,0.417836 -0.668527,0.417836 -0.735381,0 -1.036217,-0.451263 -1.036217,-1.554325 0,-1.036225 0.367689,-1.621188 0.986078,-1.621188 0.334262,0 0.852371,0.417836 0.852371,0.685245 0,0.08354 0.334264,0.150418 0.735381,0.150418 h 0.752094 l -0.150419,-0.518109 c -0.217271,-0.752088 -0.584962,-1.08636 -1.420621,-1.303634 -0.835659,-0.217262 -0.986079,-0.217262 -1.637893,-0.01667 z"
       id="path7161"
       style="stroke-width:0.0167132" />
    <path
       d="m 47.057498,93.145573 c -0.384403,0.183844 -0.818946,0.568244 -1.002791,0.86908 -0.401117,0.701953 -0.41783,2.33985 -0.03343,3.091948 0.518109,0.969362 2.222854,1.520888 3.175506,1.036217 0.534823,-0.284127 1.286916,-1.019507 1.286916,-1.270207 0,-0.317554 -1.236776,-0.284127 -1.504187,0.03343 -0.484683,0.584962 -1.838451,0.117 -1.838451,-0.635098 0,-0.250701 0.233985,-0.284127 1.771598,-0.284127 h 1.788311 l -0.116993,-0.78549 c -0.133705,-1.019507 -0.551534,-1.688042 -1.270201,-2.072442 -0.752093,-0.401117 -1.420621,-0.401117 -2.25628,0.01676 z m 1.788312,1.119779 c 0.568248,0.518108 0.384402,0.718672 -0.701954,0.718672 -0.551536,0 -1.002792,-0.05011 -1.002792,-0.133709 0,-0.06687 0.116992,-0.300836 0.267411,-0.501399 0.300838,-0.434536 1.002792,-0.484681 1.437335,-0.08354 z"
       id="path7163"
       style="stroke-width:0.0167132" />
    <path
       d="m 52.389005,93.045292 c -0.584961,0.250699 -1.069643,0.85237 -1.069643,1.303624 0,0.451254 1.186636,0.417835 1.47076,-0.03343 0.250698,-0.417826 1.320342,-0.467972 1.470761,-0.08354 0.167131,0.434545 -0.233986,0.701954 -1.220063,0.835663 -1.220062,0.150417 -1.888591,0.752089 -1.888591,1.704742 0.01671,1.370479 1.370483,1.988868 2.640684,1.220061 0.46797,-0.284126 0.551536,-0.300836 0.635101,-0.08354 0.06685,0.167127 0.334264,0.250699 0.869086,0.250699 0.601675,0 0.718667,-0.05011 0.568249,-0.200563 -0.133706,-0.133709 -0.200559,-0.86908 -0.200559,-2.172713 0,-2.222851 -0.116992,-2.47355 -1.286915,-2.791104 -0.835659,-0.233982 -1.353768,-0.217273 -1.98887,0.05011 z m 1.771599,3.626755 c -0.317552,0.73539 -1.353768,0.885808 -1.621179,0.217273 -0.167133,-0.451254 0.183844,-0.802226 0.969365,-0.986071 0.852371,-0.217281 0.986078,-0.05011 0.651814,0.768798 z"
       id="path7165"
       style="stroke-width:0.0167132" />
    <path
       d="m 82.2889,92.995145 c -1.119784,0.317554 -1.604466,1.73818 -0.83566,2.440133 0.200559,0.200554 0.818947,0.484681 1.370482,0.635098 0.551535,0.167136 1.119783,0.401117 1.253489,0.534826 0.217271,0.217264 0.217271,0.267409 -0.06685,0.484681 -0.484683,0.350972 -1.069644,0.284127 -1.537614,-0.183844 -0.518108,-0.534827 -1.571039,-0.601681 -1.571039,-0.100286 0,0.484681 0.618389,1.136497 1.286915,1.370478 0.350977,0.117 0.986078,0.150418 1.537614,0.100286 0.768807,-0.08354 1.019504,-0.183844 1.403908,-0.61839 0.986078,-1.10307 0.350977,-2.272995 -1.470761,-2.690822 -1.119784,-0.250699 -1.470761,-0.584962 -1.002791,-0.935943 0.384404,-0.267409 1.069644,-0.167127 1.353768,0.217282 0.233985,0.300835 1.403908,0.317544 1.403908,0.01667 0,-0.3844 -0.534822,-0.986071 -1.10307,-1.220061 -0.618389,-0.267409 -1.236776,-0.284118 -2.022296,-0.05011 z"
       id="path7167"
       style="stroke-width:0.0167132" />
    <path
       d="m 90.846053,93.145573 c -0.384405,0.183844 -0.818947,0.568244 -1.002792,0.86908 -0.401117,0.701953 -0.417829,2.33985 -0.03342,3.091948 0.518109,0.969362 2.222854,1.520888 3.175505,1.036217 0.534822,-0.284127 1.286914,-1.019507 1.286914,-1.270207 0,-0.317554 -1.236774,-0.284127 -1.504185,0.03343 -0.484683,0.584962 -1.838452,0.117 -1.838452,-0.635098 0,-0.250701 0.233986,-0.284127 1.771599,-0.284127 h 1.788313 l -0.11699,-0.785517 c -0.133708,-1.019507 -0.551539,-1.688033 -1.270206,-2.072442 -0.752094,-0.401108 -1.420621,-0.401108 -2.256281,0.01676 z m 1.78831,1.119779 c 0.568248,0.518108 0.384404,0.718672 -0.701954,0.718672 -0.551535,0 -1.002792,-0.05011 -1.002792,-0.133709 0,-0.06687 0.116993,-0.300836 0.267412,-0.501399 0.300838,-0.434536 1.002792,-0.484681 1.437334,-0.08354 z"
       id="path7169"
       style="stroke-width:0.0167132" />
    <path
       d="m 97.497901,93.062 c -0.300838,0.133709 -0.551537,0.317554 -0.551537,0.417836 0,0.08354 -0.06685,0.167127 -0.167128,0.167127 -0.08356,0 -0.167133,-0.150418 -0.167133,-0.334264 0,-0.267407 -0.116996,-0.334262 -0.584961,-0.334262 h -0.584965 v 2.590549 2.59054 h 0.668527 0.668532 v -1.554324 c 0,-1.788314 0.183842,-2.189431 1.086355,-2.356558 0.551534,-0.117 0.584962,-0.150419 0.584962,-0.768808 0,-0.73539 -0.116991,-0.785526 -0.952652,-0.417836 z"
       id="path7171"
       style="stroke-width:0.0167132" />
    <path
       d="m 75.386352,94.967305 c 0,1.103071 0.06685,2.189433 0.167133,2.440132 0.350977,0.919217 1.98887,1.103071 2.857955,0.317545 0.300837,-0.267409 0.317551,-0.267409 0.317551,0.06687 0,0.317544 0.100275,0.36769 0.668527,0.36769 h 0.668527 v -2.590541 -2.590548 h -0.752093 -0.752094 v 1.805023 c 0,1.554333 -0.05013,1.855169 -0.300836,2.089151 -0.350978,0.317544 -0.752094,0.350971 -1.220063,0.11699 -0.284124,-0.167136 -0.317551,-0.36769 -0.317551,-2.08915 v -1.922014 h -0.668527 -0.668529 z"
       id="path7207"
       style="stroke-width:0.0167132" />
  </g>
</svg>
