<?xml version="1.0" encoding="UTF-8" standalone="no"?>
<!-- Created with Inkscape (http://www.inkscape.org/) -->

<svg
   width="100mm"
   height="100mm"
   viewBox="0 0 100 100"
   version="1.1"
   id="svg26768"
   sodipodi:docname="settings.svg"
   inkscape:version="1.1.1 (3bf5ae0d25, 2021-09-20)"
   xmlns:inkscape="http://www.inkscape.org/namespaces/inkscape"
   xmlns:sodipodi="http://sodipodi.sourceforge.net/DTD/sodipodi-0.dtd"
   xmlns="http://www.w3.org/2000/svg"
   xmlns:svg="http://www.w3.org/2000/svg">
  <sodipodi:namedview
     id="namedview26770"
     pagecolor="#ffffff"
     bordercolor="#666666"
     borderopacity="1.0"
     inkscape:pageshadow="2"
     inkscape:pageopacity="0.0"
     inkscape:pagecheckerboard="0"
     inkscape:document-units="mm"
     showgrid="false"
     width="209mm"
     inkscape:zoom="0.7500982"
     inkscape:cx="13.998167"
     inkscape:cy="241.96832"
     inkscape:window-width="1920"
     inkscape:window-height="1027"
     inkscape:window-x="1912"
     inkscape:window-y="-8"
     inkscape:window-maximized="1"
     inkscape:current-layer="layer1" />
  <defs
     id="defs26765" />
  <g
     inkscape:label="Layer 1"
     inkscape:groupmode="layer"
     id="layer1">
    <path
       d="M 24.627387,2.2032919 C 23.505436,2.8832623 23.556434,2.288294 23.556434,15.61571 v 12.052475 l -0.900961,0.509979 c -1.13895,0.645971 -2.243903,1.83592 -2.804878,3.059867 -0.390982,0.815964 -0.45898,1.206947 -0.45898,2.498892 0,1.291943 0.068,1.682926 0.45898,2.498891 0.560975,1.223946 1.665928,2.413895 2.804878,3.059866 l 0.900961,0.509978 v 17.339247 c 0,15.146341 0.034,17.407244 0.254989,17.883222 0.713969,1.478937 3.025868,1.512935 3.722837,0.034 0.237991,-0.526976 0.271989,-2.226902 0.271989,-17.93422 V 39.771664 l 0.815965,-0.407981 c 1.104951,-0.560976 2.2949,-1.852919 2.872875,-3.076866 0.407983,-0.883962 0.475979,-1.223947 0.475979,-2.549889 0,-1.325943 -0.068,-1.665928 -0.492978,-2.583888 -0.543977,-1.189948 -1.818921,-2.515891 -2.957871,-3.093865 L 27.806249,27.70219 V 15.581717 c 0,-11.7124919 -0.01701,-12.1204733 -0.339985,-12.647451 C 26.837291,1.8973112 25.630345,1.5913241 24.627387,2.203297 Z m 3.110865,27.0118271 c 0.934959,0.424981 2.05691,1.546932 2.498891,2.549888 0.47598,1.070955 0.492979,2.872875 0,3.94383 -0.832963,1.869918 -2.51589,2.957871 -4.555801,2.940872 -1.444938,0 -2.481893,-0.424981 -3.433851,-1.376941 -2.277901,-2.2779 -1.903918,-5.96674 0.764968,-7.666667 0.44198,-0.288987 1.121951,-0.611973 1.478935,-0.696969 0.900959,-0.220991 2.345897,-0.085 3.246858,0.305987 z"
       id="path5581"
       style="stroke-width:0.0169993" />
    <path
       d="M 50.126279,2.2032919 C 48.987328,2.9002627 49.055326,1.4043265 49.055326,24.11534 v 20.552106 l -0.900961,0.50998 c -1.138951,0.645971 -2.243903,1.835919 -2.804878,3.059865 -0.390983,0.815966 -0.45898,1.206948 -0.45898,2.498892 0,1.291944 0.068,1.682927 0.45898,2.498891 0.560975,1.223947 1.665927,2.413895 2.804878,3.059867 l 0.900961,0.509977 v 8.839617 c 0,7.547672 0.03399,8.924613 0.254988,9.383592 0.71397,1.478937 3.02587,1.512935 3.722839,0.034 0.23799,-0.509977 0.271988,-1.597931 0.271988,-9.434589 v -8.856619 l 0.713968,-0.356984 c 1.138951,-0.577974 2.413895,-1.903918 2.957873,-3.093865 0.424981,-0.91796 0.492978,-1.257946 0.492978,-2.583888 0,-1.325942 -0.068,-1.665927 -0.492978,-2.583887 -0.543978,-1.189949 -1.818922,-2.51589 -2.957873,-3.093865 L 53.305141,44.701451 V 24.081347 c 0,-20.1271252 -0.01701,-20.6201033 -0.339985,-21.147081 C 52.336184,1.8973112 51.129236,1.5913241 50.126279,2.203297 Z M 53.237144,46.21438 c 0.93496,0.424981 2.05691,1.546933 2.498891,2.549889 0.47598,1.070955 0.492978,2.872875 0,3.943828 -0.832963,1.869919 -2.515891,2.957871 -4.555802,2.940872 -1.444936,0 -2.481891,-0.42498 -3.43385,-1.37694 -2.277902,-2.2779 -1.903917,-5.96674 0.764966,-7.666667 0.441981,-0.288986 1.121951,-0.611972 1.478937,-0.696969 0.90096,-0.22099 2.345898,-0.085 3.246858,0.305987 z"
       id="path5583"
       style="stroke-width:0.0169993" />
    <path
       d="m 75.625171,2.2032919 c -1.053954,0.6289732 -1.070953,0.747968 -1.070953,7.0376949 V 14.91874 l -0.900962,0.509977 c -1.13895,0.645973 -2.243903,1.835921 -2.804878,3.059868 -0.390983,0.815964 -0.45898,1.206948 -0.45898,2.498892 0,1.291943 0.068,1.682926 0.45898,2.498891 0.560975,1.223947 1.665928,2.413895 2.804878,3.059867 l 0.900962,0.509977 v 23.713969 c 0,20.841095 0.034,23.781968 0.254988,24.257946 0.71397,1.478937 3.025869,1.512935 3.722838,0.034 0.25499,-0.526976 0.27199,-2.702883 0.27199,-24.308943 V 27.022217 l 0.815964,-0.407983 c 1.104951,-0.560975 2.2949,-1.852919 2.872875,-3.076866 0.407981,-0.883962 0.475979,-1.223948 0.475979,-2.549889 0,-1.291944 -0.085,-1.682927 -0.45898,-2.498891 C 81.948896,17.26464 80.843945,16.074693 79.704995,15.42872 L 78.804034,14.918742 V 9.2069908 c 0,-5.3887667 -0.01701,-5.7627501 -0.339986,-6.2727274 -0.628973,-1.0369548 -1.835921,-1.342942 -2.838877,-0.730969 z m 3.110866,14.2623811 c 0.934958,0.424981 2.056909,1.546932 2.498891,2.54989 0.475979,1.070952 0.492978,2.872874 0,3.943827 -0.832964,1.869918 -2.51589,2.957872 -4.555802,2.940873 -1.444938,0 -2.481893,-0.424982 -3.433853,-1.37694 -2.277899,-2.277901 -1.903916,-5.96674 0.764968,-7.666667 0.441981,-0.288988 1.121952,-0.611974 1.478937,-0.696969 0.90096,-0.22099 2.345897,-0.08501 3.246859,0.305986 z"
       id="path5585"
       style="stroke-width:0.0169993" />
    <path
       d="m 33.246013,89.885481 c -0.781966,0.407983 -1.240946,1.274945 -1.121952,2.141906 0.118994,0.96896 0.662972,1.427941 2.226904,1.818924 0.747967,0.18699 1.478936,0.424979 1.648928,0.509976 0.45898,0.237991 0.390983,0.95196 -0.118995,1.274943 -0.764968,0.509982 -2.464893,0 -2.464893,-0.730965 0,-0.152994 -0.23799,-0.220991 -0.747969,-0.220991 -0.713968,0 -0.730968,0.01701 -0.645971,0.45898 0.23799,1.291944 1.512934,2.039911 3.263858,1.869916 1.665928,-0.152993 2.651884,-1.087948 2.481893,-2.396892 -0.118995,-1.002956 -0.679972,-1.444942 -2.430894,-1.903922 -1.85292,-0.492975 -2.260902,-0.917959 -1.580932,-1.597927 0.492978,-0.492979 1.427936,-0.458981 1.954915,0.085 0.237989,0.22099 0.42498,0.49298 0.42498,0.594972 0,0.085 0.305987,0.169993 0.679972,0.169993 0.577974,0 0.67997,-0.051 0.67997,-0.339982 0,-0.628973 -0.509978,-1.342944 -1.189949,-1.699928 -0.849962,-0.44198 -2.260902,-0.45898 -3.059867,-0.03399 z"
       id="path5625"
       style="stroke-width:0.0169993" />
    <path
       d="m 50.925244,90.344461 c 0,0.577975 0.01701,0.594974 0.67997,0.594974 0.662973,0 0.679972,-0.01701 0.679972,-0.594974 0,-0.577974 -0.01701,-0.594973 -0.679972,-0.594973 -0.662971,0 -0.67997,0.01701 -0.67997,0.594973 z"
       id="path5707"
       style="stroke-width:0.0169993" />
    <path
       d="m 44.465525,90.939435 c 0,0.560975 -0.05099,0.679972 -0.339985,0.679972 -0.271989,0 -0.339985,0.118995 -0.339985,0.509977 0,0.390983 0.068,0.509976 0.339985,0.509976 0.322985,0 0.339985,0.118995 0.339985,1.852921 0,2.209903 0.101992,2.396897 1.376941,2.396897 0.815964,0 0.832963,-0.01702 0.832963,-0.509976 0,-0.424984 -0.068,-0.509981 -0.424982,-0.509981 -0.424981,0 -0.424981,0 -0.424981,-1.614931 0,-1.61493 0,-1.61493 0.424981,-1.61493 0.356984,0 0.424982,-0.085 0.424982,-0.509976 0,-0.424979 -0.068,-0.509977 -0.424982,-0.509977 -0.373983,0 -0.424981,-0.068 -0.424981,-0.679972 v -0.67997 h -0.679971 -0.67997 z"
       id="path5719"
       style="stroke-width:0.0169993" />
    <path
       d="m 47.865377,90.939435 c 0,0.560975 -0.05099,0.679972 -0.339985,0.679972 -0.271987,0 -0.339986,0.118995 -0.339986,0.509977 0,0.390983 0.068,0.509976 0.339986,0.509976 0.322986,0 0.339985,0.118995 0.339985,1.852921 0,2.209903 0.101992,2.396897 1.37694,2.396897 0.815965,0 0.832965,-0.01702 0.832965,-0.509976 0,-0.424984 -0.068,-0.509981 -0.424983,-0.509981 -0.424981,0 -0.424981,0 -0.424981,-1.614931 0,-1.61493 0,-1.61493 0.424981,-1.61493 0.356986,0 0.424983,-0.085 0.424983,-0.509976 0,-0.424979 -0.068,-0.509977 -0.424983,-0.509977 -0.373983,0 -0.424981,-0.068 -0.424981,-0.679972 v -0.67997 h -0.679971 -0.67997 z"
       id="path5721"
       style="stroke-width:0.0169993" />
    <path
       d="m 39.790728,91.789397 c -0.390983,0.186993 -0.832964,0.577977 -1.019955,0.883964 -0.407983,0.713971 -0.424982,2.379897 -0.034,3.144864 0.526976,0.985956 2.260901,1.546933 3.229859,1.053953 0.543977,-0.288987 1.308943,-1.036952 1.308943,-1.291944 0,-0.322988 -1.257946,-0.288987 -1.529933,0.03401 -0.492978,0.594973 -1.869919,0.118995 -1.869919,-0.645974 0,-0.254991 0.23799,-0.288987 1.801921,-0.288987 h 1.818922 L 43.377569,93.88032 c -0.135994,-1.036952 -0.560976,-1.716923 -1.291944,-2.107905 -0.764967,-0.407984 -1.444937,-0.407984 -2.2949,0.01702 z m 1.818922,1.138954 c 0.577974,0.526977 0.390982,0.730967 -0.71397,0.730967 -0.560975,0 -1.019956,-0.05099 -1.019956,-0.135993 0,-0.068 0.118994,-0.305988 0.27199,-0.509982 0.305985,-0.441979 1.019955,-0.492976 1.461936,-0.08499 z"
       id="path5895"
       style="stroke-width:0.0169993" />
    <path
       d="m 55.65104,91.755401 c -0.509979,0.271986 -0.645972,0.288987 -0.645972,0.101992 0,-0.169993 -0.203992,-0.237991 -0.679972,-0.237991 h -0.67997 v 2.634883 2.634888 h 0.67997 0.679972 v -1.784925 c 0,-1.580928 0.034,-1.81892 0.356984,-2.141906 0.45898,-0.458979 1.189947,-0.373983 1.461936,0.186994 0.135995,0.254986 0.220991,1.087949 0.220991,2.07391 v 1.665927 h 0.679971 0.67997 v -2.039911 c 0,-1.104953 -0.085,-2.209907 -0.186993,-2.430897 -0.390982,-0.849962 -1.59793,-1.155948 -2.566887,-0.662969 z"
       id="path5897"
       style="stroke-width:0.0169993" />
    <path
       d="m 60.869812,91.619407 c -0.45898,0.18699 -1.036955,0.832963 -1.257945,1.410937 -0.254988,0.67997 -0.237989,1.886921 0.05099,2.58389 0.492978,1.172947 2.124906,1.648927 3.076865,0.900961 l 0.47598,-0.373983 -0.101992,0.662969 c -0.05099,0.356983 -0.22099,0.764966 -0.339985,0.883959 -0.322986,0.339987 -1.257946,0.322986 -1.61493,0 -0.169993,-0.169989 -0.594975,-0.288986 -0.934959,-0.288986 -0.747967,0 -0.849964,0.407984 -0.237989,0.985957 0.798964,0.747971 2.71988,0.815968 3.773834,0.135997 0.611975,-0.390982 0.764968,-1.257947 0.764968,-4.232817 v -2.668884 h -0.679971 c -0.594974,0 -0.679971,0.05099 -0.679971,0.373984 -0.01701,0.356983 -0.034,0.373983 -0.237989,0.101991 -0.407982,-0.543972 -1.359942,-0.764964 -2.056911,-0.475976 z m 1.631929,1.189946 c 0.22099,0 0.662971,0.951962 0.662971,1.444937 0,0.47598 -0.271988,1.121955 -0.577975,1.308943 -0.339985,0.237992 -1.070953,0.135994 -1.342942,-0.169993 -0.866961,-0.951955 -0.186991,-3.008866 0.866964,-2.651883 0.135993,0.03402 0.305987,0.068 0.390982,0.068 z"
       id="path5899"
       style="stroke-width:0.0169993" />
    <path
       d="m 66.955549,91.636404 c -1.138953,0.322986 -1.631931,1.767923 -0.849965,2.481894 0.203992,0.20399 0.832964,0.49298 1.39394,0.645973 0.560975,0.169989 1.13895,0.407979 1.274944,0.543976 0.22099,0.220991 0.22099,0.271987 -0.068,0.492978 -0.492979,0.356983 -1.087953,0.288985 -1.563932,-0.186991 -0.526978,-0.543976 -1.597931,-0.611972 -1.597931,-0.101991 0,0.492976 0.628973,1.15595 1.308944,1.39394 0.356985,0.118995 1.002955,0.152993 1.563931,0.101992 0.781967,-0.085 1.036955,-0.186988 1.427939,-0.628968 1.002955,-1.121955 0.356984,-2.3119 -1.495935,-2.736884 -1.13895,-0.254986 -1.495935,-0.594974 -1.019956,-0.951957 0.390983,-0.271991 1.087952,-0.169994 1.37694,0.220989 0.237989,0.305988 1.427938,0.322989 1.427938,0.01702 0,-0.390984 -0.543977,-1.002957 -1.121952,-1.240948 -0.628972,-0.271989 -1.257945,-0.288988 -2.056909,-0.05099 z"
       id="path5901"
       style="stroke-width:0.0169993" />
    <path
       d="m 50.925244,94.25429 v 2.634888 h 0.67997 0.679972 V 94.25429 91.619407 h -0.679972 -0.67997 z"
       id="path5923"
       style="stroke-width:0.0169993" />
  </g>
</svg>
