<?xml version="1.0" encoding="UTF-8" standalone="no"?>
<!-- Created with Inkscape (http://www.inkscape.org/) -->

<svg
   width="100mm"
   height="100mm"
   viewBox="0 0 100 100"
   version="1.1"
   id="svg26768"
   xmlns="http://www.w3.org/2000/svg"
   xmlns:svg="http://www.w3.org/2000/svg">
  <defs
     id="defs26765" />
  <path
     d="M 47.288135,1.0710479 C 43.822263,1.6215134 41.375773,2.3554575 38.827347,3.6398671 31.875237,7.1057225 26.961865,13.44621 25.249324,21.111879 c -0.203875,0.958211 -0.387363,2.018354 -0.387363,2.364954 v 0.611611 l -2.242618,-0.08152 c -2.752301,-0.122346 -4.831818,0.183497 -7.135597,1.060146 -5.035694,1.875649 -8.9704678,6.340487 -10.4179739,11.845098 -0.5096866,1.936808 -0.6116236,5.647316 -0.203874,7.543351 1.5086686,7.013271 7.2375349,12.436321 14.2915849,13.557638 0.856272,0.122349 11.416958,0.203865 29.989899,0.203865 30.988892,0 30.27532,0.02034 33.516924,-1.080529 6.544367,-2.24262 11.518898,-7.706443 13.17028,-14.536236 0.570852,-2.283393 0.611625,-6.17738 0.122349,-8.379227 -0.835877,-3.710509 -2.670752,-7.054045 -5.42305,-9.90829 -3.894002,-4.036708 -8.807374,-6.238555 -13.944997,-6.258941 H 74.790786 L 74.383041,17.075202 C 73.751029,15.546154 72.792819,13.772438 71.793835,12.243391 70.590986,10.408515 66.758144,6.575688 64.923284,5.3728245 60.336111,2.3554872 55.463512,0.88758411 50.264714,0.9487585 48.898758,0.9691005 47.57359,1.0302748 47.288164,1.0711073 Z m 6.238539,2.9357912 c 4.852213,0.6727846 9.480159,2.9561778 12.966416,6.3812599 2.58919,2.528046 4.383293,5.36189 5.769635,9.092785 0.366972,0.958211 0.733944,1.732943 0.835876,1.732943 0.102007,-0.02034 1.060143,-0.102007 2.120301,-0.183494 5.56577,-0.468904 11.009207,2.018354 14.536221,6.6463 5.382292,7.054045 4.81144,16.49343 -1.345554,22.650424 -1.569835,1.590222 -2.711539,2.364939 -4.872599,3.40471 -3.486257,1.651382 -0.570852,1.529048 -33.74119,1.590222 -33.027626,0.06117 -31.11121,0.122349 -34.189709,-1.365955 -5.096857,-2.50766 -8.0734212,-7.237553 -8.0734212,-12.844081 0,-2.466887 0.3669736,-4.159042 1.3251826,-6.238555 2.6911396,-5.851196 8.3996186,-8.807374 15.2905696,-7.930709 1.223243,0.163092 2.4261,0.305812 2.650365,0.346585 0.366974,0.04083 0.428133,-0.183493 0.754335,-2.711524 0.774721,-6.055062 3.078499,-10.784955 7.09482,-14.556623 C 39.704004,5.2708622 46.67651,3.0486285 53.526674,4.0068391 Z"
     id="path6772"
     style="stroke-width:0.0203874" />
  <path
     d="m 44.43389,25.801 v 1.855246 l 6.687072,3.261991 6.666686,3.26199 -5.810408,2.874632 c -3.20083,1.56982 -6.197781,3.017337 -6.666701,3.241589 L 44.43389,40.66342 v 1.957194 1.936807 l 8.56272,-4.28136 8.583108,-4.28136 -0.06117,-1.794088 -0.06117,-1.7737 -8.358841,-4.220201 c -4.587173,-2.324166 -8.42,-4.220201 -8.501561,-4.240587 -0.101858,0 -0.163092,0.835891 -0.163092,1.834875 z"
     id="path6774"
     style="stroke-width:0.0203874" />
  <path
     d="m 14.056626,89.368978 c -0.937821,0.489306 -1.488282,1.529062 -1.345571,2.568819 0.142706,1.162076 0.79511,1.712541 2.670754,2.181446 0.897046,0.224266 1.773705,0.509692 1.977579,0.61164 0.550461,0.285411 0.468912,1.141689 -0.142706,1.529047 -0.917433,0.611625 -2.956176,0 -2.956176,-0.876664 0,-0.183479 -0.285425,-0.26504 -0.897047,-0.26504 -0.856272,0 -0.876658,0.02034 -0.774721,0.550466 0.285423,1.549449 1.814479,2.4465 3.914384,2.24262 1.997968,-0.183493 3.180438,-1.304796 2.976564,-2.874632 -0.142705,-1.202848 -0.815496,-1.732927 -2.9154,-2.283393 -2.22223,-0.591224 -2.711528,-1.100916 -1.896032,-1.916406 0.591235,-0.591239 1.712544,-0.550466 2.344554,0.101858 0.285425,0.26504 0.509685,0.591239 0.509685,0.713558 0,0.101858 0.366974,0.20388 0.815498,0.20388 0.693173,0 0.815498,-0.06118 0.815498,-0.40776 0,-0.754331 -0.611624,-1.610594 -1.427122,-2.038726 -1.01937,-0.530079 -2.711526,-0.550465 -3.669735,-0.04083 z"
     id="path6808"
     style="stroke-width:0.0203874" />
  <path
     d="m 58.195393,89.205886 c -1.549434,0.489291 -2.548417,2.181445 -2.548417,4.383293 0,2.201847 0.672784,3.404695 2.303779,4.07748 2.018354,0.835892 4.097867,0.02034 4.933759,-1.997967 l 0.305812,-0.754331 h -0.897051 c -0.733959,0 -0.937824,0.08152 -1.039756,0.407745 -0.346601,1.100916 -2.242621,1.42713 -3.119285,0.550466 -0.917423,-0.937824 -0.87665,-3.812456 0.06117,-4.750265 0.693171,-0.693186 1.977581,-0.6728 2.650366,0.02034 0.285426,0.265039 0.509692,0.591238 0.509692,0.713572 0,0.102007 0.428132,0.203865 0.937824,0.203865 0.856263,0 0.917423,-0.02034 0.795104,-0.468904 -0.285426,-0.897051 -0.937824,-1.732928 -1.630995,-2.059142 -0.87665,-0.428131 -2.446486,-0.570837 -3.261991,-0.326184 z"
     id="path6810"
     style="stroke-width:0.0203874" />
  <path
     d="m 28.123947,93.487246 v 4.28136 h 0.815502 0.815496 v -4.28136 -4.28136 h -0.815496 -0.815502 z"
     id="path6828"
     style="stroke-width:0.0203874" />
  <path
     d="m 45.861005,93.487246 v 4.28136 H 46.67651 47.492 v -1.100931 c 0,-0.672784 0.101858,-1.182462 0.285426,-1.325182 0.326199,-0.265025 0.428131,-0.163092 1.264023,1.345569 0.591224,1.080544 0.591224,1.080544 1.569836,1.080544 0.55045,0 0.937809,-0.06117 0.897036,-0.163107 -0.04083,-0.08152 -0.570837,-0.95821 -1.162076,-1.936807 l -1.060143,-1.814474 1.039757,-1.060143 c 0.570837,-0.570852 1.039756,-1.121318 1.039756,-1.202864 0,-0.08152 -0.428131,-0.14269 -0.95821,-0.14269 -0.937824,0.02034 -1.01937,0.08152 -1.896035,1.141704 l -0.917438,1.121302 -0.06117,-2.242605 -0.06117,-2.263007 H 46.67648 45.860975 Z"
     id="path6830"
     style="stroke-width:0.0203874" />
  <path
     d="m 64.413561,93.487246 v 4.28136 h 0.815491 0.815505 v -4.28136 -4.28136 h -0.815505 -0.815491 z"
     id="path6832"
     style="stroke-width:0.0203874" />
  <path
     d="m 86.228109,90.633001 v 1.427115 L 85.57571,91.652371 c -0.876664,-0.530064 -1.569835,-0.509678 -2.426098,0.06117 -0.917438,0.611625 -1.406729,1.630995 -1.406729,2.956178 0,2.548433 1.957179,4.036707 3.832827,2.895018 0.530079,-0.326199 0.652399,-0.346585 0.652399,-0.101858 0,0.224252 0.224266,0.305812 0.81549,0.305812 h 0.815505 v -4.28136 -4.28136 h -0.815505 -0.81549 z m -0.428132,2.548433 c 0.163092,0.163092 0.326199,0.713557 0.366972,1.264023 0.08152,0.795103 0.02034,1.080529 -0.346586,1.529047 -1.182477,1.529063 -2.915404,-0.14269 -2.24262,-2.181445 0.346586,-1.080545 1.427115,-1.365956 2.222234,-0.611625 z"
     id="path6834"
     style="stroke-width:0.0203874" />
  <path
     d="m 23.434839,91.468892 c -0.265037,0.101859 -0.672782,0.346571 -0.856268,0.530064 -0.346586,0.305813 -0.366974,0.305813 -0.366974,-0.101858 0,-0.366972 -0.122333,-0.448533 -0.713559,-0.448533 h -0.713565 v 4.383308 4.383287 h 0.815498 0.815502 v -1.56983 c 0,-1.508661 0.0204,-1.549434 0.387356,-1.202848 0.958212,0.876649 2.813469,0.428131 3.547416,-0.835892 0.489294,-0.856278 0.530071,-2.996951 0.06116,-3.894002 -0.570849,-1.121302 -1.936806,-1.671768 -2.976565,-1.243621 z m 1.284408,1.855247 c 0.815502,0.937824 0.14272,3.221217 -0.958206,3.221217 -1.162082,0 -1.81448,-1.325182 -1.345568,-2.752297 0.387356,-1.141704 1.508666,-1.386357 2.303774,-0.46892 z"
     id="path6926"
     style="stroke-width:0.0203874" />
  <path
     d="m 40.927251,91.611598 c -0.611621,0.326199 -0.774725,0.346585 -0.774725,0.122349 0,-0.203865 -0.244647,-0.285426 -0.815496,-0.285426 h -0.815496 v 3.160057 3.160058 h 0.815496 0.815496 v -2.140688 c 0,-1.896034 0.0408,-2.181445 0.428141,-2.568819 0.550459,-0.55045 1.427116,-0.448518 1.753318,0.224267 0.163098,0.305812 0.265035,1.304796 0.265035,2.487258 v 1.997982 h 0.815498 0.815496 v -2.4465 c 0,-1.325183 -0.101932,-2.650365 -0.224265,-2.915405 -0.468905,-1.01937 -1.916417,-1.386342 -3.078498,-0.795103 z"
     id="path6928"
     style="stroke-width:0.0203874" />
  <path
     d="m 68.898802,91.591211 c -0.876665,0.448518 -1.630995,1.855262 -1.630995,3.017338 0,0.448518 0.203865,1.243636 0.468904,1.732927 0.591239,1.202864 1.48829,1.671769 2.956178,1.569836 1.855262,-0.142691 2.956178,-1.365956 2.956178,-3.302763 0,-1.936808 -1.100916,-3.160058 -2.956178,-3.302764 -0.774717,-0.06117 -1.28441,0.02034 -1.794087,0.285426 z m 2.629979,1.610609 c 0.978597,1.243637 0.285426,3.343536 -1.100931,3.343536 -0.754331,0 -1.060144,-0.285426 -1.325183,-1.243636 -0.244638,-0.81549 0.06117,-2.120286 0.570852,-2.405713 0.652398,-0.387358 1.406729,-0.244652 1.855262,0.305813 z"
     id="path6930"
     style="stroke-width:0.0203874" />
  <path
     d="m 31.385937,93.874605 c 0,1.345569 0.08155,2.670751 0.203876,2.976564 0.428134,1.121303 2.4261,1.345569 3.486249,0.387358 0.366974,-0.326199 0.387357,-0.326199 0.387357,0.08152 0,0.387358 0.122319,0.448533 0.815502,0.448533 h 0.815496 v -3.160058 -3.160058 h -0.917434 -0.917435 v 2.201847 c 0,1.896035 -0.06116,2.263007 -0.366973,2.548433 -0.428139,0.387359 -0.917433,0.428132 -1.488282,0.142691 C 33.057707,96.13757 33.01693,95.892917 33.01693,93.793017 v -2.344568 h -0.815497 -0.815496 z"
     id="path7034"
     style="stroke-width:0.0203874" />
  <path
     d="m 75.015022,93.874605 c 0,1.345569 0.08152,2.670751 0.20388,2.976564 0.428132,1.121303 2.426099,1.345569 3.486242,0.387358 0.366987,-0.326199 0.387359,-0.326199 0.387359,0.08152 0,0.387358 0.122349,0.448533 0.815505,0.448533 h 0.81549 v -3.160061 -3.160058 h -0.917423 -0.917437 v 2.201847 c 0,1.896035 -0.06118,2.263007 -0.366972,2.548433 -0.428147,0.387359 -0.917438,0.428132 -1.48829,0.142691 -0.346585,-0.203865 -0.387358,-0.448518 -0.387358,-2.548418 v -2.344568 h -0.815491 -0.815505 z"
     id="path7036"
     style="stroke-width:0.0203874" />
</svg>
