<?xml version="1.0" encoding="UTF-8" standalone="no"?>
<!-- Created with Inkscape (http://www.inkscape.org/) -->

<svg
   width="100mm"
   height="100mm"
   viewBox="0 0 100 100"
   version="1.1"
   id="svg26768"
   sodipodi:docname="splunk instance.svg"
   inkscape:version="1.1.1 (3bf5ae0d25, 2021-09-20)"
   xmlns:inkscape="http://www.inkscape.org/namespaces/inkscape"
   xmlns:sodipodi="http://sodipodi.sourceforge.net/DTD/sodipodi-0.dtd"
   xmlns="http://www.w3.org/2000/svg"
   xmlns:svg="http://www.w3.org/2000/svg">
  <sodipodi:namedview
     id="namedview26770"
     pagecolor="#ffffff"
     bordercolor="#666666"
     borderopacity="1.0"
     inkscape:pageshadow="2"
     inkscape:pageopacity="0.0"
     inkscape:pagecheckerboard="0"
     inkscape:document-units="mm"
     showgrid="false"
     width="209mm"
     inkscape:zoom="0.7500982"
     inkscape:cx="13.998167"
     inkscape:cy="241.96832"
     inkscape:window-width="1920"
     inkscape:window-height="1027"
     inkscape:window-x="1912"
     inkscape:window-y="-8"
     inkscape:window-maximized="1"
     inkscape:current-layer="layer1" />
  <defs
     id="defs26765" />
  <g
     inkscape:label="Layer 1"
     inkscape:groupmode="layer"
     id="layer1">
    <path
       d="M 26.48979,2.1987454 C 25.34306,2.5528817 24.128877,3.4129281 23.504922,4.3572937 22.375057,6.0436598 22.459375,3.5815652 22.493103,39.197612 l 0.05059,32.293907 0.371001,0.792591 c 0.489047,1.062411 1.618912,2.25973 2.664458,2.799367 l 0.843183,0.455319 h 24.452306 24.452305 l 0.843183,-0.404728 c 1.06241,-0.539637 2.091093,-1.56832 2.63073,-2.63073 l 0.404728,-0.843183 0.05059,-32.580589 C 79.289905,6.5327053 79.289905,6.4989787 78.952635,5.5714764 78.480453,4.3404291 77.333723,3.0756551 76.119541,2.4854271 L 75.158312,2.013245 51.211917,1.9795208 c -20.388164,-0.016868 -24.064441,0 -24.722124,0.2192283 z m 49.022656,2.3440475 c 0.623954,0.3878642 0.944364,0.7420018 1.2985,1.4334123 l 0.455319,0.9106377 -0.03372,24.7221221 -0.05059,24.70526 -0.354136,0.775728 c -0.522773,1.129866 -1.467139,2.091094 -2.563277,2.630731 l -0.961228,0.472183 H 50.874644 28.445978 l -0.87691,-0.455319 c -1.180457,-0.623956 -2.02364,-1.500865 -2.563277,-2.647595 l -0.438454,-0.944364 -0.05059,-24.351124 c -0.03372,-21.045846 0,-24.4860312 0.202364,-25.2111684 0.337273,-1.129866 1.298502,-2.0910937 2.411503,-2.39464 0.657683,-0.1686359 5.39637,-0.2023638 24.182487,-0.1855005 l 23.37303,0.033724 z m -48.128882,55.8355751 1.06241,0.489045 h 22.512984 22.512985 l 0.978091,-0.489045 c 0.978092,-0.472184 1.989913,-1.33223 2.512686,-2.124822 0.269818,-0.404728 0.286682,-0.03372 0.286682,6.070917 0.01687,5.919144 -0.01687,6.5431 -0.303547,7.167056 -0.370999,0.843182 -1.332228,1.703229 -2.158547,1.93932 -0.45532,0.134909 -7.571783,0.168637 -24.283669,0.134909 l -23.625985,-0.05059 -0.742002,-0.50591 c -0.387864,-0.286683 -0.910638,-0.860047 -1.146728,-1.264774 l -0.421591,-0.758865 -0.05059,-6.559964 -0.05059,-6.543099 0.927501,0.994955 c 0.640819,0.708274 1.264774,1.163593 1.989912,1.500867 z"
       id="path5587"
       style="stroke-width:0.0168637" />
    <path
       d="m 41.380399,23.295182 0.05059,2.310321 8.162011,3.979824 8.162011,3.962959 -8.162011,4.047278 -8.162011,4.047278 -0.05059,2.226003 c -0.01687,1.231047 0.01687,2.242866 0.08432,2.242866 0.06745,0 4.806142,-2.327184 10.539786,-5.177143 L 62.426244,35.757425 V 33.598877 31.440329 L 51.970776,26.212595 C 46.220268,23.345772 41.481579,20.98486 41.430988,20.98486 c -0.05059,0 -0.06745,1.045547 -0.05059,2.310322 z"
       id="path5589"
       style="stroke-width:0.0168637" />
    <path
       d="m 29.913112,65.437465 c -1.298502,0.657682 -1.433411,2.765639 -0.219227,3.541368 0.438455,0.286683 0.438455,0.286683 0.151772,-0.05059 -0.303545,-0.337273 -0.387864,-1.129864 -0.202364,-1.652638 0.151774,-0.387864 1.045547,-0.809455 1.517729,-0.691409 0.961229,0.252955 1.382822,1.416546 0.809457,2.293457 -0.151774,0.252955 -0.01687,0.168636 0.337273,-0.202363 0.522773,-0.539638 0.607091,-0.758866 0.607091,-1.399685 0,-1.534592 -1.635775,-2.529549 -3.001731,-1.838137 z"
       id="path5591"
       style="stroke-width:0.0168637" />
    <path
       d="m 14.870728,89.248951 c -0.775728,0.404727 -1.231047,1.264775 -1.113001,2.124821 0.118041,0.961228 0.657683,1.416547 2.209139,1.804411 0.742001,0.1855 1.467138,0.421592 1.635775,0.50591 0.455319,0.23609 0.387865,0.944364 -0.118041,1.264774 -0.758865,0.50591 -2.44523,0 -2.44523,-0.725137 0,-0.151773 -0.236091,-0.219227 -0.742001,-0.219227 -0.708273,0 -0.725138,0.01687 -0.640818,0.455318 0.23609,1.281639 1.500864,2.02364 3.237821,1.855002 1.652639,-0.151772 2.630731,-1.079273 2.462095,-2.377775 -0.118041,-0.994956 -0.674547,-1.433411 -2.411503,-1.88873 -1.838139,-0.489047 -2.242868,-0.910638 -1.568321,-1.585183 0.489046,-0.489047 1.416547,-0.455319 1.93932,0.08432 0.236092,0.219227 0.421592,0.489047 0.421592,0.590228 0,0.08432 0.303547,0.168636 0.674546,0.168636 0.573365,0 0.674548,-0.05059 0.674548,-0.337272 0,-0.623956 -0.50591,-1.332229 -1.180456,-1.686366 -0.843183,-0.438455 -2.242868,-0.455319 -3.03546,-0.03372 z"
       id="path5627"
       style="stroke-width:0.0168637" />
    <path
       d="m 26.338017,92.655409 v 3.54137 h 0.674546 0.674546 v -3.54137 -3.541368 h -0.674546 -0.674546 z"
       id="path5709"
       style="stroke-width:0.0168637" />
    <path
       d="m 41.178035,92.655409 v 3.54137 h 0.674548 0.674546 V 95.28614 c 0,-0.5565 0.08432,-0.978092 0.236091,-1.096137 0.269819,-0.219227 0.354137,-0.134909 1.045547,1.113002 0.489046,0.893774 0.489046,0.893774 1.298502,0.893774 0.455319,0 0.775727,-0.05059 0.742001,-0.134911 -0.03372,-0.06745 -0.472183,-0.792591 -0.961229,-1.602047 l -0.87691,-1.500865 0.860046,-0.876911 c 0.472182,-0.472182 0.860047,-0.927501 0.860047,-0.994956 0,-0.06745 -0.354137,-0.118041 -0.792592,-0.118041 -0.775729,0.01687 -0.843183,0.06745 -1.56832,0.944365 l -0.758865,0.927501 -0.05059,-1.855002 -0.05059,-1.871867 h -0.657683 -0.674547 z"
       id="path5711"
       style="stroke-width:0.0168637" />
    <path
       d="m 49.272592,92.655409 v 3.54137 h 0.674547 0.674546 v -3.54137 -3.541368 h -0.674546 -0.674547 z"
       id="path5713"
       style="stroke-width:0.0168637" />
    <path
       d="m 63.606701,90.294497 c 0,0.556502 -0.05059,0.674548 -0.337273,0.674548 -0.269818,0 -0.337273,0.11804 -0.337273,0.505908 0,0.387865 0.06745,0.505911 0.337273,0.505911 0.32041,0 0.337273,0.11804 0.337273,1.838138 0,2.192276 0.101185,2.377777 1.365958,2.377777 0.809455,0 0.826319,-0.01687 0.826319,-0.50591 0,-0.421592 -0.06745,-0.50591 -0.421591,-0.50591 -0.421592,0 -0.421592,0 -0.421592,-1.602047 0,-1.602048 0,-1.602048 0.421592,-1.602048 0.354136,0 0.421591,-0.08432 0.421591,-0.505911 0,-0.42159 -0.06745,-0.505908 -0.421591,-0.505908 -0.371001,0 -0.421592,-0.06746 -0.421592,-0.674548 v -0.674546 h -0.674546 -0.674548 z"
       id="path5723"
       style="stroke-width:0.0168637" />
    <path
       d="m 22.459375,90.985908 c -0.219227,0.08432 -0.556502,0.286682 -0.708274,0.438454 -0.286682,0.252955 -0.303545,0.252955 -0.303545,-0.08432 0,-0.303545 -0.101185,-0.370999 -0.590228,-0.370999 H 20.2671 v 3.625686 3.625686 h 0.674546 0.674546 v -1.298503 c 0,-1.24791 0.01687,-1.281636 0.320409,-0.994955 0.792592,0.725139 2.327186,0.354138 2.934277,-0.691409 0.404728,-0.708274 0.438455,-2.478958 0.05059,-3.22096 -0.472183,-0.927501 -1.602049,-1.382819 -2.462095,-1.028682 z m 1.06241,1.534592 c 0.674547,0.775729 0.118041,2.664459 -0.792592,2.664459 -0.961228,0 -1.500866,-1.096138 -1.113001,-2.276594 0.320409,-0.944365 1.24791,-1.14673 1.905593,-0.387865 z"
       id="path5903"
       style="stroke-width:0.0168637" />
    <path
       d="m 37.097031,91.103954 c -0.505911,0.269818 -0.64082,0.286681 -0.64082,0.101185 0,-0.168636 -0.202364,-0.236091 -0.674546,-0.236091 h -0.674546 v 2.613867 2.613868 h 0.674546 0.674546 v -1.770686 c 0,-1.56832 0.03372,-1.80441 0.354138,-2.12482 0.455319,-0.455319 1.180456,-0.371001 1.450274,0.1855 0.134909,0.252955 0.219227,1.079274 0.219227,2.057366 v 1.65264 h 0.674546 0.674548 v -2.023641 c 0,-1.096137 -0.08432,-2.192275 -0.185501,-2.411503 -0.387864,-0.843182 -1.585184,-1.146728 -2.546412,-0.657681 z"
       id="path5905"
       style="stroke-width:0.0168637" />
    <path
       d="m 53.960689,91.103954 c -0.50591,0.269818 -0.640819,0.286681 -0.640819,0.101185 0,-0.168636 -0.202364,-0.236091 -0.674546,-0.236091 h -0.674546 v 2.613867 2.613868 h 0.674546 0.674546 v -1.770686 c 0,-1.56832 0.03372,-1.80441 0.354138,-2.12482 0.455318,-0.455319 1.180456,-0.371001 1.450274,0.1855 0.134909,0.252955 0.219227,1.079274 0.219227,2.057366 v 1.65264 h 0.674546 0.674547 v -2.023641 c 0,-1.096137 -0.08432,-2.192275 -0.1855,-2.411503 -0.387864,-0.843182 -1.585184,-1.146728 -2.546413,-0.657681 z"
       id="path5907"
       style="stroke-width:0.0168637" />
    <path
       d="m 59.104106,90.985908 c -1.129866,0.320408 -1.618912,1.753821 -0.843183,2.462093 0.202363,0.202365 0.826318,0.489047 1.382819,0.64082 0.556501,0.168637 1.129865,0.404727 1.264774,0.539636 0.219229,0.219229 0.219229,0.26982 -0.06745,0.489047 -0.489045,0.354136 -1.079274,0.286682 -1.551456,-0.1855 -0.522773,-0.539637 -1.585185,-0.607092 -1.585185,-0.101185 0,0.489046 0.623956,1.146729 1.298502,1.382821 0.354138,0.118041 0.994956,0.151772 1.551457,0.101185 0.775729,-0.08432 1.028684,-0.185501 1.416548,-0.623955 0.994956,-1.113001 0.354136,-2.293457 -1.484002,-2.71505 -1.129865,-0.252955 -1.484003,-0.590228 -1.01182,-0.944364 0.387864,-0.26982 1.079274,-0.168637 1.365956,0.219227 0.236092,0.303546 1.416548,0.32041 1.416548,0.01687 0,-0.387864 -0.539637,-0.994955 -1.113002,-1.231047 -0.623956,-0.269818 -1.24791,-0.286682 -2.040502,-0.05059 z"
       id="path5909"
       style="stroke-width:0.0168637" />
    <path
       d="m 67.721435,91.036499 c -0.590229,0.252955 -1.079274,0.860047 -1.079274,1.315365 0,0.455319 1.197319,0.421591 1.484001,-0.03374 0.252955,-0.421591 1.33223,-0.472182 1.484002,-0.08432 0.168637,0.438456 -0.23609,0.708274 -1.231047,0.843183 -1.231046,0.151773 -1.905593,0.758865 -1.905593,1.720094 0.01687,1.38282 1.382821,2.006777 2.664458,1.231046 0.472182,-0.286681 0.556501,-0.303545 0.640819,-0.08432 0.06745,0.168637 0.337273,0.252955 0.87691,0.252955 0.607093,0 0.725137,-0.05059 0.573365,-0.202364 -0.13491,-0.134909 -0.202364,-0.87691 -0.202364,-2.192276 0,-2.242867 -0.118041,-2.495822 -1.298502,-2.816231 -0.843183,-0.236091 -1.365956,-0.219227 -2.006775,0.05059 z m 1.787548,3.659413 c -0.32041,0.742002 -1.365957,0.893774 -1.635775,0.219228 -0.168637,-0.455319 0.1855,-0.809456 0.978092,-0.994957 0.860047,-0.219227 0.994956,-0.05059 0.657683,0.775729 z"
       id="path5911"
       style="stroke-width:0.0168637" />
    <path
       d="m 74.197079,91.103954 c -0.505909,0.269818 -0.640818,0.286681 -0.640818,0.101185 0,-0.168636 -0.202364,-0.236091 -0.674547,-0.236091 h -0.674546 v 2.613867 2.613868 h 0.674546 0.674547 v -1.770686 c 0,-1.56832 0.03372,-1.80441 0.354136,-2.12482 0.455319,-0.455319 1.180456,-0.371001 1.450275,0.1855 0.134909,0.252955 0.219228,1.079274 0.219228,2.057366 v 1.65264 h 0.674546 0.674546 v -2.023641 c 0,-1.096137 -0.08432,-2.192275 -0.1855,-2.411503 -0.387863,-0.843182 -1.585184,-1.146728 -2.546413,-0.657681 z"
       id="path5913"
       style="stroke-width:0.0168637" />
    <path
       d="m 79.576587,90.969045 c -0.674546,0.202363 -0.961229,0.489045 -1.315365,1.264774 -0.404728,0.860046 -0.404728,2.006774 0,2.883685 0.404727,0.910638 1.247911,1.315365 2.428367,1.197319 0.708273,-0.06745 0.944364,-0.168635 1.416546,-0.691409 0.303546,-0.320409 0.556501,-0.758865 0.556501,-0.944365 0,-0.286682 -0.11804,-0.337273 -0.640819,-0.337273 -0.539637,0 -0.691409,0.08432 -0.843183,0.421591 -0.134909,0.303546 -0.32041,0.421592 -0.674546,0.421592 -0.742,0 -1.045547,-0.455319 -1.045547,-1.568321 0,-1.045546 0.371001,-1.635774 0.994956,-1.635774 0.337273,0 0.860046,0.42159 0.860046,0.69141 0,0.08432 0.337275,0.151773 0.742002,0.151773 h 0.758864 L 82.662636,92.301273 C 82.443409,91.542408 82.072408,91.205135 81.229225,90.985908 80.386042,90.76668 80.23427,90.76668 79.576587,90.96904 Z"
       id="path5915"
       style="stroke-width:0.0168637" />
    <path
       d="m 84.601956,91.13768 c -0.387863,0.185501 -0.826318,0.573365 -1.011819,0.87691 -0.404727,0.708274 -0.42159,2.360912 -0.03372,3.119777 0.522774,0.978093 2.242866,1.534595 3.204095,1.045547 0.539637,-0.286681 1.298502,-1.028683 1.298502,-1.281637 0,-0.32041 -1.24791,-0.286683 -1.517729,0.03372 -0.489046,0.590228 -1.855003,0.118041 -1.855003,-0.640819 0,-0.252954 0.236092,-0.286682 1.787549,-0.286682 h 1.804412 l -0.118041,-0.792592 c -0.134909,-1.028683 -0.556502,-1.703229 -1.281639,-2.091093 -0.758865,-0.404728 -1.433411,-0.404728 -2.276594,0.01687 z m 1.804412,1.129865 c 0.573365,0.522774 0.387865,0.725137 -0.708274,0.725137 -0.5565,0 -1.011818,-0.05059 -1.011818,-0.134909 0,-0.06745 0.11804,-0.303545 0.269818,-0.505909 0.303546,-0.438455 1.01182,-0.489046 1.450274,-0.08432 z"
       id="path5917"
       style="stroke-width:0.0168637" />
    <path
       d="m 29.036202,92.975819 c 0,1.113002 0.06745,2.20914 0.168636,2.462095 0.354137,0.927501 2.006776,1.113001 2.883687,0.320409 0.303545,-0.269818 0.320408,-0.269818 0.320408,0.06745 0,0.320409 0.101185,0.371001 0.674547,0.371001 h 0.674546 v -2.613868 -2.613867 h -0.758864 -0.758865 v 1.821274 c 0,1.568321 -0.05059,1.871867 -0.303546,2.107959 -0.354136,0.320408 -0.758865,0.354136 -1.231047,0.118041 -0.286682,-0.168636 -0.32041,-0.371 -0.32041,-2.107957 v -1.93932 h -0.674546 -0.674546 z"
       id="path5925"
       style="stroke-width:0.0168637" />
  </g>
</svg>
