<?xml version="1.0" encoding="UTF-8" standalone="no"?>
<!-- Created with Inkscape (http://www.inkscape.org/) -->

<svg
   width="100mm"
   height="100mm"
   viewBox="0 0 100 100"
   version="1.1"
   id="svg26768"
   xmlns="http://www.w3.org/2000/svg"
   xmlns:svg="http://www.w3.org/2000/svg">
  <defs
     id="defs26765" />
  <path
     d="m 36.764878,5.0718083 -12.626055,4.2213626 -0.70356,0.7986361 c -0.399318,0.437348 -0.760606,1.064848 -0.836667,1.388105 -0.05705,0.323257 -0.11409,11.979541 -0.11409,25.879611 0,27.648019 -0.07606,25.917641 1.140908,27.09658 0.570454,0.551439 2.091666,1.102878 13.215525,4.810832 12.378859,4.126286 12.588025,4.183331 14.166282,4.183331 1.578257,0 1.787424,-0.05705 13.976131,-4.10727 6.788406,-2.262803 12.664085,-4.316439 13.044389,-4.544621 0.399317,-0.266212 0.874696,-0.798636 1.102878,-1.274014 l 0.399318,-0.836666 V 37.169371 c 0,-27.933246 0.07606,-26.183852 -1.140909,-27.3627916 C 77.818574,9.2551403 76.297363,8.7037012 65.173503,4.995748 52.642524,0.83143126 52.604494,0.81241599 51.007221,0.83143126 49.428964,0.8504473 49.124722,0.92650763 36.764878,5.0718083 Z m 27.457868,2.1296962 c 8.499769,2.8142415 12.454919,4.2213625 12.702116,4.4875745 0.285227,0.342272 0.323258,0.912727 0.323258,5.590452 v 5.21015 H 66.599639 c -5.856664,0 -10.64848,0.03802 -10.64848,0.07606 0,0.03803 -0.05705,0.209167 -0.114091,0.380303 -0.114091,0.266212 0.912727,0.304243 10.648481,0.304243 H 77.24812 v 6.750375 6.750376 h -9.792799 c -9.583632,0 -9.792799,0 -9.982951,0.380303 -0.209166,0.380303 -0.152121,0.380303 9.7928,0.380303 h 9.98295 v 6.75038 6.750376 H 64.317822 c -12.721131,0 -12.911282,0 -13.12045,0.380303 -0.209166,0.380303 -0.15212,0.380303 12.930299,0.380303 H 77.24812 v 5.191134 c 0,4.297422 -0.05705,5.24818 -0.285228,5.590452 -0.418333,0.589469 -24.51052,8.613861 -25.860594,8.613861 -0.722576,0 -3.87909,-0.969772 -13.310601,-4.107272 C 31.00329,64.798379 25.317762,62.858835 25.184656,62.744744 25.01352,62.611638 24.956475,61.261562 24.956475,57.173307 v -5.400301 h 9.31742 c 9.184314,0 9.31742,0 9.31742,-0.380303 0,-0.380303 -0.133106,-0.380303 -9.31742,-0.380303 h -9.31742 v -6.750376 -6.750376 h 8.081435 c 4.449544,0 8.081437,-0.03803 8.081437,-0.07606 0,-0.03803 0.05705,-0.209167 0.114091,-0.380303 0.11409,-0.266212 -0.684546,-0.304242 -8.081437,-0.304242 H 24.956475 V 30.00067 23.250294 h 11.504162 c 6.332042,0 11.504162,-0.03803 11.504162,-0.07606 0,-0.03803 0.05705,-0.209167 0.11409,-0.380303 0.114091,-0.266212 -0.988787,-0.304242 -11.504161,-0.304242 H 24.956475 v -5.400301 c 0,-4.088257 0.05705,-5.438331 0.247196,-5.571438 0.114091,-0.11409 5.799619,-2.0536354 12.588026,-4.3164377 8.65189,-2.8712865 12.60704,-4.1072709 13.215524,-4.1072709 0.58947,0 4.487574,1.2169691 13.215525,4.1072709 z"
     id="path6218"
     style="stroke-width:0.0190151" />
  <path
     d="m 49.143737,26.045512 c -3.479771,7.263785 -6.294013,13.272571 -6.236967,13.310601 0.03803,0.05705 1.33106,-0.171136 2.852272,-0.475378 2.471968,-0.494394 2.77621,-0.51341 2.77621,-0.247197 0,0.171136 -1.026817,5.4003 -2.262802,11.618252 -1.254999,6.217952 -2.243787,11.333026 -2.224772,11.352041 0.01902,0.01902 2.928333,-6.522194 6.446135,-14.52757 3.517801,-8.02439 6.389088,-14.584615 6.351058,-14.622645 -0.01902,-0.01902 -1.312046,0.209166 -2.852272,0.532423 -1.559242,0.304243 -2.852272,0.532425 -2.890301,0.494394 -0.03803,-0.03802 0.969771,-4.639694 2.205756,-10.230146 1.254999,-5.590453 2.243786,-10.230148 2.224771,-10.306209 -0.03802,-0.07606 -2.909316,5.818635 -6.389088,13.101434 z"
     id="path6220"
     style="stroke-width:0.0190151" />
  <path
     d="m 29.71026,15.739304 v 1.235985 h 3.517802 3.517802 V 15.739304 14.50332 H 33.228062 29.71026 Z"
     id="path6222"
     style="stroke-width:0.0190151" />
  <path
     d="m 39.217832,15.739304 v 1.235985 h 5.799619 5.799619 l 0.570454,-1.140909 c 0.304243,-0.627499 0.570455,-1.178939 0.570455,-1.235984 0,-0.05705 -2.871287,-0.09508 -6.370074,-0.09508 h -6.370073 z"
     id="path6224"
     style="stroke-width:0.0190151" />
  <path
     d="m 57.491385,15.454078 c -0.342272,1.578257 -0.399317,1.521211 1.407121,1.521211 h 1.616287 V 15.739304 14.50332 h -1.40712 -1.407121 z"
     id="path6226"
     style="stroke-width:0.0190151" />
  <path
     d="m 62.986762,15.739304 v 1.235985 l 4.715756,-0.03802 4.69674,-0.05705 v -1.140913 -1.140908 l -4.69674,-0.05705 -4.715756,-0.03803 z"
     id="path6228"
     style="stroke-width:0.0190151" />
  <path
     d="m 29.71026,30.000662 v 1.235984 h 7.130679 7.130679 l 0.570454,-1.140907 c 0.304242,-0.6275 0.570455,-1.17894 0.570455,-1.235985 0,-0.05705 -3.460756,-0.09508 -7.701133,-0.09508 H 29.71026 Z"
     id="path6230"
     style="stroke-width:0.0190151" />
  <path
     d="m 54.525023,28.99286 c -0.190152,0.570454 -0.475379,1.787423 -0.475379,1.99659 0,0.190151 1.255,0.247196 5.609468,0.247196 h 5.609467 v -1.235984 -1.235984 h -5.32424 c -4.107271,0 -5.362271,0.05705 -5.419316,0.228182 z"
     id="path6232"
     style="stroke-width:0.0190151" />
  <path
     d="m 67.740548,30.000662 v 1.255 l 2.338862,-0.05705 2.319848,-0.05705 v -1.140909 -1.140908 l -2.319848,-0.05705 -2.338862,-0.05705 z"
     id="path6234"
     style="stroke-width:0.0190151" />
  <path
     d="m 29.71026,44.26202 v 1.235984 l 4.715755,-0.03802 4.696742,-0.05705 v -1.140908 -1.140909 l -4.696742,-0.05705 -4.715755,-0.03803 z"
     id="path6236"
     style="stroke-width:0.0190151" />
  <path
     d="m 41.49965,44.26202 v 1.254999 l 1.654317,-0.05705 1.654317,-0.05705 0.228182,-1.083863 c 0.114091,-0.608485 0.171136,-1.140909 0.114091,-1.197954 -0.05705,-0.05705 -0.893711,-0.09507 -1.8825,-0.09507 H 41.49965 Z"
     id="path6238"
     style="stroke-width:0.0190151" />
  <path
     d="m 54.429947,44.014823 c -0.228181,0.55144 -0.456364,1.121894 -0.513409,1.254999 -0.07606,0.190152 1.787424,0.228182 9.184315,0.190152 l 9.298405,-0.05705 v -1.140908 -1.140909 l -8.765981,-0.05705 -8.765981,-0.03803 z"
     id="path6240"
     style="stroke-width:0.0190151" />
  <path
     d="m 29.71026,58.523378 v 1.235984 l 6.122877,-0.03803 6.122876,-0.05705 0.152121,-0.760607 c 0.07606,-0.418333 0.190151,-0.950757 0.247197,-1.197954 l 0.09508,-0.418333 H 36.080334 29.71026 Z"
     id="path6242"
     style="stroke-width:0.0190151" />
  <path
     d="m 48.15495,58.276181 c -0.228182,0.551439 -0.456364,1.121894 -0.513409,1.255 -0.07606,0.190151 2.414923,0.228181 12.321813,0.190151 l 12.435904,-0.05705 v -1.140909 -1.140909 l -11.90348,-0.05705 -11.90348,-0.03803 z"
     id="path6244"
     style="stroke-width:0.0190151" />
  <path
     d="m 27.618595,88.814502 c -0.874698,0.456363 -1.388106,1.426136 -1.255,2.395908 0.133106,1.083863 0.74159,1.597272 2.490984,2.034621 0.836666,0.209166 1.654318,0.475378 1.844469,0.570453 0.513409,0.266213 0.437349,1.064849 -0.133106,1.426137 -0.855682,0.570454 -2.757196,0 -2.757196,-0.817652 0,-0.171136 -0.266212,-0.247197 -0.836666,-0.247197 -0.798636,0 -0.817651,0.01902 -0.722576,0.51341 0.266212,1.44515 1.692347,2.281816 3.650908,2.091665 1.863483,-0.171136 2.966362,-1.216969 2.776211,-2.681135 -0.133107,-1.121894 -0.760606,-1.616287 -2.719166,-2.129696 -2.072651,-0.551439 -2.529014,-1.026817 -1.768408,-1.787424 0.551439,-0.551439 1.597272,-0.513409 2.186741,0.09508 0.266212,0.247197 0.475379,0.551439 0.475379,0.665531 0,0.09507 0.342273,0.19015 0.760606,0.19015 0.646514,0 0.760605,-0.05705 0.760605,-0.380302 0,-0.703561 -0.570454,-1.502197 -1.33106,-1.901515 -0.950756,-0.494393 -2.529013,-0.513408 -3.422725,-0.03803 z"
     id="path6270"
     style="stroke-width:0.0190151" />
  <path
     d="m 42.792679,90.925183 c -0.570454,0.285227 -0.722575,0.304242 -0.722575,0.09508 0,-0.190152 -0.228181,-0.266212 -0.760606,-0.266212 h -0.760606 v 2.947347 2.947348 h 0.760606 0.760606 v -2.072651 c 0,-1.939545 0.03803,-2.110681 0.418333,-2.376893 0.551439,-0.380304 0.646515,-0.380304 1.102878,0.07606 0.323258,0.323257 0.380303,0.6275 0.380303,2.376893 v 1.996591 h 0.760606 0.760605 v -1.996591 c 0,-1.749393 0.05705,-2.053636 0.380303,-2.376893 0.988789,-0.988787 1.521212,-0.171136 1.521212,2.414924 v 1.95856 h 0.760606 0.760606 v -2.262802 c 0,-2.700151 -0.133107,-3.17553 -1.064849,-3.555833 -0.817651,-0.342273 -1.502196,-0.228181 -2.11068,0.342273 l -0.418334,0.399317 -0.342272,-0.399317 C 44.466012,90.582907 43.629345,90.48783 42.792679,90.92518 Z"
     id="path6358"
     style="stroke-width:0.0190151" />
  <path
     d="m 52.680554,90.925183 c -0.570455,0.285227 -0.722575,0.304242 -0.722575,0.09508 0,-0.190152 -0.228182,-0.266212 -0.760607,-0.266212 h -0.760605 v 2.947347 2.947348 h 0.760605 0.760607 v -2.072651 c 0,-1.939545 0.03802,-2.110681 0.418333,-2.376893 0.551439,-0.380304 0.646515,-0.380304 1.102878,0.07606 0.323257,0.323257 0.380303,0.6275 0.380303,2.376893 v 1.996591 h 0.760606 0.760605 v -1.996591 c 0,-1.749393 0.05705,-2.053636 0.380304,-2.376893 0.988787,-0.988787 1.521211,-0.171136 1.521211,2.414924 v 1.95856 h 0.760605 0.760606 v -2.262802 c 0,-2.700151 -0.133105,-3.17553 -1.064848,-3.555833 -0.817651,-0.342273 -1.502196,-0.228181 -2.110681,0.342273 l -0.418333,0.399317 -0.342272,-0.399317 C 54.353887,90.582907 53.517221,90.48783 52.680554,90.92518 Z"
     id="path6360"
     style="stroke-width:0.0190151" />
  <path
     d="m 61.351459,90.830107 c -0.665529,0.285228 -1.216969,0.969773 -1.216969,1.483181 0,0.51341 1.350075,0.475379 1.673333,-0.03803 0.285227,-0.475378 1.502196,-0.532424 1.673332,-0.09507 0.190152,0.494394 -0.266211,0.798636 -1.388105,0.950757 -1.388106,0.171136 -2.148711,0.855681 -2.148711,1.939545 0.01902,1.559242 1.559242,2.262802 3.004393,1.388105 0.532423,-0.323257 0.6275,-0.342272 0.722575,-0.09508 0.07606,0.190151 0.380303,0.285227 0.988788,0.285227 0.684545,0 0.817651,-0.05705 0.646514,-0.228182 -0.152121,-0.152121 -0.228181,-0.988787 -0.228181,-2.471968 0,-2.529015 -0.133106,-2.814242 -1.464166,-3.17553 -0.950757,-0.266211 -1.540227,-0.247197 -2.262803,0.05705 z m 2.015605,4.126286 c -0.361287,0.836667 -1.540226,1.007804 -1.844468,0.247197 -0.190151,-0.513408 0.209166,-0.912727 1.102878,-1.121893 0.969772,-0.247197 1.121894,-0.05705 0.74159,0.874696 z"
     id="path6362"
     style="stroke-width:0.0190151" />
  <path
     d="m 68.74835,90.849122 c -0.342272,0.152122 -0.627499,0.361288 -0.627499,0.475379 0,0.09508 -0.07606,0.190151 -0.190151,0.190151 -0.09508,0 -0.190152,-0.171136 -0.190152,-0.380303 0,-0.304242 -0.133106,-0.380302 -0.66553,-0.380302 h -0.66553 v 2.947347 2.947348 h 0.760605 0.760607 v -1.768409 c 0,-2.03462 0.209166,-2.490984 1.235983,-2.681135 0.627501,-0.133106 0.665531,-0.171136 0.665531,-0.874697 0,-0.836667 -0.133106,-0.893712 -1.083864,-0.475379 z"
     id="path6364"
     style="stroke-width:0.0190151" />
  <path
     d="m 33.893592,93.016849 c 0,1.254999 0.07606,2.490984 0.190151,2.776211 0.399318,1.045832 2.262802,1.254999 3.25159,0.361287 0.342273,-0.304242 0.361288,-0.304242 0.361288,0.07606 0,0.361288 0.11409,0.418334 0.760606,0.418334 h 0.760605 V 93.701397 90.75405 H 38.36215 37.506469 v 2.053635 c 0,1.768409 -0.05705,2.110681 -0.342272,2.376894 -0.399319,0.361287 -0.855682,0.399317 -1.388106,0.133105 -0.323257,-0.190151 -0.361287,-0.418333 -0.361287,-2.376893 V 90.75405 h -0.760606 -0.760606 z"
     id="path6498"
     style="stroke-width:0.0190151" />
  <path
     d="m 70.212516,90.868137 c 0,0.05705 0.475379,1.445151 1.045834,3.09947 0.855681,2.395907 1.026817,3.042422 0.874696,3.384695 -0.133106,0.285226 -0.361288,0.437348 -0.684545,0.437348 -0.399318,0 -0.475379,0.09508 -0.475379,0.570454 0,0.323258 0.114091,0.6275 0.266212,0.684546 0.456364,0.171135 1.806439,-0.304243 2.034621,-0.703561 0.228181,-0.437348 2.643105,-7.225754 2.643105,-7.453936 0,-0.09508 -0.361287,-0.133106 -0.798636,-0.09508 l -0.798637,0.05705 -0.570454,2.053635 c -0.304242,1.121894 -0.627499,1.939545 -0.684545,1.806439 -0.07606,-0.133106 -0.380303,-1.083863 -0.66553,-2.110682 l -0.532424,-1.844468 h -0.836666 c -0.437348,0 -0.817652,0.05705 -0.817652,0.11409 z"
     id="path6500"
     style="stroke-width:0.0190151" />
</svg>
