<?xml version="1.0" encoding="UTF-8" standalone="no"?>
<!-- Created with Inkscape (http://www.inkscape.org/) -->

<svg
   width="100mm"
   height="100mm"
   viewBox="0 0 100 100"
   version="1.1"
   id="svg26768"
   sodipodi:docname="summaries.svg"
   inkscape:version="1.2.1 (9c6d41e410, 2022-07-14)"
   xmlns:inkscape="http://www.inkscape.org/namespaces/inkscape"
   xmlns:sodipodi="http://sodipodi.sourceforge.net/DTD/sodipodi-0.dtd"
   xmlns="http://www.w3.org/2000/svg"
   xmlns:svg="http://www.w3.org/2000/svg">
  <sodipodi:namedview
     id="namedview12294"
     pagecolor="#ffffff"
     bordercolor="#666666"
     borderopacity="1.0"
     inkscape:showpageshadow="2"
     inkscape:pageopacity="0.0"
     inkscape:pagecheckerboard="0"
     inkscape:deskcolor="#d1d1d1"
     inkscape:document-units="mm"
     showgrid="false"
     inkscape:zoom="0.77548253"
     inkscape:cx="588.02098"
     inkscape:cy="-11.605677"
     inkscape:window-width="1920"
     inkscape:window-height="1009"
     inkscape:window-x="1912"
     inkscape:window-y="-8"
     inkscape:window-maximized="1"
     inkscape:current-layer="svg26768" />
  <defs
     id="defs26765" />
  <path
     d="M 51.626333,1.5646402 C 51.430647,1.6179672 46.075955,3.3791927 39.707252,5.4961593 32.413486,7.9155498 27.930489,9.4988324 27.556906,9.7656792 26.614053,10.477267 26.382787,11.099904 26.276049,13.270245 l -0.08895,1.939074 -1.369804,0.462532 c -0.800536,0.266845 -1.583282,0.676008 -1.903496,0.978432 -1.156329,1.120749 -1.085169,-0.729376 -1.085169,25.528179 0,26.11524 -0.07116,24.478591 1.067379,25.58155 0.533691,0.515901 1.956865,1.0318 12.363823,4.500787 11.581077,3.860359 11.776763,3.913728 13.253306,3.913728 1.476543,0 1.672229,-0.05336 13.075409,-3.842568 6.350914,-2.116972 11.847922,-4.038257 12.203715,-4.251733 1.049591,-0.676007 1.405385,-1.654439 1.405385,-3.75362 v -1.778968 l 1.476543,-0.480321 c 1.5477,-0.498111 2.13476,-0.960642 2.68624,-2.028023 0.249055,-0.5159 0.284635,-2.828558 0.284635,-24.460799 0,-22.948678 -0.01779,-23.927109 -0.338004,-24.620909 C 79.129163,10.548422 78.70221,10.014738 78.381995,9.7834677 77.990623,9.4810439 73.703312,7.9689249 66.124912,5.4605823 56.055957,2.0983338 54.312569,1.5646402 53.227399,1.5290631 52.551392,1.4934476 51.822015,1.5112554 51.626329,1.5645824 Z M 65.413329,7.5241834 C 74.290375,10.477267 76.79872,11.36675 77.118933,11.704751 l 0.391373,0.444742 v 23.286684 c 0,17.042507 -0.05337,23.41121 -0.195687,23.731424 -0.177896,0.391372 -1.387594,0.996221 -1.974653,0.996221 -0.07115,0 -0.142318,-9.410737 -0.142318,-20.902866 0,-22.877518 0.07115,-21.525503 -1.06738,-22.628463 -0.5159,-0.49811 -1.992443,-1.031801 -12.346033,-4.500789 C 50.381056,8.3425027 49.971893,8.2179736 48.602089,8.2179736 c -1.369805,0 -1.778968,0.1245291 -10.727173,3.0954114 l -9.286209,3.0954 v -1.298647 c 0,-0.978434 0.07115,-1.352012 0.284634,-1.529916 C 29.033448,11.437904 34.228033,9.6411501 40.401049,7.5597604 50.594531,4.1441464 51.73307,3.806136 52.87161,3.7883571 c 1.156328,-0.017808 1.992443,0.2312602 12.541719,3.7358263 z m -4.536367,6.6711246 c 7.951983,2.632872 11.652236,3.949308 11.883502,4.198363 0.266845,0.320215 0.302423,0.853904 0.302423,5.230164 v 4.87437 h -9.962216 c -5.479219,0 -9.962216,0.03558 -9.962216,0.07116 0,0.03558 -0.05337,0.195686 -0.106738,0.355793 -0.08895,0.249056 0.889484,0.284634 9.908847,0.320213 l 10.033375,0.05337 0.05337,6.261965 0.03558,6.279755 h -9.161683 c -8.948205,0 -9.161681,0 -9.339578,0.355793 -0.195687,0.355793 -0.106738,0.355793 9.108312,0.391372 l 9.303998,0.05337 0.05337,6.261965 0.03558,6.279753 H 60.965895 c -11.883501,0 -12.079187,0 -12.274874,0.355794 -0.195686,0.355794 -0.106738,0.355794 12.043609,0.391374 l 12.239294,0.05336 0.05336,4.821001 c 0.03558,4.394049 0.01779,4.856581 -0.266845,5.194585 -0.462532,0.5159 -23.144363,8.040932 -24.247324,8.040932 -0.569268,0 -4.162783,-1.12075 -12.363822,-3.842569 -6.350908,-2.116971 -11.67002,-3.931517 -11.776758,-4.038255 -0.177897,-0.124528 -0.231266,-1.387595 -0.231266,-5.212374 v -5.052261 h 8.716939 c 8.592413,0 8.71694,0 8.71694,-0.355794 0,-0.355794 -0.124527,-0.355794 -8.71694,-0.355794 H 24.141269 V 48.86738 42.552046 h 7.560612 c 4.162783,0 7.56061,-0.03559 7.56061,-0.07116 0,-0.03558 0.05337,-0.195686 0.106738,-0.355793 0.106738,-0.249055 -0.640429,-0.284634 -7.560611,-0.284634 H 24.141269 V 35.52512 29.209787 h 10.762752 c 5.923961,0 10.762752,-0.03558 10.762752,-0.07116 0,-0.03558 0.05337,-0.195686 0.106738,-0.355793 C 45.880249,28.533779 44.848448,28.4982 35.01076,28.4982 H 24.141269 v -5.052267 c 0,-3.824781 0.05337,-5.087847 0.231266,-5.212374 0.106738,-0.106738 5.42585,-1.921286 11.776763,-4.038256 8.094301,-2.686241 11.794554,-3.84257 12.363822,-3.84257 0.55148,0 4.198363,1.138541 12.363823,3.84257 z"
     id="path6180"
     style="stroke-width:0.0177897" />
  <path
     d="m 46.769752,31.807085 c -3.25551,6.813443 -5.888382,12.434981 -5.835013,12.47056 0.03558,0.05336 1.245278,-0.160108 2.668451,-0.444742 2.312658,-0.462532 2.597292,-0.480321 2.597292,-0.231266 0,0.160107 -0.960642,5.052267 -2.11697,10.86949 -1.174119,5.817223 -2.099182,10.602645 -2.081392,10.620434 0.01779,0.01779 2.721819,-6.101858 6.030699,-13.59131 3.291089,-7.507242 5.97733,-13.662468 5.94175,-13.680258 -0.01779,-0.01779 -1.227487,0.195686 -2.668451,0.498111 -1.458753,0.284635 -2.66845,0.498111 -2.704029,0.462531 -0.03559,-0.03558 0.907272,-4.34068 2.063601,-9.570843 1.174118,-5.230164 2.099181,-9.570844 2.063602,-9.659793 -0.01779,-0.07115 -2.70403,5.44364 -5.95954,12.257086 z"
     id="path6182"
     style="stroke-width:0.0177897" />
  <path
     d="M 28.588707,22.182872 V 23.3392 h 3.291088 3.29109 v -1.156328 -1.15633 h -3.29109 -3.291088 z"
     id="path6184"
     style="stroke-width:0.0177897" />
  <path
     d="M 37.483543,22.182872 V 23.3392 h 5.42585 5.42585 l 0.53369,-1.06738 c 0.284635,-0.58706 0.53369,-1.10296 0.53369,-1.156329 0,-0.05336 -2.68624,-0.08895 -5.95954,-0.08895 h -5.95954 z"
     id="path6186"
     style="stroke-width:0.0177897" />
  <path
     d="m 54.579419,21.809288 c -0.391374,1.547701 -0.391374,1.529912 1.316435,1.529912 h 1.512122 v -1.156328 -1.15633 h -1.316435 -1.316436 z"
     id="path6188"
     style="stroke-width:0.0177897" />
  <path
     d="M 59.720633,22.182872 V 23.3392 l 4.41184,-0.03558 4.394049,-0.05337 v -1.06738 -1.067381 l -4.394049,-0.05336 -4.41184,-0.03558 z"
     id="path6190"
     style="stroke-width:0.0177897" />
  <path
     d="m 28.588707,35.525125 v 1.156329 h 6.671126 6.671128 l 0.53369,-1.06738 c 0.284635,-0.58706 0.533691,-1.10296 0.533691,-1.156328 0,-0.05337 -3.237721,-0.08895 -7.204818,-0.08895 h -7.204817 z"
     id="path6192"
     style="stroke-width:0.0177897" />
  <path
     d="m 51.804229,34.582273 c -0.177896,0.533691 -0.444742,1.672229 -0.444742,1.867915 0,0.177898 1.174119,0.231266 5.247954,0.231266 h 5.247953 v -1.156329 -1.156329 h -4.981108 c -3.842569,0 -5.016688,0.05337 -5.070057,0.213477 z"
     id="path6194"
     style="stroke-width:0.0177897" />
  <path
     d="m 64.168051,35.525125 v 1.174118 l 2.18813,-0.05336 2.170341,-0.05337 v -1.06738 -1.06738 l -2.170341,-0.05336 -2.18813,-0.05337 z"
     id="path6196"
     style="stroke-width:0.0177897" />
  <path
     d="m 28.588707,48.86738 v 1.156328 l 4.411838,-0.03559 4.394049,-0.05337 v -1.067379 -1.067381 l -4.394049,-0.05336 -4.411838,-0.03558 z"
     id="path6198"
     style="stroke-width:0.0177897" />
  <path
     d="m 39.618304,48.86738 v 1.174118 l 1.5477,-0.05337 1.547702,-0.05336 0.213477,-1.014011 c 0.106738,-0.56927 0.160107,-1.067381 0.106738,-1.12075 -0.05337,-0.05337 -0.836115,-0.08895 -1.761178,-0.08895 h -1.654439 z"
     id="path6200"
     style="stroke-width:0.0177897" />
  <path
     d="m 51.644122,48.796222 c -0.249055,0.587058 -0.462531,1.102959 -0.462531,1.156328 0,0.03558 3.895938,0.05336 8.68136,0.03558 l 8.663571,-0.05337 V 48.867381 47.8 l -8.201039,-0.05338 -8.20104,-0.03558 z"
     id="path6202"
     style="stroke-width:0.0177897" />
  <path
     d="m 28.588707,62.209634 v 1.156329 l 5.728274,-0.03559 5.728275,-0.05336 0.213476,-1.014011 c 0.106738,-0.56927 0.160107,-1.067381 0.106738,-1.120749 -0.05337,-0.05337 -2.72182,-0.08895 -5.941751,-0.08895 h -5.835012 z"
     id="path6204"
     style="stroke-width:0.0177897" />
  <path
     d="m 45.77353,62.138475 c -0.249055,0.587059 -0.462532,1.102961 -0.462532,1.156329 0,0.03559 5.230165,0.05337 11.616657,0.03559 l 11.598867,-0.05338 v -1.06738 -1.06738 l -11.136336,-0.05337 -11.136335,-0.03558 z"
     id="path6206"
     style="stroke-width:0.0177897" />
  <path
     d="m 24.497082,90.548582 c -0.818325,0.426952 -1.298646,1.334226 -1.174119,2.241499 0.124528,1.014011 0.693798,1.494333 2.330447,1.903495 0.782746,0.195687 1.547702,0.444742 1.725599,0.53369 0.480321,0.249055 0.409162,0.996223 -0.124528,1.334226 -0.800535,0.53369 -2.579503,0 -2.579503,-0.764956 0,-0.160108 -0.249055,-0.231265 -0.782745,-0.231265 -0.747166,0 -0.764956,0.01779 -0.676008,0.48032 0.249056,1.352016 1.583281,2.134761 3.415617,1.956864 1.743388,-0.160107 2.77519,-1.138539 2.597293,-2.508343 -0.124528,-1.049591 -0.711587,-1.512122 -2.543923,-1.992444 -1.939074,-0.515901 -2.366027,-0.960642 -1.65444,-1.67223 0.5159,-0.5159 1.494333,-0.48032 2.045813,0.08895 0.249055,0.231266 0.444741,0.515901 0.444741,0.622639 0,0.08895 0.320214,0.177896 0.711587,0.177896 0.604849,0 0.711587,-0.05336 0.711587,-0.355793 0,-0.658218 -0.53369,-1.405384 -1.245277,-1.778967 -0.889484,-0.462532 -2.366027,-0.480321 -3.202141,-0.03558 z"
     id="path6272"
     style="stroke-width:0.0177897" />
  <path
     d="m 64.879639,91.028904 c 0,0.604848 0.01779,0.622639 0.711586,0.622639 0.693798,0 0.711587,-0.01779 0.711587,-0.622639 0,-0.604849 -0.01779,-0.622639 -0.711587,-0.622639 -0.693797,0 -0.711586,0.01779 -0.711586,0.622639 z"
     id="path6300"
     style="stroke-width:0.0177897" />
  <path
     d="m 38.693241,92.523236 c -0.53369,0.266845 -0.676009,0.284635 -0.676009,0.08895 0,-0.177896 -0.213475,-0.249055 -0.711586,-0.249055 h -0.711587 v 2.757399 2.7574 h 0.711587 0.711586 v -1.939075 c 0,-1.814547 0.03558,-1.974654 0.391374,-2.223709 0.5159,-0.355793 0.604849,-0.355793 1.031801,0.07115 0.302424,0.302425 0.355793,0.587059 0.355793,2.223709 v 1.867916 h 0.711587 0.711587 v -1.867916 c 0,-1.63665 0.05336,-1.921284 0.355793,-2.223709 0.925064,-0.925063 1.423175,-0.160107 1.423175,2.259288 v 1.832337 h 0.711586 0.711587 V 95.76095 c 0,-2.526134 -0.124528,-2.970876 -0.996221,-3.326669 -0.764956,-0.320214 -1.405385,-0.213476 -1.974654,0.320214 l -0.391373,0.373583 -0.320214,-0.373583 c -0.480321,-0.55148 -1.263067,-0.640428 -2.045812,-0.231265 z"
     id="path6366"
     style="stroke-width:0.0177897" />
  <path
     d="m 47.943871,92.523236 c -0.533691,0.266845 -0.676009,0.284635 -0.676009,0.08895 0,-0.177896 -0.213475,-0.249055 -0.711586,-0.249055 h -0.711587 v 2.757399 2.7574 h 0.711587 0.711586 v -1.939075 c 0,-1.814547 0.03558,-1.974654 0.391374,-2.223709 0.5159,-0.355793 0.604848,-0.355793 1.0318,0.07115 0.302425,0.302425 0.355794,0.587059 0.355794,2.223709 v 1.867916 h 0.711587 0.711587 v -1.867916 c 0,-1.63665 0.05336,-1.921284 0.355793,-2.223709 0.925064,-0.925063 1.423174,-0.160107 1.423174,2.259288 v 1.832337 h 0.711587 0.711587 V 95.76095 c 0,-2.526134 -0.124528,-2.970876 -0.996222,-3.326669 -0.764956,-0.320214 -1.405384,-0.213476 -1.974653,0.320214 l -0.391373,0.373583 -0.320214,-0.373583 c -0.480322,-0.55148 -1.263067,-0.640428 -2.045812,-0.231265 z"
     id="path6368"
     style="stroke-width:0.0177897" />
  <path
     d="m 56.055961,92.434288 c -0.622638,0.266845 -1.13854,0.907273 -1.13854,1.387595 0,0.48032 1.263068,0.444741 1.565492,-0.03559 0.266846,-0.444741 1.405384,-0.498111 1.565491,-0.08895 0.177897,0.462532 -0.249055,0.747166 -1.298645,0.889484 -1.298647,0.160106 -2.010233,0.800534 -2.010233,1.814547 0.01779,1.458752 1.458752,2.11697 2.810767,1.298645 0.498111,-0.302424 0.58706,-0.320213 0.676008,-0.08895 0.07115,0.177896 0.355794,0.266846 0.925063,0.266846 0.640428,0 0.764956,-0.05337 0.604849,-0.213477 -0.142318,-0.142317 -0.213477,-0.925063 -0.213477,-2.312657 0,-2.366027 -0.124527,-2.632872 -1.369804,-2.970876 -0.889484,-0.249055 -1.440964,-0.231266 -2.116971,0.05337 z m 1.885705,3.860358 c -0.338003,0.782746 -1.440963,0.942854 -1.725598,0.231266 -0.177897,-0.480321 0.195687,-0.853904 1.031801,-1.049591 0.907273,-0.231265 1.04959,-0.05336 0.693797,0.818325 z"
     id="path6370"
     style="stroke-width:0.0177897" />
  <path
     d="m 62.976144,92.452077 c -0.320214,0.142318 -0.587059,0.338004 -0.587059,0.444742 0,0.08895 -0.07116,0.177897 -0.177898,0.177897 -0.08895,0 -0.177896,-0.160107 -0.177896,-0.355794 0,-0.284634 -0.124528,-0.355793 -0.622638,-0.355793 h -0.62264 v 2.757399 2.7574 h 0.711588 0.711586 v -1.654439 c 0,-1.903495 0.195687,-2.330447 1.156329,-2.508345 0.587059,-0.124527 0.622639,-0.160107 0.622639,-0.818325 0,-0.782745 -0.124528,-0.836114 -1.014011,-0.444742 z"
     id="path6372"
     style="stroke-width:0.0177897" />
  <path
     d="m 68.704418,92.541026 c -0.409162,0.195686 -0.871694,0.604848 -1.06738,0.925063 -0.426952,0.747166 -0.444742,2.490554 -0.03558,3.291089 0.55148,1.031802 2.366027,1.61886 3.380038,1.10296 0.569269,-0.302424 1.369805,-1.08517 1.369805,-1.352015 0,-0.338004 -1.316436,-0.302425 -1.60107,0.03558 -0.515901,0.622638 -1.956865,0.124528 -1.956865,-0.676009 0,-0.266843 0.249056,-0.302423 1.885705,-0.302423 h 1.903496 l -0.124528,-0.836115 c -0.142318,-1.08517 -0.587059,-1.796757 -1.352015,-2.20592 -0.800536,-0.426952 -1.512122,-0.426952 -2.401606,0.01779 z m 1.903495,1.191908 c 0.604849,0.55148 0.409163,0.764956 -0.747166,0.764956 -0.587059,0 -1.06738,-0.05336 -1.06738,-0.142318 0,-0.07116 0.124527,-0.320214 0.284634,-0.533689 0.320214,-0.462532 1.06738,-0.515902 1.529912,-0.08895 z"
     id="path6374"
     style="stroke-width:0.0177897" />
  <path
     d="m 74.717328,92.380919 c -1.191909,0.338003 -1.707809,1.850126 -0.889484,2.597291 0.213476,0.213477 0.871694,0.515902 1.458753,0.676009 0.587059,0.177896 1.191908,0.426952 1.334225,0.56927 0.231266,0.231264 0.231266,0.284634 -0.07115,0.5159 -0.5159,0.373582 -1.138538,0.302424 -1.636649,-0.195687 -0.55148,-0.56927 -1.672229,-0.640428 -1.672229,-0.106738 0,0.5159 0.658218,1.209697 1.369804,1.458754 0.373583,0.124527 1.049591,0.160106 1.63665,0.106737 0.818324,-0.08895 1.08517,-0.195687 1.494333,-0.658218 1.04959,-1.174118 0.373583,-2.419395 -1.565492,-2.864136 -1.191908,-0.266846 -1.565491,-0.622639 -1.06738,-0.996222 0.409162,-0.284635 1.138539,-0.177898 1.440963,0.231265 0.249056,0.320214 1.494332,0.338004 1.494332,0.01779 0,-0.409162 -0.569269,-1.049591 -1.174118,-1.298646 -0.658218,-0.284635 -1.316436,-0.302425 -2.152549,-0.05336 z"
     id="path6376"
     style="stroke-width:0.0177897" />
  <path
     d="m 30.367674,94.480101 c 0,1.174118 0.07116,2.330447 0.177897,2.597291 0.373583,0.978432 2.116971,1.174119 3.042033,0.338004 0.320215,-0.284634 0.338004,-0.284634 0.338004,0.07116 0,0.338004 0.106739,0.391373 0.711587,0.391373 h 0.711587 v -2.7574 -2.757399 h -0.800535 -0.800535 v 1.921284 c 0,1.65444 -0.05337,1.974654 -0.320215,2.22371 -0.373582,0.338003 -0.800534,0.373583 -1.298646,0.124527 -0.302424,-0.177897 -0.338004,-0.391372 -0.338004,-2.223709 V 92.36313 h -0.711586 -0.711587 z"
     id="path6502"
     style="stroke-width:0.0177897" />
  <path
     d="m 64.879639,95.120528 v 2.7574 h 0.711586 0.711587 v -2.7574 -2.757399 h -0.711587 -0.711586 z"
     id="path6504"
     style="stroke-width:0.0177897" />
</svg>
