<?xml version="1.0" encoding="UTF-8" standalone="no"?>
<!-- Created with Inkscape (http://www.inkscape.org/) -->

<svg
   width="100mm"
   height="100mm"
   viewBox="0 0 100 100"
   version="1.1"
   id="svg26768"
   sodipodi:docname="system.svg"
   inkscape:version="1.1.1 (3bf5ae0d25, 2021-09-20)"
   xmlns:inkscape="http://www.inkscape.org/namespaces/inkscape"
   xmlns:sodipodi="http://sodipodi.sourceforge.net/DTD/sodipodi-0.dtd"
   xmlns="http://www.w3.org/2000/svg"
   xmlns:svg="http://www.w3.org/2000/svg">
  <sodipodi:namedview
     id="namedview26770"
     pagecolor="#ffffff"
     bordercolor="#666666"
     borderopacity="1.0"
     inkscape:pageshadow="2"
     inkscape:pageopacity="0.0"
     inkscape:pagecheckerboard="0"
     inkscape:document-units="mm"
     showgrid="false"
     width="209mm"
     inkscape:zoom="0.7500982"
     inkscape:cx="13.998167"
     inkscape:cy="241.96832"
     inkscape:window-width="1920"
     inkscape:window-height="1027"
     inkscape:window-x="1912"
     inkscape:window-y="-8"
     inkscape:window-maximized="1"
     inkscape:current-layer="layer1" />
  <defs
     id="defs26765" />
  <g
     inkscape:label="Layer 1"
     inkscape:groupmode="layer"
     id="layer1">
    <path
       d="M 27.77372,2.6317511 C 25.752773,3.2717183 24.42233,4.6863797 23.900249,6.7073122 23.664477,7.6167476 23.647636,11.237591 23.681318,39.716011 l 0.05046,31.981391 0.555763,1.128366 c 0.656794,1.347284 1.717797,2.340924 2.997717,2.829309 0.909435,0.336831 1.19573,0.336831 24.823894,0.336831 23.628164,0 23.914473,0 24.823895,-0.336831 1.27992,-0.488385 2.340923,-1.482025 2.997717,-2.829309 l 0.555763,-1.128366 0.05047,-31.981391 C 80.570736,11.271273 80.553866,7.6167476 80.318066,6.7073122 79.863348,4.9558335 78.836041,3.7095952 77.202448,2.9180601 L 76.276186,2.4801833 52.361713,2.4464444 C 33.398555,2.429575 28.312527,2.4633139 27.773605,2.6316939 Z m 48.670989,2.2398781 c 0.842058,0.4547177 1.347298,0.9767846 1.684116,1.7683196 0.218931,0.5557628 0.252627,3.4019262 0.252627,25.2617712 v 24.638631 l -0.471559,1.010466 c -0.555763,1.145207 -1.549388,2.138833 -2.711422,2.677755 L 74.423777,60.58223 H 52.109214 29.794666 L 29.019972,60.228572 C 27.942128,59.723331 26.914821,58.746547 26.375899,57.736081 L 25.921196,56.877168 25.87073,32.204856 c -0.03374,-17.21168 0,-24.8575766 0.13467,-25.2954391 0.319977,-1.1283666 1.330443,-2.0209468 2.610377,-2.3409233 0.286295,-0.067335 10.997286,-0.1010738 23.830269,-0.1010738 L 75.77106,4.5011588 Z M 27.38638,60.060149 c 0.319976,0.235786 0.943103,0.606285 1.414647,0.80839 l 0.825217,0.38734 h 22.48297 22.482971 l 0.825217,-0.38734 c 1.111512,-0.50524 1.869365,-1.094685 2.47565,-1.936743 l 0.505241,-0.690489 -0.05061,6.736475 -0.05047,6.753302 -0.4884,0.690489 c -0.303149,0.437877 -0.791535,0.858899 -1.330457,1.128367 l -0.858898,0.421022 H 52.126027 c -22.449289,0 -23.54396,-0.01687 -24.183927,-0.319977 -0.825217,-0.370513 -1.566229,-1.094685 -1.869365,-1.818856 -0.18525,-0.421022 -0.235772,-1.936728 -0.235772,-7.056452 v -6.517529 l 0.488385,0.673648 c 0.269468,0.387355 0.757853,0.892581 1.061003,1.128353 z"
       id="path6165"
       style="stroke-width:0.0168412" />
    <path
       d="m 31.293532,65.718794 c -0.185264,0.06733 -0.555763,0.370499 -0.791535,0.673649 -0.656808,0.774694 -0.639967,1.818842 0.06733,2.559855 0.353658,0.38734 0.454703,0.437862 0.336817,0.185249 -0.319976,-0.639967 -0.218931,-1.229397 0.319977,-1.768319 0.437877,-0.421036 0.606285,-0.4884 1.061003,-0.404195 0.303136,0.06733 0.69049,0.252627 0.858898,0.437876 0.437863,0.437877 0.437863,1.38098 0.01687,1.869365 -0.336817,0.370514 -0.336817,0.370514 0.03374,0.168423 0.875739,-0.454718 1.246252,-1.616766 0.825217,-2.59355 -0.421022,-1.027308 -1.684116,-1.549389 -2.728264,-1.128353 z"
       id="path6167"
       style="stroke-width:0.0168412" />
    <path
       d="m 36.278514,89.599571 c -0.774694,0.404195 -1.229412,1.263094 -1.111525,2.121992 0.117943,0.959944 0.656808,1.414662 2.206196,1.802002 0.741012,0.185264 1.465184,0.421036 1.633593,0.50524 0.454717,0.235772 0.387354,0.943103 -0.117944,1.263079 -0.757853,0.505241 -2.441968,0 -2.441968,-0.724171 0,-0.151568 -0.235772,-0.218932 -0.741013,-0.218932 -0.70733,0 -0.724171,0.01687 -0.639967,0.454718 0.235787,1.27992 1.498866,2.020947 3.233504,1.852524 1.650447,-0.151568 2.627232,-1.07783 2.458823,-2.374605 -0.117943,-0.993625 -0.673649,-1.431502 -2.408286,-1.886206 -1.835698,-0.488399 -2.239879,-0.909421 -1.56623,-1.58307 0.488386,-0.488399 1.414647,-0.454717 1.936729,0.08421 0.235772,0.218931 0.421036,0.488385 0.421036,0.589444 0,0.0842 0.303135,0.168409 0.673634,0.168409 0.572604,0 0.673649,-0.05047 0.673649,-0.336832 0,-0.623126 -0.505226,-1.330442 -1.178875,-1.684115 -0.842057,-0.437862 -2.239878,-0.454718 -3.031413,-0.0336 z"
       id="path6281"
       style="stroke-width:0.0168412" />
    <path
       d="m 52.951272,90.643719 c 0,0.555763 -0.05047,0.673649 -0.336817,0.673649 -0.269468,0 -0.336832,0.117944 -0.336832,0.505241 0,0.38734 0.06733,0.50524 0.336832,0.50524 0.319976,0 0.336817,0.117943 0.336817,1.835683 0,2.189355 0.101074,2.374605 1.364139,2.374605 0.808376,0 0.825217,-0.01687 0.825217,-0.50524 0,-0.421022 -0.06733,-0.505226 -0.421022,-0.505226 -0.421036,0 -0.421036,0 -0.421036,-1.599911 0,-1.599911 0,-1.599911 0.421036,-1.599911 0.353658,0 0.421022,-0.0842 0.421022,-0.50524 0,-0.421036 -0.06733,-0.505241 -0.421022,-0.505241 -0.370513,0 -0.421036,-0.06733 -0.421036,-0.673649 v -0.673634 h -0.673649 -0.673649 z"
       id="path6343"
       style="stroke-width:0.0168412" />
    <path
       d="m 48.286266,91.334209 c -1.128352,0.319991 -1.616751,1.751493 -0.842057,2.458824 0.20209,0.20209 0.825217,0.488385 1.380979,0.639953 0.555763,0.168423 1.128353,0.404195 1.263094,0.538922 0.218931,0.218931 0.218931,0.269454 -0.06733,0.488399 -0.488399,0.353658 -1.077844,0.286295 -1.549403,-0.185264 -0.522066,-0.538907 -1.58307,-0.606271 -1.58307,-0.101073 0,0.488399 0.623127,1.145207 1.296776,1.380979 0.353658,0.117943 0.993625,0.151568 1.549388,0.101074 0.774694,-0.0842 1.027307,-0.18525 1.414661,-0.623126 0.993626,-1.111512 0.353659,-2.290401 -1.482024,-2.711423 -1.128367,-0.252613 -1.482025,-0.589444 -1.010467,-0.943103 0.38734,-0.269468 1.07783,-0.168422 1.364139,0.218932 0.235772,0.303135 1.414647,0.319976 1.414647,0.01687 0,-0.387354 -0.538922,-0.99364 -1.111511,-1.229412 -0.623127,-0.269453 -1.246253,-0.286294 -2.037788,-0.05047 z"
       id="path6385"
       style="stroke-width:0.0168412" />
    <path
       d="m 56.908947,91.485791 c -0.38734,0.18525 -0.825217,0.57259 -1.010466,0.87574 -0.404195,0.70733 -0.421036,2.357764 -0.0336,3.115617 0.522067,0.976785 2.239864,1.532547 3.199807,1.044148 0.538922,-0.286295 1.296776,-1.027307 1.296776,-1.279934 0,-0.319977 -1.246239,-0.286295 -1.515707,0.03374 -0.488385,0.58943 -1.852524,0.117943 -1.852524,-0.639968 0,-0.252613 0.235772,-0.286309 1.785161,-0.286309 h 1.802001 l -0.117943,-0.79152 c -0.13467,-1.027322 -0.555749,-1.700971 -1.27992,-2.088311 -0.757854,-0.40418 -1.431503,-0.40418 -2.27356,0.01687 z m 1.802001,1.128353 c 0.572604,0.522081 0.387355,0.724171 -0.70733,0.724171 -0.555749,0 -1.010467,-0.05046 -1.010467,-0.13467 0,-0.06733 0.117944,-0.303149 0.269469,-0.50524 0.303135,-0.437862 1.010466,-0.488399 1.448328,-0.0842 z"
       id="path6387"
       style="stroke-width:0.0168412" />
    <path
       d="m 63.359113,91.468936 c -0.505226,0.252627 -0.639953,0.269468 -0.639953,0.0842 0,-0.168423 -0.202104,-0.235786 -0.673649,-0.235786 h -0.673649 v 2.610391 2.610378 h 0.673649 0.673649 V 94.70244 c 0,-1.717812 0.03374,-1.869379 0.370499,-2.105152 0.4884,-0.336817 0.572604,-0.336817 0.976785,0.06733 0.286309,0.286309 0.336832,0.555763 0.336832,2.105151 v 1.76832 h 0.673648 0.673635 v -1.76832 c 0,-1.549388 0.05061,-1.818842 0.336832,-2.105151 0.875739,-0.875739 1.347298,-0.151567 1.347298,2.138833 v 1.734638 h 0.673634 0.673649 v -2.004092 c 0,-2.39146 -0.117943,-2.812481 -0.943103,-3.149313 -0.724171,-0.303136 -1.330457,-0.202091 -1.869364,0.30315 l -0.370514,0.353658 -0.303135,-0.353658 c -0.454718,-0.522081 -1.19573,-0.606286 -1.936743,-0.218946 z"
       id="path6389"
       style="stroke-width:0.0168412" />
    <path
       d="m 41.33086,91.418428 c 0,0.05046 0.421036,1.27992 0.926262,2.745104 0.757853,2.121992 0.909435,2.694581 0.774694,2.997731 -0.117943,0.252613 -0.319976,0.38734 -0.606271,0.38734 -0.353673,0 -0.421036,0.0842 -0.421036,0.50524 0,0.286295 0.101074,0.555763 0.235772,0.606286 0.404195,0.151568 1.599911,-0.269468 1.802016,-0.623126 0.20209,-0.38734 2.340923,-6.399644 2.340923,-6.601734 0,-0.08421 -0.319991,-0.117944 -0.707331,-0.08421 l -0.70733,0.05047 -0.505241,1.818856 c -0.269454,0.993626 -0.555748,1.717797 -0.606271,1.599911 -0.06733,-0.117943 -0.336832,-0.959944 -0.589445,-1.869365 l -0.471558,-1.633607 h -0.741012 c -0.38734,0 -0.724172,0.05061 -0.724172,0.101074 z"
       id="path6513"
       style="stroke-width:0.0168412" />
  </g>
</svg>
