<?xml version="1.0" encoding="UTF-8" standalone="no"?>
<!-- Created with Inkscape (http://www.inkscape.org/) -->

<svg
   width="100mm"
   height="100mm"
   viewBox="0 0 100 100"
   version="1.1"
   id="svg26768"
   xmlns="http://www.w3.org/2000/svg"
   xmlns:svg="http://www.w3.org/2000/svg">
  <defs
     id="defs26765" />
  <path
     d="M 13.848632,2.7178341 C 11.90187,3.4208315 10.117338,5.1512859 9.306187,7.1521251 L 8.8915994,8.1976081 8.8375252,34.587045 c -0.018028,17.250471 0.018028,26.731923 0.1442049,27.380843 0.4326136,2.36135 2.0008379,4.452315 4.1278559,5.497799 l 1.189687,0.576818 h 35.149865 35.149864 l 1.189686,-0.576818 c 2.108997,-1.045484 3.677218,-3.118424 4.12786,-5.461749 C 90.186928,60.597944 90.168907,9.5134749 89.898511,8.251685 89.41182,6.0165141 87.717418,3.889497 85.644474,2.9161159 L 84.598992,2.4294254 49.719512,2.393379 C 15.543028,2.3753512 14.822004,2.3753512 13.848624,2.7178397 Z m 70.948651,2.6317336 c 0.937327,0.5047165 2.090965,1.8025574 2.397398,2.7038356 0.144204,0.3965626 0.270385,1.9467627 0.324461,3.7853707 l 0.09013,3.118424 H 49.449135 11.289 l 0.09013,-3.118424 C 11.433204,10.000166 11.559386,8.4499659 11.703591,8.0534033 12.136204,6.7735874 13.560224,5.4577216 14.930168,5.025108 15.182525,4.953006 30.828721,4.8989281 49.719521,4.9169541 l 34.338714,0.036056 z m -65.757287,15.9526303 0.03605,3.74932 h -3.875501 -3.875498 v -3.659192 c 0,-2.018863 0.05407,-3.731293 0.126178,-3.803395 0.0721,-0.05408 1.784533,-0.09013 3.821422,-0.0721 l 3.713267,0.05407 z m 22.748271,-0.03605 v 3.785369 H 31.693946 21.599628 v -3.785369 -3.78537 h 10.094318 10.094321 z m 45.78495,0 v 3.785369 H 65.942533 44.311847 v -3.65919 c 0,-2.018864 0.05407,-3.731293 0.126179,-3.78537 0.05407,-0.0721 9.787886,-0.126179 21.630686,-0.126179 h 21.504505 z m -68.533221,10.220497 -0.05407,3.749318 h -3.785374 -3.785369 l -0.05407,-3.749314 -0.03606,-3.731294 h 3.875497 3.875498 z m 22.748271,0.05407 v 3.78537 H 31.693946 21.599628 v -3.78537 -3.78537 h 10.094318 10.094321 z m 45.78495,0 v 3.78537 l -21.576607,-0.03605 -21.594635,-0.05407 -0.05407,-3.749319 -0.03605,-3.731294 h 21.630686 21.630683 z m -68.533221,10.040252 -0.05407,3.749318 h -3.78537 -3.785369 l -0.05407,-3.749318 -0.03606,-3.731294 h 3.875497 3.875498 z m 22.748271,0.05407 v 3.785369 H 31.693946 21.599628 v -3.785369 -3.785371 h 10.094318 10.094321 z m 45.78495,0 v 3.785369 H 65.942533 44.311847 v -3.785369 -3.785371 h 21.630686 21.630684 z m -68.533221,10.130371 -0.05407,3.839446 h -3.785374 -3.785369 l -0.05407,-3.839442 -0.03606,-3.821421 h 3.875497 3.875498 z m 22.748271,0.05407 v 3.875497 H 31.693946 21.599628 V 51.819478 47.94398 h 10.094318 10.094321 z m 45.748901,-0.05407 -0.05407,3.839446 H 65.942533 44.401975 l -0.05407,-3.839444 -0.03606,-3.82142 h 21.630688 21.630684 z m -68.497172,10.184447 -0.05407,3.749319 -1.982813,-0.01803 c -1.658352,0 -2.108991,-0.0721 -2.721861,-0.396563 -2.036894,-1.045477 -2.739891,-2.307266 -2.902121,-5.155307 l -0.108154,-1.91071 h 3.911549 3.893524 z m 22.748271,0.05408 v 3.78537 H 31.693946 21.599628 v -3.78537 -3.78537 h 10.094318 10.094321 z m 45.78495,-2.199119 c 0,0.883253 -0.126177,2.000838 -0.27038,2.487528 -0.342488,1.153637 -1.315868,2.289248 -2.505554,2.920143 l -0.919306,0.486698 H 64.139976 44.401975 l -0.05407,-3.749318 -0.03606,-3.731294 h 21.630686 21.630686 z"
     id="path7352"
     style="stroke-width:0.0180256" />
  <path
     d="m 15.831445,92.196769 v 0.612872 l 1.135611,0.05407 1.117585,0.05408 0.05407,3.100393 0.03606,3.118431 h 0.721023 0.721022 l 0.03606,-3.118431 0.05407,-3.100393 1.135611,-0.05408 1.117586,-0.05407 v -0.612872 -0.630894 h -3.064347 -3.064347 z"
     id="path7746"
     style="stroke-width:0.0180256" />
  <path
     d="m 27.728321,95.351246 v 3.785366 h 0.630895 c 0.432614,0 0.630895,-0.09009 0.630895,-0.27038 0,-0.342482 0.162231,-0.342482 0.558792,0.01804 0.180256,0.162231 0.630896,0.324463 1.009433,0.360509 1.442045,0.180251 2.451477,-1.045483 2.451477,-2.992245 0,-1.766503 -0.883252,-2.811987 -2.343324,-2.775939 -0.468664,0.01804 -0.919304,0.144204 -1.135611,0.342491 -0.360511,0.324463 -0.360511,0.306436 -0.360511,-0.955359 v -1.297844 h -0.721023 -0.721023 z m 3.478936,-0.144204 c 0.432613,0.522741 0.414588,1.766512 -0.0721,2.379374 -0.991407,1.261789 -2.433453,-0.162232 -1.946762,-1.928735 0.288408,-1.045483 1.297841,-1.279816 2.018864,-0.450639 z"
     id="path7748"
     style="stroke-width:0.0180256" />
  <path
     d="m 34.217527,95.351246 v 3.785366 h 0.721023 0.721023 V 95.351246 91.565875 H 34.93855 34.217527 Z"
     id="path7750"
     style="stroke-width:0.0180256" />
  <path
     d="m 45.934148,95.369273 v 3.803395 l 2.235171,-0.07215 c 1.946763,-0.05411 2.307274,-0.108149 2.757913,-0.432612 1.532174,-1.135613 1.946761,-4.073775 0.81115,-5.822261 -0.666945,-1.027455 -1.405994,-1.279814 -3.82142,-1.279814 h -1.982814 z m 3.785371,-2.379375 c 0.612869,0.16223 1.081534,1.153633 1.081534,2.271218 0,1.063511 -0.45064,2.072938 -1.081534,2.379374 -0.252358,0.126185 -0.829176,0.234343 -1.297841,0.234343 H 47.55645 v -2.523587 -2.523578 l 0.865228,0.01804 c 0.468665,0.01804 1.045483,0.0721 1.297841,0.144208 z"
     id="path7752"
     style="stroke-width:0.0180256" />
  <path
     d="m 59.453327,92.827668 c 0,0.59484 -0.05407,0.721019 -0.360511,0.721019 -0.288409,0 -0.360511,0.126176 -0.360511,0.54077 0,0.414584 0.0721,0.540769 0.360511,0.540769 0.342485,0 0.360511,0.126176 0.360511,1.964781 0,2.343327 0.108154,2.541605 1.460072,2.541605 0.865227,0 0.883253,-0.01804 0.883253,-0.54076 0,-0.450639 -0.0721,-0.540769 -0.45064,-0.540769 -0.450638,0 -0.450638,0 -0.450638,-1.712428 0,-1.712429 0,-1.712429 0.450638,-1.712429 0.378537,0 0.45064,-0.09009 0.45064,-0.540769 0,-0.45064 -0.0721,-0.54077 -0.45064,-0.54077 -0.396562,0 -0.450638,-0.07215 -0.450638,-0.721019 V 92.106645 H 60.17435 59.453327 Z"
     id="path7766"
     style="stroke-width:0.0180256" />
  <path
     d="m 80.543246,92.827668 c 0,0.59484 -0.05407,0.721019 -0.360509,0.721019 -0.288412,0 -0.360513,0.126176 -0.360513,0.54077 0,0.414584 0.0721,0.540769 0.360513,0.540769 0.342482,0 0.360509,0.126176 0.360509,1.964781 0,2.343327 0.108155,2.541605 1.460071,2.541605 0.865226,0 0.883252,-0.01804 0.883252,-0.54076 0,-0.450639 -0.0721,-0.540769 -0.450637,-0.540769 -0.450641,0 -0.450641,0 -0.450641,-1.712428 0,-1.712429 0,-1.712429 0.450641,-1.712429 0.378536,0 0.450637,-0.09009 0.450637,-0.540769 0,-0.45064 -0.0721,-0.54077 -0.450637,-0.54077 -0.396562,0 -0.450641,-0.07215 -0.450641,-0.721019 v -0.721023 h -0.721023 -0.721022 z"
     id="path7768"
     style="stroke-width:0.0180256" />
  <path
     d="m 22.933519,93.620789 c -0.630895,0.27039 -1.153636,0.919307 -1.153636,1.406002 0,0.486686 1.279815,0.450631 1.58625,-0.03607 0.270384,-0.450639 1.424021,-0.504723 1.586251,-0.09009 0.180255,0.468658 -0.252358,0.757075 -1.315867,0.901279 -1.315867,0.162222 -2.036889,0.811149 -2.036889,1.838604 0.01803,1.478095 1.478096,2.145041 2.848039,1.315863 0.504717,-0.306435 0.594844,-0.324454 0.684972,-0.09009 0.0721,0.180259 0.360512,0.270389 0.93733,0.270389 0.64892,0 0.775099,-0.05411 0.612869,-0.216306 -0.144205,-0.144213 -0.216307,-0.937334 -0.216307,-2.343327 0,-2.397402 -0.126179,-2.667782 -1.387969,-3.010264 -0.901278,-0.252362 -1.460071,-0.234336 -2.145043,0.05411 z m 1.910711,3.911553 c -0.342486,0.793121 -1.460071,0.955353 -1.748481,0.234333 -0.180256,-0.486695 0.198282,-0.865223 1.045483,-1.063511 0.919305,-0.234333 1.063509,-0.05411 0.702998,0.829178 z"
     id="path7832"
     style="stroke-width:0.0180256" />
  <path
     d="m 38.093025,93.728947 c -0.414588,0.198278 -0.883253,0.612871 -1.081534,0.937325 -0.432614,0.757076 -0.45064,2.523578 -0.03606,3.334737 0.558792,1.045483 2.397401,1.640326 3.424858,1.117576 0.576818,-0.306427 1.38797,-1.099558 1.38797,-1.369938 0,-0.342491 -1.333893,-0.306435 -1.622302,0.03608 -0.522741,0.630889 -1.982813,0.126176 -1.982813,-0.684974 0,-0.270389 0.252358,-0.306435 1.91071,-0.306435 h 1.928737 l -0.126179,-0.847205 c -0.144204,-1.099557 -0.594844,-1.820577 -1.369943,-2.23517 -0.811151,-0.432613 -1.532174,-0.432613 -2.433453,0.01804 z m 1.928736,1.207715 c 0.612869,0.558788 0.414588,0.775093 -0.757073,0.775093 -0.594845,0 -1.081535,-0.05411 -1.081535,-0.144203 0,-0.07215 0.126178,-0.324455 0.288408,-0.540761 0.324461,-0.468676 1.081535,-0.52275 1.5502,-0.09009 z"
     id="path7834"
     style="stroke-width:0.0180256" />
  <path
     d="m 54.47827,93.620789 c -0.630895,0.27039 -1.153637,0.919307 -1.153637,1.406002 0,0.486686 1.279816,0.450631 1.58625,-0.03607 0.270384,-0.450639 1.42402,-0.504723 1.586251,-0.09009 0.180256,0.468658 -0.252359,0.757075 -1.315867,0.901279 -1.315867,0.162222 -2.03689,0.811149 -2.03689,1.838604 0.01803,1.478095 1.478097,2.145041 2.84804,1.315863 0.504717,-0.306435 0.594845,-0.324454 0.684973,-0.09009 0.0721,0.180259 0.360511,0.270389 0.93733,0.270389 0.64892,0 0.775098,-0.05411 0.612868,-0.216306 -0.144204,-0.144213 -0.216307,-0.937334 -0.216307,-2.343327 0,-2.397402 -0.126178,-2.667782 -1.387968,-3.010264 -0.901279,-0.252362 -1.460071,-0.234336 -2.145043,0.05411 z m 1.910711,3.911553 c -0.342487,0.793121 -1.460073,0.955353 -1.748481,0.234333 -0.180256,-0.486695 0.198281,-0.865223 1.045483,-1.063511 0.919304,-0.234333 1.063509,-0.05411 0.702998,0.829178 z"
     id="path7836"
     style="stroke-width:0.0180256" />
  <path
     d="m 63.851567,93.620789 c -0.630895,0.27039 -1.153637,0.919307 -1.153637,1.406002 0,0.486686 1.279816,0.450631 1.586251,-0.03607 0.270383,-0.450639 1.424019,-0.504723 1.58625,-0.09009 0.180256,0.468658 -0.252358,0.757075 -1.315867,0.901279 -1.315866,0.162222 -2.03689,0.811149 -2.03689,1.838604 0.01803,1.478095 1.478098,2.145041 2.848041,1.315863 0.504716,-0.306435 0.594844,-0.324454 0.684972,-0.09009 0.0721,0.180259 0.360511,0.270389 0.937329,0.270389 0.648921,0 0.7751,-0.05411 0.61287,-0.216306 -0.144204,-0.144213 -0.216307,-0.937334 -0.216307,-2.343327 0,-2.397402 -0.126179,-2.667782 -1.387969,-3.010264 -0.901279,-0.252362 -1.460072,-0.234336 -2.145043,0.05411 z m 1.91071,3.911553 c -0.342485,0.793121 -1.460071,0.955353 -1.74848,0.234333 -0.180256,-0.486695 0.198281,-0.865223 1.045483,-1.063511 0.919304,-0.234333 1.063509,-0.05411 0.702997,0.829178 z"
     id="path7838"
     style="stroke-width:0.0180256" />
  <path
     d="m 69.78198,93.566715 c -1.207713,0.342482 -1.730455,1.87466 -0.901279,2.631736 0.216307,0.216306 0.883253,0.522741 1.478097,0.684973 0.594845,0.18025 1.207713,0.432612 1.351918,0.576816 0.234333,0.234333 0.234333,0.288407 -0.0721,0.522741 -0.522742,0.378538 -1.153637,0.306426 -1.658353,-0.198278 -0.558792,-0.576825 -1.694404,-0.648927 -1.694404,-0.108158 0,0.522742 0.666946,1.225743 1.387969,1.478095 0.378537,0.126176 1.063509,0.162232 1.658353,0.108149 0.829177,-0.09009 1.09956,-0.198279 1.514148,-0.666937 1.063509,-1.189696 0.378537,-2.451485 -1.586251,-2.902124 -1.207713,-0.27038 -1.58625,-0.63089 -1.081534,-1.009428 0.414589,-0.288408 1.153637,-0.180259 1.460072,0.234334 0.252358,0.324463 1.514148,0.342482 1.514148,0.01804 0,-0.414593 -0.576819,-1.063511 -1.189687,-1.315872 -0.666947,-0.288404 -1.333893,-0.30643 -2.181095,-0.05411 z"
     id="path7840"
     style="stroke-width:0.0180256" />
  <path
     d="m 75.586213,93.728947 c -0.414588,0.198278 -0.883252,0.612871 -1.081533,0.937325 -0.432614,0.757076 -0.450639,2.523578 -0.03605,3.334737 0.558794,1.045483 2.397401,1.640326 3.424861,1.117576 0.57682,-0.306427 1.38797,-1.099558 1.38797,-1.369938 0,-0.342491 -1.333895,-0.306435 -1.622301,0.03608 -0.522744,0.630889 -1.982816,0.126176 -1.982816,-0.684974 0,-0.270389 0.252359,-0.306435 1.910709,-0.306435 h 1.92874 l -0.126182,-0.847205 c -0.144203,-1.099557 -0.594841,-1.820577 -1.369943,-2.23517 -0.81115,-0.432613 -1.532172,-0.432613 -2.433451,0.01804 z m 1.928735,1.207715 c 0.612872,0.558788 0.414588,0.775093 -0.757071,0.775093 -0.594845,0 -1.081536,-0.05411 -1.081536,-0.144203 0,-0.07215 0.126177,-0.324455 0.288407,-0.540761 0.324461,-0.468676 1.081536,-0.52275 1.5502,-0.09009 z"
     id="path7842"
     style="stroke-width:0.0180256" />
</svg>
