<?xml version="1.0" encoding="UTF-8" standalone="no"?>
<!-- Created with Inkscape (http://www.inkscape.org/) -->

<svg
   width="100mm"
   height="100mm"
   viewBox="0 0 100 100"
   version="1.1"
   id="svg26768"
   xmlns="http://www.w3.org/2000/svg"
   xmlns:svg="http://www.w3.org/2000/svg">
  <defs
     id="defs26765" />
  <path
     d="m 20.227218,2.2965386 c -1.436654,0.4617802 -1.64189,0.5986101 -3.9508,2.8733138 -1.74451,1.7103011 -2.274704,2.3431187 -2.65097,3.1811603 L 13.12946,9.4114031 V 21.126986 32.842559 l 0.410473,1.026182 c 0.376267,0.974872 1.351139,1.983951 20.609154,21.259075 11.099869,11.134076 20.403918,20.352607 20.660464,20.489426 0.769637,0.393376 1.710301,0.307857 2.462845,-0.256535 0.359158,-0.27366 7.149061,-6.978045 15.050666,-14.913857 C 87.698689,45.037026 87.356625,45.413287 86.946146,44.164766 86.809326,43.771401 80.857475,37.734031 66.3712,23.247756 48.241986,5.1527487 45.86467,2.8267338 45.026618,2.4675761 L 44.085954,2.0570967 32.626917,2.0229102 C 22.040141,1.9887238 21.099474,2.0057644 20.227218,2.2965491 Z m 24.046867,2.1720918 c 0.495987,0.1881307 5.917644,5.5242791 20.677567,20.2670886 L 84.962195,44.729169 70.42462,59.266744 55.887045,73.804329 35.910699,53.845087 C 22.108553,40.060045 15.814636,33.663507 15.592297,33.184623 15.284442,32.534712 15.267339,31.901895 15.267339,21.212494 c 0,-10.569674 0.03421,-11.3393107 0.324958,-11.9721178 0.376266,-0.855156 3.882388,-4.3270694 4.771746,-4.7375383 0.581503,-0.2736495 1.607686,-0.2907532 11.937923,-0.307857 9.919753,0 11.390612,0.034186 11.972119,0.2736495 z"
     id="path6170"
     style="stroke-width:0.017103" />
  <path
     d="m 27.359184,13.003043 c -3.694254,1.402444 -4.703333,6.157086 -1.881335,8.825165 1.145903,1.111691 1.983951,1.436652 3.642948,1.436652 1.693199,0 2.702279,-0.393365 3.779769,-1.470859 1.145899,-1.145909 1.436652,-1.898443 1.436652,-3.745563 0,-1.351143 -0.06837,-1.744509 -0.393365,-2.343119 -0.564403,-1.077494 -1.282729,-1.812923 -2.291808,-2.360222 -0.735428,-0.410469 -1.145903,-0.495988 -2.274702,-0.547289 -0.906463,-0.03419 -1.590585,0.03419 -2.018159,0.205235 z m 2.924619,2.052365 c 0.838048,0.359158 1.385346,0.889353 1.761607,1.710302 0.820949,1.761612 -0.18813,3.848185 -2.103669,4.361276 -1.624789,0.444677 -3.454813,-0.632817 -3.882387,-2.274703 -0.632812,-2.53125 1.881332,-4.771746 4.224449,-3.796875 z"
     id="path6172"
     style="stroke-width:0.017103" />
  <path
     d="m 46.942164,20.288934 c -0.547299,0.205235 -0.838063,0.906457 -0.564403,1.419548 0.119716,0.222338 5.079592,5.25063 11.031454,11.202492 8.84227,8.825165 10.877531,10.792012 11.253793,10.792012 0.581506,0 1.214313,-0.752533 1.06039,-1.265625 -0.119726,-0.427573 -21.720854,-22.114219 -22.131323,-22.216842 -0.13683,-0.03419 -0.444677,0 -0.649911,0.06837 z"
     id="path6174"
     style="stroke-width:0.017103" />
  <path
     d="m 39.211586,27.933994 c -0.906457,0.735429 -0.889364,0.769637 6.362331,8.004217 3.77977,3.796874 6.858308,6.738592 7.029345,6.738592 0.427573,0 1.145899,-0.769637 1.145899,-1.214313 0,-0.290754 -1.812913,-2.206289 -6.447839,-6.875423 -5.866344,-5.866343 -7.04645,-6.96093 -7.542437,-6.96093 -0.102665,0 -0.342065,0.136819 -0.547299,0.307857 z"
     id="path6176"
     style="stroke-width:0.017103" />
  <path
     d="m 31.63494,35.459327 c -0.769636,0.855145 -0.906459,0.684118 8.825167,10.432844 4.994084,5.011187 9.321153,9.235645 9.577698,9.372464 0.718326,0.376272 1.385341,0.01715 1.453756,-0.786741 0.05133,-0.581506 -0.239442,-0.872249 -9.321153,-9.971064 -9.885545,-9.851348 -9.834245,-9.81714 -10.535468,-9.047503 z"
     id="path6178"
     style="stroke-width:0.017103" />
  <path
     d="m 41.606016,90.137724 v 0.581496 l 1.077483,0.05133 1.06039,0.05133 0.05133,2.941719 0.03419,2.958822 h 0.684119 0.684118 l 0.03419,-2.958822 0.05133,-2.941719 1.077483,-0.05133 1.06039,-0.05133 v -0.581496 -0.59861 h -2.90751 -2.907522 z"
     id="path6334"
     style="stroke-width:0.017103" />
  <path
     d="m 48.515635,91.488857 c -0.59861,0.256546 -1.094598,0.872259 -1.094598,1.33404 0,0.46178 1.214324,0.427572 1.505077,-0.03419 0.256546,-0.427572 1.351133,-0.478884 1.505057,-0.08552 0.171037,0.444677 -0.239442,0.718326 -1.248511,0.855146 -1.248521,0.153923 -1.93265,0.769637 -1.93265,1.744508 0.01715,1.402455 1.402445,2.035262 2.702287,1.248532 0.478874,-0.290764 0.564392,-0.307857 0.649911,-0.08552 0.06837,0.171027 0.342064,0.256546 0.889353,0.256546 0.615714,0 0.735429,-0.05133 0.581506,-0.205235 -0.136819,-0.13683 -0.205234,-0.889363 -0.205234,-2.223403 0,-2.274703 -0.119726,-2.531239 -1.316936,-2.856199 -0.855156,-0.239442 -1.385341,-0.222338 -2.035262,0.05133 z m 1.812924,3.711366 c -0.324961,0.752523 -1.385341,0.906456 -1.659001,0.222338 -0.171027,-0.461791 0.188141,-0.820948 0.991976,-1.009079 0.872259,-0.222338 1.009079,-0.05133 0.667025,0.786741 z"
     id="path6494"
     style="stroke-width:0.017103" />
  <path
     d="m 54.176744,91.420452 c -0.46178,0.188131 -1.043287,0.838042 -1.265625,1.419548 -0.256556,0.684119 -0.239452,1.898432 0.05133,2.599665 0.495987,1.180106 2.137884,1.65899 3.095652,0.906456 l 0.478883,-0.376261 -0.102664,0.667014 c -0.05133,0.359169 -0.222338,0.769638 -0.342054,0.889353 -0.324961,0.342065 -1.265625,0.324961 -1.624793,0 -0.171027,-0.171027 -0.598599,-0.290742 -0.940664,-0.290742 -0.752533,0 -0.855156,0.410468 -0.239442,0.991975 0.803845,0.752533 2.736484,0.820938 3.796874,0.136819 0.615714,-0.393365 0.769637,-1.265624 0.769637,-4.258654 V 91.420452 H 57.16976 c -0.59861,0 -0.684118,0.05133 -0.684118,0.376262 -0.01715,0.359168 -0.03419,0.376261 -0.239453,0.102664 C 55.83572,91.35208 54.877953,91.129741 54.17673,91.420495 Z m 1.641886,1.19721 c 0.222338,0 0.667025,0.957768 0.667025,1.453756 0,0.478883 -0.27366,1.128805 -0.581506,1.316936 -0.342065,0.239441 -1.077494,0.136819 -1.351144,-0.171027 -0.872249,-0.957779 -0.18813,-3.027248 0.872249,-2.66808 0.13683,0.03419 0.307857,0.06837 0.393376,0.06837 z"
     id="path6496"
     style="stroke-width:0.017103" />
</svg>
