<?xml version="1.0" encoding="UTF-8" standalone="no"?>
<!-- Created with Inkscape (http://www.inkscape.org/) -->

<svg
   width="100mm"
   height="100mm"
   viewBox="0 0 100 100"
   version="1.1"
   id="svg26768"
   sodipodi:docname="third party app.svg"
   inkscape:version="1.1.1 (3bf5ae0d25, 2021-09-20)"
   xmlns:inkscape="http://www.inkscape.org/namespaces/inkscape"
   xmlns:sodipodi="http://sodipodi.sourceforge.net/DTD/sodipodi-0.dtd"
   xmlns="http://www.w3.org/2000/svg"
   xmlns:svg="http://www.w3.org/2000/svg">
  <sodipodi:namedview
     id="namedview26770"
     pagecolor="#ffffff"
     bordercolor="#666666"
     borderopacity="1.0"
     inkscape:pageshadow="2"
     inkscape:pageopacity="0.0"
     inkscape:pagecheckerboard="0"
     inkscape:document-units="mm"
     showgrid="false"
     width="209mm"
     inkscape:zoom="0.7500982"
     inkscape:cx="13.998167"
     inkscape:cy="241.96832"
     inkscape:window-width="1920"
     inkscape:window-height="1027"
     inkscape:window-x="1912"
     inkscape:window-y="-8"
     inkscape:window-maximized="1"
     inkscape:current-layer="layer1" />
  <defs
     id="defs26765" />
  <g
     inkscape:label="Layer 1"
     inkscape:groupmode="layer"
     id="layer1">
    <path
       d="M 18.241763,2.0197866 C 15.035744,2.8808316 12.36101,5.0975612 10.950352,8.0471014 9.722912,10.630237 9.777875,9.4577498 9.777875,31.313634 c 0,22.112373 -0.055,20.939886 1.319039,23.596302 1.025925,1.960251 2.71138,3.645705 4.671631,4.67163 2.711379,1.410638 0.164879,1.319049 35.24789,1.319049 30.832729,0 31.455623,0 32.866261,-0.366405 3.828903,-0.970962 7.016604,-4.158673 8.097493,-8.079165 0.311442,-1.080888 0.329759,-2.638098 0.329759,-21.141411 0,-18.814745 -0.01837,-20.042195 -0.329759,-21.159719 C 90.844337,6.1784493 87.638328,3.009076 83.699499,2.0014689 82.105653,1.5984281 19.74401,1.5984281 18.241763,2.0197359 Z m 64.908133,2.5281716 c 2.491536,0.6595296 4.580031,2.418255 5.73419,4.8181926 l 0.677848,1.4289662 0.055,20.133804 c 0.03664,17.990346 0.01837,20.262028 -0.256489,21.159719 -0.769446,2.711379 -2.986176,4.983072 -5.807472,5.954034 l -1.135841,0.384723 -30.319772,0.055 c -19.767399,0.03664 -30.869385,-0.01837 -31.876992,-0.128245 -3.773939,-0.458004 -6.925005,-3.2793 -7.694441,-6.906677 -0.128245,-0.604567 -0.183208,-7.401328 -0.146562,-20.683397 l 0.0549,-19.785717 0.421369,-1.0625702 c 0.989285,-2.4182517 3.169379,-4.4701014 5.587634,-5.2395476 1.117534,-0.3480775 1.868652,-0.3664053 32.46323,-0.3664053 25.593189,-0.018267 31.492259,0.036635 32.243388,0.2381609 z"
       id="path6751"
       style="stroke-width:0.0183202" />
    <path
       d="m 49.807303,12.846966 c -0.183198,0.055 -3.2793,1.612174 -6.870042,3.480826 -4.1037,2.143448 -6.760116,3.627377 -7.181474,4.030418 -0.366406,0.366405 -0.842728,1.062571 -1.062571,1.538892 -0.366405,0.879363 -0.384723,1.117524 -0.32977,9.1051 0.055,7.712759 0.07327,8.225716 0.421369,8.921892 0.677847,1.374002 1.502247,1.905287 8.28069,5.40442 l 6.5586,3.389227 h 1.465611 l 1.465601,-0.01837 6.576918,-3.44418 c 3.828903,-2.015204 6.815079,-3.700659 7.144849,-4.048736 1.319039,-1.31905 1.300721,-1.099206 1.355684,-10.204296 0.055,-7.987575 0.03664,-8.225736 -0.329769,-9.105099 -0.219834,-0.476322 -0.696155,-1.172487 -1.062561,-1.538892 -0.439676,-0.421359 -2.967858,-1.832007 -7.089885,-3.957138 -3.517451,-1.813688 -6.631881,-3.389216 -6.943313,-3.499143 -0.549603,-0.183198 -1.740418,-0.219843 -2.399937,-0.055 z m 8.28069,5.917399 c 6.302121,3.260982 6.467001,3.352581 6.833396,4.103709 0.348088,0.732801 0.366405,1.099206 0.366405,7.822686 0,4.085382 -0.07327,7.309718 -0.183197,7.694441 -0.109927,0.348078 -0.366405,0.8244 -0.586249,1.025925 -0.677847,0.604566 -12.915674,6.833397 -13.44696,6.833397 -0.366405,0 -11.724869,-5.697555 -13.318715,-6.668517 -0.824409,-0.512967 -0.861045,-0.916008 -0.861045,-8.866928 0,-7.474609 0,-7.492926 0.421359,-8.097493 0.311442,-0.458004 1.282413,-1.06256 4.250271,-2.601452 8.647086,-4.506751 9.141725,-4.744912 9.618057,-4.653303 0.256479,0.0549 3.352571,1.575528 6.906678,3.407535 z"
       id="path6753"
       style="stroke-width:0.0183202" />
    <path
       d="m 48.982893,23.454313 c -2.876249,0.769446 -5.00138,3.169383 -5.532665,6.265475 -0.732811,4.360188 2.528172,8.482216 6.979959,8.77533 2.363291,0.16488 4.323542,-0.531275 5.935716,-2.106813 1.703762,-1.667127 2.418255,-3.535779 2.29001,-5.990669 -0.256478,-4.854828 -4.928109,-8.207409 -9.67302,-6.943323 z m 4.305225,2.78466 c 2.509864,1.300721 3.590752,4.433459 2.38162,6.924995 -0.897691,1.832007 -2.583135,2.821296 -4.744912,2.821296 -3.480815,-0.01837 -5.89907,-3.517461 -4.744901,-6.88836 0.384723,-1.135841 1.850324,-2.656416 2.986176,-3.059457 1.117524,-0.421358 3.132738,-0.311442 4.122017,0.201526 z"
       id="path6755"
       style="stroke-width:0.0183202" />
    <path
       d="m 11.243477,88.838777 v 0.622874 l 1.154169,0.055 1.135841,0.055 0.055,3.151056 0.03664,3.169383 h 0.7328 0.732811 l 0.03664,-3.169383 0.055,-3.151056 1.154169,-0.055 1.135842,-0.055 v -0.622874 -0.641212 h -3.11442 -3.11441 z"
       id="path7093"
       style="stroke-width:0.0183202" />
    <path
       d="m 18.388325,92.044786 v 3.847231 h 0.732801 0.7328 v -1.923616 c 0,-1.685454 0.055,-1.978568 0.366406,-2.29001 0.201525,-0.201526 0.56792,-0.366406 0.806081,-0.366406 0.751129,0 0.916009,0.439687 0.98929,2.583135 l 0.07327,1.996897 h 0.7328 0.732801 l -0.07327,-2.38162 c -0.055,-2.271693 -0.07327,-2.399927 -0.531275,-2.839613 -0.65952,-0.65952 -1.630491,-0.787764 -2.454901,-0.311442 l -0.641202,0.384723 v -1.264086 -1.282414 h -0.7328 -0.732801 z"
       id="path7095"
       style="stroke-width:0.0183202" />
    <path
       d="m 24.800353,88.838777 c 0,0.622874 0.01837,0.641202 0.732811,0.641202 0.714482,0 0.7328,-0.01837 0.7328,-0.641202 0,-0.622884 -0.01837,-0.641212 -0.7328,-0.641212 -0.714483,0 -0.732811,0.01837 -0.732811,0.641212 z"
       id="path7097"
       style="stroke-width:0.0183202" />
    <path
       d="m 35.609214,89.479979 v 1.282404 l -0.586238,-0.366406 c -0.787764,-0.476322 -1.410648,-0.457994 -2.180094,0.055 -0.824399,0.549603 -1.264086,1.465611 -1.264086,2.656416 0,2.290021 1.758736,3.627378 3.44418,2.601453 0.476322,-0.293125 0.586238,-0.311432 0.586238,-0.09164 0,0.201526 0.201526,0.274807 0.732811,0.274807 h 0.732811 v -3.847231 -3.847221 h -0.732811 -0.732811 z m -0.384712,2.290011 c 0.146552,0.146562 0.293124,0.641201 0.329759,1.135851 0.07327,0.714483 0.01837,0.970962 -0.311442,1.374002 -1.06257,1.374003 -2.61977,-0.128234 -2.015214,-1.96025 0.311442,-0.970962 1.282414,-1.227451 1.996897,-0.549603 z"
       id="path7099"
       style="stroke-width:0.0183202" />
    <path
       d="m 41.654857,92.044786 v 3.847231 h 0.732801 0.7328 v -1.374013 -1.374002 h 1.245768 c 1.520575,0 2.38162,-0.384723 2.821306,-1.282414 0.641202,-1.264085 0.201516,-2.766332 -0.952643,-3.334253 -0.49465,-0.256489 -1.099217,-0.32977 -2.601463,-0.32977 h -1.978569 z m 3.920502,-2.21673 c 0.366405,0.311442 0.384723,1.117534 0.03664,1.575528 -0.201525,0.274807 -0.494649,0.348088 -1.319049,0.366406 h -1.080888 l -0.0549,-0.897691 c -0.09164,-1.355685 0,-1.447283 1.154159,-1.355685 0.531285,0.055 1.117523,0.183208 1.264096,0.311442 z"
       id="path7101"
       style="stroke-width:0.0183202" />
    <path
       d="m 71.736468,91.916552 c -0.714483,2.033532 -1.319039,3.773939 -1.319039,3.84722 0,0.07327 0.348077,0.128245 0.787754,0.128245 0.751128,0 0.787774,-0.03664 1.06257,-0.787764 l 0.293124,-0.769446 1.374003,-0.055 1.39233,-0.055 0.256479,0.787764 c 0.256488,0.769446 0.293124,0.787774 1.154169,0.842727 0.659529,0.03664 0.842727,0 0.787764,-0.183198 -0.055,-0.128244 -0.65952,-1.868652 -1.355685,-3.84722 l -1.264086,-3.627388 h -0.916008 -0.916008 z m 3.077774,0.89768 c 0,0.09164 -0.421358,0.146562 -0.934316,0.146562 -0.677847,0 -0.916008,-0.07327 -0.861045,-0.238161 0.0549,-0.109916 0.293125,-0.806081 0.512958,-1.502246 l 0.439686,-1.282404 0.421359,1.374002 c 0.238161,0.751129 0.421358,1.428976 0.421358,1.502247 z"
       id="path7103"
       style="stroke-width:0.0183202" />
    <path
       d="m 58.875757,89.479979 c 0,0.604556 -0.055,0.732801 -0.366406,0.732801 -0.293124,0 -0.366405,0.128244 -0.366405,0.549603 0,0.421368 0.07327,0.549602 0.366405,0.549602 0.348088,0 0.366406,0.128245 0.366406,1.996897 0,2.381609 0.109916,2.583135 1.483929,2.583135 0.879362,0 0.89769,-0.01837 0.89769,-0.549603 0,-0.458004 -0.07327,-0.549603 -0.458014,-0.549603 -0.457994,0 -0.457994,0 -0.457994,-1.740418 0,-1.740408 0,-1.740408 0.457994,-1.740408 0.384723,0 0.458014,-0.09164 0.458014,-0.549602 0,-0.458005 -0.07327,-0.549603 -0.458014,-0.549603 -0.403041,0 -0.457994,-0.07327 -0.457994,-0.732801 v -0.732811 h -0.732811 -0.7328 z"
       id="path7129"
       style="stroke-width:0.0183202" />
    <path
       d="m 29.984951,90.304378 c -0.32976,0.146563 -0.604567,0.348088 -0.604567,0.458005 0,0.09164 -0.07327,0.183207 -0.183197,0.183207 -0.09164,0 -0.183208,-0.16489 -0.183208,-0.366405 0,-0.293124 -0.128234,-0.366405 -0.641202,-0.366405 h -0.641202 v 2.839613 2.839624 h 0.732801 0.732811 v -1.703772 c 0,-1.960251 0.201515,-2.399938 1.190804,-2.583135 0.604557,-0.128245 0.641202,-0.16488 0.641202,-0.842727 0,-0.806082 -0.128244,-0.861045 -1.044242,-0.458005 z"
       id="path7145"
       style="stroke-width:0.0183202" />
    <path
       d="m 49.605787,90.286061 c -0.641212,0.274796 -1.172497,0.934326 -1.172497,1.428965 0,0.49465 1.300732,0.458004 1.612174,-0.03664 0.274806,-0.458014 1.447293,-0.512968 1.612173,-0.09164 0.183198,0.476322 -0.256489,0.769447 -1.337367,0.916009 -1.337377,0.16488 -2.070177,0.824409 -2.070177,1.868652 0.01837,1.502247 1.502246,2.180094 2.894577,1.337367 0.512967,-0.311442 0.604566,-0.32976 0.696165,-0.09164 0.07327,0.183198 0.366405,0.274797 0.952643,0.274797 0.65953,0 0.787764,-0.055 0.622884,-0.219844 -0.146562,-0.146551 -0.219843,-0.952643 -0.219843,-2.381609 0,-2.436573 -0.128234,-2.711379 -1.410648,-3.059457 -0.916008,-0.256484 -1.483929,-0.238156 -2.180084,0.05491 z m 1.941923,3.975465 c -0.348077,0.806081 -1.483929,0.970961 -1.777043,0.238161 -0.183208,-0.49465 0.201516,-0.879363 1.062561,-1.080888 0.934326,-0.238161 1.080888,-0.055 0.714482,0.842727 z"
       id="path7147"
       style="stroke-width:0.0183202" />
    <path
       d="m 56.732298,90.304378 c -0.32976,0.146563 -0.604556,0.348088 -0.604556,0.458005 0,0.09164 -0.07327,0.183207 -0.183208,0.183207 -0.09164,0 -0.183198,-0.16489 -0.183198,-0.366405 0,-0.293124 -0.128234,-0.366405 -0.641201,-0.366405 h -0.641202 v 2.839613 2.839624 h 0.7328 0.732801 v -1.703772 c 0,-1.960251 0.201526,-2.399938 1.190815,-2.583135 0.604556,-0.128245 0.641202,-0.16488 0.641202,-0.842727 0,-0.806082 -0.128245,-0.861045 -1.044253,-0.458005 z"
       id="path7149"
       style="stroke-width:0.0183202" />
    <path
       d="m 80.859885,90.231097 c -0.238161,0.09164 -0.604566,0.311442 -0.769446,0.476322 -0.311442,0.274807 -0.32976,0.274807 -0.32976,-0.09164 0,-0.32976 -0.109916,-0.403041 -0.641202,-0.403041 h -0.641212 v 3.93883 3.938819 h 0.732811 0.732801 v -1.410648 c 0,-1.355695 0.01837,-1.39233 0.348087,-1.080888 0.861045,0.787764 2.528172,0.384723 3.187691,-0.751128 0.439687,-0.769436 0.476332,-2.693052 0.055,-3.499134 -0.512953,-1.007606 -1.740403,-1.502245 -2.674729,-1.117532 z m 1.154169,1.667137 c 0.732801,0.842727 0.128235,2.894577 -0.861045,2.894577 -1.044252,0 -1.630491,-1.190815 -1.209132,-2.473218 0.348087,-1.025925 1.355694,-1.245768 2.070177,-0.421359 z"
       id="path7151"
       style="stroke-width:0.0183202" />
    <path
       d="m 87.455121,90.231097 c -0.238161,0.09164 -0.604567,0.311442 -0.769447,0.476322 -0.311442,0.274807 -0.329759,0.274807 -0.329759,-0.09164 0,-0.32976 -0.109917,-0.403041 -0.641202,-0.403041 h -0.641202 v 3.93883 3.938819 h 0.732801 0.7328 v -1.410648 c 0,-1.355695 0.01837,-1.39233 0.348088,-1.080888 0.861045,0.787764 2.528171,0.384723 3.187691,-0.751128 0.439686,-0.769436 0.476332,-2.693052 0.055,-3.499134 -0.512957,-1.007607 -1.740408,-1.502246 -2.674734,-1.117533 z m 1.154169,1.667137 c 0.7328,0.842727 0.128244,2.894577 -0.861045,2.894577 -1.044253,0 -1.630491,-1.190815 -1.209133,-2.473218 0.348088,-1.025925 1.355695,-1.245768 2.070178,-0.421359 z"
       id="path7153"
       style="stroke-width:0.0183202" />
    <path
       d="m 24.800353,93.052393 v 2.839624 h 0.732811 0.7328 V 93.052393 90.21278 h -0.7328 -0.732811 z"
       id="path7203"
       style="stroke-width:0.0183202" />
    <path
       d="m 61.806969,90.322696 c 0,0.055 0.458004,1.39233 1.007607,2.986186 0.82441,2.308328 0.989289,2.931212 0.842727,3.260972 -0.128244,0.274807 -0.348077,0.421369 -0.659519,0.421369 -0.384723,0 -0.458004,0.09164 -0.458004,0.549603 0,0.311442 0.109916,0.604556 0.256478,0.659519 0.439687,0.16488 1.740408,-0.293124 1.960251,-0.677837 0.219843,-0.421369 2.54649,-6.961651 2.54649,-7.181484 0,-0.09164 -0.348078,-0.128244 -0.769436,-0.09164 l -0.769447,0.055 -0.549603,1.978568 c -0.293124,1.080888 -0.604566,1.868662 -0.659519,1.740418 -0.07327,-0.128244 -0.366405,-1.044243 -0.641212,-2.033532 l -0.512957,-1.777053 h -0.806092 c -0.421359,0 -0.787764,0.055 -0.787764,0.109916 z"
       id="path7205"
       style="stroke-width:0.0183202" />
  </g>
</svg>
