<?xml version="1.0" encoding="UTF-8" standalone="no"?>
<!-- Created with Inkscape (http://www.inkscape.org/) -->

<svg
   width="100mm"
   height="100mm"
   viewBox="0 0 100 100"
   version="1.1"
   id="svg26768"
   xmlns="http://www.w3.org/2000/svg"
   xmlns:svg="http://www.w3.org/2000/svg">
  <defs
     id="defs26765" />
  <g
     id="layer1">
    <path
       d="m 45.198586,2.0017247 c -0.838314,0.368857 -1.073037,0.8550778 -1.073037,2.1963776 0,1.6933889 0.653886,2.431104 2.179608,2.431104 h 0.670647 V 8.389661 c 0,0.9724418 -0.06711,1.760455 -0.150895,1.760455 -0.553285,0 -4.308922,0.737714 -5.516082,1.089805 -15.877635,4.577183 -25.870308,20.102719 -23.40567,36.433033 1.425133,9.523222 7.108883,17.990172 15.508766,23.103874 8.550778,5.214302 19.482366,6.119679 28.904992,2.397572 10.076512,-3.990364 17.738681,-13.027366 19.968584,-23.539796 1.374839,-6.522067 0.78802,-13.111197 -1.69339,-19.24764 -1.861046,-4.627482 -5.482561,-9.640586 -9.036997,-12.52438 -0.502991,-0.419155 -0.922142,-0.804779 -0.938915,-0.871843 0,-0.06707 0.234735,-0.502988 0.502991,-0.955676 0.419152,-0.687416 0.620353,-0.838312 1.056277,-0.88861 0.419151,-0.03353 0.60358,-0.184429 0.871836,-0.67065 0.335335,-0.620351 0.335335,-0.620351 0,-1.056273 -0.184428,-0.251493 -0.955676,-0.821545 -1.726912,-1.307766 -1.207171,-0.720948 -1.458667,-0.821545 -1.844296,-0.687416 -0.653875,0.234728 -1.005971,0.938909 -0.771236,1.542494 0.167656,0.435922 0.134122,0.603584 -0.285029,1.274234 -0.268268,0.419156 -0.536525,0.771247 -0.586819,0.771247 -0.06711,0 -0.536525,-0.251494 -1.056277,-0.570052 C 63.47378,12.447091 58.946896,10.871064 54.990069,10.317778 L 53.514641,10.116584 V 8.3728943 6.6292063 h 0.68742 c 1.60955,0 2.431104,-0.955676 2.29697,-2.6993651 -0.08386,-1.0898042 -0.385618,-1.5592595 -1.257466,-1.9281165 -0.771248,-0.3353246 -9.288492,-0.318559 -10.042979,0 z M 54.084688,12.58122 c 11.702835,1.542494 21.427251,9.607053 25.065526,20.773367 1.08981,3.336481 1.408361,5.465794 1.425134,9.322028 0,3.571209 -0.217962,5.2143 -1.08981,8.299287 -3.051457,10.898055 -12.172281,19.29794 -23.388898,21.56138 -2.313742,0.452688 -7.17595,0.620351 -9.590282,0.318559 C 40.85613,72.151663 35.289742,69.720555 30.880219,66.065515 15.237318,53.038149 16.528329,28.71034 33.47899,17.426662 39.581892,13.369233 46.92551,11.642311 54.084688,12.58122 Z"
       id="path20188"
       style="stroke-width:0.0167663" />
    <path
       d="m 32.640676,30.856419 c -0.519752,0.502986 -0.536525,0.989207 -0.0335,1.475429 0.201201,0.201194 3.470608,2.397572 7.259779,4.89574 l 6.890921,4.510118 -0.01675,0.855078 c -0.05036,3.772404 5.113703,4.946041 6.706493,1.525728 0.637113,-1.358065 0.469457,-2.649066 -0.486219,-3.738871 -1.056274,-1.190403 -2.61553,-1.525727 -4.141264,-0.871845 l -0.80477,0.352092 -7.108895,-4.711312 c -3.940065,-2.598767 -7.293312,-4.711313 -7.494501,-4.711313 -0.201201,0 -0.553286,0.184428 -0.771248,0.419156 z"
       id="path20190"
       style="stroke-width:0.0167663" />
    <path
       d="m 37.922035,90.292726 v 0.67065 h 1.173638 1.173638 v 3.101754 3.101754 h 0.754487 0.754475 V 94.06513 90.963376 h 1.08981 1.089798 v -0.67065 -0.670648 h -3.017923 -3.017923 z"
       id="path20520"
       style="stroke-width:0.0167663" />
    <path
       d="m 44.62854,90.292726 v 0.67065 h 0.754475 0.754486 v -0.67065 -0.670648 H 45.383015 44.62854 Z"
       id="path20522"
       style="stroke-width:0.0167663" />
    <path
       d="m 49.507509,91.902287 c -0.50298,0.419154 -0.519752,0.419154 -0.519752,0.08383 0,-0.301792 -0.100612,-0.352089 -0.670647,-0.352089 h -0.670647 v 2.766427 2.766428 h 0.754475 0.754486 v -1.978418 c 0,-2.129308 0.08386,-2.380802 0.838315,-2.380802 0.754475,0 0.838303,0.251494 0.838303,2.380802 v 1.978418 h 0.754486 0.754475 v -1.760452 c 0,-2.280209 0.268257,-2.833496 1.223933,-2.632303 0.469457,0.1006 0.620352,0.737717 0.620352,2.649066 v 1.743689 h 0.754487 0.754475 v -1.894582 c 0,-3.001155 -0.352085,-3.722101 -1.844285,-3.722101 -0.620353,0 -0.905382,0.100589 -1.223933,0.385624 l -0.419163,0.385619 -0.419151,-0.419154 c -0.60358,-0.603585 -1.576029,-0.603585 -2.280209,0 z"
       id="path20546"
       style="stroke-width:0.0167663" />
    <path
       d="m 57.890631,91.768158 c -0.318563,0.150896 -0.720953,0.486218 -0.905382,0.737714 -0.670647,0.905377 -0.670647,2.883793 0,3.805937 0.68742,0.922139 2.129314,1.274234 3.302952,0.788011 0.570047,-0.234728 1.274239,-0.989209 1.274239,-1.374832 0,-0.368857 -1.140105,-0.285026 -1.626335,0.1006 -0.754475,0.586818 -1.777218,0.285026 -1.928113,-0.586817 l -0.08386,-0.419158 h 1.89458 1.911352 v -0.637115 c 0,-0.888609 -0.637114,-2.028713 -1.341294,-2.39757 -0.737714,-0.402392 -1.760457,-0.402392 -2.498171,-0.01677 z m 1.978419,1.307764 c 0.201189,0.251494 0.352084,0.519757 0.352084,0.586821 0,0.08383 -0.486218,0.150896 -1.08981,0.150896 -1.20716,0 -1.391588,-0.201197 -0.754475,-0.838312 0.469458,-0.469455 1.073038,-0.419159 1.492201,0.100589 z"
       id="path20548"
       style="stroke-width:0.0167663" />
    <path
       d="m 44.62854,94.400457 v 2.766427 h 0.754475 0.754486 V 94.400457 91.634029 H 45.383015 44.62854 Z"
       id="path20550"
       style="stroke-width:0.0167663" />
  </g>
</svg>
