<?xml version="1.0" encoding="UTF-8" standalone="no"?>
<!-- Created with Inkscape (http://www.inkscape.org/) -->

<svg
   width="100mm"
   height="100mm"
   viewBox="0 0 100 100"
   version="1.1"
   id="svg26768"
   xmlns="http://www.w3.org/2000/svg"
   xmlns:svg="http://www.w3.org/2000/svg">
  <defs
     id="defs26765" />
  <g
     id="layer1">
    <path
       d="M 18.921095,1.9060208 C 17.701645,2.2820714 16.716708,3.472895 16.560369,4.7890694 16.5135,5.2277936 16.482182,20.081759 16.5135,37.803105 l 0.04687,32.214931 0.469014,0.7521 c 0.343949,0.564074 0.703526,0.893118 1.313251,1.206492 l 0.844237,0.438725 32.784334,-0.03135 32.768707,-0.047 0.656626,-0.438724 c 0.359585,-0.235031 0.844236,-0.720763 1.078748,-1.081143 l 0.437749,-0.658089 V 37.066672 3.9742927 L 86.444013,3.2848679 C 86.131336,2.8461437 85.67795,2.4700941 85.130762,2.1723873 L 84.270897,1.7493318 51.830504,1.7650032 c -17.853943,0 -32.659269,0.078348 -32.909409,0.1410176 z M 84.50541,4.3973511 c 0.297039,0.3603811 0.297039,1.096811 0.297039,32.7163279 v 32.340282 l -0.39085,0.37605 -0.375213,0.391718 H 51.908668 c -24.123139,0 -32.221519,-0.047 -32.534195,-0.188025 -0.250139,-0.10968 -0.453378,-0.37605 -0.562825,-0.736431 C 18.70222,68.921224 18.670947,58.438837 18.70222,36.721961 l 0.04687,-32.0269042 0.43776,-0.3760497 0.43775,-0.3760497 32.299684,0.031342 32.284055,0.047005 z"
       id="path20124"
       style="stroke-width:0.0156514" />
    <path
       d="m 48.53174,12.404077 c -11.100086,1.519868 -19.901983,9.902644 -21.918761,20.855093 -0.297039,1.551205 -0.312675,1.927255 -0.156337,2.475662 0.234512,0.752099 0.8286,1.48853 1.500853,1.86458 0.453387,0.2507 2.079314,0.266369 23.779207,0.266369 22.684823,0 23.310185,-0.01567 23.904273,-0.297708 0.359577,-0.188023 0.78169,-0.595411 1.047466,-1.018467 0.578461,-0.908787 0.594088,-1.786237 0.04687,-4.23056 -2.20438,-9.933982 -9.990075,-17.548988 -20.042695,-19.617263 -1.735364,-0.360381 -6.456807,-0.532737 -8.160908,-0.297706 z m 5.002864,2.209292 c 0.984929,0.09401 1.813528,0.188025 1.844803,0.219362 0.03131,0.01567 -0.06253,0.689426 -0.20324,1.472863 -0.14071,0.799105 -0.203247,1.504198 -0.156346,1.566874 0.109447,0.203694 0.891136,0.36038 1.031839,0.219362 0.06252,-0.06267 0.234511,-0.783437 0.359585,-1.598211 0.125073,-0.799107 0.265776,-1.488531 0.297039,-1.535537 0.234512,-0.235031 4.721453,1.394519 6.144132,2.224962 l 0.687899,0.407386 -0.422114,0.736431 c -0.234512,0.407387 -0.578461,1.0028 -0.7817,1.316175 -0.203238,0.329043 -0.359577,0.689423 -0.359577,0.799105 0,0.235031 0.734791,0.626749 0.938029,0.501399 0.07819,-0.047 0.453387,-0.689425 0.859873,-1.410186 l 0.719154,-1.331844 0.48465,0.26637 c 1.328888,0.783435 4.971592,4.23056 4.971592,4.700622 0,0.06267 -0.531552,0.470061 -1.17254,0.87745 -1.46959,0.971461 -1.579028,1.096811 -1.360152,1.598211 0.109438,0.219363 0.265775,0.391718 0.375213,0.391718 0.109438,0 0.73479,-0.376049 1.375779,-0.830443 0.640998,-0.454393 1.250722,-0.877449 1.360152,-0.940125 0.312684,-0.203693 2.266925,3.227761 3.111152,5.46839 l 0.359586,0.955795 -1.672838,0.470061 c -1.579025,0.423056 -1.672827,0.470062 -1.625925,0.830444 0.07818,0.767769 0.297047,0.799106 1.985512,0.329043 1.547754,-0.438724 1.56339,-0.438724 1.688463,-0.12535 0.203239,0.548406 0.594089,3.086743 0.500288,3.243429 -0.06252,0.09401 -2.814112,0.156688 -7.644993,0.156688 H 59.678735 L 59.569299,34.9984 c -0.171976,-1.081143 -1.12565,-2.789036 -2.126215,-3.823171 -0.515924,-0.532738 -0.906766,-1.049806 -0.875501,-1.143818 0.03131,-0.07835 0.734791,-1.096813 1.56339,-2.2563 1.6572,-2.318973 1.797902,-2.742029 1.094375,-3.290436 -0.8755,-0.689425 -1.17254,-0.470061 -3.220589,2.428656 -1.344516,1.880249 -1.657191,2.256299 -1.922977,2.177955 -2.970441,-0.830444 -5.862719,-0.09401 -8.00456,2.052605 -1.031839,1.018468 -2.00114,2.742029 -2.173115,3.854509 l -0.109438,0.595413 h -7.45739 c -6.019059,0 -7.504284,-0.047 -7.644985,-0.203693 -0.125075,-0.156688 -0.109437,-0.564076 0.06252,-1.535537 0.125065,-0.720762 0.234512,-1.347512 0.234512,-1.394518 0,-0.047 0.06252,-0.172357 0.1407,-0.282038 0.0938,-0.172356 0.422114,-0.125349 1.641564,0.203694 0.844228,0.235032 1.625927,0.376051 1.751001,0.329043 0.156338,-0.06267 0.218877,-0.266368 0.187602,-0.595411 -0.04687,-0.485732 -0.07818,-0.5014 -1.610289,-0.908788 -1.391426,-0.36038 -1.5634,-0.454393 -1.532127,-0.736431 0.06252,-0.564074 1.235077,-3.149417 2.001141,-4.418584 1.235086,-2.036936 0.953673,-1.942925 2.595227,-0.814774 1.360152,0.940124 1.422689,0.97146 1.719738,0.705093 0.531551,-0.470063 0.359577,-0.767768 -1.031838,-1.692225 -1.12564,-0.752098 -1.313252,-0.924454 -1.188186,-1.159486 0.437759,-0.830443 5.174839,-4.982659 5.378077,-4.716292 0.03131,0.03134 0.328313,0.548408 0.656626,1.159488 0.8286,1.535536 0.953664,1.660887 1.422688,1.457193 0.203238,-0.09401 0.375213,-0.282038 0.375213,-0.423056 0,-0.141019 -0.312676,-0.799106 -0.703526,-1.457193 -0.390849,-0.673756 -0.703526,-1.284836 -0.703526,-1.363181 0,-0.391717 4.612006,-2.303304 6.269196,-2.60101 l 0.562825,-0.109682 0.203239,1.472862 c 0.09381,0.799106 0.250147,1.535537 0.328322,1.629549 0.07818,0.09401 0.359576,0.141019 0.625353,0.09401 l 0.500286,-0.07835 -0.109437,-0.830445 c -0.04687,-0.470053 -0.140706,-1.222155 -0.187606,-1.692215 l -0.109438,-0.846112 1.000575,-0.09401 c 1.203813,-0.109681 2.016777,-0.188024 2.329453,-0.219362 0.125074,-0.01567 1.047475,0.047 2.032413,0.141018 z m 0.469014,16.79689 c 1.391425,0.517069 2.829741,2.162287 3.345665,3.823173 l 0.109438,0.360381 h -5.722019 -5.722017 l 0.109438,-0.360381 c 1.047475,-3.384448 4.518204,-5.076672 7.879495,-3.823173 z"
       id="path20126"
       style="stroke-width:0.0156514" />
    <path
       d="m 42.25407,90.3874 c 0,0.06267 0.469014,1.551204 1.047466,3.290434 l 1.063111,3.180755 h 0.640989 0.640998 l 1.063103,-3.102411 c 0.594088,-1.692225 1.094375,-3.180754 1.141275,-3.290435 0.04688,-0.125348 -0.14071,-0.188028 -0.656625,-0.188028 h -0.703526 l -0.312677,1.04981 c -0.171974,0.595409 -0.469023,1.629545 -0.656633,2.318972 -0.187603,0.689425 -0.390842,1.300505 -0.437742,1.363179 -0.04687,0.06267 -0.406486,-0.971462 -0.7817,-2.303303 L 43.61422,90.277715 h -0.672261 c -0.375214,0 -0.687889,0.04701 -0.687889,0.109685 z"
       id="path20508"
       style="stroke-width:0.0156514" />
    <path
       d="m 53.197808,93.568154 v 3.290435 h 0.625361 0.625362 v -3.290435 -3.290439 h -0.625362 -0.625361 z"
       id="path20510"
       style="stroke-width:0.0156514" />
    <path
       d="m 49.03919,92.063953 c -0.547189,0.235034 -1.000567,0.799108 -1.000567,1.222164 0,0.423056 1.110004,0.391717 1.37578,-0.03136 0.234511,-0.391717 1.235086,-0.438726 1.375787,-0.07835 0.156338,0.40739 -0.218876,0.658088 -1.141276,0.783436 -1.141277,0.141019 -1.766638,0.705093 -1.766638,1.598215 0.01565,1.284834 1.281988,1.864577 2.470164,1.143814 0.43775,-0.266367 0.515924,-0.282036 0.594088,-0.07835 0.06252,0.156689 0.312677,0.235033 0.812964,0.235033 0.562824,0 0.672262,-0.047 0.531551,-0.188023 -0.125064,-0.125349 -0.187602,-0.814777 -0.187602,-2.036935 0,-2.083946 -0.109438,-2.318974 -1.203813,-2.616681 -0.7817,-0.219362 -1.26635,-0.203693 -1.860438,0.047 z m 1.6572,3.400119 c -0.29705,0.689423 -1.266351,0.830441 -1.51649,0.203692 -0.156347,-0.423056 0.171965,-0.752097 0.906764,-0.924456 0.797328,-0.203693 0.922401,-0.047 0.609726,0.720764 z"
       id="path20526"
       style="stroke-width:0.0156514" />
    <path
       d="m 62.187325,92.157968 c -0.359586,0.172353 -0.766063,0.532735 -0.938038,0.814771 -0.375214,0.658089 -0.39085,2.193626 -0.03131,2.898718 0.484651,0.908786 2.079314,1.425857 2.970452,0.971461 0.500277,-0.266367 1.203803,-0.955791 1.203803,-1.190823 0,-0.297708 -1.156903,-0.266368 -1.407051,0.03136 -0.453379,0.548405 -1.719729,0.10968 -1.719729,-0.595413 0,-0.235029 0.218875,-0.266369 1.657191,-0.266369 h 1.672836 L 65.486042,94.085241 C 65.360968,93.12945 64.970118,92.5027 64.297866,92.14232 63.594339,91.766268 62.968978,91.766268 62.187278,92.158 Z m 1.672828,1.049805 c 0.531551,0.485731 0.359576,0.673754 -0.656625,0.673754 -0.515925,0 -0.938038,-0.047 -0.938038,-0.125349 0,-0.06267 0.109438,-0.282037 0.250147,-0.470061 0.281404,-0.407386 0.938029,-0.454396 1.344516,-0.07835 z"
       id="path20528"
       style="stroke-width:0.0156514" />
    <path
       d="m 55.855583,93.865862 c 0,1.034133 0.06252,2.0526 0.156337,2.287633 0.328314,0.861781 1.86044,1.034134 2.673403,0.297707 0.281412,-0.250703 0.297039,-0.250703 0.297039,0.06267 0,0.297707 0.09381,0.344712 0.625361,0.344712 h 0.625353 v -2.428649 -2.428657 h -0.703525 -0.703526 v 1.692225 c 0,1.457191 -0.04688,1.739228 -0.281413,1.958591 -0.328312,0.297705 -0.703526,0.329047 -1.141276,0.109684 -0.265775,-0.15669 -0.297039,-0.344713 -0.297039,-1.958597 v -1.801903 h -0.625363 -0.625351 z"
       id="path20540"
       style="stroke-width:0.0156514" />
  </g>
</svg>
