<?xml version="1.0" encoding="UTF-8" standalone="no"?>
<!-- Created with Inkscape (http://www.inkscape.org/) -->

<svg
   width="100mm"
   height="100mm"
   viewBox="0 0 100 100"
   version="1.1"
   id="svg26768"
   xmlns="http://www.w3.org/2000/svg"
   xmlns:svg="http://www.w3.org/2000/svg">
  <defs
     id="defs26765" />
  <path
     d="M 46.35445,1.2076465 C 40.7584,2.0245875 34.9377,5.1085405 31.179767,9.2136695 27.830306,12.889905 25.39991,17.771128 24.705506,22.243881 l -0.265505,1.715577 -2.838869,0.02043 c -3.267765,0.04085 -5.126306,0.428894 -7.6384,1.613459 -4.5544474,2.164893 -7.6588234,5.861543 -9.1088944,10.844893 -2.716328,9.39481 3.06353,19.25938 12.6421654,21.5264 1.695153,0.40846 2.267012,0.40846 32.024097,0.36762 l 30.28809,-0.0613 1.79727,-0.57185 c 5.96367,-1.85853 10.72235,-6.0862 13.03021,-11.55971 1.10287,-2.63463 1.49092,-4.69741 1.49092,-7.88348 -0.0204,-2.40998 -0.10212,-3.16565 -0.55144,-4.84038 C 93.65534,26.185609 87.91633,20.446598 80.82936,18.649327 80.05327,18.465515 78.31727,18.240856 76.98974,18.159162 L 74.57976,18.036621 73.90579,16.464009 C 70.47464,8.5805395 62.9792,2.7394105 54.40132,1.3097645 52.33854,0.96256352 48.35595,0.92171652 46.35445,1.2076465 Z m 9.2927,3.308611 c 7.7201,2.001506 13.33657,7.2095065 16.29798,15.0929885 0.63313,1.736 0.67398,1.776847 1.20499,1.654306 1.10287,-0.306353 5.59605,-0.163389 6.96442,0.224659 3.92132,1.082447 7.69967,3.778353 9.98711,7.127809 0.93948,1.3888 2.16489,4.06428 2.59378,5.75944 0.51059,1.96066 0.51059,6.00452 0,7.96517 -1.40922,5.45309 -5.39181,10.02795 -10.41599,11.96819 -3.24734,1.24584 -1.94024,1.20499 -33.69883,1.20499 -28.225313,0 -29.103525,-0.0204 -30.63529,-0.40847 -2.532517,-0.63313 -4.656564,-1.87897 -6.555952,-3.77835 -1.8176944,-1.83812 -2.7571764,-3.26777 -3.4924234,-5.39182 -2.7776,-8.00602 1.858541,-16.6656 9.9871054,-18.60583 2.246588,-0.55144 5.881979,-0.49016 8.639155,0.10212 0.408467,0.0817 0.449317,-0.0613 0.755666,-2.634637 0.735247,-5.84113 2.593789,-10.00753 6.167906,-13.785883 3.472003,-3.6762345 8.230683,-6.1679055 13.275293,-6.9644235 2.18532,-0.326776 6.69892,-0.102118 8.92508,0.469741 z"
     id="path7388"
     style="stroke-width:0.0204235" />
  <path
     d="m 42.4944,14.973105 c -3.43115,1.143718 -6.49468,2.267012 -6.78061,2.471247 -0.28593,0.224659 -0.71483,0.755671 -0.93948,1.225412 -0.38805,0.796517 -0.408475,1.204988 -0.408475,12.397086 0,12.60131 -0.02044,12.37665 1.143725,13.43868 0.81694,0.75567 13.25487,4.88122 14.70494,4.88122 1.42965,0 13.82673,-4.12555 14.66409,-4.88122 1.16414,-1.06203 1.14372,-0.83737 1.14372,-13.39784 0,-9.292703 -0.0613,-11.682255 -0.28593,-12.213268 -0.53102,-1.307105 -1.20499,-1.633882 -8.04687,-3.900894 -5.45309,-1.817693 -6.69892,-2.164893 -7.7201,-2.14447 -0.9599,0 -2.47124,0.428894 -7.47501,2.124047 z m 14.2352,2.736753 6.12706,2.021929 0.0613,3.594542 0.0409,3.594541 H 50.09204 37.22521 v -3.553695 -3.553694 l 6.08622,-2.042353 c 3.32903,-1.123294 6.35171,-2.062776 6.67849,-2.062776 0.3472,0 3.36988,0.898635 6.73976,2.001506 z m 6.43341,14.214772 v 3.57412 H 50.19407 37.22513 v -3.57412 -3.57411 h 12.96894 12.96894 z m 0,7.63841 c 0,1.85853 -0.0817,2.6959 -0.24508,2.83887 -0.3472,0.2655 -12.21327,4.12555 -12.72386,4.12555 -0.20423,0 -3.22692,-0.91906 -6.67849,-2.04236 L 37.22513,42.42232 V 39.68557 36.9284 h 12.96894 12.96894 z"
     id="path7390"
     style="stroke-width:0.0204235" />
  <path
     d="m 38.65478,23.346752 v 0.714824 h 2.14447 2.14447 v -0.714824 -0.714824 h -2.14447 -2.14447 z"
     id="path7392"
     style="stroke-width:0.0204235" />
  <path
     d="m 44.37337,23.346752 v 0.714824 h 5.00376 5.00377 v -0.714824 -0.714824 h -5.00377 -5.00376 z"
     id="path7394"
     style="stroke-width:0.0204235" />
  <path
     d="m 55.81054,23.346752 v 0.714824 h 2.96141 2.96142 v -0.714824 -0.714824 h -2.96142 -2.96141 z"
     id="path7396"
     style="stroke-width:0.0204235" />
  <path
     d="m 38.65478,31.92463 v 0.71483 h 9.39482 9.39483 V 31.92463 31.20981 H 48.0496 38.65478 Z"
     id="path7398"
     style="stroke-width:0.0204235" />
  <path
     d="m 58.87407,31.92463 v 0.71483 h 1.42965 1.42965 v -0.71483 -0.71482 h -1.42965 -1.42965 z"
     id="path7400"
     style="stroke-width:0.0204235" />
  <path
     d="m 38.65478,40.50251 v 0.71483 h 3.57412 3.57411 V 40.50251 39.78769 H 42.2289 38.65478 Z"
     id="path7402"
     style="stroke-width:0.0204235" />
  <path
     d="m 48.66231,40.50251 v 0.71483 h 6.53553 6.53553 v -0.71483 -0.71482 h -6.53553 -6.53553 z"
     id="path7404"
     style="stroke-width:0.0204235" />
  <path
     d="m 14.963486,89.9683 c 0,0.0817 0.612705,2.02193 1.368376,4.28894 l 1.3888,4.14598 h 0.837364 0.837365 l 1.3888,-4.04386 c 0.776094,-2.20574 1.429644,-4.14598 1.490919,-4.28894 0.06127,-0.16339 -0.183812,-0.24508 -0.85779,-0.24508 h -0.919058 l -0.408471,1.36837 c -0.224659,0.7761 -0.612706,2.12405 -0.857788,3.02268 -0.245083,0.89864 -0.510588,1.69516 -0.571859,1.77685 -0.06127,0.0817 -0.531012,-1.26626 -1.021176,-3.00225 l -0.898636,-3.16565 h -0.878211 c -0.490165,0 -0.898635,0.0613 -0.898635,0.14296 z"
     id="path7440"
     style="stroke-width:0.0204235" />
  <path
     d="m 23.132894,90.54016 c 0,0.6944 0.02044,0.71483 0.816946,0.71483 0.796516,0 0.816941,-0.0204 0.816941,-0.71483 0,-0.6944 -0.02044,-0.71482 -0.816941,-0.71482 -0.796521,0 -0.816946,0.0204 -0.816946,0.71482 z"
     id="path7442"
     style="stroke-width:0.0204235" />
  <path
     d="m 48.86654,94.11428 v 4.28894 h 0.81694 0.81695 v -4.28894 -4.28894 h -0.81695 -0.81694 z"
     id="path7444"
     style="stroke-width:0.0204235" />
  <path
     d="m 55.40207,94.11428 v 4.28894 h 0.81694 0.81694 v -4.28894 -4.28894 h -0.81694 -0.81694 z"
     id="path7446"
     style="stroke-width:0.0204235" />
  <path
     d="m 70.10701,91.25499 v 1.42964 l -0.65355,-0.40847 c -0.87821,-0.53101 -1.57261,-0.51059 -2.4304,0.0613 -0.91906,0.61271 -1.40922,1.63388 -1.40922,2.96141 0,2.55294 1.96065,4.04386 3.83962,2.90014 0.53101,-0.32677 0.65355,-0.3472 0.65355,-0.10212 0,0.22467 0.22466,0.30636 0.81694,0.30636 h 0.81694 v -4.28894 -4.28894 h -0.81694 -0.81694 z m -0.42889,2.55294 c 0.16339,0.16338 0.32678,0.71482 0.36762,1.26625 0.0817,0.79652 0.0204,1.08245 -0.3472,1.53177 -1.18456,1.53176 -2.92056,-0.14297 -2.24658,-2.18532 0.34719,-1.08245 1.42964,-1.36838 2.22616,-0.6127 z"
     id="path7448"
     style="stroke-width:0.0204235" />
  <path
     d="m 31.30231,91.25499 c 0,0.67397 -0.06127,0.81694 -0.408473,0.81694 -0.326774,0 -0.408467,0.14296 -0.408467,0.6127 0,0.46974 0.08169,0.6127 0.408467,0.6127 0.388048,0 0.408473,0.14297 0.408473,2.22617 0,2.65506 0.122538,2.87972 1.654306,2.87972 0.980327,0 1.000752,-0.0204 1.000752,-0.6127 0,-0.5106 -0.08169,-0.61271 -0.510591,-0.61271 -0.510586,0 -0.510586,0 -0.510586,-1.94024 0,-1.94024 0,-1.94024 0.510586,-1.94024 0.428898,0 0.510591,-0.10211 0.510591,-0.6127 0,-0.51058 -0.08169,-0.6127 -0.510591,-0.6127 -0.449317,0 -0.510586,-0.0817 -0.510586,-0.81694 v -0.81694 h -0.81694 -0.816941 z"
     id="path7514"
     style="stroke-width:0.0204235" />
  <path
     d="m 28.912758,92.17405 c -0.367624,0.16338 -0.673979,0.38804 -0.673979,0.51058 0,0.10212 -0.08169,0.20424 -0.204236,0.20424 -0.102119,0 -0.204237,-0.18381 -0.204237,-0.40848 0,-0.32677 -0.142962,-0.40846 -0.714822,-0.40846 h -0.714822 v 3.16564 3.16565 h 0.81694 0.816941 v -1.89939 c 0,-2.18532 0.224661,-2.67548 1.327531,-2.87972 0.673973,-0.14296 0.714823,-0.18381 0.714823,-0.93948 0,-0.89863 -0.142962,-0.9599 -1.164139,-0.51058 z"
     id="path7560"
     style="stroke-width:0.0204235" />
  <path
     d="m 43.43389,92.15362 c -0.71483,0.30636 -1.30711,1.0416 -1.30711,1.59304 0,0.55143 1.45007,0.51058 1.79727,-0.0409 0.30635,-0.51058 1.61346,-0.57186 1.79727,-0.10211 0.20424,0.53101 -0.28593,0.85779 -1.49092,1.02117 -1.49092,0.18382 -2.30786,0.91906 -2.30786,2.0832 0.0204,1.67473 1.67473,2.4304 3.22692,1.49092 0.57186,-0.3472 0.67398,-0.36762 0.7761,-0.10212 0.0817,0.20424 0.40846,0.30636 1.06202,0.30636 0.73524,0 0.87821,-0.0613 0.6944,-0.24508 -0.16339,-0.1634 -0.24509,-1.06203 -0.24509,-2.65506 0,-2.71633 -0.14296,-3.02269 -1.57261,-3.41073 -1.02118,-0.28593 -1.6543,-0.26551 -2.43039,0.0613 z m 2.16489,4.43191 c -0.38805,0.89863 -1.65431,1.08244 -1.98108,0.2655 -0.20424,-0.55143 0.22465,-0.98033 1.18456,-1.20499 1.0416,-0.2655 1.20499,-0.0613 0.79652,0.93949 z"
     id="path7562"
     style="stroke-width:0.0204235" />
  <path
     d="m 61.28405,92.23531 c -0.61271,0.32678 -0.7761,0.3472 -0.7761,0.12255 0,-0.20424 -0.24508,-0.28593 -0.81694,-0.28593 h -0.81694 v 3.16564 3.16565 h 0.81694 0.81694 v -2.14447 c 0,-1.89939 0.0409,-2.18532 0.4289,-2.57337 0.55144,-0.55143 1.42965,-0.44931 1.75642,0.22466 0.16339,0.30635 0.26551,1.30711 0.26551,2.49168 v 2.0015 h 0.81694 0.81694 V 95.9524 c 0,-1.32753 -0.10212,-2.65507 -0.22466,-2.92057 -0.46974,-1.02118 -1.91981,-1.3888 -3.08395,-0.79652 z"
     id="path7564"
     style="stroke-width:0.0204235" />
  <path
     d="m 74.49807,92.27616 c -0.46974,0.22466 -1.00075,0.6944 -1.22541,1.06202 -0.49016,0.85779 -0.51059,2.8593 -0.0408,3.77836 0.63313,1.18456 2.71633,1.85854 3.88047,1.26625 0.65356,-0.34719 1.57262,-1.24583 1.57262,-1.55218 0,-0.38805 -1.51135,-0.3472 -1.83812,0.0409 -0.59229,0.71482 -2.24659,0.14296 -2.24659,-0.7761 0,-0.30635 0.28593,-0.3472 2.16489,-0.3472 h 2.18532 l -0.14297,-0.9599 c -0.16338,-1.24584 -0.67397,-2.06278 -1.55218,-2.53252 -0.91906,-0.49016 -1.736,-0.49016 -2.75718,0.0204 z m 2.18532,1.36838 c 0.6944,0.63313 0.46974,0.87821 -0.85779,0.87821 -0.67398,0 -1.22541,-0.0613 -1.22541,-0.16339 0,-0.0817 0.14296,-0.36762 0.32677,-0.6127 0.36763,-0.53102 1.22542,-0.59229 1.75643,-0.10212 z"
     id="path7566"
     style="stroke-width:0.0204235" />
  <path
     d="m 23.132894,95.23757 v 3.16565 h 0.816946 0.816941 V 95.23757 92.07193 H 23.94984 23.132894 Z"
     id="path7656"
     style="stroke-width:0.0204235" />
  <path
     d="m 34.97855,94.50232 c 0,1.34796 0.0817,2.67549 0.20423,2.98184 0.42889,1.1233 2.4304,1.34795 3.49242,0.38805 0.36763,-0.32678 0.38805,-0.32678 0.38805,0.0817 0,0.38805 0.12254,0.44932 0.81694,0.44932 h 0.81694 v -3.16565 -3.16564 h -0.91905 -0.91906 v 2.20574 c 0,1.89938 -0.0613,2.26701 -0.36763,2.55294 -0.42889,0.38805 -0.91906,0.42889 -1.49092,0.14297 -0.3472,-0.20424 -0.38804,-0.44933 -0.38804,-2.55295 v -2.3487 h -0.81694 -0.81694 z"
     id="path7658"
     style="stroke-width:0.0204235" />
  <path
     d="m 79.50184,92.15362 c 0,0.0613 0.40846,0.75567 0.91906,1.55219 0.51058,0.79651 0.91905,1.47049 0.91905,1.53176 0,0.0613 -0.30635,0.53102 -0.6944,1.06203 -0.36762,0.55143 -0.83736,1.22541 -1.04159,1.53176 l -0.34721,0.57186 h 1.00076 c 0.9599,0 1.02117,-0.0409 1.47049,-0.81694 0.24508,-0.44932 0.53101,-0.81694 0.63313,-0.81694 0.10212,0 0.38804,0.36762 0.61271,0.81694 0.40847,0.79651 0.44931,0.81694 1.45006,0.81694 h 1.04161 L 85.09788,97.83136 C 84.91407,97.52501 84.4239,96.81018 84.03586,96.2179 l -0.6944,-1.0416 1.0416,-1.55219 1.06202,-1.55218 h -1.00075 c -0.95991,0 -1.00075,0.0204 -1.51134,0.93948 l -0.51059,0.93948 -0.49017,-0.87821 c -0.46974,-0.83737 -0.55143,-0.89863 -1.47049,-0.95991 -0.53101,-0.0408 -0.9599,-0.0204 -0.9599,0.0409 z"
     id="path7660"
     style="stroke-width:0.0204235" />
</svg>
