<?xml version="1.0" encoding="UTF-8" standalone="no"?>
<!-- Created with Inkscape (http://www.inkscape.org/) -->

<svg
   width="100mm"
   height="100mm"
   viewBox="0 0 100 100"
   version="1.1"
   id="svg26768"
   xmlns="http://www.w3.org/2000/svg"
   xmlns:svg="http://www.w3.org/2000/svg">
  <defs
     id="defs26765" />
  <path
     d="M 10.592353,2.1404347 C 10.232716,2.3297166 9.7595083,2.7272115 9.5512973,3.011136 L 9.1538043,3.5411271 9.0970143,38.29345 c -0.03786,34.714467 -0.03786,34.752324 0.340709,35.566239 0.7571307,1.533191 -3.1042388,1.400693 41.1122277,1.400693 37.837624,0 39.465466,-0.01893 40.071162,-0.340708 0.359638,-0.189283 0.813916,-0.643563 1.003195,-1.0032 0.321788,-0.605705 0.340708,-2.101038 0.340708,-35.3391 0,-38.12155719 0.07568,-35.5094533 -1.097834,-36.3233699 C 90.375045,1.9322228 88.595784,1.9132949 50.796009,1.8565102 13.412661,1.8186503 11.198052,1.8375803 10.592348,2.1404347 Z m 5.186349,4.8834962 c 0.264995,0.2460677 0.473207,0.6057047 0.473207,0.7760588 0,0.4542796 -0.738204,1.2114104 -1.173555,1.2114104 -0.435349,0 -1.287123,-0.8139166 -1.287123,-1.2303383 0,-0.3974938 0.832846,-1.2303383 1.23034,-1.2303383 0.170354,0 0.511063,0.2082108 0.757131,0.4732074 z m 4.73207,0 c 0.264993,0.2460677 0.473206,0.6057047 0.473206,0.7760588 0,0.4542796 -0.738203,1.2114104 -1.173553,1.2114104 -0.43535,0 -1.287123,-0.8139166 -1.287123,-1.2303383 0,-0.3974938 0.832844,-1.2303383 1.230338,-1.2303383 0.170355,0 0.511064,0.2082108 0.757132,0.4732074 z m 66.248983,0 c 0.605707,0.5867758 0.605707,1.0978401 -0.01897,1.5899754 L 86.229726,9.0114001 H 56.360908 c -29.64169,0 -29.887757,0 -30.266325,-0.3785659 -0.624635,-0.6246337 -0.416421,-1.665688 0.378568,-1.9496124 0.151424,-0.05679 13.685145,-0.1135704 30.058106,-0.1135704 l 29.774189,-0.01893 z M 89.50435,43.271588 V 72.799705 H 50.512102 11.519839 V 43.271588 13.74347 H 50.512102 89.50435 Z"
     id="path6710"
     style="stroke-width:0.0189283" />
  <path
     d="m 13.92373,16.147361 c -0.07571,0.05679 -0.132499,1.684617 -0.132499,3.596374 v 3.463875 h 36.720871 36.72086 V 19.611238 16.014863 H 50.64459 c -20.139688,0 -36.664076,0.05679 -36.72086,0.132498 z m 72.457457,3.463877 v 2.7446 H 50.512102 14.643005 l -0.05679,-2.536389 c -0.01893,-1.400694 0,-2.668888 0.03786,-2.801386 0.07571,-0.208211 6.624896,-0.246068 35.925876,-0.208211 l 35.831236,0.05679 z"
     id="path6712"
     style="stroke-width:0.0189283" />
  <path
     d="m 13.92373,25.611502 c -0.07571,0.05679 -0.132499,10.202344 -0.132499,22.524654 V 70.528313 H 37.451582 61.111934 V 48.003659 25.479004 H 37.584081 c -12.946944,0 -23.603567,0.05679 -23.660351,0.132498 z m 46.431068,22.392157 v 21.767522 l -22.846426,-0.03786 -22.865367,-0.05679 -0.05679,-21.483599 c -0.01893,-11.811247 0,-21.597168 0.05679,-21.729666 0.05679,-0.170354 4.826711,-0.227139 22.903211,-0.227139 h 22.808576 z"
     id="path6714"
     style="stroke-width:0.0189283" />
  <path
     d="m 63.57261,32.577109 v 7.098106 H 75.402786 87.232962 V 32.577109 25.479004 H 75.402786 63.57261 Z m 22.865367,0.03786 0.03784,6.303117 h -11.07304 -11.07304 v -6.340974 -6.340973 l 11.03518,0.03786 11.01626,0.05678 z"
     id="path6716"
     style="stroke-width:0.0189283" />
  <path
     d="m 63.57261,56.332103 v 14.19621 H 75.402786 87.232962 V 56.332103 42.135892 H 75.402786 63.57261 Z m 22.865367,-0.05679 -0.05681,13.401222 -11.016261,0.05678 -11.035179,0.03786 V 56.332103 42.893022 h 11.073039 11.07304 z"
     id="path6718"
     style="stroke-width:0.0189283" />
  <path
     d="m 14.643005,90.630144 c 0.07571,0.246067 0.567848,2.006401 1.09784,3.937084 l 1.003198,3.501732 0.794989,0.05678 c 0.43535,0.03788 0.794988,0.01894 0.794988,-0.03783 0,-0.113571 1.116768,-5.432415 1.192481,-5.697411 0.03785,-0.09464 0.302853,1.022127 0.586777,2.460676 0.700346,3.577444 0.567848,3.312448 1.495336,3.312448 h 0.794984 l 1.041057,-3.709946 c 0.567846,-2.044254 1.059985,-3.842436 1.097839,-3.974937 0.05679,-0.189284 -0.170354,-0.264996 -0.77606,-0.264996 h -0.851772 l -0.397493,1.741403 c -0.208213,0.965339 -0.492133,2.214609 -0.624635,2.744603 -0.113566,0.548916 -0.246066,0.984267 -0.264996,0.946408 -0.03783,-0.03783 -0.28392,-1.116764 -0.548917,-2.403887 -0.681418,-3.274595 -0.567849,-3.028527 -1.514264,-3.028527 -0.473206,0 -0.851772,0.09464 -0.908557,0.227143 -0.03786,0.132495 -0.283924,1.324976 -0.529992,2.649954 -0.246067,1.343912 -0.492134,2.422822 -0.54892,2.422822 -0.05679,0 -0.359637,-1.173553 -0.681418,-2.612101 l -0.567848,-2.593177 -0.88963,-0.05678 c -0.851772,-0.05679 -0.889629,-0.03788 -0.794987,0.378563 z"
     id="path6800"
     style="stroke-width:0.0189283" />
  <path
     d="m 31.394534,94.188665 v 3.974937 h 0.662487 c 0.454278,0 0.662487,-0.09464 0.662487,-0.283926 0,-0.359633 0.170359,-0.359633 0.586776,0.01894 0.18929,0.170354 0.662497,0.340709 1.059985,0.378568 1.514261,0.189277 2.574256,-1.09784 2.574256,-3.142099 0,-1.854971 -0.927485,-2.95281 -2.460677,-2.914951 -0.492147,0.01894 -0.965344,0.151425 -1.192483,0.359632 -0.378568,0.34071 -0.378568,0.321786 -0.378568,-1.003197 v -1.362837 h -0.757136 -0.757127 z m 3.653161,-0.15143 c 0.454278,0.548922 0.435348,1.854975 -0.07568,2.498535 -1.041054,1.324982 -2.555316,-0.170356 -2.044248,-2.025325 0.302848,-1.097839 1.362832,-1.343907 2.119968,-0.47321 z"
     id="path6802"
     style="stroke-width:0.0189283" />
  <path
     d="m 41.237242,94.188665 v 3.974937 h 0.757136 0.757125 v -3.974937 -3.974942 h -0.757125 -0.757136 z"
     id="path6804"
     style="stroke-width:0.0189283" />
  <path
     d="m 65.862938,90.705857 c -0.227149,0.283926 -0.397498,0.757136 -0.397498,1.041056 0,0.416422 -0.09465,0.548923 -0.378568,0.548923 -0.302858,0 -0.378568,0.132496 -0.378568,0.567846 0,0.435352 0.07568,0.567847 0.378568,0.567847 0.359638,0 0.378568,0.132502 0.378568,2.36604 v 2.366033 h 0.757126 0.757136 v -2.366033 -2.36604 h 0.586777 c 0.511067,0 0.567847,-0.05678 0.511067,-0.529988 -0.03784,-0.397497 -0.170359,-0.529993 -0.586777,-0.567852 -0.643566,-0.07571 -0.643566,-0.605704 0.01897,-0.889626 0.283919,-0.1325 0.416418,-0.340709 0.416418,-0.700347 0,-0.492134 -0.05681,-0.529993 -0.832846,-0.529993 -0.681416,0 -0.908555,0.09464 -1.230333,0.492134 z"
     id="path6806"
     style="stroke-width:0.0189283" />
  <path
     d="m 51.269227,91.538706 c 0,0.624629 -0.05681,0.75713 -0.378568,0.75713 -0.302848,0 -0.378557,0.132496 -0.378557,0.567846 0,0.435352 0.07568,0.567847 0.378557,0.567847 0.359638,0 0.378568,0.132502 0.378568,2.063184 0,2.460676 0.11357,2.668889 1.533192,2.668889 0.908555,0 0.927485,-0.01894 0.927485,-0.567846 0,-0.473211 -0.07568,-0.567852 -0.473208,-0.567852 -0.473207,0 -0.473207,0 -0.473207,-1.798187 0,-1.798188 0,-1.798188 0.473207,-1.798188 0.397498,0 0.473208,-0.09464 0.473208,-0.567847 0,-0.473204 -0.07568,-0.567846 -0.473208,-0.567846 -0.416428,0 -0.473207,-0.07571 -0.473207,-0.75713 v -0.757131 h -0.757126 -0.757136 z"
     id="path6898"
     style="stroke-width:0.0189283" />
  <path
     d="m 26.37854,92.48512 c -0.43535,0.208208 -0.927485,0.643559 -1.135699,0.984268 -0.454279,0.79499 -0.473204,2.64996 -0.03788,3.501732 0.586781,1.09784 2.517465,1.722475 3.596375,1.173553 0.605705,-0.32178 1.457478,-1.154623 1.457478,-1.438549 0,-0.359639 -1.40069,-0.32178 -1.703546,0.03788 -0.548917,0.662489 -2.082107,0.132496 -2.082107,-0.719277 0,-0.283925 0.264991,-0.321779 2.006395,-0.321779 h 2.025325 l -0.132495,-0.889632 c -0.151426,-1.154623 -0.624636,-1.911753 -1.43855,-2.347104 -0.851772,-0.45428 -1.608903,-0.45428 -2.555317,0.01894 z m 2.025325,1.268194 c 0.64356,0.586776 0.435351,0.813914 -0.79499,0.813914 -0.624629,0 -1.135692,-0.05678 -1.135692,-0.151425 0,-0.07571 0.132495,-0.340709 0.302849,-0.567847 0.340709,-0.492139 1.135699,-0.548922 1.627833,-0.09464 z"
     id="path6912"
     style="stroke-width:0.0189283" />
  <path
     d="m 46.499303,92.447261 c -0.567857,0.30285 -0.719276,0.32178 -0.719276,0.113571 0,-0.189284 -0.227139,-0.264996 -0.757136,-0.264996 h -0.757126 v 2.933881 2.933885 h 0.757126 0.757136 v -1.987471 c 0,-1.760328 0.03784,-2.025325 0.397488,-2.384964 0.511067,-0.511063 1.324982,-0.41642 1.627831,0.208214 0.151439,0.283921 0.246079,1.211411 0.246079,2.309251 v 1.85497 h 0.757125 0.757137 V 95.89221 c 0,-1.23034 -0.09465,-2.460681 -0.20822,-2.706747 -0.435347,-0.946415 -1.77925,-1.287124 -2.858164,-0.738202 z"
     id="path6914"
     style="stroke-width:0.0189283" />
  <path
     d="m 55.717373,92.48512 c -0.435347,0.208208 -0.927485,0.643559 -1.135694,0.984268 -0.454277,0.79499 -0.473207,2.64996 -0.03784,3.501732 0.586777,1.09784 2.517467,1.722475 3.596371,1.173553 0.605707,-0.32178 1.457482,-1.154623 1.457482,-1.438549 0,-0.359639 -1.400692,-0.32178 -1.703551,0.03788 -0.548917,0.662489 -2.082109,0.132496 -2.082109,-0.719277 0,-0.283925 0.264999,-0.321779 2.0064,-0.321779 h 2.025329 l -0.1325,-0.889632 c -0.151429,-1.154623 -0.624636,-1.911753 -1.438552,-2.347104 -0.851765,-0.45428 -1.608901,-0.45428 -2.555316,0.01894 z m 2.025329,1.268194 c 0.643556,0.586776 0.435348,0.813914 -0.794996,0.813914 -0.624626,0 -1.135694,-0.05678 -1.135694,-0.151425 0,-0.07571 0.1325,-0.340709 0.302859,-0.567847 0.340708,-0.492139 1.135694,-0.548922 1.627831,-0.09464 z"
     id="path6916"
     style="stroke-width:0.0189283" />
  <path
     d="m 63.250832,92.390478 c -0.340708,0.151425 -0.624636,0.359633 -0.624636,0.473204 0,0.09464 -0.07568,0.189284 -0.189279,0.189284 -0.09465,0 -0.189289,-0.170354 -0.189289,-0.378568 0,-0.30285 -0.132489,-0.378562 -0.662487,-0.378562 h -0.662486 v 2.933881 2.933885 h 0.757126 0.757136 v -1.760328 c 0,-2.02533 0.208209,-2.479605 1.230333,-2.668889 0.624637,-0.132502 0.662497,-0.170354 0.662497,-0.870703 0,-0.832842 -0.1325,-0.889626 -1.078915,-0.473204 z"
     id="path6918"
     style="stroke-width:0.0189283" />
  <path
     d="m 69.894656,92.371548 c -0.662486,0.283927 -1.211403,0.965345 -1.211403,1.476408 0,0.511063 1.343903,0.473205 1.665681,-0.03788 0.283928,-0.473204 1.495331,-0.529992 1.665691,-0.09464 0.189279,0.492134 -0.264999,0.79499 -1.381763,0.946415 -1.381762,0.170354 -2.138898,0.851772 -2.138898,1.930682 0.01897,1.55212 1.552122,2.252468 2.990674,1.381766 0.529987,-0.321779 0.624626,-0.340709 0.719266,-0.09464 0.07568,0.189284 0.378568,0.283927 0.984274,0.283927 0.681417,0 0.813916,-0.05678 0.643557,-0.227138 -0.151419,-0.15143 -0.227139,-0.984274 -0.227139,-2.460681 0,-2.517459 -0.132499,-2.801384 -1.457472,-3.161017 -0.946415,-0.264997 -1.533192,-0.246073 -2.252468,0.05678 z m 2.006399,4.107438 c -0.359638,0.832843 -1.533191,1.003198 -1.83605,0.246068 -0.189279,-0.511064 0.208219,-0.908562 1.097844,-1.116769 0.965345,-0.246068 1.116764,-0.05678 0.738206,0.870701 z"
     id="path6920"
     style="stroke-width:0.0189283" />
  <path
     d="m 76.387051,92.295836 c -0.757126,0.227137 -1.078904,0.548917 -1.476402,1.419619 -0.454278,0.965345 -0.454278,2.252468 0,3.236736 0.454277,1.022127 1.400692,1.476407 2.725675,1.343907 0.794986,-0.07571 1.059985,-0.189279 1.589971,-0.776055 0.340709,-0.359639 0.624637,-0.851778 0.624637,-1.059986 0,-0.321779 -0.132499,-0.378568 -0.719276,-0.378568 -0.605707,0 -0.776056,0.09464 -0.946415,0.473209 -0.151419,0.34071 -0.359638,0.473206 -0.757125,0.473206 -0.832846,0 -1.173554,-0.511064 -1.173554,-1.760329 0,-1.173552 0.416417,-1.836046 1.116764,-1.836046 0.378568,0 0.965344,0.47321 0.965344,0.77606 0,0.09464 0.378569,0.170355 0.832846,0.170355 h 0.851776 l -0.17036,-0.586777 c -0.246068,-0.851772 -0.662496,-1.230335 -1.608911,-1.476401 -0.946405,-0.246073 -1.116764,-0.246073 -1.85497,-0.01894 z"
     id="path6922"
     style="stroke-width:0.0189283" />
  <path
     d="m 82.21697,92.48512 c -0.435358,0.208208 -0.927485,0.643559 -1.135705,0.984268 -0.454277,0.79499 -0.473197,2.64996 -0.03784,3.501732 0.586767,1.09784 2.517456,1.722475 3.59636,1.173553 0.605707,-0.32178 1.457483,-1.154623 1.457483,-1.438549 0,-0.359639 -1.400693,-0.32178 -1.703541,0.03788 -0.548917,0.662489 -2.082109,0.132496 -2.082109,-0.719277 0,-0.283925 0.264989,-0.321779 2.006389,-0.321779 h 2.025329 l -0.132498,-0.889632 c -0.151419,-1.154623 -0.624637,-1.911753 -1.438542,-2.347104 -0.851775,-0.45428 -1.608912,-0.45428 -2.555326,0.01894 z m 2.025318,1.268194 c 0.643567,0.586776 0.435358,0.813914 -0.794985,0.813914 -0.624627,0 -1.135694,-0.05678 -1.135694,-0.151425 0,-0.07571 0.132499,-0.340709 0.302848,-0.567847 0.340708,-0.492139 1.135704,-0.548922 1.627831,-0.09464 z"
     id="path6924"
     style="stroke-width:0.0189283" />
</svg>
