<?xml version="1.0" encoding="UTF-8" standalone="no"?>
<!-- Created with Inkscape (http://www.inkscape.org/) -->

<svg
   width="100mm"
   height="100mm"
   viewBox="0 0 100 100"
   version="1.1"
   id="svg26768"
   sodipodi:docname="windows.svg"
   inkscape:version="1.1.1 (3bf5ae0d25, 2021-09-20)"
   xmlns:inkscape="http://www.inkscape.org/namespaces/inkscape"
   xmlns:sodipodi="http://sodipodi.sourceforge.net/DTD/sodipodi-0.dtd"
   xmlns="http://www.w3.org/2000/svg"
   xmlns:svg="http://www.w3.org/2000/svg">
  <sodipodi:namedview
     id="namedview26770"
     pagecolor="#ffffff"
     bordercolor="#666666"
     borderopacity="1.0"
     inkscape:pageshadow="2"
     inkscape:pageopacity="0.0"
     inkscape:pagecheckerboard="0"
     inkscape:document-units="mm"
     showgrid="false"
     width="209mm"
     inkscape:zoom="0.7500982"
     inkscape:cx="13.998167"
     inkscape:cy="135.31562"
     inkscape:window-width="1920"
     inkscape:window-height="1027"
     inkscape:window-x="1912"
     inkscape:window-y="-8"
     inkscape:window-maximized="1"
     inkscape:current-layer="layer1" />
  <defs
     id="defs26765" />
  <g
     inkscape:label="Layer 1"
     inkscape:groupmode="layer"
     id="layer1">
    <path
       d="M 39.778548,3.3591868 C 21.681763,7.3005145 7.4707842,20.789844 2.6412662,38.720101 0.92040704,44.881903 0.92040704,56.761387 2.5857195,62.867675 7.3042073,80.131797 20.293931,93.232536 37.447039,97.840009 c 6.328316,1.776374 18.096786,1.776374 24.369603,0.05555 C 78.747705,93.232567 91.404354,80.853478 96.233872,64.08896 102.72873,41.828791 92.126004,17.958776 71.142603,7.3560611 62.038687,2.8041031 49.604082,1.1942648 39.778517,3.3592182 Z m 19.429087,7.0499872 c 5.051563,1.054709 12.656649,4.829503 16.931047,8.38225 14.988143,12.49012 19.373572,33.91761 10.380686,51.126233 -7.327542,14.099948 -20.872386,22.315669 -36.804223,22.371184 -7.438573,0 -11.823985,-0.999209 -18.707422,-4.385412 C 26.455765,85.738464 25.01245,84.62824 20.460508,80.076282 16.130594,75.746369 14.687295,73.85898 12.799891,70.028672 9.580217,63.589325 8.247949,57.927143 8.247949,50.87716 c 0,-7.049982 1.332268,-12.712164 4.551942,-19.151526 C 15.853034,25.508331 23.735697,17.45914 29.619923,14.406013 39.278944,9.4099639 48.327345,8.1886938 59.207635,10.409174 Z"
       id="path9275"
       style="stroke-width:0.0555117" />
    <path
       d="m 37.05848,27.617781 c -2.553523,0.777165 -2.553523,0.777165 -3.774793,4.774002 -2.664554,9.048386 -3.275189,11.54641 -2.942114,11.54641 0.222045,-0.05555 1.887405,-0.388574 3.719279,-0.832664 4.607472,-1.11024 6.716906,-0.99921 10.4917,0.555119 1.831889,0.72165 3.386218,1.276754 3.497233,1.16574 0.111093,-0.05555 1.165755,-3.497234 2.331494,-7.605102 1.498814,-4.996048 1.998419,-7.660601 1.665344,-8.104691 C 50.214749,26.95163 41.887998,26.118966 37.05848,27.617781 Z"
       id="path9277"
       style="stroke-width:0.0555117" />
    <path
       d="m 57.486776,33.279963 c -0.499605,0.72165 -4.274398,13.933419 -4.274398,14.821614 0,0.999209 3.608248,2.886598 6.494863,3.386202 2.386993,0.333075 7.77163,-0.499604 10.04761,-1.554329 1.221254,-0.61062 1.720859,-1.665343 3.219673,-6.827921 0.99921,-3.386219 1.998419,-6.772422 2.164949,-7.549586 l 0.333075,-1.4433 -2.94213,0.777164 c -3.941323,1.05471 -9.49249,0.666136 -12.490119,-0.832679 -1.276753,-0.666134 -2.442508,-1.054725 -2.553523,-0.777165 z"
       id="path9279"
       style="stroke-width:0.0555117" />
    <path
       d="m 33.339202,48.379137 c -4.885018,1.054708 -5.051563,1.221254 -7.383042,9.159415 -1.165755,3.941323 -2.109449,7.383057 -2.164964,7.605102 0,0.222045 0.72165,0.16653 1.609844,-0.111093 4.385413,-1.221255 8.548797,-1.165739 12.545635,0.222044 2.164948,0.72165 3.941323,1.332285 3.941323,1.27677 0.05555,-0.05555 0.999209,-3.386203 2.164948,-7.327541 1.165756,-3.996839 2.220465,-7.494072 2.331495,-7.827131 0.333075,-0.888196 -4.607473,-2.886615 -7.882646,-3.219674 -1.55433,-0.166546 -3.830308,-0.05555 -5.162593,0.222045 z"
       id="path9281"
       style="stroke-width:0.0555117" />
    <path
       d="m 48.93798,62.09051 c -2.164964,7.327542 -2.220464,7.716116 -1.221254,8.382251 1.720859,1.221254 5.551151,2.331494 7.938161,2.331494 2.609038,0 7.993676,-1.332284 8.826356,-2.164948 0.610619,-0.610635 4.885017,-14.59957 4.551942,-14.932644 -0.111093,-0.110936 -1.110224,0.05555 -2.331478,0.38859 -3.386219,0.943695 -8.715326,0.721649 -11.935015,-0.499604 -1.609829,-0.610635 -3.108644,-1.110241 -3.275173,-1.110241 -0.166545,0 -1.332285,3.441735 -2.553539,7.605102 z"
       id="path9283"
       style="stroke-width:0.0555117" />
  </g>
</svg>
